<?xml version="1.0" encoding="utf-8"?>
<!-- Generator: Adobe Illustrator 21.1.0, SVG Export Plug-In . SVG Version: 6.00 Build 0)  -->
<svg version="1.1" id="Слой_1" xmlns="http://www.w3.org/2000/svg" xmlns:xlink="http://www.w3.org/1999/xlink" x="0px" y="0px"
	 viewBox="0 0 984 1047" style="enable-background:new 0 0 984 1047;" xml:space="preserve">
<style type="text/css">
	.st0{fill:#C0ECFA;}
	.st1{fill:#FFCF00;}
	.st2{fill:#2A2A2A;}
</style>
<g id="Слой_x0020_1">
	<g id="_1050321280">
		<rect x="969.501" y="20.173" class="st0" width="12.138" height="451.454"/>
		<rect x="96.784" y="986.969" class="st0" width="212.41" height="59.915"/>
		<rect x="491.558" y="986.969" class="st0" width="212.41" height="59.915"/>
		<polygon class="st1" points="840.586,24.408 972.194,24.408 972.194,478.829 840.586,478.829 840.586,1046.884 692.543,1046.884 
			692.747,989.33 502.777,986.969 503.243,1046.884 299.382,1046.884 295.191,989.33 112.992,986.969 108.758,1046.884 
			20.45,1046.884 20.45,0.116 840.586,0.116 		"/>
		<path class="st2" d="M840.586,0.116v16.8H982.82v0.058H984v461.855h-1.181h-1.181h-7.551h-7.202H840.586v508.139v59.915H780.67
			h-87.923h-7.846H508.049h-5.271H302.962h-7.771H113.616h-0.625H20.45v-19.818v-40.098V211.089h1.708v-5.543h0.789L0,112.835
			l3.776-2.548l23.577,95.259h8.087v5.543h1.112h8.692h208.429v14.864h-1.371v5.3H251.7l15.753,56.688l-3.83,2.076l-16.328-58.763
			h-8.275v-5.3H45.243v117.099h193.565v-39.049h14.864v39.049v14.864v72.94h-1.207v7.596h-0.614l15.628,56.688l-3.835,2.075
			l-16.199-58.763h-8.261v-7.596h-0.377v-72.94H45.243v188.101h193.565v-34.292h14.864v34.292h16.383v14.864H45.243v426.088h67.749
			h0.625h181.575h7.771h61.114v-426.56h-6.268v-0.573l-74.313,20.984l-2.075-3.819l76.388-21.571v-8.302h6.268v-1.607h14.864
			v441.447h123.838h5.271h176.853h7.846h87.923V446.713H378.939h-0.074v6.571h-0.676l19.746,74.313l-3.855,2.076l-20.295-76.388
			h-8.2v-6.571h-1.509v-60.255h1.509v-6.033h8.773l27.395-76.388l3.661,2.076l-26.651,74.313h0.103v6.033h0.074v45.392H780.67
			V330.648v-14.387v-209.79v-5.823v-75.74H378.939v264.823h-14.864V24.909H45.243v74.543H20.45V24.909V0.116h24.793h318.833h14.864
			H780.67h53.828L840.586,0.116L840.586,0.116z M508.049,1013.296h176.853V989.33H508.049V1013.296z M684.901,1020.497H508.049
			v24.025h176.853V1020.497z M113.616,1013.296h181.575V989.33H113.616V1013.296z M295.191,1020.497H113.616v24.025h181.575
			V1020.497z M783.031,316.262h57.554v155.366h126.301V24.118H840.586v82.354h-26.386v99.22h-7.202v-99.22h-23.966V316.262z
			 M981.639,24.118h-7.551v447.51h7.551V24.118z"/>
		<g>
			<rect x="786.7" y="234.145" class="st2" width="19.678" height="2.074"/>
			<rect x="804.066" y="310.532" class="st2" width="13.281" height="7.771"/>
		</g>
	</g>
</g>
</svg>
