<?xml version="1.0" encoding="UTF-8"?>
<!DOCTYPE svg PUBLIC "-//W3C//DTD SVG 1.0//EN" "http://www.w3.org/TR/2001/REC-SVG-20010904/DTD/svg10.dtd">
<!-- Creator: CorelDRAW X7 -->
<svg xmlns="http://www.w3.org/2000/svg" xml:space="preserve" width="193px" height="147px" version="1.0" style="shape-rendering:geometricPrecision; text-rendering:geometricPrecision; image-rendering:optimizeQuality; fill-rule:evenodd; clip-rule:evenodd"
viewBox="0 0 2366309 1803353"
 xmlns:xlink="http://www.w3.org/1999/xlink">
 <defs>
  <style type="text/css">
   <![CDATA[
    .fil3 {fill:#2A2A2A}
    .fil1 {fill:#C0ECFA}
    .fil0 {fill:#C0ECFA}
    .fil2 {fill:#FFCF00}
    .fil4 {fill:#2A2A2A;fill-rule:nonzero}
   ]]>
  </style>
 </defs>
 <g id="Слой_x0020_1">
  <metadata id="CorelCorpID_0Corel-Layer"/>
  <g id="_1002796256">
   <rect class="fil0" x="3661" y="814830" width="28361" height="905323"/>
   <rect class="fil0" x="304745" y="354796" width="117016" height="389812"/>
   <rect class="fil1" x="949513" y="2605" width="459932" height="116640"/>
   <rect class="fil1" x="1620471" y="2605" width="459932" height="116640"/>
   <polygon class="fil2" points="966935,0 304470,0 304470,926 302691,926 302691,322688 424019,322688 424019,744608 302691,744608 302691,784212 68007,784212 68007,784212 52134,784212 52134,784212 38706,784212 38706,784212 29113,784212 29113,784212 29113,819576 29113,1705914 29113,1721484 29113,1741293 302691,1741293 302691,1768524 304470,1768524 424019,1768524 1281215,1768524 1281215,1311356 1445243,1311356 1445243,1768524 2306159,1768524 2363980,1768524 2366309,1768524 2366309,121328 2366309,926 2366309,0 2076222,0 2076222,121328 1629167,121328 1629167,0 1414003,0 1414003,121328 966935,121328 "/>
   <path class="fil3" d="M1006900 0l-12169 0 -690261 0 0 926 -1779 0 0 346447 0 8826 0 368948 0 12704 0 46361 -263811 0 0 0 -15873 0 0 0 -13414 0 0 0 -9593 0 0 0 0 35364 0 886338 0 15570 0 19809 302691 0 0 27231 1779 0 119549 0 1545301 0 0 -5672 13630 0 184633 40501 1027 -4746 -185530 -40689 0 -13153 -13760 0 0 -33931 0 -415843 -7553 0 -15931 0 -207365 0 0 1577 -11373 0 -131254 -40501 -1028 4746 132152 40689 0 13153 11503 0 0 2561 207365 0 0 393618 -488409 0 0 -393618 124236 0 0 -2561 12893 0 0 -18087 -12893 0 0 -1577 -124236 0 -23470 0 -139950 0 -3155 0 0 -13443 40501 -184633 -4746 -1027 -40689 185530 -13153 0 0 13573 -2228 0 0 415843 -846518 0 0 -170858 -49776 0 0 -210374 -23528 0 0 -195774 17017 0 30140 189841 4775 -752 -30024 -189089 1620 0 0 -22139 49776 0 0 -62191 846518 0 0 32036 2228 0 0 14079 18087 0 0 -14079 3155 0 0 -32036 0 -2691 14093 0 0 -18087 -14093 0 0 -1447 -869988 0 0 -289422 0 -12704 0 -368948 0 -8826 0 -226045 570712 0 12169 0 373071 0 5238 0 123527 0 0 905945 0 1447 -14701 0 -184647 -40501 -1027 4746 185529 40689 0 13153 14846 0 0 2691 23470 0 330429 0 0 -2691 13327 0 0 -18087 -13327 0 0 -1447 -330429 0 0 -905945 126957 0 9391 0 368281 0 12820 0 256504 0 0 905945 -226566 0 0 1447 -15265 0 -184648 -40501 -1013 4746 185530 40689 0 13153 15396 0 0 2691 226566 0 0 661336 -105846 0 0 36362 -12024 0 0 18087 12024 0 0 3241 105846 0 57821 0 2329 0 0 -1647196 0 -120402 0 -926 -316654 0 -12820 0 -368281 0 -9391 0 -273954 0 -5238 0 -373071 0zm-704209 819576l0 292113 40052 0 0 22139 0 195774 0 210374 -40052 0 0 165938 -263811 0 0 -886338 263811 0zm-279684 886338l0 -886338 -13414 0 0 886338 13414 0zm284459 -1349715l48531 0 0 368948 -48531 0 0 -368948zm63116 0l48662 0 0 368948 -48662 0 0 -368948zm1297972 -239646l0 -48661 368281 0 0 48661 -368281 0zm0 -63247l0 -48531 368281 0 0 48531 -368281 0zm-661654 63247l0 -48661 373071 0 0 48661 -373071 0zm0 -63247l0 -48531 373071 0 0 48531 -373071 0zm389725 1263910l28491 19867 8841 62885 0 -82752 -37332 0zm37332 100144l-2402 333 -10939 -77832 -24367 -16987 0 95181 37708 0 0 -695zm-33381 91015l24540 17103 8841 62885 0 -79988 -33381 0zm30936 97380l-10896 -77514 -24367 -16987 0 94501 35263 0zm-126798 -97380l50022 20431 14166 66936 0 -87367 -64188 0zm61352 97380l-15541 -73448 -56518 -23093 0 96541 72059 0zm-65678 -288539l54348 22211 14166 66922 0 -89133 -68514 0zm66039 100839l-15902 -75126 -56518 -23094 0 98220 72420 0zm-72420 209926l74895 0 27347 0 37708 0 0 82853 -139950 0 0 -82853z"/>
   <path class="fil4" d="M1775774 1341829l172290 0 0 368860 -174721 0 0 -368860 2431 0zm167443 4862l-165027 0 0 359151 165027 0 0 -359151z"/>
   <path class="fil4" d="M1860711 1354041c20662,0 39458,8451 53074,22081 13616,13616 22067,32397 22067,53075l0 239632c0,8146 -3328,15569 -8711,20937 -5368,5383 -12791,8711 -20938,8711l-90985 0c-8161,0 -15584,-3328 -20952,-8711 -5368,-5368 -8711,-12791 -8711,-20937l0 -239632c0,-20678 8451,-39459 22066,-53075 13631,-13630 32412,-22081 53090,-22081zm49645 25510c-12748,-12748 -30314,-20648 -49645,-20648 -19332,0 -36912,7900 -49646,20648 -12748,12734 -20662,30314 -20662,49646l0 239632c0,6815 2792,13022 7292,17508 4500,4500 10693,7293 17523,7293l90985 0c6815,0 13023,-2793 17508,-7293 4501,-4486 7293,-10693 7293,-17508l0 -239632c0,-19332 -7915,-36912 -20648,-49646z"/>
   <path class="fil3" d="M1860711 1643695c5440,0 9868,4413 9868,9868 0,5455 -4428,9883 -9868,9883 -5455,0 -9883,-4428 -9883,-9883 0,-5455 4428,-9868 9883,-9868zm0 3849c3328,0 6019,2691 6019,6019 0,3328 -2691,6034 -6019,6034 -3328,0 -6034,-2706 -6034,-6034 0,-3328 2706,-6019 6034,-6019z"/>
   <path class="fil4" d="M1694049 1608765l24280 0c14007,0 26755,5744 35986,14976 9232,9232 14976,21980 14976,35986l0 37477c0,3704 -1533,7075 -3964,9521 -2446,2445 -5817,3964 -9521,3964l-99233 0c-3690,0 -7061,-1519 -9507,-3950 -2460,-2445 -3965,-5817 -3965,-9535l0 -37477c0,-14006 5730,-26740 14962,-35986 9232,-9232 21980,-14976 35986,-14976zm24280 4862l-24280 0c-12675,0 -24193,5194 -32557,13543 -8363,8349 -13543,19882 -13543,32557l0 37477c0,2373 969,4543 2532,6106 1563,1562 3733,2532 6092,2532l99233 0c2358,0 4529,-984 6091,-2547 1563,-1548 2533,-3718 2533,-6091l0 -37477c0,-12675 -5195,-24208 -13544,-32557 -8349,-8363 -19881,-13543 -32557,-13543z"/>
   <path class="fil4" d="M1694049 1623293c-9998,0 -19114,4109 -25712,10707 -6613,6613 -10722,15729 -10722,25727l0 14600 97149 0 0 -14600c0,-9998 -4110,-19114 -10708,-25712 -6612,-6613 -15728,-10722 -25727,-10722l-24280 0zm-29142 7278c7481,-7481 17798,-12140 29142,-12140l24280 0c11330,0 21661,4659 29157,12140 7480,7495 12140,17812 12140,29156l0 15642c0,1042 -449,1997 -1129,2691 -695,680 -1650,1129 -2691,1129l-99233 0c-1028,0 -1983,-449 -2677,-1129 -695,-709 -1129,-1678 -1129,-2691l0 -15642c0,-11330 4645,-21661 12140,-29156z"/>
   <path class="fil3" d="M1710313 1683226c2778,1476 4674,4413 4674,7785 0,4861 -3936,8797 -8798,8797 -4862,0 -8797,-3936 -8797,-8797 0,-3372 1895,-6309 4688,-7785l0 -20735 8233 0 0 20735z"/>
   <path class="fil3" d="M1706189 1632741c5455,0 9883,4428 9883,9883 0,5441 -4428,9868 -9883,9868 -5455,0 -9868,-4427 -9868,-9868 0,-5455 4413,-9883 9868,-9883zm0 3849c3328,0 6020,2706 6020,6034 0,3314 -2692,6019 -6020,6019 -3328,0 -6019,-2705 -6019,-6019 0,-3328 2691,-6034 6019,-6034z"/>
   <path class="fil4" d="M1593861 1710689l-85139 0 0 -33584c0,-1794 723,-3429 1910,-4601 1172,-1172 2807,-1910 4587,-1910l73592 0c1997,0 3820,810 5137,2127 1317,1317 2127,3125 2127,5122l0 32846 -2214 0zm-80711 -4427l78497 0 0 -28419c0,-767 -318,-1476 -839,-1982 -506,-521 -1215,-839 -1997,-839l-73592 0c-565,0 -1086,246 -1462,622 -376,361 -607,897 -607,1461l0 29157z"/>
   <path class="fil4" d="M1588811 1675022l-76862 0 0 -87397c0,-10867 4456,-20750 11619,-27912 7177,-7177 17059,-11619 27926,-11619 10867,0 20750,4442 27912,11604 7177,7177 11634,17060 11634,27927l0 87397 -2229 0zm-72420 -4428l70207 0 0 -82969c0,-9651 -3951,-18434 -10303,-24787 -6367,-6366 -15135,-10317 -24801,-10317 -9666,0 -18434,3951 -24786,10303 -6367,6367 -10317,15150 -10317,24801l0 82969z"/>
   <path class="fil4" d="M1581359 1664242l-60352 0c-2287,-15845 -9058,-62697 -9058,-76617 0,-10867 4456,-20764 11619,-27927 7162,-7162 17045,-11604 27926,-11604 10881,0 20764,4442 27927,11604 7162,7177 11619,17060 11619,27927 0,15656 -5629,59485 -7713,76617l-1968 0zm-56518 -4443l54565 0 7192 -72290c-29,-9608 -3980,-18347 -10303,-24671 -6367,-6366 -15150,-10317 -24801,-10317 -9651,0 -18434,3951 -24786,10317 -6338,6338 -10288,15063 -10317,24671l8450 72290z"/>
   <path class="fil4" d="M1551827 1697739c-2055,0 -3936,-839 -5281,-2185 -1346,-1360 -2185,-3227 -2185,-5296 0,-2055 839,-3921 2185,-5281 1345,-1346 3226,-2185 5281,-2185 2069,0 3936,839 5281,2185 1360,1360 2200,3226 2200,5281 0,2069 -840,3936 -2200,5296 -1345,1346 -3226,2185 -5281,2185z"/>
   <path class="fil4" d="M1457543 1318489l0 148039 106786 0 0 -150455 -106786 0 0 2416zm4861 143178l0 -140747 97063 0 0 140747 -97063 0z"/>
   <path class="fil4" d="M1540975 1318489l0 148039 23354 0 0 -150455 -23354 0 0 2416zm4847 143178l0 -140747 13645 0 0 140747 -13645 0z"/>
   <path class="fil4" d="M1465197 1391301c0,10215 4153,19490 10867,26204 6714,6714 15989,10867 26204,10867 10230,0 19491,-4153 26205,-10867 6728,-6714 10881,-15989 10881,-26204 0,-10230 -4153,-19491 -10867,-26205 -6728,-6728 -15989,-10867 -26219,-10867 -10215,0 -19490,4139 -26204,10853 -6714,6728 -10867,15989 -10867,26219zm14296 22775c-5831,-5817 -9434,-13877 -9434,-22775 0,-8899 3603,-16959 9420,-22790 5831,-5831 13891,-9434 22789,-9434 8914,0 16973,3603 22790,9434 5831,5831 9434,13891 9434,22790 0,8898 -3603,16958 -9419,22775 -5832,5831 -13891,9434 -22805,9434 -8898,0 -16958,-3603 -22775,-9434z"/>
   <path class="fil4" d="M1478509 1391301c0,6554 2663,12501 6960,16799 4312,4297 10245,6960 16799,6960 6570,0 12502,-2663 16800,-6960 4312,-4298 6960,-10245 6960,-16799 0,-6555 -2648,-12502 -6960,-16800 -4298,-4312 -10230,-6960 -16800,-6960 -6554,0 -12487,2648 -16799,6960 -4297,4298 -6960,10245 -6960,16800zm10404 13370c-3429,-3430 -5542,-8161 -5542,-13370 0,-5224 2113,-9956 5542,-13370 3415,-3430 8146,-5542 13355,-5542 5224,0 9955,2112 13370,5542 3430,3414 5542,8146 5542,13370 0,5209 -2112,9940 -5542,13370 -3415,3414 -8146,5527 -13370,5527 -5209,0 -9940,-2113 -13355,-5527z"/>
   <path class="fil3" d="M1547052 1331020c0,2764 2228,4992 4992,4992 2764,0 4992,-2228 4992,-4992 0,-2764 -2228,-5006 -4992,-5006 -2764,0 -4992,2242 -4992,5006z"/>
   <path class="fil3" d="M1547052 1453737c0,2764 2228,4992 4992,4992 2764,0 4992,-2228 4992,-4992 0,-2764 -2228,-5006 -4992,-5006 -2764,0 -4992,2242 -4992,5006z"/>
   <path class="fil3" d="M1547052 1437517c0,2763 2228,4992 4992,4992 2764,0 4992,-2229 4992,-4992 0,-2764 -2228,-5007 -4992,-5007 -2764,0 -4992,2243 -4992,5007z"/>
   <path class="fil4" d="M715886 1561247l92360 0c4977,0 9492,2040 12777,5310 3270,3285 5310,7799 5310,12777l0 132368 -126190 0 0 -134698c0,-4341 1765,-8277 4630,-11127 2851,-2851 6787,-4630 11113,-4630zm92360 4861l-92360 0c-2995,0 -5715,1230 -7683,3198 -1983,1968 -3213,4703 -3213,7698l0 129851 116481 0 0 -127521c0,-3632 -1490,-6946 -3878,-9333 -2402,-2402 -5715,-3893 -9347,-3893z"/>
   <polygon class="fil4" points="702574,1578769 823902,1578769 823902,1583631 702574,1583631 "/>
   <path class="fil3" d="M734306 1594729c10693,0 19360,8668 19360,19361 0,10693 -8667,19360 -19360,19360 -10693,0 -19360,-8667 -19360,-19360 0,-10693 8667,-19361 19360,-19361z"/>
   <path class="fil3" d="M788437 1600749c7365,0 13341,5976 13341,13341 0,7379 -5976,13355 -13341,13355 -7380,0 -13356,-5976 -13356,-13355 0,-7365 5976,-13341 13356,-13341z"/>
   <path class="fil3" d="M788437 1654692c-10708,0 -19375,8667 -19375,19360 0,10693 8667,19360 19375,19360 10693,0 19360,-8667 19360,-19360 0,-10693 -8667,-19360 -19360,-19360z"/>
   <path class="fil3" d="M734306 1660711c-7365,0 -13341,5976 -13341,13341 0,7365 5976,13341 13341,13341 7379,0 13355,-5976 13355,-13341 0,-7365 -5976,-13341 -13355,-13341z"/>
   <path class="fil4" d="M1146937 1573502l98104 0c3864,0 7365,1578 9912,4124 2547,2533 4124,6049 4124,9912l0 98104c0,3864 -1577,7380 -4109,9926 -2547,2547 -6063,4124 -9927,4124l-98104 0c-3863,0 -7379,-1577 -9926,-4124 -2532,-2546 -4109,-6062 -4109,-9926l0 -98104c0,-3863 1577,-7379 4109,-9912 2561,-2546 6063,-4124 9926,-4124zm98104 4848l-98104 0c-2532,0 -4833,1042 -6497,2691 -1649,1679 -2691,3979 -2691,6497l0 98104c0,2532 1042,4833 2691,6497 1679,1664 3965,2692 6497,2692l98104 0c2533,0 4833,-1028 6497,-2692 1650,-1664 2692,-3965 2692,-6497l0 -98104c0,-2518 -1042,-4818 -2692,-6482 -1664,-1664 -3964,-2706 -6497,-2706z"/>
   <path class="fil4" d="M1157370 1583023l77239 0c4109,0 7857,1693 10563,4399 2705,2706 4384,6439 4384,10549l0 52973c0,4109 -1679,7857 -4384,10563 -2706,2706 -6454,4384 -10563,4384l-77239 0c-4110,0 -7843,-1678 -10563,-4384 -2706,-2706 -4384,-6454 -4384,-10563l0 -52973c0,-4110 1678,-7843 4384,-10549 2720,-2720 6468,-4399 10563,-4399zm77239 4862l-77239 0c-2778,0 -5311,1129 -7119,2952 -1838,1838 -2981,4370 -2981,7134l0 52973c0,2778 1143,5296 2981,7134 1823,1823 4355,2966 7119,2966l77239 0c2763,0 5296,-1143 7133,-2966 1823,-1838 2967,-4356 2967,-7134l0 -52973c0,-2764 -1144,-5296 -2967,-7119 -1837,-1838 -4370,-2967 -7133,-2967z"/>
   <path class="fil3" d="M1200113 1671448c2778,1475 4674,4413 4674,7784 0,4862 -3936,8798 -8798,8798 -4862,0 -8797,-3936 -8797,-8798 0,-3371 1895,-6309 4673,-7784l0 -20735 8248 0 0 20735z"/>
   <path class="fil3" d="M1195989 1610328c5455,0 9869,4427 9869,9868 0,5455 -4414,9883 -9869,9883 -5455,0 -9868,-4428 -9868,-9883 0,-5441 4413,-9868 9868,-9868zm0 3849c3328,0 6020,2705 6020,6019 0,3328 -2692,6034 -6020,6034 -3328,0 -6019,-2706 -6019,-6034 0,-3314 2691,-6019 6019,-6019z"/>
  </g>
 </g>
</svg>
