<?xml version="1.0" encoding="UTF-8"?>
<!DOCTYPE svg PUBLIC "-//W3C//DTD SVG 1.0//EN" "http://www.w3.org/TR/2001/REC-SVG-20010904/DTD/svg10.dtd">
<!-- Creator: CorelDRAW X7 -->
<svg xmlns="http://www.w3.org/2000/svg" xml:space="preserve" width="193px" height="147px" version="1.0" style="shape-rendering:geometricPrecision; text-rendering:geometricPrecision; image-rendering:optimizeQuality; fill-rule:evenodd; clip-rule:evenodd"
viewBox="0 0 39037313 29750387"
 xmlns:xlink="http://www.w3.org/1999/xlink">
 <defs>
  <style type="text/css">
   <![CDATA[
    .fil1 {fill:#5B5B5B}
    .fil0 {fill:#C7F5CB}
    .fil2 {fill:#FEFEFE}
    .fil3 {fill:#5B5B5B;fill-rule:nonzero}
    .fil4 {fill:#FEFEFE;fill-rule:nonzero}
   ]]>
  </style>
 </defs>
 <g id="Слой_x0020_1">
  <metadata id="CorelCorpID_0Corel-Layer"/>
  <g id="_1004555968">
   <polygon class="fil0" points="15951646,0 5022889,0 5022889,15516 4993528,15516 4993528,5323661 6995092,5323661 6995092,12284140 4993528,12284140 4993528,12937245 1121926,12937245 1121926,12937245 860064,12937245 860064,12937245 638543,12937245 638543,12937245 480280,12937245 480280,12937245 480280,13520885 480280,28142929 480280,28399540 480280,28726331 4993528,28726331 4993528,29175579 5022889,29175579 6995092,29175579 21136379,29175579 21136379,21633846 23842370,21633846 23842370,29175579 38045004,29175579 38998881,29175579 39037313,29175579 39037313,2001803 39037313,15516 39037313,0 34251699,0 34251699,2001803 26876584,2001803 26876584,0 23327000,0 23327000,2001803 15951646,2001803 "/>
   <path class="fil1" d="M16610957 0l-200753 0 -11387315 0 0 15516 -29361 0 0 5715141 0 145612 0 6086809 0 209586 0 764581 -4352120 0 0 0 -261863 0 0 0 -221282 0 0 0 -158263 0 0 0 0 583640 0 14622044 0 256611 0 326791 4993528 0 0 449248 29361 0 1972203 0 25493034 0 0 -93335 224863 0 3045911 668143 16948 -78296 -3060710 -671246 0 -216986 -227012 0 0 -559769 0 -6860223 -124605 0 -262817 0 -3420921 0 0 25781 -187624 0 -2165319 -668143 -16948 78296 2180118 671246 0 216985 189773 0 0 42490 3420921 0 0 6493568 -8057342 0 0 -6493568 2049545 0 0 -42490 212688 0 0 -298384 -212688 0 0 -25781 -2049545 0 -387184 0 -2308782 0 -52038 0 0 -221759 668143 -3046150 -78296 -16948 -671246 3060711 -216986 0 0 224146 -36761 0 0 6860223 -13965120 0 0 -2818900 -821154 0 0 -3470334 -388139 0 0 -3229716 280720 0 497228 3131846 78774 -12651 -495319 -3119195 26736 0 0 -365223 821154 0 0 -1025966 13965120 0 0 528499 36761 0 0 232263 298385 0 0 -232263 52038 0 0 -528499 0 -44399 232502 0 0 -298385 -232502 0 0 -23871 -14352304 0 0 -4774632 0 -209586 0 -6086809 0 -145612 0 -3728854 9415112 0 200753 0 6154602 0 86413 0 2037848 0 0 14945493 0 23871 -242527 0 -3046150 -668143 -16948 78296 3060711 671246 0 216986 244914 0 0 44399 387184 0 5451130 0 0 -44399 219850 0 0 -298385 -219850 0 0 -23871 -5451130 0 0 -14945493 2094422 0 154921 0 6075590 0 211495 0 4231572 0 0 14945493 -3737686 0 0 23871 -251836 0 -3046150 -668143 -16710 78296 3060711 671246 0 216986 253985 0 0 44399 3737686 0 0 10910139 -1746147 0 0 599872 -198366 0 0 298385 198366 0 0 53232 1746147 0 953877 0 38432 0 0 -27173776 0 -1986287 0 -15516 -5223881 0 -211495 0 -6075590 0 -154921 0 -4519454 0 -86413 0 -6154602 0zm-11617429 13520885l0 4819032 660743 0 0 365223 0 3229716 0 3470334 -660743 0 0 2737739 -4352120 0 0 -14622044 4352120 0zm-4613983 14622044l0 -14622044 -221282 0 0 14622044 221282 0zm4692756 -22266660l800626 0 0 6086809 -800626 0 0 -6086809zm1041244 0l802774 0 0 6086809 -802774 0 0 -6086809zm21412802 -3953478l0 -802535 6075590 0 0 802535 -6075590 0zm0 -1043153l0 -800626 6075590 0 0 800626 -6075590 0zm-10915390 1043153l0 -802535 6154602 0 0 802535 -6154602 0zm0 -1043153l0 -800626 6154602 0 0 800626 -6154602 0zm6429355 20850884l470016 327746 145850 1037424 0 -1365170 -615866 0zm615866 1652097l-39626 5490 -180463 -1284248 -401983 -280243 0 1570459 622072 0 0 -11458zm-550699 1501233l404849 282153 145850 1037423 0 -1319576 -550699 0zm510357 1606503l-179747 -1278519 -401983 -280242 0 1558761 581730 0zm-2091796 -1606503l825213 337294 233695 1104023 0 -1441317 -1058908 0zm1012121 1606503l-256372 -1211442 -932393 -381216 0 1592658 1188765 0zm-1083494 -4759833l896586 366417 233695 1104023 0 -1470440 -1130281 0zm1089462 1663555l-262340 -1239610 -932393 -380977 0 1620587 1194733 0zm-1194733 3463172l1235552 0 451158 0 622072 0 0 1366841 -2308782 0 0 -1366841z"/>
   <g>
    <polygon class="fil2" points="9544730,25809799 20915097,25809799 20915097,28211916 9544730,28211916 "/>
    <path class="fil3" d="M9543536 25769935l11416676 0 0 2482084 -11461791 0 0 -2482084 45115 0zm11326445 79967l-11281329 0 0 2321911 11281329 0 0 -2321911z"/>
   </g>
   <g>
    <path class="fil4" d="M11810067 25769935l1523671 0c82116,0 156592,33419 210779,87606 53948,53948 87606,128425 87606,210540l0 2183938 -2081771 0 0 -2222370c0,-71612 29123,-136541 76387,-183566 47025,-47025 111954,-76148 183328,-76148z"/>
    <g>
     <path class="fil3" d="M11810067 25769935l1523671 0c82116,0 156592,33419 210779,87606 53948,53948 87606,128425 87606,210540l0 2183938 -2081771 0 0 -2222370c0,-71612 29123,-136541 76387,-183566 47025,-47025 111954,-76148 183328,-76148zm1523671 79967l-1523671 0c-49413,0 -94290,20290 -126754,52755 -32703,32464 -52993,77580 -52993,126992l0 2142164 1921597 0 0 -2103732c0,-59915 -24587,-114580 -63974,-153966 -39625,-39626 -94289,-64213 -154205,-64213z"/>
     <polygon class="fil3" points="11590455,26059010 13592020,26059010 13592020,26138977 11590455,26138977 "/>
     <path class="fil1" d="M12113942 26322066c176405,0 319391,143225 319391,319630 0,176405 -142986,319391 -319391,319391 -176406,0 -319391,-142986 -319391,-319391 0,-176405 142985,-319630 319391,-319630z"/>
     <path class="fil1" d="M13006947 26421369c121503,0 220089,98586 220089,220327 0,121502 -98586,220088 -220089,220088 -121741,0 -220327,-98586 -220327,-220088 0,-121741 98586,-220327 220327,-220327z"/>
     <path class="fil1" d="M13006947 27311271c-176643,0 -319629,142986 -319629,319391 0,176405 142986,319391 319629,319391 176405,0 319391,-142986 319391,-319391 0,-176405 -142986,-319391 -319391,-319391z"/>
     <path class="fil1" d="M12113942 27410574c-121503,0 -220089,98586 -220089,220088 0,121741 98586,220327 220089,220327 121740,0 220327,-98586 220327,-220327 0,-121502 -98587,-220088 -220327,-220088z"/>
    </g>
   </g>
   <g>
    <polygon class="fil4" points="6987692,25769935 9429911,25769935 9429911,28252019 6947828,28252019 6947828,25769935 "/>
    <path class="fil3" d="M8229928 26546690l0 86651 79967 -68509 51799 60632 -131766 113147 0 177599 115773 -115535 32225 -189056 78774 13606 -13368 77580 43922 -43922 56574 56574 -54664 54664 106225 -9549 7400 79251 -201708 18381 -116728 116728 163753 0 156354 -110760 46309 65167 -64689 45593 62302 0 0 79967 -77341 0 82115 68270 -51083 61348 -155638 -129618 -155160 0 113148 112909 188579 32225 -13368 78774 -77580 -13368 43923 43923 -56574 56573 -54664 -54664 9548 106225 -79251 7400 -18380 -201708 -116728 -116489 0 163753 110760 156115 -65167 46071 -45593 -64213 0 62064 -79968 0 0 -77341 -68270 81877 -61348 -50845 129618 -155637 0 -159219 -125799 126038 -9070 171154 -79729 -4058 4297 -82832 -49174 49174 -56574 -56574 61348 -61348 -104792 -8116 5967 -79728 173302 13367 121741 -121741 -177837 0 -127709 115058 -53470 -59439 61586 -55619 -69464 0 0 -79728 86890 0 -68748 -79967 60870 -51800 112909 131767 181896 0 -128903 -128664 -171153 -9070 4058 -79729 82832 4297 -49174 -49174 56573 -56574 61348 61348 8116 -104792 79729 5967 -13368 173302 121502 121502 0 -177837 -114818 -127470 59438 -53470 55380 61586 0 -69464 79968 0zm-1242236 -776755l2442219 0 0 2482084 -2482083 0 0 -2482084 39864 0zm2362014 79967l-2321911 0 0 2321911 2321911 0 0 -2321911z"/>
   </g>
   <g>
    <path class="fil4" d="M18921171 25971882l1618438 0c63735,0 121503,26019 163515,68032 42013,41774 68032,99780 68032,163514l0 1618678c0,63735 -26019,121741 -67793,163515 -42013,42012 -100019,68031 -163754,68031l-1618438 0c-63735,0 -121741,-26019 -163754,-68031 -41774,-41774 -67793,-99780 -67793,-163515l0 -1618678c0,-63734 26019,-121740 67793,-163514 42252,-42013 100019,-68032 163754,-68032z"/>
    <g>
     <path class="fil3" d="M18921171 25971882l1618438 0c63735,0 121503,26019 163515,68032 42013,41774 68032,99780 68032,163514l0 1618678c0,63735 -26019,121741 -67793,163515 -42013,42012 -100019,68031 -163754,68031l-1618438 0c-63735,0 -121741,-26019 -163754,-68031 -41774,-41774 -67793,-99780 -67793,-163515l0 -1618678c0,-63734 26019,-121740 67793,-163514 42252,-42013 100019,-68032 163754,-68032zm1618438 80206l-1618438 0c-41774,0 -79729,16948 -107180,44399 -27213,27452 -44400,65406 -44400,106941l0 1618678c0,41535 17187,79490 44400,106941 27690,27451 65406,44638 107180,44638l1618438 0c41774,0 79729,-17187 107180,-44638 27213,-27451 44400,-65406 44400,-106941l0 -1618678c0,-41535 -17187,-79489 -44400,-106941 -27451,-27451 -65406,-44399 -107180,-44399z"/>
     <path class="fil3" d="M19093279 26128952l1274222 0c67793,0 129618,27928 174257,72567 44638,44638 72328,106463 72328,174256l0 873671c0,67793 -27690,129618 -72328,174257 -44639,44638 -106464,72567 -174257,72567l-1274222 0c-67793,0 -129380,-27929 -174257,-72567 -44638,-44639 -72328,-106225 -72328,-174257l0 -873671c0,-68031 27690,-129618 72328,-174256 44877,-44639 106703,-72567 174257,-72567zm1274222 80205l-1274222 0c-45832,0 -87606,18620 -117444,48697 -30316,30316 -49174,72090 -49174,117921l0 873671c0,45832 18858,87606 49174,117683 30077,30077 71851,48935 117444,48935l1274222 0c45593,0 87367,-18858 117683,-48935 30077,-30316 48935,-71851 48935,-117683l0 -873671c0,-45831 -18858,-87367 -48935,-117682 -30316,-30078 -72090,-48936 -117683,-48936z"/>
     <path class="fil1" d="M19798422 27587695c45832,24587 77102,72806 77102,128425 0,80205 -64928,145134 -145134,145134 -80206,0 -145134,-64929 -145134,-145134 0,-55619 31270,-103838 77102,-128425l0 -341830 136064 0 0 341830z"/>
     <path class="fil1" d="M19730390 26579393c89993,0 162799,73045 162799,163038 0,89992 -72806,162798 -162799,162798 -89993,0 -162799,-72806 -162799,-162798 0,-89993 72806,-163038 162799,-163038zm0 63496c54903,0 99303,44639 99303,99542 0,54902 -44400,99302 -99303,99302 -54903,0 -99302,-44400 -99302,-99302 0,-54903 44399,-99542 99302,-99542z"/>
    </g>
   </g>
   <g>
    <polygon class="fil2" points="23381425,13670555 23381425,4812110 24728453,4812110 24728453,13670555 "/>
    <polygon class="fil2" points="24098981,11532927 24098981,6847332 24347714,6847332 24347714,11532927 "/>
    <path class="fil2" d="M24347714 6847332c237992,1598387 269740,3165265 0,4685595l0 -4685595z"/>
    <polygon class="fil2" points="24537964,9299816 24537964,9080443 24684531,9080443 24684531,9299816 "/>
    <path class="fil3" d="M23341322 13670555l0 -8898309 1427234 0 0 8938412 -1427234 0 0 -40103zm80206 -8818342l0 8778239 1266822 0 0 -8778239 -1266822 0z"/>
    <path class="fil3" d="M24058878 11532927l0 -4725459 328939 0 0 4765323 -328939 0 0 -39864zm79967 -4645492l0 4605389 169005 0 0 -4605389 -169005 0z"/>
    <path class="fil3" d="M24387579 6843752c119115,799671 186430,1592180 190488,2375380 3820,784394 -55857,1558523 -190966,2320479 -3580,21961 -24587,36283 -46309,32703 -19336,-3342 -32942,-20529 -32942,-39387l0 -4685595c0,-21961 17903,-39864 39864,-39864 21007,0 37955,15993 39865,36284zm110760 2375858c-3103,-583163 -41535,-1172294 -110522,-1766438l0 3559611c78535,-591518 113386,-1189481 110522,-1793173z"/>
    <path class="fil3" d="M24497862 9299816l0 -259476 226772 0 0 299579 -226772 0 0 -40103zm79967 -179270l0 139167 66599 0 0 -139167 -66599 0z"/>
   </g>
   <g>
    <polygon class="fil2" points="34033759,2826777 37917057,2826777 37917057,10833513 34033759,10833513 "/>
    <path class="fil3" d="M34033759 2786674l3923401 0 0 8086942 -3963265 0 0 -8086942 39864 0zm3843434 80206l-3803331 0 0 7926530 3803331 0 0 -7926530z"/>
    <polygon class="fil2" points="34385614,2826777 37537989,2826777 37537989,10481658 34385614,10481658 "/>
    <path class="fil3" d="M34385614 2786674l3192478 0 0 7735087 -3232580 0 0 -7735087 40102 0zm3112272 80206l-3072169 0 0 7574914 3072169 0 0 -7574914z"/>
    <path class="fil2" d="M37537989 5912075l0 4569583 -3152375 0 0 -5750231 2046203 -66361c85935,403416 336578,296952 727820,822109 296237,397926 -48219,330611 378352,424900z"/>
    <path class="fil3" d="M37578092 5912075l0 4609686 -3232580 0 0 -5829005 2118292 -68748 7161 32703c43445,204095 133438,269024 265682,364745 120070,86651 272604,196934 454977,442087 139644,187386 144657,280004 147283,332281 1432,30316 1671,31749 207676,77342l31509 6922 0 31987zm-80206 4529719l0 -4497732c-233933,-52277 -234411,-59438 -238708,-143941 -2387,-43683 -6206,-121025 -131527,-289075 -175212,-235127 -322017,-341352 -437552,-424900 -140121,-101212 -237753,-171869 -290030,-380261l-1974352 64212 0 5671697 3072169 0z"/>
    <path class="fil3" d="M36470965 4657666c20529,109805 -14083,191205 -56573,291223 -73522,172586 -173063,406997 -11220,966289 48219,166380 43684,294566 40819,380978 -1909,51561 -2864,83309 0,84502 26020,11936 133916,-37238 410817,-163514l102883 -47026c169721,-77341 312468,-76148 418216,-75431 65644,477 114818,716 135347,-17903l53470 59438c-43206,39148 -105747,38670 -189056,38193 -98348,-716 -231308,-1671 -384797,68270l-102883 47026c-300772,137257 -417977,190727 -477177,163515 -51322,-23394 -49651,-75193 -46548,-159457 2626,-81399 6923,-202424 -37716,-356391 -169721,-586744 -63735,-835954 14323,-1019759 37477,-87845 67793,-159218 51561,-245153l78534 -14800z"/>
    <path class="fil2" d="M34790463 7088904c436596,-216269 776755,-572898 1004005,-1095191 -539719,686524 -836910,992786 -1004005,1095191z"/>
    <path class="fil3" d="M35203189 6764501c47980,-42490 94289,-87606 138450,-135586 76148,-82116 146805,-172347 211734,-270934 -135109,164470 -250882,298385 -350184,406520zm196933 -81400c-171153,184760 -368564,330610 -590324,440655l-1193 716c-18381,9309 -41297,3103 -52277,-14800 -11458,-18858 -5491,-43445 13129,-54903 80683,-49412 194069,-149431 354003,-321778 161605,-174018 370236,-421558 639498,-764103 10981,-13845 30316,-19097 47264,-11697 20291,8593 29600,32225 20768,52516 -115296,264965 -259714,488396 -430868,673394z"/>
    <polygon class="fil3" points="35307265,4730233 34841308,5210274 34784018,5154655 35249975,4674614 "/>
    <polygon class="fil3" points="34966390,10455400 35534038,9813276 35593714,9866031 35026306,10508154 "/>
    <polygon class="fil2" points="34033759,2826777 37955250,2826777 37955250,2136196 34033759,2136196 "/>
    <path class="fil3" d="M34073862 2786674l3841285 0 0 -610375 -3841285 0 0 610375zm3881388 80206l-3961355 0 0 -770787 4001220 0 0 770787 -39865 0z"/>
    <path class="fil2" d="M34820540 2645121c1336047,-180702 1947617,-131051 2303769,0 -107896,410577 -159935,830464 0,1285441 -566454,-153489 -1245816,173541 -1618678,142031 -278572,-23632 -488396,-79728 -685091,-142031 -44161,-350662 185237,-940986 0,-1285441z"/>
    <path class="fil3" d="M34815288 2605495c669814,-90470 1158927,-123412 1525104,-117205 369759,6445 616105,52515 797523,119354l34135 12412 -9309 35090c-52994,202663 -92619,407713 -99064,617060 -6207,208631 20051,422513 98109,645227l25303 71374 -73284 -19813c-336100,-90948 -718749,-6684 -1048643,65645 -216746,47741 -411532,90470 -562873,77818 -140360,-11935 -264488,-32225 -378590,-57290 -112909,-25064 -215792,-55141 -315094,-86650l-24349 -7639 -3103 -25303c-17903,-141315 6445,-315572 31510,-497467 38670,-277617 79967,-574570 -27213,-774129l-27213 -50606 57051 -7878zm1523911 -37477c-352572,-5968 -820916,24826 -1459221,109567 89038,217224 49174,502957 11936,771503 -23155,165664 -45116,324643 -34374,451158 89276,27929 182134,54425 283346,76864 109805,24348 230114,43922 368087,55619 139406,11697 328701,-29839 539241,-76148 316527,-69703 680078,-149431 1015702,-81399 -64213,-207915 -85935,-408907 -79968,-605124 6207,-204334 42729,-403178 92380,-599396 -170914,-57528 -400790,-96915 -737129,-102644z"/>
    <polygon class="fil3" points="36361399,2705752 36261380,3072885 36184277,3051879 36284535,2684746 "/>
    <polygon class="fil3" points="36711344,2758268 36511068,3342625 36435398,3316606 36635674,2732249 "/>
   </g>
   <g>
    <polygon class="fil2" points="27773648,2674720 27773648,7078640 25371771,7078640 25371771,2674720 "/>
    <path class="fil3" d="M27813751 2714823l0 4403681 -2482083 0 0 -4443784 2482083 0 0 40103zm-79967 4323714l0 -4283611 -2322149 0 0 4283611 2322149 0z"/>
    <path class="fil2" d="M27773648 5820411c506299,-17664 911148,-433254 911148,-943850 0,-510357 -404849,-925948 -911148,-943612l0 1887462z"/>
    <path class="fil3" d="M27813751 5778160c226056,-18142 428958,-119592 577434,-273320 157070,-162560 253508,-384081 253508,-628279 0,-243959 -96438,-465480 -253508,-628040 -148476,-153728 -351378,-255179 -577434,-273321l0 1802960zm634963 -218179c-171392,177599 -409384,290985 -673872,300295l-41058 1193 0 -1969816 41058 1432c264488,9309 502480,122457 673872,300056 170914,177121 276185,418216 276185,683420 0,265443 -105271,506538 -276185,683420z"/>
    <path class="fil2" d="M28389514 6182292c447339,-263056 747633,-749065 747633,-1305731 0,-556428 -300294,-1042437 -747633,-1305493l0 319152c311991,216747 516564,577673 516564,986341 0,408906 -204573,769832 -516564,986579l0 319152z"/>
    <path class="fil3" d="M28429617 6110441c194786,-127470 357584,-300055 473596,-502718 123412,-215315 193831,-465003 193831,-731162 0,-265921 -70419,-515609 -193831,-730923 -116012,-202663 -278810,-375249 -473596,-502719l0 226534c156354,112670 285495,260907 375487,433016 89993,171631 140838,367132 140838,574092 0,207198 -50845,402700 -140838,574331 -89992,172108 -219133,320346 -375487,433016l0 226533zm543060 -463093c-134631,235127 -329178,431823 -563111,569318l-60155 35329 0 -409623 17187 -11935c153967,-106941 280721,-249688 367849,-416306 84025,-160412 131528,-343262 131528,-537570 0,-194070 -47503,-376920 -131528,-537331 -87128,-166618 -213882,-309366 -367849,-416307l-17187 -11935 0 -409623 60155 35329c233933,137496 428480,334191 563111,569318 130096,227011 204573,490306 204573,770549 0,280481 -74477,543776 -204573,770787z"/>
    <path class="fil2" d="M28900110 4996392l-222953 0c5013,-39148 7639,-79251 7639,-119831 0,-40342 -2626,-80445 -7639,-119593l222953 0c3819,39387 5968,79251 5968,119593 0,40580 -2149,80444 -5968,119831z"/>
    <path class="fil3" d="M28900110 5036495l-268307 0 5729 -44877c2387,-19574 4296,-38909 5490,-57529 1193,-18141 1671,-37238 1671,-57528 0,-20052 -478,-39148 -1671,-57290 -1194,-18619 -3103,-37955 -5490,-57529l-5729 -44877 304352 0 3581 36045c2148,20768 3580,41535 4774,62064 955,21961 1432,42729 1432,61587 0,19096 -477,39864 -1432,61825 -1194,20529 -2626,41297 -4774,62064l-3581 36045 -36045 0zm-178553 -79967l141792 0 1432 -21961c716,-17665 1194,-37000 1194,-58006 0,-20768 -478,-40103 -1194,-57767l-1432 -21723 -141792 0 1193 17187c1432,21484 2149,42251 2149,62303 0,20290 -717,41058 -2149,62541l-1193 17426z"/>
   </g>
   <g>
    <polygon class="fil2" points="29299946,16161232 25416648,16161232 25416648,8154496 29299946,8154496 "/>
    <path class="fil3" d="M29299946 16201335l-3923401 0 0 -8086703 3963265 0 0 8086703 -39864 0zm-3843434 -79968l3803331 0 0 -7926768 -3803331 0 0 7926768z"/>
    <polygon class="fil2" points="28948090,16161232 25795716,16161232 25795716,8506351 28948090,8506351 "/>
    <path class="fil3" d="M28948090 16201335l-3192477 0 0 -7735087 3232580 0 0 7735087 -40103 0zm-3112271 -79968l3072168 0 0 -7575152 -3072168 0 0 7575152z"/>
    <path class="fil2" d="M25795716 13075934l0 -4569583 3152374 0 0 5750231 -2046203 66361c-85934,-403416 -336578,-296952 -727820,-822109 -296236,-397926 48219,-330611 -378351,-424900z"/>
    <path class="fil3" d="M25755613 13075934l0 -4609686 3232580 0 0 5829005 -2118292 68748 -7162 -32703c-43444,-203857 -133437,-269024 -265681,-364746 -120070,-86650 -272605,-196933 -454977,-441848 -139644,-187624 -144419,-280243 -147283,-332520 -1432,-30315 -1671,-31748 -207676,-77341l-31509 -6922 0 -31987zm80206 -4529719l0 4497732c233933,52277 234411,59438 238707,144179 2387,43445 6445,120787 131528,288837 175212,235366 322017,341352 437552,424900 140121,101212 237753,171869 290030,380261l1974351 -64212 0 -5671697 -3072168 0z"/>
    <path class="fil3" d="M26862739 14330343c-20529,-109805 14084,-191205 56574,-291223 73522,-172586 173063,-406997 11219,-966289 -47980,-166380 -43683,-294566 -40580,-380978 1671,-51561 2865,-83309 -239,-84503 -26019,-11935 -133915,37239 -410816,163515l-102883 47026c-169721,77341 -312468,76147 -418216,75431 -65644,-477 -114818,-716 -135347,17903l-53471 -59438c43445,-39148 105748,-38670 189057,-38193 98348,716 231308,1671 385036,-68270l102883 -46787c300533,-137496 417738,-190966 476938,-163754 51322,23394 49651,75193 46786,159457 -2864,81638 -7161,202424 37478,356391 169721,586743 63734,836193 -14323,1019759 -37238,87845 -67793,159218 -51561,245392l-78535 14561z"/>
    <path class="fil2" d="M28543242 11899343c-436597,216031 -776755,572899 -1004005,1094953 539718,-686524 836910,-992786 1004005,-1094953z"/>
    <path class="fil3" d="M28130516 12223508c-47980,42490 -94289,87845 -138450,135586 -76148,82116 -146806,172347 -211734,271172 135109,-164708 250882,-298623 350184,-406758zm-196934 81400c171154,-184760 368804,-330611 590563,-440655l1194 -716c18380,-9310 41296,-3103 52038,14800 11458,18858 5729,43445 -13129,54903 -80683,49412 -194069,149431 -354003,321778 -161606,174018 -370236,421558 -639498,764103 -10981,13845 -30316,19097 -47265,11936 -20290,-8832 -29599,-32465 -20767,-52516 115296,-265204 259714,-488635 430867,-673633z"/>
    <polygon class="fil3" points="28026440,14257776 28492397,13777735 28549687,13833354 28083730,14313395 "/>
    <polygon class="fil3" points="28367314,8532609 27799667,9174733 27739990,9121978 28307637,8479855 "/>
    <polygon class="fil2" points="29299946,16161232 25378693,16161232 25378693,16851813 29299946,16851813 "/>
    <path class="fil3" d="M29259843 16201335l-3841286 0 0 610614 3841286 0 0 -610614zm-3881150 -79968l3961117 0 0 770549 -4001220 0 0 -770549 40103 0z"/>
    <path class="fil2" d="M28513165 16342888c-1335809,180702 -1947617,131051 -2303530,0 107657,-410577 159695,-830225 0,-1285202 566453,153250 1245577,-173780 1618439,-142270 278571,23632 488634,79728 685091,142270 44161,350661 -184999,940747 0,1285202z"/>
    <path class="fil3" d="M28518416 16382514c-669814,90470 -1158926,123412 -1525104,117205 -369758,-6445 -616104,-52515 -797522,-119354l-34135 -12412 9309 -35090c53232,-202663 92619,-407475 99064,-617060 6206,-208631 -20051,-422513 -98109,-644988l-25064 -71613 73044 19813c336101,90948 718749,6923 1048644,-65645 216746,-47741 411532,-90470 562872,-77818 140599,11935 264489,32225 378591,57528 112909,24826 215792,54903 315094,86412l24348 7878 3342 25303c17665,141076 -6445,315333 -31748,497228 -38671,277856 -79967,574570 27213,774129l27451 50606 -57290 7878zm-1523910 37477c352571,5968 821155,-24826 1459221,-109328 -88800,-217463 -49174,-503196 -11936,-771743 23155,-165663 45355,-324642 34374,-451157 -89277,-27929 -182134,-54426 -283346,-76864 -109806,-24348 -230114,-43922 -368087,-55619 -139406,-11697 -328701,29838 -539241,76148 -316288,69702 -679840,149431 -1015702,81399 64213,207915 85935,408907 79967,605124 -6206,204334 -42490,403178 -92380,599396 170915,57767 400791,96915 737130,102644z"/>
    <polygon class="fil3" points="26972306,16282256 27072563,15915124 27149427,15936130 27049170,16303263 "/>
    <polygon class="fil3" points="26622361,16229741 26822636,15645623 26898307,15671403 26698031,16255760 "/>
   </g>
   <g>
    <g>
     <polygon class="fil2" points="35594192,16890245 35594192,11078905 37918728,11078905 37918728,16890245 "/>
     <path class="fil3" d="M35555521 16890245l0 -5850011 2401878 0 0 5888682 -2401878 0 0 -38671zm77342 -5772670l0 5733999 2247194 0 0 -5733999 -2247194 0z"/>
    </g>
    <path class="fil3" d="M37104018 14569767c10504,14800 17426,31271 21245,47980 3820,17665 4297,35568 1194,52516 -3103,17426 -9548,34135 -19097,49174 -9071,14561 -21483,27451 -36522,37954 -15039,10503 -31509,17665 -48219,21245 -17664,3820 -35567,4058 -52516,1194 -17187,-3103 -34135,-9548 -49173,-19336 -14323,-9070 -27452,-21483 -37955,-36283 -38432,-55142 -72806,-110044 -102883,-164708 -29838,-54665 -55619,-109567 -77103,-164231 -20767,-52755 -37954,-106464 -50844,-160412 -11458,-47264 -19574,-94528 -24587,-141315l-123173 0 0 -7161 -10742 -5013c-8355,-4774 -15994,-10742 -22439,-17426 -8593,-8832 -15516,-19574 -20051,-31270 -4297,-11220 -6684,-23394 -6445,-36284l-1194 -8832c-477,-2865 -1910,-6207 -3342,-9071 -1671,-3581 -4058,-6923 -6684,-10265l-8593 -8832 -9310 -6684 -8832 -4535 -8832 -2626 -7161 -955 -5252 716 -5729 1910 -6445 4297 -6923 6922 -6683 8594 -5013 8355 -3581 7161c-7638,23393 1194,30316 20290,44161l12413 6684 14561 5967 16949 5013c12174,3103 23632,8594 33419,15994 10264,7638 18619,17187 25064,27690 6206,10503 10503,22677 12174,35090 1910,11935 1194,24587 -1910,36999 -3103,12413 -8593,23633 -15993,33420 -7400,10264 -16948,18857 -27690,25064 -10503,6445 -22439,10503 -34851,12413 -12175,1671 -24587,1193 -37000,-1910 -12413,-3103 -24587,-6923 -35806,-10981 -11697,-4296 -23155,-9309 -33658,-14561 -10742,-5251 -21245,-11219 -31032,-17664 -10265,-6445 -19574,-13368 -28406,-20768 -8116,-6922 -15755,-14083 -22678,-21722 -7161,-7639 -13845,-15516 -19574,-23632 -5729,-8116 -10980,-16710 -15754,-25781 -4774,-9070 -8833,-18141 -12174,-27212 -3342,-9787 -6207,-19813 -8355,-30316 -1910,-10026 -3103,-20529 -3581,-31271 -477,-10264 0,-20767 1194,-31271 955,-10503 2864,-21006 5490,-31270 2387,-9310 5490,-18858 9071,-27929 3342,-8832 7639,-18142 12651,-27213 4775,-8832 10026,-17664 15755,-26019 5968,-8593 12413,-17187 19335,-25303 11936,-13845 24110,-25780 36761,-35567 13368,-10504 27213,-19097 41774,-26020 15278,-6922 30794,-12174 46548,-15516 16232,-3341 32703,-4774 49174,-4535l20768 1432 21006 3342 20290 5013 20052 7161 18141 8355 17665 9548 17187 11458 15754 12413c9071,7400 17665,15755 25542,24348 7639,8594 15039,17903 21723,27690 5490,8116 10503,16471 14799,24587l6207 12890 10503 0c3819,-48457 10981,-97154 21961,-145850 11935,-54425 28645,-108851 49651,-162799 21961,-56573 49174,-113386 81161,-169482 31748,-56096 68748,-111715 110522,-167334 10980,-14561 24587,-26258 39386,-35090 15278,-9071 32465,-15039 49890,-17187 17426,-2387 35329,-1671 52755,2864 16709,4297 32703,11936 47264,22916 14561,10981 26496,24587 35090,39626 9071,15277 15039,32464 17426,49651 2387,17426 1432,35567 -3104,52754 -4296,16710 -11935,32942 -22916,47503 -36283,48219 -68270,96677 -95244,144657 -26974,48219 -49174,96438 -66838,144179 -17187,47265 -30077,94290 -38432,141077 -8355,47503 -12413,94767 -11935,141553 477,46549 5490,93813 14561,141077 9309,47741 22916,95722 40580,144179 17903,48458 40103,97154 66122,145612 26258,48935 56813,97870 91186,147044zm-47025 88561c1432,-8355 1194,-17187 -477,-25542 -1671,-7878 -5013,-15755 -10026,-22916 -36284,-51800 -68509,-103599 -96199,-155160 -27690,-51322 -50845,-102644 -69703,-153489 -19097,-51561 -33658,-103361 -43684,-155160 -9787,-51084 -15038,-102645 -15516,-153728 -477,-51322 3820,-102883 12891,-153967 9071,-51083 22916,-102167 41535,-153250 18858,-51322 42729,-102883 71373,-154205 28407,-50845 62064,-101928 100735,-153012 5252,-6922 8832,-14800 10981,-22677 2148,-8355 2625,-16948 1432,-25303 -1194,-8355 -4058,-16710 -8355,-23871 -4058,-7161 -9787,-13606 -16709,-18858 -7162,-5251 -14800,-9071 -22916,-10980 -8116,-2149 -16949,-2626 -25303,-1433 -8116,1194 -16471,3820 -23871,8116 -6923,4297 -13606,10026 -18619,16949 -40103,52993 -75432,106225 -105748,159456 -30316,53471 -56096,106942 -76864,160412 -20529,52755 -36522,105986 -47980,159218 -11458,53471 -18381,107180 -20768,160650l-1432 33658 -126992 0 -7878 -24348c-2626,-7877 -5729,-15516 -9071,-22438 -3580,-7400 -7877,-14562 -12651,-21484 -4297,-6684 -9787,-13368 -15516,-20052 -5968,-6206 -12174,-12412 -18619,-17903l-11697 -9071 -12174 -8116 -13129 -7161 -12652 -5729 -14561 -5013 -13845 -3819 -14561 -2148 -14322 -955c-11220,-239 -22439,716 -33658,3103 -10265,2148 -20768,5490 -31032,10264 -9549,4536 -19336,10504 -28645,17903 -9071,7162 -17903,15755 -25781,25065l-15038 19813c-4536,6445 -8594,13128 -12174,19574 -3103,6206 -6207,12651 -8832,19574 -2626,6445 -4775,13129 -6446,19574 -1671,7161 -3103,14322 -3819,21483 -716,7162 -955,14323 -716,21007 239,6683 955,13606 2387,20528 1432,6684 3342,13607 5729,20291 2148,6206 4774,12412 7877,18380 3104,5729 6684,11697 10742,17426 4297,5968 9071,11697 14084,16948 4774,5252 10503,10503 16232,15516 6207,5252 13368,10503 21006,15516 7639,4774 15755,9548 24110,13606 8593,4297 17664,8116 26735,11458 9071,3342 18858,6207 28645,8833 3342,716 6684,954 9787,477 3342,-477 6445,-1671 9071,-3103 2864,-1671 5490,-4058 7400,-6684 1910,-2387 3342,-5252 4058,-8593 955,-3342 955,-6684 716,-9788 -477,-3103 -1671,-6445 -3342,-9070 -1671,-2865 -3819,-5252 -6445,-7162 -2626,-1909 -5490,-3342 -8832,-4296l-23155 -6923c-7161,-2626 -14322,-5490 -21006,-8593 -6923,-3342 -13606,-6923 -19574,-10742 -5968,-3820 -11935,-8116 -17187,-12652l-10981 -10264 -9548 -11219 -7877 -12413 -5729 -13368 -3820 -13368 -1432 -13845 478 -13845 2625 -13367 5013 -15278 7161 -15277 8833 -14084 10742 -14083c5490,-6445 11219,-11936 16709,-16471 6206,-5013 12652,-9071 19335,-12413 7162,-3581 14323,-6206 21484,-7877 7877,-1671 15516,-2387 22916,-2149l10026 478 10264 1909 9548 2387 10026 3581 9549 4297c8593,4774 19574,10980 26974,17664 6922,5968 13367,12413 19096,19335 5490,7162 10503,14562 14561,22439 4058,8116 7162,16710 9071,25303 1910,8355 3103,17187 2865,25542 0,3342 716,6684 1909,9787 1194,3103 2865,5967 5013,8116 2149,2148 5013,4297 7878,5490 2864,1194 6206,1910 9309,2148 30793,717 61825,478 92619,239l60870 -239 2387 32703c3820,52277 11936,104554 24110,156593 12413,52515 28883,105031 49412,157547 20529,52277 45355,104554 73761,156592 28884,52755 61825,105509 98348,157547 5251,7162 11219,13129 18141,17426 7162,4535 15278,7639 23394,9071 8355,1432 17187,1432 25542,-478 8116,-1671 15754,-5012 22915,-10025 7162,-5013 13129,-11220 17426,-18142 4536,-7161 7639,-15277 9071,-23393z"/>
   </g>
   <g>
    <g>
     <polygon class="fil2" points="7056201,14565948 20006575,14565948 20006575,16890484 7056201,16890484 "/>
     <path class="fil3" d="M7094872 14527277l12904780 0 0 2402116 -12943451 0 0 -2402116 38671 0zm12827200 77341l-12788529 0 0 2247195 12788529 0 0 -2247195z"/>
    </g>
    <path class="fil3" d="M13013870 16075774c-14800,10503 -31271,17665 -48219,21245 -17426,3820 -35329,4297 -52516,1194 -17187,-3103 -33896,-9549 -48935,-19097 -14561,-9071 -27451,-21484 -37955,-36522 -10503,-15039 -17664,-31510 -21245,-48219 -3819,-17426 -4296,-35568 -1193,-52516 2864,-17187 9548,-34135 19097,-49174 9309,-14322 21483,-27451 36522,-37954 55141,-38432 110044,-72806 164470,-102644 54902,-30078 109566,-55858 164230,-77342 52994,-20767 106464,-37716 160412,-50845 47503,-11219 94767,-19574 141554,-24586l0 -123174 7161 0 5013 -10503c4535,-8355 10503,-16232 17426,-22677 8832,-8594 19574,-15516 31032,-20051 11219,-4297 23632,-6684 36522,-6446l8593 -954c3104,-717 6207,-1910 9310,-3581 3581,-1671 6922,-4058 10264,-6684l8833 -8593 6683 -9310 4297 -8832 2865 -8832 954 -6923 -716 -5251 -2148 -5968 -4297 -6445 -6922 -6923 -8594 -6684 -8116 -5012 -7161 -3581c-23393,-7400 -30316,1194 -44161,20529l-6684 12174 -5968 14800 -5251 16709c-2865,12174 -8594,23632 -15755,33419 -7638,10265 -17187,18620 -27690,25065 -10503,6206 -22677,10503 -35090,12413 -11935,1671 -24587,1193 -37000,-1910 -12412,-3103 -23870,-8832 -33419,-15994 -10264,-7638 -18858,-17186 -25064,-27690 -6445,-10741 -10742,-22677 -12413,-35090 -1910,-11935 -1193,-24587 1910,-36999 3103,-12413 6684,-24587 10980,-35807 4297,-11696 9071,-23154 14323,-33657 5490,-10742 11219,-21245 17664,-31032 6684,-10026 13607,-19574 21006,-28168 6923,-8116 14084,-15993 21723,-22916 7638,-7161 15516,-13845 23393,-19335 8116,-5968 16948,-11219 25781,-15994 9309,-4774 18380,-8832 27451,-11935 9548,-3581 19813,-6445 30316,-8355 10026,-1909 20529,-3342 31032,-3819 10503,-239 21006,0 31509,1194 10265,954 21007,2864 31271,5490 9310,2387 18619,5490 27929,9071 8832,3342 17903,7638 27213,12651 8832,4774 17425,10026 26019,15994 8593,5729 16948,12174 25303,19335 13845,11697 25780,23871 35567,36522 10503,13368 19097,27452 25781,41774 7161,15277 12412,30793 15754,46548 3342,16232 4775,32942 4297,49174l-1193 20767 -3342 21007 -5252 20529 -6922 19812 -8355 18142 -9787 17903 -11458 17187 -12174 15755c-7400,8832 -15755,17426 -24349,25303 -8593,7877 -17903,15039 -27690,21722 -8116,5491 -16470,10503 -24587,14800l-12890 6207 0 10503c48458,3819 97154,11219 145851,21961 54425,11935 108850,28645 162560,49651 56812,21961 113386,49174 169721,81161 55858,31748 111715,68748 167334,110521 14561,11220 26258,24587 35090,39387 8832,15516 14800,32703 17187,49890 2387,17426 1432,35329 -3103,52755 -4297,16709 -11936,32941 -22916,47502 -10981,14323 -24348,26258 -39387,35090 -15277,9071 -32464,14800 -49890,17187 -17187,2387 -35329,1433 -52515,-3103 -16710,-4297 -32942,-11935 -47503,-22916 -48219,-36283 -96677,-68031 -144657,-95005 -48458,-27213 -96438,-49413 -144418,-66839 -47026,-17425 -94290,-30315 -141077,-38432 -47503,-8593 -94528,-12412 -141315,-11935 -46548,477 -93812,5252 -141076,14323 -47742,9309 -95961,22915 -144179,40580 -48458,17903 -97155,40103 -145612,66122 -48935,26496 -97870,57051 -147044,91186zm-88561 -47025c8355,1432 16948,1432 25542,-478 7877,-1671 15516,-5012 22916,-10025 51799,-36284 103599,-68509 155160,-96200 51322,-27451 102644,-50844 153250,-69702 51800,-19097 103599,-33658 155399,-43684 51084,-9548 102406,-15038 153728,-15516 51322,-477 102644,3820 153966,12890 50845,9071 102167,22916 153251,41536 51322,18858 102644,42728 154205,71373 50845,28645 101689,62064 153012,100735 6922,5252 14800,9071 22677,10980 8116,2149 16948,2626 25303,1433 8355,-1194 16471,-3820 23871,-8355 7161,-4058 13606,-9787 18858,-16710 5251,-7161 9070,-14799 10980,-22677 2149,-8355 2626,-16948 1432,-25303 -1193,-8355 -4058,-16709 -8354,-23871 -4058,-7161 -9787,-13606 -16710,-18858 -53232,-40102 -106225,-75431 -159457,-105508 -53470,-30555 -106941,-56097 -160411,-76864 -52993,-20768 -105987,-36761 -159218,-48219 -53471,-11458 -107180,-18381 -160651,-20768l-33658 -1432 0 -126993 24349 -7877c7877,-2387 15516,-5490 22438,-9071 7400,-3580 14561,-7638 21484,-12413 6684,-4535 13368,-10025 19813,-15754 6445,-5729 12651,-12174 18141,-18620l9071 -11696 8116 -12174 7162 -13129 5729 -12652 5012 -14322 3581 -14084 2387 -14561 955 -14323c239,-11219 -716,-22438 -3103,-33419 -2149,-10503 -5729,-21006 -10265,-31032 -4535,-9787 -10503,-19574 -17903,-28645 -7400,-9309 -15754,-18141 -25303,-26019l-19574 -15038c-6445,-4536 -13129,-8594 -19574,-11936 -6206,-3342 -12890,-6445 -19574,-9071 -6684,-2625 -13129,-4774 -19574,-6445 -7161,-1671 -14561,-3103 -21484,-3819 -7161,-716 -14322,-955 -21245,-716 -6445,238 -13367,1193 -20290,2387 -6922,1432 -13845,3342 -20529,5729 -6206,2148 -12174,5013 -18141,8116 -5968,2864 -11697,6684 -17426,10742 -5968,4058 -11697,8832 -16948,13845 -5252,5013 -10742,10503 -15516,16232 -5491,6445 -10503,13606 -15516,21006 -5013,7639 -9549,15755 -13607,24110 -4296,8593 -8116,17664 -11458,26735 -3342,9310 -6445,18858 -8832,28884 -716,3103 -955,6445 -477,9787 477,3103 1432,6445 3103,9071 1671,2864 3819,5251 6445,7161 2387,1909 5490,3342 8832,4058 3103,955 6684,1193 9787,716 3103,-478 6207,-1671 9071,-3342 2626,-1432 5252,-3819 7161,-6445 1910,-2387 3342,-5490 4058,-8594l7162 -23393c2625,-7161 5490,-14322 8593,-21006 3342,-6923 6923,-13368 10742,-19574 3819,-5968 8116,-11697 12413,-17187l10503 -10981 10981 -9309 12651 -7878 13368 -5967 13367 -3581 13607 -1671 13845 716 13606 2387 15277 5013 15278 7161 14083 9071 14084 10742c6445,5252 11697,10981 16471,16710 4774,5967 9071,12412 12413,19096 3580,7161 5967,14561 7638,21484 1671,7877 2626,15516 2387,22916l-716 10026 -1671 10264 -2625 9787 -3342 9787 -4297 9787c-5013,8594 -10981,19574 -17903,26735 -5729,7162 -12413,13607 -19335,19097 -6923,5729 -14323,10503 -22200,14561 -8355,4058 -16710,7161 -25303,9310 -8355,1909 -17187,2864 -25781,2625 -3342,0 -6684,717 -9548,1910 -3103,1194 -5968,2865 -8116,5013 -2387,2148 -4297,5013 -5490,7877 -1194,2865 -2149,6207 -2149,9310 -716,30793 -477,61825 -477,92619l477 60870 -32941 2387c-52039,4058 -104316,12174 -156354,24348 -52516,12174 -105270,28645 -157547,49413 -52277,20529 -104554,45116 -156592,73522 -52994,29122 -105509,62064 -157548,98586 -7161,5013 -13128,11219 -17425,17903 -4536,7400 -7639,15516 -9071,23394 -1432,8593 -1432,17187 477,25541 1671,8116 5013,15994 10026,23155 5013,7161 11219,12890 17903,17187 7400,4535 15516,7877 23632,9071z"/>
   </g>
   <g>
    <polygon class="fil3" points="35883506,28083730 35883506,21922921 35803300,21922921 35803300,28083730 "/>
    <polygon class="fil3" points="36039859,22351401 36039859,17561969 35959653,17561969 35959653,22351401 "/>
    <polygon class="fil3" points="37174676,28043627 37174676,17648620 37094709,17648620 37094709,28043627 "/>
    <polygon class="fil3" points="37909896,17754129 36148710,17754129 36148710,17834096 37909896,17834096 "/>
    <polygon class="fil3" points="37909896,17965146 36148710,17965146 36148710,18045113 37909896,18045113 "/>
    <polygon class="fil3" points="37909896,18260428 36148710,18260428 36148710,18340395 37909896,18340395 "/>
    <polygon class="fil3" points="37909896,19231013 36148710,19231013 36148710,19310981 37909896,19310981 "/>
    <polygon class="fil3" points="37909896,19463037 36148710,19463037 36148710,19543243 37909896,19543243 "/>
    <polygon class="fil3" points="37870748,20264857 36213400,19636817 36187858,19711771 37845206,20340050 "/>
    <polygon class="fil3" points="37870748,20475874 36213400,19847834 36187858,19922789 37845206,20551067 "/>
    <polygon class="fil3" points="37904167,20634376 36148471,20781659 36154439,20861626 37909896,20714105 "/>
    <polygon class="fil3" points="37904167,21435957 36148471,21583478 36154439,21663207 37909896,21515685 "/>
    <polygon class="fil3" points="37909896,21783993 36148710,21783993 36148710,21863960 37909896,21863960 "/>
    <polygon class="fil3" points="37909896,22079274 36148710,22079274 36148710,22159242 37909896,22159242 "/>
    <polygon class="fil3" points="37909896,22222738 36148710,22222738 36148710,22302705 37909896,22302705 "/>
    <polygon class="fil3" points="37909896,22433756 36148710,22433756 36148710,22513723 37909896,22513723 "/>
    <polygon class="fil3" points="37909896,22729037 36148710,22729037 36148710,22809004 37909896,22809004 "/>
    <polygon class="fil3" points="37909896,23699623 36148710,23699623 36148710,23779590 37909896,23779590 "/>
    <polygon class="fil3" points="37909896,23931647 36148710,23931647 36148710,24011614 37909896,24011614 "/>
    <polygon class="fil3" points="37870748,24733466 36213400,24105187 36187858,24180380 37845206,24808420 "/>
    <polygon class="fil3" points="37870748,24944484 36213400,24316205 36187858,24391398 37845206,25019438 "/>
    <polygon class="fil3" points="37904167,25102747 36148471,25250268 36154439,25329997 37909896,25182714 "/>
    <polygon class="fil3" points="37904167,25904566 36148471,26052088 36154439,26131816 37909896,25984295 "/>
    <polygon class="fil3" points="37909896,26252364 36148710,26252364 36148710,26332569 37909896,26332569 "/>
    <polygon class="fil3" points="37909896,26547884 36148710,26547884 36148710,26627851 37909896,26627851 "/>
    <polygon class="fil3" points="37904167,26752934 36148471,26900216 36154439,26980184 37909896,26832662 "/>
    <polygon class="fil3" points="37909896,27100731 36148710,27100731 36148710,27180698 37909896,27180698 "/>
    <polygon class="fil3" points="37909896,27396012 36148710,27396012 36148710,27476218 37909896,27476218 "/>
   </g>
   <g>
    <g>
     <path class="fil2" d="M14623476 2700023l-1900352 0c-178076,0 -323449,145374 -323449,323450l0 1564729c0,178076 145373,323449 323449,323449l1900352 0c178315,0 323449,-145373 323449,-323449l0 -1564729c0,-178076 -145134,-323450 -323449,-323450z"/>
     <path class="fil3" d="M14574302 2663024l-1801766 0c-114341,0 -218179,40580 -293372,105986 -75193,65167 -121741,155399 -121741,254463l0 1564490c0,98825 46548,189057 121741,254463 75193,65406 179031,105986 293372,105986l1801766 0c114103,0 217941,-40580 293134,-105986 75193,-65406 121979,-155638 121979,-254463l0 -1564490c0,-99064 -46786,-189296 -121979,-254463 -75193,-65406 -179031,-105986 -293134,-105986zm-1801766 73760l1801766 0c90709,0 173302,32226 233218,84264 59916,52039 97154,123651 97154,202425l0 1564490c0,78774 -37238,150386 -97154,202424 -59916,52039 -142509,84264 -233218,84264l-1801766 0c-90709,0 -173540,-32225 -233217,-84264 -59916,-52038 -97154,-123650 -97154,-202424l0 -1564490c0,-78774 37238,-150386 97154,-202425 59677,-52038 142508,-84264 233217,-84264z"/>
     <path class="fil2" d="M10176112 2700023l1900114 0c178076,0 323449,145374 323449,323450l0 1564729c0,178076 -145373,323449 -323449,323449l-1900114 0c-178315,0 -323688,-145373 -323688,-323449l0 -1564729c0,-178076 145373,-323450 323688,-323450z"/>
     <path class="fil3" d="M10225286 2736784l1801766 0c90709,0 173302,32226 233217,84264 59916,52039 97154,123651 97154,202425l0 1564490c0,78774 -37238,150386 -97154,202424 -59915,52039 -142508,84264 -233217,84264l-1801766 0c-90709,0 -173302,-32225 -233218,-84264 -59915,-52038 -97154,-123650 -97154,-202424l0 -1564490c0,-78774 37239,-150386 97154,-202425 59916,-52038 142509,-84264 233218,-84264zm1801766 -73760l-1801766 0c-114341,0 -218179,40580 -293372,105986 -75193,65167 -121741,155399 -121741,254463l0 1564490c0,98825 46548,189057 121741,254463 75193,65406 179031,105986 293372,105986l1801766 0c114102,0 217940,-40580 293133,-105986 75193,-65406 121980,-155638 121980,-254463l0 -1564490c0,-99064 -46787,-189296 -121741,-254463 -75193,-65406 -179031,-105986 -293372,-105986z"/>
     <path class="fil2" d="M9528975 2700023l-1900114 0c-178076,0 -323449,145374 -323449,323450l0 1564729c0,178076 145373,323449 323449,323449l1900114 0c178315,0 323688,-145373 323688,-323449l0 -1564729c0,-178076 -145373,-323450 -323688,-323450z"/>
     <path class="fil3" d="M9479801 2663024l-1801766 0c-114102,0 -218179,40580 -293133,105986 -75193,65167 -121980,155399 -121980,254463l0 1564490c0,98825 46787,189057 121980,254463 74954,65406 179031,105986 293133,105986l1801766 0c114103,0 217941,-40580 293133,-105986 75432,-65406 121980,-155638 121980,-254463l0 -1564490c0,-99064 -46548,-189296 -121741,-254463 -75193,-65406 -179031,-105986 -293372,-105986zm-1801766 73760l1801766 0c90709,0 173541,32226 233218,84264 59915,52039 97154,123651 97154,202425l0 1564490c0,78774 -37239,150386 -97154,202424 -59677,52039 -142509,84264 -233218,84264l-1801766 0c-90709,0 -173302,-32225 -233217,-84264 -59916,-52038 -97154,-123650 -97154,-202424l0 -1564490c0,-78774 37238,-150386 97154,-202425 59915,-52038 142508,-84264 233217,-84264z"/>
     <path class="fil2" d="M14946925 2700023l-2459883 0c-47981,0 -87367,-34135 -87367,-75670l0 -365939c0,-41535 39386,-75670 87367,-75670l2924647 0c47981,0 87129,34135 87129,75670l0 365939c0,27929 -17903,52516 -44161,65645l0 2156963c0,35568 -33419,64451 -74238,64451l-359256 0c-40819,0 -74238,-28883 -74238,-64451l0 -2146938z"/>
     <path class="fil3" d="M14946925 2663024l-2459883 0c-12413,0 -23632,-4297 -31748,-11458 -8116,-6923 -13129,-16471 -13129,-27213l0 -365939c0,-10503 5013,-20290 13129,-27213 8116,-7161 19335,-11458 31748,-11458l2924647 0c12174,0 23394,4297 31510,11220 8116,7161 13129,16948 13129,27451l0 365939c0,6923 -2149,13606 -5968,19335 -4058,5968 -9787,10981 -16710,14323l-21483 10742 0 2178208c0,7639 -3581,14561 -9310,19574 -5729,5013 -13845,8116 -22438,8116l-359256 0c-8593,0 -16470,-3103 -22199,-8116 -5729,-5013 -9549,-11935 -9549,-19574l0 -2183937 -42490 0zm-2459883 73760l2417632 0 0 2110177c0,27929 13129,53232 34135,71612 21006,18381 50368,29839 82354,29839l359256 0c31986,0 61347,-11458 82354,-29839 21245,-18380 34374,-43683 34374,-71612l0 -2138344c10503,-7877 19335,-17426 26496,-27929 11219,-16709 17665,-36045 17665,-56335l0 -365939c0,-30793 -14562,-58961 -37955,-79251 -23632,-20529 -56096,-33180 -91664,-33180l-2924647 0c-35806,0 -68271,12651 -91664,32941 -23393,20529 -37955,48697 -37955,79490l0 365939c0,30793 14562,58961 37955,79251 23393,20529 55858,33180 91664,33180z"/>
     <path class="fil2" d="M9928095 2700023l2396148 0c41774,0 75432,-33896 75432,-75431l0 -366178c0,-41535 -33658,-75432 -75432,-75432l-2396148 0c-41536,0 -75671,33897 -75671,75432l0 366178c0,41535 34135,75431 75671,75431z"/>
     <path class="fil3" d="M9939553 2736784l2372993 0c35807,0 68271,-12651 91664,-32941 23394,-20529 37955,-48697 37955,-79490l0 -365939c0,-30793 -14561,-58961 -37955,-79251 -23393,-20529 -55857,-33180 -91664,-33180l-2372993 0c-35568,0 -67793,12651 -91187,32941 -23632,20529 -38193,48697 -38193,79490l0 365939c0,30793 14561,58961 37954,79251 23633,20529 55858,33180 91426,33180zm2372993 -73760l-2372993 0c-12175,0 -23394,-4297 -31510,-11219 -8116,-7162 -13129,-16710 -13129,-27452l0 -365939c0,-10503 5013,-20290 13129,-27213 8116,-7161 19335,-11458 31510,-11458l2372993 0c12413,0 23632,4297 31510,11458 8355,6923 13367,16710 13367,27213l0 365939c0,10503 -5251,20290 -13367,27213 -7878,7161 -19097,11458 -31510,11458z"/>
     <path class="fil2" d="M15199717 2802429c-286688,-248017 -629234,-355674 -1000186,-393390 -21245,370952 -330133,412964 -330849,634008 351378,33896 690821,132482 1000186,393390 294326,-138928 375248,-361881 330849,-634008z"/>
     <path class="fil3" d="M15229555 2776410c-147521,-127709 -309126,-219134 -481473,-283346 -171870,-64213 -354481,-101451 -543777,-120548l-44877 -4535 -2148 39387c-11219,194069 -107419,293610 -190489,379545 -74715,77341 -140121,144896 -140360,256134l0 32941 37716 3581c172108,16709 340875,48935 504151,108851 162560,59677 320584,147282 471209,274275l22200 18858 27451 -12891c156115,-73760 256133,-170437 311275,-285255 54425,-113386 64451,-243721 41058,-385991l-1910 -12174 -10026 -8832zm-515131 -215792c159218,59438 308888,143225 445190,259237 18619,124844 9309,237991 -37477,335384 -44639,92858 -124128,172586 -246824,235843 -151580,-123650 -310559,-210301 -474312,-270455 -158741,-58245 -321540,-91664 -486964,-109806 12413,-67793 61825,-119115 117444,-176644 86173,-88799 184760,-190727 206960,-383842 165663,19574 325358,54187 475983,110283z"/>
    </g>
    <g>
     <path class="fil2" d="M7628145 5448982l0 1805347c0,178076 145373,323449 323449,323449l1564730 0c178076,0 323449,-145373 323449,-323449l0 -1805347c0,-178076 -145373,-323449 -323449,-323449l-1564730 0c-178076,0 -323449,145373 -323449,323449z"/>
     <path class="fil3" d="M7591384 5484550l0 1734450c0,110044 40581,210063 105748,282391 65406,72329 155399,117445 254701,117445l1564252 0c99064,0 189295,-45116 254462,-117445 65406,-72328 105987,-172347 105987,-282391l0 -1734450c0,-109806 -40581,-209825 -105748,-282153 -65406,-72567 -155637,-117683 -254701,-117683l-1564252 0c-99302,0 -189295,45116 -254701,117444 -65167,72329 -105748,172347 -105748,282392zm73522 1734450l0 -1734450c0,-87367 32465,-167096 84264,-224624 52038,-57529 123889,-93335 202663,-93335l1564252 0c78774,0 150625,35567 202663,93335 51799,57528 84025,137257 84025,224624l0 1734450c0,87367 -32226,167096 -84264,224624 -51799,57767 -123650,93335 -202424,93335l-1564252 0c-78774,0 -150625,-35806 -202663,-93335 -51799,-57528 -84264,-137257 -84264,-224624z"/>
     <path class="fil2" d="M7628145 5209558l0 2368459 2149086 0c34374,0 62542,31270 62542,69225l0 335623c0,38193 -28168,69464 -62542,69464l-2163408 0c-13607,21006 -36045,34851 -61348,34851l-365700 0c-41774,0 -75671,-37716 -75671,-83786l0 -2793836c0,-46309 33897,-84025 75671,-84025l365700 0c41774,0 75670,37716 75670,84025z"/>
     <path class="fil3" d="M7591384 5209558l0 2409278 2185847 0c6923,0 13368,3342 18142,8354 4535,5252 7400,12413 7400,20052l0 335623c0,7639 -2865,15039 -7400,20051 -4774,5252 -11219,8355 -18142,8355l-2182027 0 -10981 17187c-3581,5490 -8593,10265 -14084,13368 -5013,2864 -11219,4535 -17664,4535l-365700 0c-10742,0 -20529,-4774 -27452,-12413 -6922,-7877 -11458,-18619 -11458,-30554l0 -2793836c0,-11935 4536,-22677 11220,-30316 7161,-7877 16948,-12651 27690,-12651l365700 0c10742,0 20529,4774 27451,12413 6923,7877 11458,18619 11458,30554zm73522 2327401l0 -2327401c0,-34374 -12651,-65406 -32941,-88083 -20529,-22677 -48697,-36761 -79490,-36761l-365700 0c-31032,0 -58961,14084 -79490,36522 -20290,22916 -32942,53948 -32942,88322l0 2793836c0,34135 12652,65406 32942,88083 20529,22677 48696,36761 79490,36761l365700 0c18142,0 35806,-5252 51083,-13845 10026,-5729 18858,-12890 26736,-21245l2146937 0c27213,0 52277,-12413 70180,-32464 17903,-19813 29123,-47503 29123,-77819l0 -335623c0,-30316 -11220,-57767 -29123,-77819 -17903,-19813 -42967,-32464 -70180,-32464l-2112325 0z"/>
     <path class="fil2" d="M7701906 7875208c-248017,-275946 -355675,-605841 -393390,-962947 370951,-20529 412725,-317720 634007,-318436 33897,338248 132483,665039 393391,962947 -138928,283346 -361881,361164 -634008,318436z"/>
     <path class="fil3" d="M7719093 7836776c-115773,-131528 -199560,-275469 -258998,-428719 -56096,-144896 -90709,-298624 -110283,-458319 193115,-21484 295043,-116251 383842,-198844 57529,-53709 108851,-101451 176405,-113386 18381,159218 51800,316049 110044,468822 60155,157786 146806,310559 270218,456648 -63019,118160 -142748,194547 -235605,237514 -97393,45116 -210779,54187 -335623,36284zm-326552 -396494c64212,165902 155637,321778 283346,463571l8593 9787 12413 1909c142270,22439 272604,12891 385991,-39625 114818,-52993 211495,-149192 285255,-299578l12891 -26497 -18858 -21484c-126993,-145134 -214599,-296952 -274276,-453783 -59915,-156831 -92380,-319391 -108850,-485054l-3581 -36523 -32942 239c-111237,239 -179030,63019 -256133,135109 -85935,79728 -185476,172586 -379545,183327l-39387 2149 4535 43206c19097,182373 56335,357823 120548,523247z"/>
     <path class="fil2" d="M7628145 4802323l0 -1805586c0,-177837 145373,-323210 323449,-323210l1564730 0c178076,0 323449,145373 323449,323210l0 1805586c0,177837 -145373,323210 -323449,323210l-1564730 0c-178076,0 -323449,-145373 -323449,-323210z"/>
     <path class="fil3" d="M7664906 4766755l0 -1734689c0,-87367 32465,-166857 84264,-224385 52038,-57529 123889,-93574 202663,-93574l1564252 0c78774,0 150625,35806 202663,93335 51799,57767 84025,137257 84025,224624l0 1734689c0,87367 -32226,167096 -84264,224624 -51799,57529 -123650,93335 -202424,93335l-1564252 0c-78774,0 -150625,-35806 -202663,-93335 -51799,-57528 -84264,-137257 -84264,-224624zm-73522 -1734689l0 1734689c0,110045 40581,210063 105748,282392 65406,72328 155399,117444 254701,117444l1564252 0c99064,0 189295,-45116 254462,-117444 65406,-72329 105987,-172347 105987,-282392l0 -1734689c0,-109567 -40581,-209585 -105748,-282153 -65406,-72567 -155637,-117444 -254701,-117444l-1564252 0c-99302,0 -189295,44877 -254701,117444 -65167,72329 -105748,172347 -105748,282153z"/>
     <path class="fil2" d="M7628145 5041747l0 -2368459 2149086 0c34374,0 62542,-31270 62542,-69464l0 -335384c0,-38193 -28168,-69464 -62542,-69464l-2163408 0c-13607,-21245 -36045,-35090 -61348,-35090l-365700 0c-41774,0 -75671,37716 -75671,84025l0 2793836c0,46309 33897,83786 75671,83786l365700 0c41774,0 75670,-37477 75670,-83786z"/>
     <path class="fil3" d="M7664906 5041747l0 -2327640 2112325 0c27213,0 52277,-12413 70180,-32225 17903,-20052 29123,-47503 29123,-78058l0 -335384c0,-30316 -11220,-58006 -29123,-77819 -17903,-20051 -42967,-32464 -70180,-32464l-2146937 0c-7878,-8355 -16710,-15755 -26497,-21245 -15516,-8832 -33180,-13845 -51322,-13845l-365700 0c-31032,0 -59200,14084 -79490,36761 -20290,22438 -32942,53709 -32942,88083l0 2793836c0,34374 12652,65406 32942,88083 20529,22677 48458,36761 79490,36761l365700 0c30793,0 58961,-14084 79490,-36761 20290,-22677 32941,-53709 32941,-88083zm-73522 -2368459l0 2368459c0,11935 -4535,22677 -11219,30316 -7161,7877 -16948,12651 -27690,12651l-365700 0c-10742,0 -20529,-4774 -27452,-12413 -6922,-7877 -11458,-18619 -11458,-30554l0 -2793836c0,-11935 4536,-22677 11458,-30316 6923,-7877 16710,-12651 27452,-12651l365700 0c6445,0 12651,1671 17664,4535 5491,3103 10503,7877 14084,13368l10981 16948 2182027 0c6923,0 13368,3342 18142,8593 4535,5013 7400,12175 7400,20052l0 335384c0,7878 -2865,15039 -7400,20290 -4774,5013 -11219,8355 -18142,8355l-2185847 0 0 40819z"/>
     <path class="fil2" d="M7701906 2376097c-248017,275946 -355675,605840 -393390,962947 370951,20290 412725,317720 634007,318436 33897,-338487 132483,-665039 393391,-962947 -138928,-283346 -361881,-361165 -634008,-318436z"/>
     <path class="fil3" d="M7675887 2347452c-127709,141793 -219134,297430 -283346,463571 -64213,165424 -101451,341113 -120548,523247l-4535 43206 39387 2148c194069,10742 293610,103361 379545,183567 77341,71612 144896,134631 256133,134870l32942 238 3581 -36522c16470,-165663 48935,-328223 108850,-485293 59677,-156592 147283,-308649 274276,-453545l18858 -21483 -12891 -26497c-73760,-150386 -170437,-246585 -285255,-299578 -113387,-52516 -243721,-62064 -385991,-39626l-12413 1910 -8593 9787zm-215792 495796c59438,-153489 143225,-297430 258998,-428719 124844,-17903 238230,-8832 335623,36284 92857,42967 172586,119353 235605,237514 -123412,145850 -210063,298862 -270218,456648 -58244,152773 -91663,309604 -110044,468822 -67554,-11936 -118876,-59677 -176405,-113148 -88799,-82831 -190727,-177837 -383842,-199082 19574,-159695 54187,-313423 110283,-458319z"/>
    </g>
   </g>
   <g>
    <polygon class="fil2" points="11477547,8602789 14680289,8602789 14680289,6400949 11477547,6400949 "/>
    <path class="fil3" d="M11477547 8642892l3242845 0 0 -2282046 -3282710 0 0 2282046 39865 0zm3162639 -80206l-3122536 0 0 -2121634 3122536 0 0 2121634z"/>
   </g>
   <g>
    <path class="fil2" d="M15645623 4752672c0,155398 292894,155398 292894,0l2121635 0c27929,197650 310797,170437 296236,-57290l0 -1671193c0,-470493 -403893,-855290 -897780,-855290l-996366 0c-449487,0 -817574,350423 -817574,778903l955 1804870z"/>
    <path class="fil3" d="M15600507 4752672c-239,77580 51322,126753 117206,147998 23632,7639 49173,11458 74238,11458 25064,0 50606,-3819 74238,-11458 52993,-16948 96438,-51799 111715,-105031l2045964 0c19813,63258 63735,103599 115296,121741 26974,9310 55858,12651 84264,9548 28406,-2864 56096,-12174 81161,-27451 59199,-35806 102405,-104793 96915,-204095l0 -1671193c0,-247063 -106225,-471687 -276901,-634486 -170915,-162798 -406519,-264010 -665995,-264010l-996366 0c-237275,0 -452829,92618 -609182,241572 -156354,148954 -253508,354481 -253508,580537l955 1804870zm145851 66599c-31271,-10026 -55619,-32464 -55619,-66599l-955 -1804870c239,-202424 87128,-386468 227011,-519667 140121,-133437 333236,-216269 545447,-216269l996366 0c234411,0 447577,91425 602021,238708 154683,147044 250405,350184 250405,573615l238 1673580c4297,65406 -20767,108373 -54902,129379 -13129,7878 -27929,12891 -42729,14323 -14561,1671 -29600,0 -43445,-4774 -31748,-11220 -58483,-40819 -65406,-89516l-5013 -37716 -2206375 0 0 43207c0,34135 -24587,56573 -55858,66599 -13845,4535 -29600,6684 -45593,6684 -15755,0 -31510,-2149 -45593,-6684z"/>
    <path class="fil2" d="M15940904 4752672l2119248 0 0 -1180410c0,-367849 -315572,-668859 -701562,-668859l-778665 0c-351616,0 -639021,274036 -639021,608943l0 1240326z"/>
    <path class="fil3" d="M15940904 4795639l2164602 0 0 -1223377c0,-195979 -84025,-373817 -219372,-502719 -135347,-128902 -322017,-209108 -527544,-209108l-778665 0c-188340,0 -359494,73283 -483383,191444 -123889,118160 -200992,281197 -200992,460467l0 1283293 45354 0zm2074132 -86174l-2029016 0 0 -1197119c0,-155399 66838,-296952 174496,-399597 107657,-102405 256133,-166140 419409,-166140l778665 0c180463,0 344694,70418 463570,183805 118877,113386 192876,269739 192876,441848l0 1137203z"/>
    <path class="fil2" d="M15891014 3109885c305069,-289791 669814,-415590 1064637,-459513 22677,433494 351617,482429 352094,740710 -374055,39626 -735220,154683 -1064637,459752 -313184,-162322 -399119,-422752 -352094,-740949z"/>
    <path class="fil3" d="M15933743 3130175c145134,-135347 304353,-233218 473835,-302682 160412,-65644 330372,-105986 506777,-128663 23632,225579 128663,344694 219849,448293 59439,67077 112193,127231 125322,206244 -175928,21483 -349468,60393 -518235,128424 -174495,70419 -343500,171393 -505105,315811 -130573,-73761 -215076,-166857 -262579,-275469 -49890,-113864 -59915,-246108 -39864,-391958zm438029 -381694c-183328,75193 -355675,181895 -512506,331088l-10742 10264 -2148 14323c-24587,166379 -14084,318436 43922,451157 58484,133915 164947,246824 331327,332998l29122 15277 23871 -22200c160411,-148476 328462,-250643 501525,-320584 173540,-69703 353526,-107658 536615,-126993l40103 -4058 0 -38671c-239,-129857 -69942,-209108 -149431,-299100 -88322,-100496 -190966,-216747 -202663,-443519l-2387 -46071 -47742 5252c-201708,22438 -396016,65883 -578866,140837z"/>
   </g>
   <g>
    <path class="fil2" d="M9680316 8258334c155399,0 155399,293133 0,293133l0 2121634c197650,27691 170437,310559 -57290,295998l-1671193 0c-470493,0 -855290,-403893 -855290,-897541l0 -996366c0,-449726 350423,-817574 778903,-817574l1804870 716z"/>
    <path class="fil3" d="M9680316 8213218c77580,0 126754,51322 147999,117205 7638,23871 11458,49413 11458,74477 0,25065 -3820,50368 -11458,74238 -16949,52755 -51800,96438 -105032,111477l0 2046203c63258,19574 103599,63735 121741,115296 9549,26735 12652,55857 9549,84264 -2865,28167 -12175,56096 -27452,81160 -35806,58961 -104793,102167 -204095,96677l-1671193 239c-246824,0 -471448,-106225 -634485,-277140 -162799,-170676 -264011,-406519 -264011,-665756l0 -996366c0,-237276 92619,-453068 241572,-609421 148954,-156115 354720,-253269 580537,-253269l1804870 716zm66599 146089c-10025,-31271 -32225,-55857 -66599,-55857l-1804870 -717c-202424,0 -386467,86890 -519666,226773 -133438,140121 -216270,333236 -216270,545686l0 996366c0,234172 91426,447577 238708,602021 147044,154444 350185,250404 573615,250404l1673580 239c65406,4058 108612,-20768 129380,-55141 7877,-12891 12890,-27691 14322,-42490 1671,-14800 0,-29600 -4774,-43445 -11219,-31748 -40819,-58484 -89515,-65406l-37478 -5252 0 -2206376 42968 0c34135,0 56574,-24348 66599,-55857 4536,-13845 6923,-29361 6923,-45355 0,-15993 -2387,-31509 -6923,-45593z"/>
    <path class="fil2" d="M9680316 8553615l0 2119486 -1180410 0c-367849,0 -668620,-315810 -668620,-701562l0 -778903c0,-351378 273797,-639021 608704,-639021l1240326 0z"/>
    <path class="fil3" d="M9723283 8553615l0 2164602 -1223377 0c-195740,0 -373816,-84025 -502719,-219372 -128902,-135109 -209108,-322017 -209108,-527306l0 -778903c0,-188102 73284,-359255 191444,-483145 118160,-124128 281198,-200992 460467,-200992l1283293 0 0 45116zm-85935 2074371l0 -2029016 -1197358 0c-155398,0 -296952,66838 -399596,174256 -102406,107658 -166141,256134 -166141,419410l0 778903c0,180463 70419,344456 183805,463571 113386,118876 269740,192876 441848,192876l1137442 0z"/>
    <path class="fil2" d="M8037768 8503964c-290030,305069 -415829,669814 -459751,1064637 433493,22677 482428,351377 740949,352094 39386,-374055 154682,-735459 459512,-1064637 -162321,-313423 -422751,-399358 -740710,-352094z"/>
    <path class="fil3" d="M8057819 8546454c-135347,145134 -233217,304352 -302681,473835 -65645,160412 -105986,330371 -128664,506777 225579,23870 344694,128663 448293,220088 67077,59438 127232,112193 206244,125322 21484,-176167 60393,-349469 128425,-518474 70419,-174256 171392,-343500 315810,-504867 -73761,-130573 -166857,-215314 -275230,-262578 -113864,-49890 -246346,-59916 -392197,-40103zm-381693 438267c75192,-183566 181895,-355674 331087,-512505l10265 -10742 14322 -2148c166379,-24826 318436,-14323 451158,43683 133915,58722 246824,165186 332997,331565l15277 29123 -21961 23632c-148476,160411 -250882,328462 -320584,501763 -69942,173541 -107896,353288 -127232,536377l-4058 40341 -38670 -238c-129857,-239 -208869,-69703 -299101,-149193 -100496,-88560 -216747,-190966 -443519,-202901l-46071 -2387 5491 -47742c22199,-201469 65644,-395777 140599,-578628z"/>
   </g>
   <g>
    <g>
     <polygon class="fil2" points="10623212,19715113 10623212,18266634 9667903,18426807 9667903,19554940 "/>
     <path class="fil3" d="M10663314 19715113l0 -1495743 -1035514 173541 0 1195925 1035514 173541 0 -47264zm-79967 -1401453l0 1354189 -875341 -146806 0 -1060578 875341 -146805z"/>
     <polygon class="fil2" points="9493885,19715113 9493885,18266634 9667903,18426807 9667903,19554940 "/>
     <path class="fil3" d="M9533988 19623926l0 -1266106 93812 86413 0 1093281 -93812 86412zm-79967 -1357292l0 1539665 253985 -233933 0 -1162985 -253985 -233933 0 91186z"/>
    </g>
    <g>
     <polygon class="fil2" points="15432934,19815370 15135982,18397685 16103703,18358537 16335250,19462799 "/>
     <path class="fil3" d="M15393786 19823725l-306739 -1463995 1049120 -42490 245153 1170384 -977747 382410 -9787 -46309zm-209108 -1388086l277856 1325544 826645 -323210 -217701 -1038140 -886800 35806z"/>
     <polygon class="fil2" points="16538390,19583824 16241199,18166138 16103703,18358537 16335250,19462799 "/>
     <path class="fil3" d="M16480384 19502902l-259714 -1239371 -74000 103838 224147 1070127 109567 65406zm-200037 -1344880l315810 1506962 -296475 -176882 -238708 -1138398 200754 -280959 18619 89277z"/>
    </g>
    <g>
     <polygon class="fil2" points="11347212,20290876 12685408,20845155 12171948,21666549 11129511,21234965 "/>
     <path class="fil3" d="M11362489 20253876l1381880 572421 -556667 890142 -1104739 -457603 235843 -1022863 43683 17903zm1263958 610376l-1251067 -518235 -199321 864839 979895 405803 470493 -752407z"/>
     <polygon class="fil2" points="10914912,21334268 12253347,21888547 12171948,21666549 11129511,21234965 "/>
     <path class="fil3" d="M11014454 21332119l1169906 484577 -43922 -119831 -1010211 -418455 -115773 53709zm1223377 593428l-1422460 -589131 313424 -145134 1074423 444951 118877 324165 -84264 -34851z"/>
    </g>
    <path class="fil2" d="M10731346 20483513l4385062 0c225340,0 409622,-184282 409622,-409622l0 -2183460c0,-225102 -184282,-409623 -409622,-409623l-4385062 0c-225340,0 -409622,184521 -409622,409623l0 2183460c0,225340 184282,409622 409622,409622z"/>
    <path class="fil3" d="M10731346 20523377l4385062 0c123650,0 236082,-50606 317481,-132005 81638,-81399 132244,-193831 132244,-317720l0 -2182983c0,-123650 -50606,-236320 -132244,-317720 -81399,-81399 -193831,-132005 -317481,-132005l-4385062 0c-123650,0 -236321,50606 -317720,132005 -81399,81400 -132005,194070 -132005,317720l0 2182983c0,123889 50606,236321 132005,317720 81399,81399 194070,132005 317720,132005zm4385062 -79967l-4385062 0c-101689,0 -194069,-41774 -261146,-108612 -66838,-67077 -108612,-159457 -108612,-261146l0 -2182983c0,-101689 41774,-194069 108612,-261146 67077,-67077 159457,-108612 261146,-108612l4385062 0c101451,0 194069,41535 260907,108612 67077,67077 108612,159457 108612,261146l0 2182983c0,101689 -41535,194069 -108612,261146 -66838,66838 -159456,108612 -260907,108612z"/>
    <g>
     <polygon class="fil2" points="13355461,20484945 14803939,20484945 14643766,21440493 13515395,21440493 "/>
     <path class="fil3" d="M13355461 20445081l1495504 0 -173541 1035276 -1195687 0 -173541 -1035276 47265 0zm1401214 79967l-1354189 0 146805 875342 1060579 0 146805 -875342z"/>
     <polygon class="fil2" points="13355461,21614272 14803939,21614272 14643766,21440493 13515395,21440493 "/>
     <path class="fil3" d="M13446647 21574408l1266106 0 -86412 -94051 -1093282 0 -86412 94051zm1357292 79967l-1539665 0 233695 -253985 1163223 0 233695 253985 -90948 0z"/>
    </g>
   </g>
   <g>
    <polygon class="fil4" points="29295171,22136564 32137465,22136564 32137465,28221703 29255069,28221703 29255069,22136564 "/>
    <g>
     <path class="fil3" d="M29295171 22136564l2842294 0 0 6085139 -2882396 0 0 -6085139 40102 0zm2762327 79967l-2722462 0 0 5924966 2722462 0 0 -5924966z"/>
     <path class="fil3" d="M30696386 22338034c340875,0 650956,139405 875580,364029 224624,224624 364029,534705 364029,875580l0 3953239c0,134632 -54902,257089 -143702,345649 -88560,88561 -211017,143702 -345410,143702l-1500994 0c-134631,0 -257088,-55141 -345649,-143702 -88561,-88560 -143702,-211017 -143702,-345649l0 -3953239c0,-340875 139405,-650956 364029,-875580 224863,-224624 534706,-364029 875819,-364029zm819006 420603c-210301,-210063 -500092,-340636 -819006,-340636 -318914,0 -608944,130573 -819006,340636 -210302,210301 -340875,500093 -340875,819006l0 3953239c0,112432 46071,214837 120309,289075 74238,74000 176405,120070 289075,120070l1500994 0c112432,0 214837,-46070 288837,-120070 74238,-74238 120308,-176643 120308,-289075l0 -3953239c0,-318913 -130573,-608705 -340636,-819006z"/>
     <path class="fil1" d="M30696386 27116247c89754,0 162799,73045 162799,163037 0,89993 -73045,162799 -162799,162799 -89993,0 -163037,-72806 -163037,-162799 0,-89992 73044,-163037 163037,-163037zm0 63735c54903,0 99302,44400 99302,99302 0,54903 -44399,99303 -99302,99303 -54903,0 -99541,-44400 -99541,-99303 0,-54902 44638,-99302 99541,-99302z"/>
    </g>
   </g>
   <g>
    <path class="fil4" d="M27946950 26540245l400552 0c231069,0 441370,94528 593666,247063 152295,152295 247062,362358 247062,593666l0 618253c0,61109 -25303,116728 -65406,157070 -40341,40341 -95960,65406 -157069,65406l-1637058 0c-60871,0 -116490,-25065 -156831,-65406 -40580,-40103 -65406,-95961 -65406,-157070l0 -618253c0,-231069 94528,-441371 246824,-593666 152295,-152535 362597,-247063 593666,-247063z"/>
    <g>
     <path class="fil3" d="M27946950 26540245l400552 0c231069,0 441370,94528 593666,247063 152295,152295 247062,362358 247062,593666l0 618253c0,61109 -25303,116728 -65406,157070 -40341,40341 -95960,65406 -157069,65406l-1637058 0c-60871,0 -116490,-25065 -156831,-65406 -40580,-40103 -65406,-95961 -65406,-157070l0 -618253c0,-231069 94528,-441371 246824,-593666 152295,-152535 362597,-247063 593666,-247063zm400552 79967l-400552 0c-209108,0 -399119,85696 -537092,223669 -137974,137735 -223431,327985 -223431,537093l0 618253c0,39148 15993,74716 41774,100496 25780,25780 61587,41774 100496,41774l1637058 0c38909,0 74715,-15994 100496,-41774 25780,-25780 41774,-61348 41774,-100496l0 -618253c0,-209108 -85697,-399358 -223431,-537093 -137734,-137973 -327984,-223669 -537092,-223669z"/>
     <path class="fil3" d="M27946950 26779669c-164947,0 -315333,67793 -424184,176882 -109089,109090 -176882,259476 -176882,424423l0 240856 1602684 0 0 -240856c0,-165186 -67793,-315333 -176644,-424423 -109089,-109089 -259475,-176882 -424422,-176882l-400552 0zm-480757 120309c123411,-123412 293610,-200276 480757,-200276l400552 0c186908,0 357345,76864 480996,200276 123412,123412 200276,293849 200276,480996l0 257804c0,17426 -7400,33181 -18620,44400 -11458,11458 -27212,18619 -44399,18619l-1637058 0c-16948,0 -32703,-7161 -44161,-18619 -11458,-11697 -18619,-27451 -18619,-44400l0 -257804c0,-187147 76625,-357584 200276,-480996z"/>
     <path class="fil1" d="M28215258 27768635c45831,24348 77102,72567 77102,128186 0,80206 -64928,145373 -145134,145373 -80206,0 -145135,-65167 -145135,-145373 0,-55619 31271,-103838 77342,-128186l0 -342068 135825 0 0 342068z"/>
     <path class="fil1" d="M28147226 26935784c89993,0 163037,72806 163037,162799 0,89992 -73044,163037 -163037,163037 -89993,0 -162799,-73045 -162799,-163037 0,-89993 72806,-162799 162799,-162799zm0 63496c54903,0 99302,44400 99302,99303 0,54902 -44399,99302 -99302,99302 -54903,0 -99303,-44400 -99303,-99302 0,-54903 44400,-99303 99303,-99303z"/>
    </g>
   </g>
   <g>
    <path class="fil4" d="M26294137 28221703l-1404556 0 0 -554280c0,-29600 11935,-56335 31509,-75670 6445,-6684 13845,-12413 21723,-16948l0 -1383312 239 -8593 0 -8355 238 -8116 478 -8355 477 -8355 477 -8355 0 0 717 -8116 0 0 954 -8116 0 -238 717 -8116 0 0 954 -8116 239 0 955 -8117 0 0 1193 -8116 0 0 1194 -7877 0 -239 1432 -7877 0 0 1671 -8116 0 0 1432 -7877 0 0 1671 -7878 0 0 1910 -7877 0 0 1910 -7878 0 -238 1909 -7639 0 0 2149 -7639 0 -238 4296 -15278 0 0 2388 -7638 0 -239 2387 -7400 0 -239 2387 -7399 238 0 5252 -15039 0 0 2864 -7400 0 -239 2865 -7161 0 -239 2864 -7161 0 -239 3104 -7161 0 0 3103 -7161 0 -239c3342,-7161 6684,-14322 10026,-21483l0 0 3580 -6923 0 -239c6923,-14083 14561,-27929 22439,-41296l238 -239c27929,-47503 61826,-90948 100735,-129857 57290,-57290 125083,-104076 200037,-137018l239 0c14561,-6445 29361,-12174 44400,-17665l7400 -2387 0 0 7638 -2625 0 0 7639 -2387 0 0 7638 -2388 0 0 7639 -2387 0 0 7639 -2148 238 0 7639 -1910 0 0 7877 -2148 0 0 7878 -1671 0 0 7877 -1910 0 0 7878 -1671 0 0 7877 -1671 239 0 7877 -1432 0 0 7877 -1432 239 0 7877 -1194 239 0 7877 -1193 0 0 8117 -1194 0 0 8116 -954 0 0 8354 -717 0 -238 8116 -716 0 0 8116 -717 239 0 8116 -477 8355 -477 8355 -478 8355 -239 8354 0 8355 -238 8355 238 8355 0 8354 239 8355 478 8355 477 8116 477 0 0 8355 717 0 0 8116 716 0 238 8116 717 239 0 8116 954 0 0 8116 1194 0 0 8116 1193 0 0 7877 1194 0 0 8116 1432 0 0 7878 1432 238 0 7878 1671 0 0 7877 1671 0 0 7877 1910 0 0 7878 1671 0 0 7877 2148 0 0 7639 1910 238 0 7639 2148 0 0 7639 2387 0 0 7638 2388 0 0 7639 2387 0 0 7639 2387 0 238 7400 2387 7638 2865 0 0 7400 2626 0 238 7400 2865 0 0c12413,4774 24587,10026 36522,15516l0 239 6923 3342 239 0c66599,32225 126992,75193 178553,126992 24110,23871 46071,49890 66122,77341l239 0c9071,12652 17903,25781 26258,39149l0 0 4058 6683 0 0 8116 13607 3819 6683 0 239 4058 6684 0 0 3581 6923 0 238 3580 6923 0 0 3820 6922 0 0 3342 7162 0 0 3342 7161 0 0 3341 7161 0 0 3342 7161 0 239 3104 7161 0 0 3103 7400 0 0 2864 7400 0 0 2865 7400 0 0 2864 7400 0 0 2626 7400 0 239 2626 7400 0 0 2626 7638 0 0 2387 7639 0 0 2387 7638 0 0 2148 7639 0 0 2387 7639 0 238 1910 7639 0 0 1910 7877 0 0 1909 7878 0 0 1910 7877 0 0 1671 7878 0 0 1432 7877 0 0 1671 8116 0 0 1432 7877 0 239 1194 7877 0 0 1193 8116 0 0 955 8117 239 0 955 8116 716 8116 239 0 716 8354 716 8116 477 8355 478 8355 477 8355 239 8116 0 8355 238 8593 0 1374241c18142,5967 34613,16232 47981,29599 21722,21484 35090,51561 35090,84503l0 541867 -36523 0z"/>
    <g>
     <path class="fil3" d="M26294137 28221703l-1404556 0 0 -554280c0,-29600 11935,-56335 31509,-75909 19336,-19335 46310,-31509 75671,-31509l1214067 0c32942,0 63019,13606 84742,35328 21722,21484 35090,51561 35090,84503l0 541867 -36523 0zm-1331511 -73284l1294989 0 0 -468583c0,-12652 -5251,-24348 -13845,-32942 -8355,-8354 -20051,-13606 -32942,-13606l-1214067 0c-9310,0 -17903,3819 -24110,10026 -6206,6206 -10025,14800 -10025,24109l0 480996z"/>
     <path class="fil3" d="M26210828 27633288l-1268015 0 0 -1441795c0,-179269 73522,-342307 191682,-460706 118399,-118160 281437,-191682 460706,-191682 179270,0 342307,73522 460467,191682 118399,118399 191921,281437 191921,460706l0 1441795 -36761 0zm-1194732 -73283l1158210 0 0 -1368512c0,-159457 -65167,-304114 -169960,-409145 -105031,-104793 -249688,-169960 -409145,-169960 -159457,0 -304114,65167 -408906,169960 -105032,105031 -170199,249688 -170199,409145l0 1368512z"/>
     <path class="fil3" d="M26087894 27455212l-995650 0c-37716,-261146 -149431,-1034321 -149431,-1263719 0,-179508 73522,-342546 191682,-460706 118160,-118160 281198,-191682 460706,-191682 179508,0 342546,73522 460706,191682 118160,118399 191682,281437 191682,460706 0,258043 -92857,981328 -127231,1263719l-32464 0zm-932393 -73045l900167 0 118638 -1192822c-477,-158502 -65644,-302443 -169960,-406997 -105031,-104793 -249927,-169960 -409145,-169960 -159218,0 -304114,65167 -408906,169960 -104554,104554 -169722,248733 -170199,406997l139405 1192822z"/>
     <path class="fil3" d="M25600691 28007820c-33896,0 -64928,-13606 -87128,-36044 -22200,-22200 -36045,-52994 -36045,-87129 0,-34135 13845,-64928 36045,-87128 22200,-22200 53232,-36045 87128,-36045 34136,0 64929,13845 87129,36045 22438,22200 36283,53232 36283,87128 0,34135 -13845,64929 -36283,87129 -22200,22438 -53232,36044 -87129,36044z"/>
    </g>
   </g>
   <g>
    <polygon class="fil4" points="24045272,21751529 24045272,24193509 25421661,24193509 25806935,24193509 25806935,21711426 25421661,21711426 24045272,21711426 "/>
    <g>
     <path class="fil3" d="M24045272 21751529l0 2441980 1761663 0 0 -2482083 -1761663 0 0 40103zm80205 2362013l0 -2321910 1601252 0 0 2321910 -1601252 0z"/>
     <path class="fil3" d="M25421661 21751529l0 2441980 385274 0 0 -2482083 -385274 0 0 40103zm79967 2362013l0 -2321910 225101 0 0 2321910 -225101 0z"/>
     <path class="fil3" d="M24171548 22952467c0,168767 68509,321540 179270,432300 110760,110999 263772,179270 432299,179270 168767,0 321540,-68271 432300,-179031 110999,-110999 179508,-263772 179508,-432539 0,-168527 -68509,-321539 -179269,-432299 -110999,-110761 -263772,-179270 -432539,-179270 -168527,0 -321539,68509 -432299,179270 -110761,110760 -179270,263772 -179270,432299zm235843 375965c-96199,-96199 -155637,-228921 -155637,-375965 0,-146805 59438,-279765 155399,-375726 96199,-96199 229159,-155637 375964,-155637 147044,0 280005,59438 375965,155399 96199,96199 155637,229159 155637,375964 0,147044 -59438,279766 -155398,375965 -96199,96199 -229160,155638 -376204,155638 -146805,0 -279765,-59439 -375726,-155638z"/>
     <path class="fil3" d="M24391159 22952467c0,108374 43922,206244 114819,277140 71135,70896 169005,114819 277139,114819 108374,0 206244,-43923 277140,-114819 71135,-70896 114818,-168766 114818,-277140 0,-108134 -43683,-206243 -114818,-277139 -70896,-70896 -168766,-114819 -277140,-114819 -108134,0 -206004,43923 -277139,114819 -70897,70896 -114819,169005 -114819,277139zm171631 220566c-56574,-56335 -91425,-134392 -91425,-220566 0,-86173 34851,-163992 91425,-220566 56335,-56335 134393,-91186 220327,-91186 86174,0 164231,34851 220566,91186 56574,56574 91425,134393 91425,220566 0,86174 -34851,164231 -91425,220566 -56335,56335 -134392,91426 -220566,91426 -85934,0 -163992,-35091 -220327,-91426z"/>
     <path class="fil1" d="M25521918 21958011c0,45593 36761,82593 82354,82593 45593,0 82354,-37000 82354,-82593 0,-45355 -36761,-82354 -82354,-82354 -45593,0 -82354,36999 -82354,82354z"/>
     <path class="fil1" d="M25521918 23982491c0,45594 36761,82593 82354,82593 45593,0 82354,-36999 82354,-82593 0,-45593 -36761,-82354 -82354,-82354 -45593,0 -82354,36761 -82354,82354z"/>
     <path class="fil1" d="M25521918 23714900c0,45593 36761,82593 82354,82593 45593,0 82354,-37000 82354,-82593 0,-45354 -36761,-82354 -82354,-82354 -45593,0 -82354,37000 -82354,82354z"/>
    </g>
   </g>
  </g>
 </g>
</svg>
