<?xml version="1.0" encoding="UTF-8"?>
<!DOCTYPE svg PUBLIC "-//W3C//DTD SVG 1.0//EN" "http://www.w3.org/TR/2001/REC-SVG-20010904/DTD/svg10.dtd">
<!-- Creator: CorelDRAW X7 -->
<svg xmlns="http://www.w3.org/2000/svg" xml:space="preserve" width="225px" height="147px" version="1.0" style="shape-rendering:geometricPrecision; text-rendering:geometricPrecision; image-rendering:optimizeQuality; fill-rule:evenodd; clip-rule:evenodd"
viewBox="0 0 3149825 2061308"
 xmlns:xlink="http://www.w3.org/1999/xlink">
 <defs>
  <style type="text/css">
   <![CDATA[
    .fil2 {fill:#2A2A2A}
    .fil0 {fill:#C0ECFA}
    .fil1 {fill:#FFCF00}
    .fil3 {fill:#2A2A2A;fill-rule:nonzero}
   ]]>
  </style>
 </defs>
 <g id="Слой_x0020_1">
  <metadata id="CorelCorpID_0Corel-Layer"/>
  <g id="_1004577504">
   <rect class="fil0" transform="matrix(2.69513E-015 -0.970877 0.627473 1.58549E-013 3.11748E+006 1.97295E+006)" width="1077009" height="44296"/>
   <rect class="fil0" x="1030844" y="3555" width="525566" height="132160"/>
   <rect class="fil0" x="1844607" y="3555" width="525566" height="132160"/>
   <rect class="fil0" x="177763" y="3555" width="525566" height="132160"/>
   <g>
    <path class="fil1" d="M2372603 0l22421 0 400962 0 0 17 2778 0 0 894748 273349 0 0 0 18138 0 0 0 15344 0 0 0 10946 0 0 0 0 40427 0 1018361 0 17774 0 22636 -317777 0 0 25133 -2730030 0 -61938 0 -6796 0 0 -1880438 0 -37698 0 -100960 213427 0 0 138658 449293 0 0 -138658 395241 0 7606 0 0 138658 449275 0 0 -138658 50844 0 321596 0 36029 0 0 138658 449292 0 0 -138658zm-905165 1492785l208401 0 0 508056 -208401 0 0 -508056z"/>
    <path class="fil2" d="M2362319 0l32705 0 400962 0 0 17 2778 0 0 894748 306632 0 0 0 18139 0 0 0 15327 0 0 0 10963 0 0 0 0 40427 0 1018361 0 17774 0 22636 -351061 0 0 25133 -2294627 0 0 -4051 -17096 0 -210997 46263 -1174 -5407 212005 -46495 0 -15030 17262 0 0 -40625 27034 0 0 -441041 0 -33780 35599 0 254003 0 0 7357 8367 0 133351 -46263 1157 5407 -134359 46511 0 15014 -8516 0 0 5754 -254003 0 0 441041 577269 0 0 -441041 -146809 0 0 -5754 -11079 0 0 -20669 11079 0 0 -7357 146809 0 35599 0 96711 0 0 7357 7407 0 133351 -46263 1157 5407 -134359 46511 0 15014 -7556 0 0 5754 -96711 0 0 441041 272010 0 0 -446795 -10880 0 0 -20669 10880 0 0 -7357 15790 0 19792 0 58797 0 35582 0 72239 0 12219 0 0 -8863 20668 0 0 8863 2712 0 0 474821 725369 0 118569 0 187204 0 0 -246447 -397 0 0 -186840 26869 0 0 -223712 -19429 0 -34441 216933 -5456 -876 34309 -216057 -1852 0 0 -24454 -60086 0 0 -59756 -970643 0 0 28257 -2728 0 0 8483 46280 197124 -5423 1174 -46495 -198150 -15030 0 0 -8631 -1852 0 0 -28257 0 -12947 0 -13144 2629 0 0 -12815 15030 0 46495 -206466 5424 1174 -46281 205441 0 12666 972594 0 0 -1047793 -265082 0 -32705 0 -419282 0 -55755 0 -197819 0 0 793492 -1951 0 0 12533 -20668 0 0 -12533 -2629 0 0 -4349 -17129 0 0 -15030 -200911 -46495 1174 -5423 199902 46280 16964 0 0 -768475 -98529 0 -56333 0 -432377 0 -19015 0 -175398 0 0 1047793 501508 0 0 -279748 25232 0 0 430 14385 0 0 20668 -14385 0 0 258650 0 10780 0 15311 -732760 0 0 -2017 -9574 0 0 -15030 -187038 -46495 1157 -5423 186047 46280 9408 0 0 -3406 180788 0 0 -1047793 -194611 0 -19412 0 -411643 0 -15146 0 -147785 0 0 1047793 376590 0 0 3406 12103 0 0 20668 -12103 0 0 2017 -376590 0 0 741209 168387 0 0 40625 15262 0 0 20669 -15262 0 0 4051 -168387 0 -61938 0 -6796 0 0 -1880438 0 -37698 0 -100960 216519 0 15146 0 411643 0 19412 0 395241 0 19015 0 432377 0 56333 0 321596 0 55755 0 419282 0zm-722955 1512710l-43254 17675 -14501 68569 0 -86244 57755 0zm-56284 106035l17841 -84359 52927 -21627 0 105986 -70768 0zm-43849 -106035l-43254 17675 -8747 41303 0 -58978 52001 0zm-52001 85714l13558 -64038 45239 -18485 0 102844 -58797 0 0 -20321zm144991 127515l-36111 14748 -14501 68569 0 -83317 50612 0zm-48777 101373l17477 -82623 45900 -18750 7027 0 0 101373 -70404 0zm-51356 -101373l-36111 14748 -8747 41304 0 -56052 44858 0zm-44858 82788l13558 -64038 45239 -18486 0 101109 -58797 0 0 -18585zm166618 52365l-166618 0 0 92659 166618 0 0 -92659zm1102340 -103341l42576 0 0 195802 306632 0 0 -1018361 -306632 0 0 337106 -42576 0 0 24454 0 223712 0 237287zm367347 195802l0 -1018361 15327 0 0 1018361 -15327 0zm-761216 -1820367l0 -55590 -419282 0 0 55590 419282 0zm0 -72256l0 -55457 -419282 0 0 55457 419282 0zm-1285343 72256l432377 0 0 -55590 -432377 0 0 55590zm432377 -127713l-432377 0 0 55457 432377 0 0 -55457zm-1277688 127713l411643 0 0 -55590 -411643 0 0 55590zm411643 -127713l-411643 0 0 55457 411643 0 0 -55457z"/>
    <g>
     <path class="fil3" d="M762225 1533708l-196877 0 0 421498 199654 0 0 -421498 -2777 0zm-191338 5556l188560 0 0 410403 -188560 0 0 -410403z"/>
     <path class="fil3" d="M665167 1547663c-23611,0 -45090,9673 -60649,25232 -15559,15559 -25215,37021 -25215,60649l0 273828c0,9309 3803,17791 9937,23925 6151,6151 14617,9954 23942,9954l103969 0c9326,0 17808,-3803 23942,-9954 6135,-6134 9954,-14616 9954,-23925l0 -273828c0,-23628 -9656,-45090 -25231,-60649 -15559,-15559 -37038,-25232 -60649,-25232zm-56730 29151c14567,-14567 34640,-23595 56730,-23595 22090,0 42179,9028 56730,23595 14567,14550 23595,34640 23595,56730l0 273828c0,7788 -3192,14881 -8317,20007 -5143,5142 -12236,8333 -20024,8333l-103969 0c-7787,0 -14881,-3191 -20006,-8333 -5143,-5126 -8334,-12219 -8334,-20007l0 -273828c0,-22090 9045,-42180 23595,-56730z"/>
     <path class="fil2" d="M665167 1878651c-6234,0 -11277,5060 -11277,11277 0,6233 5043,11293 11277,11293 6233,0 11293,-5060 11293,-11293 0,-6217 -5060,-11277 -11293,-11277zm0 4399c-3803,0 -6878,3092 -6878,6878 0,3803 3075,6895 6878,6895 3803,0 6878,-3092 6878,-6895 0,-3786 -3075,-6878 -6878,-6878z"/>
    </g>
    <g>
     <path class="fil3" d="M1266428 1954280l97306 0 0 -38393c0,-2050 -844,-3902 -2200,-5258 -1339,-1339 -3207,-2182 -5241,-2182l-84094 0c-2282,0 -4366,942 -5870,2447 -1488,1488 -2431,3571 -2431,5853l0 37533 2530 0zm92229 -5076l-89699 0 0 -32457c0,-876 380,-1687 959,-2282 578,-579 1389,-942 2282,-942l84094 0c645,0 1240,264 1670,694 430,430 694,1025 694,1670l0 33317z"/>
     <path class="fil3" d="M1272199 1913523l87831 0 0 -99869c0,-12417 -5093,-23710 -13277,-31911 -8201,-8185 -19495,-13278 -31912,-13278 -12417,0 -23710,5093 -31895,13278 -8201,8201 -13294,19494 -13294,31911l0 99869 2547 0zm82755 -5076l-80226 0 0 -94793c0,-11045 4514,-21065 11773,-28323 7275,-7276 17311,-11790 28340,-11790 11045,0 21065,4514 28324,11773 7275,7275 11789,17295 11789,28340l0 94793z"/>
     <path class="fil3" d="M1280714 1901188l68965 0c2613,-18089 10351,-71644 10351,-87534 0,-12434 -5093,-23727 -13277,-31911 -8185,-8185 -19478,-13278 -31912,-13278 -12417,0 -23727,5093 -31912,13278 -8184,8201 -13277,19494 -13277,31911 0,17874 6432,67974 8813,87534l2249 0zm64584 -5060l-62352 0 -8218 -82623c33,-10979 4547,-20949 11773,-28191 7275,-7259 17311,-11773 28340,-11773 11029,0 21065,4514 28324,11790 7242,7225 11756,17212 11789,28174l-9656 82623z"/>
     <path class="fil3" d="M1314461 1939482c2348,0 4497,-959 6035,-2513 1538,-1538 2497,-3671 2497,-6035 0,-2365 -959,-4498 -2497,-6036 -1538,-1537 -3687,-2496 -6035,-2496 -2365,0 -4498,959 -6035,2496 -1555,1538 -2514,3688 -2514,6036 0,2364 959,4497 2514,6035 1537,1554 3687,2513 6035,2513z"/>
    </g>
    <g>
     <path class="fil3" d="M855529 1838737l-27745 0c-16006,0 -30572,6548 -41121,17113 -10549,10549 -17114,25100 -17114,41122l0 42824c0,4233 1736,8085 4531,10880 2794,2794 6647,4530 10879,4530l113378 0c4232,0 8085,-1736 10879,-4530 2795,-2778 4531,-6647 4531,-10880l0 -42824c0,-16006 -6548,-30573 -17097,-41122 -10549,-10565 -25116,-17113 -41121,-17113zm-27745 5539l27745 0c14484,0 27645,5936 37202,15493 9541,9540 15477,22718 15477,37203l0 42824c0,2712 -1108,5175 -2894,6961 -1786,1786 -4266,2894 -6977,2894l-113378 0c-2695,0 -5175,-1108 -6961,-2894 -1785,-1786 -2893,-4249 -2893,-6961l0 -42824c0,-14485 5919,-27663 15476,-37203 9541,-9557 22719,-15493 37203,-15493z"/>
     <path class="fil3" d="M855529 1855321c11425,0 21842,4696 29382,12252 7556,7557 12252,17973 12252,29399l0 16683 -111013 0 0 -16683c0,-11442 4696,-21842 12235,-29399 7557,-7556 17974,-12252 29399,-12252l27745 0zm33300 8334c-8548,-8549 -20337,-13873 -33300,-13873l-27745 0c-12947,0 -24752,5324 -33317,13873 -8549,8548 -13873,20354 -13873,33317l0 17857c0,1207 513,2298 1290,3075 794,794 1885,1290 3075,1290l113378 0c1190,0 2281,-496 3059,-1290 810,-810 1306,-1901 1306,-3075l0 -17857c0,-12963 -5308,-24769 -13873,-33317z"/>
     <path class="fil2" d="M836944 1923824c-3175,1686 -5341,5026 -5341,8879 0,5555 4498,10069 10053,10069 5556,0 10053,-4514 10053,-10069 0,-3853 -2166,-7193 -5357,-8879l0 -23694 -9408 0 0 23694z"/>
     <path class="fil2" d="M841656 1866135c-6233,0 -11293,5043 -11293,11276 0,6234 5060,11293 11293,11293 6234,0 11277,-5059 11277,-11293 0,-6233 -5043,-11276 -11277,-11276zm0 4398c-3803,0 -6878,3075 -6878,6878 0,3803 3075,6879 6878,6879 3803,0 6879,-3076 6879,-6879 0,-3803 -3076,-6878 -6879,-6878z"/>
    </g>
    <g>
     <path class="fil3" d="M1140650 1952081l-169148 0 0 -122008 171926 0 0 122008 -2778 0zm-163609 -5539l160831 0 0 -110913 -160831 0 0 110913z"/>
     <path class="fil3" d="M1140650 1856760l-169148 0 0 -26687 171926 0 0 26687 -2778 0zm-163609 -5539l160831 0 0 -15592 -160831 0 0 15592z"/>
     <path class="fil3" d="M1057465 1943351c-11690,0 -22272,-4745 -29944,-12417 -7689,-7689 -12418,-18271 -12418,-29961 0,-11673 4729,-22272 12401,-29944 7689,-7672 18271,-12417 29961,-12417 11673,0 22272,4745 29944,12417 7672,7672 12417,18271 12417,29944 0,11690 -4745,22272 -12417,29944 -7672,7689 -18271,12434 -29944,12434zm-26042 -16336c6663,6663 15857,10780 26042,10780 10169,0 19378,-4117 26025,-10764 6664,-6663 10781,-15873 10781,-26058 0,-10169 -4117,-19378 -10764,-26025 -6664,-6664 -15873,-10781 -26042,-10781 -10185,0 -19379,4117 -26042,10764 -6663,6664 -10781,15873 -10781,26042 0,10185 4118,19395 10781,26042z"/>
     <path class="fil3" d="M1057465 1928123c-7507,0 -14286,-3026 -19197,-7953 -4927,-4911 -7953,-11690 -7953,-19197 0,-7490 3026,-14269 7953,-19197 4911,-4910 11690,-7953 19197,-7953 7490,0 14286,3043 19196,7953 4911,4928 7953,11707 7953,19197 0,7507 -3042,14286 -7953,19197 -4910,4927 -11706,7953 -19196,7953zm-15278 -11872c3902,3919 9309,6333 15278,6333 5952,0 11359,-2414 15278,-6333 3902,-3902 6316,-9309 6316,-15278 0,-5952 -2414,-11359 -6316,-15278 -3919,-3902 -9326,-6316 -15278,-6316 -5969,0 -11376,2414 -15278,6316 -3919,3919 -6333,9326 -6333,15278 0,5969 2414,11376 6333,15278z"/>
     <path class="fil2" d="M1126331 1849815c-3142,0 -5704,-2546 -5704,-5704 0,-3158 2562,-5721 5704,-5721 3158,0 5721,2563 5721,5721 0,3158 -2563,5704 -5721,5704z"/>
     <path class="fil2" d="M986118 1849815c-3158,0 -5721,-2546 -5721,-5704 0,-3158 2563,-5721 5721,-5721 3158,0 5705,2563 5705,5721 0,3158 -2547,5704 -5705,5704z"/>
     <path class="fil2" d="M1004654 1849815c-3159,0 -5721,-2546 -5721,-5704 0,-3158 2562,-5721 5721,-5721 3141,0 5704,2563 5704,5721 0,3158 -2563,5704 -5704,5704z"/>
    </g>
    <g>
     <path class="fil3" d="M2323049 1783098l-105539 0c-5688,0 -10863,2332 -14600,6069 -3737,3736 -6068,8912 -6068,14600l0 151257 144197 0 0 -153936c0,-4944 -2034,-9458 -5291,-12715 -3257,-3257 -7755,-5275 -12699,-5275zm-105539 5539l105539 0c3423,0 6532,1406 8780,3671 2266,2249 3671,5357 3671,8780l0 148397 -133103 0 0 -145718c0,-4151 1703,-7937 4431,-10682 2745,-2744 6532,-4448 10682,-4448z"/>
     <polygon class="fil3" points="2338261,1803122 2199619,1803122 2199619,1808661 2338261,1808661 "/>
     <path class="fil2" d="M2302001 1821359c-12219,0 -22123,9904 -22123,22123 0,12219 9904,22124 22123,22124 12219,0 22123,-9905 22123,-22124 0,-12219 -9904,-22123 -22123,-22123z"/>
     <path class="fil2" d="M2240145 1828238c-8416,0 -15244,6828 -15244,15244 0,8417 6828,15245 15244,15245 8433,0 15262,-6828 15262,-15245 0,-8416 -6829,-15244 -15262,-15244z"/>
     <path class="fil2" d="M2240145 1889862c12219,0 22140,9920 22140,22139 0,12219 -9921,22124 -22140,22124 -12219,0 -22123,-9905 -22123,-22124 0,-12219 9904,-22139 22123,-22139z"/>
     <path class="fil2" d="M2302001 1896740c8416,0 15245,6829 15245,15261 0,8417 -6829,15245 -15245,15245 -8433,0 -15261,-6828 -15261,-15245 0,-8432 6828,-15261 15261,-15261z"/>
    </g>
    <g>
     <path class="fil3" d="M1830486 1797087l-112104 0c-4414,0 -8416,1818 -11326,4712 -2910,2910 -4729,6928 -4729,11343l0 112104c0,4414 1819,8432 4713,11326 2910,2910 6928,4712 11342,4712l112104 0c4415,0 8433,-1802 11343,-4712 2894,-2894 4696,-6912 4696,-11326l0 -112104c0,-4415 -1802,-8433 -4696,-11343 -2927,-2894 -6928,-4712 -11343,-4712zm-112104 5555l112104 0c2894,0 5523,1174 7424,3076 1885,1901 3076,4530 3076,7424l0 112104c0,2877 -1191,5506 -3092,7407 -1902,1902 -4514,3092 -7408,3092l-112104 0c-2893,0 -5522,-1190 -7424,-3092 -1901,-1901 -3075,-4530 -3075,-7407l0 -112104c0,-2894 1174,-5523 3075,-7424 1902,-1902 4531,-3076 7424,-3076z"/>
     <path class="fil3" d="M1818565 1807983l-88261 0c-4696,0 -8979,1918 -12070,5010 -3092,3092 -5010,7374 -5010,12070l0 60533c0,4696 1918,8962 5010,12054 3091,3091 7374,5026 12070,5026l88261 0c4696,0 8962,-1935 12070,-5026 3092,-3092 5010,-7358 5010,-12054l0 -60533c0,-4696 -1918,-8978 -5010,-12070 -3108,-3092 -7391,-5010 -12070,-5010zm-88261 5539l88261 0c3175,0 6052,1290 8135,3389 2100,2100 3406,4977 3406,8152l0 60533c0,3158 -1306,6051 -3406,8135 -2083,2100 -4977,3389 -8135,3389l-88261 0c-3175,0 -6052,-1289 -8152,-3389 -2083,-2084 -3389,-4977 -3389,-8135l0 -60533c0,-3175 1306,-6052 3389,-8152 2100,-2083 4977,-3389 8152,-3389z"/>
     <path class="fil2" d="M1769722 1909025c-3175,1687 -5341,5027 -5341,8879 0,5556 4498,10070 10053,10070 5556,0 10053,-4514 10053,-10070 0,-3852 -2166,-7192 -5340,-8879l0 -23694 -9425 0 0 23694z"/>
     <path class="fil2" d="M1774434 1839183c-6233,0 -11276,5044 -11276,11277 0,6234 5043,11277 11276,11277 6234,0 11277,-5043 11277,-11277 0,-6233 -5043,-11277 -11277,-11277zm0 4399c-3803,0 -6878,3075 -6878,6878 0,3803 3075,6878 6878,6878 3803,0 6879,-3075 6879,-6878 0,-3803 -3076,-6878 -6879,-6878z"/>
    </g>
   </g>
  </g>
 </g>
</svg>
