<?xml version="1.0" encoding="utf-8"?>
<!-- Generator: Adobe Illustrator 21.1.0, SVG Export Plug-In . SVG Version: 6.00 Build 0)  -->
<svg version="1.1" id="Слой_1" xmlns="http://www.w3.org/2000/svg" xmlns:xlink="http://www.w3.org/1999/xlink" x="0px" y="0px"
	 viewBox="0 0 370 277" style="enable-background:new 0 0 370 277;" xml:space="preserve">
<style type="text/css">
	.st0{fill:#C7F5CB;}
	.st1{fill:#FFFFFF;}
	.st2{fill:#5B5B5B;}
</style>
<g id="Слой_x0020_1">
	<g id="_880115472">
		<polygon class="st0" points="66.319,18.97 66.319,116.411 47.35,128.132 6.107,128.132 6.107,266.699 47.35,266.699 
			55.003,272.24 307.907,276.487 344.019,276.487 360.567,267.469 360.567,18.97 324.621,18.97 151.197,18.97 		"/>
		<path class="st1" d="M127.042,204.567h13.727l-1.517-1.649l1.517-9.054h-13.727l1.517,9.054
			C128.559,202.919,127.042,204.567,127.042,204.567z M102.173,193.849h5.417l-1.641,7.121l-2.034,0.942l12.683,5.253l-0.771-2.103
			l4.867-7.785l-8.277-3.428h31.314c2.135,0,3.881-1.747,3.881-3.882v-2.793l7.669-2.997l1.925,1.147l-2.815-13.434l-1.303,1.823
			l-5.476,0.221v-4.658c0-2.135-1.745-3.882-3.881-3.882h-41.558c-2.135,0-3.88,1.747-3.88,3.882v4.043l-6.195,1.038l-1.649-1.517
			v13.727l1.649-1.517l6.195,1.038v3.879C98.292,192.102,100.038,193.849,102.173,193.849L102.173,193.849z M92.214,77.997
			c1.473,0,1.473,2.776,0,2.776v0.022v20.084c1.873,0.265,1.616,2.944-0.543,2.806H75.835c-4.459,0-8.107-3.827-8.107-8.507v-9.441
			c0-4.261,3.322-7.747,7.383-7.747L92.214,77.997z M148.745,44.775c0,1.471,2.776,1.471,2.776,0h0.022h20.085
			c0.263,1.873,2.943,1.615,2.805-0.543V28.395c0-4.459-3.827-8.107-8.506-8.107h-9.443c-4.261,0-7.747,3.322-7.747,7.382
			L148.745,44.775L148.745,44.775z M109.246,81.26h30.351V60.395h-30.351C109.246,60.395,109.246,81.26,109.246,81.26z
			 M72.767,47.514v-1.235h0.007h0.174c0.427,1.181,1.562,2.03,2.886,2.03c-1.688,0-3.067,1.379-3.067,3.067v-2.272
			c0-0.43-0.313-0.784-0.698-0.795C72.454,48.298,72.767,47.945,72.767,47.514z M90.717,25.07h2.415
			c0.326,0,0.594-0.296,0.594-0.658v-3.179c0-0.363-0.268-0.658-0.594-0.658h-20.5c-0.13-0.201-0.344-0.333-0.582-0.333h-3.466
			c-0.394,0-0.717,0.358-0.717,0.795v26.477c0,0.431,0.313,0.784,0.698,0.795c-0.385,0.011-0.698,0.365-0.698,0.795v26.477
			c0,0.437,0.322,0.795,0.717,0.795h3.466c0.239,0,0.452-0.131,0.582-0.333h20.5c0.326,0,0.594-0.295,0.594-0.657v-3.18
			c0-0.361-0.268-0.658-0.594-0.658h-2.474c1.688,0,3.067-1.379,3.067-3.067V51.376c0-1.688-1.379-3.067-3.067-3.067
			c1.688,0,3.067-1.379,3.067-3.067v-1.17c0.077-0.261,0.119-0.536,0.123-0.82c0.021,1.67,1.391,3.027,3.066,3.027h18.005
			c1.688,0,3.067-1.379,3.067-3.067V28.388c0-1.688-1.379-3.067-3.067-3.067h2.35c0.389,0,0.706-0.313,0.717-0.698
			c0.012,0.385,0.379,0.698,0.827,0.698h2.24c-1.688,0-3.066,1.379-3.066,3.067v14.824c0,1.688,1.378,3.067,3.066,3.067h18.007
			c1.662,0,3.023-1.337,3.066-2.988v2.377c0,0.337,0.318,0.612,0.704,0.612h3.403c0.387,0,0.704-0.275,0.704-0.612V25.228
			c0.249-0.124,0.418-0.357,0.418-0.624v-3.466c0-0.394-0.371-0.717-0.825-0.717h-27.716c-0.448,0-0.815,0.313-0.827,0.698
			c-0.011-0.385-0.328-0.698-0.717-0.698H94.563c-0.394,0-0.717,0.322-0.717,0.717v3.466c0,0.394,0.322,0.717,0.717,0.717h2.35
			c-1.675,0-3.044,1.358-3.066,3.028c-0.007-0.513-0.141-0.997-0.372-1.421C93.011,25.854,91.951,25.093,90.717,25.07z
			 M67.346,137.772h122.727v22.029H67.346V137.772z M337.791,159.797v-55.072h22.029v55.072H337.791z M241.342,152.89h-0.36v6.545
			h37.16v-6.545V77.014h-36.8V152.89L241.342,152.89z M274.353,47.084h-2.11h-0.001c-0.546,4.304-4.147,7.655-8.563,7.808v11.924
			h-22.763V25.084h22.763v11.924c4.419,0.165,8.018,3.499,8.563,7.807h0.001h2.11c-0.338-3.402-2.174-6.363-4.839-8.213v-3.024
			c4.241,2.492,7.087,7.1,7.087,12.372c0,5.274-2.846,9.881-7.087,12.372v-3.023C272.17,53.468,274.022,50.501,274.353,47.084z
			 M359.804,26.523h0.36v-6.545h-37.16v6.545v75.878h36.8V26.523z M222.055,129.286V45.339h12.766v83.947H222.055z M66.698,243.946
			H89.84v23.523H66.319v-23.523H66.698z M112.398,243.946h14.438c0.514,0,0.994,0.138,1.411,0.38h70.435v22.762h-69.019v0.38
			h-19.727v-0.38H90.929v-22.762h20.158C111.468,244.085,111.918,243.946,112.398,243.946z M228.313,229.216v-23.142h16.077h3.651
			v23.522h-3.651h-16.077V229.216z M246.284,267.583h-13.311v-5.252c0-0.28,0.115-0.535,0.299-0.719
			c0.061-0.061,0.131-0.116,0.208-0.161v-13.108v-0.08l0.001-0.079l0.002-0.079l0.004-0.078l0.005-0.079l0.006-0.078l0,0
			l0.006-0.078v-0.001l0.008-0.077l0,0l0.008-0.078l0,0l0.009-0.077v-0.001l0.011-0.076v-0.001l0.011-0.076v-0.001l0.013-0.076l0,0
			l0.013-0.076v-0.001l0.014-0.074v-0.001l0.014-0.074l0.001-0.001l0.015-0.074l0,0l0.017-0.074v-0.001l0.018-0.073v-0.001
			l0.019-0.073l0,0l0.02-0.073v-0.001l0.041-0.145v-0.001l0.022-0.071v-0.001l0.022-0.072l0.001-0.001l0.024-0.07v-0.002l0.05-0.141
			l0.001-0.001l0.026-0.07v-0.001l0.027-0.068v-0.002l0.028-0.068v-0.001l0.028-0.068l0.001-0.001l0.03-0.067v-0.001
			c0.031-0.068,0.061-0.137,0.093-0.203l0.001-0.001l0.033-0.066v-0.001c0.066-0.133,0.138-0.266,0.214-0.392l0.001-0.002
			c0.266-0.449,0.587-0.862,0.955-1.231c0.542-0.542,1.184-0.985,1.897-1.298h0.001c0.137-0.06,0.278-0.116,0.42-0.166l0.071-0.025
			l0,0l0.071-0.024h0.001l0.072-0.024h0.001l0.071-0.022h0.001l0.072-0.021h0.001l0.072-0.02h0.001l0.073-0.02l0,0l0.073-0.018
			h0.001l0.073-0.019h0.001l0.074-0.017l0,0l0.074-0.015l0.001-0.001l0.074-0.014h0.001l0.074-0.014h0.001l0.076-0.013l0,0
			l0.076-0.012h0.001l0.076-0.012h0.001l0.077-0.011l0,0l0.077-0.009l0,0l0.078-0.008l0,0l0.078-0.007l0,0l0.078-0.007l0,0
			l0.078-0.006l0.079-0.004l0.079-0.004l0.078-0.004l0.079-0.001h0.08h0.079l0.08,0.001l0.078,0.004l0.079,0.004l0.079,0.004
			l0.078,0.006l0,0l0.078,0.007l0,0l0.078,0.007l0,0l0.077,0.008h0.001l0.077,0.009l0,0l0.077,0.011h0.001l0.076,0.012l0,0
			l0.077,0.012l0,0l0.076,0.013h0.001l0.074,0.014h0.001l0.074,0.014l0.001,0.001l0.074,0.015l0,0l0.074,0.017h0.001l0.073,0.019
			h0.001l0.073,0.018l0,0l0.073,0.02h0.001l0.072,0.02h0.001l0.072,0.021h0.001l0.072,0.022l0,0l0.072,0.024h0.001l0.071,0.024l0,0
			l0.071,0.025l0.071,0.026h0.001l0.07,0.026h0.001l0.07,0.027h0.001c0.116,0.047,0.231,0.097,0.344,0.149l0.001,0.001l0.066,0.032
			h0.002c0.629,0.305,1.202,0.713,1.691,1.203c0.228,0.228,0.437,0.474,0.627,0.733h0.001c0.087,0.12,0.171,0.243,0.25,0.371l0,0
			l0.039,0.064l0,0l0.076,0.129l0.038,0.064v0.001l0.035,0.065l0,0l0.035,0.066l0,0l0.035,0.066l0,0l0.033,0.066v0.001l0.033,0.066
			v0.001l0.033,0.067l0,0l0.031,0.067v0.001l0.031,0.067v0.001l0.03,0.068l0,0l0.03,0.07l0,0l0.028,0.07l0,0l0.027,0.071l0,0
			l0.027,0.07v0.001l0.025,0.071l0,0l0.025,0.071v0.001l0.025,0.071l0,0l0.022,0.072v0.001l0.022,0.072l0,0l0.021,0.073l0,0
			l0.02,0.073l0,0l0.02,0.073l0,0l0.019,0.074l0,0l0.018,0.074l0,0l0.017,0.074l0,0l0.017,0.076l0,0l0.014,0.076l0,0l0.014,0.076
			l0,0l0.014,0.076l0,0l0.012,0.077l0,0l0.012,0.077l0,0l0.009,0.077h0.001l0.008,0.077l0.008,0.078h0.001l0.007,0.078l0.006,0.078
			l0.006,0.078l0.005,0.079l0.004,0.078l0.002,0.079l0.001,0.079l0.001,0.08v13.024c0.174,0.057,0.328,0.154,0.455,0.279
			c0.205,0.205,0.333,0.489,0.333,0.802v5.135L246.284,267.583L246.284,267.583z M260.418,251.791h3.794
			c2.189,0,4.182,0.898,5.626,2.341s2.341,3.435,2.341,5.627v5.859c0,0.579-0.237,1.107-0.62,1.488
			c-0.38,0.383-0.908,0.62-1.488,0.62H254.56c-0.58,0-1.107-0.237-1.488-0.619c-0.384-0.381-0.62-0.909-0.62-1.489v-5.859
			c0-2.191,0.896-4.183,2.339-5.626C256.234,252.687,258.227,251.791,260.418,251.791L260.418,251.791z M277.746,210.017h26.937
			v57.667h-27.316v-57.667H277.746z"/>
		<path class="st2" d="M78.47,251.308v0.822l0.757-0.648l0.491,0.575l-1.248,1.07v1.684l1.096-1.096l0.306-1.789l0.746,0.128
			l-0.126,0.735l0.416-0.416l0.537,0.537l-0.518,0.517l1.007-0.092l0.067,0.753l-1.91,0.174l-1.107,1.107h1.552l1.481-1.05
			l0.439,0.616l-0.612,0.433h0.589v0.756h-0.733l0.778,0.648l-0.483,0.581l-1.476-1.229h-1.469l1.071,1.071l1.789,0.305
			l-0.128,0.746l-0.736-0.125l0.416,0.416l-0.536,0.536l-0.518-0.517l0.092,1.006l-0.753,0.068l-0.174-1.91l-1.104-1.105v1.554
			l1.047,1.479l-0.616,0.436l-0.431-0.608v0.588h-0.759v-0.732l-0.646,0.776l-0.582-0.483l1.228-1.474v-1.508l-1.192,1.192
			l-0.086,1.623l-0.756-0.039l0.041-0.784l-0.465,0.466l-0.536-0.536l0.58-0.581l-0.992-0.077l0.057-0.756l1.641,0.126l1.154-1.153
			h-1.685l-1.209,1.089l-0.508-0.563l0.585-0.526h-0.659v-0.756h0.823l-0.651-0.759l0.575-0.491l1.071,1.251h1.724l-1.221-1.221
			l-1.623-0.085l0.039-0.756l0.784,0.041l-0.466-0.466l0.537-0.536l0.58,0.581l0.077-0.992l0.756,0.056l-0.126,1.643l1.151,1.151
			v-1.685l-1.086-1.208l0.563-0.507l0.523,0.582v-0.658L78.47,251.308L78.47,251.308z M127.905,204.187h11.999l-0.818-0.889h-10.361
			C128.724,203.298,127.905,204.187,127.905,204.187z M140.769,204.946h-14.591l1.978-2.148l-1.437-8.57H114.32l6.931,2.871
			l-5.005,8.005l1.004,2.742l-0.797-0.331l-13.48-5.583l2.648-1.227l1.494-6.477h-4.94c-1.171,0-2.238-0.479-3.01-1.252
			c-0.772-0.771-1.252-1.837-1.252-3.01v-3.558l-5.694-0.954l-2.148,1.978v-14.591v-0.863l2.148,1.978l5.694-0.954v-3.723
			c0-1.171,0.479-2.238,1.252-3.01c0.772-0.772,1.839-1.252,3.01-1.252h41.555c1.173,0,2.238,0.479,3.01,1.252
			c0.772,0.772,1.252,1.839,1.252,3.01v4.263l4.895-0.198l1.698-2.376l0.177,0.846l2.992,14.28l-2.509-1.495l-7.253,2.837v2.533
			c0,1.173-0.479,2.239-1.252,3.01c-0.772,0.772-1.838,1.252-3.01,1.252h-2.637l-1.437,8.57l1.977,2.148H140.769z M140.321,194.243
			h-12.832l1.39,8.296h10.052L140.321,194.243z M107.891,194.228h4.447l7.796,3.229l-4.459,7.132l-9.287-3.846L107.891,194.228
			L107.891,194.228z M147.991,186.619v-12.322l4.79-0.194h0.001l2.061,9.837L147.991,186.619L147.991,186.619z M97.912,173.768
			v11.874l-5.436-0.912v-10.051L97.912,173.768z M143.729,193.47h-31.24l-4.334-1.795l-0.413-0.171l-0.453,1.966h-5.115
			c-0.962,0-1.839-0.394-2.474-1.03c-0.634-0.634-1.029-1.51-1.029-2.474v-3.431l2.859,0.479v-0.448v-14.173l-2.859,0.479v-3.596
			c0-0.962,0.394-1.839,1.029-2.474c0.635-0.634,1.512-1.029,2.474-1.029h41.555c0.962,0,1.839,0.394,2.474,1.029
			c0.634,0.635,1.03,1.512,1.03,2.474v4.294l-3.781,0.152l2.907,13.873l0.092,0.438l0.782-0.306v2.237
			c0,0.964-0.396,1.84-1.03,2.474C145.568,193.076,144.692,193.47,143.729,193.47L143.729,193.47z M110.508,193.47h-2.442
			l0.213-0.923L110.508,193.47z M98.671,185.769V173.64l2.1-0.352v12.833L98.671,185.769z M147.233,174.328v12.587l-0.223,0.087
			l-2.632-12.559L147.233,174.328L147.233,174.328z M104.858,201.892l11.086,4.591l-0.417-1.135l-9.573-3.964L104.858,201.892z
			 M156.657,184.556l-2.461-11.744l-0.703,0.985l2.124,10.141L156.657,184.556L156.657,184.556z M90.828,185.704v-11.999l0.89,0.82
			v10.36L90.828,185.704z M76.84,80.728c-1.284,1.376-2.211,2.885-2.868,4.491c-0.622,1.519-1.005,3.129-1.221,4.803
			c0.58,0.061,1.085,0.178,1.533,0.334v-3.505c0-1.783,0.694-3.405,1.814-4.58c0.704-0.738,1.575-1.3,2.547-1.616
			C78.071,80.614,77.469,80.641,76.84,80.728z M75.099,90.709c0.773,0.405,1.359,0.921,1.9,1.397
			c0.637,0.563,1.205,1.063,1.954,1.188c0.203-1.669,0.573-3.312,1.218-4.914c0.666-1.652,1.625-3.255,2.992-4.785
			c-0.642-1.137-1.44-1.906-2.361-2.371H80.46c-1.474,0-2.814,0.634-3.786,1.653c-0.972,1.02-1.575,2.427-1.575,3.974V90.709z
			 M73.221,84.88c0.712-1.738,1.725-3.37,3.138-4.857l0.097-0.102l0.136-0.02c1.577-0.234,3.018-0.135,4.275,0.416l0.113,0.051
			h10.827v-0.022h0.407c0.325,0,0.536-0.231,0.632-0.529c0.043-0.131,0.064-0.28,0.064-0.431c0-0.15-0.021-0.298-0.064-0.431
			c-0.094-0.298-0.307-0.529-0.632-0.529l-17.103-0.008c-1.919,0.001-3.663,0.824-4.926,2.15c-1.264,1.329-2.049,3.158-2.049,5.17
			v9.441c0,2.221,0.867,4.242,2.261,5.706c1.395,1.464,3.32,2.374,5.437,2.374l15.86,0.001c0.619,0.039,1.027-0.196,1.226-0.521
			c0.076-0.124,0.122-0.265,0.137-0.405c0.014-0.138-0.001-0.28-0.047-0.41c-0.103-0.296-0.374-0.544-0.82-0.615H81.027
			c-1.855,0-3.542-0.796-4.764-2.078c-1.222-1.282-1.98-3.051-1.98-4.999v-2.961c-0.555-0.229-1.21-0.39-2.01-0.431l-0.436-0.022
			l0.051-0.452C72.101,88.454,72.512,86.613,73.221,84.88z M82.311,81.224c0.653,0.56,1.228,1.297,1.714,2.233l0.143,0.276
			l-0.209,0.226c-1.406,1.52-2.376,3.112-3.037,4.753c-0.662,1.645-1.021,3.349-1.205,5.085l-0.039,0.381l-0.365-0.002
			c-1.232-0.002-1.982-0.661-2.835-1.415c-0.409-0.359-0.844-0.742-1.378-1.072v2.543c0,1.71,0.667,3.265,1.742,4.393
			c1.073,1.128,2.557,1.828,4.186,1.828h10.779V81.224H82.311z M92.214,77.57c0.735-0.001,1.202,0.487,1.403,1.11
			c0.073,0.226,0.11,0.468,0.11,0.705c0,0.237-0.037,0.478-0.11,0.704c-0.161,0.501-0.491,0.913-0.994,1.058v19.39
			c0.598,0.187,0.981,0.605,1.153,1.092c0.09,0.254,0.119,0.529,0.091,0.798c-0.028,0.268-0.116,0.533-0.261,0.77
			c-0.34,0.559-0.993,0.97-1.934,0.918H75.835c-2.341,0-4.47-1.006-6.012-2.624c-1.545-1.619-2.502-3.853-2.502-6.312v-9.441
			c0-2.248,0.876-4.293,2.287-5.774c1.414-1.481,3.362-2.402,5.503-2.402L92.214,77.57z M151.475,29.4
			c1.376-1.285,2.885-2.211,4.491-2.87c1.52-0.622,3.131-1.004,4.803-1.22c0.06,0.579,0.178,1.084,0.334,1.532h-3.505
			c-1.783,0-3.405,0.696-4.58,1.815c-0.738,0.704-1.3,1.575-1.616,2.547C151.362,30.632,151.389,30.03,151.475,29.4L151.475,29.4z
			 M161.456,27.659c0.405,0.774,0.921,1.359,1.397,1.9c0.563,0.635,1.063,1.205,1.188,1.954c-1.669,0.203-3.312,0.573-4.914,1.218
			c-1.652,0.666-3.255,1.625-4.785,2.992c-1.137-0.642-1.906-1.44-2.371-2.362v-0.341c0-1.474,0.634-2.815,1.653-3.786
			c1.02-0.972,2.427-1.575,3.974-1.575H161.456z M155.627,25.782c-1.738,0.712-3.37,1.724-4.857,3.138l-0.1,0.097l-0.021,0.136
			c-0.234,1.577-0.135,3.018,0.416,4.275l0.051,0.113v10.825h-0.021v0.409c0,0.324-0.233,0.536-0.53,0.632
			c-0.131,0.043-0.28,0.064-0.431,0.064c-0.15,0-0.298-0.021-0.431-0.064c-0.296-0.096-0.529-0.307-0.529-0.632l-0.008-17.104
			c0.002-1.918,0.825-3.662,2.15-4.924c1.329-1.264,3.158-2.049,5.17-2.049h9.443c2.22,0,4.241,0.867,5.705,2.261
			c1.464,1.395,2.374,3.32,2.374,5.437l0.001,15.86c0.04,0.619-0.196,1.027-0.521,1.225c-0.124,0.076-0.265,0.122-0.404,0.137
			c-0.139,0.015-0.281,0-0.411-0.046c-0.296-0.104-0.544-0.374-0.615-0.821V33.588c0-1.855-0.796-3.542-2.078-4.764
			c-1.282-1.222-3.051-1.982-4.999-1.982h-2.961c-0.229-0.556-0.39-1.21-0.431-2.009l-0.022-0.436l-0.452,0.051
			C159.202,24.66,157.361,25.072,155.627,25.782L155.627,25.782z M151.971,34.871c0.56,0.653,1.297,1.228,2.233,1.712l0.276,0.144
			l0.226-0.209c1.52-1.406,3.112-2.376,4.753-3.037c1.645-0.664,3.349-1.021,5.085-1.205l0.381-0.04l-0.001-0.365
			c-0.004-1.232-0.662-1.98-1.416-2.835c-0.359-0.407-0.742-0.843-1.072-1.377h2.543c1.71,0,3.266,0.667,4.393,1.742
			c1.128,1.073,1.828,2.557,1.828,4.186v10.778h-19.229V34.871z M148.317,44.775c-0.001,0.735,0.487,1.201,1.111,1.403
			c0.224,0.073,0.466,0.109,0.704,0.109c0.237,0,0.479-0.037,0.704-0.109c0.501-0.161,0.914-0.492,1.058-0.994h19.39
			c0.187,0.598,0.605,0.981,1.092,1.153c0.255,0.09,0.529,0.119,0.799,0.091c0.267-0.028,0.531-0.117,0.769-0.261
			c0.56-0.34,0.97-0.993,0.918-1.934V28.395c0-2.341-1.005-4.47-2.624-6.012c-1.619-1.545-3.853-2.504-6.311-2.504h-9.443
			c-2.248,0-4.293,0.877-5.773,2.289c-1.481,1.414-2.402,3.361-2.402,5.502L148.317,44.775L148.317,44.775z M109.246,81.64h30.731
			V60.015h-31.11V81.64H109.246z M139.218,80.881h-29.591V60.774h29.591V80.881z M73.219,21.98
			c-1.037,1.153-1.821,2.402-2.408,3.725c-0.123,0.084-0.24,0.175-0.351,0.27c-0.712,0.619-1.155,1.473-1.155,2.413v14.825
			c0,0.938,0.443,1.793,1.155,2.411c0.527,0.458,1.202,0.789,1.957,0.929v0.96c0,0.112-0.041,0.215-0.106,0.288
			c-0.063,0.068-0.148,0.113-0.242,0.119h-0.005H72.05h-3.466H68.57h-0.005c-0.094-0.006-0.18-0.051-0.241-0.118
			c-0.067-0.074-0.107-0.177-0.107-0.289V21.037c0-0.111,0.041-0.214,0.107-0.287c0.066-0.074,0.158-0.12,0.26-0.12h3.466
			c0.061,0,0.119,0.017,0.168,0.044c0.052,0.031,0.098,0.074,0.132,0.128l0.105,0.162h20.677c0.067,0,0.129,0.031,0.172,0.079
			c0.044,0.05,0.072,0.117,0.072,0.191v3.179c0,0.073-0.028,0.142-0.072,0.19c-0.044,0.05-0.105,0.08-0.172,0.08h-2.429h-0.044
			H79.568c-0.668-1.196-1.51-1.983-2.491-2.436c-1.076-0.497-2.31-0.587-3.66-0.376l-0.116,0.018L73.219,21.98z M70.11,31.797
			c1.009,0.124,1.725,0.496,2.308,0.928v12.182v0.015v0.015v0.015v0.015v0.867c-0.531-0.126-1.008-0.374-1.388-0.704
			c-0.568-0.492-0.92-1.173-0.92-1.919V31.797z M73.116,33.314l0.202,0.188c0.732,0.68,1.373,1.277,2.428,1.28h0.312l0.034-0.344
			c0.157-1.569,0.464-3.111,1.031-4.6c0.548-1.436,1.342-2.832,2.486-4.167h10.705c0.861,0,1.644,0.307,2.211,0.798
			c0.231,0.201,0.427,0.432,0.579,0.688c0.175,0.397,0.273,0.843,0.273,1.313V43.78c-0.129,0.521-0.431,0.988-0.85,1.352
			c-0.568,0.492-1.351,0.798-2.212,0.798H73.278c-0.099-0.305-0.156-0.632-0.162-0.972v-0.018v-0.017v-0.017V33.314z M71.175,26.679
			l0.188-0.462c0.312-0.204,0.668-0.359,1.055-0.451v2.656v0.048v3.338c-0.594-0.377-1.32-0.679-2.287-0.786
			C70.314,29.511,70.642,28.054,71.175,26.679z M71.85,25.194c0.477-0.903,1.063-1.764,1.78-2.576
			c1.183-0.17,2.256-0.085,3.179,0.342c0.732,0.338,1.379,0.897,1.921,1.722h-2.897h-0.021H75.79h-3.373v0.366
			C72.222,25.085,72.033,25.134,71.85,25.194z M78.669,25.671c-0.974,1.244-1.679,2.539-2.187,3.869
			c-0.553,1.448-0.869,2.935-1.043,4.443c-0.641-0.113-1.128-0.564-1.673-1.072c-0.205-0.191-0.419-0.391-0.65-0.585v-3.855v-0.039
			c0.009-0.814,0.314-1.552,0.798-2.089c0.26-0.288,0.572-0.518,0.918-0.672H78.669z M73.116,47.514v-0.318
			c0.093,0.136,0.196,0.266,0.305,0.387c0.266,0.294,0.573,0.538,0.913,0.725c-0.34,0.187-0.648,0.431-0.913,0.725
			c-0.109,0.12-0.211,0.25-0.305,0.386v-0.316c0-0.305-0.106-0.585-0.279-0.795C73.01,48.098,73.116,47.819,73.116,47.514z
			 M73.116,26.181v-0.508l0.124-0.002h0.299l-0.118,0.124C73.312,25.915,73.209,26.045,73.116,26.181z M92.722,25.457h0.41
			c0.211,0,0.405-0.078,0.563-0.209l0.11,0.109c0.223,0.194,0.53,0.314,0.867,0.314h0.329c-0.142,0.093-0.275,0.196-0.402,0.305
			c-0.305,0.265-0.56,0.573-0.752,0.913c-0.093-0.164-0.2-0.32-0.32-0.468c-0.132-0.226-0.285-0.436-0.456-0.625
			C92.962,25.674,92.845,25.561,92.722,25.457z M93.746,20.442c-0.164-0.158-0.38-0.254-0.614-0.254H72.788
			c-0.074-0.08-0.159-0.149-0.252-0.201c-0.149-0.084-0.314-0.132-0.487-0.132h-3.466c-0.293,0-0.56,0.135-0.752,0.348
			c-0.194,0.213-0.314,0.509-0.314,0.834v26.477c0,0.306,0.106,0.586,0.28,0.795c-0.174,0.211-0.28,0.491-0.28,0.795v26.477
			c0,0.324,0.12,0.62,0.313,0.834c0.194,0.215,0.461,0.348,0.753,0.348h3.466c0.172,0,0.338-0.048,0.484-0.131
			c0.094-0.053,0.18-0.122,0.254-0.202h20.344c0.26,0,0.496-0.117,0.666-0.306s0.276-0.451,0.276-0.738v-3.18
			c0-0.287-0.106-0.549-0.276-0.738s-0.406-0.306-0.666-0.306h-0.411c0.124-0.104,0.24-0.217,0.35-0.339
			c0.62-0.685,1.004-1.633,1.004-2.675V51.71c0-1.04-0.384-1.987-1.003-2.675c-0.266-0.294-0.574-0.541-0.914-0.726
			c0.339-0.187,0.647-0.431,0.913-0.725c0.59-0.653,0.967-1.542,1.001-2.527c0.152,0.205,0.329,0.396,0.528,0.568
			c0.713,0.62,1.697,1.005,2.78,1.005h17.074c1.081,0,2.065-0.385,2.778-1.004c0.306-0.266,0.563-0.574,0.756-0.914
			c0.194,0.34,0.448,0.648,0.752,0.913c0.713,0.62,1.697,1.005,2.78,1.005h17.074c1.081,0,2.065-0.385,2.778-1.004
			c0.126-0.11,0.244-0.227,0.353-0.351v0.393c0,0.265,0.124,0.505,0.325,0.679c0.2,0.174,0.476,0.282,0.781,0.282h3.403
			c0.305,0,0.581-0.109,0.782-0.282c0.2-0.174,0.325-0.415,0.325-0.679V25.404c0.099-0.076,0.183-0.165,0.25-0.265
			c0.107-0.157,0.168-0.34,0.168-0.535v-3.466c0-0.293-0.138-0.56-0.36-0.752c-0.223-0.194-0.531-0.314-0.868-0.314h-27.716
			c-0.319,0-0.609,0.106-0.828,0.279c-0.216-0.172-0.507-0.279-0.824-0.279H94.672c-0.337,0-0.644,0.12-0.866,0.313L93.746,20.442
			L93.746,20.442z M93.342,45.387c-0.093,0.638-0.37,1.21-0.764,1.649c-0.482,0.536-1.147,0.873-1.875,0.886h-0.008h-0.035H75.833
			h-0.035H75.79c-0.729-0.013-1.393-0.35-1.875-0.886c-0.113-0.125-0.216-0.261-0.308-0.406h16.708c1.081,0,2.065-0.385,2.778-1.004
			C93.179,45.55,93.263,45.47,93.342,45.387z M73.63,74.001c-1.099-1.245-1.893-2.61-2.455-4.062
			c-0.533-1.373-0.86-2.831-1.045-4.343c0.967-0.107,1.693-0.411,2.287-0.786v3.34v0.048v3.739h3.373h0.044h2.897
			c-0.542,0.824-1.189,1.384-1.921,1.723C75.885,74.085,74.813,74.171,73.63,74.001z M73.116,64.293
			c0.23-0.194,0.444-0.391,0.65-0.582c0.546-0.509,1.032-0.961,1.673-1.075c0.174,1.509,0.49,2.995,1.043,4.444
			c0.537,1.406,1.294,2.773,2.358,4.082h-3.007h-0.035c-0.732-0.011-1.399-0.348-1.884-0.886c-0.484-0.537-0.789-1.277-0.798-2.089
			v-0.039V64.293z M70.534,70.245c0.608,1.573,1.476,3.049,2.685,4.393l0.083,0.092l0.116,0.019c1.35,0.211,2.584,0.122,3.66-0.376
			c0.98-0.453,1.823-1.241,2.492-2.437h11.09h0.044h2.429c0.067,0,0.129,0.032,0.172,0.08c0.044,0.048,0.072,0.117,0.072,0.19v3.18
			c0,0.073-0.028,0.142-0.072,0.19c-0.044,0.048-0.105,0.079-0.172,0.079H72.455l-0.105,0.163c-0.034,0.052-0.08,0.097-0.133,0.126
			c-0.047,0.027-0.105,0.044-0.167,0.044h-3.466c-0.102,0-0.194-0.046-0.26-0.118c-0.067-0.074-0.107-0.177-0.107-0.289V49.104
			c0-0.112,0.04-0.214,0.106-0.287c0.063-0.07,0.148-0.115,0.242-0.12h0.005h0.014h3.466h0.014h0.005
			c0.093,0.006,0.179,0.051,0.241,0.118c0.066,0.076,0.107,0.177,0.107,0.289v2.558v0.048v12.184
			c-0.654,0.487-1.48,0.894-2.696,0.961l-0.373,0.021l0.044,0.409C69.573,67.012,69.925,68.678,70.534,70.245z M79.797,71.162
			l-0.073-0.084c-1.205-1.373-2.035-2.814-2.6-4.299c-0.567-1.488-0.874-3.029-1.031-4.599l-0.034-0.345l-0.312,0.001
			c-1.055,0.002-1.696,0.599-2.427,1.28l-0.203,0.188V51.71v-0.039c0.009-0.812,0.314-1.552,0.798-2.089
			c0.483-0.535,1.147-0.873,1.875-0.886h0.008h0.035h14.825h0.035h0.008c0.729,0.013,1.392,0.35,1.875,0.885
			c0.492,0.547,0.798,1.3,0.798,2.129v16.438c0,0.828-0.307,1.582-0.798,2.128c-0.484,0.539-1.151,0.875-1.884,0.886h-0.035H79.797z
			 M73.116,71.162v-0.725c0.093,0.136,0.196,0.266,0.305,0.386c0.11,0.122,0.227,0.235,0.35,0.339H73.116z M144.802,26.046
			c-1.396-1.209-2.929-2.076-4.563-2.685c-1.627-0.608-3.357-0.96-5.151-1.142l-0.425-0.043l-0.021,0.373
			c-0.061,1.053-0.387,1.814-0.802,2.423h-12.321h-0.051h-2.656c-0.116,0-0.223-0.043-0.299-0.109
			c-0.073-0.061-0.119-0.146-0.125-0.241v-0.005v-0.014v-3.466v-0.014V21.12c0.006-0.093,0.052-0.179,0.123-0.24
			c0.078-0.067,0.185-0.109,0.301-0.109h27.716c0.117,0,0.223,0.041,0.299,0.106c0.077,0.067,0.125,0.159,0.125,0.261v3.466
			c0,0.067-0.021,0.13-0.057,0.183c-0.038,0.058-0.093,0.105-0.158,0.137l-0.204,0.102v20.642c0,0.072-0.034,0.138-0.089,0.185
			c-0.054,0.047-0.13,0.077-0.213,0.077h-3.403c-0.081,0-0.158-0.03-0.213-0.077c-0.054-0.047-0.089-0.113-0.089-0.185v-2.411
			v-0.044V32.082c0.949-0.611,1.599-1.344,1.999-2.178c0.516-1.076,0.609-2.31,0.39-3.66l-0.019-0.116L144.802,26.046
			L144.802,26.046z M133.284,25.671c-0.15,0.167-0.301,0.322-0.449,0.475c-0.707,0.732-1.326,1.373-1.33,2.428v0.313l0.358,0.034
			c1.63,0.156,3.231,0.463,4.777,1.03c1.541,0.567,3.037,1.396,4.465,2.6l0.211,0.179l0.26-0.124l0.146-0.071v10.678v0.035
			c-0.011,0.732-0.36,1.399-0.919,1.884c-0.568,0.492-1.351,0.798-2.212,0.798h-17.074c-0.861,0-1.644-0.306-2.211-0.798
			c-0.557-0.483-0.906-1.147-0.92-1.875v-0.008v-0.035V28.388v-0.035v-0.008c0.014-0.729,0.364-1.392,0.92-1.875
			c0.559-0.484,1.325-0.789,2.171-0.798h0.04H133.284L133.284,25.671z M139.921,24.002c0.719,0.268,1.417,0.589,2.091,0.971h-3.369
			h-0.051h-3.831c0.312-0.542,0.554-1.192,0.648-2.016C136.98,23.141,138.494,23.47,139.921,24.002L139.921,24.002z M142.527,25.279
			c0.556,0.347,1.095,0.738,1.613,1.179c0.177,1.183,0.087,2.257-0.355,3.18c-0.274,0.569-0.686,1.086-1.258,1.542v-2.792v-0.044
			V25.279z M141.723,31.721l-0.276,0.15c-1.437-1.171-2.943-1.991-4.496-2.561c-1.504-0.553-3.048-0.869-4.615-1.043
			c0.117-0.641,0.587-1.128,1.114-1.672c0.275-0.285,0.564-0.582,0.835-0.923h4.308h0.04c0.846,0.009,1.613,0.314,2.171,0.798
			c0.559,0.484,0.909,1.151,0.92,1.884v0.035V31.721z M116.831,25.671h0.328c0.319,0,0.608-0.106,0.827-0.279
			c0.217,0.172,0.507,0.279,0.825,0.279h0.328c-0.142,0.093-0.275,0.196-0.402,0.305c-0.305,0.265-0.559,0.573-0.752,0.913
			c-0.192-0.34-0.449-0.648-0.753-0.913C117.107,25.867,116.973,25.764,116.831,25.671z M117.16,24.973h-2.656h-0.051H97.379h-0.051
			h-2.657c-0.116,0-0.222-0.041-0.299-0.107c-0.077-0.067-0.124-0.159-0.124-0.261v-3.466c0-0.102,0.047-0.194,0.123-0.26
			c0.078-0.066,0.184-0.107,0.3-0.107h22.488c0.116,0,0.222,0.041,0.299,0.109c0.073,0.061,0.119,0.145,0.125,0.24v0.005v0.014
			v3.466v0.014v0.005c-0.006,0.094-0.053,0.178-0.125,0.241C117.382,24.93,117.275,24.973,117.16,24.973z M140.971,25.671h0.752
			v0.653c-0.107-0.123-0.226-0.24-0.351-0.348C141.246,25.867,141.112,25.764,140.971,25.671L140.971,25.671z M97.379,25.671h17.074
			h0.04c0.846,0.009,1.613,0.314,2.171,0.798c0.556,0.482,0.907,1.147,0.92,1.875v0.008v0.035v14.825v0.035v0.008
			c-0.013,0.729-0.363,1.393-0.919,1.875c-0.568,0.492-1.351,0.798-2.212,0.798H97.379c-0.861,0-1.644-0.306-2.211-0.798
			c-0.557-0.483-0.906-1.147-0.92-1.875v-0.008v-0.035V28.388v-0.035v-0.008c0.014-0.729,0.364-1.392,0.92-1.875
			c0.559-0.484,1.325-0.789,2.171-0.798H97.379z M359.735,259.358h-6.965v-2.041h6.965v-0.759h-6.965v-1.954l6.967-0.586
			l-0.057-0.756l-6.911,0.581v-1.765h6.965v-0.758h-6.965v-2.041h6.965v-0.758h-6.965v-1.956l6.967-0.586l-0.057-0.756l-6.911,0.581
			v-6.838l6.967-0.586l-0.057-0.756l-6.911,0.581v-3.778l6.352,2.408l0.242-0.712l-6.594-2.5v-1.196l6.352,2.408l0.242-0.711
			l-6.594-2.5v-4.34h6.965v-0.759h-6.965v-1.441h6.965v-0.758h-6.965v-8.439h6.965v-0.758h-6.965v-2.041h6.965v-0.759h-6.965v-1.24
			h6.965v-0.759h-6.965v-0.6h6.965v-0.759h-6.965v-2.039h6.965v-0.759h-6.965v-1.956l6.967-0.585l-0.057-0.756l-6.911,0.58v-6.838
			l6.967-0.585l-0.057-0.756l-6.911,0.58v-3.778l6.352,2.408l0.242-0.711l-6.594-2.5v-1.196l6.352,2.408l0.242-0.712l-6.594-2.499
			v-4.341h6.965v-0.758h-6.965v-1.441h6.965v-0.758h-6.965v-8.439h6.965v-0.759h-6.965v-2.041h6.965v-0.758h-6.965v-1.241h6.965
			v-0.758h-6.965v-1h-0.759v1h-8.964v0.758h8.964v1.241h-8.964v0.758h8.964v2.041h-8.964v0.759h8.964v8.439h-8.964v0.758h8.964
			v1.441h-8.964v0.758h8.964v4.053l-8.351-3.165l-0.242,0.711l8.594,3.257v1.197l-8.351-3.166l-0.242,0.712l8.594,3.257v4.128
			l-8.967,0.753l0.057,0.756l8.91-0.749v6.838l-8.967,0.753l0.057,0.756l8.91-0.749v1.892h-8.964v0.759h8.964v2.039h-8.964v0.759
			h8.964v0.6h-8.964v0.759h8.964v1.24h-8.964v0.759h8.964v2.041h-8.964v0.758h8.964v8.439h-8.964v0.758h8.964v1.441h-8.964v0.759
			h8.964v4.053l-8.351-3.166l-0.242,0.712l8.594,3.257v1.196l-8.351-3.166l-0.242,0.712l8.594,3.257v4.13l-8.967,0.753l0.057,0.756
			l8.91-0.749v6.838l-8.967,0.753l0.057,0.756l8.91-0.749v1.892h-8.964v0.758h8.964v2.041h-8.964v0.758h8.964v1.829l-8.967,0.753
			l0.057,0.756l8.91-0.749v1.891h-8.964v0.759h8.964v2.041h-8.964v0.758h8.964v5.378h0.759v-5.378h6.965L359.735,259.358
			L359.735,259.358z M342.014,211.551v-45.387h-0.759v45.387H342.014z M340.532,265.875v-58.383h-0.758v58.383H340.532z
			 M123.806,152.081c-0.142,0.098-0.298,0.165-0.457,0.201c-0.165,0.035-0.335,0.039-0.497,0.011
			c-0.164-0.028-0.324-0.09-0.465-0.181c-0.137-0.087-0.261-0.204-0.36-0.347c-0.099-0.142-0.167-0.298-0.201-0.456
			c-0.037-0.167-0.04-0.337-0.011-0.498c0.028-0.163,0.09-0.322,0.181-0.465c0.087-0.137,0.204-0.26,0.346-0.359
			c0.522-0.366,1.042-0.691,1.559-0.974c0.52-0.285,1.039-0.529,1.558-0.732c0.501-0.197,1.009-0.359,1.52-0.482
			c0.448-0.107,0.896-0.187,1.34-0.233v-1.168h0.067l0.047-0.1c0.045-0.079,0.1-0.152,0.165-0.215
			c0.084-0.08,0.185-0.146,0.295-0.189c0.106-0.041,0.224-0.064,0.345-0.061l0.083-0.009c0.028-0.007,0.059-0.019,0.089-0.033
			c0.032-0.017,0.065-0.039,0.096-0.064l0.084-0.081l0.064-0.089l0.041-0.083l0.026-0.084l0.008-0.067l-0.006-0.05l-0.019-0.054
			l-0.041-0.063l-0.065-0.065l-0.081-0.063l-0.078-0.048l-0.068-0.033c-0.221-0.072-0.286,0.011-0.418,0.192l-0.064,0.117
			l-0.057,0.138l-0.048,0.159c-0.028,0.117-0.081,0.224-0.15,0.316c-0.072,0.097-0.163,0.178-0.263,0.237
			c-0.099,0.059-0.214,0.1-0.331,0.118c-0.115,0.017-0.234,0.011-0.351-0.019c-0.118-0.03-0.226-0.083-0.319-0.151
			c-0.096-0.072-0.177-0.162-0.236-0.262c-0.06-0.102-0.1-0.215-0.118-0.332c-0.017-0.115-0.012-0.234,0.018-0.352
			c0.031-0.117,0.065-0.231,0.105-0.339c0.04-0.11,0.087-0.218,0.137-0.319c0.05-0.102,0.106-0.201,0.167-0.294
			c0.063-0.096,0.129-0.185,0.198-0.268c0.065-0.077,0.135-0.149,0.205-0.216c0.072-0.067,0.148-0.13,0.223-0.183
			c0.077-0.055,0.159-0.106,0.244-0.151c0.087-0.046,0.174-0.084,0.259-0.115c0.092-0.033,0.189-0.059,0.288-0.078
			c0.094-0.019,0.194-0.031,0.294-0.035c0.099-0.004,0.198,0,0.298,0.011c0.099,0.009,0.2,0.028,0.296,0.053
			c0.089,0.021,0.177,0.051,0.265,0.085c0.085,0.033,0.171,0.073,0.259,0.119c0.083,0.045,0.167,0.096,0.247,0.151
			c0.08,0.055,0.162,0.117,0.24,0.183c0.131,0.112,0.244,0.228,0.338,0.347c0.098,0.126,0.181,0.259,0.244,0.397
			c0.067,0.144,0.116,0.292,0.148,0.44c0.032,0.154,0.046,0.312,0.043,0.466l-0.013,0.197l-0.032,0.197l-0.048,0.195l-0.067,0.189
			l-0.078,0.171l-0.092,0.169l-0.109,0.163l-0.117,0.149c-0.07,0.085-0.148,0.167-0.23,0.241c-0.081,0.073-0.17,0.143-0.262,0.207
			c-0.077,0.052-0.156,0.099-0.233,0.139l-0.122,0.06v0.099c0.459,0.035,0.92,0.104,1.38,0.207c0.517,0.115,1.032,0.272,1.542,0.47
			c0.537,0.209,1.075,0.466,1.607,0.77c0.53,0.301,1.059,0.652,1.586,1.049c0.137,0.104,0.249,0.233,0.332,0.373
			c0.086,0.145,0.142,0.308,0.164,0.472c0.022,0.164,0.014,0.334-0.028,0.5c-0.041,0.158-0.113,0.312-0.217,0.449
			c-0.104,0.138-0.233,0.25-0.374,0.333c-0.145,0.086-0.307,0.142-0.472,0.164c-0.164,0.022-0.335,0.013-0.498-0.03
			c-0.158-0.04-0.313-0.113-0.45-0.216c-0.457-0.346-0.916-0.647-1.372-0.902c-0.457-0.256-0.913-0.469-1.366-0.634
			c-0.448-0.164-0.894-0.286-1.337-0.364c-0.45-0.08-0.897-0.118-1.34-0.113c-0.442,0.005-0.888,0.051-1.337,0.137
			c-0.452,0.087-0.909,0.216-1.366,0.385c-0.459,0.17-0.92,0.379-1.379,0.627C124.735,151.466,124.27,151.755,123.806,152.081z
			 M122.965,151.635c0.079,0.014,0.162,0.012,0.242-0.005c0.074-0.017,0.149-0.048,0.217-0.096c0.492-0.344,0.983-0.65,1.47-0.91
			c0.487-0.262,0.973-0.483,1.454-0.66c0.49-0.182,0.981-0.32,1.473-0.414c0.484-0.092,0.971-0.143,1.455-0.148
			c0.487-0.005,0.974,0.035,1.46,0.122c0.484,0.086,0.97,0.217,1.454,0.394c0.485,0.178,0.973,0.404,1.46,0.677
			c0.482,0.269,0.966,0.587,1.451,0.954c0.065,0.05,0.139,0.084,0.215,0.104c0.078,0.02,0.161,0.025,0.24,0.013
			c0.079-0.011,0.157-0.037,0.226-0.078c0.067-0.039,0.13-0.093,0.178-0.159c0.051-0.067,0.086-0.141,0.105-0.215
			c0.02-0.079,0.025-0.162,0.013-0.241c-0.011-0.078-0.037-0.156-0.078-0.226c-0.039-0.067-0.093-0.129-0.159-0.178
			c-0.503-0.38-1.007-0.713-1.51-1c-0.508-0.289-1.014-0.533-1.521-0.729c-0.501-0.195-1.005-0.347-1.508-0.456
			c-0.508-0.109-1.016-0.175-1.522-0.197l-0.32-0.013v-1.203l0.231-0.076c0.074-0.024,0.146-0.052,0.213-0.085
			c0.068-0.034,0.137-0.074,0.203-0.119c0.064-0.043,0.128-0.093,0.189-0.149c0.06-0.054,0.118-0.115,0.17-0.176l0.087-0.111
			l0.076-0.116l0.068-0.124l0.054-0.119l0.048-0.137l0.034-0.132l0.021-0.138l0.009-0.135c0.002-0.106-0.007-0.214-0.03-0.319
			c-0.02-0.099-0.053-0.198-0.098-0.294c-0.043-0.092-0.099-0.184-0.169-0.272c-0.068-0.087-0.149-0.17-0.239-0.246l-0.187-0.142
			c-0.061-0.044-0.124-0.081-0.187-0.115c-0.058-0.031-0.12-0.06-0.185-0.086c-0.061-0.024-0.124-0.044-0.184-0.059
			c-0.068-0.018-0.138-0.031-0.204-0.037c-0.068-0.008-0.136-0.011-0.201-0.008c-0.063,0.002-0.128,0.011-0.193,0.024
			c-0.065,0.013-0.131,0.032-0.194,0.054c-0.059,0.02-0.117,0.046-0.174,0.076c-0.054,0.028-0.111,0.064-0.164,0.102
			c-0.057,0.04-0.111,0.085-0.161,0.132c-0.051,0.047-0.1,0.099-0.146,0.155c-0.052,0.06-0.102,0.128-0.148,0.198
			c-0.047,0.073-0.091,0.15-0.13,0.229c-0.04,0.081-0.077,0.167-0.107,0.253c-0.032,0.087-0.061,0.18-0.084,0.273
			c-0.008,0.031-0.009,0.063-0.006,0.093c0.005,0.031,0.015,0.06,0.031,0.085c0.015,0.027,0.037,0.051,0.061,0.07
			c0.022,0.018,0.052,0.032,0.083,0.039c0.031,0.007,0.063,0.009,0.093,0.006c0.03-0.005,0.06-0.015,0.086-0.031
			c0.025-0.015,0.05-0.038,0.067-0.063c0.018-0.024,0.032-0.052,0.04-0.081l0.066-0.221c0.025-0.068,0.052-0.136,0.083-0.2
			c0.031-0.065,0.065-0.128,0.1-0.184c0.035-0.058,0.077-0.113,0.119-0.164l0.098-0.104l0.105-0.089l0.119-0.076l0.126-0.055
			l0.126-0.034l0.131-0.014l0.131,0.005l0.126,0.024l0.146,0.048l0.143,0.067l0.135,0.084l0.133,0.103
			c0.06,0.051,0.112,0.105,0.156,0.158c0.046,0.057,0.086,0.119,0.117,0.182c0.034,0.067,0.058,0.137,0.074,0.204
			c0.015,0.073,0.022,0.146,0.022,0.216l-0.007,0.096l-0.015,0.097l-0.025,0.092l-0.033,0.093l-0.041,0.092
			c-0.046,0.081-0.104,0.185-0.168,0.255c-0.055,0.066-0.118,0.128-0.183,0.181c-0.066,0.053-0.137,0.099-0.213,0.137
			c-0.077,0.039-0.157,0.068-0.239,0.087c-0.079,0.018-0.163,0.028-0.243,0.027c-0.032,0-0.064,0.006-0.092,0.017
			c-0.03,0.012-0.055,0.028-0.077,0.048c-0.021,0.021-0.04,0.047-0.052,0.074c-0.012,0.028-0.019,0.058-0.02,0.089
			c-0.007,0.292-0.006,0.586-0.004,0.877l0.002,0.577l-0.309,0.022c-0.496,0.037-0.991,0.115-1.484,0.229
			c-0.497,0.117-0.996,0.274-1.493,0.469c-0.496,0.195-0.991,0.429-1.483,0.698c-0.502,0.274-1,0.587-1.494,0.933
			c-0.068,0.047-0.123,0.106-0.164,0.171c-0.044,0.068-0.073,0.145-0.086,0.222c-0.014,0.079-0.013,0.162,0.004,0.241
			c0.017,0.077,0.05,0.151,0.096,0.218c0.048,0.067,0.106,0.123,0.171,0.164C122.812,151.591,122.888,151.622,122.965,151.635
			L122.965,151.635z M67.713,137.405h122.294v22.763H67.346v-22.763L67.713,137.405L67.713,137.405z M189.273,138.139H68.081v21.294
			h121.192V138.139z M352.099,137.807c0.099,0.142,0.167,0.298,0.201,0.456c0.037,0.165,0.04,0.335,0.012,0.498
			c-0.028,0.163-0.09,0.322-0.182,0.465c-0.086,0.137-0.203,0.26-0.346,0.359c-0.142,0.099-0.298,0.167-0.456,0.201
			c-0.167,0.037-0.338,0.04-0.5,0.012c-0.162-0.028-0.321-0.091-0.464-0.182c-0.137-0.087-0.26-0.204-0.36-0.346
			c-0.365-0.522-0.691-1.042-0.974-1.559c-0.283-0.52-0.528-1.039-0.732-1.556c-0.196-0.502-0.358-1.01-0.481-1.52
			c-0.107-0.449-0.187-0.897-0.234-1.342h-1.167v-0.067l-0.1-0.047c-0.079-0.045-0.152-0.1-0.215-0.164
			c-0.081-0.085-0.146-0.187-0.189-0.296c-0.041-0.106-0.064-0.223-0.061-0.345l-0.009-0.083c-0.007-0.028-0.019-0.059-0.033-0.087
			c-0.017-0.033-0.039-0.066-0.064-0.097l-0.081-0.084l-0.089-0.064l-0.083-0.041l-0.084-0.026l-0.067-0.008l-0.05,0.006
			l-0.055,0.019l-0.061,0.041l-0.066,0.065l-0.063,0.081l-0.047,0.078l-0.034,0.068c-0.071,0.221,0.011,0.287,0.194,0.418
			l0.117,0.064l0.138,0.057l0.159,0.048c0.117,0.028,0.224,0.081,0.316,0.151c0.097,0.071,0.178,0.162,0.237,0.262
			c0.059,0.099,0.1,0.214,0.117,0.332c0.017,0.113,0.012,0.233-0.018,0.351c-0.03,0.117-0.083,0.224-0.151,0.318
			c-0.072,0.097-0.162,0.177-0.263,0.237c-0.1,0.059-0.214,0.1-0.331,0.117c-0.115,0.017-0.234,0.012-0.352-0.018
			c-0.117-0.03-0.231-0.065-0.339-0.105c-0.111-0.04-0.218-0.087-0.319-0.137c-0.102-0.05-0.201-0.106-0.294-0.167
			c-0.096-0.063-0.185-0.129-0.268-0.198c-0.077-0.065-0.15-0.133-0.216-0.204c-0.067-0.073-0.13-0.149-0.184-0.224
			c-0.054-0.077-0.105-0.158-0.15-0.244c-0.046-0.086-0.084-0.172-0.115-0.257c-0.033-0.092-0.059-0.19-0.079-0.289
			c-0.018-0.094-0.03-0.194-0.034-0.294c-0.004-0.098-0.001-0.198,0.009-0.298c0.011-0.099,0.03-0.2,0.053-0.296
			c0.022-0.089,0.052-0.177,0.085-0.265c0.033-0.084,0.074-0.171,0.12-0.259c0.045-0.083,0.096-0.167,0.151-0.247
			c0.056-0.08,0.117-0.162,0.183-0.24c0.111-0.131,0.228-0.243,0.347-0.337c0.126-0.099,0.259-0.181,0.397-0.246
			c0.144-0.067,0.292-0.116,0.44-0.148c0.154-0.032,0.311-0.045,0.465-0.043l0.198,0.013l0.197,0.032l0.194,0.048l0.19,0.067
			l0.171,0.078l0.169,0.092l0.163,0.109l0.149,0.117c0.085,0.071,0.167,0.148,0.241,0.23c0.073,0.081,0.143,0.17,0.206,0.262
			c0.052,0.078,0.1,0.156,0.141,0.233l0.059,0.122h0.1c0.035-0.459,0.104-0.92,0.207-1.38c0.115-0.517,0.272-1.031,0.47-1.542
			c0.209-0.537,0.466-1.075,0.77-1.607c0.301-0.53,0.651-1.059,1.047-1.585c0.105-0.138,0.234-0.25,0.374-0.333
			c0.145-0.085,0.307-0.142,0.472-0.164c0.164-0.022,0.334-0.014,0.498,0.03c0.159,0.04,0.312,0.113,0.45,0.217
			c0.138,0.104,0.249,0.231,0.333,0.373c0.085,0.145,0.142,0.308,0.164,0.472c0.022,0.164,0.013,0.335-0.03,0.5
			c-0.041,0.158-0.113,0.312-0.217,0.449c-0.345,0.458-0.646,0.916-0.902,1.372c-0.255,0.457-0.468,0.914-0.633,1.366
			c-0.164,0.448-0.286,0.894-0.365,1.338c-0.079,0.45-0.117,0.898-0.112,1.339c0.005,0.442,0.051,0.889,0.137,1.337
			c0.087,0.452,0.216,0.909,0.385,1.366c0.169,0.461,0.379,0.921,0.627,1.38C351.485,136.878,351.774,137.342,352.099,137.807
			L352.099,137.807z M351.654,138.647c0.013-0.079,0.012-0.162-0.005-0.242c-0.017-0.074-0.048-0.149-0.096-0.217
			c-0.345-0.491-0.65-0.983-0.912-1.47c-0.261-0.487-0.482-0.972-0.66-1.454c-0.181-0.49-0.319-0.981-0.413-1.473
			c-0.092-0.483-0.143-0.971-0.148-1.455c-0.005-0.487,0.035-0.974,0.122-1.46c0.085-0.483,0.217-0.968,0.394-1.454
			c0.178-0.485,0.404-0.973,0.677-1.46c0.269-0.482,0.587-0.966,0.953-1.45c0.05-0.066,0.085-0.141,0.105-0.215
			c0.02-0.079,0.025-0.162,0.013-0.241c-0.011-0.078-0.038-0.156-0.078-0.226c-0.04-0.067-0.093-0.13-0.159-0.178
			c-0.067-0.051-0.141-0.086-0.216-0.105c-0.078-0.02-0.161-0.025-0.24-0.013c-0.079,0.011-0.156,0.038-0.227,0.078
			c-0.066,0.039-0.128,0.093-0.177,0.159c-0.38,0.503-0.713,1.007-1,1.512c-0.289,0.507-0.533,1.013-0.729,1.52
			c-0.196,0.501-0.347,1.005-0.456,1.508c-0.109,0.508-0.175,1.016-0.197,1.522l-0.014,0.321h-1.202l-0.076-0.233
			c-0.024-0.074-0.053-0.145-0.085-0.213c-0.034-0.068-0.074-0.137-0.119-0.203c-0.042-0.064-0.093-0.126-0.149-0.189
			c-0.054-0.06-0.115-0.118-0.176-0.17l-0.111-0.086l-0.116-0.077l-0.124-0.068l-0.119-0.054l-0.137-0.048l-0.133-0.033
			l-0.137-0.022l-0.136-0.009c-0.106-0.001-0.213,0.008-0.318,0.03c-0.099,0.02-0.198,0.053-0.294,0.098
			c-0.092,0.043-0.184,0.099-0.272,0.169c-0.087,0.07-0.17,0.149-0.247,0.24l-0.141,0.185c-0.044,0.063-0.083,0.125-0.115,0.187
			c-0.031,0.058-0.06,0.12-0.086,0.185c-0.024,0.061-0.045,0.124-0.06,0.184c-0.017,0.068-0.03,0.138-0.037,0.204
			c-0.007,0.069-0.009,0.136-0.007,0.201c0.002,0.063,0.011,0.128,0.024,0.194c0.013,0.064,0.031,0.13,0.053,0.192
			c0.021,0.059,0.047,0.117,0.077,0.174c0.028,0.054,0.063,0.111,0.102,0.165c0.04,0.055,0.085,0.11,0.132,0.161
			c0.046,0.05,0.099,0.1,0.154,0.146c0.06,0.051,0.129,0.1,0.2,0.148c0.073,0.046,0.15,0.09,0.229,0.129
			c0.081,0.04,0.167,0.077,0.253,0.109c0.087,0.032,0.178,0.06,0.273,0.084c0.031,0.007,0.063,0.008,0.092,0.005
			c0.032-0.005,0.061-0.015,0.086-0.031c0.027-0.015,0.051-0.037,0.07-0.061c0.018-0.022,0.031-0.051,0.039-0.081
			c0.007-0.032,0.009-0.064,0.005-0.093c-0.004-0.031-0.014-0.06-0.031-0.087c-0.015-0.025-0.037-0.048-0.061-0.067
			c-0.024-0.018-0.052-0.032-0.082-0.04l-0.221-0.066c-0.069-0.024-0.136-0.052-0.2-0.081c-0.065-0.031-0.128-0.065-0.185-0.102
			c-0.057-0.035-0.112-0.077-0.163-0.119l-0.104-0.097l-0.089-0.106l-0.076-0.119l-0.055-0.126l-0.035-0.126l-0.013-0.13
			l0.005-0.131l0.024-0.128l0.047-0.145l0.068-0.144l0.084-0.135l0.103-0.133c0.051-0.06,0.105-0.112,0.158-0.156
			c0.057-0.046,0.119-0.086,0.182-0.117c0.067-0.034,0.137-0.058,0.204-0.074c0.073-0.015,0.145-0.022,0.216-0.021l0.096,0.006
			l0.096,0.017l0.092,0.024l0.094,0.033l0.092,0.041c0.082,0.046,0.185,0.104,0.255,0.168c0.066,0.055,0.128,0.118,0.181,0.184
			c0.052,0.065,0.099,0.137,0.137,0.211c0.038,0.077,0.069,0.157,0.087,0.239c0.018,0.079,0.028,0.163,0.027,0.243
			c-0.001,0.032,0.005,0.064,0.017,0.092c0.011,0.03,0.028,0.057,0.048,0.077c0.021,0.022,0.047,0.04,0.074,0.053
			c0.027,0.011,0.058,0.019,0.087,0.019c0.292,0.008,0.587,0.006,0.879,0.004l0.577-0.002l0.022,0.311
			c0.037,0.495,0.113,0.99,0.229,1.483c0.117,0.497,0.273,0.996,0.469,1.493c0.194,0.496,0.429,0.991,0.697,1.483
			c0.275,0.502,0.587,1,0.933,1.494c0.048,0.068,0.107,0.124,0.172,0.165c0.069,0.043,0.145,0.072,0.221,0.086
			c0.08,0.013,0.163,0.012,0.242-0.005c0.076-0.017,0.15-0.048,0.218-0.096c0.067-0.047,0.123-0.106,0.164-0.171
			C351.61,138.801,351.641,138.724,351.654,138.647L351.654,138.647z M337.424,159.798v-55.439h22.763v55.807h-22.763V159.798z
			 M338.158,105.094v54.338h21.294v-54.338H338.158z M252.768,153.538l0.092-0.269h-3.289c-0.081,0.367-0.17,0.735-0.262,1.099
			c1.62,0.547,3.799,0.919,6.985,0.973c3.341,0.057,7.781-0.235,13.83-1.037c-0.135-0.329-0.239-0.677-0.316-1.036h-12.73
			l-0.263,0.967l-0.73-0.2l0.209-0.768h-2.631l-0.177,0.516L252.768,153.538L252.768,153.538z M253.12,152.511l1.547-4.509
			l0.717,0.246l-1.462,4.263h2.578l0.534-1.954l0.729,0.2l-0.478,1.755h12.4c-0.202-1.717,0.068-3.661,0.327-5.518
			c0.218-1.569,0.427-3.077,0.326-4.276c-0.848-0.265-1.727-0.516-2.687-0.729c-1.04-0.229-2.181-0.414-3.487-0.525
			c-1.32-0.112-3.115,0.282-5.111,0.722c-2.998,0.659-6.443,1.416-9.626,0.771c0.608,1.971,0.815,3.875,0.758,5.735
			c-0.039,1.295-0.207,2.566-0.455,3.821H253.12L253.12,152.511z M270.737,154.986c-6.349,0.859-10.983,1.17-14.454,1.111
			c-3.504-0.06-5.837-0.497-7.557-1.13l-0.324-0.119l0.087-0.332c0.109-0.415,0.211-0.83,0.307-1.247h-4.242h-3.194v5.786h36.402
			v-5.786h-2.574h-0.379h-4.224c0.102,0.416,0.243,0.805,0.435,1.162l0.259,0.481L270.737,154.986z M248.96,152.511
			c0.255-1.267,0.43-2.545,0.469-3.843c0.06-1.976-0.189-4.005-0.929-6.114l-0.239-0.678l0.693,0.188
			c3.185,0.862,6.812,0.065,9.939-0.622c2.052-0.451,3.898-0.857,5.333-0.736c1.332,0.112,2.507,0.305,3.588,0.543
			c1.071,0.237,2.045,0.522,2.988,0.821l0.23,0.073l0.03,0.24c0.169,1.338-0.06,2.989-0.3,4.713
			c-0.256,1.842-0.524,3.774-0.314,5.415h3.982v-17.28l-19.315,0.627l-0.066-0.309c-0.412-1.933-1.266-2.551-2.52-3.457
			c-1.137-0.822-2.583-1.867-4.312-4.189c-1.323-1.776-1.369-2.655-1.395-3.151c-0.013-0.262-0.015-0.298-1.508-0.631v28.389H248.96
			L248.96,152.511z M278.522,153.269v6.545h-37.919v-7.303h0.36V76.633h37.559v75.878V153.269z M269.19,80.725l-5.265,5.957
			l-0.566-0.501l4.822-5.456h-22.869v40.502c0.325-0.067,0.71-0.065,1.16-0.061c0.933,0.007,2.192,0.015,3.648-0.647l0.974-0.445
			c2.85-1.3,3.961-1.809,4.521-1.551c0.487,0.222,0.471,0.712,0.443,1.512c-0.026,0.772-0.066,1.917,0.357,3.377
			c1.608,5.56,0.605,7.923-0.136,9.665c-0.307,0.72-0.566,1.326-0.529,2.004l10.431-0.338l4.308-4.44l0.543,0.527l-3.764,3.878
			l7.16-0.233v-53.75L269.19,80.725L269.19,80.725z M267.061,115.574c-0.456,0.403-0.894,0.83-1.313,1.284
			c-0.72,0.778-1.39,1.634-2.006,2.568C265.021,117.868,266.12,116.598,267.061,115.574z M265.194,116.345
			c1.621-1.751,3.494-3.134,5.596-4.177l0.011-0.006c0.175-0.089,0.391-0.03,0.495,0.141c0.109,0.178,0.052,0.411-0.126,0.521
			c-0.764,0.468-1.837,1.415-3.353,3.048c-1.533,1.65-3.51,3.994-6.06,7.24c-0.104,0.132-0.288,0.183-0.449,0.113
			c-0.191-0.084-0.28-0.307-0.196-0.498C262.204,120.215,263.572,118.097,265.194,116.345L265.194,116.345z M255.21,133.714
			c0.103-0.303,0.234-0.608,0.372-0.935c0.696-1.637,1.64-3.858,0.106-9.157c-0.456-1.577-0.415-2.792-0.386-3.61
			c0.017-0.49,0.027-0.789-0.001-0.802c-0.246-0.113-1.27,0.353-3.892,1.551l-0.974,0.445c-1.608,0.732-2.963,0.723-3.964,0.716
			c-0.515-0.004-0.921-0.005-1.157,0.093v1.333c2.219,0.495,2.224,0.564,2.264,1.365c0.021,0.413,0.06,1.145,1.247,2.739
			c1.659,2.23,3.05,3.235,4.145,4.026C253.933,132.174,254.681,132.718,255.21,133.714L255.21,133.714z M244.555,152.511v-28.557
			V79.967h30.633v55.239v17.305h2.574V77.393h-36.042v75.118H244.555L244.555,152.511z M273.927,47.465h-1.357
			c-0.312,1.912-1.206,3.628-2.494,4.962c-1.545,1.6-3.661,2.649-6.018,2.824v11.945h-23.522V25.084h23.522v0.379V36.65
			c2.357,0.174,4.473,1.223,6.018,2.824c1.288,1.334,2.182,3.05,2.494,4.962h1.357c-0.176-1.277-0.569-2.482-1.143-3.578
			c-0.827-1.579-2.028-2.933-3.486-3.945l-0.163-0.113v-3.883l0.57,0.335c2.217,1.303,4.06,3.167,5.337,5.394
			c1.233,2.153,1.938,4.647,1.938,7.304c0,2.657-0.705,5.151-1.938,7.304c-1.277,2.228-3.12,4.093-5.337,5.394l-0.57,0.335v-3.883
			l0.163-0.113c1.458-1.012,2.659-2.365,3.486-3.944C273.358,49.948,273.751,48.741,273.927,47.465L273.927,47.465z M274.692,44.436
			h0.004l0.015,0.155l0.009,0.089l0.009,0.09v0.009l0.004,0.037l0.001,0.018l0.002,0.019l0.001,0.007v0.011l0.002,0.019l0.001,0.019
			l0.004,0.037l0.001,0.005v0.013l0.004,0.037l0.001,0.019l0.001,0.018l0.001,0.005v0.014l0.002,0.018l0.001,0.019l0.001,0.019
			l0.001,0.018l0.001,0.002v0.017l0.001,0.018l0.001,0.019l0.001,0.018l0.001,0.019l0.001,0.001v0.017l0.001,0.019l0.001,0.019
			l0.001,0.018l0.001,0.018v0.001v0.018l0.001,0.019l0.001,0.018l0.001,0.019l0.001,0.039l0.001,0.02l0.001,0.019l0.002,0.076
			l0.001,0.019v0.019l0.001,0.008v0.011v0.018l0.001,0.019v0.019l0.001,0.018v0.007v0.012v0.018l0.001,0.018v0.019v0.018
			l0.001,0.008v0.009v0.018v0.018v0.018v0.018l0.001,0.011v0.006v0.018v0.018v0.017v0.018v0.017v0.017v0.018V46v0.018v0.018v0.006
			l-0.001,0.011v0.018v0.018v0.018v0.018v0.011l-0.001,0.008v0.018v0.018l-0.001,0.018v0.019v0.011v0.007l-0.001,0.019v0.018
			l-0.001,0.019v0.019v0.011l-0.001,0.008v0.018l-0.004,0.096l-0.001,0.019l-0.001,0.019l-0.001,0.039l-0.001,0.019l-0.001,0.019
			l-0.001,0.018v0.019l-0.001,0.018l-0.001,0.019l-0.001,0.018l-0.001,0.019v0.018h-0.001l-0.001,0.019l-0.001,0.019l-0.001,0.018
			l-0.001,0.019v0.015l-0.001,0.002l-0.001,0.019l-0.001,0.018l-0.001,0.019l-0.002,0.019v0.014l-0.001,0.004l-0.001,0.019
			l-0.001,0.018l-0.004,0.037v0.013l-0.001,0.006l-0.004,0.037l-0.001,0.019l-0.002,0.018v0.011l-0.001,0.008l-0.002,0.018
			l-0.001,0.019l-0.004,0.037v0.008l-0.009,0.09l-0.009,0.09l-0.015,0.155h-0.004c-0.183,1.397-0.596,2.723-1.239,3.928
			c-0.854,1.631-2.077,3.035-3.559,4.101v2.149c1.846-1.209,3.389-2.845,4.49-4.766c1.168-2.039,1.836-4.405,1.836-6.927
			c0-2.521-0.668-4.887-1.836-6.927c-1.101-1.921-2.644-3.557-4.49-4.765v2.148c1.482,1.068,2.705,2.472,3.559,4.103
			C274.083,41.71,274.511,43.035,274.692,44.436L274.692,44.436z M272.662,46.705h1.343l0.019-0.368l0.001-0.017v-0.017v-0.011
			l0.001-0.006V46.27v-0.017l0.001-0.052v-0.017l0.001-0.035v-0.018v-0.009v-0.008v-0.018l0.001-0.018v-0.018v-0.019v-0.006v-0.012
			v-0.019v-0.018v-0.019V45.95v-0.019v-0.018v-0.019v-0.018v-0.013v-0.006V45.84v-0.018l-0.001-0.019v-0.018v-0.008v-0.009V45.75
			l-0.001-0.034v-0.018l-0.001-0.052V45.63v-0.017l-0.001-0.007v-0.011v-0.017l-0.001-0.017l-0.019-0.367h-1.343l0.005,0.053
			l0.007,0.11l0.001,0.007v0.012l0.001,0.019l0.001,0.019l0.001,0.019v0.019l0.001,0.019l0.001,0.009v0.009l0.001,0.019v0.019
			l0.001,0.019l0.001,0.019v0.019l0.001,0.013v0.005l0.001,0.019v0.019l0.001,0.019v0.018l0.001,0.019v0.019h0.001v0.018v0.019
			v0.018l0.001,0.019v0.018v0.018v0.008v0.011l0.001,0.018v0.018v0.019v0.018v0.018v0.018v0.018v0.018v0.019v0.018v0.018
			l-0.001,0.019v0.009v0.008v0.018v0.019l-0.001,0.018v0.019v0.018v0.018l-0.001,0.001v0.018l-0.001,0.019v0.019l-0.001,0.018v0.019
			l-0.001,0.019v0.005l-0.001,0.014v0.018l-0.001,0.019l-0.001,0.019v0.019l-0.001,0.019v0.009l-0.001,0.009l-0.001,0.019v0.019
			l-0.001,0.019l-0.001,0.019l-0.001,0.019v0.012l-0.001,0.007l-0.007,0.11L272.662,46.705L272.662,46.705z M264.058,54.492
			c2.143-0.171,4.065-1.133,5.472-2.59c1.233-1.277,2.071-2.936,2.324-4.782l0.011-0.081l0.002-0.018v-0.005l0.002-0.013
			l0.001-0.017l0.002-0.018l0.002-0.018l0.002-0.017l0.001-0.018l0.001-0.006l0.001-0.012l0.002-0.017l0.001-0.018l0.002-0.018
			l0.001-0.017l0.002-0.018v-0.008l0.001-0.008l0.002-0.018l0.001-0.017l0.002-0.017l0.001-0.018l0.001-0.017l0.001-0.012
			l0.001-0.006l0.001-0.017l0.001-0.017l0.001-0.017l0.004-0.051h0.001l0.018-0.331v-0.018l0.001-0.017v-0.018l0.001-0.017v-0.018
			v-0.012v-0.005l0.001-0.018v-0.017v-0.018v-0.018v-0.018v-0.015l0.001-0.002v-0.018V46.02v-0.018v-0.018v-0.018V45.95v-0.018
			v-0.018v-0.018v-0.018v-0.018v-0.018l-0.001-0.002v-0.015v-0.017v-0.018v-0.018v-0.017l-0.001-0.018v-0.006v-0.012v-0.017
			l-0.001-0.018v-0.017l-0.001-0.017v-0.018l-0.018-0.331l-0.001-0.001l-0.004-0.05l-0.001-0.017l-0.001-0.017l-0.001-0.017
			l-0.001-0.007l-0.001-0.011l-0.001-0.017l-0.001-0.018l-0.002-0.017l-0.001-0.017l-0.002-0.018l-0.001-0.009v-0.007l-0.002-0.018
			l-0.001-0.017l-0.002-0.018l-0.001-0.018L271.881,45l-0.001-0.012l-0.001-0.006l-0.001-0.018l-0.002-0.017l-0.002-0.018
			l-0.002-0.018l-0.001-0.017l-0.002-0.013v-0.005l-0.002-0.018l-0.011-0.083c-0.247-1.84-1.083-3.491-2.324-4.78
			c-1.408-1.458-3.329-2.419-5.472-2.59L264.058,54.492L264.058,54.492z M263.3,66.436V55.284V36.616V25.842h-22.004v40.594H263.3z
			 M348.378,25.875l-0.092,0.269h3.289c0.082-0.367,0.17-0.735,0.262-1.099c-1.62-0.547-3.799-0.919-6.985-0.973
			c-3.341-0.057-7.781,0.235-13.83,1.037c0.135,0.329,0.239,0.677,0.316,1.036h12.73l0.263-0.967l0.73,0.2l-0.209,0.768h2.631
			l0.177-0.516L348.378,25.875z M348.026,26.903l-1.547,4.509l-0.717-0.246l1.462-4.263h-2.578l-0.534,1.954l-0.729-0.2l0.478-1.755
			h-12.4c0.202,1.717-0.069,3.661-0.327,5.518c-0.218,1.569-0.427,3.077-0.326,4.276c0.848,0.266,1.727,0.516,2.687,0.729
			c1.04,0.229,2.181,0.416,3.487,0.526c1.32,0.112,3.115-0.282,5.111-0.722c2.998-0.659,6.443-1.416,9.626-0.77
			c-0.608-1.971-0.815-3.876-0.758-5.736c0.039-1.295,0.207-2.566,0.455-3.821H348.026z M330.409,24.427
			c6.349-0.859,10.983-1.169,14.454-1.111c3.504,0.06,5.837,0.497,7.557,1.13l0.324,0.119l-0.087,0.332
			c-0.109,0.415-0.211,0.83-0.307,1.247h4.242h3.194v-5.787h-36.402v5.787h2.574h0.379h4.224c-0.102-0.416-0.243-0.805-0.435-1.162
			l-0.259-0.481L330.409,24.427L330.409,24.427z M352.186,26.903c-0.255,1.267-0.43,2.545-0.469,3.843
			c-0.06,1.976,0.189,4.004,0.929,6.114l0.239,0.678l-0.693-0.188c-3.185-0.862-6.812-0.065-9.939,0.622
			c-2.052,0.451-3.898,0.857-5.333,0.736c-1.332-0.112-2.507-0.305-3.588-0.543c-1.071-0.237-2.045-0.521-2.988-0.821l-0.23-0.073
			l-0.03-0.24c-0.169-1.338,0.06-2.989,0.3-4.713c0.256-1.842,0.524-3.774,0.314-5.415h-3.982v17.28l19.315-0.627l0.066,0.309
			c0.412,1.933,1.266,2.551,2.52,3.457c1.137,0.822,2.583,1.867,4.312,4.189c1.324,1.776,1.369,2.656,1.395,3.151
			c0.013,0.262,0.015,0.298,1.508,0.631V26.903H352.186L352.186,26.903z M322.624,26.144V19.6h37.919v7.303h-0.359v75.878h-37.56
			V26.903V26.144z M331.956,98.688l5.265-5.957l0.566,0.502l-4.822,5.455h22.869V58.186c-0.325,0.067-0.71,0.065-1.16,0.061
			c-0.933-0.006-2.192-0.015-3.648,0.647l-0.974,0.445c-2.85,1.3-3.961,1.809-4.521,1.552c-0.487-0.223-0.471-0.713-0.443-1.513
			c0.026-0.772,0.066-1.917-0.357-3.377c-1.608-5.56-0.605-7.923,0.136-9.663c0.307-0.722,0.566-1.326,0.529-2.005l-10.431,0.338
			l-4.308,4.44l-0.543-0.527l3.764-3.878l-7.16,0.233v53.75H331.956L331.956,98.688z M334.085,63.839
			c0.456-0.403,0.894-0.83,1.313-1.284c0.72-0.778,1.39-1.634,2.006-2.569C336.125,61.546,335.026,62.815,334.085,63.839z
			 M335.952,63.068c-1.621,1.751-3.494,3.134-5.596,4.177l-0.011,0.006c-0.175,0.089-0.391,0.03-0.495-0.141
			c-0.109-0.178-0.052-0.411,0.126-0.52c0.764-0.469,1.838-1.416,3.354-3.048c1.532-1.651,3.508-3.995,6.059-7.241
			c0.104-0.132,0.288-0.183,0.449-0.113c0.191,0.084,0.28,0.307,0.196,0.498C338.942,59.198,337.574,61.317,335.952,63.068z
			 M345.934,45.7c-0.103,0.302-0.233,0.608-0.371,0.934c-0.696,1.637-1.64,3.858-0.106,9.157c0.456,1.577,0.414,2.792,0.386,3.611
			c-0.017,0.489-0.027,0.788,0.001,0.801c0.246,0.113,1.27-0.353,3.892-1.551l0.974-0.445c1.608-0.732,2.963-0.723,3.964-0.716
			c0.515,0.004,0.921,0.005,1.157-0.093v-1.333c-2.219-0.495-2.224-0.564-2.264-1.365c-0.021-0.413-0.059-1.145-1.247-2.739
			c-1.659-2.23-3.05-3.235-4.145-4.026C347.213,47.24,346.463,46.697,345.934,45.7L345.934,45.7z M356.591,26.903V55.46v43.987
			h-30.633V44.208V26.903h-2.574v75.118h36.042V26.903H356.591L356.591,26.903z M232.635,87.866v-1.279
			c-0.047-5.357-0.409-10.766-1.043-16.221V104.1c0.694-5.234,1.03-10.521,1.047-15.854h-0.005V87.866z M233.375,85.408h1.065
			v-39.69h-12.006v83.189h12.006v-40.66h-1.045c-0.024,7.029-0.594,13.974-1.803,20.813v0.348h-0.368h-0.019h-2.73v-0.379V64.247
			h2.718h0.02h0.019h0.36v0.352C232.631,71.599,233.256,78.539,233.375,85.408z M233.393,86.167v0.762l0.001,0.175l0.001,0.384
			h0.629v-1.32H233.393z M229.234,65.006v43.642h1.599V65.006H229.234z M221.675,129.286V44.96H235.2v84.705h-13.525V129.286z
			 M187.455,251.62c0.853,0,1.543,0.691,1.543,1.543s-0.691,1.543-1.543,1.543s-1.543-0.691-1.543-1.543
			S186.602,251.62,187.455,251.62z M187.455,252.221c0.521,0,0.942,0.422,0.942,0.942c0,0.52-0.422,0.941-0.942,0.941
			c-0.52,0-0.941-0.422-0.941-0.941C186.514,252.642,186.935,252.221,187.455,252.221z M188.099,261.174
			c0.436,0.231,0.732,0.69,0.732,1.216c0,0.76-0.615,1.376-1.376,1.376c-0.759,0-1.376-0.615-1.376-1.376
			c0-0.527,0.296-0.985,0.732-1.216v-0.868h-5.393c-0.642,0-1.228-0.263-1.651-0.687c-0.423-0.423-0.686-1.007-0.686-1.65v-8.282
			c0-0.642,0.263-1.228,0.686-1.651c0.425-0.423,1.01-0.686,1.651-0.686h12.075c0.642,0,1.227,0.263,1.651,0.686
			c0.423,0.424,0.686,1.01,0.686,1.651v8.282c0,0.641-0.263,1.227-0.686,1.65c-0.424,0.424-1.008,0.687-1.651,0.687h-5.394V261.174z
			 M186.812,259.547v-1.613h1.287v1.613h5.394c0.433,0,0.828-0.177,1.114-0.464c0.287-0.286,0.465-0.681,0.465-1.114v-8.282
			c0-0.432-0.178-0.828-0.465-1.114c-0.286-0.286-0.68-0.464-1.114-0.464h-12.075c-0.435,0-0.83,0.177-1.115,0.462
			c-0.286,0.287-0.464,0.683-0.464,1.116v8.282c0,0.432,0.178,0.828,0.464,1.114c0.287,0.287,0.681,0.464,1.115,0.464
			L186.812,259.547L186.812,259.547z M179.786,245.861h15.338c0.603,0,1.153,0.247,1.549,0.645c0.399,0.397,0.646,0.947,0.646,1.551
			v15.338c0,0.603-0.247,1.154-0.644,1.551c-0.398,0.398-0.947,0.645-1.552,0.645h-15.338c-0.605,0-1.153-0.247-1.551-0.645
			c-0.398-0.397-0.645-0.947-0.645-1.551v-15.338c0-0.603,0.247-1.154,0.645-1.551C178.635,246.108,179.183,245.861,179.786,245.861
			L179.786,245.861z M195.124,246.621h-15.338c-0.396,0-0.755,0.161-1.016,0.42c-0.259,0.261-0.42,0.621-0.42,1.016v15.338
			c0,0.394,0.162,0.755,0.422,1.014c0.26,0.26,0.62,0.422,1.014,0.422h15.338c0.396,0,0.755-0.162,1.014-0.422
			s0.422-0.62,0.422-1.014v-15.338c0-0.394-0.162-0.755-0.422-1.014C195.879,246.781,195.52,246.621,195.124,246.621z M157.444,0
			h-1.902L47.35,0.008v54.3v1.379v57.681v1.986v7.247H6.107l0,0H3.626l0,0H1.528l0,0h-1.5l0,0v5.53v138.567v2.434v3.096H47.35v4.258
			h0.28h18.689h241.588v-5.818h2.13L338.903,277l0.161-0.74l-29.006-6.362v-2.056h-2.152v-0.373v-65.012h-1.18h-2.491h-32.421v0.246
			h-1.776l-20.521-6.332l-0.159,0.742l20.659,6.362v2.056h1.797v0.403h32.421v4.085h-26.49h-0.379v57.452h-6.293
			c0.18-0.097,0.342-0.22,0.485-0.364c0.383-0.381,0.62-0.909,0.62-1.488v-5.859c0-2.192-0.896-4.184-2.341-5.627
			s-3.436-2.341-5.626-2.341h-3.794c-2.192,0-4.184,0.896-5.627,2.342c-1.443,1.443-2.339,3.435-2.339,5.626v5.859
			c0,0.58,0.236,1.108,0.62,1.489c0.143,0.143,0.305,0.265,0.483,0.363h-6.925v-5.02c0-0.313-0.128-0.596-0.333-0.802
			c-0.126-0.126-0.281-0.222-0.455-0.279v-13.024v-0.079l-0.002-0.079v-0.001l-0.002-0.078l-0.004-0.079l-0.005-0.079l-0.005-0.078
			l-0.007-0.078l-0.007-0.078l-0.008-0.077v-0.001l-0.009-0.077l-0.011-0.077l-0.012-0.077l-0.012-0.076v-0.001l-0.013-0.076
			l-0.014-0.076l-0.015-0.076l-0.015-0.074l-0.001-0.001l-0.017-0.074l-0.018-0.074l-0.019-0.073v-0.001l-0.019-0.073l-0.021-0.073
			l-0.021-0.073l-0.021-0.072l-0.001-0.001l-0.022-0.071v-0.001l-0.024-0.071l-0.001-0.001l-0.024-0.071h-0.001l-0.025-0.071
			l-0.027-0.071l-0.027-0.07v-0.001l-0.028-0.07l-0.028-0.068v-0.001l-0.031-0.068l-0.031-0.068l-0.031-0.068l-0.033-0.067v-0.001
			l-0.033-0.066v-0.001l-0.033-0.066l-0.035-0.066l-0.035-0.066l-0.035-0.065v-0.001l-0.038-0.064v-0.001l-0.038-0.064l-0.038-0.064
			l-0.039-0.064l-0.04-0.063v-0.001l-0.041-0.061l-0.041-0.063l-0.041-0.061l-0.044-0.06v-0.001l-0.044-0.06l-0.044-0.059
			l-0.045-0.06l-0.046-0.058l-0.046-0.059l-0.047-0.057l-0.047-0.058h-0.001l-0.047-0.057h-0.001l-0.047-0.056h-0.001l-0.05-0.055
			l-0.05-0.054h-0.001l-0.05-0.054h-0.001l-0.051-0.053h-0.001l-0.051-0.053h-0.001l-0.052-0.052h-0.001l-0.052-0.052h-0.001
			l-0.053-0.051h-0.001l-0.053-0.05l-0.001-0.001l-0.054-0.05h-0.001l-0.054-0.048h-0.001l-0.055-0.048h-0.001l-0.056-0.047
			l-0.001-0.001l-0.057-0.046h-0.001l-0.057-0.046l-0.001-0.001l-0.058-0.045h-0.001l-0.058-0.045h-0.001l-0.058-0.044l-0.002-0.001
			l-0.059-0.042l-0.001-0.001l-0.059-0.041l-0.001-0.001l-0.06-0.041l-0.001-0.001l-0.061-0.04l-0.001-0.001l-0.012-0.008
			l-0.098-0.063l-0.014-0.008l-0.001-0.001l-0.014-0.008l-0.097-0.059l-0.015-0.009l-0.001-0.001l-0.063-0.037h-0.002l-0.063-0.037
			l-0.002-0.001l-0.064-0.035h-0.001l-0.064-0.035h-0.002l-0.065-0.034l-0.001-0.001l-0.065-0.033H242.4l-0.065-0.033h-0.002
			l-0.066-0.032l-0.001-0.001l-0.066-0.031h-0.002l-0.067-0.031h-0.001l-0.067-0.03h-0.001l-0.068-0.03h-0.001l-0.068-0.027
			l-0.001-0.001l-0.07-0.027h-0.001l-0.068-0.026h-0.002l-0.07-0.026h-0.001l-0.07-0.025h-0.001l-0.071-0.024h-0.001l-0.071-0.024
			h-0.001l-0.072-0.021l-0.001-0.001l-0.072-0.021h-0.001l-0.072-0.02h-0.001l-0.072-0.019l-0.001-0.001l-0.073-0.018h-0.001
			l-0.073-0.018l-0.001-0.001l-0.074-0.017l-0.074-0.015h-0.001l-0.074-0.015h-0.001l-0.074-0.014h-0.001l-0.076-0.013l-0.076-0.012
			h-0.001l-0.076-0.012h-0.001l-0.076-0.011h-0.001l-0.077-0.009l-0.078-0.008l-0.078-0.007l-0.078-0.007l-0.078-0.005l-0.079-0.005
			l-0.078-0.004h-0.001l-0.078-0.002l-0.08-0.002h-0.079h-0.079l-0.08,0.002l-0.078,0.002h-0.001l-0.078,0.004l-0.079,0.005
			l-0.078,0.005l-0.078,0.007l-0.078,0.007l-0.078,0.008l-0.077,0.009h-0.001l-0.076,0.011h-0.001l-0.076,0.012h-0.001l-0.076,0.012
			l-0.076,0.013h-0.001l-0.074,0.014h-0.001l-0.074,0.015h-0.001l-0.074,0.015l-0.074,0.018h-0.001l-0.073,0.018h-0.001
			l-0.073,0.018l-0.001,0.001l-0.072,0.019h-0.001l-0.072,0.02h-0.001l-0.072,0.021l-0.001,0.001l-0.072,0.021h-0.001l-0.071,0.024
			h-0.001l-0.071,0.024h-0.001l-0.07,0.025h-0.001l-0.07,0.026h-0.002l-0.068,0.026h-0.001l-0.07,0.027l-0.001,0.001l-0.068,0.027
			h-0.001l-0.068,0.03h-0.001l-0.067,0.03h-0.001l-0.067,0.031h-0.002l-0.066,0.032h-0.001l-0.067,0.032h-0.001l-0.066,0.033h-0.001
			l-0.065,0.034h-0.001l-0.065,0.034h-0.002l-0.064,0.035h-0.001l-0.065,0.037h-0.001l-0.064,0.037h-0.001l-0.063,0.038h-0.001
			l-0.126,0.078h-0.001l-0.063,0.039h-0.001l-0.06,0.041h-0.001l-0.061,0.041h-0.001l-0.06,0.042h-0.001l-0.06,0.043l-0.06,0.044
			h-0.001l-0.058,0.044h-0.001l-0.059,0.045l-0.058,0.046h-0.001l-0.058,0.046l-0.057,0.047h-0.001l-0.057,0.047v0.001l-0.057,0.047
			v0.001l-0.055,0.047v0.001l-0.055,0.05l-0.054,0.05v0.001l-0.054,0.05v0.001l-0.053,0.051v0.001l-0.053,0.051v0.001l-0.052,0.052
			v0.001l-0.052,0.052v0.001l-0.051,0.053v0.001l-0.05,0.053l-0.001,0.001l-0.05,0.054v0.001l-0.048,0.054v0.001l-0.048,0.055v0.001
			l-0.047,0.055l-0.001,0.001l-0.046,0.057v0.001l-0.046,0.057l-0.001,0.001l-0.045,0.058v0.001l-0.045,0.058v0.001l-0.044,0.058
			l-0.001,0.002l-0.043,0.059l-0.001,0.001l-0.041,0.059l-0.001,0.002l-0.041,0.059l-0.001,0.002l-0.04,0.06l-0.001,0.001
			l-0.008,0.012l-0.063,0.098l-0.008,0.014l-0.001,0.001l-0.008,0.014l-0.059,0.097l-0.009,0.015l-0.001,0.001l-0.037,0.063v0.002
			l-0.037,0.063l-0.001,0.002l-0.035,0.064v0.001l-0.035,0.064v0.002l-0.034,0.065l-0.001,0.001l-0.033,0.065v0.002l-0.033,0.065
			v0.002l-0.032,0.066l-0.001,0.001l-0.031,0.066v0.002l-0.031,0.067v0.001l-0.03,0.067v0.002l-0.03,0.067v0.001l-0.027,0.068
			l-0.001,0.002l-0.027,0.068v0.001l-0.026,0.068v0.002l-0.026,0.07v0.001l-0.025,0.07v0.002l-0.024,0.07v0.002l-0.024,0.07v0.002
			l-0.021,0.071l-0.001,0.001l-0.021,0.072v0.001l-0.02,0.072v0.001l-0.019,0.072l-0.001,0.002l-0.018,0.072v0.001l-0.018,0.073
			l-0.001,0.001l-0.017,0.074v0.001l-0.015,0.073v0.001l-0.015,0.074v0.001l-0.014,0.074v0.001l-0.013,0.076v0.001l-0.012,0.074
			v0.001l-0.012,0.076v0.001l-0.011,0.076v0.001l-0.009,0.077v0.001l-0.008,0.077l-0.007,0.078l-0.007,0.078l-0.005,0.078
			l-0.005,0.079l-0.004,0.078v0.001l-0.002,0.078v0.001l-0.002,0.079v0.079v13.108c-0.076,0.045-0.145,0.098-0.208,0.161
			c-0.184,0.184-0.299,0.439-0.299,0.719v5.137h-5.093v-61.537H247.3v-0.403h2.016v-2.827H247.3v-0.246h-19.421h-3.67h-21.878
			h-0.494v-2.101l6.331-28.866l-0.742-0.161l-6.36,29.006h-2.056v2.122h-0.35v41.489h-71.788h-14.506H90.917h-0.426v23.523H89.84
			v-23.523H66.697h-0.379v-3.19h-7.782v-32.887h-3.677v-30.608h2.658l4.713,29.679l0.746-0.118l-4.694-29.561h0.254v-3.46h7.782
			v-9.723H198.66v5.008h0.35v2.2h2.827v-2.2h0.494v-5.008v-0.422h2.201v-2.828h-2.201v-0.226H66.318v-45.248v-1.986V55.687v-1.379
			V18.97h89.223h1.902h58.327h0.818h19.31v141.632v0.226H233.6l-28.866-6.331l-0.159,0.742l29.005,6.362v2.056h2.321v0.422h3.67
			h51.658v-0.422h2.084v-2.828h-2.084v-0.226H239.57V18.97h19.849h1.468h57.575h2.004h40.102v141.632h-35.421v0.226h-2.387
			l-28.866-6.331l-0.159,0.742l29.005,6.362v2.056h2.408v0.422h35.421v103.391h-16.548v0.373h-1.878v2.827h1.878v5.818h16.548h9.041
			h0.364V18.97V0.147V0h-49.507h-2.004h-57.575h-1.468h-42.83h-0.818L157.444,0L157.444,0z M89.082,244.705H67.078v22.004h22.004
			V244.705z M115.277,259.495c-1.153,0-2.087,0.934-2.087,2.087c0,1.153,0.934,2.087,2.087,2.087c1.153,0,2.087-0.934,2.087-2.087
			S116.43,259.495,115.277,259.495z M123.739,258.554c-1.672,0-3.027,1.356-3.027,3.028c0,1.671,1.355,3.027,3.027,3.027
			c1.672,0,3.027-1.356,3.027-3.027C126.765,259.91,125.411,258.554,123.739,258.554L123.739,258.554z M123.739,250.121
			c1.153,0,2.087,0.934,2.087,2.087s-0.934,2.087-2.087,2.087c-1.153,0-2.087-0.934-2.087-2.087S122.586,250.121,123.739,250.121z
			 M115.277,249.181c1.672,0,3.027,1.356,3.027,3.027c0,1.672-1.355,3.028-3.027,3.028c-1.672,0-3.028-1.356-3.028-3.028
			C112.249,250.537,113.605,249.181,115.277,249.181z M110.694,246.686h18.21c-0.022-0.534-0.253-1.018-0.607-1.372
			c-0.368-0.368-0.875-0.601-1.434-0.608h-14.509c-0.451,0.012-0.86,0.201-1.16,0.501c-0.308,0.308-0.501,0.735-0.501,1.202V246.686
			L110.694,246.686z M128.905,247.445h-18.211v19.264h18.211V247.445z M128.76,244.705l0.074,0.072
			c0.511,0.511,0.829,1.219,0.829,1.997v19.935h68.591v-22.004L128.76,244.705L128.76,244.705z M109.936,266.709v-20.301
			c0-0.659,0.263-1.26,0.687-1.703H91.345v22.004H109.936z M245.34,210.609c0-0.431,0.35-0.781,0.781-0.781
			c0.432,0,0.782,0.35,0.782,0.781c0,0.432-0.35,0.782-0.782,0.782C245.69,211.39,245.34,211.041,245.34,210.609L245.34,210.609z
			 M245.34,208.073c0-0.431,0.35-0.781,0.781-0.781c0.432,0,0.782,0.35,0.782,0.781c0,0.432-0.35,0.782-0.782,0.782
			C245.69,208.855,245.34,208.505,245.34,208.073L245.34,208.073z M245.34,227.258c0-0.431,0.35-0.782,0.781-0.782
			c0.432,0,0.782,0.351,0.782,0.782c0,0.432-0.35,0.782-0.782,0.782C245.69,228.04,245.34,227.691,245.34,227.258L245.34,227.258z
			 M232.35,217.835c0-1.026,0.416-1.954,1.088-2.626c0.672-0.672,1.6-1.088,2.626-1.088c1.025,0,1.954,0.416,2.626,1.088
			c0.672,0.672,1.089,1.6,1.089,2.626c0,1.025-0.417,1.954-1.089,2.626c-0.672,0.673-1.601,1.089-2.626,1.089
			c-1.026,0-1.954-0.416-2.626-1.089C232.766,219.789,232.35,218.86,232.35,217.835z M233.974,215.744
			c-0.534,0.535-0.866,1.274-0.866,2.09s0.332,1.555,0.866,2.09c0.535,0.535,1.274,0.866,2.09,0.866s1.555-0.331,2.09-0.866
			c0.535-0.535,0.866-1.274,0.866-2.09s-0.331-1.555-0.866-2.09c-0.535-0.534-1.274-0.866-2.09-0.866
			S234.509,215.211,233.974,215.744z M230.268,217.835c0-1.599,0.648-3.047,1.698-4.097c1.051-1.05,2.499-1.699,4.098-1.699
			c1.598,0,3.047,0.65,4.097,1.698c1.051,1.051,1.699,2.499,1.699,4.098s-0.648,3.048-1.698,4.097
			c-1.051,1.051-2.5,1.699-4.098,1.699c-1.599,0-3.047-0.648-4.097-1.698C230.916,220.883,230.268,219.434,230.268,217.835z
			 M232.501,214.273c-0.911,0.91-1.474,2.169-1.474,3.562c0,1.392,0.563,2.651,1.474,3.562c0.912,0.913,2.171,1.476,3.563,1.476
			c1.391,0,2.651-0.563,3.562-1.475c0.912-0.912,1.475-2.171,1.475-3.563s-0.563-2.651-1.474-3.562
			c-0.912-0.912-2.172-1.475-3.563-1.475C234.672,212.798,233.413,213.361,232.501,214.273L232.501,214.273z M244.39,228.837
			v-22.004h-15.318v22.004H244.39z M245.149,206.833v22.004h2.133v-22.004H245.149z M228.313,229.216v-23.142h16.077h3.651v23.522
			h-3.651h-16.077V229.216z M239.713,265.558c-0.322,0-0.615-0.131-0.827-0.342c-0.211-0.21-0.342-0.503-0.342-0.825
			c0-0.324,0.131-0.615,0.342-0.827c0.211-0.211,0.504-0.341,0.827-0.341c0.322,0,0.614,0.13,0.825,0.341
			c0.211,0.211,0.342,0.504,0.342,0.827c0,0.322-0.131,0.615-0.342,0.825C240.327,265.427,240.034,265.558,239.713,265.558
			L239.713,265.558z M244.329,260.321h-9.436c-0.156-1.079-0.445-3.085-0.722-5.179v6.173h10.977v-5.211
			c-0.198,1.686-0.393,3.235-0.513,4.218H244.329z M235.493,259.627h8.531l1.125-11.303v-0.052l-0.001-0.019l-0.001-0.051v-0.019
			l-0.001-0.052l-0.001-0.018l-0.002-0.052l-0.001-0.018l-0.002-0.052l-0.002-0.018l-0.004-0.052l-0.001-0.018l-0.005-0.052
			l-0.001-0.017l-0.005-0.052l-0.002-0.017l-0.005-0.053l-0.002-0.015l-0.007-0.053l-0.001-0.015l-0.007-0.053l-0.002-0.015
			l-0.008-0.052l-0.002-0.015l-0.008-0.053l-0.002-0.014l-0.009-0.053l-0.002-0.014l-0.011-0.053l-0.002-0.014l-0.011-0.053
			l-0.004-0.013l-0.011-0.053l-0.004-0.013l-0.012-0.053l-0.002-0.013l-0.013-0.053l-0.004-0.013l-0.013-0.053l-0.004-0.012
			l-0.014-0.054l-0.004-0.012l-0.014-0.053l-0.004-0.011l-0.015-0.054l-0.004-0.011l-0.017-0.053l-0.004-0.011l-0.06-0.182
			l-0.004-0.009l-0.019-0.053l-0.005-0.009l-0.019-0.053l-0.005-0.009l-0.02-0.053l-0.004-0.008l-0.021-0.054l-0.004-0.008
			l-0.022-0.053l-0.004-0.008l-0.05-0.113l-0.005-0.008l-0.024-0.053l-0.004-0.007l-0.025-0.053l-0.004-0.006l-0.026-0.053
			l-0.004-0.007l-0.026-0.052l-0.005-0.007l-0.058-0.111l-0.004-0.006l-0.028-0.052l-0.004-0.006l-0.03-0.052l-0.004-0.005
			l-0.03-0.052l-0.004-0.006l-0.031-0.052l-0.004-0.004l-0.032-0.052l-0.002-0.005l-0.033-0.052l-0.002-0.004l-0.033-0.052
			l-0.004-0.004l-0.033-0.051l-0.004-0.004l-0.034-0.051l-0.002-0.004l-0.035-0.051l-0.004-0.004l-0.035-0.05l-0.002-0.004
			l-0.037-0.05l-0.002-0.002l-0.038-0.051l-0.002-0.002l-0.038-0.05l-0.002-0.002l-0.039-0.05l-0.002-0.001l-0.04-0.05l-0.001-0.001
			l-0.04-0.05l-0.002-0.001l-0.041-0.048l-0.001-0.001l-0.042-0.048v-0.001l-0.044-0.048h-0.001l-0.044-0.048l-0.045-0.047v-0.001
			l-0.046-0.046l-0.046-0.047l-0.047-0.046l-0.047-0.046l-0.047-0.045h-0.001l-0.048-0.045l-0.048-0.044v-0.001l-0.05-0.043
			l-0.051-0.044l-0.102-0.084l-0.051-0.041h-0.001l-0.051-0.04h-0.001l-0.052-0.04l-0.053-0.039l-0.053-0.039h-0.001l-0.053-0.038
			h-0.001l-0.109-0.074l-0.055-0.035v-0.001l-0.112-0.07H242.5l-0.055-0.034h-0.001l-0.057-0.033l-0.057-0.033h-0.001l-0.058-0.032
			l-0.058-0.032h-0.001l-0.058-0.031h-0.001l-0.058-0.03h-0.001l-0.059-0.03h-0.001l-0.119-0.057h-0.001l-0.06-0.027l-0.061-0.026
			v-0.001l-0.061-0.025h-0.001l-0.123-0.05h-0.001l-0.061-0.024h-0.001l-0.063-0.022h-0.001l-0.063-0.022l-0.064-0.021h-0.001
			l-0.063-0.02h-0.001l-0.064-0.02h-0.001l-0.064-0.019l-0.065-0.018h-0.001l-0.064-0.018h-0.001l-0.065-0.017h-0.001l-0.131-0.031
			h-0.001l-0.066-0.014l-0.067-0.013v-0.001l-0.067-0.012l-0.067-0.012l-0.067-0.011h-0.001l-0.067-0.011l-0.068-0.008V242.9
			l-0.068-0.008l-0.068-0.007h-0.001l-0.068-0.006v-0.001l-0.07-0.005l-0.068-0.006h-0.001l-0.07-0.004l-0.07-0.004l-0.07-0.001
			H239.8l-0.07-0.002h-0.071h-0.071l-0.07,0.002h-0.001l-0.07,0.001l-0.07,0.004l-0.07,0.004h-0.001l-0.069,0.006l-0.07,0.005v0.001
			l-0.068,0.006H239.1l-0.067,0.007h-0.001l-0.136,0.018h-0.001l-0.067,0.011h-0.001l-0.066,0.011h-0.001l-0.066,0.012h-0.001
			l-0.133,0.026h-0.001l-0.066,0.014h-0.001l-0.131,0.031h-0.001l-0.064,0.017h-0.002l-0.129,0.035h-0.001l-0.064,0.019h-0.001
			l-0.064,0.02h-0.001l-0.063,0.02h-0.001l-0.063,0.021h-0.001l-0.063,0.022h-0.001l-0.061,0.022h-0.001l-0.061,0.024h-0.002
			l-0.246,0.102h-0.001l-0.06,0.027h-0.001l-0.119,0.057h-0.001l-0.118,0.059h-0.001l-0.058,0.031h-0.001l-0.115,0.064h-0.001
			l-0.115,0.066h-0.001l-0.055,0.034h-0.001l-0.055,0.034v0.001l-0.111,0.071h-0.001l-0.054,0.037v0.001l-0.054,0.035v0.001
			l-0.054,0.037v0.001l-0.053,0.038v0.001l-0.053,0.038v0.001l-0.105,0.08l-0.103,0.083v0.001l-0.1,0.084v0.001l-0.05,0.043v0.001
			l-0.145,0.132v0.001l-0.047,0.045v0.001l-0.047,0.045v0.001l-0.046,0.046v0.001l-0.046,0.046v0.001l-0.045,0.047l-0.045,0.048
			l-0.044,0.048h-0.001l-0.041,0.05h-0.001l-0.042,0.05l-0.001,0.001l-0.083,0.1l-0.001,0.001l-0.079,0.103l-0.002,0.001
			l-0.038,0.051l-0.116,0.159l-0.002,0.002l-0.035,0.052l-0.002,0.002l-0.034,0.053l-0.002,0.002l-0.033,0.052l-0.004,0.004
			l-0.067,0.109l-0.002,0.004l-0.059,0.099l-0.006,0.011l-0.002,0.005l-0.03,0.053l-0.004,0.005l-0.03,0.053l-0.002,0.005
			l-0.028,0.053l-0.004,0.005l-0.027,0.054l-0.004,0.005l-0.027,0.054l-0.002,0.006l-0.026,0.053l-0.004,0.006l-0.026,0.054
			l-0.004,0.006l-0.024,0.054l-0.004,0.006l-0.024,0.054l-0.004,0.007l-0.024,0.054l-0.004,0.007l-0.021,0.053l-0.004,0.008
			l-0.022,0.054l-0.004,0.008l-0.02,0.053l-0.004,0.009l-0.02,0.053l-0.004,0.009l-0.019,0.053l-0.004,0.009l-0.019,0.054
			l-0.004,0.009l-0.018,0.054l-0.004,0.009l-0.018,0.054l-0.002,0.011l-0.017,0.053l-0.004,0.011l-0.015,0.054l-0.004,0.011
			l-0.015,0.053l-0.002,0.012l-0.015,0.054l-0.002,0.012l-0.014,0.053l-0.002,0.013l-0.013,0.053l-0.004,0.013l-0.012,0.052
			l-0.002,0.014l-0.012,0.053l-0.002,0.013l-0.011,0.053l-0.004,0.014l-0.009,0.053l-0.002,0.014l-0.009,0.053l-0.002,0.014
			l-0.008,0.053l-0.002,0.015l-0.008,0.052l-0.002,0.015l-0.007,0.052l-0.002,0.017l-0.006,0.052l-0.002,0.017l-0.006,0.052
			l-0.001,0.018l-0.005,0.051l-0.002,0.018l-0.004,0.052l-0.001,0.018l-0.005,0.051l-0.001,0.019l-0.002,0.051l-0.001,0.019
			l-0.002,0.051l-0.001,0.019l-0.001,0.051v0.02l-0.001,0.051l-0.001,0.019v0.051L235.493,259.627L235.493,259.627z M233.666,266.89
			h12.271v-4.441c0-0.12-0.05-0.231-0.13-0.312c-0.076-0.074-0.176-0.124-0.289-0.13h-0.011h-0.012H233.99h-0.017
			c-0.084,0.005-0.158,0.041-0.213,0.096c-0.059,0.059-0.096,0.141-0.096,0.229L233.666,266.89L233.666,266.89z M262.316,255.539
			c0.851,0,1.543,0.691,1.543,1.543c0,0.853-0.692,1.543-1.543,1.543c-0.853,0-1.545-0.691-1.545-1.543
			S261.463,255.539,262.316,255.539L262.316,255.539z M262.316,256.141c0.52,0,0.941,0.422,0.941,0.941
			c0,0.521-0.422,0.942-0.941,0.942c-0.521,0-0.942-0.422-0.942-0.942C261.374,256.563,261.795,256.141,262.316,256.141z
			 M262.96,263.432c0.436,0.23,0.732,0.689,0.732,1.215c0,0.761-0.616,1.376-1.376,1.376c-0.761,0-1.376-0.615-1.376-1.376
			c0-0.527,0.296-0.985,0.731-1.215v-0.633h-7.111c-0.163,0-0.312-0.07-0.419-0.176c-0.11-0.111-0.178-0.261-0.178-0.42v-2.444
			c0-1.773,0.727-3.388,1.898-4.558s2.783-1.898,4.558-1.898h3.794c1.773,0,3.388,0.727,4.558,1.898s1.898,2.783,1.898,4.558v2.445
			c0,0.163-0.069,0.313-0.176,0.42s-0.259,0.176-0.422,0.176h-7.111L262.96,263.432L262.96,263.432z M261.671,262.041v-1.85h1.288
			v1.85h6.95v-2.283c0-1.565-0.642-2.989-1.675-4.022c-1.033-1.033-2.459-1.676-4.022-1.676h-3.794
			c-1.565,0-2.989,0.642-4.022,1.676c-1.032,1.033-1.675,2.459-1.675,4.022v2.283H261.671L261.671,262.041z M264.212,252.55h-3.794
			c-1.982,0-3.785,0.811-5.091,2.117c-1.306,1.306-2.117,3.108-2.117,5.091v5.859c0,0.371,0.152,0.709,0.397,0.953
			c0.243,0.244,0.582,0.397,0.953,0.397h15.511c0.371,0,0.709-0.152,0.953-0.397c0.244-0.243,0.397-0.582,0.397-0.953v-5.859
			c0-1.983-0.811-3.785-2.117-5.091C267.997,253.36,266.195,252.55,264.212,252.55L264.212,252.55z M291.024,257.209
			c0.853,0,1.543,0.691,1.543,1.543s-0.691,1.545-1.543,1.545s-1.543-0.692-1.543-1.545S290.171,257.209,291.024,257.209z
			 M291.024,257.811c0.521,0,0.942,0.422,0.942,0.941c0,0.521-0.422,0.942-0.942,0.942c-0.52,0-0.941-0.422-0.941-0.942
			C290.083,258.233,290.504,257.811,291.024,257.811L291.024,257.811z M291.024,211.927c3.232,0,6.169,1.321,8.298,3.451
			c2.129,2.128,3.451,5.066,3.451,8.297v37.463c0,1.275-0.522,2.435-1.362,3.275c-0.84,0.841-1.999,1.362-3.275,1.362h-14.224
			c-1.275,0-2.435-0.521-3.276-1.362c-0.84-0.84-1.362-1.999-1.362-3.275v-37.463c0-3.231,1.323-6.169,3.451-8.297
			C284.855,213.248,287.793,211.927,291.024,211.927L291.024,211.927z M298.786,215.913c-1.992-1.992-4.74-3.229-7.762-3.229
			c-3.022,0-5.77,1.236-7.761,3.229c-1.992,1.991-3.229,4.739-3.229,7.761v37.464c0,1.066,0.437,2.036,1.14,2.739
			s1.672,1.14,2.739,1.14h14.224c1.065,0,2.036-0.437,2.739-1.14c0.703-0.703,1.138-1.672,1.138-2.739v-37.464
			C302.014,220.652,300.777,217.904,298.786,215.913z M303.923,210.775h-25.798v56.149h25.798V210.775z M47.35,128.132v45.669h6.261
			v3.46v30.608v32.887H47.35v25.942H6.107V128.132C6.107,128.132,47.35,128.132,47.35,128.132z M3.626,266.699V128.132H1.528
			v138.567H3.626z M48.097,55.687h7.587v57.681h-7.587V55.687z M57.965,55.687h7.606v57.681h-7.606V55.687z M260.887,18.223v-7.606
			h57.575v7.606H260.887z M260.887,8.336V0.749h57.575v7.587H260.887z M157.444,18.223v-7.606h58.327v7.606H157.444z M157.444,8.336
			V0.749h58.327v7.587H157.444z M218.373,205.932l4.454,3.105l1.382,9.831v-12.936L218.373,205.932L218.373,205.932z
			 M224.209,221.588l-0.374,0.052l-1.71-12.169l-3.81-2.656v14.882h5.894V221.588L224.209,221.588z M218.991,235.815l3.836,2.675
			l1.382,9.831v-12.506L218.991,235.815L218.991,235.815z M223.827,251.04l-1.703-12.116l-3.81-2.656v14.772H223.827z
			 M204.004,235.815l7.821,3.196l2.213,10.463v-13.659H204.004z M213.596,251.04l-2.429-11.482l-8.836-3.61v15.092H213.596z
			 M203.329,205.932l8.497,3.472l2.213,10.463v-13.935H203.329z M213.651,221.696l-2.485-11.745l-8.836-3.611v15.357H213.651z
			 M202.331,254.515h11.708h4.276h5.894v12.953h-21.878L202.331,254.515L202.331,254.515z"/>
	</g>
</g>
</svg>
