<?xml version="1.0" encoding="UTF-8"?>
<!DOCTYPE svg PUBLIC "-//W3C//DTD SVG 1.0//EN" "http://www.w3.org/TR/2001/REC-SVG-20010904/DTD/svg10.dtd">
<!-- Creator: CorelDRAW X7 -->
<svg xmlns="http://www.w3.org/2000/svg" xml:space="preserve" width="250px" height="250px" version="1.0" style="shape-rendering:geometricPrecision; text-rendering:geometricPrecision; image-rendering:optimizeQuality; fill-rule:evenodd; clip-rule:evenodd"
viewBox="0 0 7745916 7745916"
 xmlns:xlink="http://www.w3.org/1999/xlink">
 <defs>
  <style type="text/css">
   <![CDATA[
    .fil1 {fill:#38960C}
    .fil0 {fill:#4BB01C}
    .fil3 {fill:#D4D4D4}
    .fil2 {fill:white}
   ]]>
  </style>
 </defs>
 <g id="Слой_x0020_1">
  <metadata id="CorelCorpID_0Corel-Layer"/>
  <g id="_630339392">
   <circle class="fil0" cx="3872958" cy="3872958" r="3872958"/>
   <path class="fil1" d="M7734352 4174169c-146049,1898932 -1661214,3414097 -3560147,3560147l-2094275 -2094276 -555324 -1665422 248405 -1210844 951461 -936713 1392463 -310835 1530278 570767 2087176 2087212 -37 -36z"/>
   <g>
    <path class="fil2" d="M3872958 1355539c1390267,0 2517419,1127152 2517419,2517419 0,1390267 -1127152,2517419 -2517419,2517419 -1390267,0 -2517419,-1127152 -2517419,-2517419 0,-1390267 1127152,-2517419 2517419,-2517419z"/>
    <path class="fil1" d="M3872958 1742747c1176408,0 2130211,953766 2130211,2130211 0,1176408 -953766,2130211 -2130211,2130211 -1176408,0 -2130211,-953766 -2130211,-2130211 0,-1176408 953766,-2130211 2130211,-2130211z"/>
    <path class="fil2" d="M3486994 3146664l-331181 -331182c-33155,-33045 -78130,-51671 -125008,-51671 -32020,0 -63491,8673 -90901,25140l-37985 22762c-386659,231937 -442100,682747 -123287,1001559l935835 935835c149013,149013 351418,232962 562423,232962 210895,0 413409,-83949 562423,-232962l22762 -37985c16467,-27446 25140,-58881 25140,-90901 0,-46878 -18626,-91816 -51781,-125008l-331072 -331181c-33155,-33045 -78129,-51708 -125007,-51708 -34875,0 -69054,10283 -98110,29641l-133791 89218c-29056,19432 -63125,29751 -98000,29751 -46878,0 -91816,-18663 -125007,-51818l-482464 -482463c-33155,-33155 -51818,-78130 -51818,-125008 0,-34874 10283,-69054 29751,-98000l89218 -133900c19322,-28946 29642,-63126 29642,-98000 0,-46878 -18627,-91853 -51709,-125008l0 0 -73 -73zm612412 140889c-48159,22982 -106015,2416 -128996,-45743 -22982,-48158 -2416,-106015 45743,-128996 71030,-33850 150953,-44499 227472,-31325 74214,12698 145793,47793 203357,105319l1244 1391c56831,57161 91962,128520 104514,202405 13138,76483 2525,156442 -31325,227472 -22981,48159 -80837,68725 -128996,45744 -48159,-22982 -68725,-80838 -45743,-128997 16687,-34984 21957,-74323 15552,-111723 -6184,-36375 -23457,-71469 -51342,-99281 -28251,-28361 -63345,-45634 -99720,-51818 -37400,-6404 -76739,-1135 -111724,15552l-36 0zm-288549 -270361c-43804,30191 -103965,19212 -134156,-24591 -30191,-43804 -19212,-103966 24592,-134156 151648,-104990 332791,-149599 509031,-133571 173934,15772 343770,90352 476206,222788 132436,132436 206980,302236 222788,476206 16029,176240 -28580,357384 -133570,509032 -30191,43804 -90352,54782 -134156,24592 -43804,-30191 -54782,-90353 -24592,-134156 78679,-113663 112200,-249759 100160,-382085 -11784,-129691 -67810,-256748 -167640,-356578 -99830,-99831 -226887,-155857 -356578,-167640 -132327,-12003 -268422,21481 -382085,100159z"/>
   </g>
   <path class="fil3" d="M5373302 2360904c388965,385963 629867,920867 629867,1512054 0,1176408 -953766,2130211 -2130211,2130211 -591187,0 -1126127,-240939 -1512054,-629867l-273801 273801c456005,459043 1087739,743274 1785855,743274 1390267,0 2517419,-1127152 2517419,-2517419 0,-698116 -284231,-1329850 -743274,-1785855l-273801 273801zm-2023538 2023537l374986 -374985 199697 199660c33191,33155 78129,51818 125007,51818 34875,0 68944,-10319 98000,-29751l133791 -89218c29056,-19358 63235,-29641 98110,-29641 46878,0 91852,18663 125007,51708l331072 331181c33155,33192 51781,78130 51781,125008 0,32020 -8673,63455 -25140,90901l-22762 37985c-149014,149013 -351528,232962 -562423,232962 -211005,0 -413410,-83949 -562423,-232962l-364703 -364666zm1001010 -1001010l141731 -141731c31179,45634 51343,96647 60235,148904 13138,76483 2525,156442 -31325,227472 -22981,48159 -80837,68725 -128996,45744 -48159,-22982 -68725,-80838 -45743,-128997 16687,-34984 21957,-74323 15552,-111723 -2305,-13503 -6111,-26824 -11454,-39669zm245733 -245733l137743 -137742c102721,123397 161272,272081 175068,423912 16029,176240 -28580,357384 -133570,509032 -30191,43804 -90352,54782 -134156,24592 -43804,-30191 -54782,-90353 -24592,-134156 78679,-113663 112200,-249759 100160,-382085 -9771,-107698 -50098,-213566 -120653,-303553z"/>
  </g>
 </g>
</svg>
