<?xml version="1.0" encoding="utf-8"?>
<!-- Generator: Adobe Illustrator 21.1.0, SVG Export Plug-In . SVG Version: 6.00 Build 0)  -->
<svg version="1.1" id="Слой_1" xmlns="http://www.w3.org/2000/svg" xmlns:xlink="http://www.w3.org/1999/xlink" x="0px" y="0px"
	 viewBox="0 0 39 38" style="enable-background:new 0 0 39 38;" xml:space="preserve">
<style type="text/css">
	.st0{fill:#D12329;}
	.st1{fill:#F0DE52;}
	.st2{fill:#7ED99E;}
	.st3{fill:#59A369;}
	.st4{fill:#1E6BC9;}
	.st5{fill:#F28C33;}
	.st6{fill:#FFD4D4;}
</style>
<g id="Слой_x0020_1">
	<g id="_1304050944">
		<path d="M7.917,30.373h4.953v5.88H7.917V30.373z M12.448,10.315h0.898h12.851h0.356L19.5,2.48L12.448,10.315z M9.12,11.797h4.226
			V18H4.523v10.891H0v8.844h6.435h1.482h6.435v-8.844c0.218-2.801,2.388-5.052,5.149-5.398c2.761,0.346,4.93,2.597,5.148,5.398
			v8.844h6.435h1.482H39v-8.844h-4.523V18h-8.28v-6.203h3.684L19.5,0.265L9.12,11.797z M14.828,11.797H19.5h5.215V18h-4.474h-1.482
			h-3.931V11.797z M26.197,19.482v0.001h-5.956v2.631c2.722,0.555,4.919,2.611,5.649,5.295h7.105v-7.927H26.197z M18.759,19.483
			h-5.413v-0.001H6.005v7.927h7.105c0.73-2.684,2.927-4.74,5.649-5.295V19.483z M1.482,30.373h4.953v5.88H1.482V30.373z
			 M37.518,30.373h-4.953v5.88h4.953V30.373z M31.084,30.373H26.13v5.88h4.953V30.373z"/>
		<polygon class="st0" points="14.828,11.797 24.715,11.797 24.715,18 14.828,18 		"/>
		<path class="st1" d="M6.005,19.482v7.927h7.105c0.73-2.684,2.927-4.74,5.649-5.295v-2.632H6.005z"/>
		<rect x="32.565" y="30.373" class="st1" width="4.953" height="5.88"/>
		<rect x="7.917" y="30.373" class="st2" width="4.953" height="5.88"/>
		<path class="st3" d="M32.995,19.482v7.927H25.89c-0.73-2.684-2.927-4.74-5.649-5.295v-2.632H32.995z"/>
		<rect x="26.13" y="30.373" class="st4" width="4.953" height="5.88"/>
		<rect x="1.482" y="30.373" class="st5" width="4.953" height="5.88"/>
		<polygon class="st6" points="12.448,10.315 26.553,10.315 19.5,2.48 		"/>
	</g>
</g>
</svg>
