<?xml version="1.0" encoding="UTF-8"?>
<!DOCTYPE svg PUBLIC "-//W3C//DTD SVG 1.0//EN" "http://www.w3.org/TR/2001/REC-SVG-20010904/DTD/svg10.dtd">
<!-- Creator: CorelDRAW X7 -->
<svg xmlns="http://www.w3.org/2000/svg" xml:space="preserve" width="134px" height="172px" version="1.0" style="shape-rendering:geometricPrecision; text-rendering:geometricPrecision; image-rendering:optimizeQuality; fill-rule:evenodd; clip-rule:evenodd"
viewBox="0 0 1896856 2438147"
 xmlns:xlink="http://www.w3.org/1999/xlink">
 <defs>
  <style type="text/css">
   <![CDATA[
    .fil2 {fill:#2A2A2A}
    .fil0 {fill:#C0ECFA}
    .fil1 {fill:#FFCF00}
    .fil3 {fill:#2A2A2A;fill-rule:nonzero}
   ]]>
  </style>
 </defs>
 <g id="Слой_x0020_1">
  <metadata id="CorelCorpID_0Corel-Layer"/>
  <g id="_1005427360">
   <rect class="fil0" x="33958" y="5570" width="1007049" height="28186"/>
   <rect class="fil0" x="1170561" y="352091" width="533287" height="129589"/>
   <polygon class="fil1" points="1896856,2027553 1896856,487233 1896856,366721 1896856,346538 1785001,346538 1729082,346538 1729082,487233 1195795,487233 1195795,346538 1066239,346538 1066239,33756 1043271,33756 1025235,33756 53805,33756 12801,33756 12784,33756 12784,44880 12801,44880 12801,60449 12784,60449 12784,78854 12801,78854 12801,346538 0,346538 0,366721 0,487233 0,1840786 144353,1840786 144353,2395935 1735508,2395935 1735508,2027553 "/>
   <path class="fil2" d="M938211 1564495l0 -7533 167623 0 0 -6744 10788 0 0 -15251 201044 -47178 -1175 -5486 -200020 46943 -10637 0 0 -3423 -167623 0 0 -1038590 282716 0 25519 0 426717 0 111838 0 42095 0 0 1038590 -443612 0 -32414 0 0 3423 -10570 0 0 20972 10570 0 0 6744 0 130361 6493 0 0 9295 20971 0 0 -9295 4950 0 0 -130361 443612 0 0 461900 -443612 0 0 -148749 -4950 0 0 -8724 -15250 0 -47178 -141954 -5503 1191 46960 140931 0 8556 -6493 0 0 148749 0 31139 0 56741 6493 0 0 7332 20971 0 0 -7332 4950 0 0 -56741 338518 0 0 203829 0 75213 -338518 0 0 -73234 -4950 0 0 -7902 -15250 0 -47178 -111016 -5503 1191 46960 109976 0 7751 -6493 0 0 73234 -5604 0 0 41172 -14798 0 0 15250 -215120 47179 1191 5503 214080 -46960 14647 0 0 4748 526795 0 0 -638 24595 0 0 -1908064 0 -120512 0 -20183 -111855 0 -111838 0 -426717 0 -25519 0 -154688 0 0 -346538 -22968 0 -18036 0 -971430 0 -41004 0 -17 0 0 11123 17 0 0 15553 -17 0 0 18405 17 0 0 301457 -12801 0 0 20183 0 120512 0 1908702 15368 0 54393 0 1015588 0 0 -4748 7382 0 0 -20972 -7382 0 0 -41172 -147138 0 0 -549679 -4178 0 0 -9530 -20972 0 0 9530 -4412 0 0 549679 -745354 0 0 -114540 0 -106486 0 -237317 0 -8439 3674 0 0 -5637 -3674 0 0 -29914 -37884 0 -55650 0 0 -1339477 113868 0 0 -58201 246712 0 0 -27280 226999 0 0 19714 -220120 34947 889 5537 219231 -34813 0 1895 22448 0 0 58201 228861 0 0 1077262 4412 0 0 9446 -46943 171885 5486 1191 47195 -172908 15234 0 0 -9614 4178 0zm888885 488727l-56104 41088 -11107 119438 0 -163747 67211 0 0 3221zm-65449 200608l14227 -155460 51222 -38185 0 193645 -65449 0zm-1691886 -145813l55650 0 0 -237317 -10284 0 -26391 19663 -18975 207537 0 10117zm55650 106486l-55650 0 0 114540 55650 0 0 -114540zm-20233 -343803l-21324 15603 -14093 151517 0 -167120 35417 0zm1141268 -1389020l426717 0 0 -56406 -426717 0 0 56406zm0 -73317l426717 0 0 -56272 -426717 0 0 56272zm-351974 1448261l0 5637 -30317 0 0 -5637 30317 0zm-60634 0l0 5637 -30300 0 0 -5637 30300 0zm-60617 0l0 5637 -30316 0 0 -5637 30316 0zm-60633 0l0 5637 -30300 0 0 -5637 30300 0zm-60617 0l0 5637 -30317 0 0 -5637 30317 0zm-60617 0l0 5637 -30317 0 0 -5637 30317 0zm-60634 0l0 5637 -30316 0 0 -5637 30316 0zm-60616 0l0 5637 -30317 0 0 -5637 30317 0zm-60634 0l0 5637 -30317 0 0 -5637 30317 0zm-60617 0l0 5637 -30317 0 0 -5637 30317 0zm-60634 0l0 5637 -30316 0 0 -5637 30316 0zm-60616 0l0 5637 -30317 0 0 -5637 30317 0zm-43974 -1464133l246712 0 226999 0 22448 0 0 -45953 345447 0 0 -301457 -971430 0 0 301457 129824 0 0 45953zm841606 -365815l-971430 0 0 -15553 971430 0 0 15553z"/>
   <g>
    <path class="fil3" d="M1627797 1984367l199769 0 0 -427690 -202588 0 0 427690 2819 0zm194148 -5620l-191330 0 0 -416433 191330 0 0 416433z"/>
    <path class="fil3" d="M1726280 1970207c23958,0 45752,-9798 61540,-25585 15787,-15788 25602,-37582 25602,-61540l0 -277851c0,-9462 -3875,-18069 -10100,-24294 -6241,-6224 -14831,-10100 -24294,-10100l-105496 0c-9462,0 -18069,3876 -24294,10100 -6224,6225 -10100,14832 -10100,24294l0 277851c0,23958 9815,45752 25603,61540 15787,15787 37581,25585 61539,25585zm57564 -29562c-14765,14765 -35149,23942 -57564,23942 -22414,0 -42799,-9177 -57563,-23942 -14781,-14780 -23942,-35148 -23942,-57563l0 -277851c0,-7902 3239,-15100 8440,-20317 5217,-5201 12415,-8439 20317,-8439l105496 0c7903,0 15100,3238 20301,8439 5218,5217 8456,12415 8456,20317l0 277851c0,22415 -9177,42783 -23941,57563z"/>
    <path class="fil2" d="M1726280 1634357c6325,0 11442,-5117 11442,-11443 0,-6325 -5117,-11442 -11442,-11442 -6325,0 -11459,5117 -11459,11442 0,6326 5134,11443 11459,11443zm0 -4463c3859,0 6980,-3121 6980,-6980 0,-3858 -3121,-6979 -6980,-6979 -3859,0 -6979,3121 -6979,6979 0,3859 3120,6980 6979,6980z"/>
   </g>
   <g>
    <path class="fil3" d="M1486917 1674572l28152 0c16241,0 31022,-6644 41726,-17364 10704,-10688 17364,-25469 17364,-41726l0 -43453c0,-4279 -1778,-8205 -4597,-11040 -2835,-2835 -6744,-4597 -11039,-4597l-115060 0c-4278,0 -8187,1778 -11023,4597 -2835,2835 -4597,6744 -4597,11040l0 43453c0,16257 6644,31022 17348,41726 10704,10720 25485,17364 41726,17364zm28152 -5620l-28152 0c-14697,0 -28052,-6023 -37750,-15704 -9680,-9697 -15703,-23052 -15703,-37766l0 -43453c0,-2735 1124,-5252 2936,-7064 1812,-1812 4328,-2936 7063,-2936l115060 0c2734,0 5251,1124 7063,2936 1812,1812 2936,4312 2936,7064l0 43453c0,14697 -6023,28069 -15704,37766 -9680,9681 -23052,15704 -37749,15704z"/>
    <path class="fil3" d="M1486917 1657744c-11594,0 -22163,-4764 -29814,-12432 -7667,-7650 -12432,-18237 -12432,-29830l0 -16928 112644 0 0 16928c0,11610 -4765,22163 -12416,29830 -7667,7668 -18237,12432 -29830,12432l-28152 0zm-33790 -8455c8674,8690 20636,14076 33790,14076l28152 0c13137,0 25116,-5386 33807,-14076 8674,-8674 14076,-20637 14076,-33807l0 -18120c0,-1208 -520,-2332 -1309,-3120 -805,-805 -1912,-1309 -3120,-1309l-115060 0c-1191,0 -2298,520 -3104,1309 -805,822 -1308,1929 -1308,3120l0 18120c0,13154 5385,25133 14076,33807z"/>
    <path class="fil2" d="M1505774 1588236c3222,-1712 5420,-5101 5420,-9010 0,-5637 -4564,-10201 -10201,-10201 -5637,0 -10201,4564 -10201,10201 0,3909 2198,7298 5436,9010l0 24042 9546 0 0 -24042z"/>
    <path class="fil2" d="M1500993 1646772c6325,0 11459,-5117 11459,-11442 0,-6325 -5134,-11442 -11459,-11442 -6325,0 -11442,5117 -11442,11442 0,6325 5117,11442 11442,11442zm0 -4463c3859,0 6979,-3120 6979,-6979 0,-3859 -3120,-6980 -6979,-6980 -3859,0 -6980,3121 -6980,6980 0,3859 3121,6979 6980,6979z"/>
   </g>
   <g>
    <path class="fil3" d="M1388433 2018593l171633 0 0 -123800 -174452 0 0 123800 2819 0zm166013 -5620l-163194 0 0 -112560 163194 0 0 112560z"/>
    <path class="fil3" d="M1388433 1921872l171633 0 0 -27079 -174452 0 0 27079 2819 0zm166013 -5621l-163194 0 0 -15838 163194 0 0 15838z"/>
    <path class="fil3" d="M1472840 2009718c11862,0 22600,-4815 30384,-12583 7802,-7801 12600,-18539 12600,-30401 0,-11845 -4798,-22599 -12583,-30384 -7801,-7784 -18539,-12599 -30401,-12599 -11845,0 -22599,4815 -30384,12599 -7784,7785 -12599,18539 -12599,30384 0,11862 4815,22600 12599,30384 7785,7785 18539,12600 30384,12600zm26425 -16559c-6762,6761 -16090,10939 -26425,10939 -10318,0 -19663,-4178 -26407,-10939 -6762,-6761 -10939,-16107 -10939,-26425 0,-10318 4177,-19663 10922,-26407 6761,-6778 16106,-10956 26424,-10956 10335,0 19663,4178 26425,10939 6761,6761 10939,16106 10939,26424 0,10318 -4178,19664 -10939,26425z"/>
    <path class="fil3" d="M1472840 1994283c7617,0 14496,-3087 19479,-8070 4983,-4983 8070,-11862 8070,-19479 0,-7600 -3087,-14495 -8070,-19478 -4983,-4983 -11862,-8070 -19479,-8070 -7600,0 -14495,3087 -19478,8070 -4983,4983 -8070,11878 -8070,19478 0,7617 3087,14496 8070,19479 4983,4983 11878,8070 19478,8070zm15503 -12046c-3960,3959 -9446,6425 -15503,6425 -6056,0 -11526,-2466 -15502,-6425 -3959,-3960 -6409,-9446 -6409,-15503 0,-6056 2450,-11526 6409,-15502 3976,-3959 9446,-6426 15502,-6426 6057,0 11543,2467 15503,6426 3959,3976 6425,9446 6425,15502 0,6057 -2466,11543 -6425,15503z"/>
    <path class="fil2" d="M1402946 1914825c3204,0 5805,-2601 5805,-5788 0,-3205 -2601,-5805 -5805,-5805 -3188,0 -5789,2600 -5789,5805 0,3187 2601,5788 5789,5788z"/>
    <path class="fil2" d="M1545235 1914825c3204,0 5805,-2601 5805,-5788 0,-3205 -2601,-5805 -5805,-5805 -3205,0 -5788,2600 -5788,5805 0,3187 2583,5788 5788,5788z"/>
    <path class="fil2" d="M1526427 1914825c3205,0 5805,-2601 5805,-5788 0,-3205 -2600,-5805 -5805,-5805 -3187,0 -5788,2600 -5788,5805 0,3187 2601,5788 5788,5788z"/>
   </g>
   <g>
    <path class="fil3" d="M1722421 2232975l0 -98718 -38957 0c-2080,0 -3959,856 -5335,2215 -1359,1359 -2215,3254 -2215,5335l0 85330c0,2315 957,4429 2467,5939 1526,1527 3640,2466 5956,2466l38084 0 0 -2567zm-5150 -93584l0 91017 -32934 0c-906,0 -1712,-369 -2316,-956 -587,-604 -956,-1426 -956,-2315l0 -85330c0,-654 268,-1258 705,-1695 436,-436 1040,-721 1694,-721l33807 0z"/>
    <path class="fil3" d="M1681065 2227137l0 -89122 -101336 0c-12599,0 -24058,5151 -32380,13456 -8322,8321 -13472,19780 -13472,32380 0,12600 5150,24059 13472,32381 8322,8321 19781,13472 32380,13472l101336 0 0 -2567zm-5151 -83988l0 81421 -96185 0c-11207,0 -21374,-4580 -28756,-11962 -7382,-7366 -11946,-17550 -11946,-28740 0,-11207 4564,-21391 11946,-28757 7382,-7382 17549,-11962 28756,-11962l96185 0z"/>
    <path class="fil3" d="M1668549 2218496l0 -69995c-18354,-2651 -72697,-10486 -88820,-10486 -12616,0 -24075,5151 -32380,13472 -8305,8288 -13472,19764 -13472,32364 0,12617 5167,24076 13472,32381 8305,8304 19764,13472 32380,13472 18137,0 68956,-6527 88820,-8943l0 -2265zm-5134 -65549l0 63268 -83837 8355c-11140,-50 -21257,-4614 -28605,-11962 -7365,-7382 -11946,-17566 -11946,-28757 0,-11174 4581,-21358 11946,-28740 7348,-7348 17465,-11912 28605,-11962l83837 9798z"/>
    <path class="fil3" d="M1707389 2184254c0,-2399 -973,-4564 -2534,-6124 -1560,-1577 -3724,-2550 -6123,-2550 -2399,0 -4564,973 -6124,2550 -1577,1560 -2550,3725 -2550,6124 0,2382 973,4563 2550,6124 1560,1560 3741,2533 6124,2533 2399,0 4563,-973 6123,-2533 1561,-1578 2534,-3742 2534,-6124z"/>
   </g>
   <g>
    <path class="fil3" d="M309258 2170077l-113767 0c-4463,0 -8540,1845 -11493,4781 -2953,2953 -4781,7030 -4781,11510l0 113751c0,4479 1828,8556 4781,11492 2936,2953 7013,4782 11493,4782l113767 0c4480,0 8540,-1829 11493,-4782 2953,-2936 4781,-7013 4781,-11492l0 -113751c0,-4480 -1828,-8557 -4781,-11510 -2953,-2936 -7030,-4781 -11493,-4781zm-113767 5637l113767 0c2920,0 5587,1191 7517,3121 1929,1929 3120,4597 3120,7533l0 113751c0,2919 -1191,5587 -3120,7516 -1930,1929 -4597,3137 -7517,3137l-113767 0c-2920,0 -5587,-1208 -7517,-3137 -1929,-1929 -3137,-4597 -3137,-7516l0 -113751c0,-2936 1208,-5604 3137,-7533 1913,-1930 4581,-3121 7517,-3121z"/>
    <path class="fil3" d="M297145 2181133l-89558 0c-4765,0 -9093,1946 -12231,5084 -3154,3137 -5100,7482 -5100,12247l0 61422c0,4748 1946,9094 5100,12231 3138,3138 7466,5101 12231,5101l89558 0c4765,0 9110,-1963 12248,-5101 3137,-3137 5083,-7466 5083,-12231l0 -61422c0,-4781 -1946,-9110 -5083,-12247 -3155,-3138 -7483,-5084 -12248,-5084zm-89558 5621l89558 0c3221,0 6157,1308 8271,3439 2114,2114 3440,5050 3440,8271l0 61422c0,3205 -1326,6141 -3440,8255 -2130,2131 -5050,3439 -8271,3439l-89558 0c-3204,0 -6140,-1308 -8254,-3439 -2131,-2131 -3456,-5050 -3456,-8255l0 -61422c0,-3221 1325,-6140 3456,-8271 2114,-2114 5050,-3439 8254,-3439z"/>
    <path class="fil2" d="M247601 2283660c-3238,1711 -5436,5100 -5436,9010 0,5637 4564,10200 10201,10200 5637,0 10201,-4563 10201,-10200 0,-3910 -2198,-7299 -5419,-9010l0 -24042 -9547 0 0 24042z"/>
    <path class="fil2" d="M252366 2212792c-6325,0 -11442,5117 -11442,11442 0,6325 5117,11443 11442,11443 6325,0 11459,-5118 11459,-11443 0,-6325 -5134,-11442 -11459,-11442zm0 4463c-3859,0 -6979,3121 -6979,6979 0,3859 3120,6980 6979,6980 3859,0 6996,-3121 6996,-6980 0,-3858 -3137,-6979 -6996,-6979z"/>
   </g>
   <g>
    <path class="fil3" d="M564863 2155833l-107091 0c-5771,0 -11023,2365 -14814,6157 -3792,3792 -6158,9043 -6158,14815l0 153480 146316 0 0 -156198c0,-5017 -2063,-9597 -5368,-12902 -3306,-3305 -7869,-5352 -12885,-5352zm-107091 5620l107091 0c3456,0 6627,1426 8908,3725 2299,2282 3725,5436 3725,8909l0 150577 -135075 0 0 -147859c0,-4212 1745,-8054 4513,-10839 2785,-2768 6627,-4513 10838,-4513z"/>
    <polygon class="fil3" points="580298,2176150 439619,2176150 439619,2181771 580298,2181771 "/>
    <path class="fil2" d="M543505 2194656c-12399,0 -22448,10049 -22448,22448 0,12398 10049,22448 22448,22448 12398,0 22448,-10050 22448,-22448 0,-12399 -10050,-22448 -22448,-22448z"/>
    <path class="fil2" d="M480741 2201635c-8540,0 -15469,6929 -15469,15469 0,8540 6929,15469 15469,15469 8556,0 15485,-6929 15485,-15469 0,-8540 -6929,-15469 -15485,-15469z"/>
    <path class="fil2" d="M480741 2264165c12398,0 22448,10066 22448,22465 0,12398 -10050,22448 -22448,22448 -12399,0 -22449,-10050 -22449,-22448 0,-12399 10050,-22465 22449,-22465z"/>
    <path class="fil2" d="M543505 2271144c8540,0 15469,6929 15469,15486 0,8539 -6929,15468 -15469,15468 -8557,0 -15486,-6929 -15486,-15468 0,-8557 6929,-15486 15486,-15486z"/>
   </g>
   <polygon class="fil1" points="53805,45081 1025235,45081 1025235,346538 679788,346538 679788,392491 183629,392491 183629,346538 53805,346538 "/>
  </g>
 </g>
</svg>
