<?xml version="1.0" encoding="UTF-8"?>
<!DOCTYPE svg PUBLIC "-//W3C//DTD SVG 1.0//EN" "http://www.w3.org/TR/2001/REC-SVG-20010904/DTD/svg10.dtd">
<!-- Creator: CorelDRAW X7 -->
<svg xmlns="http://www.w3.org/2000/svg" xml:space="preserve" width="134px" height="172px" version="1.0" style="shape-rendering:geometricPrecision; text-rendering:geometricPrecision; image-rendering:optimizeQuality; fill-rule:evenodd; clip-rule:evenodd"
viewBox="0 0 49875033 64107460"
 xmlns:xlink="http://www.w3.org/1999/xlink">
 <defs>
  <style type="text/css">
   <![CDATA[
    .fil1 {fill:#5B5B5B}
    .fil0 {fill:#A2D9F7}
    .fil2 {fill:#FEFEFE}
    .fil3 {fill:#5B5B5B;fill-rule:nonzero}
    .fil4 {fill:#FEFEFE;fill-rule:nonzero}
   ]]>
  </style>
 </defs>
 <g id="Слой_x0020_1">
  <metadata id="CorelCorpID_0Corel-Layer"/>
  <g id="_1027259760">
   <g>
    <polygon class="fil0" points="49875033,53311496 49875033,12811081 49875033,9642389 49875033,9112141 46933968,9112141 45463656,9112141 45463656,12811081 31441651,12811081 31441651,9112141 28035186,9112141 28035186,888010 27431268,888010 26957045,888010 1414729,888010 336588,888010 336147,888010 336147,1180485 336588,1180485 336588,1589419 336147,1589419 336147,2073347 336588,2073347 336588,9112141 0,9112141 0,9642389 0,12811081 0,48400751 3795549,48400751 3795549,62997557 45632611,62997557 45632611,53311496 "/>
    <path class="fil1" d="M24668864 41136535l0 -198070 4407407 0 0 -177338 283651 0 0 -400994 5286154 -1240479 -30880 -144694 -5259244 1234745 -279681 0 0 -89992 -4407407 0 0 -27308632 7433612 0 670970 0 11219897 0 2940625 0 1106814 0 0 27308632 -11664123 0 -852278 0 0 89992 -277917 0 0 551422 277917 0 0 177338 0 3427199 170720 0 0 244390 551423 0 0 -244390 130135 0 0 -3427199 11664123 0 0 12144522 -11664123 0 0 -3910686 -130135 0 0 -229392 -400995 0 -1240479 -3732908 -144693 31321 1234744 3705557 0 225422 -170720 0 0 3910686 0 818751 0 1491928 170720 0 0 193218 551423 0 0 -193218 130135 0 0 -1491928 8900836 0 0 5359824 0 1977620 -8900836 0 0 -1926007 -130135 0 0 -207776 -400995 0 -1240479 -2918567 -144693 31320 1234744 2891658 0 203365 -170720 0 0 1926007 -147340 0 0 1082111 -389083 0 0 400994 -5656269 1240480 31321 144693 5628918 -1234745 385113 0 0 124842 13851284 0 0 -16322 646708 0 0 -50170154 0 -3168692 0 -530248 -2941065 0 -2940625 0 -11219897 0 -670970 0 -4067290 0 0 -9112141 -603918 0 -474223 0 -25542316 0 -1078141 0 -441 0 0 292474 441 0 0 409376 -441 0 0 483928 441 0 0 7926363 -336588 0 0 530248 0 3168692 0 50186476 404082 0 1430169 0 26703391 0 0 -124842 194100 0 0 -551422 -194100 0 0 -1082111 -3868778 0 0 -14452996 -109844 0 0 -250566 -551422 0 0 250566 -116019 0 0 14452996 -19597985 0 0 -3011647 0 -2799901 0 -6239894 0 -222333 96609 0 0 -147781 -96609 0 0 -786549 -996089 0 -1463254 0 0 -35219996 2994002 0 0 -1530307 6486930 0 0 -717290 5968594 0 0 518778 -5787727 918890 23380 145576 5764347 -915361 0 49407 590242 0 0 1530307 6017560 0 0 28325454 116019 0 0 248361 -1234303 4519456 144252 31321 1240920 -4546807 400553 0 0 -252331 109844 0zm23371918 12850343l-1475164 1080346 -292034 3140019 0 -4305505 1767198 0 0 85140zm-1720878 5274684l374085 -4088024 1346793 -1003588 0 5091612 -1720878 0zm-44485653 -3833928l1463254 0 0 -6239894 -270418 0 -693909 517014 -498927 5456874 0 266006zm1463254 2799901l-1463254 0 0 3011647 1463254 0 0 -3011647zm-532013 -9039795l-560686 410258 -370555 3983915 0 -4394173 931241 0zm30007954 -36522234l11219897 0 0 -1483105 -11219897 0 0 1483105zm0 -1927772l11219897 0 0 -1480017 -11219897 0 0 1480017zm-9254629 38079892l0 147781 -797135 0 0 -147781 797135 0zm-1594271 0l0 147781 -796695 0 0 -147781 796695 0zm-1593831 0l0 147781 -797136 0 0 -147781 797136 0zm-1594272 0l0 147781 -796695 0 0 -147781 796695 0zm-1593830 0l0 147781 -797136 0 0 -147781 797136 0zm-1593831 0l0 147781 -797136 0 0 -147781 797136 0zm-1594272 0l0 147781 -797136 0 0 -147781 797136 0zm-1593831 0l0 147781 -797135 0 0 -147781 797135 0zm-1594271 0l0 147781 -797136 0 0 -147781 797136 0zm-1593831 0l0 147781 -797136 0 0 -147781 797136 0zm-1594272 0l0 147781 -797136 0 0 -147781 797136 0zm-1593830 0l0 147781 -797136 0 0 -147781 797136 0zm-1156222 -38497209l6486930 0 5968594 0 590242 0 0 -1208276 9083026 0 0 -7926363 -25542316 0 0 7926363 3413524 0 0 1208276zm22128792 -9618567l-25542316 0 0 -409376 25542316 0 0 409376z"/>
   </g>
   <g>
    <polygon class="fil2" points="19014360,56785014 4298446,56785014 4298446,61223742 19014360,61223742 "/>
    <path class="fil3" d="M18931426 56710903l-14716355 0 0 4586951 14799289 0 0 -4586951 -82934 0zm-14549605 147781l14466230 0 0 4291388 -14466230 0 0 -4291388z"/>
   </g>
   <g>
    <polygon class="fil4" points="23777324,56710903 19264485,56710903 19264485,61297854 23851435,61297854 23851435,56710903 "/>
    <path class="fil3" d="M21482085 58146366l0 160574 -147782 -126607 -95726 112049 243508 208658 0 328207 -213952 -213511 -59554 -348940 -145575 24704 24703 143370 -81169 -80729 -104550 104550 101021 101021 -196306 -18087 -13676 146899 372762 33967 215716 215717 -302620 0 -288946 -204688 -85580 119989 119107 84699 -114696 0 0 147340 142929 0 -151752 126165 94404 113373 287622 -239538 286739 0 -209099 208658 -348940 59554 25145 145575 143370 -24263 -81170 81170 104550 104549 101020 -101020 -17645 196306 146458 13234 33967 -372320 215717 -215716 0 303061 -204688 288504 120430 84699 84258 -118666 0 115137 147781 0 0 -142929 126165 151310 113372 -94403 -239537 -287181 0 -294239 232479 232480 16764 316296 147340 -7500 -7941 -152633 90874 90874 104550 -104991 -113372 -112931 193659 -14999 -11028 -147340 -320266 24704 -224981 -224980 328648 0 236009 212187 98815 -109843 -114255 -102344 128812 0 0 -147340 -160574 0 127048 -147781 -112490 -96168 -208659 243949 -336147 0 238215 -238215 316296 -16322 -7500 -147781 -153075 8382 90875 -90875 -104550 -104549 -113372 112931 -14999 -193218 -147340 11028 24704 319825 -224539 224980 0 -328647 211746 -235568 -109402 -98815 -102344 113373 0 -128371 -147781 0zm2295239 -1435463l-4512839 0 0 4586951 4586950 0 0 -4586951 -74111 0zm-4364617 147781l4290947 0 0 4291388 -4290947 0 0 -4291388z"/>
   </g>
   <g>
    <path class="fil4" d="M8131492 57084547l-2991355 0c-117343,0 -224539,48084 -302179,125283 -77641,77640 -125725,184837 -125725,302621l0 2990913c0,117784 48084,224981 125725,302621 77199,77199 184395,125724 302179,125724l2991355 0c117784,0 224539,-48525 302179,-125724 77641,-77640 125725,-184837 125725,-302621l0 -2990913c0,-117784 -48084,-224981 -125725,-302621 -77640,-77199 -184836,-125283 -302179,-125283z"/>
    <g>
     <path class="fil3" d="M8131492 57084547l-2991355 0c-117343,0 -224539,48084 -302179,125283 -77641,77640 -125725,184837 -125725,302621l0 2990913c0,117784 48084,224981 125725,302621 77199,77199 184395,125724 302179,125724l2991355 0c117784,0 224539,-48525 302179,-125724 77641,-77640 125725,-184837 125725,-302621l0 -2990913c0,-117784 -48084,-224981 -125725,-302621 -77640,-77199 -184836,-125283 -302179,-125283zm-2991355 147781l2991355 0c76758,0 146899,31321 197630,82052 50731,50731 82051,120872 82051,198071l0 2990913c0,77200 -31320,147341 -82051,198071 -50731,50731 -120872,82052 -197630,82052l-2991355 0c-76758,0 -146899,-31321 -197630,-82052 -50731,-50730 -82493,-120871 -82493,-198071l0 -2990913c0,-77199 31762,-147340 82493,-197630 50290,-51172 120431,-82493 197630,-82493z"/>
     <path class="fil3" d="M7812991 57374816l-2354794 0c-125283,0 -239096,51172 -321589,133664 -82934,82493 -134106,196748 -134106,322031l0 1615005c0,125283 51172,239097 134106,321590 82493,82934 196306,134105 321589,134105l2354794 0c125283,0 239537,-51171 322030,-134105 82493,-82052 133665,-196307 133665,-321590l0 -1615005c0,-125283 -51172,-239538 -133665,-322031 -82934,-82492 -196747,-133664 -322030,-133664zm-2354794 147781l2354794 0c84698,0 161897,34850 217480,90433 55584,56025 90434,132782 90434,217481l0 1615005c0,84258 -34850,161457 -90434,217040 -56024,56024 -132782,90874 -217480,90874l-2354794 0c-84257,0 -161456,-34850 -217040,-90874 -56024,-55583 -90874,-132782 -90874,-217040l0 -1615005c0,-84257 34850,-161456 90874,-217481 55584,-55583 132783,-90433 217040,-90433z"/>
     <path class="fil1" d="M6510311 60070608c-85140,44996 -142929,134547 -142929,237332 0,148223 119990,268212 268212,268212 148222,0 268212,-119989 268212,-268212 0,-102785 -57789,-192336 -142488,-237332l0 -632150 -251007 0 0 632150z"/>
     <path class="fil1" d="M6635594 58207243c-166309,0 -300856,134547 -300856,300855 0,166309 134547,301298 300856,301298 166309,0 301297,-134989 301297,-301298 0,-166308 -134988,-300855 -301297,-300855zm0 117342c-101462,0 -183513,82052 -183513,183513 0,101462 82051,183955 183513,183955 101462,0 183954,-82493 183954,-183955 0,-101461 -82492,-183513 -183954,-183513z"/>
    </g>
   </g>
   <g>
    <path class="fil4" d="M14852225 56709580l-2815782 0c-151751,0 -289827,62200 -389524,161897 -99698,100139 -161898,237774 -161898,389525l0 4035528 3847162 0 0 -4106551c0,-132341 -54260,-252331 -141164,-339235 -86904,-86904 -206893,-141164 -338794,-141164z"/>
    <g>
     <path class="fil3" d="M14852225 56709580l-2815782 0c-151751,0 -289827,62200 -389524,161897 -99698,100139 -161898,237774 -161898,389525l0 4035528 3847162 0 0 -4106551c0,-132341 -54260,-252331 -141164,-339235 -86904,-86904 -206893,-141164 -338794,-141164zm-2815782 148222l2815782 0c90875,0 174250,37056 234245,97492 60435,59994 97932,143369 97932,234685l0 3958770 -3551600 0 0 -3887747c0,-110725 45879,-211746 118666,-284975 73229,-72788 174250,-118225 284975,-118225z"/>
     <polygon class="fil3" points="15258072,57243798 11559132,57243798 11559132,57392020 15258072,57392020 "/>
     <path class="fil1" d="M14290657 57730373c-326001,0 -590242,264241 -590242,590242 0,326001 264241,590242 590242,590242 326001,0 590242,-264241 590242,-590242 0,-326001 -264241,-590242 -590242,-590242z"/>
     <path class="fil1" d="M12640361 57913886c-224539,0 -406729,182190 -406729,406729 0,224980 182190,407170 406729,407170 224980,0 407170,-182190 407170,-407170 0,-224539 -182190,-406729 -407170,-406729z"/>
     <path class="fil1" d="M12640361 59558447c326001,0 590242,264242 590242,590243 0,326001 -264241,590242 -590242,590242 -326001,0 -590242,-264241 -590242,-590242 0,-326001 264241,-590243 590242,-590243z"/>
     <path class="fil1" d="M14290657 59741520c224539,0 406729,182190 406729,407170 0,224539 -182190,406729 -406729,406729 -224980,0 -407170,-182190 -407170,-406729 0,-224980 182190,-407170 407170,-407170z"/>
    </g>
   </g>
   <g>
    <path class="fil2" d="M22586693 28273841l0 -3511897c0,-329089 -268652,-597742 -597741,-597742l-2891658 0c-329089,0 -597742,268653 -597742,597742l0 3511897c0,329089 268653,597742 597742,597742l2891658 0c329089,0 597741,-268653 597741,-597742z"/>
    <path class="fil3" d="M22655070 28182526l0 -3329267c0,-211305 -74994,-403200 -195865,-542158 -120431,-138959 -287181,-225422 -470253,-225422l-2891217 0c-183072,0 -349381,86463 -470253,225422 -120872,138958 -195865,330853 -195865,542158l0 3329267c0,210864 74993,402758 195865,541717 120872,139399 287181,225862 470253,225862l2891217 0c183072,0 349822,-86463 470253,-225421 120871,-138958 195865,-330853 195865,-542158zm-136312 -3329267l0 3329267c0,168073 -59995,320707 -155721,431432 -96168,110285 -228510,179102 -374085,179102l-2891217 0c-145575,0 -278358,-68376 -374085,-179102 -96168,-110725 -155721,-263359 -155721,-431432l0 -3329267c0,-168073 59553,-320707 155721,-431433 95727,-110284 228510,-179101 374085,-179101l2891217 0c145575,0 277917,68817 374085,179101 95726,110726 155721,263360 155721,431433z"/>
    <path class="fil2" d="M22586693 20054563l0 3511897c0,329089 -268652,597742 -597741,597742l-2891658 0c-329089,0 -597742,-268653 -597742,-597742l0 -3511897c0,-329089 268653,-597742 597742,-597742l2891658 0c329089,0 597741,268653 597741,597742z"/>
    <path class="fil3" d="M22518758 20145878l0 3329708c0,167632 -59995,320266 -155721,430992 -96168,110284 -228510,179101 -374085,179101l-2891217 0c-145575,0 -278358,-68376 -374085,-179101 -96168,-110726 -155721,-263360 -155721,-430992l0 -3329708c0,-168073 59553,-320707 155721,-430991 95727,-110726 228510,-179543 374085,-179543l2891217 0c145575,0 277917,68817 374085,179543 95726,110284 155721,262918 155721,430991zm136312 3329708l0 -3329708c0,-211305 -74994,-403200 -195865,-542158 -120431,-138958 -287181,-225421 -470253,-225421l-2891217 0c-183072,0 -349381,86463 -470253,225421 -120872,138958 -195865,330853 -195865,542158l0 3329708c0,210423 74993,402318 195865,541276 120872,139400 287181,225863 470253,225863l2891217 0c183072,0 349822,-86463 470253,-225422 120871,-138958 195865,-330853 195865,-541717z"/>
    <path class="fil2" d="M22586693 18859080l0 -3511898c0,-329089 -268652,-597742 -597741,-597742l-2891658 0c-329089,0 -597742,268653 -597742,597742l0 3511898c0,329088 268653,597741 597742,597741l2891658 0c329089,0 597741,-268653 597741,-597741z"/>
    <path class="fil3" d="M22655070 18768205l0 -3329708c0,-211304 -74994,-403199 -195865,-542158 -120431,-138958 -287181,-225421 -470253,-225421l-2891217 0c-183072,0 -349381,86463 -470253,225421 -120872,138959 -195865,330854 -195865,542158l0 3329708c0,210423 74993,402318 195865,541717 120872,138959 287181,225422 470253,225422l2891217 0c183072,0 349822,-86463 470253,-225422 120871,-138958 195865,-330853 195865,-541717zm-136312 -3329708l0 3329708c0,167633 -59995,320266 -155721,430992 -96168,110284 -228510,179102 -374085,179102l-2891217 0c-145575,0 -278358,-68377 -374085,-179102 -96168,-110726 -155721,-263359 -155721,-430992l0 -3329708c0,-168073 59553,-320707 155721,-430991 95727,-110726 228510,-179543 374085,-179543l2891217 0c145575,0 277917,68817 374085,179543 95726,110284 155721,262918 155721,430991z"/>
    <path class="fil2" d="M22586693 28871583l0 -4546366c0,-88668 63083,-161015 139841,-161015l676264 0c76758,0 139400,72347 139400,161015l0 5405261c0,88669 -62642,160574 -139400,160574l-676264 0c-52054,0 -97491,-32644 -121313,-81169l-3986120 0c-65730,0 -119549,-61759 -119549,-137635l0 -663471c0,-75435 53819,-137194 119549,-137194l3967592 0z"/>
    <path class="fil3" d="M22655070 28871583l0 -4546366c0,-22498 7940,-43231 21174,-58230 12352,-14999 30439,-24262 50290,-24262l676264 0c19410,0 37497,9263 50290,23821 12793,15440 21175,36173 21175,58671l0 5405261c0,22498 -7941,43232 -20734,58230 -13234,14999 -31321,24263 -50731,24263l-676264 0c-12793,0 -25145,-4412 -35732,-11029 -11028,-7499 -20292,-18086 -26468,-30879l-19852 -39703 -4025381 0c-14117,0 -26910,-7058 -36174,-17645 -9264,-10588 -14998,-25145 -14998,-41467l0 -663471c0,-15881 5734,-30880 14998,-41467 9264,-10588 22057,-17205 36174,-17205l4035969 0 0 -78522zm-136312 -4546366l0 4467843 -3899657 0c-51614,0 -98815,24263 -132342,63524 -33967,38820 -55142,92639 -55142,152193l0 663471c0,59553 21175,113372 55142,152633 33527,38821 80728,63083 132342,63083l3951711 0c14558,19410 32204,36173 51614,48966 30438,20734 66170,32645 104108,32645l676264 0c56907,0 108961,-26910 146458,-70141 37938,-43673 61318,-103668 61318,-168956l0 -5405261c0,-65729 -23380,-125724 -61318,-168955 -37497,-43232 -89551,-70583 -146458,-70583l-676264 0c-56907,0 -108961,26910 -146458,70583 -37937,43231 -61318,103226 -61318,168955z"/>
    <path class="fil2" d="M22586693 19596221l0 4428581c0,76758 62642,139400 139400,139400l676705 0c76758,0 139400,-62642 139400,-139400l0 -4428581c0,-76758 -62642,-139400 -139400,-139400l-676705 0c-76758,0 -139400,62642 -139400,139400z"/>
    <path class="fil3" d="M22518758 19617836l0 4385351c0,66170 23381,125724 60877,169397 37497,43231 89551,70141 146899,70141l676264 0c56907,0 108961,-26910 146458,-70583 37938,-43231 61318,-102785 61318,-168955l0 -4385351c0,-65729 -23380,-125724 -60877,-168955 -37938,-43673 -89992,-70582 -146899,-70582l-676264 0c-56907,0 -108961,26909 -146458,70141 -37937,43672 -61318,103667 -61318,169396zm136312 4385351l0 -4385351c0,-22498 7940,-43231 20733,-58230 13234,-14998 30880,-24262 50731,-24262l676264 0c19410,0 37497,9264 50290,23821 13234,15440 21175,36173 21175,58671l0 4385351c0,22498 -8382,43231 -21175,58230 -12793,14999 -30880,24262 -50290,24262l-676264 0c-19410,0 -37497,-9263 -50290,-24262 -13234,-14999 -21174,-35732 -21174,-58230z"/>
    <path class="fil2" d="M22586693 19295806l0 -4546366 -3971121 0c-63524,0 -116020,-59994 -116020,-133223l0 -644061c0,-73229 52496,-133224 116020,-133224l3997590 0c25145,-40585 66612,-67053 113372,-67053l676264 0c76758,0 139400,72347 139400,161015l0 5362912c0,88669 -62642,161015 -139400,161015l-676264 0c-76758,0 -139841,-72346 -139841,-161015z"/>
    <path class="fil3" d="M22655070 19295806l0 -4624888 -4039498 0c-13235,0 -25145,-6176 -33527,-15881 -8823,-10146 -14116,-23822 -14116,-38820l0 -644061c0,-14558 5293,-28674 14116,-38379 8382,-9705 20292,-16322 33527,-16322l4031998 0 20734 -32645c6617,-10587 15440,-19410 25586,-25586 9705,-5734 20733,-8822 32644,-8822l676264 0c19410,0 37497,9264 50290,23821 13234,14999 21175,35732 21175,58671l0 5362912c0,22939 -7941,43673 -20734,58230 -13234,14999 -31321,24263 -50731,24263l-676264 0c-19851,0 -37497,-9264 -50731,-23822 -12793,-14998 -20733,-35732 -20733,-58671zm-136312 -4467843l0 4467843c0,65729 23381,125724 60877,168956 37938,43672 89992,70582 146899,70582l676264 0c56907,0 108961,-26910 146458,-70141 37938,-43673 61318,-103668 61318,-169397l0 -5362912c0,-65729 -23380,-125724 -61318,-168955 -37497,-43673 -89551,-70582 -146458,-70582l-676264 0c-33526,0 -65729,9705 -94403,26468 -18528,11028 -34850,24704 -49408,41026l-3967151 0c-50731,0 -96610,23821 -130136,61759 -33085,38379 -53819,91315 -53819,149546l0 644061c0,58230 20734,111166 53819,149545 33526,38379 79405,62201 130136,62201l3903186 0z"/>
    <path class="fil2" d="M22397445 29338307c458342,-529366 657296,-1162840 726995,-1847926 -685528,-39703 -763168,-610094 -1171661,-611417 -62642,649354 -244832,1276652 -726995,1848367 256742,543923 668764,693027 1171661,610976z"/>
    <path class="fil3" d="M22445529 29393449c236009,-272182 404965,-571274 523631,-889775 118666,-317619 187042,-654648 222774,-1004471l8382 -82934 -72788 -4411c-358645,-20292 -542599,-198071 -701409,-352028 -142928,-137635 -267770,-258507 -473340,-258948l-60877 -441 -7059 70141c-30438,317619 -89992,629945 -200717,931242 -110285,300856 -272182,592448 -506868,870806l-35291 41467 24263 50730c136311,288505 314972,473341 526718,575244 209982,100580 450843,118666 713761,75876l22498 -3529 16322 -18969zm398789 -951534c-109843,294239 -264683,570391 -479076,822722 -230715,34408 -439814,17204 -619798,-69259 -171603,-82493 -318943,-229392 -435844,-456136 228509,-280123 388201,-573921 499368,-876541 108078,-293357 169396,-594654 203364,-899921 125283,22939 220128,114255 326442,217040 164103,158809 352469,341440 708908,382466 -35732,306150 -99697,601271 -203364,879629z"/>
    <path class="fil2" d="M22450382 14179049c458783,529366 657736,1162839 726995,1848367 -685528,39262 -762727,610094 -1171662,610976 -62200,-649355 -244390,-1276652 -726995,-1847926 256742,-543923 668765,-693468 1171662,-611417z"/>
    <path class="fil3" d="M22418620 14252719c214393,252331 368791,528483 478634,822722 104109,278358 167633,573479 203806,880070 -356880,41026 -545246,223216 -709349,382025 -105873,102785 -201159,194542 -326001,217481 -33968,-305708 -95727,-607005 -203365,-900362 -111166,-302620 -270858,-595977 -499368,-876541 116902,-226744 263801,-373643 435403,-455695 179984,-86463 389525,-104108 620240,-69700zm603918 760963c-119108,-318502 -288063,-617593 -523631,-889775l-16322 -18528 -22498 -3970c-263359,-42790 -503779,-24704 -713761,76317 -211746,101462 -390848,286298 -527160,575243l-23821 50731 34850 41026c235126,278358 396583,570391 507308,870806 110285,301297 170279,613623 200718,931683l6617 69700 60877 -441c205570,-442 330853,-121313 473341,-258948 158809,-153516 343205,-331736 701409,-352028l72788 -4412 -8382 -82492c-35291,-350264 -104109,-687293 -222333,-1004912z"/>
   </g>
   <g>
    <polygon class="fil2" points="16442527,24933105 16442527,19014360 12373472,19014360 12373472,24933105 "/>
    <path class="fil3" d="M16516638 24933105l0 -5992856 -4216836 0 0 6066967 4216836 0 0 -74111zm-147781 -5844634l0 5770523 -3921273 0 0 -5770523 3921273 0z"/>
   </g>
   <g>
    <polygon class="fil2" points="4612536,30625988 4612536,14255366 2123196,14255366 2123196,30625988 "/>
    <polygon class="fil2" points="3286476,26675158 3286476,18016506 2826811,18016506 2826811,26675158 "/>
    <path class="fil2" d="M2826811 18016506c-439815,2953859 -498486,5849046 0,8658652l0 -8658652z"/>
    <polygon class="fil2" points="2475224,22548756 2475224,22143350 2204365,22143350 2204365,22548756 "/>
    <path class="fil3" d="M4686647 30625988l0 -16444292 -2637562 0 0 16517962 2637562 0 0 -73670zm-148222 -16296511l0 16222399 -2341559 0 0 -16222399 2341559 0z"/>
    <path class="fil3" d="M3360587 26675158l0 -8732322 -607888 0 0 8806433 607888 0 0 -74111zm-148222 -8584540l0 8510870 -311884 0 0 -8510870 311884 0z"/>
    <path class="fil3" d="M2752699 18009889c-219686,1477812 -344087,2942389 -351586,4389762 -7500,1449138 102785,2880188 352910,4288300 6617,40144 44996,67053 85139,59995 36174,-6176 61319,-37497 61319,-72788l0 -8658652c0,-40584 -33086,-73670 -73670,-73670 -38820,0 -70582,29116 -74112,67053zm-204246 4390644c5293,-1078140 76758,-2166427 204246,-3264419l0 6578246c-145134,-1093139 -209981,-2198630 -204246,-3313827z"/>
    <path class="fil3" d="M2549335 22548756l0 -479517 -419081 0 0 553628 419081 0 0 -74111zm-147781 -331295l0 257183 -123519 0 0 -257183 123519 0z"/>
   </g>
   <g>
    <g>
     <polygon class="fil2" points="23506907,38818798 23506907,30347630 19211107,30347630 19211107,38818798 "/>
     <path class="fil3" d="M23578371 38747333l0 -8471168 -4438728 0 0 8542633 4438728 0 0 -71465zm-142929 -8327798l0 8256334 -4152870 0 0 -8256334 4152870 0z"/>
    </g>
    <path class="fil3" d="M20716711 35463504c-19410,27792 -32645,58230 -39262,89110 -7058,32203 -7940,65288 -2205,97050 5734,31762 17645,62642 35291,90875 16763,26468 39702,50730 67494,70140 27791,18969 58230,32204 89110,38821 32644,7058 65729,7940 97050,2205 31762,-5293 63083,-17645 90874,-35291 26468,-17204 50731,-39702 70141,-67494 71023,-101461 134547,-202923 189689,-303944 55584,-101461 103227,-202482 142929,-303502 38379,-97933 69700,-196748 93962,-296445 20734,-87345 36174,-174691 45437,-261595l227628 0 0 -13234 19410 -9264c15439,-8381 29997,-19410 41908,-31762 15881,-16763 28674,-36173 37055,-57789 7941,-20733 12352,-43672 11911,-67494l1765 -15881c1323,-5735 3529,-11469 6617,-17204 3088,-6176 7499,-12793 12351,-18969l15881 -16322 17205 -12352 16322 -7940 16322 -5294 12793 -1324 9705 883 11028 3970 11911 7940 12793 12793 12352 15881 9264 14999 6617 13675c13675,42791 -2206,55584 -37938,81170l-22498 12352 -26909 11028 -31321 9705c-22498,5735 -43673,15881 -61759,29115 -18969,14117 -34409,31762 -46320,51613 -11469,19410 -19410,41467 -22939,64406 -3088,22057 -2206,45438 3529,68377 6176,22939 16322,44113 29556,62200 14117,18528 31762,34409 51172,45878 19852,11911 41908,19852 64848,22940 22056,3529 45437,2205 68376,-3529 22939,-5735 45437,-12352 66171,-20293 21615,-7940 42790,-16763 62200,-26468 19851,-9705 39261,-20734 57348,-32644 18528,-12352 36173,-25145 52054,-38820 15440,-12352 29556,-26028 42349,-39703 13235,-14116 25586,-29115 35733,-43672 11028,-14999 20733,-30880 29556,-47643 8823,-17205 16322,-33968 22057,-50290 6617,-18087 11910,-37056 15439,-56466 3530,-18527 6176,-37937 7059,-57348 441,-19410 0,-38820 -2206,-57789 -1765,-19410 -5294,-39261 -10146,-58230 -4412,-17204 -10146,-34409 -16763,-51172 -6176,-16763 -14117,-33526 -23381,-50731 -8822,-15881 -18527,-32203 -29556,-48084 -10587,-15439 -22498,-31320 -35732,-46760 -21616,-25586 -44114,-47643 -67494,-65730 -24704,-19410 -50731,-35291 -77199,-47643 -28233,-13234 -56907,-22939 -86022,-28674 -29997,-6617 -60877,-9263 -90874,-8381l-38379 2206 -38821 6175 -37937 9705 -36615 13235 -33526 14998 -32645 18087 -32203 21175 -29115 22498c-16322,14116 -32203,29115 -46760,44996 -14558,16322 -27792,33085 -40144,51172 -10146,14998 -19410,30438 -27350,45437l-11470 23821 -19410 0c-7058,-89551 -20733,-179543 -40585,-269094 -22057,-101020 -52936,-201159 -91756,-300856 -40585,-104991 -90875,-209540 -149987,-313649 -58671,-103226 -127048,-206452 -204247,-308796 -20733,-26909 -45437,-48966 -72788,-64847 -28674,-16764 -59994,-27792 -92197,-32203 -32203,-4412 -65289,-2647 -97492,5734 -30880,7941 -60877,22057 -87786,42350 -26469,20292 -48525,45437 -64848,72787 -16763,28233 -27350,59995 -31761,92198 -4412,31762 -2647,65289 5734,97050 7941,30880 22057,60877 42350,87787 67052,89110 125724,178661 175572,267770 50290,89110 91316,177779 123960,266448 31762,86904 55583,174249 71023,260712 15440,87786 22498,175132 21616,261154 -882,86021 -9705,173367 -26468,260712 -17205,88228 -42349,177337 -74994,266447 -33085,89551 -74111,179543 -122195,269094 -48966,90433 -104991,181308 -168514,271741zm86904 163662c-2647,-15440 -2647,-31321 882,-46760 3088,-14558 9264,-29116 18528,-42791 67053,-95727 126606,-191454 177778,-286298 51172,-95286 93963,-189689 128812,-283652 35292,-95727 62201,-191454 80729,-287180 17645,-94404 27791,-189248 28674,-283652 882,-94845 -7059,-190130 -23822,-284534 -16763,-94403 -42349,-189248 -76758,-283651 -34850,-94845 -78963,-189690 -131900,-284534 -52936,-93963 -114696,-188366 -186160,-283211 -9705,-12793 -16322,-27350 -20292,-41908 -3971,-14998 -4853,-31321 -2647,-46760 2205,-15440 7499,-30439 15440,-44114 7499,-13234 18086,-25145 30879,-34850 13234,-9705 27351,-16322 41908,-20292 15440,-3971 31321,-4853 46761,-2647 15440,2206 30880,7499 44114,15440 13234,7499 25145,18086 34850,30879 74111,98374 139399,196748 194982,294680 56466,98815 103668,197630 142488,296445 37938,97932 67494,195865 88669,294239 21174,98815 33967,198071 38379,296885l2646 62642 234686 0 14557 -45437c4412,-14558 10146,-28233 16763,-41467 6618,-13234 14117,-26910 22940,-39703 8381,-12351 18527,-24703 29115,-36614 10587,-11911 22498,-22939 34408,-33085l21616 -17205 22498 -14998 24263 -13234 23380 -10588 26468 -9264 26028 -6617 26909 -4411 26468 -1765c20734,-441 41467,1765 61759,5735 19411,3970 38821,10587 57348,19410 18087,7941 36174,18969 52937,32644 17204,13676 33526,29115 48084,46761l27792 36173c8381,12352 15881,24263 22056,36615 6176,11028 11911,23380 16764,36173 4852,11911 8822,24263 11910,35732 3088,13234 5735,26910 7059,39703 1323,13675 1764,26468 1323,39261 -441,11911 -2206,24704 -4411,37497 -2647,12793 -6176,25586 -10588,37937 -3970,11470 -9264,22940 -14557,33527 -5735,11028 -12352,21616 -20292,32203 -7500,11028 -16323,21616 -25586,31321 -9264,10146 -19411,19851 -29998,28674 -11911,10146 -25145,19851 -38820,28674 -14116,9263 -29115,17645 -44555,25144 -15881,7941 -32644,14999 -49407,21175 -17205,6176 -34850,11911 -52937,16322 -6176,1765 -12352,1765 -18528,882 -5734,-441 -11910,-2646 -16763,-5734 -5294,-3088 -9705,-7059 -13234,-11911 -3529,-4411 -6176,-10146 -7499,-15881 -1765,-6176 -2206,-12793 -1324,-18528 883,-5735 3088,-11469 6176,-16763 3088,-4853 7058,-9705 11911,-13234 4852,-3529 10146,-6176 15881,-7500l43231 -13234c13234,-4411 26469,-10146 38820,-15881 12793,-6176 24704,-12793 36174,-19851 11028,-6617 21616,-14999 31762,-22939l20292 -18969 17204 -20733 14558 -23381 11028 -24703 6617 -24263 3088 -25586 -1323 -25586 -4411 -24704 -9264 -28674 -13234 -27791 -16322 -26469 -20293 -26027c-9705,-11469 -20292,-21615 -30879,-30438 -11029,-8823 -22940,-16763 -35291,-22498 -13235,-6617 -26910,-11470 -39703,-14558 -14557,-3088 -28674,-4411 -42349,-4411l-18528 1323 -18969 3088 -17645 4853 -18528 6176 -17646 8381c-16322,8823 -36173,19851 -49848,32644 -13234,10588 -25145,22940 -35291,35733 -10146,12793 -19410,26468 -26910,41467 -7499,14998 -13234,30438 -17204,46319 -3529,15440 -5294,31762 -4852,47643 0,6176 -1324,12352 -3530,17645 -2205,5735 -5293,11029 -9263,14999 -3971,4411 -9264,7941 -14558,10146 -5294,2647 -11470,3971 -17204,3971 -56907,1764 -114255,1323 -171162,882l-112490 -441 -4411 60436c-7500,96609 -22498,193218 -44996,289386 -22498,96609 -52937,194100 -91316,290710 -37938,97050 -83375,193659 -135870,289386 -53819,97933 -114696,194983 -181749,291592 -9705,13234 -21175,23821 -33527,31762 -13675,8382 -28232,14558 -43231,16763 -15881,2647 -31762,2647 -47202,-882 -14998,-3088 -29556,-9264 -42349,-18528 -13234,-9264 -24263,-20733 -32203,-33085 -8382,-13675 -14116,-28674 -16763,-43673z"/>
   </g>
   <g>
    <polygon class="fil2" points="32026159,14236397 24849730,14236397 24849730,29033039 32026159,29033039 "/>
    <path class="fil3" d="M32026159 14162286l-7250540 0 0 14944864 7324651 0 0 -14944864 -74111 0zm-7102318 147781l7028207 0 0 14648861 -7028207 0 0 -14648861z"/>
    <polygon class="fil2" points="31376363,14236397 25550257,14236397 25550257,28382802 31376363,28382802 "/>
    <path class="fil3" d="M31376363 14162286l-5899776 0 0 14294627 5973446 0 0 -14294627 -73670 0zm-5751995 147781l5677884 0 0 13999065 -5677884 0 0 -13999065z"/>
    <path class="fil2" d="M25550257 19938102l0 8444700 5826106 0 0 -10626567 -3781433 -122636c-159251,745523 -622445,548775 -1345470,1519278 -547452,735377 89110,610976 -699203,785225z"/>
    <path class="fil3" d="M25476587 19938102l0 8518811 5973446 0 0 -10772142 -3914656 -127048 -12793 60436c-80287,376732 -247038,497162 -491428,674059 -221892,160133 -503779,363938 -840808,816987 -258066,346293 -266889,517454 -271741,614063 -3088,56025 -3088,58672 -384231,142929l-57789 12793 0 59112zm147781 8371030l0 -8311917c432756,-96609 433638,-109843 441579,-266447 3970,-80287 11469,-223216 243067,-533777 323354,-434962 594653,-630827 808164,-785225 259389,-187043 439814,-317619 535982,-702733l3649092 118666 0 10481433 -5677884 0z"/>
    <path class="fil3" d="M27522142 17619924c-37937,202923 26028,353351 104550,538188 135871,318942 319825,752140 20734,1785725 -88669,307473 -80729,544364 -74994,704056 3088,95286 5294,153957 -441,156163 -48084,22057 -247478,-68818 -758757,-302180l-190130 -86904c-313649,-142928 -577891,-140723 -773315,-139399 -121313,882 -211746,1323 -250125,-33086l-98815 109844c80287,72346 195424,71464 349823,70582 181748,-1324 427021,-3088 711114,126165l190130 86904c555392,253655 772432,352469 881393,302180 94845,-43232 91757,-138959 86463,-294680 -5293,-150428 -12793,-374085 69259,-658619 314090,-1084317 118225,-1544864 -26468,-1884540 -68818,-162339 -124842,-294239 -95286,-453049l-145135 -27350z"/>
    <path class="fil2" d="M30628193 22112912c-806841,-399671 -1435903,-1059172 -1855425,-2023940 996971,1268712 1546629,1834691 1855425,2023940z"/>
    <path class="fil3" d="M29865025 21513405c-88669,-78522 -173808,-162338 -255860,-250566 -140723,-151751 -271300,-318501 -391289,-500691 249684,303944 464077,551422 647149,751257zm-363939 -150428c316296,341441 681558,610976 1091375,814341l2206 1323c33967,17204 76317,5735 96609,-27351 21175,-34849 10146,-80287 -24704,-101461 -149104,-91316 -358204,-276152 -654207,-594654 -298650,-321589 -684205,-779049 -1181808,-1412082 -20292,-25586 -56024,-35291 -87345,-21616 -37056,15881 -54260,59554 -38379,97051 213069,489663 479958,902568 796253,1244449z"/>
    <polygon class="fil3" points="29673130,17754029 30533790,18641157 30639663,18538372 29778562,17651244 "/>
    <polygon class="fil3" points="30302634,28334277 29254049,27147617 29143324,27245108 30192349,28431769 "/>
    <polygon class="fil2" points="32026159,14236397 24779589,14236397 24779589,12960186 32026159,12960186 "/>
    <path class="fil3" d="M31952048 14162286l-7098348 0 0 -1128430 7098348 0 0 1128430zm-7172459 147781l7320681 0 0 -1423992 -7394792 0 0 1423992 74111 0z"/>
    <path class="fil2" d="M30572169 13900691c-2468607,-333941 -3599243,-242184 -4256979,0 198953,758757 295121,1534719 0,2375527 1046819,-283652 2301856,320707 2990914,262477 514807,-43673 903008,-147340 1266065,-262477 81610,-648031 -341882,-1738965 0,-2375527z"/>
    <path class="fil3" d="M30581874 13827462c-1237833,-167191 -2141283,-228068 -2818429,-216598 -683323,11911 -1138136,97050 -1473841,220569l-62642 22939 16763 64847c98374,374526 171162,753463 183072,1140341 11911,385555 -37055,780814 -181307,1192395l-46320 131901 134989 -36615c621121,-168073 1328265,-12352 1938359,121313 400112,88228 760080,167191 1039761,143811 259831,-22057 489222,-59554 699645,-106314 208658,-45878 398788,-101462 582743,-159692l44996 -14116 5735 -46761c32644,-261154 -11911,-583184 -58672,-919331 -71464,-513484 -147781,-1061819 50731,-1430610l50290 -93521 -105873 -14558zm-2816223 -69258c651560,-11029 1517513,45878 2697116,202482 -164545,401435 -91316,929477 -22057,1425757 42349,306150 83375,599948 63524,833751 -165427,51613 -337030,100579 -524072,142046 -202923,44996 -425257,81169 -679793,102785 -257625,21616 -607447,-55142 -996972,-140723 -584507,-128812 -1256360,-276152 -1877041,-150428 118666,-384231 158810,-755669 147781,-1118284 -11469,-377614 -78522,-745082 -170720,-1107697 316296,-106314 741112,-179102 1362234,-189689z"/>
    <polygon class="fil3" points="27724625,14012740 27909903,14691210 28051949,14652390 27867112,13973920 "/>
    <polygon class="fil3" points="27078358,14109791 27448472,15189696 27588313,15141612 27218199,14061707 "/>
   </g>
   <g>
    <polygon class="fil2" points="43373104,14029504 43373104,22167613 47812273,22167613 47812273,14029504 "/>
    <path class="fil3" d="M43298993 14103615l0 8138109 4586950 0 0 -8212220 -4586950 0 0 74111zm148222 7989886l0 -7916216 4290947 0 0 7916216 -4290947 0z"/>
    <path class="fil2" d="M43373104 19842376c-935212,-32203 -1683823,-800665 -1683823,-1743818 0,-943152 748611,-1711614 1683823,-1743817l0 3487635z"/>
    <path class="fil3" d="M43298993 19764294c-417758,-33526 -792284,-220569 -1067113,-505103 -289827,-300414 -468488,-709790 -468488,-1160633 0,-450843 178661,-860219 468488,-1160633 274829,-284534 649355,-471577 1067113,-505103l0 3331472zm-1173427 -402759c317178,328207 756993,537747 1245332,554511l76317 2646 0 -3640268 -76317 2647c-488339,16763 -928154,226303 -1245332,554510 -315854,327324 -510396,772432 -510396,1262977 0,490545 194542,935653 510396,1262977z"/>
    <path class="fil2" d="M42235410 20511140c-827134,-485692 -1382085,-1384290 -1382085,-2412582 0,-1028292 554951,-1926890 1382085,-2412582l0 589360c-577009,400553 -954623,1067553 -954623,1823222 0,755669 377614,1422669 954623,1823222l0 589360z"/>
    <path class="fil3" d="M42161298 20378799c-359968,-235568 -660824,-554510 -875658,-929477 -228068,-397465 -358204,-858895 -358204,-1350764 0,-491869 130136,-952857 358204,-1350764 214834,-374967 515690,-693909 875658,-929477l0 419081c-288945,208217 -527600,481722 -694350,799783 -166309,317619 -260272,678911 -260272,1061377 0,382908 93963,743758 260272,1061377 166750,318061 405405,592007 694350,799783l0 419081zm-1004029 -855807c248802,434521 608770,798018 1040644,1052113l111167 65289 0 -757434 -31762 -22057c-284093,-197188 -518337,-461430 -679794,-769344 -154839,-296444 -243067,-634356 -243067,-993001 0,-358645 88228,-696556 243067,-993001 161457,-307914 395701,-572156 679794,-769344l31762 -22057 0 -757434 -111167 65730c-431874,253654 -791842,617152 -1040644,1051672 -240420,419963 -377614,906097 -377614,1424434 0,518337 137194,1004471 377614,1424434z"/>
    <path class="fil2" d="M41291375 18320009l412022 0c-9263,-72346 -14116,-146458 -14116,-221451 0,-74993 4853,-148663 14116,-221451l-412022 0c-7058,73229 -10588,146899 -10588,221451 0,74552 3530,148663 10588,221451z"/>
    <path class="fil3" d="M41291375 18394120l495839 0 -10588 -82934c-4411,-36614 -7940,-71905 -10146,-106314 -2206,-33526 -3088,-69258 -3088,-106314 0,-37055 882,-72347 3088,-105873 2206,-34409 5735,-70141 10146,-106314l10588 -82934 -562451 0 -6617 66612c-3529,37938 -6617,76317 -8382,114696 -2205,40584 -3088,78522 -3088,113813 0,35291 883,73670 3088,113814 1765,38379 4853,76758 8382,114695l6617 67053 66612 0zm329971 -148222l-262036 0 -2206 -40143c-1764,-32645 -2647,-68377 -2647,-107197 0,-38820 883,-74552 2647,-106755l2206 -40585 262036 0 -2206 32203c-2647,39261 -3970,78082 -3970,115137 0,37056 1323,75876 3970,115578l2206 31762z"/>
   </g>
   <g>
    <polygon class="fil2" points="40626580,38731011 47803009,38731011 47803009,23934369 40626580,23934369 "/>
    <path class="fil3" d="M40626580 38805122l7250540 0 0 -14944864 -7324210 0 0 14944864 73670 0zm7102759 -148222l-7028648 0 0 -14648861 7028648 0 0 14648861z"/>
    <polygon class="fil2" points="41276817,38731011 47102482,38731011 47102482,24584165 41276817,24584165 "/>
    <path class="fil3" d="M41276817 38805122l5899776 0 0 -14294627 -5973887 0 0 14294627 74111 0zm5751554 -148222l-5677443 0 0 -13998624 5677443 0 0 13998624z"/>
    <path class="fil2" d="M47102482 33028865l0 -8444700 -5825665 0 0 10627008 3781433 122637c158810,-745523 622004,-549217 1345029,-1519720 547452,-734935 -89110,-610535 699203,-785225z"/>
    <path class="fil3" d="M47176593 33028865l0 -8518370 -5973887 0 0 10772143 3914656 127047 13235 -60436c80287,-377172 246596,-497603 490986,-674058 221892,-160574 503779,-363939 840808,-816987 258066,-346293 266889,-517896 272182,-614505 2647,-56025 3088,-58671 383790,-142929l58230 -12793 0 -59112zm-148222 -8370589l0 8311476c-432315,96610 -433197,110285 -441138,266448 -4411,80728 -11910,223215 -243067,534217 -323795,434521 -595094,630386 -808605,784784 -258948,187484 -439373,318061 -535982,702733l-3648651 -118225 0 -10481433 5677443 0z"/>
    <path class="fil3" d="M45130597 35347485c37937,-202924 -26028,-353351 -104550,-538188 -135871,-319384 -319825,-752581 -20734,-1785726 89110,-307473 80729,-544364 75435,-704056 -3529,-95726 -5735,-153957 0,-156603 48084,-22057 247478,69258 759198,302620l190130 86904c313649,142488 577450,140723 772874,139400 121313,-883 212187,-1324 250125,33085l98815 -109843c-80287,-72347 -195424,-71906 -349381,-70582 -181749,1323 -427463,3088 -711556,-126166l-190130 -86904c-555392,-253654 -771991,-352910 -881393,-302620 -94845,43672 -91757,138958 -86463,295121 5293,150428 13234,373643 -69259,658618 -313649,1084317 -117784,1544865 26468,1884541 68818,162339 125284,294239 95286,453048l145135 27351z"/>
    <path class="fil2" d="M42024987 30854497c806841,399671 1435462,1058731 1855425,2023940 -997412,-1268712 -1546629,-1834692 -1855425,-2023940z"/>
    <path class="fil3" d="M42787714 31454003c88669,78523 174249,161898 255860,250566 140723,151752 271300,318502 391289,500692 -249684,-303944 -463636,-551422 -647149,-751258zm363939 150428c-316296,-341440 -681117,-610976 -1091375,-814781l-1765 -883c-34408,-17204 -76758,-5734 -96609,27351 -21174,34850 -10146,80287 24263,101462 149104,91315 358645,276152 654207,594212 298650,322031 684205,779049 1181808,1412082 20292,25586 56024,35732 87345,22057 37497,-16322 54701,-59554 38379,-97050 -213069,-490104 -479958,-903009 -796253,-1244450z"/>
    <polygon class="fil3" points="42980050,35213379 42118949,34326251 42013076,34429036 42874177,35316164 "/>
    <polygon class="fil3" points="42350105,24633131 43399131,25819792 43509415,25721859 42460390,24535640 "/>
    <polygon class="fil2" points="40626580,38731011 47873150,38731011 47873150,40007223 40626580,40007223 "/>
    <path class="fil3" d="M40700691 38805122l7098789 0 0 1127990 -7098789 0 0 -1127990zm7172459 -148222l-7320240 0 0 1424434 7394351 0 0 -1424434 -74111 0z"/>
    <path class="fil2" d="M42080570 39066717c2469048,333941 3599243,242185 4256979,0 -198953,-758757 -295121,-1534718 0,-2375527 -1046819,283652 -2301856,-320707 -2990913,-262477 -514808,43673 -903009,146899 -1266066,262477 -81610,648032 342323,1738965 0,2375527z"/>
    <path class="fil3" d="M42070865 39139505c1237833,167632 2141724,228509 2818429,217040 683323,-11911 1138577,-97051 1473841,-220569l63083 -23381 -17204 -64406c-97933,-374967 -171162,-753463 -183072,-1140341 -11470,-385554 37055,-781255 181307,-1192395l46320 -132341 -134989 36614c-621121,168074 -1328265,12793 -1937918,-121313 -400553,-87786 -760521,-167191 -1040202,-143370 -259831,22057 -488781,59554 -699645,105874 -208658,46319 -398788,101902 -582302,160133l-44996 14116 -5735 46761c-33085,261153 11911,583184 58231,919331 71464,513043 147781,1061377 -50290,1430168l-50731 93962 105873 14117zm2816223 69258c-651560,11470 -1517513,-45437 -2696675,-202041 164104,-401876 90875,-929477 22057,-1425757 -42790,-306149 -83375,-600388 -63523,-834191 164985,-51613 336588,-100580 523630,-141605 202923,-44996 425257,-81170 680234,-102786 257625,-21615 607447,55143 996531,140723 584507,128371 1256360,276153 1877041,150428 -118666,384231 -158810,755669 -147781,1118285 11469,377613 78963,745081 170720,1107696 -315855,106315 -740670,178661 -1362234,189248z"/>
    <polygon class="fil3" points="44928114,38954668 44742836,38275757 44600790,38314577 44786068,38993488 "/>
    <polygon class="fil3" points="45574822,38857618 45204708,37777713 45064867,37825797 45434982,38905261 "/>
   </g>
   <g>
    <g>
     <polygon class="fil2" points="29142883,40004135 29142883,29560199 24847083,29560199 24847083,40004135 "/>
     <path class="fil3" d="M29214347 40004135l0 -10514959 -4439169 0 0 10586423 4439169 0 0 -71464zm-143370 -10372031l0 10300125 -4152429 0 0 -10300125 4152429 0z"/>
    </g>
    <path class="fil3" d="M26352245 35715394c-18969,27791 -32203,58230 -38820,89110 -7499,32203 -7940,65729 -2206,97050 5294,32203 17205,63083 35291,90874 16764,26468 39703,50731 67494,70141 27351,19410 57790,32203 89110,39261 32203,7059 65730,7500 97051,2206 31762,-5735 62641,-17645 90433,-35732 26909,-16763 50731,-39702 70141,-67494 71464,-101462 134988,-202924 190130,-303944 55583,-101021 103226,-202482 142929,-303503 38379,-97491 69699,-196747 93521,-296444 21175,-87346 36614,-174691 45878,-261595l227627 0 0 -12793 19410 -9264c15440,-8823 29557,-19851 41908,-32203 15881,-16322 28674,-36173 36615,-57789 8382,-20734 12793,-43673 12352,-67053l1764 -16322c1324,-5294 3529,-11470 6617,-17204 3088,-6176 7500,-12793 12352,-18528l15881 -16322 17205 -12352 15881 -8382 16322 -4852 13234 -1765 9705 1324 10587 3529 12352 7940 12793 12793 11911 15881 9705 15440 6176 13234c14116,42790 -1765,55583 -37497,81611l-22498 12351 -27351 11029 -30879 9264c-22939,5734 -43673,15881 -61760,29556 -18968,14116 -34849,31321 -46319,51172 -11470,19410 -19851,41467 -22939,64847 -3088,22057 -2206,44996 3529,67935 5735,22940 16322,44114 29556,62201 14117,18969 31762,34850 51172,46319 19851,11470 41908,19410 64847,22939 22057,3088 45438,2206 68377,-3529 22939,-5734 44996,-12793 66170,-20292 21616,-7941 42350,-17204 62201,-26909 19851,-9705 39261,-20734 57348,-32645 18527,-11910 36173,-25144 52054,-38379 14999,-12793 29115,-26468 42349,-40143 13234,-14117 25145,-29115 35732,-43673 10588,-14998 20734,-30879 29557,-47643 8822,-16763 16322,-33526 22056,-50289 6618,-18087 11470,-37056 15440,-56025 3529,-18528 5735,-37938 6617,-57789 883,-18969 441,-38379 -1764,-57789 -2206,-19410 -5735,-38820 -10588,-57789 -3970,-17204 -9705,-34850 -16322,-51613 -6617,-16322 -14557,-33527 -23380,-50290 -8823,-16322 -18969,-32644 -29556,-48084 -10587,-15881 -22939,-31762 -35732,-46760 -21616,-26028 -44555,-47643 -67494,-66171 -24704,-18969 -50731,-34850 -77641,-47643 -27791,-13234 -56906,-22498 -85580,-28674 -29998,-6176 -60877,-8823 -90875,-8382l-38820 2647 -38379 6176 -37938 9264 -37055 13234 -33086 14999 -33085 18087 -31762 21174 -29115 22939c-16322,13676 -32203,28674 -46761,44996 -14557,15881 -28232,33086 -40143,51172 -10146,14999 -19410,29998 -27351,45438l-11910 23380 -19410 0c-6617,-89551 -20293,-179102 -40144,-269094 -22498,-100580 -52936,-201159 -91757,-300856 -40584,-104550 -90874,-209541 -149986,-313208 -59113,-103667 -127048,-206893 -204688,-309237 -20293,-26910 -45437,-48967 -72788,-64848 -28233,-16763 -59995,-27791 -92198,-32203 -31762,-4411 -64847,-2647 -97050,5735 -30880,7941 -60877,22057 -87787,42349 -26909,20293 -48525,45437 -64847,72788 -16763,28674 -27791,59995 -32203,92198 -4411,32203 -2206,65288 5735,97491 7940,30880 22498,60877 42349,87787 67494,89109 126166,178219 176014,267329 49849,89110 91316,178220 123519,266447 32203,87346 55583,174250 71023,260713 15881,87786 22939,175131 22057,261594 -882,86022 -9705,172926 -26910,260713 -16763,88227 -41908,176896 -74993,266447 -33085,89551 -73670,179102 -122195,268653 -48525,90874 -104991,181307 -168515,271741zm86904 164103c-2646,-15440 -2205,-31762 1324,-47202 3088,-14557 9264,-29115 18528,-42349 67052,-96168 126606,-191895 177337,-286740 51172,-94844 94403,-189689 128812,-283651 35291,-95727 62642,-191454 80728,-287181 18087,-94403 27792,-189248 28674,-283651 1324,-94845 -6617,-190131 -23380,-284534 -16763,-94404 -42349,-188807 -77199,-283652 -34409,-94403 -78523,-189689 -131900,-284534 -52496,-93962 -114255,-188365 -185719,-282769 -9705,-12793 -16764,-27350 -20293,-41908 -3970,-15440 -4852,-31321 -2646,-47202 1764,-14998 7058,-30438 14998,-43672 7941,-13234 18528,-25145 31321,-34850 12793,-9705 27351,-16763 41908,-20734 15440,-3529 31321,-4411 46761,-2205 15440,1764 30438,7058 44113,14998 13235,7941 25145,18528 34850,31321 74111,97933 138959,196306 194983,294680 56466,98815 103668,197630 142047,296445 37937,97491 67935,195865 88668,294239 21616,98814 34409,197629 38820,296444l2647 62642 234244 0 14999 -45438c4411,-14116 10146,-28232 16322,-41025 6617,-13676 14558,-26910 23380,-39703 8382,-12352 18087,-25145 29116,-37055 10587,-11911 22498,-22939 34408,-33086l21616 -16763 22498 -14999 24263 -13234 23380 -10587 26468 -9705 26027 -6617 26469 -3970 26468 -1765c20733,-441 41908,1324 62200,5294 19410,4411 38820,10587 57348,19410 18087,8381 35732,19410 52937,32644 17204,13675 33085,29115 48084,46761l27350 36173c8382,12352 16322,24704 22498,36614 6176,11470 11911,23381 16764,36174 4852,11910 8822,24262 11469,35732 3529,13675 6176,26909 7499,39702 1324,13675 1765,26910 1324,39261 -441,12352 -2206,25145 -4853,37938 -2205,12352 -5734,25145 -10146,37497 -3970,11470 -9264,22939 -14999,33968 -5293,10587 -12351,21615 -19851,32203 -7940,10587 -16322,21174 -25586,31320 -9264,9705 -19410,19411 -29997,28233 -11911,10146 -25145,19851 -38820,29115 -14558,8823 -29556,17646 -44996,25145 -15881,7941 -32203,14999 -48967,21175 -17204,6176 -34849,11469 -53377,16322 -6176,1323 -12352,1764 -18087,882 -6176,-882 -11911,-3088 -16763,-5735 -5294,-3088 -9705,-7499 -13234,-12351 -3529,-4412 -6176,-9705 -7941,-15881 -1323,-6176 -1764,-12352 -882,-18087 882,-6176 3088,-11911 5735,-16763 3088,-5294 7499,-9705 12352,-13234 4411,-3530 10146,-6617 15881,-7941l42790 -12793c13675,-4852 26468,-10146 39261,-16322 12352,-5735 24704,-12352 35732,-19410 11470,-7058 22057,-14999 32203,-23380l20293 -18969 17204 -20734 14558 -22939 11028 -24704 6617 -24703 2647 -25586 -882 -25586 -4412 -24704 -9705 -28233 -13234 -28233 -16322 -26027 -19851 -26027c-10146,-11911 -20292,-22057 -30880,-30438 -11028,-9264 -23380,-16764 -35291,-22940 -13234,-6617 -26909,-11469 -40143,-14557 -14117,-3088 -28233,-4412 -41908,-3970l-18528 882 -18969 3088 -18087 4852 -18086 6617 -18087 7941c-15881,8823 -36173,20292 -49849,32644 -12793,11029 -24703,22939 -34849,35732 -10588,12793 -19852,26910 -26910,41467 -7499,14999 -13675,30880 -17204,46320 -3529,15881 -5294,31762 -5294,47643 0,6175 -882,12351 -3088,18086 -2206,5735 -5735,10588 -9705,14999 -3970,3970 -8823,7499 -14557,10146 -5294,2206 -11029,3529 -16764,3529 -56906,1765 -114254,1324 -171161,882l-112931 -441 -4412 60436c-7058,96609 -22057,193219 -44555,289387 -22498,97050 -53377,194100 -91315,291150 -37938,96610 -83375,193219 -135871,289387 -53818,97491 -114695,194983 -182189,291151 -9264,13234 -20734,23821 -33527,32203 -13234,8381 -28233,14116 -43231,16763 -15440,2647 -31321,2206 -47202,-882 -14558,-3088 -29115,-9705 -42349,-18528 -13235,-9264 -23822,-20734 -32203,-33527 -8382,-13234 -14117,-28232 -16764,-43231z"/>
   </g>
   <g>
    <polygon class="fil3" points="28615282,46997933 28615282,53048578 28763063,53048578 28763063,46997933 "/>
    <polygon class="fil3" points="28326337,52256736 28326337,61107723 28474118,61107723 28474118,52256736 "/>
    <polygon class="fil3" points="26228727,46959554 26228727,60947590 26376949,60947590 26376949,46959554 "/>
    <polygon class="fil3" points="24870464,60752607 28125178,60752607 28125178,60604826 24870464,60604826 "/>
    <polygon class="fil3" points="24870464,60363083 28125178,60363083 28125178,60214860 24870464,60214860 "/>
    <polygon class="fil3" points="24870464,59816954 28125178,59816954 28125178,59669173 24870464,59669173 "/>
    <polygon class="fil3" points="24870464,58023288 28125178,58023288 28125178,57875507 24870464,57875507 "/>
    <polygon class="fil3" points="24870464,57594502 28125178,57594502 28125178,57446721 24870464,57446721 "/>
    <polygon class="fil3" points="24942810,56112721 28005629,57273795 28052831,57134837 24990012,55974203 "/>
    <polygon class="fil3" points="24942810,55722755 28005629,56883829 28052831,56744871 24990012,55584238 "/>
    <polygon class="fil3" points="24881051,55430280 28125178,55157657 28114590,55010317 24870022,55282940 "/>
    <polygon class="fil3" points="24881051,53948499 28125178,53675876 28114590,53528536 24870022,53801159 "/>
    <polygon class="fil3" points="24870464,53305761 28125178,53305761 28125178,53157539 24870464,53157539 "/>
    <polygon class="fil3" points="24870464,52759633 28125178,52759633 28125178,52611851 24870464,52611851 "/>
    <polygon class="fil3" points="24870464,52494950 28125178,52494950 28125178,52346728 24870464,52346728 "/>
    <polygon class="fil3" points="24870464,52104984 28125178,52104984 28125178,51956762 24870464,51956762 "/>
    <polygon class="fil3" points="24870464,51558856 28125178,51558856 28125178,51411075 24870464,51411075 "/>
    <polygon class="fil3" points="24870464,49765631 28125178,49765631 28125178,49617408 24870464,49617408 "/>
    <polygon class="fil3" points="24870464,49336404 28125178,49336404 28125178,49188623 24870464,49188623 "/>
    <polygon class="fil3" points="24942810,47854622 28005629,49015697 28052831,48876738 24990012,47716105 "/>
    <polygon class="fil3" points="24942810,47464656 28005629,48625731 28052831,48486772 24990012,47326139 "/>
    <polygon class="fil3" points="24664893,47033665 28763063,47033665 28763063,46885884 24664893,46885884 "/>
   </g>
   <g>
    <g>
     <polygon class="fil2" points="11472228,43531913 10923012,46151830 12711825,46224618 13139288,44183915 "/>
     <path class="fil3" d="M11399440 43516915l-566862 2705497 1938801 78082 453048 -2162457 -1806900 -706703 -18087 85581zm-385995 2564774l513043 -2449196 1527660 597300 -401876 1918508 -1638827 -66612z"/>
     <polygon class="fil2" points="13514696,43960258 12965479,46580175 12711825,46224618 13139288,44183915 "/>
     <path class="fil3" d="M13407499 44109804l-479516 2289946 -137194 -191895 414228 -1977179 202482 -120872zm-369232 2485370l583184 -2784903 -547893 326883 -440697 2103786 370556 519219 34850 -164985z"/>
    </g>
    <g>
     <polygon class="fil2" points="3921273,42653608 6394292,41628845 5445404,40111331 3518956,40908908 "/>
     <path class="fil3" d="M3949506 42721543l2553747 -1057407 -1028293 -1645002 -2042026 845219 435844 1890717 80728 -33527zm2336266 -1127548l-2312003 957710 -368791 -1598242 1810870 -749934 869924 1390466z"/>
     <polygon class="fil2" points="3122814,40725395 5595832,39701073 5445404,40111331 3518956,40908908 "/>
     <path class="fil3" d="M3306769 40728924l2161574 -895068 -81169 221451 -1866454 772873 -213951 -99256zm2260830 -1096227l-2628739 1088728 578772 268212 1986002 -822281 219687 -599065 -155722 64406z"/>
    </g>
    <path class="fil2" d="M2783138 42297610l8103700 0c416434,0 756993,340558 756993,756992l0 4034646c0,416434 -340559,756992 -756993,756992l-8103700 0c-416434,0 -756992,-340558 -756992,-756992l0 -4034646c0,-416434 340558,-756992 756992,-756992z"/>
    <path class="fil3" d="M2783138 42223499l8103700 0c228510,0 436286,93521 587155,244390 150428,150428 243949,358204 243949,587154l0 4034205c0,228509 -93521,436726 -243949,587154 -150869,150428 -358645,243950 -587155,243950l-8103700 0c-228509,0 -436285,-93522 -587154,-243950 -150428,-150428 -243949,-358645 -243949,-587154l0 -4034205c0,-228950 93521,-436726 243949,-587154 150869,-150869 358645,-244390 587154,-244390zm8103700 148222l-8103700 0c-187484,0 -358645,76758 -482164,200718 -123959,123518 -200717,294680 -200717,482604l0 4034205c0,187925 76758,358645 200717,482605 123519,123518 294680,200717 482164,200717l8103700 0c187925,0 358645,-77199 482605,-200717 123519,-123960 200718,-294680 200718,-482605l0 -4034205c0,-187924 -77199,-359086 -200718,-482604 -123960,-123960 -294680,-200718 -482605,-200718z"/>
    <g>
     <polygon class="fil2" points="7632565,42294522 10309389,42294522 10013386,40529089 7928569,40529089 "/>
     <path class="fil3" d="M7632565 42368633l2764169 0 -320707 -1913655 -2210100 0 -320707 1913655 87345 0zm2589479 -147781l-2502134 0 270859 -1617652 1960416 0 270859 1617652z"/>
     <polygon class="fil2" points="7632565,40207499 10309389,40207499 10013386,40529089 7928569,40529089 "/>
     <path class="fil3" d="M7801080 40281610l2339794 0 -159691 173368 -2020411 0 -159692 -173368zm2508309 -147781l-2845338 0 432315 469371 2149223 0 432315 -469371 -168515 0z"/>
    </g>
   </g>
   <g>
    <polygon class="fil4" points="42800507,52176449 48053134,52176449 48053134,40930965 42726396,40930965 42726396,52176449 "/>
    <g>
     <path class="fil3" d="M42800507 52176449l5252627 0 0 -11245484 -5326738 0 0 11245484 74111 0zm5104846 -148223l-5030735 0 0 -10949480 5030735 0 0 10949480z"/>
     <path class="fil3" d="M45389986 51804128c629944,0 1202982,-257624 1618093,-673176 415110,-415111 673176,-987707 673176,-1618093l0 -7305682c0,-248361 -101903,-474664 -265565,-638327 -164103,-164103 -389966,-265565 -638767,-265565l-2773875 0c-248801,0 -475105,101462 -638767,265565 -163662,163663 -265565,389966 -265565,638327l0 7305682c0,630386 258066,1202982 673176,1618093 415111,415552 988149,673176 1618094,673176zm1513543 -777726c-388201,388643 -924183,629504 -1513543,629504 -589361,0 -1125343,-240861 -1513544,-629504 -388642,-388201 -629504,-924183 -629504,-1513543l0 -7305682c0,-207776 85140,-397024 221893,-533777 137193,-137194 326442,-222333 534217,-222333l2773875 0c207775,0 397024,85139 533776,222333 137194,136753 222334,326001 222334,533777l0 7305682c0,589360 -241303,1125342 -629504,1513543z"/>
     <path class="fil1" d="M45389986 42973433c166308,0 300855,-134547 300855,-300856 0,-166309 -134547,-301297 -300855,-301297 -166309,0 -301298,134988 -301298,301297 0,166309 134989,300856 301298,300856zm0 -117343c101461,0 183513,-82051 183513,-183513 0,-101462 -82052,-183954 -183513,-183954 -101462,0 -183514,82492 -183514,183954 0,101462 82052,183513 183514,183513z"/>
    </g>
   </g>
   <g>
    <path class="fil4" d="M39096273 44030840l740230 0c427021,0 815663,-175132 1097109,-456577 281446,-281446 456578,-669648 456578,-1097110l0 -1142547c0,-112931 -46761,-215716 -120872,-290268 -74552,-74553 -177337,-120872 -290269,-120872l-3025322 0c-112490,0 -215276,46319 -289828,120872 -74552,74111 -120872,177337 -120872,290268l0 1142547c0,427021 174691,815664 456137,1097110 281446,281887 670088,456577 1097109,456577z"/>
    <g>
     <path class="fil3" d="M39096273 44030840l740230 0c427021,0 815663,-175132 1097109,-456577 281446,-281446 456578,-669648 456578,-1097110l0 -1142547c0,-112931 -46761,-215716 -120872,-290268 -74552,-74553 -177337,-120872 -290269,-120872l-3025322 0c-112490,0 -215276,46319 -289828,120872 -74552,74111 -120872,177337 -120872,290268l0 1142547c0,427021 174691,815664 456137,1097110 281446,281887 670088,456577 1097109,456577zm740230 -148222l-740230 0c-386436,0 -737582,-157927 -992560,-412905 -254536,-254537 -412904,-606123 -412904,-992560l0 -1142547c0,-72346 29556,-138076 77199,-185719 47643,-47643 113813,-77640 185719,-77640l3025322 0c71906,0 138076,29997 185719,77640 47643,47202 77199,113373 77199,185719l0 1142547c0,386437 -158368,738023 -412905,992560 -254536,254978 -606123,412905 -992559,412905z"/>
     <path class="fil3" d="M39096273 43587938c-304826,0 -582743,-125283 -783901,-326442 -201600,-201600 -326883,-479517 -326883,-784343l0 -445108 2961798 0 0 445108c0,304826 -125283,582743 -326442,784343 -201600,201159 -479516,326442 -784342,326442l-740230 0zm-888451 -221892c228068,228068 542599,370114 888451,370114l740230 0c345410,0 660383,-142046 888892,-370114 228068,-228069 370115,-543041 370115,-888893l0 -476870c0,-31762 -13676,-60877 -34409,-82052 -21175,-20733 -50290,-34408 -82052,-34408l-3025322 0c-31321,0 -60436,13675 -81611,34408 -21174,21616 -34409,51172 -34409,82052l0 476870c0,345411 141606,660824 370115,888893z"/>
     <path class="fil1" d="M39592112 41760745c84699,-44996 142488,-134547 142488,-237332 0,-148222 -119990,-268212 -268212,-268212 -148222,0 -268212,119990 -268212,268212 0,102785 57789,192336 142929,237332l0 632151 251007 0 0 -632151z"/>
     <path class="fil1" d="M39466388 43299875c166309,0 301297,-134988 301297,-300856 0,-166309 -134988,-301297 -301297,-301297 -166309,0 -300856,134988 -300856,301297 0,165868 134547,300856 300856,300856zm0 -117343c101462,0 183513,-82492 183513,-183513 0,-101462 -82051,-183954 -183513,-183954 -101462,0 -183513,82492 -183513,183954 0,101021 82051,183513 183513,183513z"/>
    </g>
   </g>
   <g>
    <polygon class="fil4" points="36506795,53076370 41019634,53076370 41019634,50533210 41019634,49821214 36432684,49821214 36432684,50533210 36432684,53076370 "/>
    <g>
     <path class="fil3" d="M36506795 53076370l4512839 0 0 -3255156 -4586950 0 0 3255156 74111 0zm4365058 -148223l-4290947 0 0 -2959152 4290947 0 0 2959152z"/>
     <path class="fil3" d="M36506795 50533210l4512839 0 0 -711996 -4586950 0 0 711996 74111 0zm4365058 -148222l-4290947 0 0 -415993 4290947 0 0 415993z"/>
     <path class="fil3" d="M38726159 52843008c311884,0 594212,-126607 798900,-331295 205129,-204688 331295,-487457 331295,-798900 0,-311885 -126166,-594213 -330854,-798901 -205129,-205129 -487457,-331294 -799341,-331294 -311443,0 -594213,126165 -798901,330853 -204688,205129 -331294,487457 -331294,799342 0,311443 126606,594212 331294,798900 204688,204688 487458,331295 798901,331295zm694792 -435844c-177779,177778 -423051,287621 -694792,287621 -271300,0 -517014,-109843 -694351,-287180 -177779,-177779 -287622,-423493 -287622,-694792 0,-271300 109843,-517014 287181,-694792 177778,-177779 423492,-287622 694792,-287622 271741,0 517013,109843 694792,287622 177778,177778 287622,423492 287622,694792 0,271299 -109844,517013 -287622,694351z"/>
     <path class="fil3" d="M38726159 52437161c200276,0 381143,-81169 512161,-212187 131018,-131018 212187,-312326 212187,-512161 0,-199836 -81169,-381143 -212187,-512161 -131018,-131459 -311885,-212187 -512161,-212187 -199836,0 -381143,80728 -512161,212187 -131018,131018 -212187,312325 -212187,512161 0,199835 81169,381143 212187,512161 131018,131018 312325,212187 512161,212187zm407611 -316737c-104108,104109 -248360,168515 -407611,168515 -159251,0 -303062,-64406 -407611,-168515 -104109,-104550 -168515,-248802 -168515,-407611 0,-159251 64406,-303503 168515,-407612 104549,-104549 248360,-168955 407611,-168955 159251,0 303503,64406 407611,168955 104109,104109 168956,248361 168956,407612 0,158809 -64847,303061 -168956,407611z"/>
     <path class="fil1" d="M36888379 50347933c84257,0 152634,-68377 152634,-152634 0,-84257 -68377,-152193 -152634,-152193 -83816,0 -152193,67936 -152193,152193 0,84257 68377,152634 152193,152634z"/>
     <path class="fil1" d="M40629668 50347933c84257,0 152634,-68377 152634,-152634 0,-84257 -68377,-152193 -152634,-152193 -84257,0 -152192,67936 -152192,152193 0,84257 67935,152634 152192,152634z"/>
     <path class="fil1" d="M40135153 50347933c84257,0 152633,-68377 152633,-152634 0,-84257 -68376,-152193 -152633,-152193 -83816,0 -152193,67936 -152193,152193 0,84257 68377,152634 152193,152634z"/>
    </g>
   </g>
   <g>
    <path class="fil4" d="M45288524 58713228l0 -2595655 -1024322 0c-54701,0 -104109,22057 -140282,58230 -11911,11911 -22498,25586 -31321,40144l-2555952 0 -15881 441 -15439 0 -15440 441 -15440 882 -14999 883 -15440 882 0 0 -14998 1323 0 0 -15440 1324 0 441 -14999 1323 0 0 -14998 1765 0 441 -14999 1765 0 0 -14999 2205 0 0 -14998 2206 0 0 -14558 2647 -441 0 -14558 3088 0 0 -14557 2647 0 0 -14558 3087 -441 0 -14116 3530 -441 0 -14117 3529 -441 0 -14116 3529 0 0 -14117 3529 -441 0 -28233 8382 -441 0 -13675 4411 -441 0 -13676 4411 -441 0 -13675 4412 -441 441 -27351 9705 -441 0 -13234 5293 -441 0 -13234 5294 -441 0 -13235 5294 -441 0 -13234 5735 -441 0 -12793 5734 -441 0c-13234,6176 -26468,11911 -39702,18528l0 0 -13235 6617 0 0c-26027,12793 -51613,26910 -76758,41467l0 441c-87786,51613 -168073,114255 -239978,186160 -105874,105873 -192337,231157 -253214,369674l0 441c-11910,26468 -22498,54260 -32644,82052l-4852 13675 0 0 -4412 13675 0 441 -4411 14117 0 0 -4411 14116 0 0 -4412 14116 0 0 -3970 14117 0 441 -3529 14116 0 0 -3970 14558 0 0 -3529 14558 0 0 -3088 14557 0 0 -3088 14558 0 0 -3088 14557 0 441 -2647 14558 0 0 -2647 14557 0 442 -2206 14557 0 0 -2205 14999 0 0 -2206 14998 0 0 -1765 14999 0 0 -1764 15440 0 0 -1324 14999 0 0 -1323 14998 0 441 -882 14999 -883 15440 -882 15440 -441 15440 -441 15439 0 15440 0 15440 441 15440 441 15440 882 15440 883 15439 882 14999 0 0 1323 15440 0 0 1324 14999 0 0 1764 14998 0 441 1765 14999 0 0 2206 14999 0 0 2205 14557 0 441 2206 14558 0 0 2647 14999 0 0 2647 14557 0 441 3088 14558 0 0 3088 14557 0 0 3088 14558 0 0 3529 14558 0 0 3970 14116 0 441 3529 14116 0 442 3970 14116 0 0 4412 14116 0 0 3970 14117 441 0 4411 14116 0 0 4412 14117 0 0 4852 13675 5294 14116 0 0 4852 13676 0 0 5294 13675 441 0c8823,22939 18528,45437 28674,67494l0 0 6617 12793 0 441c59113,123077 138959,234685 234686,329971 44113,44555 92197,85140 142928,122195l0 0c23380,17205 47643,33527 72347,48967l0 0 12352 7499 0 0 25144 14999 12352 7058 0 0 12793 7499 0 0 12793 6617 0 0 13234 6617 0 0 12793 6617 0 0 13235 6617 0 0 13234 6176 0 0 13234 6176 0 0 13234 6176 441 0 13234 5735 0 0 13234 5735 441 0 13235 5293 441 0 13675 5294 0 0 13675 5294 0 0 13676 4852 0 0 14116 4853 0 0 14116 4852 0 0 13676 4412 441 0 14116 4411 0 0 14117 3970 0 0 14116 3970 441 0 14117 3971 0 0 14557 3529 0 0 14558 3529 0 0 14557 3529 0 0 14558 3088 0 0 14557 2647 0 0 14999 3088 0 0 14558 2647 0 0 14998 2205 0 0 14999 2206 0 0 14999 1765 0 441 14998 1764 14999 1324 0 0 15440 1764 14998 1324 15440 882 14999 882 15440 882 15440 442 15439 0 15881 441 2539630 0c11029,33526 29998,63965 54260,88668 40144,40144 95727,64848 156604,64848l1001383 0 0 -67494z"/>
    <g>
     <path class="fil3" d="M45288524 58713228l0 -2595655 -1024322 0c-54701,0 -104109,22057 -140282,58230 -35732,35732 -58230,85581 -58230,139841l0 2243626c0,60877 25145,116461 64847,156604 40144,40144 95727,64848 156604,64848l1001383 0 0 -67494zm-135429 -2460667l0 2393172 -865954 0c-23821,0 -44996,-10146 -60877,-25586 -15440,-15439 -25145,-37055 -25145,-60877l0 -2243626c0,-17204 7059,-33085 18528,-44555 11470,-11470 27351,-18528 44555,-18528l888893 0z"/>
     <path class="fil3" d="M44201119 58559270l0 -2343323 -2664472 0c-331294,0 -632591,135870 -851395,354233 -218805,218805 -354234,520102 -354234,851396 0,331295 135429,632592 354234,850955 218804,218804 520101,354675 851395,354675l2664472 0 0 -67936zm-135429 -2207894l0 2140400 -2529043 0c-294680,0 -562009,-120430 -756110,-314090 -194100,-194100 -314090,-461871 -314090,-756110 0,-294680 119990,-562009 314090,-755669 194101,-194100 461430,-314531 756110,-314531l2529043 0z"/>
     <path class="fil3" d="M43872031 58332085l0 -1839986c-482605,-69700 -1911450,-276152 -2335384,-276152 -331735,0 -633032,135870 -851395,354233 -218364,218364 -354234,519661 -354234,851396 0,331295 135870,633033 354234,851396 218363,218363 519660,354234 851395,354234 476870,0 1813076,-171603 2335384,-235127l0 -59994zm-134989 -1723084l0 1663530 -2204365 219245c-292915,-882 -558921,-121312 -752140,-314090 -193659,-194100 -314090,-461871 -314090,-756110 0,-294239 120431,-562009 314090,-755669 193219,-193218 459225,-313649 752140,-314531l2204365 257625z"/>
     <path class="fil3" d="M44893264 57431722c0,-62641 -25586,-119989 -66611,-161015 -41026,-41026 -97933,-66612 -161016,-66612 -63082,0 -119989,25586 -161015,66612 -41467,41026 -67053,98374 -67053,161015 0,63083 25586,119990 67053,161016 41026,41467 98374,67053 161015,67053 63083,0 119990,-25586 161016,-67053 41025,-41026 66611,-98374 66611,-161016z"/>
    </g>
   </g>
   <polygon class="fil0" points="1414729,1185778 26957045,1185778 26957045,9112141 17874019,9112141 17874019,10320417 4828253,10320417 4828253,9112141 1414729,9112141 "/>
  </g>
 </g>
</svg>
