<?xml version="1.0" encoding="UTF-8"?>
<!DOCTYPE svg PUBLIC "-//W3C//DTD SVG 1.0//EN" "http://www.w3.org/TR/2001/REC-SVG-20010904/DTD/svg10.dtd">
<!-- Creator: CorelDRAW X7 -->
<svg xmlns="http://www.w3.org/2000/svg" xml:space="preserve" width="193px" height="176px" version="1.0" style="shape-rendering:geometricPrecision; text-rendering:geometricPrecision; image-rendering:optimizeQuality; fill-rule:evenodd; clip-rule:evenodd"
viewBox="0 0 2365928 2156070"
 xmlns:xlink="http://www.w3.org/1999/xlink">
 <defs>
  <style type="text/css">
   <![CDATA[
    .fil2 {fill:#2A2A2A}
    .fil0 {fill:#C0ECFA}
    .fil1 {fill:#FFCF00}
    .fil3 {fill:#2A2A2A;fill-rule:nonzero}
   ]]>
  </style>
 </defs>
 <g id="Слой_x0020_1">
  <metadata id="CorelCorpID_0Corel-Layer"/>
  <g id="_1035067168">
   <rect class="fil0" x="613194" y="2037489" width="459943" height="116035"/>
   <rect class="fil0" transform="matrix(2.69513E-015 -0.970877 0.627473 1.58549E-013 4572.51 947726)" width="942531" height="38765"/>
   <rect class="fil0" x="1618192" y="2037489" width="459943" height="116035"/>
   <g>
    <path class="fil1" d="M2358274 534058l7654 0 0 1500667 0 60673 0 60672 -281180 0 -7583 0 0 -121345 -453301 0 0 121345 -8797 0 -523408 0 0 -121345 -453301 0 0 121345 -16366 0 -317515 0 0 -7278 -1780 0 0 -1162576 -232257 0 0 0 -15888 0 0 0 -13414 0 0 0 -9593 0 0 0 0 -35379 0 -915472 0 -15570 0 -19795 271152 0 1780 0 75780 0 43771 0 894795 0 58241 0 0 57677 0 476381 852904 0 0 302538 107281 0 0 -302538 21025 0zm-1105362 -476381l98280 0 0 406723 -98280 0 0 -406723z"/>
    <path class="fil2" d="M442289 483182l0 4861 -23716 0 0 -4861 23716 0zm1407105 661350l40501 -114270 0 -10997 -5195 0 0 -163684 0 -22226 0 -49473 5195 0 0 -14253 18087 0 0 14253 9478 0 0 49473 296403 0 0 -176852 0 -64768 -299818 0 -521 46666 -5542 -550 0 11504 -13153 0 -40689 100595 -4746 -1027 40501 -99698 0 -11374 -7727 -709 -130 -45407 0 -35350 -12329 0 0 -18087 12329 0 0 -4240 423739 0 52497 0 7654 0 0 1500667 0 60673 0 60672 -281180 0 -49936 0 -368594 0 -51151 0 -523408 0 -63335 0 -370316 0 -36016 0 -317515 0 0 -7278 -1780 0 0 -1162576 -263816 0 0 0 -15874 0 0 0 -13413 0 0 0 -9594 0 0 0 0 -35379 0 -915472 0 -15570 0 -19795 302697 0 1780 0 75780 0 43771 0 894795 0 58241 0 0 57677 0 476381 272166 0 0 4240 15121 0 184652 -40487 1027 4731 -185534 40690 0 13153 -15266 0 0 35350 -272166 0 -34047 0 -24194 0 0 -103692 -61063 0 -9044 0 -21922 0 -1809 0 0 -4861 1809 0 0 -25294 0 -208932 0 -92000 0 -99279 -802766 0 0 171470 -53119 0 0 212839 -23528 0 0 195778 17002 0 30155 -189846 4776 753 -30026 189093 1621 0 0 19274 53119 0 0 588900 679409 0 0 1244 12661 0 0 18073 -12661 0 0 2908 -679409 0 0 766562 197964 0 36016 0 370316 0 63335 0 284639 0 0 -766562 -55232 0 0 -2908 -11735 0 -172526 40501 -1013 -4731 173394 -40704 0 -13139 11880 0 0 -1244 169241 0 0 -14572 4847 0 0 14572 177503 0 0 1244 12690 0 0 13139 166130 40704 -1027 4731 -165233 -40501 -12560 0 0 2908 -263599 0 0 766562 206009 0 51151 0 368594 0 49936 0 221029 0 0 -766562 -388317 0 -32760 0 0 -2908 -13544 0 0 -18073 13544 0 0 -1244 0 -65926 5195 0 0 -14774 18087 0 0 14774 9478 0 0 65926 388317 0 0 -390357 -60948 0 -30966 0 -296403 0 0 163684 -9478 0 0 11128 -13153 0 -40689 115152 -4746 -1013zm-359087 -529833l4847 0 0 23716 -4847 0 0 -23716zm0 47433l4847 0 0 23716 -4847 0 0 -23716zm0 47432l4847 0 0 23717 -4847 0 0 -23717zm0 47447l4847 0 0 23717 -4847 0 0 -23717zm0 47433l4847 0 0 23716 -4847 0 0 -23716zm0 47433l4847 0 0 23716 -4847 0 0 -23716zm0 47432l4847 0 0 23716 -4847 0 0 -23716zm0 47433l4847 0 0 23716 -4847 0 0 -23716zm0 47447l4847 0 0 23716 -4847 0 0 -23716zm0 47432l4847 0 0 23717 -4847 0 0 -23717zm0 47433l4847 0 0 23716 -4847 0 0 -23716zm0 47433l4847 0 0 23730 -4847 0 0 -23730zm0 47447l4847 0 0 23716 -4847 0 0 -23716zm-289038 -700752l0 4861 -23717 0 0 -4861 23717 0zm-47433 0l0 4861 -23716 0 0 -4861 23716 0zm-47432 0l0 4861 -23717 0 0 -4861 23717 0zm-47448 0l0 4861 -23716 0 0 -4861 23716 0zm-47432 0l0 4861 -23716 0 0 -4861 23716 0zm-47433 0l0 4861 -23716 0 0 -4861 23716 0zm-47432 0l0 4861 -23717 0 0 -4861 23717 0zm-47433 0l0 4861 -23731 0 0 -4861 23731 0zm-47447 0l0 4861 -23716 0 0 -4861 23716 0zm-47433 0l0 4861 -23716 0 0 -4861 23716 0zm-47432 0l0 4861 -23716 0 0 -4861 23716 0zm-47433 0l0 4861 -23716 0 0 -4861 23716 0zm-47447 0l0 4861 -23716 0 0 -4861 23716 0zm-47432 0l0 4861 -23717 0 0 -4861 23717 0zm-47433 0l0 4861 -23716 0 0 -4861 23716 0zm-47433 0l0 4861 -23730 0 0 -4861 23730 0zm1809008 173321l-46579 36305 -7336 94156 0 -130461 53915 0zm-52743 176852l10375 -137045 49401 -39330 0 176375 -59776 0zm-928524 -584399l-46622 36349 -13095 133123 0 -169472 59717 0zm-58777 208932l16366 -169082 43757 -34843 0 203925 -60123 0zm-940 -300932l61063 0 0 -99279 -61063 0 0 99279zm-918367 72191l-36696 0 0 -193782 -263816 0 0 915472 263816 0 0 -293799 36696 0 0 -19274 0 -195778 0 -212839zm-316386 -193782l0 915472 -13413 0 0 -915472 13413 0zm1643211 2004150l0 48648 368594 0 0 -48648 -368594 0zm0 63233l0 48533 368594 0 0 -48533 -368594 0zm-1008210 -63233l0 48648 370316 0 0 -48648 -370316 0zm0 63233l0 48533 370316 0 0 -48533 -370316 0z"/>
    <path class="fil3" d="M2134090 877300l172309 0 0 368869 -174740 0 0 -368869 2431 0zm167447 4848l-165016 0 0 359159 165016 0 0 -359159z"/>
    <path class="fil3" d="M2219029 889499c20678,0 39460,8464 53076,22081 13616,13616 22081,32412 22081,53076l0 239637c0,8161 -3342,15570 -8711,20952 -5383,5369 -12791,8711 -20952,8711l-90987 0c-8162,0 -15570,-3342 -20953,-8711 -5368,-5382 -8711,-12791 -8711,-20952l0 -239637c0,-20664 8465,-39460 22081,-53076 13617,-13617 32413,-22081 53076,-22081zm49647 25510c-12734,-12733 -30315,-20649 -49647,-20649 -19332,0 -36913,7916 -49646,20649 -12748,12734 -20649,30315 -20649,49647l0 239637c0,6815 2793,13023 7278,17523 4501,4486 10708,7278 17524,7278l90987 0c6815,0 13023,-2792 17523,-7278 4486,-4500 7278,-10708 7278,-17523l0 -239637c0,-19332 -7915,-36913 -20648,-49647z"/>
    <path class="fil2" d="M2219029 1179159c5455,0 9869,4427 9869,9883 0,5455 -4414,9868 -9869,9868 -5455,0 -9868,-4413 -9868,-9868 0,-5456 4413,-9883 9868,-9883zm0 3849c3328,0 6020,2705 6020,6034 0,3328 -2692,6019 -6020,6019 -3328,0 -6019,-2691 -6019,-6019 0,-3329 2691,-6034 6019,-6034z"/>
    <path class="fil3" d="M2049296 1144720l24281 0c14007,0 26740,5745 35987,14976 9232,9232 14962,21966 14962,35987l0 37478c0,3704 -1520,7075 -3965,9521 -2431,2445 -5803,3965 -9507,3965l-99235 0c-3704,0 -7076,-1520 -9507,-3965 -2460,-2431 -3965,-5817 -3965,-9521l0 -37478c0,-14007 5731,-26755 14962,-35987 9232,-9246 21966,-14976 35987,-14976zm24281 4862l-24281 0c-12675,0 -24208,5180 -32557,13544 -8364,8349 -13544,19882 -13544,32557l0 37478c0,2373 969,4529 2532,6091 1563,1563 3719,2547 6092,2547l99235 0c2359,0 4529,-984 6092,-2547 1563,-1548 2532,-3718 2532,-6091l0 -37478c0,-12675 -5194,-24208 -13544,-32557 -8349,-8364 -19881,-13544 -32557,-13544z"/>
    <path class="fil3" d="M2049296 1159248c-9998,0 -19115,4095 -25713,10708 -6613,6612 -10722,15729 -10722,25727l0 14601 97151 0 0 -14601c0,-9998 -4109,-19115 -10722,-25727 -6598,-6599 -15714,-10708 -25713,-10708l-24281 0zm-29157 7278c7496,-7481 17813,-12140 29157,-12140l24281 0c11330,0 21661,4659 29157,12140 7481,7481 12140,17813 12140,29157l0 15642c0,1042 -448,1997 -1128,2692 -695,680 -1650,1128 -2692,1128l-99235 0c-1027,0 -1982,-448 -2677,-1128 -694,-709 -1129,-1679 -1129,-2692l0 -15642c0,-11344 4645,-21676 12126,-29157z"/>
    <path class="fil2" d="M2065561 1219183c2778,1475 4673,4413 4673,7784 0,4862 -3935,8798 -8797,8798 -4862,0 -8798,-3936 -8798,-8798 0,-3371 1895,-6309 4674,-7784l0 -20736 8248 0 0 20736z"/>
    <path class="fil2" d="M2061437 1168697c5455,0 9868,4413 9868,9868 0,5455 -4413,9883 -9868,9883 -5456,0 -9869,-4428 -9869,-9883 0,-5455 4413,-9868 9869,-9868zm0 3849c3328,0 6019,2691 6019,6019 0,3328 -2691,6034 -6019,6034 -3328,0 -6020,-2706 -6020,-6034 0,-3328 2692,-6019 6020,-6019z"/>
    <path class="fil3" d="M2213719 671089l0 85156 -33585 0c-1794,0 -3430,-738 -4602,-1911 -1186,-1186 -1924,-2807 -1924,-4601l0 -73594c0,-1997 825,-3820 2141,-5137 1303,-1302 3126,-2127 5123,-2127l32847 0 0 2214zm-4443 80713l0 -78485 -28404 0c-767,0 -1476,318 -1997,825 -506,506 -825,1215 -825,1997l0 73594c0,564 232,1085 608,1461 376,377 897,608 1476,608l29142 0z"/>
    <path class="fil3" d="M2178050 676139l0 76864 -87399 0c-10866,0 -20749,-4442 -27912,-11619 -7177,-7177 -11634,-17060 -11634,-27927 0,-10867 4457,-20750 11619,-27913 7178,-7177 17061,-11619 27927,-11619l87399 0 0 2214zm-4442 72422l0 -70208 -82957 0c-9665,0 -18434,3950 -24787,10302 -6366,6367 -10317,15150 -10317,24802 0,9666 3951,18435 10303,24801 6367,6367 15136,10303 24801,10303l82957 0z"/>
    <path class="fil3" d="M2167256 683591l0 60354c-15831,2286 -62699,9058 -76605,9058 -10881,0 -20764,-4457 -27927,-11619 -7162,-7163 -11619,-17046 -11619,-27927 0,-10867 4457,-20765 11619,-27927 7178,-7163 17061,-11605 27927,-11605 15643,0 59487,5614 76605,7698l0 1968zm-4428 56519l0 -54566 -72292 -7191c-9608,29 -18348,3979 -24686,10317 -6352,6366 -10303,15135 -10303,24787 0,9651 3951,18435 10317,24787 6338,6338 15064,10288 24657,10317l72307 -8451z"/>
    <path class="fil3" d="M2200768 713124c0,2055 -839,3936 -2199,5282 -1346,1345 -3213,2184 -5282,2184 -2069,0 -3936,-839 -5281,-2184 -1346,-1346 -2185,-3227 -2185,-5282 0,-2069 839,-3936 2185,-5282 1345,-1360 3226,-2199 5281,-2199 2069,0 3936,839 5282,2199 1360,1361 2199,3227 2199,5282z"/>
    <path class="fil3" d="M2065271 855740l-148042 0 0 106774 150459 0 0 -106774 -2417 0zm-143180 4848l140749 0 0 97079 -140749 0 0 -97079z"/>
    <path class="fil3" d="M2065271 939160l-148042 0 0 23354 150459 0 0 -23354 -2417 0zm-143180 4847l140749 0 0 13660 -140749 0 0 -13660z"/>
    <path class="fil3" d="M1992458 863395c-10216,0 -19491,4153 -26205,10852 -6714,6729 -10867,15990 -10867,26220 0,10216 4153,19491 10867,26205 6714,6714 15989,10867 26205,10867 10230,0 19491,-4153 26205,-10867 6729,-6714 10867,-15989 10867,-26205 0,-10230 -4138,-19491 -10852,-26205 -6729,-6714 -15990,-10867 -26220,-10867zm-22776 14282c5817,-5832 13877,-9435 22776,-9435 8914,0 16959,3603 22790,9435 5832,5831 9435,13891 9435,22790 0,8899 -3603,16959 -9435,22776 -5831,5845 -13876,9448 -22790,9448 -8899,0 -16959,-3603 -22776,-9434 -5831,-5831 -9434,-13891 -9434,-22790 0,-8899 3603,-16959 9434,-22790z"/>
    <path class="fil3" d="M1992458 876707c-6555,0 -12502,2663 -16799,6960 -4298,4298 -6960,10230 -6960,16800 0,6555 2662,12502 6960,16799 4297,4298 10244,6960 16799,6960 6570,0 12502,-2662 16800,-6960 4312,-4297 6960,-10244 6960,-16799 0,-6570 -2648,-12502 -6960,-16800 -4298,-4297 -10230,-6960 -16800,-6960zm-13370 10390c3429,-3415 8161,-5542 13370,-5542 5224,0 9956,2127 13370,5542 3430,3414 5542,8146 5542,13370 0,5223 -2112,9941 -5542,13370 -3414,3415 -8146,5542 -13370,5542 -5209,0 -9941,-2127 -13370,-5542 -3415,-3429 -5528,-8147 -5528,-13370 0,-5224 2113,-9956 5528,-13370z"/>
    <path class="fil2" d="M2052740 945237c-2764,0 -4992,2243 -4992,4992 0,2764 2228,5007 4992,5007 2764,0 5007,-2243 5007,-5007 0,-2749 -2243,-4992 -5007,-4992z"/>
    <path class="fil2" d="M1930020 945237c-2749,0 -4992,2243 -4992,4992 0,2764 2243,5007 4992,5007 2764,0 5007,-2243 5007,-5007 0,-2749 -2243,-4992 -5007,-4992z"/>
    <path class="fil2" d="M1946241 945237c-2764,0 -4992,2243 -4992,4992 0,2764 2228,5007 4992,5007 2764,0 5007,-2243 5007,-5007 0,-2749 -2243,-4992 -5007,-4992z"/>
    <path class="fil3" d="M715902 208585l92362 0c4978,0 9507,-2026 12777,-5311 3270,-3270 5311,-7799 5311,-12777l0 -132371 -126193 0 0 134715c0,4327 1780,8277 4630,11128 2851,2850 6787,4616 11113,4616zm92362 -4848l-92362 0c-2995,0 -5715,-1230 -7683,-3198 -1983,-1982 -3213,-4702 -3213,-7698l0 -129853 116498 0 0 127509c0,3647 -1505,6946 -3892,9348 -2402,2402 -5716,3892 -9348,3892z"/>
    <polygon class="fil3" points="702590,191062 823921,191062 823921,186214 702590,186214 "/>
    <path class="fil2" d="M734322 175101c10694,0 19361,-8667 19361,-19361 0,-10693 -8667,-19360 -19361,-19360 -10693,0 -19360,8667 -19360,19360 0,10694 8667,19361 19360,19361z"/>
    <path class="fil2" d="M788455 169096c7365,0 13341,-5976 13341,-13356 0,-7365 -5976,-13341 -13341,-13341 -7380,0 -13356,5976 -13356,13341 0,7380 5976,13356 13356,13356z"/>
    <path class="fil2" d="M788455 115152c-10694,0 -19376,-8667 -19376,-19361 0,-10693 8682,-19375 19376,-19375 10693,0 19361,8682 19361,19375 0,10694 -8668,19361 -19361,19361z"/>
    <path class="fil2" d="M734322 109133c-7365,0 -13341,-5977 -13341,-13342 0,-7379 5976,-13356 13341,-13356 7380,0 13356,5977 13356,13356 0,7365 -5976,13342 -13356,13342z"/>
    <path class="fil3" d="M1093395 196343l98106 0c3864,0 7366,-1577 9912,-4124 2547,-2547 4139,-6063 4139,-9926l0 -98107c0,-3863 -1592,-7379 -4124,-9912 -2547,-2546 -6063,-4124 -9927,-4124l-98106 0c-3863,0 -7380,1578 -9926,4124 -2533,2533 -4110,6049 -4110,9912l0 98107c0,3863 1577,7379 4110,9926 2561,2547 6063,4124 9926,4124zm98106 -4862l-98106 0c-2532,0 -4833,-1027 -6497,-2691 -1650,-1664 -2691,-3965 -2691,-6497l0 -98107c0,-2517 1041,-4818 2705,-6482 1665,-1664 3951,-2706 6483,-2706l98106 0c2533,0 4833,1042 6497,2706 1665,1664 2692,3965 2692,6482l0 98107c0,2532 -1027,4833 -2692,6497 -1664,1664 -3964,2691 -6497,2691z"/>
    <path class="fil3" d="M1103828 186807l77241 0c4109,0 7857,-1678 10563,-4384 2706,-2706 4384,-6454 4384,-10563l0 -52960c0,-4110 -1678,-7857 -4384,-10563 -2706,-2706 -6454,-4399 -10563,-4399l-77241 0c-4110,0 -7843,1693 -10563,4399 -2706,2706 -4385,6439 -4385,10563l0 52960c0,4124 1679,7857 4385,10563 2720,2706 6468,4384 10563,4384zm77241 -4847l-77241 0c-2778,0 -5296,-1129 -7119,-2952 -1838,-1838 -2981,-4370 -2981,-7148l0 -52960c0,-2778 1143,-5311 2981,-7134 1823,-1838 4355,-2966 7119,-2966l77241 0c2778,0 5296,1128 7133,2966 1824,1838 2967,4356 2967,7134l0 52960c0,2778 -1143,5296 -2967,7134 -1837,1823 -4355,2966 -7133,2966z"/>
    <path class="fil2" d="M1146572 98381c2778,-1476 4674,-4398 4674,-7770 0,-4862 -3936,-8798 -8798,-8798 -4862,0 -8798,3936 -8798,8798 0,3372 1896,6294 4674,7770l0 20736 8248 0 0 -20736z"/>
    <path class="fil2" d="M1142448 159517c5455,0 9869,-4428 9869,-9883 0,-5455 -4414,-9868 -9869,-9868 -5455,0 -9868,4413 -9868,9868 0,5455 4413,9883 9868,9883zm0 -3863c3328,0 6020,-2692 6020,-6020 0,-3328 -2692,-6019 -6020,-6019 -3328,0 -6019,2691 -6019,6019 0,3328 2691,6020 6019,6020z"/>
   </g>
  </g>
 </g>
</svg>
