<?xml version="1.0" encoding="utf-8"?>
<!-- Generator: Adobe Illustrator 21.1.0, SVG Export Plug-In . SVG Version: 6.00 Build 0)  -->
<svg version="1.1" id="Слой_1" xmlns="http://www.w3.org/2000/svg" xmlns:xlink="http://www.w3.org/1999/xlink" x="0px" y="0px"
	 viewBox="0 0 4292 4356" style="enable-background:new 0 0 4292 4356;" xml:space="preserve">
<style type="text/css">
	.st0{fill:#FCE36E;}
	.st1{fill:#FFF8C3;}
	.st2{fill:#F39436;}
	.st3{fill:#D5544D;}
	.st4{fill:#5B6B88;}
	.st5{fill:#9B8DA3;}
	.st6{fill:#EC6646;}
	.st7{fill:#B75550;}
	.st8{fill:#A65452;}
	.st9{fill:#935354;}
	.st10{fill:#F9B548;}
	.st11{fill:#78714D;}
	.st12{fill:#594C41;}
	.st13{fill:#7C5A61;}
	.st14{fill:#5E6C4E;}
	.st15{fill:#6D5F82;}
	.st16{fill:#394255;}
	.st17{fill:#2E3646;}
	.st18{fill:#4A4543;}
	.st19{fill:#D6C4BB;}
	.st20{fill:#CE5F44;}
	.st21{fill:#FACB9F;}
	.st22{fill:#EF7B2F;}
	.st23{fill:#FAECD2;}
	.st24{fill:#EBDAAF;}
	.st25{fill:#377CB4;}
	.st26{fill:#4489C4;}
	.st27{fill:#7EC3E9;}
	.st28{fill:#6AA1C0;}
	.st29{fill:#F3976D;}
	.st30{fill:#2E5F83;}
	.st31{fill:#A8D4F0;}
	.st32{fill:#8F302C;}
	.st33{fill:#CE7A59;}
	.st34{fill:#F7B17A;}
	.st35{fill:#FDDD4F;}
	.st36{fill:#B92B2C;}
	.st37{fill:#37719B;}
	.st38{fill:#F0AA80;}
	.st39{fill:#F9BE8A;}
	.st40{fill:#F8BC88;}
	.st41{fill:#D78150;}
	.st42{fill:#724537;}
	.st43{fill:#DADBDD;}
	.st44{fill:#8D563B;}
	.st45{fill:#7C4331;}
	.st46{fill:#CC5C3D;}
	.st47{fill:#946145;}
	.st48{fill:#533026;}
	.st49{fill:#FEFEFE;}
	.st50{fill:#CD7E55;}
	.st51{fill:#212121;}
	.st52{fill:#8F282E;}
	.st53{fill:#AE7A3D;}
	.st54{fill:#F3965E;}
	.st55{fill:#DC7847;}
	.st56{fill:#1F5263;}
	.st57{fill:#217D8F;}
	.st58{fill:#5E3324;}
	.st59{fill:#93CFC3;}
	.st60{fill:#D69647;}
	.st61{fill:#BADFD8;}
	.st62{fill:#43AEA5;}
	.st63{fill:#BF2E39;}
	.st64{fill:#F5A882;}
	.st65{fill:#38B9C2;}
	.st66{fill:#E49565;}
	.st67{fill:#EAE5D3;}
	.st68{fill:#633A2D;}
	.st69{fill:#BA2B2F;}
	.st70{fill:#F8B880;}
	.st71{fill:#C4B79D;}
	.st72{fill:#9D877C;}
	.st73{fill:#EEEDEE;}
	.st74{fill:#9467A7;}
	.st75{fill:#D268A3;}
	.st76{fill:#FAC798;}
	.st77{fill:#C85699;}
	.st78{fill:#D32125;}
	.st79{fill:#E74238;}
	.st80{fill:#9C2426;}
	.st81{fill:#F7B175;}
	.st82{fill:#A52A33;}
	.st83{fill:#F6B18A;}
	.st84{fill:#58382F;}
	.st85{fill:#AA563A;}
	.st86{fill:#989589;}
	.st87{fill:#AAA89C;}
	.st88{fill:#5B4941;}
	.st89{fill:#796053;}
	.st90{fill:#E52A30;}
	.st91{fill:#FDF7C3;}
</style>
<g id="Слой_x0020_1">
	<g id="_1139096592">
		<path class="st0" d="M2364.824,798.514c0,441.007-357.562,798.514-798.536,798.514c-441.034,0-798.515-357.508-798.515-798.514
			S1125.254,0,1566.288,0C2007.262,0,2364.824,357.508,2364.824,798.514z"/>
		<path class="st1" d="M2212.419,798.514c0,356.838-289.319,646.112-646.13,646.112c-356.859,0-646.112-289.274-646.112-646.112
			c0-356.837,289.253-646.112,646.112-646.112C1923.1,152.403,2212.419,441.678,2212.419,798.514L2212.419,798.514z"/>
		<path class="st2" d="M1437.829,2649.761H4291.97v-425.104H1419.751c69.188,56.979-85.773,93.623-10.485,212.553
			C1441.009,2487.333,1408.67,2577.626,1437.829,2649.761L1437.829,2649.761z"/>
		<polygon class="st2" points="2482.835,2381.043 2779.251,2381.043 2779.251,1863.156 2482.835,1863.156 		"/>
		<path class="st3" d="M4291.97,4222.617V2649.761H1409.266c91.648,226.726,197.415,622.246,327.154,907.959
			C1952.042,4032.414,4136.795,4260.74,4291.97,4222.617L4291.97,4222.617z"/>
		<path class="st4" d="M4291.97,4222.617v-926.763H1631.484c23.851,61.487,49.148,122.738,76.35,182.641
			c46.403,102.157,52.363,240.502,120.905,312.015C2332.092,4315.677,3434.559,4040.117,4291.97,4222.617L4291.97,4222.617z"/>
		<path class="st5" d="M4291.986,3758.714H1751.077c467.209,587.951,1862.276,630.628,2540.909,463.899V3758.714z"/>
		<path class="st6" d="M1415.031,2878.151H4291.97v-228.39H1445.408C1473.289,2718.736,1386.733,2795.981,1415.031,2878.151
			L1415.031,2878.151z"/>
		<polygon class="st3" points="3859.635,2649.761 4291.97,2649.761 4291.97,946.353 3859.635,946.353 		"/>
		<polygon class="st7" points="4155.386,1833.056 4190.927,1833.056 4190.927,1777.164 4155.386,1777.164 		"/>
		<polygon class="st7" points="4198.633,1833.056 4234.175,1833.056 4234.175,1777.164 4198.633,1777.164 		"/>
		<polygon class="st7" points="4155.386,1071.75 4190.927,1071.75 4190.927,1015.858 4155.386,1015.858 		"/>
		<polygon class="st7" points="4198.633,1071.75 4234.175,1071.75 4234.175,1015.858 4198.633,1015.858 		"/>
		<polygon class="st7" points="4155.386,1180.513 4190.927,1180.513 4190.927,1124.621 4155.386,1124.621 		"/>
		<polygon class="st7" points="4198.633,1180.513 4234.175,1180.513 4234.175,1124.621 4198.633,1124.621 		"/>
		<polygon class="st7" points="4155.386,1289.271 4190.927,1289.271 4190.927,1233.379 4155.386,1233.379 		"/>
		<polygon class="st7" points="4198.633,1289.271 4234.175,1289.271 4234.175,1233.379 4198.633,1233.379 		"/>
		<polygon class="st7" points="4155.386,1398.028 4190.927,1398.028 4190.927,1342.137 4155.386,1342.137 		"/>
		<polygon class="st7" points="4198.633,1398.028 4234.175,1398.028 4234.175,1342.137 4198.633,1342.137 		"/>
		<polygon class="st7" points="4155.386,1506.784 4190.927,1506.784 4190.927,1450.892 4155.386,1450.892 		"/>
		<polygon class="st7" points="4198.633,1506.784 4234.175,1506.784 4234.175,1450.892 4198.633,1450.892 		"/>
		<polygon class="st7" points="4155.386,1615.542 4190.927,1615.542 4190.927,1559.649 4155.386,1559.649 		"/>
		<polygon class="st7" points="4198.633,1615.542 4234.175,1615.542 4234.175,1559.649 4198.633,1559.649 		"/>
		<polygon class="st7" points="4155.386,1724.293 4190.927,1724.293 4190.927,1668.401 4155.386,1668.401 		"/>
		<polygon class="st7" points="4198.633,1724.293 4234.175,1724.293 4234.175,1668.401 4198.633,1668.401 		"/>
		<polygon class="st7" points="4155.386,1921.619 4190.927,1921.619 4190.927,1865.727 4155.386,1865.727 		"/>
		<polygon class="st7" points="4198.633,1921.619 4234.175,1921.619 4234.175,1865.727 4198.633,1865.727 		"/>
		<polygon class="st7" points="4155.386,2010.187 4190.927,2010.187 4190.927,1954.294 4155.386,1954.294 		"/>
		<polygon class="st7" points="4198.633,2010.187 4234.175,2010.187 4234.175,1954.294 4198.633,1954.294 		"/>
		<polygon class="st7" points="4155.386,2098.754 4190.927,2098.754 4190.927,2042.864 4155.386,2042.864 		"/>
		<polygon class="st7" points="4198.633,2098.754 4234.175,2098.754 4234.175,2042.864 4198.633,2042.864 		"/>
		<polygon class="st7" points="4155.386,2187.317 4190.927,2187.317 4190.927,2131.422 4155.386,2131.422 		"/>
		<polygon class="st7" points="4198.633,2187.317 4234.175,2187.317 4234.175,2131.422 4198.633,2131.422 		"/>
		<polygon class="st7" points="4155.386,2275.88 4190.927,2275.88 4190.927,2219.989 4155.386,2219.989 		"/>
		<polygon class="st7" points="4198.633,2275.88 4234.175,2275.88 4234.175,2219.989 4198.633,2219.989 		"/>
		<polygon class="st7" points="4155.386,2364.447 4190.927,2364.447 4190.927,2308.555 4155.386,2308.555 		"/>
		<polygon class="st7" points="4198.633,2364.447 4234.175,2364.447 4234.175,2308.555 4198.633,2308.555 		"/>
		<polygon class="st7" points="4155.386,2453.015 4190.927,2453.015 4190.927,2397.119 4155.386,2397.119 		"/>
		<polygon class="st7" points="4198.633,2453.015 4234.175,2453.015 4234.175,2397.119 4198.633,2397.119 		"/>
		<polygon class="st7" points="4276.127,2649.761 4291.961,2649.761 4291.961,946.353 4276.127,946.353 		"/>
		<polygon class="st6" points="3859.635,2649.761 4104.595,2649.761 4104.595,946.353 3859.635,946.353 		"/>
		<path class="st6" d="M3177.59,1336.859c0,72.271-58.599,130.852-130.864,130.852s-130.864-58.582-130.864-130.852
			c0-72.271,58.599-130.858,130.864-130.858S3177.59,1264.588,3177.59,1336.859z"/>
		<polygon class="st6" points="3046.726,1187.78 2921.879,1302.154 3171.517,1302.154 		"/>
		<polygon class="st6" points="2866.26,2649.761 3769.346,2649.761 3769.346,1302.16 2866.26,1302.16 		"/>
		<polygon class="st8" points="3091.603,2649.761 3769.312,2649.761 3769.312,1302.16 3091.603,1302.16 		"/>
		<path class="st8" d="M3387.354,1336.859c0,72.271-58.599,130.852-130.864,130.852c-72.265,0-130.864-58.582-130.864-130.852
			c0-72.271,58.599-130.858,130.864-130.858C3328.755,1206,3387.354,1264.588,3387.354,1336.859z"/>
		<path class="st8" d="M3718.367,1336.859c0,72.271-58.599,130.852-130.864,130.852s-130.864-58.582-130.864-130.852
			c0-72.271,58.599-130.858,130.864-130.858S3718.367,1264.588,3718.367,1336.859z"/>
		<polygon class="st9" points="3324.031,1302.154 3201.265,1302.154 3201.265,2649.761 3324.031,2647.399 		"/>
		<polygon class="st9" points="3648.913,1302.154 3526.091,1302.154 3526.091,2649.761 3648.913,2647.399 		"/>
		<path class="st10" d="M3622.932,2942.807c0,325.631-220.338,531.527-492.301,531.527c-108.931,0-209.428-32.983-291.083-93.703
			c-122.035-90.412-201.273-242.64-201.273-437.824c0-325.754,220.507-647.976,492.357-647.976
			c103.308,0,199.192,46.48,278.262,122.051C3538.127,2540.149,3622.932,2740.808,3622.932,2942.807L3622.932,2942.807z"/>
		<path class="st11" d="M3622.932,2942.807c0,325.631-220.338,531.527-492.301,531.527c-108.931,0-209.428-32.983-291.083-93.703
			c-95.266-92.235-154.765-229.138-154.765-398.401c0-325.749,220.45-647.853,492.357-647.853
			c83.793,0,162.75,30.666,231.754,82.505C3538.127,2540.149,3622.932,2740.808,3622.932,2942.807L3622.932,2942.807z"/>
		<polygon class="st12" points="3056.005,3583.086 3073.944,2947.611 3117.416,2947.611 3135.356,3583.086 		"/>
		<path class="st12" d="M3094.527,3225.76c14.396-0.501,31.83-2.755,47.745-5.826c16.197-3.132,32.281-7.244,47.97-12.389
			c31.381-10.337,61.524-24.564,88.405-43.478c26.938-18.777,50.557-42.206,69.34-69.352c18.728-27.151,32.45-57.969,41.728-90.35
			l28.119,6.928c-7.985,35.603-21.145,70.645-40.49,102.43c-19.458,31.78-44.877,60.078-74.234,83.146
			c-29.355,23.226-62.423,41.194-96.952,54.787c-17.321,6.771-34.98,12.401-53.032,16.961c-9.054,2.256-18.165,4.291-27.332,5.945
			c-9.503,1.676-18.052,3.105-28.905,4.01L3094.527,3225.76L3094.527,3225.76z"/>
		<path class="st12" d="M3070.177,3114.225c-18.896-3.419-35.204-7.84-52.357-13.07c-16.871-5.218-33.461-11.258-49.77-18.243
			c-32.448-14.065-63.998-31.47-91.836-54.667c-13.946-11.574-26.881-24.497-38.354-38.821
			c-11.36-14.431-20.863-30.402-28.231-47.268c-15.016-33.888-18.896-71.427-15.578-106.833l28.962,2.125
			c-1.068,31.589,4.274,62.84,18.278,89.986c6.973,13.547,15.521,26.229,25.7,37.701c10.292,11.376,21.933,21.668,34.417,30.896
			c25.082,18.497,53.932,32.376,83.906,43.27c15.015,5.41,30.369,9.993,45.946,13.806c15.24,3.751,31.774,7.041,46.115,8.745
			L3070.177,3114.225L3070.177,3114.225z"/>
		<path class="st2" d="M2681.465,1893.674h-86.381c-23.451,0-39.591-27.292-30.874-52.396l43.191-124.245
			c11.191-32.066,50.669-32.066,61.86,0l43.134,124.245C2721.113,1866.382,2705.029,1893.674,2681.465,1893.674z"/>
		<polygon class="st13" points="3239.226,1468.279 3293.767,1468.279 3293.767,1376.441 3239.226,1376.441 		"/>
		<polygon class="st13" points="3239.226,1621.177 3293.767,1621.177 3293.767,1529.336 3239.226,1529.336 		"/>
		<polygon class="st13" points="3239.226,1774.08 3293.767,1774.08 3293.767,1682.242 3239.226,1682.242 		"/>
		<polygon class="st13" points="3239.226,1926.978 3293.767,1926.978 3293.767,1835.135 3239.226,1835.135 		"/>
		<polygon class="st13" points="3239.226,2079.875 3293.767,2079.875 3293.767,1988.035 3239.226,1988.035 		"/>
		<polygon class="st13" points="3353.387,1468.279 3499.887,1468.279 3499.887,1376.441 3353.387,1376.441 		"/>
		<polygon class="st13" points="3353.387,1621.177 3499.887,1621.177 3499.887,1529.336 3353.387,1529.336 		"/>
		<polygon class="st13" points="3353.387,1774.08 3499.887,1774.08 3499.887,1682.242 3353.387,1682.242 		"/>
		<polygon class="st13" points="3353.387,1926.978 3499.887,1926.978 3499.887,1835.135 3353.387,1835.135 		"/>
		<polygon class="st13" points="3353.387,2079.875 3499.887,2079.875 3499.887,1988.035 3353.387,1988.035 		"/>
		<polygon class="st13" points="3116.966,1468.279 3171.507,1468.279 3171.507,1376.441 3116.966,1376.441 		"/>
		<polygon class="st13" points="3116.966,1621.177 3171.507,1621.177 3171.507,1529.336 3116.966,1529.336 		"/>
		<polygon class="st13" points="3116.966,1774.08 3171.507,1774.08 3171.507,1682.242 3116.966,1682.242 		"/>
		<polygon class="st13" points="3116.966,1926.978 3171.507,1926.978 3171.507,1835.135 3116.966,1835.135 		"/>
		<polygon class="st13" points="3116.966,2079.875 3171.507,2079.875 3171.507,1988.035 3116.966,1988.035 		"/>
		<polygon class="st13" points="3682.712,1468.279 3737.254,1468.279 3737.254,1376.441 3682.712,1376.441 		"/>
		<polygon class="st13" points="3682.712,1621.177 3737.254,1621.177 3737.254,1529.336 3682.712,1529.336 		"/>
		<polygon class="st13" points="3682.712,1774.08 3737.254,1774.08 3737.254,1682.242 3682.712,1682.242 		"/>
		<polygon class="st13" points="3682.712,1926.978 3737.254,1926.978 3737.254,1835.135 3682.712,1835.135 		"/>
		<polygon class="st13" points="3682.712,2079.875 3737.254,2079.875 3737.254,1988.035 3682.712,1988.035 		"/>
		<polygon class="st13" points="3560.509,1468.279 3615.052,1468.279 3615.052,1376.441 3560.509,1376.441 		"/>
		<polygon class="st13" points="3560.509,1621.177 3615.052,1621.177 3615.052,1529.336 3560.509,1529.336 		"/>
		<polygon class="st13" points="3560.509,1774.08 3615.052,1774.08 3615.052,1682.242 3560.509,1682.242 		"/>
		<polygon class="st13" points="3560.509,1926.978 3615.052,1926.978 3615.052,1835.135 3560.509,1835.135 		"/>
		<polygon class="st13" points="3560.509,2079.875 3615.052,2079.875 3615.052,1988.035 3560.509,1988.035 		"/>
		<path class="st10" d="M4291.986,3409.388c-56.139,21.302-115.998,32.452-178.159,32.452
			c-124.115,0-239.065-44.297-333.543-125.701c-149.311-128.744-246.77-350.329-246.77-636.414
			c0-466.91,259.816-928.707,580.313-928.707c62.135,0,122.019,17.392,178.159,48.803V3409.388z"/>
		<path class="st14" d="M4291.986,3409.388c-56.139,21.302-115.998,32.452-178.159,32.452
			c-124.115,0-239.065-44.297-333.543-125.701c-125.522-132.275-205.267-338.166-205.267-596.744
			c0-466.792,259.929-928.707,580.425-928.707c47.013,0,92.747,9.937,136.544,28.378V3409.388z"/>
		<polygon class="st12" points="4058.545,3596.262 4076.428,2340.434 4119.9,2340.434 4137.84,3596.262 		"/>
		<polygon class="st12" points="4077.723,2901.862 4291.986,2650.569 4291.986,2713.678 4118.664,2935.306 		"/>
		<polygon class="st12" points="4077.385,3287.109 3696.097,2780.743 3718.929,2762.883 4119,3254.525 		"/>
		<polygon class="st8" points="3260.99,1187.78 3136.199,1302.154 3385.836,1302.154 		"/>
		<polygon class="st8" points="3590.596,1187.78 3465.749,1302.154 3715.386,1302.154 		"/>
		<polygon class="st7" points="3965.754,949.468 4291.986,949.468 4291.986,889.011 3965.754,889.011 		"/>
		<path class="st3" d="M4291.986,817.378h-348.558c-7.704,0-13.89,6.232-13.89,13.913v57.716h362.448V817.378L4291.986,817.378z"/>
		<path class="st15" d="M3074.844,4118.495c0,131.162-688.288,237.505-1537.396,237.505C688.364,4356,0.014,4249.657,0.014,4118.495
			c0-131.159,688.349-237.487,1537.434-237.487C2386.557,3881.008,3074.844,3987.336,3074.844,4118.495z"/>
		<path class="st16" d="M1870.918,3751.043c0,0-61.871,80.297-141.783,80.297c-52.02-168.571-181.687-503.112-257.147-599.311
			c-8.042-15.891-25.628-55.179-49.123-108.913c-105.045-240.068-319.157-939.491-319.157-939.491l275.54-131.011
			c0,0,67.322,414.279,140.531,703.027c23.709,93.602,47.205,191.971,67.788,288.6
			C1723.576,3150.127,1870.918,3751.043,1870.918,3751.043L1870.918,3751.043z"/>
		<path class="st17" d="M1519.779,2755.642c-47.667,119.892-81.832,286.151-96.914,367.475
			c-105.045-240.068-319.157-939.49-319.157-939.49l275.54-131.011C1379.247,2052.616,1446.569,2466.894,1519.779,2755.642
			L1519.779,2755.642z"/>
		<path class="st18" d="M1932.048,3874.776c0,4.899-55.169,59.837-79.464,66.163c-21.089-6.562-121.979,98.585-146.273,109.933
			c-24.351,11.348-64.949,16.24-190.616-4.774c15.335-30.818,35.334-45.266,35.334-45.266s48.167,0,93.579-16.241
			c23.968-8.002,62.434-84.676,83.13-129.463c4.541-10.021,8.251-18.442,10.743-24.163c37.249-2.884,70.037-22.446,93.672-41.496
			c10.873-3.253,19.337-5.112,22.68-4.323c1.8,0.484,3.488,3.515,7.311,4.898
			C1899.824,3803.643,1932.048,3870.481,1932.048,3874.776L1932.048,3874.776z"/>
		<path class="st18" d="M1197.775,3969.306c-6.619,26.51-17.248,64.611-22.663,73.085c-8.875,14.211-46.711,35.353-50.793,37.621
			c-22.625-9.433-50.417-35.945-80.622-62.933c-1.541-2.755-14.25-20.425-17.254-21.5
			c-94.623-34.277-198.038-136.027-226.416-171.383c-5.163-6.444-3.953-15.763,2.75-20.661c1.085-0.714,2.171-1.546,3.25-2.385
			c12.918-9.673,30.666-9.431,43.838,0c86.954,62.103,175.036,59.353,219.83,52.07c19.042-2.986,30.289-6.805,30.289-6.805
			l103.291,96.374C1203.736,3943.627,1201.363,3954.734,1197.775,3969.306L1197.775,3969.306z"/>
		<path class="st19" d="M1862.145,3790.044c-2.643,15.404-9.448,40.244-27.05,53.386c-26.882,19.824-59.5,9.791-69.959,4.415
			c-6.13-3.104-23.732,2.273-37.397,7.282c4.541-10.021,8.251-18.442,10.743-24.163c48.632-3.765,89.659-35.967,112.638-58.326
			C1855.444,3779.856,1860.446,3788.479,1862.145,3790.044L1862.145,3790.044z"/>
		<path class="st19" d="M1197.775,3969.306c-27.455-3.228-58.954,6.804-82.916-13.857c-25.746-22.214-15.915-68.187-19.414-81.449
			c-1.54-6.326-13.541-14.217-25.75-20.779c19.042-2.986,30.289-6.805,30.289-6.805l103.291,96.374
			C1203.736,3943.627,1201.363,3954.734,1197.775,3969.306L1197.775,3969.306z"/>
		<path class="st16" d="M1331.11,2144.441c-10.46,8.325-130.585,813.089-130.585,813.089s-6.027,492.748-118.153,868.31
			c47.79,99.167,123.407,138.011,123.407,138.011s243.208-520.008,176.624-910.018c97.167-471.865,249.082-938.28,249.082-938.28
			S1579.026,1947.028,1331.11,2144.441z"/>
		<g>
			<path class="st6" d="M1673.318,2042.421V1825.37h-151.515c36.215,38.489,73.208,84.921,111.766,145.828
				C1647.159,1992.656,1660.365,2016.521,1673.318,2042.421z"/>
			<path class="st20" d="M1620.568,1951.149v-49.677h-34.935C1597.153,1916.845,1608.793,1933.361,1620.568,1951.149
				L1620.568,1951.149z"/>
			<path class="st2" d="M1187.194,1508.009v-5.911h-4.473C1184.214,1504.078,1185.706,1506.064,1187.194,1508.009z"/>
			<path class="st2" d="M1421.655,1733.01h51.83v-138.062H1262.36C1317.016,1650.711,1369.279,1689.779,1421.655,1733.01
				L1421.655,1733.01z"/>
			<path class="st21" d="M1376.278,888.952c-0.625,1.794-1.209,3.705-1.833,5.613c0,0-82.416-8.718-115.208-22.569
				c-47.458-22.928-136.96-114.887-147.251-145.458c-24.666,17.911-68.289-23.765-76.916-32.606h-0.585
				c-10.539-1.316-48.745-12.423-54.999-15.764c-6.332-3.346-8.998-15.291,3.712-15.048c15.582,4.415,42.412,9.195,52.249,10.989
				l0.124-0.596l-0.961-0.242c-10.455-3.706-47.081-23.765-52.704-28.54c-5.669-5.016-5.669-17.911,7.293-14.694
				c16.285,8.845,46.581,21.38,53.289,24.249c0.372-0.957,0.749-1.676,1.209-2.391c-10.545-6.568-48.874-37.623-53.295-43.354
				c-4.662-5.854-2.165-18.513,9.919-12.894c14.875,12.057,49.247,35.226,55.585,39.523c0.371-0.472,0.748-0.833,1.333-1.193
				c-10.168-8.717-35.087-36.66-38.708-42.751c-3.712-6.326,0.501-18.513,11.624-11.225c14.25,15.404,43.623,41.081,43.623,41.081
				c11.747,11.946,22.376,18.508,31.375,21.972c1.208,0.478,2.418,0.839,3.582,1.198c0.377-0.241,0.5-0.595,0.624-1.08
				c0.214-3.222-7.079-31.526-5.163-39.405c1.665-7.761,13.289-29.379,20.499-14.099c-6.586,23.654,12.586,52.914,12.586,52.914
				c16.995,15.758,6.332,41.199,6.332,41.199s89.372,72.018,117.873,92.438c55.709,14.57,84.125,18.991,97.167,20.301
				c-4.083,7.046-25.628,49.321-9.83,87.066C1359.362,885.734,1368.484,887.523,1376.278,888.952z"/>
			<path class="st22" d="M1415.318,805.957c-8.374,8.474-18.08,42.515-26.46,85.266c-3.874-0.713-8.042-1.428-12.58-2.271
				c-7.794-1.429-16.916-3.217-27.455-5.366c-15.797-37.746,5.747-80.02,9.83-87.066c0.253-0.477,0.377-0.837,0.461-0.955
				C1360.571,793.298,1415.318,805.957,1415.318,805.957L1415.318,805.957z"/>
			<path class="st23" d="M1433.279,2085.252c-126.376,101.868-212.88,112.621-266.665,99.597
				c-49.252-11.94-71.169-43.826-71.169-43.826c1.333-131.375-34.585-580.199-34.585-580.199l97.836-283.374l107.126-29.496
				l166.041-45.862C1431.863,1202.091,1457.608,1396.638,1433.279,2085.252L1433.279,2085.252z"/>
			<path class="st24" d="M1150.446,1797.661c5.623,194.547,24.789,317.217,16.168,387.188
				c-49.252-11.94-71.169-43.826-71.169-43.826c1.333-131.375-42.666-566.562-42.666-566.562l105.917-297.011l107.126-29.496
				C1223.656,1312.204,1141.695,1502.556,1150.446,1797.661L1150.446,1797.661z"/>
			<path class="st25" d="M1056.946,1613.658l20.751,300.492l5.748,333.324c0,0,28.332,27.865,74.041,33.838
				c-14.166-230.893-40.249-504.161-68.21-670.556C1060.321,1609.542,1056.946,1613.658,1056.946,1613.658L1056.946,1613.658z"/>
			<path class="st25" d="M987.404,1475.219c0,0-153.792,183.693-163.751,203.809c-9.96,20.115,128.333-17.203,135.542-17.203
				c7.25,0,67.377-134.841,35.041-178.639L987.404,1475.219L987.404,1475.219z"/>
			<path class="st26" d="M875.07,1637.143c0,0-44.916,15.724-61.377,62.001c-16.494,46.278-26.954,90.93,0,116.378
				c26.96,25.441,78.378,49.849,145.503,13.013C909.532,1775.278,875.07,1637.143,875.07,1637.143L875.07,1637.143z"/>
			<path class="st27" d="M1014.11,1791.227c-7.788,17.433-22.161,28.899-35.956,33.68c-23.333,8.114-76.168,9.189-118.835-54.944
				c-42.747-64.01,0-140.205,0-140.205s27.213-21.854,48.043-35.474c7.671-5.134,14.628-9.071,18.919-10.381
				c16.291-5.022,29.502,12.894,29.502,12.894s53.79,107.605,62.411,150.12C1021.651,1764.352,1019.486,1779.277,1014.11,1791.227
				L1014.11,1791.227z"/>
			<path class="st28" d="M1014.11,1791.227c-26.706,3.819-69.952-3.824-106.04-58.049c-39.501-59.117-6.085-128.502-0.709-138.895
				c7.671-5.134,14.628-9.071,18.919-10.381c16.291-5.022,29.502,12.894,29.502,12.894s53.79,107.604,62.411,150.12
				C1021.651,1764.352,1019.486,1779.277,1014.11,1791.227L1014.11,1791.227z"/>
			<path class="st29" d="M1084.57,1574.46c0,0-32.961,161.929-95.749,202.066c-56.372-12.839-107.919-113.177-74.081-165.77
				c49.911-46.165,90.164-113.008,90.164-113.008L1084.57,1574.46L1084.57,1574.46z"/>
			<path class="st25" d="M1660.405,1933.698c7.61,91.599,22.062,159.793,26.898,191.437
				c-58.025,105.462-215.315,139.255-215.315,139.255s-37.128-50.995-75.959-338.453c-4.544-33.444-9.083-70.223-13.665-110.472
				c-10.792-95.541-13.042-175.196-10.292-241.005c7.913-199.675,61.208-271.929,61.208-271.929s81.083-51.075,154.288-20.184
				c81.572,34.417,111.658,54.697,111.658,54.697l31.887,64.375c-61.187,157.402-77.169,309.787-75.46,435.185
				C1656.109,1871.124,1657.779,1903.724,1660.405,1933.698L1660.405,1933.698z"/>
			<path class="st30" d="M1534.237,1289.894c0,0-57.418,47.245-60.747,51.001c0.832,30.621-43.961,199.029-97.212,225.895
				c-19.082-55.788-19.082-55.788-19.082-55.788S1378.567,1298.161,1534.237,1289.894z"/>
			<path class="st30" d="M1660.405,1933.698c-22.5,38.691-54.96,83.242-91.042,96.616c-42.499,15.763-120.96-50.877-173.334-104.377
				c-4.544-33.444-9.083-70.223-13.665-110.472c-10.792-95.541-13.042-175.196-10.292-241.005l283.582,262.144
				C1656.109,1871.124,1657.779,1903.724,1660.405,1933.698z"/>
			<path class="st26" d="M1446.068,1877.141c0,0,49.168,98.983,123.294,98.645c46.374-24.873,161.75-207.38,205.446-449.532
				c32.786-142.094-28.681-184.395-86.606-194.344c-50.883-2.987-94.007,73.609-95.424,125.358
				c1.041,56.608,1.041,56.608,1.041,56.608s-47.334,67.834-45.878,190.245C1551.445,1804.639,1446.068,1877.141,1446.068,1877.141
				L1446.068,1877.141z"/>
			<path class="st30" d="M1626.404,1764.429c-1.456,0-2.835-0.882-3.374-2.312c-0.084-0.241-9.627-24.435-43.376-42.914
				c-1.709-0.95-2.379-3.132-1.417-4.864c1.002-1.739,3.167-2.356,4.916-1.413c36.211,19.846,46.209,45.581,46.626,46.667
				c0.664,1.844-0.253,3.902-2.126,4.599C1627.237,1764.352,1626.82,1764.429,1626.404,1764.429z"/>
			<path class="st30" d="M1652.279,1750.499c-0.748,0-1.501-0.236-2.165-0.719c-0.461-0.342-45.293-33.709-79.666-33.709
				l-1.086,0.012c-1.957,0-3.543-1.564-3.588-3.51c-0.039-1.984,1.547-3.621,3.504-3.655c0.377-0.006,0.748-0.012,1.169-0.012
				c36.79,0,82.078,33.697,83.995,35.149c1.586,1.198,1.918,3.436,0.709,5.022
				C1654.443,1750.004,1653.358,1750.499,1652.279,1750.499L1652.279,1750.499z"/>
			<path class="st30" d="M1594.736,1510.344l-14.582,49.922c-4.752,16.646-9.25,33.349-13.541,50.097
				c-3.959,16.809-7.333,33.731-10.337,50.72c-2.581,17.04-4.538,34.13-5.332,51.35v0.091c-0.084,1.974-1.748,3.503-3.75,3.413
				c-1.834-0.085-3.291-1.57-3.415-3.375c-2.002-35.413,2.914-70.758,10.708-105.029c3.83-17.18,8.498-34.147,13.997-50.844
				c5.545-16.691,11.832-33.079,19.542-48.999c0.878-1.788,3.043-2.531,4.831-1.664c1.586,0.776,2.379,2.581,1.878,4.234
				L1594.736,1510.344L1594.736,1510.344z"/>
			<path class="st30" d="M1600.984,1417.52c-1.495,11.14-2.497,22.573-3.205,33.894c-0.832,11.342-0.961,22.702-0.961,34.039
				c0.253,22.67,2.627,45.282,8.419,67.063v0.073c0.501,1.912-0.625,3.875-2.542,4.381c-1.833,0.484-3.706-0.546-4.33-2.305
				c-7.626-22.292-10.545-45.806-10.961-69.076c-0.293-23.328,1.501-46.526,6.501-69.425c0.416-1.929,2.328-3.155,4.291-2.733
				c1.833,0.399,3.043,2.126,2.789,3.953L1600.984,1417.52L1600.984,1417.52z"/>
			<path class="st27" d="M1424.445,1846.852c0,0-16.168,30.384,13.75,54.763c29.918,24.379,34.709,39.637,44.793,39.637
				c10.083,0,142.954-71.765,107.412-224.679c-6.709-15.516-60.915-30.363-60.915-30.363L1424.445,1846.852L1424.445,1846.852z"/>
			<path class="st31" d="M1430.901,1830.7c0,0-20.121,50.967,10.753,56.512c30.914,5.539,120.96-53.189,104.247-190.594
				c-13.334-27.697-40.08-14.402-40.08-14.402L1430.901,1830.7z"/>
			<path class="st32" d="M1516.781,1148.733c0,30.059-31.668,54.427-70.713,54.427c-39.04,0-70.662-24.367-70.662-54.427
				s31.622-54.427,70.662-54.427C1485.113,1094.307,1516.781,1118.674,1516.781,1148.733z"/>
			<path class="st33" d="M1163.865,1326.37c0,0,14.667,7.76,22.331,11.613c2.165,1.074,1.997,3.037,2.959,2.986
				c-6.124,21.247-25.29,18.52-25.29,18.52V1326.37L1163.865,1326.37z"/>
			<path class="st21" d="M1083.401,1223.884c-13.121,13.064-20.499,179.988-15.162,234.537
				c14.29,62.823,75.667,53.111,73.664,39.327c-2.002-13.767,27.208-143.191,27.208-143.191l6.04-52.042
				c0,0,62.626-30.138,71.208-41.419c8.588-11.281-12.203-93.09-12.203-93.09S1096.486,1210.819,1083.401,1223.884z"/>
			<path class="st34" d="M1121.36,1419.06l-49.877,26.285c0,0-31.161,26.364-36.413-26.285c-5.291-52.655,0-70.471,0-70.471
				s66.332-41.57,77-29.693C1122.738,1330.774,1121.36,1419.06,1121.36,1419.06L1121.36,1419.06z"/>
			<path class="st35" d="M1625.319,1110.611c-3.959,1.192-8.042,2.265-11.956,3.346c-49.5,13.49-100.17,18.867-142.336,18.625
				c-43.831-0.236-78.71-6.686-93.585-16.837c-16.995-16.838-5.623-138.293,11.417-224.522c8.38-42.751,18.086-76.792,26.46-85.266
				c43.583-10.747,150.124-20.544,203.292,0.472c-1.918,27.235,14.003,42.279,14.003,42.279S1587.567,987.721,1625.319,1110.611
				L1625.319,1110.611z"/>
			<path class="st29" d="M1445.281,1224.423c-107.463,130.414-187.961,175.202-259.006,135.312
				c-0.872-7.165,8.126-25.318,14.25-54.578c3.211-15.286,5.63-33.558,5.506-54.939c15.915-52.665,230.623-189.884,235.622-190.959
				c0,0-3.835,11.822-6.794,31.645c-1.456,10.032-2.665,21.971-2.996,35.469C1431.031,1153.839,1433.904,1187.88,1445.281,1224.423
				L1445.281,1224.423z"/>
			<path class="st29" d="M1165.9,1410.838c-0.208,1.609,0,4.032,0.254,7.142c0.792,8.189,1.833,20.639-6.378,30.896
				c-1.163,1.501-2.412,2.767-3.914,4.156v0.112c-4.043,13.26-8.458,28.13-15.96,30.784c0,0-10.083-37.932-44.416-51.075
				c1.169-2.88,2.334-7.722,3.582-13.716c0.338-1.733,0.709-3.694,1.045-5.651c0.456-2.885,1.041-5.877,1.496-9.105
				c0.338-1.851,0.585-3.808,0.917-5.765c0.709-5.072,1.501-10.375,2.087-15.796c0.371-1.845,0.579-3.69,0.831-5.535
				c0.664-5.646,1.378-11.291,1.957-16.719c0.332-2.069,0.585-4.032,0.794-5.989c0.371-2.654,0.585-5.303,0.955-7.84
				c0.208-1.956,0.338-3.807,0.546-5.652c1.541-13.142,2.334-22.247,2.334-22.247c23.911,4.843,63.705,33.085,64.875,35.739
				c2.666,9.223-2.21,21.207-2.795,22.708l-0.084,0.118c0.084,0.574,0.54,3.341,0.669,7.26
				C1174.819,1391.931,1173.571,1402.999,1165.9,1410.838L1165.9,1410.838z"/>
			<path class="st33" d="M1104.027,1414.871l-1.039-0.462l-0.67-0.23c-0.709-0.23-1.417-0.461-2.205-0.691
				c-10.212-2.036-30.457,2.907-42.835,6.461c0,1.997,0.045,3.987,0.084,5.985c14.791-4.291,33.833-8.622,41.706-6.794
				c0.585,0.118,1.169,0.23,1.625,0.461l0.709,0.348l0.338,0.113c10.291,4.729,38.292,17.287,54.122,33.084v-0.112
				c1.502-1.389,2.751-2.655,3.914-4.156C1143.029,1432.394,1114.696,1419.6,1104.027,1414.871L1104.027,1414.871z"/>
			<path class="st33" d="M1166.154,1417.981c-14.459-9.217-37.708-22.247-50.879-29.738l-8.12-4.494l-0.085-0.118
				c-0.585-0.348-1.54-0.579-2.457-0.809c-9.459-1.615-33.878,5.652-48.46,11.185c0,0-0.085-6.113,2.08-6.917
				c9.96-3.459,34.839-11.647,47.211-9.803c0.917,0,1.71,0.232,2.542,0.462c0.664,0.23,1.372,0.574,1.957,0.922l8.211,4.611
				c12.248,6.918,33.084,18.446,47.745,27.556C1165.692,1412.447,1165.9,1414.871,1166.154,1417.981z"/>
			<path class="st33" d="M1174.695,1384.665c-15.374-9.796-41.627-25.245-54.584-32.505l-8.081-4.504l-0.13-0.113
				c-0.663-0.343-1.625-0.691-2.75-0.804c-9.745-1.501-33.664,5.647-48.122,11.18c0,0-0.585-5.877,0.579-6.338
				c8.92-3.234,34.71-12.108,48.089-10.494c1.165,0.118,2.204,0.23,3.12,0.58c0.715,0.23,1.417,0.573,2.003,0.922l8.21,4.611
				c12.001,6.686,35.705,20.521,51.08,30.086l-0.084,0.118C1174.11,1377.979,1174.566,1380.746,1174.695,1384.665L1174.695,1384.665
				z"/>
			<path class="st33" d="M1441.653,1059.26c0,0-3.835,11.822-6.794,31.645l-2.418,3.346l-0.579,32.122
				c0,0-34.625,77.27-44.832,90.17c-24.295,24.84-169.505,89.445-185.213,88.973c-0.331,0-0.832-0.118-1.293-0.359
				c3.211-15.286,5.63-33.558,5.506-54.939C1221.947,1197.553,1436.654,1060.335,1441.653,1059.26L1441.653,1059.26z"/>
			<path class="st36" d="M1587.567,1286.284c-32.708-14.924-86.83,20.19-86.83,20.19s-100.503-78.35-93.585-84.317
				c6.833-5.973,58.042-39.771,58.042-39.771l-13.289-49.747c42.167,0.247,111.957-5.191,161.457-18.682
				C1637.404,1203.048,1627.822,1248.785,1587.567,1286.284L1587.567,1286.284z"/>
			<path class="st21" d="M1414.401,1215.853c0,0-63.997,54.566-71.291,70.386c-7.289,15.814-32.247,189.975-45.248,194.952
				c-12.957,4.977,64.082,85.115,69.29,70.657c5.213-14.443,74.711-79.616,87.083-220.934c42.297-18.907,51.587-28.4,51.587-28.4
				S1494.528,1203.16,1414.401,1215.853L1414.401,1215.853z"/>
			<path class="st34" d="M1443.11,1870.364c-44.416-31.937-49.955-235.06-41.998-322.678c-23.417,0-25.706-38.664-25.706-38.664
				s-6.67-21.87-20.628-37.774c-13.873-15.909-44.085-7.957-44.085-7.957l-12.833,17.866c0,0,0,0-11.793-16.832
				c-2.413-5.647-7.08-14.842-1.373-27.894c0.872-2.024,0.456-4.499,0.67-6.922c-3.171-9.932-1.169-16.934,3.498-22.129
				c1.625-1.839,0.917-4.848,1.501-7.266c-3.712-8.88-1.918-16.59,4.831-22.709c1.957-1.754,2.334-5.078,1.749-7.378
				c-2.959-11.45,3.874-23.152,6.248-24.209c21.252-11.877,80.25-21.95,89.124-13.992c9.044,7.958,68.548,131.179,68.548,131.179
				s43.663,174.481,68.621,223.25C1538.528,1733.977,1545.445,1841.425,1443.11,1870.364L1443.11,1870.364z"/>
			<path class="st33" d="M1284.695,1436.432v-0.112c30.751-14.07,58.375-11.635,60.461-12.687c4.162-2.21,0.371-5.994,0.371-5.994
				c-1.293,0-29.294-1.384-60.162,11.871v0.124L1284.695,1436.432z"/>
			<path class="st33" d="M1290.365,1400.114c31.206-13.716,59.791-12.333,61.04-12.221c0,0,4.33,2.576-0.332,5.883
				c-2.126,1.513-30.88-1.501-62.209,13.604L1290.365,1400.114L1290.365,1400.114z"/>
			<path class="st33" d="M1357.32,1358.037c0,0,3.081,3.082-0.377,5.99c-1.079,0.579-30.497-1.377-61.748,13.378
				c0.585-2.536,1.165-5.078,1.749-7.378C1327.943,1356.654,1356.027,1357.919,1357.32,1358.037L1357.32,1358.037z"/>
			<path class="st37" d="M1169.111,1438.912c0,0,27-34.615,63.919-12.439c36.914,22.162,54.416,39.185,68.289,38.393
				c11.539,0.792,10.747,10.69,4.792,15.842c-2.79,7.12,47.458,50.698,59.752,45.546c21.415,24.756,1.54,72.816-9.083,77.962
				C1346.197,1609.361,1169.111,1438.912,1169.111,1438.912L1169.111,1438.912z"/>
			<path class="st38" d="M1095.738,665.785c-0.917,9.11,0.872,18.164,4.955,26.324c0.416,0.843,1.456,1.226,2.334,0.793
				c0.833-0.438,1.209-1.383,0.878-2.21l-0.085-0.124c-3.165-7.479-4.46-16.235-3.043-24.159c1.17-8.065,5.376-15.246,11.001-20.987
				l0.292-0.405c-2.165-0.428-4.544-1.108-6.957-2.018C1100.029,649.487,1096.402,657.423,1095.738,665.785z"/>
			<path class="st39" d="M2070.617,740.154c-7.311,2.626-49.94,8.474-61.468,8.238l-0.562-0.124h-0.169
				c-10.629,8.121-63.997,46.103-87.561,22.934c-15.914,31.167-126.364,115.844-180.971,133.041
				c-37.397,9.673-127.191,6.13-127.191,6.13c-13.542-75.004,22.207-103.701,22.207-103.701s22.625,5.016,117.694-5.613
				c33.743-17.439,140.987-80.61,140.987-80.61s-7.48-29.024,13.384-43.236c0,0,25.137-28.428,21.82-54.814
				c10.01-15.292,19.177,9.79,19.74,18.389c0.73,8.718-11.473,37.977-11.754,41.441c0,0.478,0.112,0.957,0.507,1.193
				c1.349-0.118,2.643-0.354,4.105-0.715c10.122-2.267,22.606-7.643,37.116-18.632c0,0,35.43-22.934,53.2-37.257
				c13.046-6.091,15.633,7.637,10.629,13.969c-4.78,5.973-35.936,32.01-48.139,39.765c0.45,0.478,0.843,0.957,1.181,1.44
				c7.423-3.582,48.026-23.058,65.91-33.68c13.722-4.061,14.509,9.791,8.604,15.404c-5.737,5.494-51.738,32.724-64.055,38.1
				c0.338,0.957,0.676,1.788,0.957,2.745c7.536-1.912,42.008-10.629,60.96-17.557c14.341-1.435,12.317,12.423,5.512,16.843
				c-6.861,4.303-49.208,20.06-60.962,22.332l-1.125,0.118v0.713c10.796-0.354,40.377-1.31,57.755-3.576
				C2082.594,725.098,2077.926,737.521,2070.617,740.154L2070.617,740.154z"/>
			<path class="st22" d="M1618.57,806.395c0,0-51.164,30.874-21.96,111.502c36.959,0,71.292-6.979,71.292-6.979
				s-11.37-39.35,9.842-104.523C1648.527,807.177,1618.57,806.395,1618.57,806.395L1618.57,806.395z"/>
			<path class="st40" d="M1263.488,878.492c0,0-56.125,10.769-64.836,24.581c-8.751,13.812-24.249,68.542-24.249,68.542
				l0.123,24.822c0,0-40.957,62.784-25.458,97.116c201.419,28.349,233.333,25.515,233.333,25.515l78.462-213.617
				C1460.864,905.452,1361.696,853.168,1263.488,878.492L1263.488,878.492z"/>
			<path class="st41" d="M1207.488,971.615l6.332,13.047l-27.545,35.137c0,0-16.911-8.232-11.749-23.361
				c0.625-17.158,2.666-24.822,2.666-24.822S1201.734,969.703,1207.488,971.615z"/>
			<path class="st41" d="M1261.57,968.819l-15.211,10.46c0,0,2.626,43.421,35.131,45.761c32.539,2.346,44.456-24.064,44.372-42.678
				C1300.319,969.214,1281.614,964.917,1261.57,968.819z"/>
			<path class="st42" d="M1500.737,905.44c0,0-0.248,3.34-5.5,18.266c-0.957,3.11-2.295,6.574-3.835,10.753
				c-5.293,14.211-13.413,35.108-26.247,65.803c-27.793-17.197-46.958,28.54-46.958,28.54h-10.792l15.459-64.481
				c1.204-4.904-2.047-9.678-6.961-10.517l-8.25-1.31c-8.999-1.44-14.622-10.517-12.001-19.109
				c3.126-10.034,7.458-23.412,11.753-36.313c-10.92-8.356-56.04-12.057-86.38-7.041c-30.289,5.016-72.124,13.013-107.081,0
				c-12.333-4.662-18.333-14.808-20.96-25.915c-1.456-5.735-1.912-11.945-1.827-17.557c0.124-14.217,3.374-26.037,3.374-26.037
				s59.29-31.886,134.665-14.093C1409.447,825.78,1500.737,905.44,1500.737,905.44L1500.737,905.44z"/>
			<path class="st43" d="M1341.197,1624.832c7.333-3.222,46.289-25.363-36.25-95.159c-83.085-70.273-95.918-112.497-121.832-100.327
				c-25.96,12.169-50.545,43.837,63.037,123.036C1304.03,1592.726,1330.484,1629.561,1341.197,1624.832L1341.197,1624.832z"/>
			<path class="st19" d="M1332.486,1628.999c7.333-3.222,40.125-7.299-39.833-81.116c-79.958-73.823-95.919-112.492-121.832-100.328
				c-25.96,12.17-12.71,62.756,63.041,123.042C1289.031,1614.519,1321.74,1633.724,1332.486,1628.999L1332.486,1628.999z"/>
			<path class="st37" d="M945.114,1410.411c0,0,26.999-34.613,63.957-12.445c36.914,22.169,54.376,39.191,68.289,38.405
				c11.5,0.786,10.713,10.684,4.752,15.83c-2.794,7.126,47.498,50.698,59.791,45.547c21.377,24.755,1.502,72.815-9.082,77.967
				C1122.238,1580.861,945.114,1410.411,945.114,1410.411L945.114,1410.411z"/>
			<path class="st43" d="M1117.238,1596.331c7.333-3.228,46.289-25.368-36.25-95.159c-83.124-70.273-95.917-112.497-121.831-100.327
				c-25.96,12.164-50.586,43.837,63.034,123.036C1080.071,1564.225,1106.485,1601.061,1117.238,1596.331z"/>
			<path class="st19" d="M1108.487,1600.498c7.333-3.228,40.126-7.305-39.794-81.116c-79.956-73.817-95.916-112.497-121.87-100.328
				c-25.919,12.17-12.67,62.756,63.04,123.036C1065.072,1586.012,1097.779,1605.222,1108.487,1600.498z"/>
			<path class="st29" d="M1468.198,998.428c14.037,7.749,22.495,26.899,4.786,58.16c-14.661,25.847-42.954,43.647-57.036,35.891
				c-14.042-7.761-8.172-32.719,0.664-61.068C1425.57,1002.562,1454.11,990.673,1468.198,998.428L1468.198,998.428z"/>
			<path class="st44" d="M1495.237,923.706c-15.207-15.044-57.166-55.534-77.04-65.206
				c-24.586-11.822-100.501-26.393-161.125-14.447c-33.793,6.686-54.297,5.252-65.915,2.508c-0.085,5.613,0.371,11.822,1.827,17.557
				c9.459,4.893,22.501,8.954,40.254,9.791c48.5,2.631,145.042-37.381,201.245,12.541c34.047,30.216,49.838,42.751,56.919,48.01
				L1495.237,923.706z"/>
			<path class="st45" d="M1418.197,1028.802c0,0-13.171,127.906-33.084,168.273c-0.208,0.478-0.461,0.957-0.709,1.434
				c-0.709,1.311-1.293,2.385-2.041,3.459c-21.337,33.444-167.126,71.899-207.251,70.229c-40.126-1.676-48.252-25.324-66.377-61.748
				c0.253-3.458,1.462-9.791,3.503-17.552c8.121-32.127,27.663-90.761,27.663-90.761s108.167-6.332,192.5,2.981
				c54.168,10.988,75.004-76.315,75.004-76.315H1418.197z"/>
			<path class="st45" d="M1139.901,1102.129c0,0,25.667-29.231,59.544-28.416c33.878,0.815,96.166,18.744,133.041,31.426
				C1260.531,1104.61,1157.11,1110.937,1139.901,1102.129L1139.901,1102.129z"/>
			<path class="st46" d="M1455.443,1020.142c-8.705,4.674-15.246,12.327-19.834,20.515c-2.12,4.291-3.454,8.767-5.332,13.093
				c-2.002,4.319-3.667,8.784-6.372,13.413l-0.709-0.09c-1.208-5.191-0.961-10.5,0.293-15.6c1.163-5.158,4.246-9.634,7.248-13.875
				c6.209-8.401,14.622-15.268,24.458-18.136L1455.443,1020.142L1455.443,1020.142z"/>
			<path class="st47" d="M1451.698,944.666c-5.629-5.865-11.584-11.388-17.917-16.337l-9.712-6.844
				c-3.12-2.479-6.293-4.605-9.706-7.118l0.124-0.462c4.375-0.067,8.419,1.676,12.164,3.572c3.756,2.007,6.709,5.094,9.672,7.974
				c5.956,5.782,11.164,12.142,15.791,18.924L1451.698,944.666L1451.698,944.666z"/>
			<path class="st47" d="M1464.986,938.238c-5.668-7.902-13.002-14.555-21.044-19.661c-4.083-2.525-8.413-4.421-12.665-6.513
				c-4.167-2.379-8.627-3.937-13.126-6.383l0.124-0.472c5.044-0.22,10.128,0.77,14.875,2.463c4.837,1.671,9.043,4.696,13.002,7.778
				c8.003,6.103,14.667,13.801,19.251,22.557L1464.986,938.238L1464.986,938.238z"/>
			<path class="st48" d="M1227.986,841.763c0.67,11.112,3.504,22.231,9.044,31.172c2.958,4.432,6.957,7.559,10.792,10.719
				c3.829,3.437,8.621,5.343,13.789,8.368l-0.085,0.715c-5.786,0.855-12.287,0.197-17.663-3.116
				c-5.5-3.12-9.291-8.503-11.832-13.885c-5.13-10.92-6.124-22.775-4.753-34.029L1227.986,841.763L1227.986,841.763z"/>
			<path class="st48" d="M1214.151,827.13c-1.872,11.973-2.289,24.423,0.501,35.705c1.541,5.623,4.252,10.539,7.17,14.998
				c3.082,4.482,7.249,7.991,12.417,11.855l-0.214,0.681c-6.417-0.096-13.081-2.987-17.832-8.065
				c-4.708-5.197-6.288-12.08-7.165-18.379c-1.794-12.816,0.54-25.317,4.414-36.992L1214.151,827.13L1214.151,827.13z"/>
			<path class="st49" d="M1315.029,1003.726v0.118c-3.959,10.511-13.749,17.917-25.38,17.917c-13.913,0-25.414-10.753-27.084-24.604
				c-0.118-0.478-0.118-1.074-0.118-1.676C1286.068,976.136,1311.571,988.677,1315.029,1003.726z"/>
			<path class="st49" d="M1206.031,994.531l-1.085,1.311l-16.539,19.824c-7.543-3.459-12.918-10.629-13.88-19.228
				c-0.123-0.595-0.123-1.192-0.123-1.793C1186.275,980.315,1202.443,985.572,1206.031,994.531z"/>
			<path class="st50" d="M1186.275,1067.094c0,0,31.381,0.55,38.545-3.853c-36.413-18.71-43.292-18.193-53.667-15.15
				C1167.987,1054.441,1186.275,1067.094,1186.275,1067.094L1186.275,1067.094z"/>
			<path class="st48" d="M1175.151,979.279c0,0,13.795-13.975,37.544,3.083c1.124-18.705,1.124-18.705,1.124-18.705
				s-16.044-8.924-35.874,5.163C1175.151,979.279,1175.151,979.279,1175.151,979.279z"/>
			<path class="st48" d="M1246.359,979.279l6.208-21.128c0,0,41.25-13.205,76.584,17.056c-3.289,7.154-3.289,7.154-3.289,7.154
				S1284.443,966.84,1246.359,979.279L1246.359,979.279z"/>
			<path class="st51" d="M1206.031,994.531l-1.085,1.311c-6.124-0.715-24.666,0.242-30.419,0.595
				c-1.08,0.118-1.664,0.118-1.664,0.118c0.461-0.713,0.955-1.31,1.541-1.911C1186.275,980.315,1202.443,985.572,1206.031,994.531
				L1206.031,994.531z"/>
			<path class="st51" d="M1315.029,1003.726v0.118c-18.209-11.584-44.208-8.238-52.464-6.686c-1.664,0.236-2.621,0.478-2.621,0.478
				c0.833-0.839,1.665-1.552,2.503-2.154C1286.068,976.136,1311.571,988.677,1315.029,1003.726z"/>
			<path class="st40" d="M1151.363,1105.139c0,0,59.915-9.093,150.502,4.336c11.995,13.441,11.248,16.635,8.998,25.486
				c-2.249,8.852-23.209,66.326-23.209,66.326s-36.875,17.17-55.877,2.981c-18.998-14.177-42.96-23.878-50.457-26.87
				c-7.502-2.981-25.459,9.706-35.958,20.156C1137.899,1166.948,1151.363,1105.139,1151.363,1105.139L1151.363,1105.139z"/>
			<path class="st52" d="M1168.363,1122.887c11.417-1.665,44.663-5.197,97.29-0.146c3.667,0.354,5.168,4.578,2.918,7.491
				c-29.17,37.774-94.5,46.464-103.999-2.177C1164.111,1125.615,1165.861,1123.246,1168.363,1122.887L1168.363,1122.887z"/>
			<path class="st49" d="M1174.65,1124.512h84.131c0,0-14.38,17.231-53.296,15.904
				C1174.404,1143.251,1173.571,1128.252,1174.65,1124.512z"/>
			<path class="st53" d="M1591.363,746.221c0,0,10.499,18.412,15.499,20.898c11.962-0.495,51.164-26.534,66.269-60.287
				c-3.373-67.102-24.355-83.753-24.355-83.753L1591.363,746.221z"/>
			<path class="st54" d="M1460.864,790.548c0,0,14.205,7.175,0,42.004c-0.253,17.916,55.917,35.086,114.916-31.78
				c9.122-22.703,26.037-59.173,26.037-59.173L1460.864,790.548L1460.864,790.548z"/>
			<path class="st55" d="M1460.864,806.395c0,0,19.998,8.498,39.788,7.502c19.835-0.996,54.207-13.71,80.92-46.778
				C1495.029,791.504,1460.864,806.395,1460.864,806.395L1460.864,806.395z"/>
			<path class="st56" d="M1428.652,631.784c0,0-78.873-42.807-103.33-71.167c-18.457-23.89-6.001-58.223,37.954-51.255
				c32.584,10.197,82.917,78.254,84.418,80.651C1449.156,592.407,1428.652,631.784,1428.652,631.784z"/>
			<path class="st57" d="M1422.864,631.784c-57.502-23.636-104.461-67.906-109.752-83.551c2.542,3.824,5.623,5.37,9.582,2.03
				l0.248-0.124c15.712,30.937,97.875,73.649,97.875,73.649S1428.821,626.144,1422.864,631.784L1422.864,631.784z"/>
			<path class="st58" d="M1412.692,591.423c-1.996,0.849-14.999,18.48-11.495,31.656c8.998-8.228,32.538-16.467,34.249-15.826
				C1437.155,607.889,1433.651,582.425,1412.692,591.423z"/>
			<path class="st21" d="M1614.904,723.074c0,0-18.71,35.232-45.294,53.982c-28.164,19.942-82.038,34.867-111.039,27.349
				c-11.378-2.874-55.332-42.757-50.917-86.589c3.711-35.469,6.709-45.979,7.665-48.605c0.253-0.596,0.377-0.833,0.377-0.833
				s-4.083-57.925,15.206-78.822c18.334-20.066,175.376,36.902,190.211,42.391c0.872,0.242,1.209,0.36,1.209,0.36
				S1648.32,646.76,1614.904,723.074L1614.904,723.074z"/>
			<path class="st54" d="M1621.112,631.947c-6.084,24.841-11.961,48.011-15.791,60.556
				c-80.165-42.762-154.792-32.487-190.002-23.293c0.253-0.596,0.377-0.833,0.377-0.833s-4.083-57.925,15.206-78.822
				C1449.235,569.49,1606.277,626.458,1621.112,631.947z"/>
			<path class="st53" d="M1579.407,627.786c-1.794-0.096-2.503,15.05,6.996,26.932c8.959,12.384,0,35.273,0,35.273
				s10.46,4.977,18.958,2.491c7.002-23.889,9.504-36.126,18.462-36.475C1632.821,655.657,1598.567,628.865,1579.407,627.786z"/>
			<path class="st59" d="M1676.224,703.368c-0.843,1.552-1.631,2.981-2.474,4.539l-0.619-1.075
				c-22.646-40.13-120.645-83.72-120.645-83.72l-1.664-0.477l-19.791-5.254c0,0-54.504-41.322-95.586-71.179
				c11.747-22.455,35.581-44.669,62.417-58.16h0.124c17.248-8.598,35.587-13.739,52.958-13.019c3.211,0.118,6.333,0.354,9.459,0.957
				c28.625,4.898,106.823,28.428,135.841,80.61c4.218,7.53,7.311,14.93,9.335,22.095
				C1718.291,620.605,1700.182,659.183,1676.224,703.368L1676.224,703.368z"/>
			<path class="st60" d="M1431.863,571.064c0,0-57.75,20.033-30.666,52.015c2.996-9.724,6.501-18.204,24.457-26.01
				c17.995-7.806,23.958-9.087,25.959-17.05C1453.61,572.054,1445.197,565.019,1431.863,571.064L1431.863,571.064z"/>
			<path class="st61" d="M1641.234,523.269c0,0-17.001,4.662-28.749,12.181c-39.495-39.405-86.706-47.047-114.499-47.407
				c17.248-8.598,35.587-13.739,52.958-13.019C1590.238,510.615,1641.234,523.269,1641.234,523.269z"/>
			<path class="st62" d="M1676.224,703.368c-0.956,1.193-2.024,2.385-3.093,3.464c-22.646-40.13-120.645-83.72-120.645-83.72
				l-1.664-0.477c14.25-29.143,52.205-98.646,90.412-99.366c22.168,0.957,48.543,26.157,64.347,55.416
				C1718.291,620.605,1700.182,659.183,1676.224,703.368L1676.224,703.368z"/>
			<path class="st57" d="M1552.486,623.112c-78.333-1.794-148.792-59.836-163.29-81.448c-14.374-21.5-31.876-30.813-31.876-30.813
				c-17.456-5.016-41.542,10.269-38.46,26.87c0.501,4.179,1.918,8.239,4.083,12.417l-0.248,0.124
				c-3.959,3.34-7.041,1.794-9.582-2.03l-0.124-0.242c-1.169-3.937-1.67-6.922-1.67-8.716
				c-1.417-17.433,14.042-36.424,39.417-35.829c4.336,0,9.959,1.316,16.415,3.464c36.088,12.305,96.919,53.145,96.919,53.145
				s44.456,29.502,79.419,56.136C1546.609,618.568,1549.613,620.841,1552.486,623.112L1552.486,623.112z"/>
			<path class="st63" d="M1445.321,723.389c7.788,2.182,26.875,4.668,56.625-0.242c2.126-0.354,3.999,1.76,3.875,3.943
				c-0.748,14.189-17.541,40.221-39.501,37.297c-19.251-2.576-23.665-27.073-24.666-36.954
				C1441.445,725.228,1443.195,722.793,1445.321,723.389L1445.321,723.389z"/>
			<path class="st49" d="M1454.233,752.042c0,0,12.502,3.487,35.464-1.743C1481.694,764.735,1459.447,765.977,1454.233,752.042z"/>
			<path class="st55" d="M1460.864,699.944c0,0-20.751-4.229-25.459-13.435c6.704-7.469,11.956-14.184,11.579-18.165
				c-1.873,1.991-11,15.178-15.044,17.17c-4.037,1.99,4.837,14.38,8.672,17.663C1445.86,707.654,1458.115,705.213,1460.864,699.944
				L1460.864,699.944z"/>
			<path class="st51" d="M1446.068,654.825c-3.621,8.627-11.663,13.497-17.911,10.882c-6.254-2.615-8.38-11.725-4.753-20.352
				c3.667-8.627,11.665-13.498,17.917-10.883C1447.57,637.087,1449.696,646.198,1446.068,654.825L1446.068,654.825z"/>
			<path class="st49" d="M1443.903,657.006c-3.667,8.7-11.378,13.756-17.254,11.298c-5.871-2.458-7.659-11.5-3.999-20.195
				c3.667-8.7,11.378-13.75,17.254-11.298C1445.781,639.27,1447.57,648.312,1443.903,657.006z"/>
			<path class="st51" d="M1437.902,648.807c-2.041,4.825-6.332,7.62-9.627,6.248c-3.291-1.372-4.285-6.399-2.289-11.219
				c2.041-4.831,6.377-7.62,9.623-6.254C1438.904,638.96,1439.904,643.982,1437.902,648.807L1437.902,648.807z"/>
			<path class="st49" d="M1438.403,644.133c0,1.649-1.372,2.992-2.998,2.992c-1.67,0-3.002-1.343-3.002-2.992
				c0-1.652,1.332-2.992,3.002-2.992C1437.031,641.142,1438.403,642.481,1438.403,644.133z"/>
			<path class="st51" d="M1528.86,662.934c-3.874,9.2-12.456,14.396-19.126,11.607c-6.664-2.789-8.914-12.513-5.039-21.712
				c3.874-9.201,12.417-14.398,19.081-11.602C1530.446,644.011,1532.735,653.733,1528.86,662.934z"/>
			<path class="st49" d="M1526.526,665.256c-3.914,9.28-12.124,14.673-18.412,12.052c-6.253-2.621-8.171-12.266-4.251-21.539
				c3.914-9.28,12.124-14.667,18.417-12.046C1528.528,646.344,1530.446,655.983,1526.526,665.256L1526.526,665.256z"/>
			<path class="st51" d="M1519.03,626.419c0,0,12.958,5.82,20.33,8.065c3.874-2.199-0.293-11.186-9.499-14.054
				C1522.28,618.073,1512.321,621.183,1519.03,626.419z"/>
			<path class="st51" d="M1426.155,623.079c0,0,14.081-1.552,21.583-3.368c2.25-3.853-5.961-9.471-15.335-7.272
				C1424.693,614.244,1417.697,621.976,1426.155,623.079z"/>
			<path class="st51" d="M1520.111,656.511c-2.166,5.146-6.749,8.132-10.247,6.665c-3.503-1.457-4.583-6.822-2.418-11.968
				c2.165-5.145,6.749-8.126,10.246-6.67C1521.196,646.007,1522.28,651.367,1520.111,656.511z"/>
			<path class="st49" d="M1448.194,726.684c0,0,21.999,3.47,52.458-0.624C1491.53,751.553,1442.07,747.909,1448.194,726.684
				L1448.194,726.684z"/>
			<path class="st64" d="M1652.279,700.376c-0.961,2.509-5.252,10.517-11.5,17.675c-7.085,8.486-16.792,15.769-26.459,12.064
				c-12.834-4.775-12.71-30.689-4.792-51.947l0.208-0.595c8.166-21.382,20.96-29.503,33.917-24.722
				C1656.486,657.743,1660.405,679.007,1652.279,700.376z"/>
			<path class="st21" d="M1640.778,718.052c-7.085,8.486-16.792,15.769-26.459,12.064c-12.834-4.775-12.71-30.689-4.792-51.947
				c6.709-6.096,14.25-7.766,21.791-4.898C1643.652,677.932,1647.735,697.633,1640.778,718.052z"/>
			<path class="st49" d="M1520.655,651.524c0,1.766-1.416,3.194-3.21,3.194c-1.749,0-3.205-1.428-3.205-3.194
				c0-1.76,1.456-3.189,3.205-3.189C1519.239,648.335,1520.655,649.764,1520.655,651.524z"/>
			<path class="st55" d="M1641.363,696.44c-5.376,12.659-15.46,20.426-22.5,17.439c-3.835-1.676-6.001-5.972-6.378-11.708
				c2.042,1.434,4.584,2.272,7.211,2.272c7.165,0,12.918-5.849,12.918-12.901c0-7.046-5.753-12.777-12.918-12.777h-0.377
				c5.544-8.362,13.21-12.895,18.833-10.387C1645.193,671.358,1646.656,683.899,1641.363,696.44z"/>
			<path class="st65" d="M1543.488,616.19c-24.542-3.588-84.333-16.011-128.665-56.732c-24.919-23.513-20.589-40.845-47.673-52.549
				c36.088,12.305,96.919,53.145,96.919,53.145S1508.525,589.556,1543.488,616.19L1543.488,616.19z"/>
			<path class="st51" d="M1310.739,1000.869c0,6.435-5.208,11.647-11.669,11.647c-6.456,0-11.668-5.212-11.668-11.647
				c0-6.428,5.212-11.635,11.668-11.635C1305.531,989.233,1310.739,994.441,1310.739,1000.869z"/>
			<path class="st51" d="M1205.778,994.767v0.118l-13.543,15.528c-3.458-1.671-5.961-5.376-5.961-9.555
				c0-5.855,4.797-10.629,10.629-10.629C1200.525,990.229,1203.736,992.023,1205.778,994.767z"/>
			<path class="st66" d="M1947.795,708.621c-0.45,9.909-3.824,19.346-9.449,27.467c-0.562,0.839-1.799,1.075-2.587,0.478
				c-0.9-0.596-1.125-1.67-0.674-2.509l0.169-0.118c4.499-7.524,7.31-16.719,7.085-25.436c0-8.839-3.375-17.197-8.492-24.243
				l-0.281-0.478c2.362-0.118,5.061-0.477,7.818-1.074C1945.769,690.468,1948.413,699.545,1947.795,708.621L1947.795,708.621z"/>
			<path class="st49" d="M1296.281,998.833c0,1.99-1.625,3.605-3.627,3.605c-1.997,0-3.623-1.615-3.623-3.605
				c0-1.996,1.625-3.611,3.623-3.611C1294.655,995.223,1296.281,996.837,1296.281,998.833z"/>
			<path class="st49" d="M1194.694,998.119c0,1.991-1.625,3.611-3.623,3.611c-2.002,0-3.627-1.619-3.627-3.611
				c0-1.996,1.625-3.611,3.627-3.611C1193.069,994.508,1194.694,996.123,1194.694,998.119z"/>
			<path class="st48" d="M1385.113,1197.075c-0.208,0.478-0.461,0.957-0.709,1.434c-0.709,1.311-1.293,2.385-2.041,3.459
				c-21.337,33.444-167.126,71.899-207.251,70.229c-40.126-1.676-48.252-25.324-66.377-61.748c0.253-3.458,1.462-9.791,3.503-17.552
				c4.038,11.585,10.792,29.143,14.959,31.291c6.248,3.104,18.204-26.634,18.204-26.634l19.042-15.168
				c0,0-25.498,53.386-13.042,70.938C1163.865,1270.999,1310.987,1234.102,1385.113,1197.075L1385.113,1197.075z"/>
		</g>
		<path class="st67" d="M652.574,3465.072c-9.004,0-17.669-4.989-21.921-13.598c-6.04-12.103-1.08-26.77,11-32.77l902.376-447.396
			c12.085-5.994,26.752-1.045,32.752,11.05c6.001,12.103,1.08,26.77-11.045,32.77l-902.331,447.396
			C659.907,3464.256,656.195,3465.072,652.574,3465.072z"/>
		<path class="st45" d="M1995.428,2167.746c0,0,49.545,103.651-58.206,145.885c75.696,69.898,151.728-61.343,151.728-61.343
			l-15.072-90.61l-75.358,20.425L1995.428,2167.746L1995.428,2167.746z"/>
		<path class="st68" d="M2019.834,2165.857c0,0,7.199,93.337-30.931,193.675c79.295-92.697,124.453-109.129,124.453-109.129
			l-15.071-90.608l-75.358,20.431L2019.834,2165.857L2019.834,2165.857z"/>
		<polygon class="st69" points="1532.196,2987.662 1532.196,3022.996 1768.679,3096.014 1781.389,3035.718 1532.196,2965.814 		"/>
		<path class="st69" d="M1560.82,2994.405c0,15.792-12.833,28.591-28.624,28.591s-28.585-12.8-28.585-28.591
			c0-15.791,12.794-28.591,28.585-28.591S1560.82,2978.614,1560.82,2994.405z"/>
		<path class="st70" d="M2736.127,4151.453c-2.418,2.28-4.78,4.559-7.198,6.718c-2.193,2.026-4.33,4.049-6.355,5.819
			c-60.567,54.592-66.866,39.772-84.692,47.881c-9.392,6.208-14.341,19.627-26.656,35.969
			c-11.135,13.549-27.837,29.643-57.756,46.117l-0.507,0.25c-2.249,0.874-12.034,4.791-19.345,4.791
			c-64.616-0.624-100.102-1.874-120.741-4.542c20.302-14.191,37.791-27.87,52.863-41.171h0.112
			c27.725-24.442,47.352-47.242,61.074-67.631c43.527-64.853,28.625-106.773,28.625-106.773l56.968-54.21
			c0,0,21.482,36.35,54.213,53.449c2.249,1.138,4.554,2.278,7.085,3.546C2706.097,4098.892,2749.794,4124.604,2736.127,4151.453
			L2736.127,4151.453z"/>
		<path class="st18" d="M2736.127,4151.453c-2.418,2.28-4.78,4.559-7.198,6.718c-2.193,2.026-4.33,4.049-6.355,5.819
			c-30.93,28.5-48.757,41.801-60.174,45.98c-7.31-4.688-14.396,0.762-23.282,4.818c-9.391,6.073-15.071,18.107-27.893,33.052
			c-11.135,13.549-27.837,29.643-57.756,46.117l-0.507,0.25c-2.249,0.874-12.034,4.791-19.345,4.791
			c-64.616-0.624-100.102-1.874-120.741-4.542c-19.233-2.541-25.42-6.208-30.256-11.783c-2.53-3.042-9.11-15.584,8.604-24.826
			c0,0,61.581-0.508,74.515-4.563h0.112c27.725-24.442,47.352-47.242,61.074-67.631c22.158-13.177,43.922-19,35.937,15.073
			c56.349-36.738,107.019-80.938,110.955-119.062C2706.098,4098.892,2749.794,4124.604,2736.127,4151.453L2736.127,4151.453z"/>
		<path class="st70" d="M2064.88,4196.929c1.125,36.6,0.507,87.387-29.581,88.784c-96.616-29.128-84.299-42.938-101.34-55.227
			c-21.37-10.766-61.242,12.289-138.005-49.011c-76.765-61.433-78.282-118.175-50.671-107.408
			c65.967,31.667,117.311,44.33,156.284,47.118c77.945,5.574,106.906-28.244,106.906-28.244l75.358,22.547
			c0,0-20.864,36.724-19.402,73.587C2064.599,4191.603,2064.711,4194.14,2064.88,4196.929z"/>
		<path class="st71" d="M2650.422,4065.091c0,0-21.876,28.609-94.76,36.8c-69.734-210.3-266.565-518.041-266.565-518.041
			s-18.445-12.596-43.752-37.904c-1.462-1.462-3.431-4.397-5.906-8.682c-41.053-70.792-214.657-504.588-212.97-522.933
			c15.409-164.32,202.453-87.533,202.453-87.533s57.082,222.884,107.582,400.78c19.121,67.125,37.173,127.771,51.007,167.632
			C2520.907,3557.194,2650.423,4065.091,2650.422,4065.091L2650.422,4065.091z"/>
		<path class="st72" d="M2336.506,3327.577c-57.194,55.877-84.413,145.868-97.066,209.686
			c-41.053-70.792-214.657-504.588-212.97-522.933c15.409-164.32,202.453-87.533,202.453-87.533
			S2286.006,3149.682,2336.506,3327.577z"/>
		<path class="st18" d="M2035.299,4285.712c-51.851-15.649-76.989-25.93-87.449-34.875c0.45-8.693-7.873-12.113-15.746-17.8
			c-21.37-10.766-57.924,5.797-136.15-51.563c-79.295-58.137-78.282-118.175-50.671-107.408
			c65.967,31.667,117.311,44.331,156.284,47.118c22.438,12.667,38.354,28.749,4.837,38.758
			c59.893,30.649,123.384,52.562,158.476,36.988C2066.004,4233.529,2065.387,4284.315,2035.299,4285.712L2035.299,4285.712z"/>
		<path class="st71" d="M2151.71,2944.714c-4.555,15.398-95.659,588.518-86.492,645.52c12.315,63.328-46.508,453.322-69.34,511.641
			c62.648,42.487,108.257,43.542,108.257,43.542s106.85-396.863,108.2-450.688c1.293-53.83-19.008-107.66-19.008-107.66
			s127.94-370.48,148.578-462.304c20.583-91.83-30.65-212.15-30.65-212.15L2151.71,2944.714L2151.71,2944.714z"/>
		<path class="st73" d="M2045.816,2961.496c0,0,88.405,36.958,157.127,14.368c-1.069-451.703,19.964-702.043,19.964-702.043
			s-18.728-35.063-52.695-45.333c-34.079-10.269-123.665,24.115-141.493,149.625c-17.826,125.51-52.919,175.871-17.883,226.867
			c34.98,50.997,17.883,60.849,17.883,60.849L2045.816,2961.496L2045.816,2961.496z"/>
		<path class="st43" d="M1990.76,2576.58c0,0,106.288,30.632,167.924,10.663c-10.179,70.375-6.973,78.586-6.973,78.586
			s-90.373-4.173-125.24-30.864C1991.547,2608.286,1990.76,2576.58,1990.76,2576.58z"/>
		<path class="st70" d="M1798.878,2786.48l-129.907,156.254c-2.868,3.448-7.069,5.472-11.568,5.669
			c-45.04,1.974-83.456,10.044-95.874,11.152c-5.916,0.534-11.293,3.369-13.417,8.953c-6.293,16.455-17.793,49.81-13.127,62.316
			c6.333,16.893,63.334,40.108,69.667,35.89c6.338-4.223,12.918-17.635,12.918-17.635l-20.122-6.152
			c-4.752-1.451-8.25-5.511-8.835-10.433c-1.501-13.502-0.624-39.315,27.793-42.695c18.119,4.701,69.943,19.806,69.943,19.806
			l61.524-46.271c0,0,112.868-94.541,135.475-124.605C1905.841,2808.666,1798.878,2786.48,1798.878,2786.48z"/>
		<path class="st74" d="M1798.878,2786.48c0,0,52.75-2.637,84.469,52.25c103.363-137.214,131.932-181.782,132.944-212.869
			c-14.79-44.669,2.643-194.001,35.936-329.702c-27.051-17.985-48.027,17.473-48.027,17.473s-106.119,301.335-118.772,335.112
			C1862.202,2659.294,1798.878,2786.48,1798.878,2786.48L1798.878,2786.48z"/>
		<path class="st75" d="M2083.832,2265.408c0,0-80.531,207.475-66.528,329.364c21.763,51.868,28.512,61.204,28.512,61.204
			s8.941,466.819,33.799,553.952c-76.313-6.219-88.855-21.785-88.855-21.785s26.544-536.834,23.451-553.177
			c-34.249-38.118-45.158-58.386-45.158-58.386s11.191-138.799,91.16-322.234C2076.466,2231.17,2083.832,2265.408,2083.832,2265.408
			z"/>
		<path class="st76" d="M2053.52,2866.129c0,0-189.295,136.037-209.483,146.93c-19.571,12.57-45.16,33.77-45.16,33.77
			l-17.489-11.112c0,0-42.46-10.388-50.445-12.722c-20.19,2.987-38.861,29.772-24.858,53.116
			c20.921,7.035,18.671,9.336,18.671,9.336s-3.093,24.895-12.429,23.339c-9.334-1.553-74.717-35.79-77.804-49.793
			c10.877-49.792,35.739-73.136,40.464-79.356c4.668-6.226,106.682-2.446,106.682-2.446s178.384-158.247,196.886-190.712
			C1997.057,2754.013,2053.52,2866.129,2053.52,2866.129L2053.52,2866.129z"/>
		<path class="st77" d="M2181.798,2218.95c0,0,120.853,88.663,145.26,118.965c-17.378,103.954-63.324,287.501-58.261,297.05
			c42.234,93.652,127.49,408.524,142.224,509.852c-94.986,61.22-217.694,50.664-217.694,50.664s-33.517-351.848-50.389-569.621
			c-31.661-63.666,8.604-217.778,61.974-374.686C2195.013,2226.757,2181.798,2218.951,2181.798,2218.95L2181.798,2218.95z"/>
		<path class="st78" d="M2260.755,2786.48l-24.97-36.943c0,0,53.144-60.534,176.191-123.677c35.992,9.105,35.992,9.105,35.992,9.105
			S2342.636,2755.335,2260.755,2786.48L2260.755,2786.48z"/>
		<path class="st79" d="M2379.921,2998.106c0,0,134.575-69.66,189.969-139.322c-45.889-166.237-121.922-223.818-121.922-223.818
			s-106.063,44.911-144.079,103.493C2305.463,2816.038,2379.921,2998.105,2379.921,2998.106L2379.921,2998.106z"/>
		<path class="st80" d="M2235.785,2749.537c0,0,57.025-17.411,68.104-11.079c11.079,23.75,72.827,175.735,76.032,259.647
			c-58.599,0-117.085,18.997-117.085,18.997S2214.696,2861.146,2235.785,2749.537L2235.785,2749.537z"/>
		<path class="st80" d="M2327.058,2404.156c5.118,5.58,88.292,230.809,88.292,230.809h32.617l-104.208-250.464L2327.058,2404.156z"
			/>
		<path class="st80" d="M2289.154,2769.546c0,0-118.942-415.239-22.945-446.124c30.931-12.726,45.046,4.937,45.046,4.937
			s-15.296-34.631-48.814-22.563c-33.461,12.064-44.259,30.407-51.344,118.009c-8.154,99.528,48.419,345.74,48.419,345.74H2289.154z
			"/>
		<path class="st75" d="M1978.556,2786.48c0,0,31.212,64.031,74.965,79.649c124.565-107.88,111.181-97.774,111.181-97.774
			s181.927-320.373,193.85-344.549c11.865-24.171-8.83-85.622-56.687-98.831c-47.858-13.211-100.552,61.259-90.767,98.831
			c-35.43,56.58-131.483,258.444-131.483,258.444L1978.556,2786.48L1978.556,2786.48z"/>
		<path class="st70" d="M2211.097,2160.054c0,0-52.414,28.186-8.155,87.848c-97.91,140.373-149.423,168.632-131.933,44.128
			c-14.115-50.309-24.125-124.806-25.139-160.056C2044.803,2096.725,2211.097,2160.054,2211.097,2160.054L2211.097,2160.054z"/>
		<path class="st76" d="M1933.51,2063.843c3.486,45.203,20.02,81.656,36.441,103.386c19.347,28.232,58.599,30.656,83.345,25.06
			c24.856-5.601,121.753-3.824,172.422-155.985c50.726-152.043-135.699-223.515-189.181-208.837
			c-53.369,14.796-59.78,33.332-59.78,33.332s-44.427,28.839-40.66,144.912c0.056,0.754,0,1.53,0.056,2.413
			C1932.722,2027.693,1932.16,2046.415,1933.51,2063.843L1933.51,2063.843z"/>
		<path class="st81" d="M1999.251,1951.278c0,0,6.524,30.189-2.08,51.266c-7.03,17.282-22.495,18.907-41.841,9.92
			c12.653,1.598,28.569-27.229,28.569-27.229S1997.508,1981.73,1999.251,1951.278z"/>
		<path class="st82" d="M2071.684,2092.445c0,0-12.034,8.57-34.866,2.694c-22.776-5.871-42.235-16.388-46.227-15.415
			c-3.937,0.973-5.061,4.46-0.957,13.423c1.294,12.586,5.793,23.26,22.102,27.006c16.309,3.745,42.291-9.612,60.229-24.019
			C2074.159,2094.3,2071.684,2092.445,2071.684,2092.445L2071.684,2092.445z"/>
		<path class="st41" d="M2025.514,2137.958c0,0-19.571,5.134-36.216-7.26C1989.072,2148.823,2015.054,2154.469,2025.514,2137.958z"
			/>
		<path class="st83" d="M2057.176,2045.785c-4.499,15.566,8.435,32.915,28.793,38.741c20.359,5.826,40.435-2.063,44.877-17.63
			c4.499-15.567-8.379-32.91-28.793-38.741C2081.751,2022.328,2061.618,2030.224,2057.176,2045.785z"/>
		<path class="st83" d="M1933.51,2063.843c15.128,0.096,27.95-7.378,31.324-19.453c4.554-15.465-8.323-32.888-28.737-38.68
			c0.055,0.754,0,1.53,0.055,2.413C1932.723,2027.693,1932.161,2046.415,1933.51,2063.843z"/>
		<path class="st41" d="M2191.639,2096.139c0,2.374-52.019,107.661-178.385,98.157c60.006,35.334,128.39,17.85,172.874-40.48
			C2221.051,2107.938,2191.639,2096.139,2191.639,2096.139z"/>
		<path class="st49" d="M2053.296,2102.827c0,0-26.882,3.082-61.412-12.086C1989.184,2113.602,2021.465,2124.044,2053.296,2102.827z
			"/>
		<path class="st41" d="M2011.511,2055.362c0,0-22.382-5.54-32.561-13.266c5.454-8.002,7.76-13.165,7.929-17.973
			c-3.992,7.541-12.034,15.443-15.409,18.553c-3.375,3.098,19.121,16.922,23.62,18.58
			C1999.589,2062.915,2012.13,2064.113,2011.511,2055.362L2011.511,2055.362z"/>
		<path class="st49" d="M1946.05,1972.924c0,0-5.623,36.11,15.522,40.44c21.201,4.33,26.994-11.91,27.5-18.991
			C1983.673,1980.522,1975.294,1964.511,1946.05,1972.924L1946.05,1972.924z"/>
		<path class="st49" d="M2143.556,2014.072c0,0-10.91,18.565-37.061,18.024c-28.343-0.595-38.41-15.954-37.903-26.335
			c3.318-19.537,20.751-32.286,44.708-18.828C2137.202,2000.39,2143.556,2014.072,2143.556,2014.072L2143.556,2014.072z"/>
		<path class="st51" d="M1989.803,1996.426c0.338,1.4-5.454-26.809-23.113-30.874c-17.659-4.055-27.556,4.92-32.786,0.016
			c2.306,10.899,9.11,11.338,32.448,8.565C1976.757,1970.983,1988.398,1990.752,1989.803,1996.426z"/>
		<path class="st51" d="M2162.677,2018.734c0,0-6.804,9.69-18.671,1.446c-11.753-8.25-27.837-28.585-40.322-34.67
			c-12.541-6.079-30.143,2.998-35.092,20.251c-6.074-10.134,14.79-34.406,37.791-26.061
			C2129.384,1988.046,2155.59,2021.209,2162.677,2018.734L2162.677,2018.734z"/>
		<path class="st84" d="M1952.406,1931.73c8.266-3.279,16.14-5.225,24.07-5.5c3.992,0.079,7.873,0.208,11.697,1.018
			c3.824,0.737,7.592,1.737,11.304,3.008l3.824-12.068c-4.5-1.13-9.167-2.226-13.948-2.267c-4.723-0.303-9.56,0.271-14.115,1.316
			C1966.183,1919.403,1957.298,1923.88,1952.406,1931.73L1952.406,1931.73z"/>
		<path class="st84" d="M2138.664,1950.71c-8.885-9.228-20.077-15.633-31.831-20.767c-11.698-5.191-24.688-8.437-38.128-8.504
			l0.336,12.665c11.36-0.444,23.17,1.338,34.755,4.403C2115.494,1941.701,2126.797,1946.284,2138.664,1950.71z"/>
		<path class="st45" d="M2116.281,1924.11c-17.883-9.572-34.135-21.674-45.439-37.352c-5.68-7.773-9.841-16.484-12.26-25.566
			c-2.811-9.014-3.206-18.563-3.149-28l-12.653-0.477c0.281,10.741,0.9,21.724,4.892,31.909
			c3.487,10.235,8.885,19.824,16.028,27.752c6.973,8.003,15.015,14.976,24.013,20.263
			C2096.597,1918.014,2106.271,1922.063,2116.281,1924.11L2116.281,1924.11z"/>
		<path class="st45" d="M2186.521,2264.182c10.292,49.382,46.621,126.606,112.7,115.028c66.135-11.591,86.042-33.709,93.129-81.769
			c-21.764,25.442-99.147,17.445-99.99-62.524c-0.562-61.569-2.305-186.561-3.093-240.623c-0.225-16.117-0.338-26.009-0.338-26.009
			l-94.366-5.798C2194.563,1962.487,2176.173,2214.672,2186.521,2264.182L2186.521,2264.182z"/>
		<path class="st45" d="M2108.914,1828.591c0,0-127.771-17.995-169.161,109.156
			C1921.925,1861.563,1981.199,1789.197,2108.914,1828.591z"/>
		<path class="st51" d="M2069.941,2006.02c0.562,7.547,7.199,13.193,14.734,12.608s13.16-7.177,12.541-14.723
			c-0.506-7.547-7.142-13.188-14.678-12.604C2075.003,1991.882,2069.379,1998.473,2069.941,2006.02z"/>
		<path class="st49" d="M2086.7,2002.313c0.169,2.34,2.193,4.089,4.555,3.908c2.306-0.18,4.049-2.226,3.88-4.566
			c-0.168-2.334-2.193-4.089-4.499-3.908C2088.274,1997.933,2086.531,1999.974,2086.7,2002.313z"/>
		<path class="st51" d="M1945.657,1992.781c0.562,7.547,5.849,13.295,11.81,12.84c5.905-0.462,10.179-6.946,9.617-14.498
			c-0.619-7.541-5.849-13.289-11.753-12.834C1949.425,1978.75,1945.095,1985.234,1945.657,1992.781L1945.657,1992.781z"/>
		<path class="st49" d="M1958.76,1989.363c0.169,2.339,1.8,4.116,3.655,3.976c1.8-0.141,3.15-2.148,2.981-4.494
			c-0.169-2.333-1.8-4.116-3.656-3.976C1959.886,1985.015,1958.591,1987.023,1958.76,1989.363z"/>
		<path class="st45" d="M2031.813,1825.802c0,0,28.062,9.768,48.083,25.498c42.909,113.048,188.901,189.93,188.901,189.93
			c8.379-23.771,15.015-46.514,19.233-68.053c4.554-22.708,6.354-43.938,5.23-63.289c-0.676-13.665-2.925-26.319-6.692-37.841
			l-0.113,0.006c-13.89-41.358-48.645-68.519-111.574-74.588c-0.562-0.084-1.069-0.045-1.574-0.129l-0.112,0.005
			C2045.759,1785.469,2031.813,1825.802,2031.813,1825.802L2031.813,1825.802z"/>
		<path class="st68" d="M2256.93,2338.775c52.807,20.566,104.827,13.109,135.42-41.334c-21.764,25.442-99.147,17.445-99.99-62.524
			c-0.562-61.569-2.305-186.561-3.093-240.623c-2.699-0.174-42.853-2.53-73.896-22.49
			C2210.534,2089.683,2204.011,2318.344,2256.93,2338.775z"/>
		<path class="st68" d="M2288.03,1973.177c19.008-95.98-7.706-165.563-113.15-175.713c-0.562-0.084-1.069-0.045-1.574-0.129
			l-0.112,0.005c-25.701,3.004-61.805,10.624-64.279,31.269C2105.483,1858.594,2174.43,1964.173,2288.03,1973.177z"/>
		<path class="st85" d="M2233.929,2309.542c0,0,77.495,61.581,152.572-2.66C2376.884,2363.019,2277.176,2381.886,2233.929,2309.542z
			"/>
		<path class="st85" d="M2079.896,1851.3c29.074,52.003,148.409,80.886,213.364,58.588c-0.676-13.665-2.925-26.319-6.692-37.841
			l-0.113,0.006C2242.984,1888.748,2163.689,1901.48,2079.896,1851.3L2079.896,1851.3z"/>
		<path class="st86" d="M1049.906,4027.488c-6.755,0-12.254-5.471-12.254-12.22v-155.367c0-6.748,5.499-12.226,12.254-12.226
			c6.748,0,12.209,5.478,12.209,12.226v155.367C1062.115,4022.018,1056.653,4027.488,1049.906,4027.488z"/>
		<path class="st86" d="M1049.906,4027.488c-3.167,0-6.293-1.191-8.672-3.576c-4.792-4.78-4.792-12.518,0-17.292l109.876-109.855
			c4.752-4.785,12.502-4.785,17.292,0c4.753,4.775,4.753,12.514,0,17.288l-109.876,109.859
			C1056.154,4026.297,1053.026,4027.488,1049.906,4027.488L1049.906,4027.488z"/>
		<path class="st86" d="M1205.238,4027.488h-155.332c-6.755,0-12.254-5.471-12.254-12.22c0-6.759,5.499-12.226,12.254-12.226
			h155.332c6.749,0,12.249,5.466,12.249,12.226C1217.487,4022.018,1211.986,4027.488,1205.238,4027.488z"/>
		<path class="st86" d="M1159.737,4137.354c-3.126,0-6.248-1.188-8.627-3.578l-109.876-109.864c-4.792-4.78-4.792-12.518,0-17.292
			c4.797-4.775,12.501-4.775,17.293,0l109.876,109.863c4.753,4.776,4.753,12.512,0,17.293
			C1165.984,4136.166,1162.863,4137.354,1159.737,4137.354L1159.737,4137.354z"/>
		<path class="st86" d="M1049.906,4182.858c-6.755,0-12.254-5.474-12.254-12.226v-155.364c0-6.759,5.499-12.226,12.254-12.226
			c6.748,0,12.209,5.466,12.209,12.226v155.364C1062.115,4177.383,1056.653,4182.858,1049.906,4182.858z"/>
		<path class="st86" d="M940.03,4137.354c-3.126,0-6.248-1.188-8.627-3.578c-4.791-4.773-4.791-12.517,0-17.293l109.831-109.863
			c4.797-4.775,12.501-4.775,17.293,0c4.792,4.774,4.792,12.512,0,17.292l-109.87,109.864
			C946.278,4136.166,943.152,4137.354,940.03,4137.354L940.03,4137.354z"/>
		<path class="st86" d="M1049.906,4027.488H894.529c-6.749,0-12.249-5.471-12.249-12.22c0-6.759,5.5-12.226,12.249-12.226h155.377
			c6.748,0,12.209,5.466,12.209,12.226C1062.115,4022.018,1056.653,4027.488,1049.906,4027.488z"/>
		<path class="st86" d="M1049.906,4027.488c-3.167,0-6.293-1.191-8.672-3.576l-109.831-109.859c-4.791-4.78-4.791-12.512,0-17.288
			c4.753-4.785,12.502-4.785,17.254,0l109.87,109.855c4.792,4.774,4.792,12.512,0,17.292
			C1056.154,4026.297,1053.026,4027.488,1049.906,4027.488L1049.906,4027.488z"/>
		<path class="st86" d="M370.364,4027.488c-6.754,0-12.209-5.471-12.209-12.22v-155.367c0-6.748,5.456-12.226,12.209-12.226
			c6.749,0,12.209,5.478,12.209,12.226v155.367C382.573,4022.018,377.113,4027.488,370.364,4027.488z"/>
		<path class="st86" d="M370.364,4027.488c-3.126,0-6.254-1.191-8.627-3.576c-4.792-4.78-4.792-12.518,0-17.292l109.837-109.855
			c4.792-4.785,12.496-4.785,17.288,0c4.791,4.775,4.791,12.508,0,17.288l-109.877,109.859
			C376.612,4026.297,373.49,4027.488,370.364,4027.488L370.364,4027.488z"/>
		<path class="st86" d="M525.736,4027.488H370.364c-6.754,0-12.209-5.471-12.209-12.22c0-6.759,5.456-12.226,12.209-12.226h155.372
			c6.755,0,12.209,5.466,12.209,12.226C537.945,4022.018,532.491,4027.488,525.736,4027.488L525.736,4027.488z"/>
		<path class="st86" d="M480.24,4137.354c-3.171,0-6.293-1.188-8.666-3.578l-109.837-109.864c-4.792-4.78-4.792-12.518,0-17.292
			c4.752-4.775,12.502-4.775,17.248,0l109.877,109.863c4.791,4.776,4.791,12.521,0,17.293
			C486.488,4136.166,483.361,4137.354,480.24,4137.354z"/>
		<path class="st86" d="M370.364,4182.858c-6.754,0-12.209-5.474-12.209-12.226v-155.364c0-6.759,5.456-12.226,12.209-12.226
			c6.749,0,12.209,5.466,12.209,12.226v155.364C382.573,4177.383,377.113,4182.858,370.364,4182.858z"/>
		<path class="st86" d="M260.488,4137.354c-3.128,0-6.254-1.188-8.627-3.578c-4.792-4.781-4.792-12.517,0-17.293l109.876-109.863
			c4.752-4.775,12.502-4.775,17.248,0c4.798,4.774,4.798,12.512,0,17.292l-109.831,109.864
			C266.741,4136.166,263.614,4137.354,260.488,4137.354L260.488,4137.354z"/>
		<path class="st86" d="M370.364,4027.488H214.986c-6.743,0-12.215-5.471-12.215-12.22c0-6.759,5.472-12.226,12.215-12.226h155.378
			c6.749,0,12.209,5.466,12.209,12.226C382.573,4022.018,377.113,4027.488,370.364,4027.488z"/>
		<path class="st86" d="M370.364,4027.488c-3.126,0-6.254-1.191-8.627-3.576l-109.876-109.859c-4.792-4.774-4.792-12.512,0-17.288
			c4.752-4.785,12.501-4.785,17.293,0l109.831,109.855c4.798,4.774,4.798,12.512,0,17.292
			C376.612,4026.297,373.49,4027.488,370.364,4027.488z"/>
		<path class="st87" d="M1016.112,3865.795c-8.874,0-17.376-4.802-21.751-13.193l-117.209-226.023l-116.287-188.586
			c-7.087-11.495-3.504-26.555,7.996-33.64c11.461-7.097,26.544-3.521,33.631,7.974l117.664,190.926l117.625,226.833
			c6.203,11.983,1.541,26.746-10.46,32.966C1023.738,3864.913,1019.903,3865.795,1016.112,3865.795L1016.112,3865.795z"/>
		<path class="st87" d="M702.53,3823.792c-127.418,0-258.253-20.425-313.54-51.525c-5.877-3.312-8.003-10.77-4.668-16.657
			c3.289-5.888,10.747-7.974,16.624-4.668c96.373,54.18,451.123,74.447,559.628,0.552c5.539-3.796,13.165-2.368,16.955,3.228
			c3.836,5.584,2.374,13.187-3.206,16.989C920.235,3808.535,812.652,3823.792,702.53,3823.792L702.53,3823.792z"/>
		<path class="st87" d="M701.404,3608.414c-38.584,0-78.417-1.867-117.749-5.663c-6.709-0.646-11.669-6.625-11-13.339
			c0.669-6.725,6.748-11.607,13.334-11.005c104.584,10.095,212.497,6.311,288.705-10.112c6.625-1.428,13.126,2.773,14.543,9.376
			c1.417,6.601-2.789,13.103-9.374,14.531C830.193,3602.898,767.697,3608.415,701.404,3608.414L701.404,3608.414z"/>
		<path class="st88" d="M1049.906,3884.354c-72.208,0-130.92,58.728-130.92,130.915c0,72.186,58.712,130.909,130.92,130.909
			c72.163,0,130.875-58.723,130.875-130.909C1180.78,3943.082,1122.069,3884.354,1049.906,3884.354L1049.906,3884.354z
			 M1049.906,4195.087c-99.168,0-179.835-80.672-179.835-179.818c0-99.157,80.667-179.818,179.835-179.818
			c99.123,0,179.79,80.661,179.79,179.818C1229.696,4114.416,1149.029,4195.087,1049.906,4195.087z"/>
		<path class="st89" d="M1083.692,4015.269c0,18.659-15.162,33.787-33.787,33.787c-18.671,0-33.794-15.128-33.794-33.787
			c0-18.665,15.123-33.792,33.794-33.792C1068.531,3981.476,1083.692,3996.604,1083.692,4015.269z"/>
		<path class="st88" d="M370.364,3884.354c-72.208,0-130.92,58.728-130.92,130.915c0,72.186,58.712,130.909,130.92,130.909
			c72.163,0,130.915-58.723,130.915-130.909C501.279,3943.082,442.527,3884.354,370.364,3884.354L370.364,3884.354z
			 M370.364,4195.087c-99.169,0-179.824-80.672-179.824-179.818c0-99.157,80.655-179.818,179.824-179.818
			c99.163,0,179.83,80.661,179.83,179.818C550.194,4114.416,469.527,4195.087,370.364,4195.087z"/>
		<path class="st89" d="M404.156,4015.269c0,18.659-15.128,33.787-33.793,33.787s-33.793-15.128-33.793-33.787
			c0-18.665,15.128-33.792,33.793-33.792C389.029,3981.476,404.156,3996.604,404.156,4015.269z"/>
		<path class="st87" d="M370.364,4033.602c-4.167,0-8.334-1.401-11.793-4.279c-142.791-119.561-117.248-264.99-116.085-271.12
			c1.879-9.953,11.502-16.472,21.422-14.621c9.914,1.872,16.455,11.427,14.621,21.364c-0.956,5.297-22.123,130.966,103.629,236.259
			c7.749,6.501,8.79,18.074,2.249,25.834C380.779,4031.369,375.61,4033.602,370.364,4033.602L370.364,4033.602z"/>
		<path class="st87" d="M287.611,3865.795c-7.041,0-14.042-3.019-18.873-8.868c-8.627-10.41-7.126-25.825,3.25-34.434
			l506.461-418.788c10.415-8.604,25.785-7.153,34.411,3.256c8.627,10.409,7.124,25.819-3.252,34.428l-506.454,418.794
			C298.611,3863.956,293.071,3865.795,287.611,3865.795L287.611,3865.795z"/>
		<path class="st67" d="M1128.278,4119.558c-6.749,0-12.209-5.472-12.209-12.221v-155.364c0-6.753,5.46-12.226,12.209-12.226
			c6.754,0,12.248,5.472,12.248,12.226v155.364C1140.526,4114.086,1135.031,4119.558,1128.278,4119.558z"/>
		<path class="st67" d="M1128.278,4119.558c-3.128,0-6.248-1.188-8.622-3.577c-4.797-4.774-4.797-12.515,0-17.295l109.832-109.86
			c4.791-4.78,12.541-4.78,17.293,0c4.792,4.774,4.792,12.512,0,17.292l-109.837,109.863
			C1134.526,4118.37,1131.404,4119.558,1128.278,4119.558z"/>
		<path class="st67" d="M1283.655,4119.558h-155.377c-6.749,0-12.209-5.472-12.209-12.221c0-6.754,5.46-12.225,12.209-12.225
			h155.377c6.749,0,12.204,5.47,12.204,12.225C1295.859,4114.086,1290.403,4119.558,1283.655,4119.558z"/>
		<path class="st67" d="M1238.154,4229.412c-3.126,0-6.254-1.188-8.666-3.574l-109.832-109.856c-4.797-4.777-4.797-12.515,0-17.295
			c4.747-4.776,12.496-4.776,17.288,0l109.837,109.858c4.792,4.78,4.792,12.518,0,17.292
			C1244.402,4228.224,1241.28,4229.412,1238.154,4229.412z"/>
		<path class="st67" d="M1128.278,4274.919c-6.749,0-12.209-5.469-12.209-12.22v-155.362c0-6.754,5.46-12.225,12.209-12.225
			c6.754,0,12.248,5.47,12.248,12.225V4262.7C1140.526,4269.45,1135.031,4274.919,1128.278,4274.919L1128.278,4274.919z"/>
		<path class="st67" d="M1018.401,4229.412c-3.12,0-6.248-1.188-8.621-3.574c-4.792-4.775-4.792-12.522,0-17.292l109.876-109.858
			c4.747-4.776,12.496-4.776,17.288,0c4.752,4.78,4.752,12.521,0,17.295l-109.871,109.856
			C1024.694,4228.224,1021.573,4229.412,1018.401,4229.412L1018.401,4229.412z"/>
		<path class="st67" d="M1128.278,4119.558H972.906c-6.754,0-12.209-5.472-12.209-12.221c0-6.754,5.456-12.225,12.209-12.225
			h155.372c6.754,0,12.248,5.47,12.248,12.225C1140.526,4114.086,1135.031,4119.558,1128.278,4119.558z"/>
		<path class="st67" d="M1128.278,4119.558c-3.128,0-6.248-1.188-8.622-3.577l-109.876-109.863c-4.792-4.78-4.792-12.513,0-17.292
			c4.792-4.78,12.496-4.78,17.293,0l109.871,109.86c4.752,4.78,4.752,12.518,0,17.295
			C1134.526,4118.37,1131.404,4119.558,1128.278,4119.558z"/>
		<path class="st67" d="M448.781,4119.558c-6.754,0-12.254-5.472-12.254-12.221v-155.364c0-6.753,5.5-12.226,12.254-12.226
			c6.749,0,12.209,5.472,12.209,12.226v155.364C460.99,4114.086,455.53,4119.558,448.781,4119.558L448.781,4119.558z"/>
		<path class="st67" d="M448.781,4119.558c-3.126,0-6.254-1.188-8.666-3.577c-4.753-4.774-4.753-12.515,0-17.295l109.87-109.86
			c4.753-4.78,12.502-4.78,17.294,0c4.752,4.774,4.752,12.512,0,17.292l-109.877,109.863
			C455.029,4118.37,451.903,4119.558,448.781,4119.558L448.781,4119.558z"/>
		<path class="st67" d="M604.114,4119.558H448.781c-6.754,0-12.254-5.472-12.254-12.221c0-6.754,5.5-12.225,12.254-12.225h155.333
			c6.749,0,12.248,5.47,12.248,12.225C616.362,4114.086,610.863,4119.558,604.114,4119.558z"/>
		<path class="st67" d="M558.612,4229.412c-3.126,0-6.248-1.188-8.627-3.574l-109.87-109.856c-4.753-4.777-4.753-12.515,0-17.295
			c4.792-4.776,12.496-4.776,17.287,0l109.877,109.858c4.752,4.78,4.752,12.518,0,17.292
			C564.86,4228.224,561.74,4229.412,558.612,4229.412z"/>
		<path class="st67" d="M448.781,4274.919c-6.754,0-12.254-5.469-12.254-12.22v-155.362c0-6.754,5.5-12.225,12.254-12.225
			c6.749,0,12.209,5.47,12.209,12.225V4262.7C460.99,4269.45,455.53,4274.919,448.781,4274.919L448.781,4274.919z"/>
		<path class="st67" d="M338.905,4229.412c-3.128,0-6.248-1.188-8.667-3.574c-4.752-4.775-4.752-12.522,0-17.292l109.877-109.858
			c4.792-4.776,12.496-4.776,17.287,0c4.792,4.78,4.792,12.521,0,17.295l-109.87,109.856
			C345.153,4228.224,342.026,4229.412,338.905,4229.412z"/>
		<path class="st67" d="M448.781,4119.558H293.403c-6.748,0-12.248-5.472-12.248-12.221c0-6.754,5.5-12.225,12.248-12.225h155.378
			c6.749,0,12.209,5.47,12.209,12.225C460.99,4114.086,455.53,4119.558,448.781,4119.558L448.781,4119.558z"/>
		<path class="st67" d="M448.781,4119.558c-3.126,0-6.254-1.188-8.666-3.577l-109.877-109.863c-4.752-4.78-4.752-12.513,0-17.292
			c4.792-4.78,12.541-4.78,17.294,0l109.87,109.86c4.792,4.78,4.792,12.518,0,17.295
			C455.029,4118.37,451.903,4119.558,448.781,4119.558L448.781,4119.558z"/>
		<path class="st67" d="M1094.484,3957.867c-8.835,0-17.372-4.814-21.708-13.199l-117.247-226.023l-116.248-188.58
			c-7.087-11.495-3.543-26.555,7.957-33.646c11.5-7.097,26.583-3.521,33.664,7.98l117.624,190.926l117.671,226.827
			c6.209,11.985,1.541,26.747-10.46,32.955C1102.149,3956.979,1098.28,3957.867,1094.484,3957.867L1094.484,3957.867z"/>
		<path class="st90" d="M1263.32,3501.26c-255.126,36.999-510.25,36.999-765.376,0c-58.121,0-107.497-42.572-116.079-100.08
			l-28.416-262.604h1065.08l-39.124,262.604C1370.823,3458.688,1321.446,3501.26,1263.32,3501.26z"/>
		<path class="st69" d="M1259.822,3497.565c-255.126,37.004-510.25,37.004-765.331,0c-58.172,0-107.543-42.572-116.13-100.085
			l-27.956-207.408l3.79-55.192h1060.836l-39.13,262.6C1367.319,3454.993,1317.943,3497.565,1259.822,3497.565z"/>
		<path class="st90" d="M1202.404,3442.599c-216.833,28.406-433.707,28.406-650.54,0c-49.461,0-91.42-32.685-98.707-76.837
			l-33.254-201.616h914.455l-33.247,201.616C1293.817,3409.914,1251.864,3442.599,1202.404,3442.599z"/>
		<path class="st69" d="M937.449,2669.422l-4.876,62.114l-35.711,448.345l-472.331-24.328l-74.126-3.864l7.165-29.271
			l99.877-225.213l202.831-169.094c0,0,183.041-46.097,243.293-58.689C912.53,2656.83,937.449,2669.422,937.449,2669.422
			L937.449,2669.422z"/>
		<path class="st90" d="M932.573,2731.536l-35.711,448.345l-472.331-24.328L514.28,2953.2l202.831-169.094
			C717.112,2784.106,857.114,2748.896,932.573,2731.536z"/>
		<path class="st91" d="M937.488,2669.389l109.082,48.004c0,0-11.331,319.264-122.292,405.026
			c-78.834,15.172-78.834,15.172-78.834,15.172L937.488,2669.389L937.488,2669.389z"/>
		<path class="st67" d="M780.947,3915.864c-127.418,0-258.247-20.425-313.585-51.531c-5.871-3.312-7.958-10.769-4.668-16.657
			c3.334-5.894,10.792-7.974,16.669-4.662c96.334,54.196,451.123,74.446,559.582,0.552c5.584-3.791,13.165-2.368,17,3.222
			c3.791,5.584,2.334,13.187-3.21,16.995C998.656,3900.595,891.069,3915.864,780.947,3915.864L780.947,3915.864z"/>
		<path class="st67" d="M779.782,3700.48c-38.545,0-78.423-1.867-117.71-5.658c-6.754-0.646-11.669-6.625-11-13.339
			c0.624-6.731,6.664-11.551,13.333-11.006c104.579,10.105,212.497,6.305,288.711-10.111c6.619-1.428,13.081,2.772,14.537,9.37
			c1.417,6.601-2.789,13.108-9.374,14.531C908.61,3694.969,846.074,3700.48,779.782,3700.48L779.782,3700.48z"/>
		<path class="st89" d="M1128.278,3976.426c-72.164,0-130.915,58.722-130.915,130.911c0,72.183,58.75,130.908,130.915,130.908
			c72.208,0,130.914-58.725,130.914-130.908C1259.192,4035.148,1200.486,3976.426,1128.278,3976.426z M1128.278,4287.167
			c-99.124,0-179.79-80.681-179.79-179.83c0-99.155,80.666-179.821,179.79-179.821c99.168,0,179.835,80.666,179.835,179.821
			C1308.113,4206.486,1227.446,4287.167,1128.278,4287.167z"/>
		<path class="st89" d="M1162.07,4107.337c0,18.658-15.128,33.792-33.793,33.792c-18.666,0-33.794-15.134-33.794-33.792
			c0-18.667,15.128-33.797,33.794-33.797C1146.943,4073.54,1162.07,4088.67,1162.07,4107.337z"/>
		<path class="st89" d="M448.781,3976.426c-72.208,0-130.92,58.722-130.92,130.911c0,72.183,58.712,130.908,130.92,130.908
			c72.164,0,130.876-58.725,130.876-130.908C579.657,4035.148,520.945,3976.426,448.781,3976.426L448.781,3976.426z
			 M448.781,4287.167c-99.169,0-179.835-80.681-179.835-179.83c0-99.155,80.666-179.821,179.835-179.821
			c99.124,0,179.79,80.666,179.79,179.821C628.571,4206.486,547.905,4287.167,448.781,4287.167z"/>
		<path class="st89" d="M482.569,4107.337c0,18.658-15.162,33.792-33.788,33.792c-18.671,0-33.793-15.134-33.793-33.792
			c0-18.667,15.122-33.797,33.793-33.797C467.407,4073.54,482.569,4088.67,482.569,4107.337z"/>
		<polygon class="st91" points="827.404,3190.072 350.406,3190.072 346.446,3163.454 357.57,3122.418 827.404,3134.88 		"/>
		<path class="st69" d="M975.948,3182.76c0,49.838-40.378,90.244-90.254,90.244c-49.832,0-90.249-40.406-90.249-90.244
			c0-49.843,40.417-90.243,90.249-90.243C935.57,3092.517,975.948,3132.918,975.948,3182.76z"/>
		<path class="st67" d="M967.03,3179.921c0,43.206-35.002,78.23-78.209,78.23c-43.207,0-78.248-35.024-78.248-78.23
			c0-43.207,35.041-78.238,78.248-78.238S967.03,3136.714,967.03,3179.921z"/>
		<polygon class="st91" points="840.614,3103.983 711.949,2787.582 655.987,2732.469 664.569,2723.752 722.78,2781.806 
			851.945,3099.378 		"/>
		<polygon class="st91" points="807.406,3137.996 511.115,2958.431 453.365,2907.654 461.446,2898.492 518.319,2948.617 
			813.738,3127.542 		"/>
		<path class="st67" d="M365.989,3957.861c-7.042,0-14.003-3.025-18.834-8.868c-8.627-10.41-7.165-25.83,3.25-34.429l508.62-420.591
			l2.542-1.266l902.331-447.394c12.091-6.034,26.824-1.046,32.786,11.045c5.961,12.107,1.068,26.769-11.079,32.77l-899.79,446.141
			L381.573,3952.25C376.989,3956.017,371.488,3957.861,365.989,3957.861z"/>
		<path class="st90" d="M1811.756,3067.216c0,16.759-13.609,30.346-30.367,30.346c-16.759,0-30.312-13.588-30.312-30.346
			c0-16.759,13.553-30.345,30.312-30.345C1798.148,3036.87,1811.756,3050.457,1811.756,3067.216z"/>
		<path class="st67" d="M445.823,4119.363c-4.128,0-8.295-1.402-11.754-4.275c-142.792-119.569-117.248-264.993-116.085-271.123
			c1.879-9.96,11.5-16.467,21.422-14.622c9.914,1.873,16.46,11.444,14.621,21.387c-1.041,5.584-21.999,131.066,103.589,236.233
			c7.789,6.504,8.79,18.074,2.289,25.835C456.277,4117.128,451.07,4119.363,445.823,4119.363L445.823,4119.363z"/>
	</g>
</g>
</svg>
