<?xml version="1.0" encoding="UTF-8"?>
<!DOCTYPE svg PUBLIC "-//W3C//DTD SVG 1.0//EN" "http://www.w3.org/TR/2001/REC-SVG-20010904/DTD/svg10.dtd">
<!-- Creator: CorelDRAW X7 -->
<svg xmlns="http://www.w3.org/2000/svg" xml:space="preserve" width="122px" height="117px" version="1.0" style="shape-rendering:geometricPrecision; text-rendering:geometricPrecision; image-rendering:optimizeQuality; fill-rule:evenodd; clip-rule:evenodd"
viewBox="0 0 17876078 17142402"
 xmlns:xlink="http://www.w3.org/1999/xlink">
 <defs>
  <style type="text/css">
   <![CDATA[
    .fil0 {fill:black}
    .fil2 {fill:#4465B8}
    .fil3 {fill:#59A369}
    .fil1 {fill:white}
    .fil4 {fill:white}
   ]]>
  </style>
 </defs>
 <g id="Слой_x0020_1">
  <metadata id="CorelCorpID_0Corel-Layer"/>
  <g id="_634270656">
   <path class="fil0" d="M14665744 13911278c-50933,-310275 62713,-606865 309235,-826361 39673,-1068206 1842249,-1068206 1881921,0 246695,219496 360169,515912 309236,825841 531850,673735 -91645,1889023 -1056599,1680787l0 871924 1766541 0 0 678933 -17876078 0 0 -678933 2036452 0 -347 -871924c-964607,208410 -1588276,-1006532 -1056772,-1680267 -50933,-310275 62540,-606865 309236,-826361 39499,-1068206 1842248,-1068206 1881747,0 246696,219496 360169,515912 309409,825841l26160 34995 0 -13945753 10864482 0 0 16463469 1351975 0 0 -871751c-964434,207890 -1588103,-1006878 -1056598,-1680440zm-11159859 1181852c-211701,355838 -605306,601321 -1082585,498588l-174 871751 1082759 0 0 -1370339z"/>
   <rect class="fil1" x="4185164" y="679106" width="9505924" height="15752486"/>
   <rect class="fil2" x="11818061" y="679261" width="1351962" height="5892400"/>
   <rect class="fil2" x="9893023" y="6571845" width="675981" height="4602111"/>
   <rect class="fil2" x="11818061" y="11173783" width="1351962" height="5261981"/>
   <rect class="fil2" x="4687691" y="9864265" width="1351962" height="6572192"/>
   <rect class="fil2" x="7288711" y="5262154" width="675981" height="4602111"/>
   <rect class="fil2" x="4687691" y="679106" width="1351962" height="4582881"/>
   <path class="fil3" d="M2035932 15012226c-653466,247909 -995964,-710636 -378013,-917486 -244097,-301786 -165965,-578972 225907,-736275 -248948,-729000 940874,-729000 691406,0 392392,157303 470350,434489 226427,736275 617778,206850 274760,1164875 -378186,917660l0 -101520 344404 -406078c19576,-23041 -27026,-95282 -104465,-160767l0 0 173 0c-77265,-65486 -155917,-99961 -176013,-76746l-177572 209622 -194204 -453546c-11953,-27892 -97361,-18190 -190738,21828l0 0 346 -173c-93204,40019 -159036,95110 -147255,123175l257956 600800 -173 2599 0 240632z"/>
   <path class="fil3" d="M15722516 15012400c-653120,247561 -995791,-710810 -378013,-917660 -243924,-301786 -165792,-578972 225907,-736275 -248775,-729000 941047,-729000 691579,0 392218,157303 470350,434489 226253,736275 617952,206850 274588,1165568 -378878,917313l0 -643072c0,-95456 -86621,-172895 -193338,-172721l0 0 -173 -174c-106890,0 -193511,77439 -193337,173242l0 643072z"/>
   <path class="fil0" d="M10568933 1969407l1947059 0 0 2619929 -1947059 0 0 -2619929zm-2604163 0l1946712 0 0 2619929 -1946712 0 0 -2619929zm-2604337 0l1947059 0 0 2619929 -1947059 0 0 -2619929zm5208500 3292625l1947059 0 0 2619928 -1947059 0 0 -2619928zm-2604163 0l1946712 0 0 2619928 -1946712 0 0 -2619928zm-2604337 0l1947059 0 0 2619928 -1947059 0 0 -2619928zm5208500 3292624l1947059 0 0 2619582 -1947059 0 0 -2619582zm-2604163 0l1946712 0 0 2619582 -1946712 0 0 -2619582zm-2604337 0l1947059 0 0 2619582 -1947059 0 0 -2619582zm5208500 3292451l1947059 0 0 2619756 -1947059 0 0 -2619756zm-2604163 0l1946712 0 0 2619756 -1946712 0 0 -2619756zm-2604337 0l1947059 0 0 2619756 -1947059 0 0 -2619756z"/>
   <rect class="fil4" x="6039712" y="2648686" width="588674" height="1261370"/>
   <rect class="fil4" x="8643875" y="2648686" width="588674" height="1261370"/>
   <rect class="fil4" x="11248039" y="2648686" width="588674" height="1261370"/>
   <rect class="fil4" x="6039712" y="5941311" width="588674" height="1261370"/>
   <rect class="fil4" x="8643875" y="5941311" width="588674" height="1261370"/>
   <rect class="fil4" x="11248039" y="5941311" width="588674" height="1261370"/>
   <rect class="fil4" x="6039712" y="9233589" width="588674" height="1261370"/>
   <rect class="fil4" x="8643875" y="9233589" width="588674" height="1261370"/>
   <rect class="fil4" x="11248039" y="9233589" width="588674" height="1261370"/>
   <rect class="fil4" x="6039712" y="12526213" width="588674" height="1261370"/>
   <rect class="fil4" x="8643875" y="12526213" width="588674" height="1261370"/>
   <rect class="fil4" x="11248039" y="12526213" width="588674" height="1261370"/>
  </g>
 </g>
</svg>
