<?xml version="1.0" encoding="utf-8"?>
<!-- Generator: Adobe Illustrator 21.1.0, SVG Export Plug-In . SVG Version: 6.00 Build 0)  -->
<svg version="1.1" id="Слой_1" xmlns="http://www.w3.org/2000/svg" xmlns:xlink="http://www.w3.org/1999/xlink" x="0px" y="0px"
	 viewBox="0 0 39 27" style="enable-background:new 0 0 39 27;" xml:space="preserve">
<style type="text/css">
	.st0{fill:#5B6FA0;}
	.st1{fill:#89DBD4;}
	.st2{fill:#EEF0F1;}
	.st3{fill:#FCE182;}
</style>
<g id="Слой_x0020_1">
	<g id="_955087968">
		<polygon class="st0" points="26.48,5.706 33.118,5.706 34.021,6.7 34.021,26.008 26.48,26.008 		"/>
		<polygon class="st0" points="12.471,5.706 5.832,5.706 4.93,6.7 4.93,26.008 12.471,26.008 		"/>
		<rect x="11.947" y="0.46" class="st0" width="15.08" height="2.564"/>
		<rect x="12.922" y="3.431" class="st1" width="13.156" height="22.076"/>
		<path d="M32.62,5.296h-5.668V3.345c0.434-0.174,0.742-0.598,0.742-1.093V1.179c0-0.65-0.529-1.179-1.179-1.179
			c-4.677,0-9.354,0-14.031,0c-0.65,0-1.177,0.529-1.177,1.179v1.074c0,0.495,0.307,0.919,0.74,1.093v1.951H6.38
			c-0.994,0-1.804,0.81-1.804,1.804v19.791h0.874h6.597h0.874h13.729l0.404-0.437l-0.415-0.437h0.312c0-6.616,0-13.23,0-19.846
			h5.668c0.512,0,0.929,0.417,0.929,0.929v18.917h-5.183l-0.437,0.437l0.415,0.437h0.022h6.058V7.1
			C34.424,6.106,33.614,5.296,32.62,5.296z M26.078,26.017H14.504h-1.582c0-7.529,0-15.056,0-22.585h13.156V26.017z M26.515,0.875
			c0.167,0,0.303,0.136,0.303,0.303v1.074c0,0.168-0.136,0.304-0.303,0.304H12.485c-0.167,0-0.303-0.136-0.303-0.304V1.179
			c0-0.167,0.136-0.303,0.303-0.303C17.162,0.875,21.838,0.875,26.515,0.875z M12.048,26.017H5.451V7.1
			c0-0.512,0.417-0.929,0.929-0.929h5.668V26.017z"/>
		<rect x="0.1" y="25.508" width="38.801" height="1.492"/>
		<rect x="15.226" y="5.706" class="st2" width="2.048" height="3.034"/>
		<rect x="21.726" y="5.706" class="st2" width="2.048" height="3.034"/>
		<rect x="15.226" y="11.886" class="st2" width="2.048" height="3.034"/>
		<rect x="21.726" y="11.886" class="st2" width="2.048" height="3.034"/>
		<rect x="15.226" y="18.066" class="st2" width="2.048" height="3.034"/>
		<rect x="21.726" y="18.066" class="st2" width="2.048" height="3.034"/>
		<path d="M15.312,9.615h1.875c0.53,0,0.961-0.431,0.961-0.961V5.792c0-0.529-0.431-0.96-0.961-0.96h-1.875
			c-0.53,0-0.961,0.431-0.961,0.96v2.861C14.351,9.183,14.782,9.615,15.312,9.615L15.312,9.615z M15.226,5.792
			c0-0.047,0.039-0.086,0.086-0.086h1.875c0.048,0,0.087,0.039,0.087,0.086v2.861c0,0.048-0.039,0.087-0.087,0.087h-1.875
			c-0.047,0-0.086-0.039-0.086-0.087V5.792z"/>
		<path d="M15.312,15.794h1.875c0.53,0,0.961-0.431,0.961-0.961v-2.861c0-0.53-0.431-0.961-0.961-0.961h-1.875
			c-0.53,0-0.961,0.431-0.961,0.961v2.861C14.351,15.363,14.782,15.794,15.312,15.794L15.312,15.794z M15.226,11.972
			c0-0.048,0.039-0.086,0.086-0.086h1.875c0.048,0,0.087,0.038,0.087,0.086v2.861c0,0.047-0.039,0.086-0.087,0.086h-1.875
			c-0.047,0-0.086-0.039-0.086-0.086V11.972z"/>
		<path d="M21.813,9.615h1.876c0.53,0,0.961-0.431,0.961-0.961V5.792c0-0.529-0.431-0.96-0.961-0.96h-1.876
			c-0.53,0-0.961,0.431-0.961,0.96v2.861C20.851,9.183,21.283,9.615,21.813,9.615L21.813,9.615z M21.726,5.792
			c0-0.047,0.039-0.086,0.087-0.086h1.876c0.047,0,0.086,0.039,0.086,0.086v2.861c0,0.048-0.039,0.087-0.086,0.087h-1.876
			c-0.048,0-0.087-0.039-0.087-0.087V5.792z"/>
		<path d="M21.813,15.794h1.876c0.53,0,0.961-0.431,0.961-0.961v-2.861c0-0.53-0.431-0.961-0.961-0.961h-1.876
			c-0.53,0-0.961,0.431-0.961,0.961v2.861C20.851,15.363,21.283,15.794,21.813,15.794L21.813,15.794z M21.726,11.972
			c0-0.048,0.039-0.086,0.087-0.086h1.876c0.047,0,0.086,0.038,0.086,0.086v2.861c0,0.047-0.039,0.086-0.086,0.086h-1.876
			c-0.048,0-0.087-0.039-0.087-0.086V11.972z"/>
		<path d="M15.312,21.974h1.875c0.53,0,0.961-0.431,0.961-0.961v-2.861c0-0.53-0.431-0.961-0.961-0.961h-1.875
			c-0.53,0-0.961,0.431-0.961,0.961v2.861C14.351,21.543,14.782,21.974,15.312,21.974L15.312,21.974z M15.226,18.152
			c0-0.048,0.039-0.086,0.086-0.086h1.875c0.048,0,0.087,0.037,0.087,0.086v2.861c0,0.047-0.039,0.086-0.087,0.086h-1.875
			c-0.047,0-0.086-0.039-0.086-0.086V18.152z"/>
		<path d="M21.813,21.974h1.876c0.53,0,0.961-0.431,0.961-0.961v-2.861c0-0.53-0.431-0.961-0.961-0.961h-1.876
			c-0.53,0-0.961,0.431-0.961,0.961v2.861C20.851,21.543,21.283,21.974,21.813,21.974L21.813,21.974z M21.726,18.152
			c0-0.048,0.039-0.086,0.087-0.086h1.876c0.047,0,0.086,0.037,0.086,0.086v2.861c0,0.047-0.039,0.086-0.086,0.086h-1.876
			c-0.048,0-0.087-0.039-0.087-0.086V18.152z"/>
		<rect x="29.226" y="8.539" class="st3" width="2.048" height="3.034"/>
		<rect x="29.226" y="14.939" class="st3" width="2.048" height="3.034"/>
		<rect x="7.726" y="8.539" class="st3" width="2.048" height="3.034"/>
		<rect x="7.726" y="14.939" class="st3" width="2.048" height="3.034"/>
		<path d="M7.811,12.448h1.877c0.529,0,0.96-0.431,0.96-0.961V8.625c0-0.529-0.431-0.96-0.96-0.96H7.811
			c-0.53,0-0.96,0.431-0.96,0.96v2.862C6.851,12.016,7.281,12.448,7.811,12.448L7.811,12.448z M7.726,8.625
			c0-0.047,0.039-0.086,0.086-0.086h1.877c0.047,0,0.086,0.039,0.086,0.086v2.862c0,0.048-0.039,0.087-0.086,0.087H7.811
			c-0.047,0-0.086-0.039-0.086-0.087V8.625z"/>
		<path d="M9.688,18.847c0.529,0,0.96-0.431,0.96-0.961v-2.861c0-0.53-0.431-0.96-0.96-0.96H7.811c-0.53,0-0.96,0.43-0.96,0.96
			v2.861c0,0.53,0.43,0.961,0.96,0.961H9.688z M7.726,17.886v-2.861c0-0.047,0.039-0.086,0.086-0.086h1.877
			c0.047,0,0.086,0.039,0.086,0.086v2.861c0,0.048-0.039,0.087-0.086,0.087H7.811C7.764,17.973,7.726,17.934,7.726,17.886z"/>
		<path d="M31.189,7.665h-1.877c-0.529,0-0.96,0.431-0.96,0.961v2.861c0,0.529,0.431,0.96,0.96,0.96h1.877
			c0.53,0,0.96-0.431,0.96-0.96V8.626C32.149,8.096,31.719,7.665,31.189,7.665L31.189,7.665z M31.274,11.487
			c0,0.048-0.038,0.087-0.086,0.087h-1.877c-0.047,0-0.086-0.039-0.086-0.087V8.625c0-0.047,0.039-0.086,0.086-0.086h1.877
			c0.047,0,0.086,0.039,0.086,0.086V11.487z"/>
		<path d="M31.189,18.847c0.529,0,0.96-0.431,0.96-0.961v-2.861c0-0.53-0.431-0.96-0.96-0.96h-1.877c-0.53,0-0.96,0.43-0.96,0.96
			v2.861c0,0.53,0.43,0.961,0.96,0.961H31.189z M29.226,17.886v-2.861c0-0.047,0.039-0.086,0.086-0.086h1.877
			c0.047,0,0.086,0.039,0.086,0.086v2.861c0,0.048-0.039,0.087-0.086,0.087h-1.877C29.265,17.973,29.226,17.934,29.226,17.886z"/>
	</g>
</g>
</svg>
