<?xml version="1.0" encoding="utf-8"?>
<!-- Generator: Adobe Illustrator 21.1.0, SVG Export Plug-In . SVG Version: 6.00 Build 0)  -->
<svg version="1.1" id="Слой_1" xmlns="http://www.w3.org/2000/svg" xmlns:xlink="http://www.w3.org/1999/xlink" x="0px" y="0px"
	 viewBox="0 0 559 183" style="enable-background:new 0 0 559 183;" xml:space="preserve">
<style type="text/css">
	.st0{fill:#1047A9;}
</style>
<g id="Слой_x0020_1">
	<path class="st0" d="M530.789,36.606l7.549,50.422h-15.098L530.789,36.606z M543.037,18.945h-22.932l-15.954,99.705h14.386
		l2.706-18.089h19.229l2.706,18.089h15.811L543.037,18.945L543.037,18.945z M463.13,33.188h17.805v85.462h15.954V18.945h-49.426
		v99.705h15.668V33.188z M420.257,0v13.674h13.674V0H420.257z M398.606,0v13.674h13.675V0H398.606z M410.713,33.188h27.063V18.945
		h-42.73v99.705h42.73v-14.243h-27.063v-29.2h21.508V60.963h-21.508L410.713,33.188L410.713,33.188z M339.78,33.188h16.38v85.462
		h15.668V33.188h16.38V18.945H339.78V33.188z M319.982,81.474v14.243c0,7.122-3.134,9.687-8.119,9.687
		c-4.985,0-8.119-2.565-8.119-9.687v-53.84c0-7.122,3.134-9.828,8.119-9.828c4.985,0,8.119,2.706,8.119,9.828v10.683h14.812v-9.686
		c0-15.952-7.976-25.069-23.359-25.069s-23.359,9.116-23.359,25.069V94.72c0,15.954,7.976,25.07,23.359,25.07
		c15.383,0,23.359-9.116,23.359-25.07V81.474H319.982L319.982,81.474z"/>
	<path class="st0" d="M232.716,33.188v30.624h-6.125c-5.839,0-9.401-2.565-9.401-10.541v-9.828c0-7.121,2.422-10.255,7.976-10.255
		H232.716z M215.624,118.649c0.854-2.563,1.425-4.131,1.425-12.249V90.732c0-9.258,3.133-12.677,10.255-12.677h5.413v40.594h15.668
		V18.945H224.74c-16.238,0-23.217,7.549-23.217,22.932v7.834c0,10.255,3.276,16.949,10.255,20.225
		c-7.833,3.277-10.398,10.826-10.398,21.223v15.383c0,4.843-0.142,8.404-1.709,12.107H215.624z M157.794,33.188h13.247v71.503
		H150.53c2.563-2.422,3.988-5.697,4.416-13.247L157.794,33.188z M193.831,118.649v-13.958h-6.837V18.945h-43.87l-3.562,72.784
		c-0.285,5.84-1.139,9.544-3.845,12.963h-6.125v13.958h15.241h33.472H193.831z M105.947,33.188v30.624h-6.125
		c-5.839,0-9.401-2.565-9.401-10.541v-9.828c0-7.121,2.422-10.255,7.976-10.255H105.947z M88.855,118.649
		c0.854-2.563,1.425-4.131,1.425-12.249V90.732c0-9.258,3.133-12.677,10.255-12.677h5.413v40.594h15.668V18.945H97.971
		c-16.238,0-23.217,7.549-23.217,22.932v7.834c0,10.255,3.276,16.949,10.255,20.225c-7.833,3.277-10.398,10.826-10.398,21.223
		v15.383c0,4.843-0.142,8.404-1.709,12.107H88.855z M31.025,33.188h13.247v71.503H23.762c2.563-2.422,3.988-5.697,4.416-13.247
		L31.025,33.188z M67.062,118.649v-13.958h-6.837V18.945h-43.87l-3.562,72.784c-0.285,5.84-1.139,9.544-3.845,12.963H0.009v13.958
		h18.055h33.472H67.062z"/>
	<path class="st0" d="M213.263,178.15l-8.301-17.503l-2.351,4.001v13.502h-2.3v-13.552l-2.3-3.951l-8.302,17.503h-2.4l9.152-19.653
		l-8.751-15.352h2.351l10.251,18.003v-18.003h2.3v18.003l10.251-18.003h2.4l-8.7,15.303l9.051,19.703H213.263z M232.566,147.195
		l-5.301,14.703l-5.701,16.252h-2.501v-35.006h2.1v29.954l4.051-11.552l6.702-18.402h2.75v35.006h-2.1V147.195z M254.12,145.244
		h-8.551l-0.9,24.354c-0.067,1.334-0.184,2.458-0.351,3.376c-0.167,0.917-0.458,1.8-0.875,2.65c-0.416,0.851-1.032,1.484-1.85,1.901
		c-0.816,0.417-1.842,0.641-3.075,0.675h-0.45v-2.1c0.933,0,1.7-0.158,2.3-0.475c0.6-0.317,1.034-0.816,1.301-1.5
		c0.266-0.683,0.442-1.334,0.525-1.95c0.084-0.617,0.142-1.459,0.175-2.526l1.05-26.504h13.052v35.006h-2.35V145.244z
		 M260.37,169.598v-17.903c0-2.667,0.643-4.809,1.926-6.426c1.284-1.617,3.192-2.425,5.726-2.425c2.601,0,4.543,0.8,5.826,2.4
		c1.284,1.601,1.926,3.751,1.926,6.451v17.903c0,2.7-0.641,4.85-1.926,6.451c-1.283,1.601-3.225,2.4-5.826,2.4
		c-2.534,0-4.442-0.808-5.726-2.425C261.013,174.407,260.37,172.265,260.37,169.598z M262.672,151.545v18.203
		c0,2.034,0.434,3.642,1.299,4.826c0.867,1.184,2.217,1.775,4.051,1.775c1.868,0,3.243-0.592,4.126-1.775
		c0.884-1.184,1.325-2.791,1.325-4.826v-18.203c0-2.034-0.442-3.642-1.325-4.826c-0.884-1.184-2.259-1.775-4.126-1.775
		c-1.833,0-3.184,0.592-4.051,1.775C263.105,147.903,262.672,149.511,262.672,151.545L262.672,151.545z M291.126,136.643h1.551
		c-0.034,1.333-0.517,2.374-1.451,3.125c-0.933,0.75-2.133,1.126-3.601,1.126c-1.467,0-2.659-0.376-3.576-1.126
		c-0.917-0.75-1.392-1.792-1.425-3.125h1.599c0.034,0.933,0.367,1.633,1.001,2.1c0.633,0.467,1.433,0.699,2.4,0.699
		C289.859,139.443,291.027,138.51,291.126,136.643L291.126,136.643z M293.076,147.195l-11.002,30.955h-2.501v-35.006h2.1v29.954
		l4.402-12.452l6.351-17.502h2.75v35.006h-2.1L293.076,147.195L293.076,147.195z M327.733,183h-2.3v-4.85H308.73V183h-2.25v-6.951
		h2.4c1.034-1.1,1.617-2.967,1.751-5.601l1.4-27.305h12.803v32.905h2.9V183z M314.181,145.244l-1.301,25.204
		c-0.167,2.734-0.717,4.6-1.65,5.601h11.252v-30.805H314.181z M331.234,169.598v-17.903c0-2.667,0.643-4.809,1.926-6.426
		c1.284-1.617,3.192-2.425,5.726-2.425c2.601,0,4.543,0.8,5.826,2.4c1.284,1.601,1.926,3.751,1.926,6.451v17.903
		c0,2.7-0.641,4.85-1.926,6.451c-1.283,1.601-3.225,2.4-5.826,2.4c-2.534,0-4.442-0.808-5.726-2.425
		C331.876,174.407,331.234,172.265,331.234,169.598L331.234,169.598z M333.535,151.545v18.203c0,2.034,0.434,3.642,1.299,4.826
		c0.867,1.184,2.217,1.775,4.051,1.775c1.868,0,3.243-0.592,4.126-1.775s1.325-2.791,1.325-4.826v-18.203
		c0-2.034-0.442-3.642-1.325-4.826c-0.884-1.184-2.259-1.775-4.126-1.775c-1.833,0-3.184,0.592-4.051,1.775
		C333.968,147.903,333.535,149.511,333.535,151.545L333.535,151.545z M369.49,147.045L362.19,178.1h-2.301l-7.401-30.955v31.005
		h-2.051v-35.006h3.301l7.351,30.955l7.302-30.955h3.301v35.006h-2.201L369.49,147.045L369.49,147.045z"/>
	<rect x="0.038" y="159.597" class="st0" width="168.11" height="2.1"/>
	<rect x="390.91" y="159.597" class="st0" width="168.11" height="2.1"/>
</g>
</svg>
