<?xml version="1.0" encoding="utf-8"?>
<!-- Generator: Adobe Illustrator 21.1.0, SVG Export Plug-In . SVG Version: 6.00 Build 0)  -->
<svg version="1.1" id="Слой_1" xmlns="http://www.w3.org/2000/svg" xmlns:xlink="http://www.w3.org/1999/xlink" x="0px" y="0px"
	 viewBox="0 0 472 441" style="enable-background:new 0 0 472 441;" xml:space="preserve">
<style type="text/css">
	.st0{fill:#2D4291;}
	.st1{fill:#EE741D;}
</style>
<g id="Слой_x0020_1">
	<g id="_945118720">
		<path class="st0" d="M48.296,398.635c27.25,0,48.282-18.518,48.282-45.636s-21.033-45.637-48.282-45.637
			c-27.251,0-48.284,18.519-48.284,45.637S21.045,398.635,48.296,398.635z M48.296,375.089c-12.832,0-21.166-9.789-21.166-22.09
			c0-12.302,8.334-22.091,21.166-22.091c12.83,0,21.165,9.789,21.165,22.091C69.46,365.3,61.125,375.089,48.296,375.089z
			 M191.158,397.048v-88.231h-26.721v31.218h-31.614v-31.218h-26.721v88.231h26.721v-33.73h31.614v33.73H191.158z M231.106,397.048
			l32.541-50.002v50.002h26.721v-88.231h-27.514l-30.689,47.092v-47.092h-26.721v88.231H231.106z M388.653,397.048l-34.79-47.224
			l33.335-41.007h-32.674l-23.149,33.07v-33.07h-26.72v88.231h26.72v-24.472l4.896-6.614l19.841,31.086H388.653z M431.908,398.635
			c23.149,0,34.923-14.021,40.082-25.794l-23.017-10.583c-2.248,6.879-9.127,12.831-17.064,12.831
			c-12.831,0-21.429-9.789-21.429-22.09c0-12.302,8.598-22.091,21.429-22.091c7.938,0,14.817,5.953,17.064,12.831l23.017-10.714
			c-5.291-12.17-16.932-25.663-40.082-25.663c-27.645,0-48.547,18.387-48.547,45.637
			C383.361,380.117,404.262,398.635,431.908,398.635z"/>
		<path class="st0" d="M110.874,440.688v-14.102h8.585v-3.252h-12.281v17.354H110.874z M0.011,430.15h92.422v3.252H0.011V430.15z
			 M379.567,430.15h92.422v3.252h-92.422V430.15z M125.728,440.688v-6.166h4.424c3.746,0,5.828-2.577,5.828-5.594
			c0-3.044-2.054-5.593-5.828-5.593h-8.118v17.354H125.728z M129.657,431.27h-3.928v-4.683h3.928c1.457,0,2.551,0.884,2.551,2.341
			C132.208,430.359,131.114,431.27,129.657,431.27z M140.09,441c3.096,0,4.604-1.534,5.673-3.642l7.153-14.023h-4.188l-4.32,9.208
			l-4.293-9.208h-4.188l6.399,12.592c-0.675,1.274-1.248,1.795-2.523,1.795c-0.832,0-1.64-0.444-2.238-0.937l-1.405,2.966
			C136.943,440.454,138.501,441,140.09,441z M170.138,440.688v-17.354h-15.61v17.354h3.694v-14.102h8.196v14.102H170.138z
			 M189.158,440.688v-17.354h-15.61v17.354h3.693v-14.102h8.196v14.102H189.158z M208.747,440.688l-6.686-17.354h-4.63
			l-6.713,17.354h4.215l1.091-2.94h7.442l1.068,2.94H208.747z M202.453,434.496h-5.412l2.707-7.467L202.453,434.496z
			 M231.877,440.688l-7.363-9.211l6.896-8.143h-4.555l-6.139,7.751v-7.751h-3.696v17.354h3.696v-5.333l1.351-1.614l5.257,6.948
			H231.877z M240.567,441c5.254,0,9.08-3.746,9.08-8.976s-3.825-8.976-9.08-8.976c-5.231,0-9.056,3.746-9.056,8.976
			S235.336,441,240.567,441z M240.567,437.722c-3.201,0-5.257-2.473-5.257-5.698c0-3.252,2.055-5.698,5.257-5.698
			c3.2,0,5.281,2.446,5.281,5.698C245.848,435.249,243.767,437.722,240.567,437.722z M271.057,440.688v-17.354h-5.202l-4.215,10.484
			l-4.215-10.484h-5.178v17.354h3.696v-12.151l4.89,12.151h1.614l4.891-12.151v12.151H271.057z M290.101,440.688v-17.354h-15.61
			v17.354h3.693v-14.102h8.197v14.102H290.101z M309.693,440.688l-6.688-17.354h-4.63l-6.712,17.354h4.214l1.093-2.94h7.44
			l1.069,2.94H309.693z M303.397,434.496h-5.412l2.707-7.467L303.397,434.496z M326.913,440.688v-17.354h-3.719v6.815h-8.195v-6.815
			h-3.696v17.354h3.696v-7.286h8.195v7.286H326.913z M333.888,440.688l8.274-11.63v11.63h3.692v-17.354h-3.797l-8.04,11.213v-11.213
			h-3.693v17.354H333.888z M352.853,440.688l8.274-11.63v11.63h3.694v-17.354h-3.798l-8.039,11.213v-11.213h-3.696v17.354H352.853z
			 M361.622,420.239l-1.457-1.224c-0.728,1.016-1.795,1.614-3.096,1.614c-1.351,0-2.419-0.625-3.121-1.614l-1.457,1.224
			c1.067,1.405,2.732,2.289,4.578,2.289C358.942,422.528,360.58,421.644,361.622,420.239z"/>
		<path class="st1" d="M266.791,260.614c-63.464,17.005-128.697-20.657-145.702-84.121S141.746,47.795,205.21,30.79L320.122,0l0,0
			c7.866,29.352-9.836,59.347-39.188,67.211l-61.545,16.491c-34.241,9.175-54.562,44.372-45.387,78.613
			c9.174,34.241,44.372,54.562,78.613,45.387c34.241-9.174,54.562-44.371,45.387-78.613c-5.273-19.679-19.144-34.757-36.486-42.285
			l23.016-6.166c13.533-3.626,25.046-11.109,33.684-20.945c15.259,14.557,26.839,33.358,32.698,55.219
			C367.918,178.376,330.256,243.609,266.791,260.614z"/>
	</g>
</g>
</svg>
