<?xml version="1.0" encoding="utf-8"?>
<!-- Generator: Adobe Illustrator 21.1.0, SVG Export Plug-In . SVG Version: 6.00 Build 0)  -->
<svg version="1.1" id="Слой_1" xmlns="http://www.w3.org/2000/svg" xmlns:xlink="http://www.w3.org/1999/xlink" x="0px" y="0px"
	 viewBox="0 0 90 90" style="enable-background:new 0 0 90 90;" xml:space="preserve">
<style type="text/css">
	.st0{fill:#FFFFFF;}
	.st1{fill:#2A2A2A;}
	.st2{fill:#EAEAEA;}
	.st3{fill:#D8D8D8;}
	.st4{fill:#FF6C00;}
</style>
<g id="Слой_x0020_1">
	<g id="_766498384">
		<g>
			<path class="st0" d="M34.063,50.331c0.99,0,1.753-0.672,1.753-1.657s-0.763-1.658-1.753-1.658c-0.99,0-1.754,0.673-1.754,1.658
				S33.073,50.331,34.063,50.331z M34.063,49.476c-0.466,0-0.769-0.356-0.769-0.802c0-0.448,0.302-0.803,0.769-0.803
				c0.465,0,0.769,0.356,0.769,0.803C34.832,49.121,34.528,49.476,34.063,49.476z M39.252,50.274v-3.204h-0.971v1.134h-1.148v-1.134
				h-0.971v3.204h0.971v-1.225h1.148v1.225H39.252z M40.702,50.274l1.182-1.815v1.815h0.971v-3.204h-0.999l-1.115,1.71v-1.71H39.77
				v3.204H40.702z M46.424,50.274l-1.264-1.715l1.212-1.489h-1.187l-0.841,1.201v-1.201h-0.971v3.204h0.971v-0.888l0.177-0.241
				l0.722,1.129H46.424z M47.995,50.331c0.841,0,1.268-0.509,1.456-0.937l-0.836-0.385c-0.082,0.25-0.331,0.467-0.62,0.467
				c-0.465,0-0.778-0.356-0.778-0.802c0-0.448,0.313-0.803,0.778-0.803c0.289,0,0.539,0.216,0.62,0.467l0.836-0.39
				c-0.193-0.442-0.615-0.932-1.456-0.932c-1.004,0-1.762,0.669-1.762,1.658C46.233,49.659,46.991,50.331,47.995,50.331z"/>
			<path class="st0" d="M41.999,45.319c-2.306,0.618-4.675-0.751-5.293-3.056c-0.618-2.306,0.75-4.675,3.056-5.292l4.174-1.119l0,0
				c0.286,1.067-0.358,2.156-1.423,2.441l-2.236,0.599c-1.244,0.333-1.982,1.612-1.649,2.856c0.333,1.244,1.612,1.982,2.856,1.649
				c1.244-0.334,1.982-1.612,1.649-2.856c-0.193-0.715-0.696-1.263-1.325-1.535l0.835-0.224c0.491-0.131,0.911-0.404,1.224-0.761
				c0.554,0.529,0.976,1.212,1.188,2.005C45.672,42.332,44.303,44.701,41.999,45.319z"/>
		</g>
		<path class="st1" d="M89.976,41.134c-0.011-0.17-0.044-0.334-0.1-0.495c-0.02-0.06-0.035-0.119-0.063-0.177
			c-0.09-0.194-0.204-0.378-0.36-0.535c-0.001-0.001-0.002-0.002-0.002-0.002L78.75,29.224V18.75c0-0.04-0.021-0.077-0.024-0.118
			c-0.011-0.165-0.043-0.325-0.096-0.482c-0.021-0.06-0.037-0.118-0.063-0.176c-0.092-0.2-0.207-0.389-0.367-0.549L61.325,0.549
			c-0.161-0.162-0.351-0.276-0.55-0.369c-0.056-0.025-0.112-0.04-0.17-0.06c-0.161-0.056-0.325-0.089-0.495-0.098
			C60.072,0.02,60.038,0,60,0H13.126C12.09,0,11.25,0.84,11.25,1.876v27.348l-10.7,10.7c0,0-0.002,0.002-0.004,0.004
			c-0.156,0.157-0.271,0.341-0.36,0.535c-0.027,0.058-0.043,0.117-0.064,0.177c-0.056,0.161-0.089,0.325-0.099,0.495
			C0.021,41.174,0,41.209,0,41.25v35.626c0,1.035,0.84,1.874,1.876,1.874h9.374v9.374c0,1.036,0.84,1.876,1.876,1.876h63.749
			c1.036,0,1.876-0.84,1.876-1.876V78.75h9.374c1.036,0,1.876-0.84,1.876-1.876V41.25C90,41.209,89.979,41.174,89.976,41.134z"/>
		<polygon class="st2" points="83.598,39.376 78.75,39.376 78.75,34.526 		"/>
		<polygon class="st3" points="72.348,16.876 61.874,16.876 61.874,6.402 		"/>
		<path class="st2" d="M15,3.75h43.124v15c0,1.036,0.84,1.874,1.876,1.874h15V30v9.376H15V30V3.75z"/>
		<polygon class="st2" points="11.25,34.526 11.25,39.376 6.402,39.376 		"/>
		<rect x="15" y="78.75" class="st2" width="60" height="7.5"/>
		<polygon class="st4" points="86.25,75 3.75,75 3.75,43.124 13.126,43.124 76.874,43.124 86.25,43.124 		"/>
		<path class="st1" d="M34.226,50.1c-0.605-0.52-1.291-0.887-2.055-1.098c-0.765-0.213-1.509-0.319-2.232-0.319h-6.247V71.25h3.761
			v-9.053h2.678c0.787,0,1.552-0.138,2.296-0.413c0.743-0.276,1.402-0.702,1.976-1.276s1.036-1.29,1.387-2.152
			c0.351-0.861,0.526-1.864,0.526-3.012c0-1.274-0.196-2.339-0.589-3.188C35.332,51.307,34.832,50.621,34.226,50.1z"/>
		<path class="st4" d="M31.82,58.134c-0.574,0.627-1.308,0.94-2.199,0.94h-2.169v-7.172h2.169c0.892,0,1.625,0.275,2.199,0.828
			c0.573,0.554,0.86,1.435,0.86,2.646C32.68,56.588,32.393,57.507,31.82,58.134z"/>
		<polygon class="st1" points="57.606,71.25 61.463,71.25 61.463,61.56 67.233,61.56 67.233,58.277 61.432,58.277 61.432,52.126 
			67.71,52.126 67.71,48.683 57.606,48.683 		"/>
		<path class="st1" d="M45.144,48.683H39.47V71.25h5.641c2.911,0,5.117-0.983,6.614-2.948c1.499-1.967,2.248-4.734,2.248-8.304
			c0-3.569-0.749-6.348-2.248-8.336C50.228,49.676,48.033,48.683,45.144,48.683z"/>
		<path class="st4" d="M49.781,63.456c-0.244,0.99-0.589,1.813-1.036,2.471c-0.446,0.658-0.978,1.153-1.593,1.481
			c-0.617,0.331-1.286,0.495-2.008,0.495h-1.818V52.03h1.818c0.722,0,1.391,0.164,2.008,0.495c0.617,0.327,1.147,0.823,1.593,1.481
			c0.446,0.658,0.791,1.487,1.036,2.486c0.245,0.999,0.367,2.167,0.367,3.507C50.147,61.317,50.026,62.467,49.781,63.456z"/>
	</g>
</g>
</svg>
