<?xml version="1.0" encoding="utf-8"?>
<!-- Generator: Adobe Illustrator 21.1.0, SVG Export Plug-In . SVG Version: 6.00 Build 0)  -->
<svg version="1.1" id="Слой_1" xmlns="http://www.w3.org/2000/svg" xmlns:xlink="http://www.w3.org/1999/xlink" x="0px" y="0px"
	 viewBox="0 0 446 129" style="enable-background:new 0 0 446 129;" xml:space="preserve">
<style type="text/css">
	.st0{fill:#FFFFFF;}
</style>
<g id="Слой_x0020_1">
	<g id="_841998672">
		<g>
			<path class="st0" d="M132.796,102.125v14.378h8.672v12.404h-32.052v-12.404h8.452V63.266h-8.452V50.863h32.235
				c10.3,0,17.836,2.415,22.594,7.244c4.793,4.793,7.19,10.848,7.19,18.167c0,7.225-2.378,13.335-7.134,18.349
				c-4.757,4.995-11.544,7.502-20.343,7.502H132.796z M132.796,64.583v24.04h10.154c4.557,0,7.94-1.172,10.173-3.531
				c2.251-2.397,3.385-5.25,3.385-8.561c0-3.33-1.281-6.147-3.824-8.472c-2.506-2.323-6.293-3.476-11.398-3.476H132.796z
				 M175.296,128.907v-12.404h8.452V63.266h-8.452V50.863h35.545c9.716,0,16.977,2.469,21.754,7.408
				c4.829,4.922,7.244,11.288,7.244,19.081c0,5.764-1.756,11.032-5.25,15.824c-3.496,4.793-8.177,7.427-14.07,7.886l12.076,15.404
				v0.037h8.89v12.404h-18.184L198.731,94h-0.056v22.503h6.807v12.404H175.296z M198.675,64.364v28.211h10.135
				c5.16,0,9.13-1.392,11.911-4.19c2.8-2.799,4.189-6.329,4.189-10.592c0-4.538-1.262-7.903-3.804-10.098
				c-2.544-2.214-6.331-3.33-11.38-3.33H198.675z M205.043,43.618L205.043,43.618z M209.872,128.907L209.872,128.907z
				 M172.771,48.778L172.771,48.778z M245.565,128.907v-12.404h8.671V63.266h-8.671V50.863h32.052v12.403h-8.453v53.237h8.453
				v12.404H245.565z M261.591,43.618L261.591,43.618z M271.58,128.907L271.58,128.907z M243.04,48.778L243.04,48.778z
				 M282.21,128.907v-12.404h8.67V63.266h-8.67V50.863h29.417l20.983,55.158h0.091l21.735-55.158h29.417v12.403h-8.671v53.237h8.671
				v12.404h-32.052v-12.404h8.451V70.969h-0.054L338.3,128.907h-10.538l-21.899-57.939h-0.054v45.535h9.111v12.404H282.21z
				 M445.982,50.863L446,74.901h-14.947l0.018-10.976h-19.448v19.648h22.832l0,0h-0.11v11.635h0.11l0,0h-22.832v20.635h19.43
				l0.018-10.976h14.911l0.018,24.04h-57.974v-12.404h8.67V63.266h-8.67V50.863H445.982z M416.564,43.618L416.564,43.618z
				 M438.847,128.907L438.847,128.907z M385.72,48.778L385.72,48.778z"/>
			<path class="st0" d="M17.124,45.348h14.928v83.558H0v-12.404h17.124V45.348z M60.243,116.502h17.124v12.404H45.315V12.969H0
				V0.565h60.243V116.502z"/>
		</g>
		<path class="st0" d="M112.247,20.473v13.635h-2.831V0.565h11.425c3.492,0,6.244,0.888,8.257,2.673
			c2.021,1.784,3.035,4.238,3.035,7.36c0,3.153-0.975,5.59-2.917,7.304c-1.942,1.714-4.757,2.571-8.444,2.571H112.247z
			 M112.247,18.068h8.594c2.753,0,4.845-0.653,6.291-1.966c1.447-1.305,2.163-3.129,2.163-5.465c0-2.327-0.716-4.175-2.155-5.551
			c-1.432-1.385-3.467-2.084-6.11-2.116h-8.783V18.068z M155.682,24.673h-15.23l-3.452,9.436h-2.972l12.691-33.544h2.697
			l12.69,33.544h-2.949L155.682,24.673z M141.332,22.267h13.455l-6.731-18.251L141.332,22.267z M187.652,9.317
			c0-2.116-0.763-3.774-2.28-4.994c-1.518-1.219-3.688-1.824-6.495-1.824c-2.43,0-4.435,0.645-6.016,1.942
			c-1.581,1.289-2.375,2.933-2.375,4.923h-2.831c0-1.785,0.48-3.382,1.454-4.789c0.968-1.407,2.32-2.501,4.065-3.295
			c1.738-0.794,3.641-1.187,5.701-1.187c3.624,0,6.463,0.81,8.524,2.422c2.052,1.613,3.082,3.901,3.082,6.865
			c0,1.706-0.542,3.224-1.635,4.56c-1.086,1.337-2.555,2.328-4.396,2.972c4.356,1.172,6.542,3.869,6.542,8.099
			c0,2.901-1.093,5.229-3.287,6.967c-2.187,1.738-5.135,2.603-8.831,2.603c-2.241,0-4.286-0.424-6.134-1.282
			c-1.839-0.848-3.231-2.005-4.167-3.452c-0.936-1.454-1.408-3.137-1.408-5.04h2.839c0,2.138,0.834,3.908,2.508,5.291
			c1.675,1.385,3.798,2.077,6.362,2.077c2.901,0,5.174-0.645,6.818-1.927s2.461-3.004,2.461-5.174c0-2.288-0.723-3.994-2.186-5.126
			c-1.455-1.125-3.712-1.707-6.747-1.738h-4.286v-2.406h4.144c2.8-0.015,4.923-0.566,6.385-1.652
			C186.92,13.067,187.652,11.455,187.652,9.317z M202.519,20.473v13.635h-2.831V0.565h11.425c3.492,0,6.244,0.888,8.257,2.673
			c2.021,1.784,3.035,4.238,3.035,7.36c0,3.153-0.975,5.59-2.917,7.304c-1.942,1.714-4.757,2.571-8.444,2.571H202.519z
			 M202.519,18.068h8.594c2.753,0,4.845-0.653,6.291-1.966c1.447-1.305,2.163-3.129,2.163-5.465c0-2.327-0.716-4.175-2.155-5.551
			c-1.432-1.385-3.467-2.084-6.11-2.116h-8.783V18.068z M245.953,24.673h-15.23l-3.452,9.436h-2.972L236.99,0.565h2.697
			l12.69,33.544h-2.949L245.953,24.673z M231.603,22.267h13.455l-6.731-18.251L231.603,22.267z M279.653,2.97h-17.37v12.173h8.319
			c2.288,0,4.271,0.377,5.945,1.14c1.675,0.755,2.949,1.848,3.837,3.271c0.881,1.415,1.322,3.09,1.322,5.024
			c0,2.964-0.991,5.291-2.972,6.99c-1.982,1.691-4.718,2.54-8.226,2.54h-11.079V0.565h20.224V2.97z M262.292,17.548v14.154h8.287
			c2.595,0,4.624-0.637,6.086-1.919c1.454-1.282,2.186-3.035,2.186-5.261c0-2.115-0.708-3.805-2.123-5.055
			c-1.407-1.251-3.388-1.888-5.936-1.92H262.292z M316.294,19.161c0,3.082-0.535,5.795-1.604,8.138
			c-1.061,2.336-2.587,4.128-4.568,5.394c-1.981,1.258-4.269,1.887-6.865,1.887c-3.915,0-7.085-1.399-9.49-4.207
			c-2.415-2.807-3.617-6.588-3.617-11.354v-3.46c0-3.059,0.542-5.763,1.62-8.122c1.084-2.359,2.618-4.175,4.6-5.441
			c1.981-1.266,4.261-1.903,6.84-1.903c2.58,0,4.86,0.621,6.833,1.864c1.974,1.25,3.492,3.011,4.57,5.283
			c1.076,2.273,1.635,4.907,1.682,7.903V19.161z M313.464,15.528c0-4.041-0.912-7.211-2.744-9.499
			c-1.824-2.287-4.333-3.435-7.51-3.435c-3.113,0-5.598,1.148-7.454,3.444c-1.848,2.304-2.775,5.512-2.775,9.625v3.507
			c0,3.979,0.927,7.139,2.768,9.466c1.839,2.328,4.349,3.492,7.509,3.492c3.209,0,5.717-1.148,7.51-3.445
			c1.8-2.304,2.697-5.504,2.697-9.608V15.528z M347.864,2.97h-11.496v31.138h-2.839V2.97h-11.472V0.565h25.807V2.97z M371.86,24.673
			h-15.23l-3.452,9.436h-2.972l12.691-33.544h2.697l12.69,33.544h-2.949L371.86,24.673z M357.51,22.267h13.455l-6.731-18.251
			L357.51,22.267z M410.364,34.109h-2.854V18.021h-19.17v16.088h-2.831V0.565h2.831v15.049h19.17V0.565h2.854V34.109z
			 M445.975,19.161c0,3.082-0.535,5.795-1.604,8.138c-1.061,2.336-2.587,4.128-4.568,5.394c-1.981,1.258-4.269,1.887-6.865,1.887
			c-3.915,0-7.085-1.399-9.49-4.207c-2.415-2.807-3.617-6.588-3.617-11.354v-3.46c0-3.059,0.542-5.763,1.62-8.122
			c1.085-2.359,2.618-4.175,4.6-5.441c1.981-1.266,4.261-1.903,6.84-1.903c2.58,0,4.86,0.621,6.833,1.864
			c1.974,1.25,3.492,3.011,4.57,5.283c1.076,2.273,1.635,4.907,1.682,7.903V19.161z M443.145,15.528
			c0-4.041-0.912-7.211-2.744-9.499c-1.824-2.287-4.333-3.435-7.51-3.435c-3.113,0-5.598,1.148-7.454,3.444
			c-1.848,2.304-2.775,5.512-2.775,9.625v3.507c0,3.979,0.927,7.139,2.768,9.466c1.839,2.328,4.349,3.492,7.509,3.492
			c3.209,0,5.717-1.148,7.51-3.445c1.8-2.304,2.697-5.504,2.697-9.608V15.528z"/>
	</g>
</g>
</svg>
