<?xml version="1.0" encoding="UTF-8"?>
<!DOCTYPE svg PUBLIC "-//W3C//DTD SVG 1.0//EN" "http://www.w3.org/TR/2001/REC-SVG-20010904/DTD/svg10.dtd">
<!-- Creator: CorelDRAW X7 -->
<svg xmlns="http://www.w3.org/2000/svg" xml:space="preserve" width="84px" height="172px" version="1.0" style="shape-rendering:geometricPrecision; text-rendering:geometricPrecision; image-rendering:optimizeQuality; fill-rule:evenodd; clip-rule:evenodd"
viewBox="0 0 482292 983197"
 xmlns:xlink="http://www.w3.org/1999/xlink">
 <defs>
  <style type="text/css">
   <![CDATA[
    .fil2 {fill:#2A2A2A}
    .fil0 {fill:#C0ECFA}
    .fil1 {fill:#FFCF00}
    .fil3 {fill:#2A2A2A;fill-rule:nonzero}
   ]]>
  </style>
 </defs>
 <g id="Слой_x0020_1">
  <metadata id="CorelCorpID_0Corel-Layer"/>
  <g id="_1005424640">
   <rect class="fil0" x="36439" width="440691" height="18125"/>
   <g>
    <g>
     <polygon class="fil1" points="0,965944 0,196500 0,147903 0,139770 44382,139770 44382,13639 53644,13639 60917,13639 460595,13639 477130,13639 477137,13639 477137,18125 477130,18125 477130,24397 477137,24397 477137,31819 477130,31819 477130,139770 482292,139770 482292,147903 482292,196500 482292,721842 416057,721842 416057,966174 "/>
     <path class="fil2" d="M201371 847844l18937 -53428 0 -5284 -3254 0 0 -79022 -89482 0 0 -392 -5237 0 0 -8457 5237 0 0 -481 90578 0 191601 0 15372 0 29038 0 0 -121023 -10216 0 0 -2266 10216 0 0 -381011 -134040 0 0 -23470 -98832 0 0 -11001 -91538 0 0 7950 88764 14092 -358 2233 -88406 -14039 0 765 -8701 0 0 23470 -92919 0 0 504781 6137 0 78386 -18937 480 2219 -78805 19025 0 6150 -6198 0 0 229570 79307 -61 115 16576 6400 0 0 8457 -6400 0 0 1914 -79422 -250 -28131 0 0 -769444 0 -48598 0 -8139 36439 0 0 -139743 9263 0 7273 0 407620 0 16535 0 7 0 0 4486 -7 0 0 6271 7 0 0 7422 -7 0 0 121564 5162 0 0 8139 0 48598 0 769694 -6197 0 -21934 0 -238251 0 0 -1914 -5940 0 -86329 18937 -480 -2220 86748 -19024 0 -6150 6001 0 0 -16596 1144 0 0 -78157 3254 0 0 -3524 8457 0 0 3524 3660 0 0 78157 177326 0 0 -54518 0 -42271 0 -99366 0 -28551 -177326 0 0 74631 -3660 0 0 5345 -6150 0 -19025 53847 -2219 -480zm229090 36845l18017 8329 5683 30648 0 -38977 -23700 0zm23700 51331l-7652 -41365 -21386 -9932 0 54484 29038 0 0 -3187zm-29038 -192454l23355 17097 5683 61100 0 -78711 -29038 0 0 514zm28713 98852l-7327 -80118 -21386 -15940 0 96058 28713 0zm-425495 -264927l0 2266 12226 0 0 -2266 -12226 0zm24451 0l0 2266 12219 0 0 -2266 -12219 0zm24444 0l0 2266 12225 0 0 -2266 -12225 0zm24451 0l0 2266 12219 0 0 -2266 -12219 0zm24444 0l0 2266 12225 0 0 -2266 -12225 0zm24451 0l0 2266 12219 0 0 -2266 -12219 0zm24444 0l0 2266 12225 0 0 -2266 -12225 0zm24444 0l0 2266 12225 0 0 -2266 -12225 0zm24451 0l0 2266 12225 0 0 -2266 -12225 0zm24444 0l0 2266 12225 0 0 -2266 -12225 0zm24451 0l0 2266 12225 0 0 -2266 -12225 0zm24444 0l0 2266 12225 0 0 -2266 -12225 0zm24451 0l0 2266 12225 0 0 -2266 -12225 0zm24444 0l0 2266 12225 0 0 -2266 -12225 0zm24451 0l0 2266 12225 0 0 -2266 -12225 0zm24444 0l0 2266 12225 0 0 -2266 -12225 0zm24451 0l0 2266 12218 0 0 -2266 -12218 0zm-99380 -419217l-98832 0 -91538 0 -8701 0 0 -18531 -68075 0 0 -121564 407620 0 0 121564 -140474 0 0 18531zm-267146 -147517l407620 0 0 -6271 -407620 0 0 6271z"/>
    </g>
    <g>
     <path class="fil3" d="M361046 892619c0,-1380 562,-2632 1468,-3532 900,-906 2152,-1461 3525,-1461 1373,0 2625,555 3525,1461 906,900 1468,2152 1468,3532 0,1366 -562,2618 -1461,3518 -907,913 -2159,1468 -3532,1468 -1373,0 -2625,-562 -3525,-1461 -906,-900 -1468,-2152 -1468,-3525zm3275 -1719c-433,433 -711,1042 -711,1719 0,663 278,1272 711,1711 439,440 1048,711 1718,711 677,0 1285,-271 1718,-704 440,-440 711,-1048 711,-1718 0,-677 -271,-1286 -711,-1719 -433,-439 -1041,-710 -1718,-710 -670,0 -1279,271 -1718,710z"/>
     <path class="fil3" d="M409711 850050l0 89671 -90774 0 0 -27448c0,-1455 582,-4188 1556,-6536 758,-1833 1779,-3498 3004,-4323l47163 -48103c1306,-1313 3126,-2301 4973,-2998 2469,-926 5040,-1366 6481,-1366l27597 0 0 1103zm-2212 87452l0 -86343 -25385 0c-1245,0 -3498,393 -5703,1225 -1590,602 -3133,1421 -4182,2476l-47345 48286 -95 61c-846,534 -1630,1867 -2253,3376 -873,2104 -1394,4472 -1387,5683l7 25236 86343 0z"/>
     <path class="fil3" d="M402986 855672l-20872 0c-940,0 -2429,331 -3823,832 -1197,426 -2293,967 -2834,1515l-47718 48665 -298 176c-297,345 -663,1198 -994,2152 -454,1285 -785,2665 -785,3254l0 20723 77324 0 0 -77317zm-20872 -2213l23084 0 0 81742 -81742 0 0 -22935c0,-812 386,-2490 907,-3985 453,-1306 1049,-2551 1624,-3099l88 -81 297 -169 47508 -48462c792,-798 2192,-1515 3667,-2043 1624,-589 3403,-968 4567,-968z"/>
    </g>
    <g>
     <path class="fil3" d="M340763 714670l39808 0 0 15703c0,839 -338,1603 -893,2151 -548,555 -1312,894 -2151,894l-34410 0c-927,0 -1779,-379 -2395,-995 -616,-616 -994,-1461 -994,-2395l0 -15358 1035 0zm37738 2077l-36703 0 0 13281c0,359 149,690 392,927 237,243 569,392 927,392l34410 0c271,0 514,-108 683,-284 176,-176 291,-419 291,-690l0 -13626z"/>
     <path class="fil3" d="M343117 731347l35939 0 0 40864c0,5081 -2077,9702 -5426,13051 -3356,3356 -7977,5433 -13058,5433 -5081,0 -9701,-2077 -13057,-5426 -3356,-3356 -5433,-7977 -5433,-13058l0 -40864 1035 0zm33869 2071l-32827 0 0 38793c0,4513 1840,8620 4817,11590 2977,2977 7077,4824 11596,4824 4513,0 8620,-1847 11590,-4817 2977,-2977 4824,-7084 4824,-11597l0 -38793z"/>
     <path class="fil3" d="M346601 736388l28226 0c1069,7408 4229,29322 4229,35823 0,5088 -2077,9709 -5426,13058 -3349,3349 -7977,5426 -13058,5426 -5087,0 -9708,-2077 -13057,-5426 -3349,-3356 -5433,-7977 -5433,-13058 0,-7313 2632,-27813 3606,-35823l913 0zm26434 2077l-25513 0 -3363 33801c14,4492 1861,8578 4817,11542 2977,2970 7084,4817 11596,4817 4513,0 8620,-1847 11590,-4824 2963,-2963 4810,-7043 4824,-11529l-3951 -33807z"/>
     <path class="fil3" d="M360410 720725c967,0 1840,393 2476,1029 629,629 1022,1502 1022,2469 0,961 -393,1840 -1022,2470 -636,629 -1509,1021 -2476,1021 -961,0 -1833,-392 -2469,-1021 -630,-630 -1022,-1509 -1022,-2470 0,-967 392,-1840 1022,-2469 636,-636 1508,-1029 2469,-1029z"/>
    </g>
    <g>
     <path class="fil3" d="M286110 762401l-11352 0c-6550,0 -12510,-2679 -16826,-7002 -4324,-4310 -7003,-10270 -7003,-16826l0 -17523c0,-1725 711,-3308 1854,-4452 1143,-1143 2720,-1854 4452,-1854l46391 0c1732,0 3309,718 4452,1854 1144,1144 1854,2720 1854,4452l0 17523c0,6549 -2679,12509 -6996,16826 -4316,4323 -10277,7002 -16826,7002zm-11352 -2266l11352 0c5920,0 11312,-2429 15223,-6333 3904,-3910 6332,-9296 6332,-15229l0 -17523c0,-1110 -460,-2118 -1190,-2848 -724,-731 -1739,-1184 -2849,-1184l-46391 0c-1110,0 -2118,453 -2849,1184 -730,730 -1184,1738 -1184,2848l0 17523c0,5927 2422,11319 6333,15229 3904,3904 9289,6333 15223,6333z"/>
     <path class="fil3" d="M286110 755615c4675,0 8931,-1921 12023,-5013 3092,-3085 5013,-7354 5013,-12029l0 -6827 -45424 0 0 6827c0,4682 1921,8937 5006,12029 3092,3092 7355,5013 12030,5013l11352 0zm13626 -3409c-3498,3504 -8322,5676 -13626,5676l-11352 0c-5305,0 -10135,-2172 -13633,-5676 -3498,-3498 -5676,-8329 -5676,-13633l0 -7307c0,-487 203,-940 527,-1258 318,-325 772,-528 1259,-528l46391 0c487,0 934,210 1252,528 332,331 534,778 534,1258l0 7307c0,5304 -2171,10135 -5676,13633z"/>
     <path class="fil2" d="M278506 727586c-1306,-691 -2192,-2057 -2192,-3634 0,-2273 1847,-4113 4120,-4113 2273,0 4113,1840 4113,4113 0,1577 -886,2943 -2192,3634l0 9695 -3849 0 0 -9695z"/>
     <path class="fil2" d="M280434 751191c-2551,0 -4621,-2064 -4621,-4614 0,-2551 2070,-4615 4621,-4615 2551,0 4614,2064 4614,4615 0,2550 -2063,4614 -4614,4614zm0 -1800c-1556,0 -2821,-1258 -2821,-2814 0,-1556 1265,-2815 2821,-2815 1556,0 2814,1259 2814,2815 0,1556 -1258,2814 -2814,2814z"/>
    </g>
    <g>
     <path class="fil3" d="M301326 939328l-69212 0 0 -49923 70349 0 0 49923 -1137 0zm-66946 -2266l65809 0 0 -45390 -65809 0 0 45390z"/>
     <path class="fil3" d="M301326 900325l-69212 0 0 -10920 70349 0 0 10920 -1137 0zm-66946 -2273l65809 0 0 -6380 -65809 0 0 6380z"/>
     <path class="fil3" d="M267288 935749c-4783,0 -9113,-1941 -12252,-5081 -3146,-3139 -5081,-7469 -5081,-12252 0,-4783 1935,-9113 5074,-12253 3146,-3139 7476,-5081 12259,-5081 4777,0 9114,1942 12253,5075 3139,3146 5081,7476 5081,12259 0,4783 -1942,9113 -5081,12252 -3139,3140 -7476,5081 -12253,5081zm-10655 -6677c2726,2726 6488,4411 10655,4411 4161,0 7930,-1685 10649,-4411 2727,-2727 4412,-6495 4412,-10656 0,-4161 -1685,-7929 -4405,-10656 -2726,-2726 -6495,-4411 -10656,-4411 -4167,0 -7929,1685 -10655,4411 -2727,2727 -4412,6495 -4412,10656 0,4161 1685,7929 4412,10656z"/>
     <path class="fil3" d="M267288 929525c-3071,0 -5845,-1245 -7855,-3254 -2016,-2010 -3254,-4790 -3254,-7855 0,-3065 1238,-5846 3254,-7855 2010,-2009 4784,-3254 7855,-3254 3065,0 5846,1245 7855,3254 2010,2009 3254,4790 3254,7855 0,3065 -1244,5845 -3254,7855 -2009,2009 -4790,3254 -7855,3254zm-6251 -4858c1597,1597 3809,2592 6251,2592 2436,0 4648,-995 6252,-2592 1596,-1596 2584,-3809 2584,-6251 0,-2442 -988,-4655 -2584,-6251 -1604,-1597 -3816,-2592 -6252,-2592 -2442,0 -4654,995 -6251,2592 -1604,1596 -2591,3809 -2591,6251 0,2442 987,4655 2591,6251z"/>
     <path class="fil2" d="M295467 897483c-1285,0 -2334,-1048 -2334,-2341 0,-1292 1049,-2334 2334,-2334 1292,0 2341,1042 2341,2334 0,1293 -1049,2341 -2341,2341z"/>
     <path class="fil2" d="M238095 897483c-1292,0 -2341,-1048 -2341,-2341 0,-1292 1049,-2334 2341,-2334 1292,0 2334,1042 2334,2334 0,1293 -1042,2341 -2334,2341z"/>
     <path class="fil2" d="M245679 897483c-1292,0 -2341,-1048 -2341,-2341 0,-1292 1049,-2334 2341,-2334 1286,0 2334,1042 2334,2334 0,1293 -1048,2341 -2334,2341z"/>
    </g>
    <g>
     <path class="fil3" d="M393812 635858l45877 0c1800,0 3444,737 4635,1928 1190,1184 1928,2828 1928,4634l0 45878c0,1799 -738,3443 -1928,4634 -1184,1191 -2828,1928 -4635,1928l-45877 0c-1807,0 -3444,-737 -4635,-1928 -1190,-1191 -1928,-2835 -1928,-4634l0 -45878c0,-1806 738,-3450 1928,-4634 1191,-1191 2835,-1928 4635,-1928zm45877 2266l-45877 0c-1177,0 -2253,487 -3031,1265 -778,778 -1259,1854 -1259,3031l0 45878c0,1177 481,2253 1259,3031 778,778 1854,1258 3031,1258l45877 0c1177,0 2253,-480 3031,-1258 778,-778 1265,-1854 1265,-3031l0 -45878c0,-1177 -487,-2253 -1265,-3031 -771,-778 -1847,-1265 -3031,-1265z"/>
     <path class="fil3" d="M398696 640309l36115 0c1922,0 3667,792 4932,2057 1272,1265 2057,3018 2057,4932l0 24769c0,1922 -785,3674 -2057,4939 -1265,1265 -3010,2050 -4932,2050l-36115 0c-1921,0 -3673,-785 -4938,-2050 -1266,-1265 -2050,-3017 -2050,-4939l0 -24769c0,-1921 784,-3667 2050,-4932 1272,-1272 3017,-2057 4938,-2057zm36115 2274l-36115 0c-1298,0 -2482,527 -3335,1380 -852,859 -1387,2043 -1387,3335l0 24769c0,1299 535,2476 1387,3336 859,852 2037,1386 3335,1386l36115 0c1292,0 2476,-534 3329,-1386 859,-860 1394,-2037 1394,-3336l0 -24769c0,-1292 -535,-2476 -1394,-3328 -853,-860 -2037,-1387 -3329,-1387z"/>
     <path class="fil2" d="M418675 681654c1306,690 2192,2063 2192,3640 0,2273 -1840,4113 -4113,4113 -2273,0 -4114,-1840 -4114,-4113 0,-1577 887,-2950 2186,-3640l0 -9688 3849 0 0 9688z"/>
     <path class="fil2" d="M416754 653076c2550,0 4614,2070 4614,4621 0,2544 -2064,4614 -4614,4614 -2551,0 -4621,-2070 -4621,-4614 0,-2551 2070,-4621 4621,-4621zm0 1800c1556,0 2814,1265 2814,2821 0,1549 -1258,2814 -2814,2814 -1556,0 -2821,-1265 -2821,-2814 0,-1556 1265,-2821 2821,-2821z"/>
    </g>
    <g>
     <path class="fil3" d="M318328 630073l-43185 0c-2327,0 -4438,947 -5974,2483 -1529,1529 -2483,3647 -2483,5974l0 61892 59003 0 0 -62988c0,-2023 -825,-3870 -2158,-5203 -1333,-1333 -3180,-2158 -5203,-2158zm-43185 2267l43185 0c1400,0 2672,575 3593,1495 926,927 1501,2199 1501,3599l0 60714 -54463 0 0 -59618c0,-1705 697,-3254 1814,-4371 1123,-1123 2672,-1819 4370,-1819z"/>
     <polygon class="fil3" points="324559,638266 267823,638266 267823,640533 324559,640533 "/>
     <path class="fil2" d="M309715 645729c-4999,0 -9052,4052 -9052,9052 0,5000 4053,9052 9052,9052 5000,0 9053,-4052 9053,-9052 0,-5000 -4053,-9052 -9053,-9052z"/>
     <path class="fil2" d="M284412 648536c-3450,0 -6245,2795 -6245,6245 0,3444 2795,6238 6245,6238 3444,0 6238,-2794 6238,-6238 0,-3450 -2794,-6245 -6238,-6245z"/>
     <path class="fil2" d="M284412 673759c5000,0 9052,4052 9052,9052 0,5000 -4052,9052 -9052,9052 -5000,0 -9059,-4052 -9059,-9052 0,-5000 4059,-9052 9059,-9052z"/>
     <path class="fil2" d="M309715 676573c3451,0 6238,2794 6238,6238 0,3450 -2787,6245 -6238,6245 -3443,0 -6237,-2795 -6237,-6245 0,-3444 2794,-6238 6237,-6238z"/>
    </g>
   </g>
   <polygon class="fil1" points="52975,18179 460595,18179 460595,139743 320121,139743 320121,158274 121050,158274 121050,139743 52975,139743 "/>
  </g>
 </g>
</svg>
