<?xml version="1.0" encoding="UTF-8"?>
<!DOCTYPE svg PUBLIC "-//W3C//DTD SVG 1.0//EN" "http://www.w3.org/TR/2001/REC-SVG-20010904/DTD/svg10.dtd">
<!-- Creator: CorelDRAW X7 -->
<svg xmlns="http://www.w3.org/2000/svg" xml:space="preserve" width="84px" height="172px" version="1.0" style="shape-rendering:geometricPrecision; text-rendering:geometricPrecision; image-rendering:optimizeQuality; fill-rule:evenodd; clip-rule:evenodd"
viewBox="0 0 52535743 107098158"
 xmlns:xlink="http://www.w3.org/1999/xlink">
 <defs>
  <style type="text/css">
   <![CDATA[
    .fil1 {fill:#5B5B5B}
    .fil2 {fill:#FEFEFE}
    .fil0 {fill:#FFF7B2}
    .fil5 {fill:#FFF7B2}
    .fil3 {fill:#5B5B5B;fill-rule:nonzero}
    .fil4 {fill:#FEFEFE;fill-rule:nonzero}
   ]]>
  </style>
 </defs>
 <g id="Слой_x0020_1">
  <metadata id="CorelCorpID_0Corel-Layer"/>
  <g id="_1036251408">
   <polygon class="fil0" points="0,105218881 0,21404597 0,16110195 0,15224355 4834532,15224355 4834532,1484997 5843446,1484997 6635690,1484997 50172276,1484997 51973434,1484997 51974171,1484997 51974171,1973609 51973434,1973609 51973434,2657519 51974171,2657519 51974171,3465976 51973434,3465976 51973434,15224355 52535743,15224355 52535743,16110195 52535743,21404597 52535743,78628952 45320793,78628952 45320793,105244675 "/>
   <path class="fil1" d="M21935217 92355045l2062783 -5819863 0 -575575 -354484 0 0 -8607826 -9747183 0 0 -43481 -570416 0 0 -921215 570416 0 0 -52325 9866573 0 20871030 0 1674399 0 3163081 0 0 -13182207 -1112827 0 0 -247622 1112827 0 0 -41503282 -14600877 0 0 -2556553 -10765678 0 0 -1197579 -9971224 0 0 865942 9669065 1535111 -39059 243200 -9630006 -1529215 0 82541 -947745 0 0 2556553 -10121565 0 0 54985436 668433 0 8538551 -2062782 52325 241726 -8584243 2072364 0 669907 -675066 0 0 25006913 8638779 -5896 12528 1805580 697175 0 0 920478 -697175 0 0 209300 -8651307 -28005 -3064327 0 0 -83815021 0 -5293665 0 -885840 3969328 0 0 -15222144 1008914 0 792244 0 44401790 0 1801158 0 737 0 0 487875 -737 0 0 683910 737 0 0 808457 -737 0 0 13241902 562309 0 0 885840 0 5293665 0 83843026 -675066 0 -2389261 0 -25952448 0 0 -209300 -647061 0 -9403755 2062783 -52325 -240990 9449448 -2073101 0 -669170 653693 0 0 -1808527 124548 0 0 -8512757 354484 0 0 -383962 921214 0 0 383962 398701 0 0 8512757 19316021 0 0 -5937779 0 -4604597 0 -10824636 0 -3109283 -19316021 0 0 8129532 -398701 0 0 582207 -669907 0 -2072364 5864819 -241726 -51588zm24954588 4013546l1962555 907212 619056 3337743 0 -4244955 -2581611 0zm2581611 5590665l-833515 -4505843 -2329566 -1081874 0 5934831 3163081 0 0 -347114zm-3163081 -20963888l2544025 1863063 619056 6655589 0 -8574662 -3163081 0 0 56010zm3127706 10768626l-798140 -8727216 -2329566 -1736304 0 10463520 3127706 0zm-46348868 -28859063l0 247622 1331708 0 0 -247622 -1331708 0zm2663415 0l0 247622 1330970 0 0 -247622 -1330970 0zm2662677 0l0 247622 1331708 0 0 -247622 -1331708 0zm2663415 0l0 247622 1330970 0 0 -247622 -1330970 0zm2662678 0l0 247622 1331707 0 0 -247622 -1331707 0zm2663414 0l0 247622 1330971 0 0 -247622 -1330971 0zm2662678 0l0 247622 1331707 0 0 -247622 -1331707 0zm2662678 0l0 247622 1331707 0 0 -247622 -1331707 0zm2663414 0l0 247622 1331708 0 0 -247622 -1331708 0zm2662678 0l0 247622 1331707 0 0 -247622 -1331707 0zm2663415 0l0 247622 1331707 0 0 -247622 -1331707 0zm2662677 0l0 247622 1331708 0 0 -247622 -1331708 0zm2663415 0l0 247622 1331707 0 0 -247622 -1331707 0zm2662678 0l0 247622 1331707 0 0 -247622 -1331707 0zm2663414 0l0 247622 1331708 0 0 -247622 -1331708 0zm2662678 0l0 247622 1331707 0 0 -247622 -1331707 0zm2663415 0l0 247622 1330970 0 0 -247622 -1330970 0zm-10825373 -45664222l-10765678 0 -9971224 0 -947745 0 0 -2018565 -7415406 0 0 -13241902 44401790 0 0 13241902 -15301737 0 0 2018565zm-29100053 -16068924l44401790 0 0 -683910 -44401790 0 0 683910z"/>
   <polygon class="fil2" points="22040604,68804387 49301176,68804387 49301176,76220530 22040604,76220530 "/>
   <path class="fil3" d="M22179891 68681313l27260572 0 0 7663028 -27399859 0 0 -7663028 139287 0zm26981997 246885l-26842709 0 0 7168521 26842709 0 0 -7168521z"/>
   <polygon class="fil4" points="14015722,68681313 21555676,68681313 21555676,76344341 13891911,76344341 13891911,68681313 "/>
   <path class="fil3" d="M17850921 71079417l0 267521 246886 -211511 159922 187928 -406808 348587 0 548307 356694 -356694 100228 -582944 243201 41270 -41270 239516 135602 -135603 174663 174662 -168767 168767 327952 -29479 22110 244674 -622004 56747 -360379 361116 505562 0 482716 -342692 142236 201194 -198982 141498 192349 0 0 246149 -238779 0 252782 210773 -156975 189402 -481243 -400175 -478294 0 348587 348587 582945 99491 -41271 243201 -239515 -41271 134865 135603 -174662 174662 -168766 -168766 30216 327952 -245412 22846 -56747 -622741 -359642 -359642 0 506300 341218 481242 -200456 142235 -140762 -198245 0 191613 -246885 0 0 -238779 -210774 253518 -189402 -157712 400176 -479768 0 -491560 -388384 388384 -28005 528408 -246148 -12528 13265 -255729 -151816 151816 -174662 -174662 189401 -189402 -323530 -24320 18424 -246885 535041 41270 375119 -375855 -548307 0 -394280 355220 -165081 -183506 190138 -171714 -214458 0 0 -246149 268257 0 -212247 -246885 187190 -159923 349325 406808 561572 0 -397965 -397227 -528408 -28005 12528 -246149 255730 13266 -151817 -151816 174663 -174663 189401 189402 24320 -323530 246149 18424 -41271 535041 375856 375119 0 -549044 -354483 -393543 183505 -165082 170978 190139 0 -214459 246885 0zm-3835199 -2398104l7539954 0 0 7663028 -7663765 0 0 -7663028 123811 0zm7292332 246885l-7168521 0 0 7168521 7168521 0 0 -7168521z"/>
   <path class="fil4" d="M42897631 69304790l4997403 0c196035,0 375119,80330 504826,210037 129707,129707 210036,308791 210036,504826l0 4997403c0,196771 -80329,375855 -210036,504825 -128970,129707 -308054,210037 -504826,210037l-4997403 0c-196771,0 -375118,-80330 -504825,-210037 -129707,-128970 -210037,-308054 -210037,-504825l0 -4997403c0,-196035 80330,-375119 210037,-504826 129707,-129707 308791,-210037 504825,-210037z"/>
   <path class="fil3" d="M42897631 69304790l4997403 0c196035,0 375119,80330 504826,210037 129707,129707 210036,308791 210036,504826l0 4997403c0,196771 -80329,375855 -210036,504825 -128970,129707 -308054,210037 -504826,210037l-4997403 0c-196771,0 -375118,-80330 -504825,-210037 -129707,-128970 -210037,-308054 -210037,-504825l0 -4997403c0,-196035 80330,-375119 210037,-504826 129707,-129707 308791,-210037 504825,-210037zm4997403 247623l-4997403 0c-128233,0 -245411,52325 -330163,137076 -84752,84752 -137077,201931 -137077,330164l0 4997403c0,128233 52325,245411 137077,330163 84752,84752 201930,137813 330163,137813l4997403 0c128233,0 245412,-53061 330163,-137813 84752,-84752 137814,-201930 137814,-330163l0 -4997403c0,-128233 -53062,-245412 -137814,-330164 -84014,-84751 -201193,-137076 -330163,-137076z"/>
   <path class="fil3" d="M43429725 69789717l3933953 0c209300,0 399438,86226 537252,224040 138551,137813 224039,328689 224039,537989l0 2697315c0,209300 -85488,400176 -224039,537989 -137814,137814 -327952,224040 -537252,224040l-3933953 0c-209300,0 -400176,-86226 -537990,-224040 -137813,-137813 -223302,-327952 -223302,-537989l0 -2697315c0,-210037 85489,-400176 223302,-537989 138551,-137814 328690,-224040 537990,-224040zm3933953 247623l-3933953 0c-141499,0 -270469,57484 -363327,150342 -92859,93595 -151080,222565 -151080,364064l0 2697315c0,141499 58221,270469 151080,363327 93595,93596 221828,151079 363327,151079l3933953 0c140761,0 269731,-57483 362590,-151079 93595,-93595 151816,-221828 151816,-363327l0 -2697315c0,-141499 -58221,-269732 -151816,-363327 -92859,-92858 -221829,-151079 -362590,-151079z"/>
   <path class="fil1" d="M45606001 74294087c142236,75171 238779,224039 238779,395753 0,247623 -200456,448079 -448079,448079 -247622,0 -448078,-200456 -448078,-448079 0,-171714 96543,-320582 238041,-395753l0 -1056080 419337 0 0 1056080z"/>
   <path class="fil1" d="M45396701 71180383c277838,0 502615,225513 502615,503351 0,277838 -224777,502614 -502615,502614 -277838,0 -503351,-224776 -503351,-502614 0,-277838 225513,-503351 503351,-503351zm0 196771c169504,0 306580,137077 306580,306580 0,169503 -137076,306580 -306580,306580 -169503,0 -307317,-137077 -307317,-306580 0,-169503 137814,-306580 307317,-306580z"/>
   <path class="fil4" d="M34675241 68674680l-4704088 0c-253518,0 -483453,103913 -650746,270468 -166555,166556 -270468,397228 -270468,650746l0 6741814 6427127 0 0 -6861203c0,-220355 -89910,-421548 -235094,-566731 -145183,-145184 -346376,-235094 -566731,-235094z"/>
   <path class="fil3" d="M34675241 68674680l-4704088 0c-253518,0 -483453,103913 -650746,270468 -166555,166556 -270468,397228 -270468,650746l0 6741814 6427127 0 0 -6861203c0,-220355 -89910,-421548 -235094,-566731 -145183,-145184 -346376,-235094 -566731,-235094zm-4704088 246885l4704088 0c152553,0 291104,62643 391332,163608 100965,100228 163608,238779 163608,391332l0 6614318 -5932620 0 0 -6494929c0,-184980 75908,-353746 197508,-476084 122338,-122337 291104,-198245 476084,-198245z"/>
   <polygon class="fil3" points="35353992,69567152 29173750,69567152 29173750,69814038 35353992,69814038 "/>
   <path class="fil1" d="M33737077 70380032c-544622,0 -986068,441445 -986068,986067 0,544622 441446,986068 986068,986068 544622,0 986067,-441446 986067,-986068 0,-544622 -441445,-986067 -986067,-986067z"/>
   <path class="fil1" d="M30980804 70686612c-375856,0 -680225,304369 -680225,679487 0,375119 304369,679488 680225,679488 375118,0 679487,-304369 679487,-679488 0,-375118 -304369,-679487 -679487,-679487z"/>
   <path class="fil1" d="M30980804 73433304c544622,0 986067,442183 986067,986805 0,544622 -441445,986068 -986067,986068 -544622,0 -986805,-441446 -986805,-986068 0,-544622 442183,-986805 986805,-986805z"/>
   <path class="fil1" d="M33737077 73739884c375855,0 679487,304369 679487,680225 0,375118 -303632,679487 -679487,679487 -375119,0 -679488,-304369 -679488,-679487 0,-375856 304369,-680225 679488,-680225z"/>
   <polygon class="fil2" points="49004913,43129040 49004913,21775294 41828286,21775294 41828286,43129040 "/>
   <path class="fil3" d="M49124303 43162941l0 -21507036 -7416144 0 0 21626425 7416144 0 0 -119389zm-238779 -21267521l0 21147395 -6937849 0 0 -21147395 6937849 0z"/>
   <path class="fil3" d="M44342832 34139463c-31690,46429 -53799,97280 -64853,148868 -11792,53799 -13266,109809 -3685,162134 8843,53062 28742,105387 58957,151816 28005,44218 66328,84752 112757,117179 46429,32426 97280,53798 148868,65590 53799,11792 109809,12529 162134,3685 53062,-9581 105387,-30216 151816,-59695 44218,-28005 84752,-66327 117179,-112756 118652,-169504 224776,-339007 316897,-507774 92859,-168766 172452,-338270 238779,-507036 64117,-163608 116441,-328689 156975,-495245 34638,-145920 60432,-291841 75908,-437024l380277 0 0 -22109 32427 -14739c25794,-14740 50114,-33164 70012,-53799 26531,-27268 47903,-60432 61906,-96544 13265,-34637 20635,-72960 19898,-112019l2948 -27268c2211,-8844 5896,-19161 11055,-28742 5158,-10318 12528,-21372 20635,-30953l26531 -28005 28742 -20635 27268 -13265 27267 -8107 21373 -2948 16213 2211 18424 5896 19898 13265 21373 21372 20635 26531 15476 25794 11055 22109c22846,71487 -3685,92859 -63380,136340l-37585 20635 -45692 18425 -51588 15476c-38323,9581 -72961,26531 -103176,49377 -31690,22846 -58221,52325 -77382,85489 -19162,32426 -32427,69275 -38323,107598 -5159,37585 -3685,75908 5896,114230 9580,38323 27268,73697 49377,103913 23583,31690 53062,57484 85489,77382 33163,19161 70012,32427 108334,38323 36849,5158 75908,3684 114231,-5896 38322,-9581 75171,-21372 110546,-33901 36111,-13265 71486,-28742 103913,-44955 33163,-16213 65590,-34638 95806,-54536 30953,-19898 60432,-42007 86963,-64116 25057,-21373 49377,-44219 70749,-67065 22109,-23583 42744,-48640 59694,-72960 17688,-25057 34638,-51588 49378,-79593 14739,-28005 27267,-56010 36848,-84015 11055,-30216 19898,-61905 25794,-94332 5896,-30216 10318,-62643 11055,-95806 1474,-31690 737,-64117 -2948,-96544 -2948,-32426 -8844,-64853 -16951,-96543 -7369,-29479 -16950,-58221 -28004,-86225 -10318,-28005 -23584,-56010 -39060,-84015 -14739,-27268 -30953,-54536 -49377,-81067 -17687,-25794 -37586,-52325 -59695,-78119 -36111,-42744 -73697,-78856 -112756,-109809 -41271,-31690 -84752,-58221 -128970,-79593 -47167,-22109 -95807,-37585 -143710,-47903 -50114,-10317 -101702,-14739 -151816,-14002l-64853 4422 -64117 10317 -63379 15477 -61906 22109 -55273 25057 -55273 30216 -53062 35374 -48640 38323c-27268,22846 -53799,47903 -78119,75171 -24320,26531 -46429,55273 -67064,85488 -16950,25057 -32427,50114 -45692,75172l-19162 39796 -32426 0c-11792,-149605 -34638,-299947 -67802,-449553 -37585,-168766 -88436,-336059 -153290,-502614 -67801,-175399 -151816,-350061 -250570,-523250 -98017,-173188 -212248,-345639 -341218,-516617 -34637,-44955 -75908,-81804 -121600,-108335 -47903,-28004 -100965,-46429 -154027,-53798 -53799,-7370 -109072,-4422 -162871,9580 -51588,13266 -101702,36849 -146657,70749 -44955,33901 -81067,75909 -108335,121601 -28005,47903 -45692,100228 -53062,154027 -7370,53799 -4422,109072 9581,162870 13265,51588 36848,101702 70012,145921 112757,149605 210774,298473 294052,447341 84014,148869 152553,297737 206352,445131 53799,145920 93595,291104 118652,435550 26531,146658 38323,292578 36849,436287 -1474,144447 -16214,289630 -44219,435550 -28742,147395 -70749,296263 -126022,445131 -54536,150342 -123074,299947 -203404,449553 -81804,151079 -176136,302895 -282260,453974zm145920 274153c-4421,-25794 -4421,-53062 1474,-78856 5159,-24320 15477,-48640 30953,-70749 112020,-160660 211511,-320582 297000,-479031 84751,-158449 156975,-316898 214458,-473873 58958,-159923 104650,-319845 134866,-479768 30216,-157712 47166,-316161 48640,-473873 1474,-158449 -11791,-317634 -39796,-475346 -28005,-157712 -70750,-316161 -128970,-473873 -57484,-157712 -131181,-316898 -219618,-475346 -88436,-156975 -191612,-314687 -311002,-472399 -16213,-22109 -28005,-45692 -33900,-70012 -6633,-25794 -8107,-53062 -4422,-78856 2948,-25057 11791,-50851 25794,-73698 12528,-21372 30216,-42007 51588,-57483 21372,-16951 45692,-28005 70012,-34638 25794,-6633 52325,-7370 78119,-4422 25794,3685 50851,12529 73697,25794 22109,12529 42008,30216 58221,52325 123811,163608 232146,327952 325741,491560 94333,165082 173189,330900 237305,495245 64117,163608 113494,327952 148868,491560 35375,165818 56747,330900 64117,495982l4422 104650 392068 0 24320 -75909c7370,-24320 16951,-47166 28005,-69275 11055,-22109 23583,-44218 38323,-65590 14002,-20636 30953,-42008 48640,-61906 17687,-19898 37586,-38322 57484,-55273l36111 -28742 37586 -24320 40533 -22846 39060 -16950 44218 -16214 43481 -11054 44956 -6633 43481 -3685c34638,0 70012,2948 103913,9581 32427,6633 64853,17687 95806,32427 30216,14002 60432,32426 88437,54536 28742,22846 56010,48640 80330,78119l46429 60431c14002,20635 26531,40534 36848,61169 10318,18424 19899,39059 28005,60431 8107,19899 14740,40534 19899,59695 5158,22846 9580,44955 11791,66328 2211,22846 2948,44955 2211,65590 -737,20635 -3685,42007 -7370,63380 -4421,20635 -10317,42007 -17687,62642 -6633,19161 -15476,38323 -25057,56747 -8844,17687 -20635,36112 -33164,53799 -12528,17687 -27268,35374 -42744,52325 -15476,16213 -32427,32427 -50114,47166 -19898,16950 -42007,33164 -64854,48640 -24320,14740 -48640,29479 -74434,42007 -26531,12529 -54536,25057 -82540,34638 -28742,11055 -58221,19898 -89174,28005 -9581,2211 -19898,2948 -30216,1474 -9580,-1474 -19898,-5159 -28005,-10318 -8843,-4421 -16213,-11791 -22109,-19898 -5896,-7370 -10317,-16213 -13265,-26531 -2211,-10317 -2948,-20635 -1474,-30216 1474,-10317 5158,-19898 10317,-28742 4422,-8106 11792,-15476 19899,-22109 7369,-5158 16950,-10317 26530,-12528l72224 -22109c22109,-7370 44218,-16214 64853,-26531 21372,-9581 41271,-20636 60432,-32427 18424,-11792 36111,-25057 53062,-39060l33900 -31689 28742 -34638 24320 -38322 18425 -41271 11054 -41270 5159 -42745 -2211 -42744 -7370 -41270 -15476 -47903 -22846 -46430 -27268 -44218 -33164 -42744c-16213,-19899 -33900,-36849 -51588,-50851 -18424,-15477 -38322,-28742 -58957,-38323 -22110,-11054 -44956,-19161 -67065,-24320 -23583,-5159 -47166,-7370 -70012,-7370l-30953 2211 -31690 5159 -30216 8107 -30215 11054 -30216 13266c-26531,14739 -60432,33901 -82541,54536 -22109,18424 -42007,38322 -58958,59694 -17687,21373 -32426,44956 -44955,69276 -12528,25057 -22109,50851 -28742,77382 -5896,26531 -8844,53062 -8107,79593 0,10317 -2210,20635 -5895,30215 -3685,8844 -8844,17688 -15477,25057 -7369,6633 -15476,12529 -24320,16951 -8843,3685 -19161,5896 -28742,5896 -95069,2947 -190875,2211 -285945,1474l-187927 -737 -8107 100965c-11791,161396 -36849,322793 -74434,483453 -37586,162134 -89174,324267 -152553,486401 -63380,161397 -139288,322793 -226987,482716 -89911,163608 -191613,326479 -304370,487138 -15476,22110 -34637,39797 -55272,53799 -22846,14003 -47904,23583 -72224,28005 -26531,4422 -53062,3685 -78856,-1474 -25057,-5896 -49377,-16213 -71486,-31690 -22109,-15476 -39796,-33900 -53062,-55272 -14002,-22110 -24320,-47167 -28005,-72224z"/>
   <path class="fil2" d="M45563257 47564134c1671451,528409 2597824,2312616 2068678,3984067 -529145,1671452 -2312616,2597825 -3984804,2068679 -1671451,-528408 -2597824,-2312616 -2068679,-3984067 529146,-1671451 2313354,-2597824 3984805,-2068679z"/>
   <path class="fil3" d="M45600105 47446219c868890,274890 1543218,875522 1932339,1624285 389121,748763 492297,1646394 217407,2515283 -274890,868152 -875522,1543218 -1625022,1931602 -748763,389121 -1646394,492297 -2514546,217407 -868153,-274154 -1543219,-875522 -1932340,-1624285 -388383,-748763 -492296,-1647131 -217406,-2515284 274890,-868152 875522,-1543218 1625022,-1931602 748763,-389121 1646394,-492297 2514546,-217406zm1712722 1738515c-359642,-692753 -983857,-1249166 -1787156,-1503421 -803299,-253519 -1633865,-158449 -2326619,201193 -692753,359642 -1248429,984593 -1502684,1787155 -254255,803299 -158449,1633866 201193,2326619 359642,692753 983857,1249167 1787156,1503422 803298,253518 1633865,158449 2326618,-201193 692753,-359643 1248430,-984594 1502685,-1787156 254255,-803299 158449,-1633866 -201193,-2326619z"/>
   <path class="fil2" d="M49080084 49638709c-357431,-1561643 -1508580,-2898509 -3146131,-3417337 -1638287,-518091 -3348798,-86962 -4539743,984594l938901 297736c929321,-717073 2182172,-982382 3384910,-602105 1203474,381014 2076048,1319179 2423162,2439375l938901 297737z"/>
   <path class="fil3" d="M48906159 49453729c-193824,-692016 -549781,-1332445 -1038393,-1863064 -518828,-563046 -1187998,-1003755 -1971398,-1251377 -783401,-247623 -1583752,-272680 -2332515,-110546 -704544,153290 -1364134,471662 -1921284,926373l667696 211511c476820,-355957 1033234,-597684 1623548,-702334 589577,-105387 1212318,-72960 1821793,120126 609476,192350 1137147,524724 1559432,949219 422284,425233 738445,944061 924162,1509318l666959 210774zm-857098 -2030356c566731,615371 964696,1371503 1151150,2188068l47903 210036 -1205686 -381751 -19161 -61905c-170977,-551992 -473872,-1058291 -882891,-1470258 -394280,-396491 -888051,-706756 -1459204,-888051 -571890,-180558 -1154097,-210774 -1704615,-112756 -571153,100965 -1109879,341217 -1567538,694227l-51588 39796 -1205685 -381751 159923 -144446c622004,-560099 1382558,-949220 2199859,-1126830 790034,-171714 1633866,-145183 2459274,115705 825408,261625 1530689,725180 2078259,1319916z"/>
   <path class="fil2" d="M46065134 47030567l-207089 655904c-111282,-50851 -226250,-95806 -345639,-133392 -119390,-37585 -239516,-67801 -359642,-89173l207826 -655905c119389,25057 238778,56010 357431,93596 119389,38322 235094,81067 347113,128970z"/>
   <path class="fil3" d="M46183050 47068152l-249834 789297 -126759 -58221c-55273,-25794 -110545,-49377 -164344,-70012 -51588,-19899 -107598,-39797 -167293,-58221 -58958,-19161 -115704,-35375 -170240,-48640 -56010,-14003 -114231,-26531 -174662,-37586l-137077 -25057 282997 -895420 109809 22846c62642,13266 125285,28005 187190,44218 64854,17688 126759,34638 182769,53062 56010,17688 116442,38323 179821,61906 59695,22109 119390,46429 178347,71486l103176 44218 -33900 106124zm-401650 451027l131918 -417863 -63379 -23583c-50851,-19161 -106861,-38323 -168767,-58221 -61905,-19161 -119389,-36111 -171714,-50114l-65591 -16213 -131918 417126 52325 12528c64117,16213 126023,33901 184980,52325 59695,18424 120127,40533 182032,64117l50114 19898z"/>
   <path class="fil2" d="M36431444 48483874c1753255,0 3174873,1420881 3174873,3174136 0,1753255 -1421618,3174873 -3174873,3174873 -1753255,0 -3174873,-1421618 -3174873,-3174873 0,-1753255 1421618,-3174136 3174873,-3174136z"/>
   <path class="fil3" d="M36431444 48360063c910897,0 1735568,369223 2332515,966170 596209,596210 965432,1420881 965432,2331777 0,910897 -369223,1735568 -965432,2332515 -596947,596210 -1421618,966169 -2332515,966169 -910897,0 -1735568,-369959 -2332514,-966169 -596210,-596947 -965433,-1421618 -965433,-2332515 0,-910896 369223,-1735567 965433,-2331777 596946,-596947 1421617,-966170 2332514,-966170zm2157115 1140832c-551991,-551992 -1314757,-893946 -2157115,-893946 -842358,0 -1605124,341954 -2157115,893946 -551992,551991 -893946,1314757 -893946,2157115 0,842358 341954,1605861 893946,2157852 551991,551992 1314757,893210 2157115,893210 842358,0 1605124,-341218 2157115,-893210 551992,-551991 893947,-1315494 893947,-2157852 0,-842358 -341955,-1605124 -893947,-2157115z"/>
   <path class="fil2" d="M40410353 49400667c-811406,-1381822 -2312617,-2308932 -4030497,-2308932 -1717880,0 -3219091,927110 -4030496,2308932l984593 0c669170,-963959 1783471,-1594806 3045903,-1594806 1262432,0 2376733,630847 3045903,1594806l984594 0z"/>
   <path class="fil3" d="M40189261 49276856c-393542,-601369 -926373,-1103984 -1552798,-1462889 -664749,-381014 -1434884,-598420 -2256607,-598420 -821723,0 -1592595,217406 -2256606,598420 -626426,358905 -1159256,861520 -1552799,1462889l700123 0c347113,-482717 804773,-881418 1336129,-1159993 530619,-277839 1134199,-434814 1773153,-434814 638954,0 1242534,156975 1773153,434814 531357,278575 988279,677276 1336129,1159993l700123 0zm-1429724 -1677347c725917,415652 1333181,1017020 1756940,1738515l109071 185717 -1264643 0 -36848 -53062c-329426,-474610 -770872,-865941 -1285278,-1135673 -495245,-258677 -1059765,-406071 -1658923,-406071 -599158,0 -1163678,147394 -1658923,406071 -514406,269732 -955851,661063 -1285278,1135673l-36848 53062 -1265380 0 109072 -185717c424495,-721495 1031760,-1322863 1757676,-1738515 701597,-401650 1513740,-630848 2379681,-630848 865942,0 1678084,229198 2379681,630848z"/>
   <path class="fil2" d="M36749816 47823548l0 688331c-121601,-15476 -244675,-23583 -369960,-23583 -125285,0 -248359,8107 -369960,23583l0 -688331c121601,-11792 245412,-17687 369960,-17687 124548,0 248359,5895 369960,17687z"/>
   <path class="fil3" d="M36872890 47823548l0 828356 -138551 -17687c-60431,-7370 -119389,-13266 -177610,-16951 -55273,-3685 -114967,-5159 -176873,-5159 -61905,0 -121600,1474 -176873,5159 -58221,3685 -117178,9581 -177610,16951l-138551 17687 0 -939639 111283 -11054c63379,-5896 127496,-11055 191612,-14003 67065,-3685 131181,-5159 190139,-5159 58958,0 123074,1474 190139,5159 64116,2948 128233,8107 191612,14003l111283 11054 0 111283zm-246885 551255l0 -437761 -67802 -3685c-53799,-2948 -113493,-4422 -178347,-4422 -64853,0 -124548,1474 -179084,4422l-67064 3685 0 437761 53062 -3685c66327,-3685 131181,-5896 193086,-5896 61906,0 126759,2211 193087,5896l53062 3685z"/>
   <path class="fil2" d="M49411721 51401544l-16407931 0c-1480575,0 -2690682,1210107 -2690682,2690683l0 1474c0,1480575 1210107,2690682 2690682,2690682l16407931 0 0 -5382839z"/>
   <path class="fil3" d="M49287910 51525355l-16283383 0c-706018,0 -1348658,288156 -1813687,753922 -465028,465029 -753921,1106931 -753921,1813687 0,706018 288893,1347920 753921,1812949 465766,465029 1107669,754659 1813687,754659l16283383 0 0 -5135217zm-16283383 -247622l16531006 0 0 5629724 -16531006 0c-774557,0 -1478365,-316897 -1988349,-826881 -509984,-509985 -826882,-1213792 -826882,-1987612 0,-773820 316898,-1477628 826882,-1987612 510721,-510721 1214529,-827619 1988349,-827619z"/>
   <path class="fil2" d="M5009195 46121881l0 -5867029c0,-549781 448815,-998597 998596,-998597l4830847 0c549781,0 998597,448816 998597,998597l0 5867029c0,549781 -448816,998596 -998597,998596l-4830847 0c-549781,0 -998596,-448815 -998596,-998596z"/>
   <path class="fil3" d="M4895701 45969328l0 -5562660c0,-352272 125285,-672855 326478,-905001 201930,-232146 479769,-376592 786349,-376592l4829373 0c305844,0 584419,144446 785612,376592 201930,232146 327215,552729 327215,905001l0 5562660c0,352272 -125285,672855 -326478,905001 -201930,232883 -480505,377329 -786349,377329l-4829373 0c-306580,0 -584419,-144446 -786349,-376592 -201193,-232146 -326478,-552729 -326478,-905738zm227724 -5562660l0 5562660c0,280049 99491,535778 260151,720021 159923,184980 381751,299947 624952,299947l4829373 0c243938,0 465029,-114967 625689,-299210 159923,-184980 260151,-439972 260151,-720758l0 -5562660c0,-280049 -100228,-535041 -260151,-720021 -160660,-184980 -381751,-299211 -625689,-299211l-4829373 0c-243201,0 -465029,114968 -624952,299211 -160660,184980 -260151,439972 -260151,720021z"/>
   <path class="fil2" d="M5009195 32390630l0 5867029c0,549781 448815,998596 998596,998596l4830847 0c549781,0 998597,-448815 998597,-998596l0 -5867029c0,-549781 -448816,-998596 -998597,-998596l-4830847 0c-549781,0 -998596,448815 -998596,998596z"/>
   <path class="fil3" d="M5123425 32542446l0 5562660c0,280786 99491,535778 260151,720021 159923,184980 381751,299948 624952,299948l4829373 0c243938,0 465029,-114968 625689,-299211 159923,-184980 260151,-439972 260151,-720758l0 -5562660c0,-280049 -100228,-535041 -260151,-720021 -160660,-184980 -381751,-299210 -625689,-299210l-4829373 0c-243201,0 -465029,114967 -624952,299210 -160660,184980 -260151,439972 -260151,720021zm-227724 5562660l0 -5562660c0,-352272 125285,-672855 326478,-905001 201930,-232146 479769,-376592 786349,-376592l4829373 0c305844,0 584419,144446 785612,376592 201930,232146 327215,552729 327215,905001l0 5562660c0,352272 -125285,672855 -326478,905001 -201930,232883 -480505,377329 -786349,377329l-4829373 0c-306580,0 -584419,-144446 -786349,-376592 -201193,-232146 -326478,-552729 -326478,-905738z"/>
   <path class="fil2" d="M5009195 30393437l0 -5867029c0,-549781 448815,-998596 998596,-998596l4830847 0c549781,0 998597,448815 998597,998596l0 5867029c0,549781 -448816,998597 -998597,998597l-4830847 0c-549781,0 -998596,-448816 -998596,-998597z"/>
   <path class="fil3" d="M4895701 30240884l0 -5562660c0,-352272 125285,-672855 326478,-905001 201930,-232146 479769,-376592 786349,-376592l4829373 0c305844,0 584419,144446 785612,376592 201930,232146 327215,552729 327215,905001l0 5562660c0,352273 -125285,672855 -326478,905001 -201930,232883 -480505,377330 -786349,377330l-4829373 0c-306580,0 -584419,-144447 -786349,-376593 -201193,-232146 -326478,-552728 -326478,-905738zm227724 -5562660l0 5562660c0,280786 99491,535779 260151,720021 159923,184980 381751,299948 624952,299948l4829373 0c243938,0 465029,-114968 625689,-299211 159923,-184979 260151,-439972 260151,-720758l0 -5562660c0,-280049 -100228,-535041 -260151,-720021 -160660,-184980 -381751,-299210 -625689,-299210l-4829373 0c-243201,0 -465029,114967 -624952,299210 -160660,184980 -260151,439972 -260151,720021z"/>
   <path class="fil2" d="M5009195 47120477l0 -7595227c0,-148131 -104650,-268995 -233620,-268995l-1129041 0c-128233,0 -233619,120864 -233619,268995l0 9029374c0,148131 105386,268994 233619,268994l1129041 0c86962,0 162870,-54536 203404,-136340l6659273 0c109072,0 198983,-103176 198983,-229198l0 -1108405c0,-126022 -89911,-229198 -198983,-229198l-6629057 0z"/>
   <path class="fil3" d="M4895701 47120477l0 -7595227c0,-37585 -14002,-72223 -35375,-97280 -21372,-25057 -51588,-40534 -84751,-40534l-1129041 0c-33163,0 -63379,15477 -84751,39797 -21372,25794 -34638,60432 -34638,98017l0 9029374c0,38322 13266,72960 34638,97280 22109,25057 51588,40533 84751,40533l1129041 0c22109,0 42744,-6632 59694,-18424 19162,-11792 34638,-30216 44956,-50851l33163 -67064 6724864 0c22846,0 44956,-11055 59695,-28742 15476,-17688 25794,-42745 25794,-69276l0 -1108405c0,-26531 -10318,-51588 -25794,-69275 -14739,-17687 -36849,-28742 -59695,-28742l-6742551 0 0 -131181zm227724 -7595227l0 7464046 6514827 0c86226,0 164345,40534 221092,105387 56747,65591 91384,155501 91384,254992l0 1108405c0,99492 -34637,189402 -91384,254992 -56747,64854 -134866,105387 -221092,105387l-6601789 0c-25057,32427 -53799,59695 -86226,81804 -51588,34638 -111283,54536 -174662,54536l-1129041 0c-95069,0 -182031,-44955 -244674,-117178 -63380,-72961 -102439,-173189 -102439,-282997l0 -9029374c0,-110546 39059,-210774 101702,-282997 63380,-72223 150342,-117178 245411,-117178l1129041 0c95806,0 182769,44955 245411,117915 63380,71486 102439,171714 102439,282260z"/>
   <path class="fil2" d="M5009195 31624917l0 7398456c0,128233 -104650,232882 -232883,232882l-1130514 0c-128234,0 -232883,-104649 -232883,-232882l0 -7398456c0,-128233 104649,-232883 232883,-232883l1130514 0c128233,0 232883,104650 232883,232883z"/>
   <path class="fil3" d="M5123425 31661028l0 7326233c0,109809 -39059,210037 -102439,282260 -62642,72223 -149605,117915 -245411,117915l-1129041 0c-95069,0 -182031,-45692 -245411,-117915 -62643,-72223 -101702,-172451 -101702,-282260l0 -7326233c0,-109808 39059,-210037 101702,-282260 63380,-72960 150342,-117915 245411,-117915l1129041 0c95806,0 182769,44955 245411,117178 63380,72960 102439,173189 102439,282997zm-227724 7326233l0 -7326233c0,-38322 -13265,-72960 -34638,-97280 -22109,-25057 -52325,-40533 -85488,-40533l-1129041 0c-33163,0 -62642,15476 -84751,39796 -21372,25057 -34638,59695 -34638,98017l0 7326233c0,37585 13266,72223 34638,97280 21372,25057 51588,40534 84751,40534l1129041 0c33163,0 63379,-15477 84751,-40534 21373,-25057 35375,-59695 35375,-97280z"/>
   <path class="fil2" d="M5009195 31123039l0 -7595227 6634953 0c106124,0 193087,-100228 193087,-222565l0 -1075979c0,-122337 -86963,-222565 -193087,-222565l-6678435 0c-42744,-67801 -112019,-112020 -190138,-112020l-1129041 0c-128233,0 -233619,120864 -233619,268995l0 8959361c0,148131 105386,268995 233619,268995l1129041 0c128970,0 233620,-120864 233620,-268995z"/>
   <path class="fil3" d="M4895701 31123039l0 -7726408 6748447 0c21372,0 41270,-10318 56010,-27268 14002,-16213 23583,-39059 23583,-64116l0 -1075979c0,-25057 -9581,-47903 -23583,-64116 -14740,-16951 -34638,-27268 -56010,-27268l-6736655 0 -33901 -54536c-11055,-17687 -26531,-33164 -43481,-42744 -15477,-9581 -33901,-15477 -54536,-15477l-1129041 0c-33163,0 -63379,15477 -84751,40534 -21372,25057 -34638,59694 -34638,98017l0 8959361c0,38323 13266,72223 34638,97280 22109,25057 51588,40534 84751,40534l1129041 0c33163,0 63379,-15477 84751,-39797 22110,-25794 35375,-59694 35375,-98017zm227724 -7464046l0 7464046c0,109809 -39059,210037 -102439,282260 -62642,72960 -149605,117916 -245411,117916l-1129041 0c-95069,0 -182031,-44956 -244674,-117179 -63380,-72960 -102439,-173188 -102439,-282997l0 -8959361c0,-109809 39059,-210037 101702,-282260 63380,-72960 150342,-117916 245411,-117916l1129041 0c56746,0 110545,16214 158449,44219 30215,17687 58220,41270 82540,67801l6627584 0c84752,0 161397,39796 216670,103913 55273,64117 89910,152553 89910,249833l0 1075979c0,97280 -34637,185716 -89910,249833 -55273,64116 -131918,103913 -216670,103913l-6520723 0z"/>
   <path class="fil2" d="M5326092 47900193c-766450,-884366 -1098824,-1942657 -1214529,-3087910 1145254,-65591 1274224,-1019232 1957396,-1020706 103913,1084822 409020,2132796 1214529,3087174 -428917,908685 -1117248,1158519 -1957396,1021442z"/>
   <path class="fil3" d="M5245025 47992314c-393542,-454711 -675802,-954378 -874785,-1486471 -197508,-530619 -312475,-1093665 -371433,-1678821l-14003 -137813 121601 -7370c598420,-33901 906474,-331637 1171784,-588103 238042,-229935 447342,-431865 790770,-432602l101703 -737 11054 116441c50851,531356 151079,1053132 335322,1556484 184980,501877 455448,989752 847517,1454781l58221 69275 -39797 84015c-227724,482716 -526197,790771 -880680,961011 -350062,168766 -752448,198982 -1192420,127496l-37586 -6633 -27268 -30953zm-665485 -1590384c183506,492297 442183,953641 799614,1375189 385436,57484 735498,28005 1036182,-116442 285945,-137813 532093,-382488 727391,-761291 -381014,-468714 -648535,-958800 -834252,-1464362 -179821,-490823 -282997,-993438 -339744,-1504159 -208563,38323 -367748,191613 -544622,363327 -274153,265310 -588840,569679 -1185050,638217 60432,512195 167293,1005229 340481,1469521z"/>
   <path class="fil2" d="M5236919 22574908c-765714,884366 -1098088,1942656 -1214529,3087173 1145253,66327 1274960,1019232 1957396,1021442 104650,-1084821 409019,-2132795 1214529,-3087910 -428918,-908685 -1117249,-1157782 -1957396,-1020705z"/>
   <path class="fil3" d="M5290718 22697982c-358168,421548 -616845,882892 -800351,1374452 -173189,465029 -280049,958063 -339744,1470258 595473,68538 910160,372907 1184313,637480 177610,172451 336059,325741 545359,363327 56010,-509984 159186,-1013336 339007,-1503422 185716,-505562 453237,-996385 834988,-1464362 -195297,-378803 -441446,-624215 -728128,-762028 -300684,-144447 -650008,-173189 -1035444,-115705zm-1008914 1271276c198245,-532094 480505,-1031760 874785,-1486472l27268 -31689 37585 -5896c439235,-71486 841622,-41270 1192420,126759 353746,170240 652220,479031 879944,961011l39796 84751 -58220 69276c-392069,465029 -662538,952167 -846780,1454781 -184980,503352 -284471,1025127 -336059,1555747l-11055 117178 -101702 -737c-343429,-737 -551992,-202667 -790770,-433339 -265310,-255729 -572627,-553465 -1171785,-587366l-121600 -7370 14002 -138550c58958,-584419 173926,-1148202 372171,-1678084z"/>
   <path class="fil2" d="M11534339 57668012c479769,0 479769,-905001 0,-905001l0 -6550202c610213,-85488 526198,-958800 -176873,-913844l-5159537 0c-1452570,0 -2640568,1246955 -2640568,2771012l0 3076119c0,1388454 1081874,2524127 2404738,2524127l5572240 -2211z"/>
   <path class="fil3" d="M11534339 57807300c239516,0 391332,-158449 456923,-361853 23583,-73698 35374,-152554 35374,-229936 0,-77382 -11791,-155500 -35374,-229198 -52325,-162870 -159923,-297736 -324268,-344165l0 -6317319c195298,-60432 320583,-196771 375856,-355957 29478,-82541 39059,-172452 29478,-260151 -8843,-86963 -37585,-173188 -84751,-250570 -110546,-182032 -323531,-315424 -630111,-298474l-5159537 -737c-762028,0 -1455518,327952 -1958133,855624 -503351,526935 -815827,1255062 -815827,2055413l0 3076119c0,732549 285945,1398772 745815,1881488 459870,481979 1095140,781926 1792315,781926l5572240 -2210zm205615 -451027c-30952,96543 -99491,172451 -205615,172451l-5572240 2211c-624952,0 -1193157,-268257 -1604387,-700123 -411967,-432602 -667696,-1028812 -667696,-1684716l0 -3076119c0,-722969 282260,-1381821 736971,-1858642 454712,-476820 1081874,-773083 1770942,-773083l5166907 -737c201930,-12528 335322,64117 399438,170241 24320,39796 39797,85488 44219,131181 5159,45692 0,91384 -14740,134128 -34637,98018 -126022,180558 -276364,201931l-115704 16213 0 6811827 132654 0c105387,0 174663,75171 205615,172451 14003,42744 21373,90647 21373,140024 0,49378 -7370,97281 -21373,140762z"/>
   <path class="fil2" d="M11534339 56756378l0 -6543569 -3644323 0c-1135673,0 -2064257,975013 -2064257,2165959l0 2404738c0,1084822 845306,1972872 1879277,1972872l3829303 0z"/>
   <path class="fil3" d="M11666994 56756378l0 -6682856 -3776978 0c-604317,0 -1154097,259414 -1552062,677276 -397965,417126 -645587,994175 -645587,1627970l0 2404738c0,580733 226250,1109142 591051,1491630 364801,383225 868152,620530 1421618,620530l3961958 0 0 -139288zm-265309 -6404281l0 6264257 -3696649 0c-479768,0 -916792,-206352 -1233690,-537989 -316161,-332374 -512932,-790771 -512932,-1294859l0 -2404738c0,-557150 217406,-1063450 567468,-1431198 350061,-367012 832777,-595473 1364134,-595473l3511669 0z"/>
   <path class="fil2" d="M6463239 56909668c-895420,-941849 -1283804,-2067941 -1418670,-3286892 1337603,-70012 1488682,-1084822 2286822,-1087033 121601,1154834 477558,2270609 1418670,3286893 -501140,967643 -1305176,1232953 -2286822,1087032z"/>
   <path class="fil3" d="M6525145 56778487c-417863,-448078 -720021,-939638 -934480,-1462888 -202667,-495245 -327215,-1019968 -397228,-1564590 696438,-73697 1064187,-397228 1384033,-679488 207089,-183506 392805,-346376 636743,-386910 66327,543885 186454,1078926 396491,1600702 217406,537989 529145,1060502 975013,1558695 -227724,403123 -515143,664748 -849728,810668 -351536,154027 -760555,184980 -1210844,123811zm-1178418 -1353079c232146,566731 562310,1098087 1022180,1582278l31690 33163 44218 6633c513669,76645 983120,44218 1392876,-134866 413441,-181295 762765,-509984 1028812,-1023653l46429 -89911 -67801 -72960c-458396,-495244 -774557,-1014072 -989753,-1549114 -215932,-535778 -333111,-1090717 -392069,-1655974l-13265 -124548 -118653 736c-401649,737 -645586,215196 -924162,460608 -310265,273416 -669170,589577 -1369293,626425l-142235 7370 16950 147394c68539,622004 202667,1221899 434076,1786419z"/>
   <polygon class="fil2" points="9645482,84268995 9645482,102041060 3481453,102041060 3481453,84268995 "/>
   <path class="fil3" d="M9645482 84268995l0 17772065 -6287840 0 0 -17895877 6287840 0 0 123812zm-246886 17525179l0 -17401368 -5794069 0 0 17401368 5794069 0z"/>
   <path class="fil4" d="M44629514 92595297l0 9767082 -9887945 0 0 -2989156c0,-159185 63379,-456185 169503,-712651 82541,-198982 193824,-380277 327215,-470925l5136691 -5239866c142973,-142236 341218,-249834 542411,-325742 268258,-101702 549044,-149605 706756,-149605l3005369 0 0 120863z"/>
   <path class="fil3" d="M39328479 97231584c0,-149605 61168,-285944 159922,-384699 98018,-98017 234357,-159185 383963,-159185 149605,0 285944,61168 383962,159922 98754,98018 159922,234357 159922,383962 0,149606 -61168,285208 -159185,383963 -98755,98754 -235094,159922 -384699,159922 -149606,0 -285945,-61168 -383963,-159185 -98754,-98755 -159922,-234357 -159922,-384700zm356694 -187190c-47166,47903 -77382,114230 -77382,187190 0,72961 30216,139288 77382,187191 47903,47903 114230,77382 187191,77382 73697,0 140024,-29479 187190,-76645 47903,-47903 77382,-114230 77382,-187928 0,-72960 -29479,-139287 -77382,-187190 -47166,-47903 -113493,-77382 -187190,-77382 -72961,0 -139288,29479 -187191,77382z"/>
   <path class="fil3" d="M44629514 92595297l0 9767082 -9887945 0 0 -2989156c0,-159185 63379,-456185 169503,-712651 82541,-198982 193824,-380277 327215,-470925l5137428 -5239866c142236,-142236 340481,-249834 541674,-325742 268995,-101702 549044,-149605 706019,-149605l3006106 0 0 120863zm-240990 9526093l0 -9405229 -2765116 0c-135603,0 -381015,42744 -621267,132655 -173189,65590 -341218,155501 -455449,269731l-5157325 5260502 -10318 6633c-92121,58220 -177610,202667 -245412,367011 -95069,229199 -151816,487139 -151079,619793l737 2748904 9405229 0z"/>
   <path class="fil3" d="M43896964 93207721l-2273556 0c-102439,0 -264573,35374 -416389,89910 -130444,47166 -249834,106124 -308791,165082l-5197860 5301772 -32426 19161c-32427,37586 -72223,130444 -108335,233620 -49377,140762 -85489,290367 -85489,355220l0 2257344 8422846 0 0 -8422109zm-2273556 -240990l2514546 0 0 8904088 -8904088 0 0 -2498333c0,-89173 42007,-271942 98754,-434076 49377,-142972 114230,-277838 176873,-337533l9581 -8843 32426 -19162 5175013 -5278926c86226,-86225 238779,-165081 399439,-222565 176873,-63380 370697,-104650 497456,-104650z"/>
   <path class="fil4" d="M37119038 77848500l4336340 0 0 1710510c0,91385 -36848,173926 -97280,234357 -19898,19898 -42744,37586 -67801,52325l0 4270749 0 25794 0 25794 -1474 25794 -737 25794 -1474 25058 -2211 25794 0 0 -2211 25057 0 737 -2211 25057 0 0 -2948 25057 0 0 -2948 25057 0 0 -2948 25057 0 0 -3685 25057 0 0 -4421 25057 0 0 -4422 24320 0 737 -4422 24320 0 0 -4422 24320 0 737 -5159 23583 -737 737 -5158 23583 0 737 -5896 23583 0 737 -5896 23583 0 737 -6633 23583 0 0 -13265 47166 0 737 -7370 22846 0 737 -7370 22846 0 737 -8106 22847 0 736 -16214 45693 0 737 -8843 22109 0 737 -8844 22109 0 737 -8844 22109 -737 737 -8843 22109 0 737 -9581 22109 -737 0c-9581,22109 -19898,44956 -30216,66328l0 737 -11054 21372 0 0c-21372,43481 -44956,86225 -69276,128233l-737 737c-86962,145920 -190875,280786 -311002,400175 -176873,176873 -386173,321320 -618319,423022l0 0c-44955,19898 -90647,38322 -137076,54536l-22846 8106 -737 0 -22846 7370 0 0 -23583 8107 0 0 -23584 6633 0 0 -23583 7369 -737 0 -23583 6633 0 0 -23583 6633 -737 0 -23583 5896 0 0 -24320 5895 0 0 -24320 5159 0 0 -24320 5159 -737 0 -23583 5159 -737 0 -24320 4422 0 0 -25057 4421 0 0 -24320 3685 -737 0 -24320 3685 -737 0 -24320 3685 0 0 -25794 2948 0 0 -25057 2948 0 0 -25057 2211 0 0 -25794 2211 0 0 -25057 1474 -25794 1473 -25794 1474 -25794 737 -25794 737 -25794 0 -25794 0 -25794 -737 -25794 -737 -25794 -1474 -25794 -1473 -25057 -1474 -737 0 -25057 -2211 0 0 -25057 -2211 -737 0 -25057 -2948 0 0 -25057 -2948 0 0 -25057 -3685 0 0 -25057 -3685 0 0 -24321 -3685 -736 0 -24321 -4421 0 0 -25057 -4422 0 0 -24320 -5159 0 0 -24320 -5159 0 0 -24320 -5159 0 0 -24320 -5895 0 0 -24320 -5896 0 0 -23583 -6633 -737 0 -23583 -6633 0 0 -23583 -7369 0 0 -23583 -6633 -737 0 -22846 -8107 -737 0 -22846 -7370 0 0 -22846 -8106 -23584 -8107 0 -737 -22846 -8107 -737 0 -22109 -8843 -737 0c-37585,-15477 -75171,-31690 -112019,-48640l0 0 -22110 -10318 0 -737c-205615,-98754 -392068,-232146 -551254,-392069 -74434,-73697 -142973,-154027 -204878,-238778l0 0c-28005,-39060 -56010,-78856 -81067,-120127l0 -737 -13266 -20635 0 0 -24320 -42007 -12528 -20636 0 0 -11792 -21372 0 0 -11054 -21372 0 0 -11792 -21372 0 -737 -11054 -21372 0 0 -10318 -22109 0 0 -11054 -22109 0 0 -9581 -22110 0 0 -10318 -22109 0 0 -9580 -22846 0 0 -9581 -22109 0 -737 -8844 -22109 0 0 -9580 -22846 0 -737 -8107 -22846 0 0 -8844 -22846 0 0 -8106 -23583 0 0 -7370 -22847 0 -737 -7370 -22846 0 -737 -7369 -23583 0 0 -7370 -23583 0 0 -6633 -23583 0 0 -5896 -24320 0 0 -6632 -24320 0 0 -5896 -23583 0 -737 -5159 -23583 0 -737 -5159 -24320 0 0 -5159 -24320 0 0 -4421 -25057 0 0 -4422 -24320 0 0 -3685 -25057 0 0 -3685 -25057 0 0 -3685 -25057 0 0 -2948 -25057 -2948 -25057 0 0 -2210 -25794 -2211 -25057 -1474 -25794 -1474 -25058 -1474 -25794 -737 -25794 -737 -25794 0 -25794 0 -4243481c-56747,-18424 -106861,-50114 -148131,-90647 -67065,-67065 -108335,-159186 -108335,-261625l0 -1672188 112756 0z"/>
   <path class="fil3" d="M37119038 77848500l4336340 0 0 1710510c0,91385 -36848,173926 -97280,234357 -59695,59695 -142973,97280 -234357,97280l-3748237 0c-100965,0 -193823,-42007 -260887,-108334 -67065,-67065 -108335,-159923 -108335,-261625l0 -1672188 112756 0zm4110827 225513l-3998070 0 0 1446675c0,39796 16213,75908 42744,101702 25794,25794 61906,42007 100965,42007l3748237 0c29479,0 56010,-11791 74434,-30953 19161,-19161 31690,-45692 31690,-74434l0 -1484997z"/>
   <path class="fil3" d="M37375504 79664397l3914793 0 0 4452044c0,552729 -226251,1056080 -591052,1421618 -365537,365538 -868889,591788 -1422354,591788 -553466,0 -1056817,-226250 -1422355,-591788 -365538,-365538 -591788,-868889 -591788,-1421618l0 -4452044 112756 0zm3689279 226250l-3575785 0 0 4225794c0,491560 200456,938902 524724,1262432 324267,324268 770872,525461 1263169,525461 491560,0 938901,-201193 1262432,-525461 324267,-323530 525460,-770872 525460,-1262432l0 -4225794z"/>
   <path class="fil3" d="M37755045 80214178l3074644 0c116442,806247 460608,3193297 460608,3902263 0,553466 -226251,1056817 -591052,1421618 -364800,364801 -868889,591788 -1422354,591788 -554203,0 -1057554,-226250 -1422355,-591788 -364801,-364801 -591788,-868152 -591788,-1421618 0,-797403 286682,-3029689 392806,-3902263l99491 0zm2879347 225513l-2779119 0 -366275 3682646c1474,489349 202667,933743 524724,1256536 324267,324268 771609,525461 1263169,525461 491560,0 938901,-201930 1262432,-525461 322793,-322793 523986,-767187 525460,-1256536l-430391 -3682646z"/>
   <path class="fil3" d="M39259203 78508089c105387,0 200457,42744 269732,111283 68538,68538 111283,164344 111283,268994 0,105387 -42745,200457 -111283,268995 -69275,69275 -164345,112020 -269732,112020 -104650,0 -199719,-42745 -268994,-112020 -68539,-68538 -111283,-163608 -111283,-268995 0,-104650 42744,-200456 111283,-268994 69275,-68539 164344,-111283 268994,-111283z"/>
   <path class="fil4" d="M31165783 83047833l-1236638 0c-713388,0 -1362660,-292578 -1832847,-762765 -470925,-470188 -762766,-1118723 -762766,-1832848l0 -1908756c0,-188665 77382,-360379 201930,-484927 124549,-124549 296263,-201931 484928,-201931l5053412 0c188665,0 360379,77382 484928,201194 124548,124548 201930,296999 201930,485664l0 1908756c0,713388 -291841,1362660 -762029,1832848 -470187,470187 -1119459,762765 -1832848,762765z"/>
   <path class="fil3" d="M31165783 83047833l-1236638 0c-713388,0 -1362660,-292578 -1832847,-762765 -470925,-470188 -762766,-1118723 -762766,-1832848l0 -1908756c0,-188665 77382,-360379 201930,-484927 124549,-124549 296263,-201931 484928,-201931l5053412 0c188665,0 360379,77382 484928,201194 124548,124548 201930,296999 201930,485664l0 1908756c0,713388 -291841,1362660 -762029,1832848 -470187,470187 -1119459,762765 -1832848,762765zm-1236638 -247622l1236638 0c644850,0 1232217,-263836 1658186,-689806 425233,-425232 689805,-1012598 689805,-1658185l0 -1908756c0,-120864 -50114,-230672 -129707,-310265 -78856,-79593 -189401,-129707 -310265,-129707l-5053412 0c-120864,0 -230673,50114 -310265,129707 -79593,78856 -128970,189401 -128970,310265l0 1908756c0,645587 263835,1232953 689805,1658185 425232,425970 1011862,689806 1658185,689806z"/>
   <path class="fil3" d="M31165783 82307914c509248,0 972803,-209300 1309599,-545359 336796,-336796 546095,-801088 546095,-1310335l0 -743604 -4948026 0 0 743604c0,509247 209300,973539 545359,1310335 336796,336059 801088,545359 1310335,545359l1236638 0zm1484261 -370697c-381014,381014 -906475,618319 -1484261,618319l-1236638 0c-577785,0 -1103983,-237305 -1484997,-618319 -381014,-381751 -618319,-907212 -618319,-1484997l0 -796666c0,-53062 22109,-101702 57484,-137077 34638,-34638 84015,-57484 137077,-57484l5053412 0c53062,0 101702,22846 136340,57484 36112,36112 58221,85489 58221,137077l0 796666c0,577048 -236568,1103246 -618319,1484997z"/>
   <path class="fil1" d="M30337428 79255378c-142236,-75171 -238779,-224776 -238779,-396490 0,-247623 201193,-448079 448815,-448079 247623,0 448079,200456 448079,448079 0,171714 -96543,321319 -238779,396490l0 1056080 -419336 0 0 -1056080z"/>
   <path class="fil1" d="M30547464 81826671c-277838,0 -503351,-225513 -503351,-502614 0,-277838 225513,-503352 503351,-503352 277839,0 502615,225514 502615,503352 0,277101 -224776,502614 -502615,502614zm0 -196034c-169503,0 -307317,-137814 -307317,-306580 0,-169504 137814,-307317 307317,-307317 169504,0 306581,137813 306581,307317 0,168766 -137077,306580 -306581,306580z"/>
   <polygon class="fil4" points="32823232,102320372 25284015,102320372 25284015,98070995 25284015,96881523 32947043,96881523 32947043,98070995 32947043,102320372 "/>
   <path class="fil3" d="M32823232 102320372l-7539217 0 0 -5438849 7663028 0 0 5438849 -123811 0zm-7292332 -247622l7168521 0 0 -4943605 -7168521 0 0 4943605z"/>
   <path class="fil3" d="M32823232 98070995l-7539217 0 0 -1189472 7663028 0 0 1189472 -123811 0zm-7292332 -246886l7168521 0 0 -694964 -7168521 0 0 694964z"/>
   <path class="fil3" d="M29115529 101930514c-521039,0 -992700,-211511 -1334655,-553465 -342692,-342692 -553466,-814354 -553466,-1335393 0,-520301 210774,-992700 552729,-1333918 342692,-342692 814353,-554202 1335392,-554202 520302,0 992701,211510 1334655,553465 341955,341955 553466,814354 553466,1334655 0,521039 -211511,992701 -553466,1334656 -341954,342691 -814353,554202 -1334655,554202zm-1160730 -728128c297000,297000 706756,480506 1160730,480506 453237,0 863731,-183506 1159993,-479769 296999,-296999 480505,-707492 480505,-1161467 0,-453237 -183506,-863730 -479768,-1159993 -296999,-296999 -707493,-480505 -1160730,-480505 -453974,0 -863730,183506 -1160730,479768 -296999,297000 -480505,707493 -480505,1160730 0,453975 183506,864468 480505,1160730z"/>
   <path class="fil3" d="M29115529 101252500c-334585,0 -636743,-135602 -855624,-354483 -219617,-219617 -354483,-521776 -354483,-856361 0,-333848 134866,-636006 354483,-855623 218881,-218881 521039,-354484 855624,-354484 333848,0 636743,135603 855624,354484 218880,219617 354483,521775 354483,855623 0,334585 -135603,636744 -354483,856361 -218881,218881 -521776,354483 -855624,354483zm-680962 -529882c173926,174662 414915,282260 680962,282260 265310,0 506299,-107598 680962,-282260 173925,-173925 281523,-414915 281523,-680962 0,-265309 -107598,-506299 -281523,-680224 -174663,-174662 -415652,-282260 -680962,-282260 -266047,0 -507036,107598 -680962,282260 -174662,173925 -282260,414915 -282260,680224 0,266047 107598,507037 282260,680962z"/>
   <path class="fil1" d="M32185015 97761467c-140025,0 -254255,-113494 -254255,-254255 0,-140762 114230,-254992 254255,-254992 140761,0 254992,114230 254992,254992 0,140761 -114231,254255 -254992,254255z"/>
   <path class="fil1" d="M25935497 97761467c-140761,0 -254992,-113494 -254992,-254255 0,-140762 114231,-254992 254992,-254992 140762,0 254256,114230 254256,254992 0,140761 -113494,254255 -254256,254255z"/>
   <path class="fil1" d="M26761642 97761467c-140761,0 -254992,-113494 -254992,-254255 0,-140762 114231,-254992 254992,-254992 140025,0 254256,114230 254256,254992 0,140761 -114231,254255 -254256,254255z"/>
   <polygon class="fil5" points="5770486,1980242 50172276,1980242 50172276,15222144 34870539,15222144 34870539,17240709 13185892,17240709 13185892,15222144 5770486,15222144 "/>
  </g>
 </g>
</svg>
