<?xml version="1.0" encoding="utf-8"?>
<!-- Generator: Adobe Illustrator 21.1.0, SVG Export Plug-In . SVG Version: 6.00 Build 0)  -->
<svg version="1.1" id="Слой_1" xmlns="http://www.w3.org/2000/svg" xmlns:xlink="http://www.w3.org/1999/xlink" x="0px" y="0px"
	 viewBox="0 0 73 73" style="enable-background:new 0 0 73 73;" xml:space="preserve">
<style type="text/css">
	.st0{fill:#E67E17;}
	.st1{fill:#FEFEFE;}
	.st2{fill:#BECCCC;}
	.st3{fill:#AAD162;}
	.st4{fill:#82B4FF;}
	.st5{fill:#AC91C7;}
</style>
<g id="Слой_x0020_1">
	<g id="_789974352">
		<circle class="st0" cx="36.5" cy="36.5" r="36.5"/>
		<circle class="st1" cx="36.5" cy="36.5" r="31.202"/>
		<polygon class="st0" points="49.531,28.164 23.429,28.554 22.429,51.016 50.706,51.016 		"/>
		<path d="M31.522,20.607c0.493-2.318,2.576-4.028,4.978-4.028c1.618,0,3.155,0.781,4.111,2.09c0.028,0.039,0.051,0.08,0.068,0.122
			l6.727,0.795c0.328,0.039,0.563,0.337,0.524,0.665l-0.485,4.11h0.43c0.211,0,0.405,0.111,0.513,0.291l1.796,2.993
			c0.054,0.089,0.082,0.188,0.085,0.288l1.197,23.339c0.008,0.164-0.051,0.324-0.164,0.443s-0.27,0.186-0.434,0.186H22.131
			c-0.164,0-0.321-0.067-0.434-0.186c-0.113-0.119-0.172-0.279-0.164-0.443l1.197-23.349c0.006-0.107,0.039-0.206,0.093-0.291
			l1.787-2.98c0.108-0.18,0.304-0.291,0.514-0.291h1.017l-0.417-1.784c-0.037-0.155-0.011-0.318,0.074-0.452
			c0.084-0.135,0.217-0.232,0.372-0.267L31.522,20.607z M32.607,33.24v2.198c0,2.145,1.746,3.892,3.893,3.892
			c2.145,0,3.891-1.746,3.891-3.892V33.24c-0.697-0.247-1.197-0.912-1.197-1.693c0-0.99,0.805-1.797,1.796-1.797
			c0.99,0,1.797,0.806,1.797,1.797c0,0.781-0.501,1.446-1.197,1.693v2.198c0,2.806-2.283,5.089-5.089,5.089
			c-2.807,0-5.089-2.283-5.089-5.089V33.24c-0.697-0.247-1.197-0.912-1.197-1.693c0-0.99,0.805-1.797,1.795-1.797
			c0.99,0,1.796,0.806,1.796,1.797C33.805,32.327,33.305,32.992,32.607,33.24z M49.102,28.554H23.897l-1.136,22.151h27.477
			L49.102,28.554z M35.636,22.891l0.606,0.146l0.486-4.111c0.019-0.158,0.099-0.301,0.224-0.399
			c0.125-0.099,0.282-0.144,0.441-0.125l1.467,0.173c-0.672-0.511-1.501-0.799-2.361-0.799c-1.638,0-3.08,1.037-3.642,2.517
			l1.475-0.344c0.154-0.037,0.317-0.009,0.452,0.074c0.134,0.084,0.231,0.217,0.266,0.372L35.636,22.891z"/>
		<polygon class="st2" points="26.843,27.355 26.422,25.559 25.463,25.559 24.386,27.355 		"/>
		<polygon class="st2" points="47.091,27.355 48.613,27.355 47.536,25.559 47.304,25.559 		"/>
		<polygon class="st3" points="41.74,27.355 42.141,25.687 33.661,23.647 32.769,27.355 		"/>
		<path class="st4" d="M37.415,23.319l5.588,1.343c0.322,0.078,0.519,0.402,0.443,0.723l-0.475,1.97h2.914l0.787-6.65l-8.825-1.043
			L37.415,23.319z"/>
		<path class="st5" d="M31.537,27.355l1.1-4.569c0.037-0.154,0.134-0.289,0.268-0.371c0.135-0.082,0.298-0.108,0.453-0.071
			l0.975,0.234l-0.311-1.326l-6.995,1.635l1.044,4.467H31.537z"/>
		<path class="st2" d="M40.471,31.846c0.104-0.179,0.297-0.299,0.518-0.299c0.221,0,0.414,0.12,0.518,0.299
			c0.052-0.088,0.081-0.191,0.081-0.299c0-0.33-0.269-0.598-0.599-0.598c-0.33,0-0.598,0.269-0.598,0.598
			C40.391,31.655,40.421,31.757,40.471,31.846z"/>
		<path class="st2" d="M32.009,31.547h0.046c0.205,0,0.385,0.102,0.493,0.259c0.038-0.078,0.059-0.166,0.059-0.259
			c0-0.33-0.269-0.598-0.598-0.598s-0.598,0.269-0.598,0.598c0,0.108,0.028,0.211,0.08,0.299
			C31.595,31.667,31.788,31.547,32.009,31.547z"/>
	</g>
</g>
</svg>
