<?xml version="1.0" encoding="utf-8"?>
<!-- Generator: Adobe Illustrator 21.1.0, SVG Export Plug-In . SVG Version: 6.00 Build 0)  -->
<svg version="1.1" id="Слой_1" xmlns="http://www.w3.org/2000/svg" xmlns:xlink="http://www.w3.org/1999/xlink" x="0px" y="0px"
	 viewBox="0 0 208 103" style="enable-background:new 0 0 208 103;" xml:space="preserve">
<style type="text/css">
	.st0{fill:#FFFFFF;}
	.st1{fill:#1047A9;}
</style>
<g id="Слой_x0020_1">
	<g id="_870423824">
		<path d="M4.773,0h198.455c2.439,0,4.433,1.994,4.433,4.433v73.416c0,2.437-1.996,4.433-4.433,4.433h-34.382L105.43,103
			l29.514-20.718H4.773c-2.437,0-4.433-1.994-4.433-4.433V4.433C0.34,1.994,2.334,0,4.773,0z"/>
		<path class="st0" d="M119.674,95.873l48.798-15.943h34.756c1.139,0,2.082-0.943,2.082-2.082V4.433c0-1.141-0.94-2.082-2.082-2.082
			H4.773c-1.141,0-2.082,0.94-2.082,2.082v73.416c0,1.14,0.942,2.082,2.082,2.082h137.612L119.674,95.873z"/>
		<g>
			<path class="st1" d="M180.301,24.472l2.292,15.311h-4.584L180.301,24.472L180.301,24.472z M184.022,19.109h-6.963l-4.845,30.276
				h4.369l0.822-5.493h5.838l0.823,5.493h4.801L184.022,19.109L184.022,19.109z M159.757,23.434h5.406v25.952h4.845V19.109h-15.009
				v30.276h4.758V23.434L159.757,23.434z M146.738,13.355v4.153h4.153v-4.153H146.738z M140.163,13.355v4.153h4.153v-4.153H140.163z
				 M143.84,23.434h8.218v-4.326h-12.976v30.277h12.976V45.06h-8.218v-8.866h6.531v-4.326h-6.531V23.434L143.84,23.434z
				 M122.3,23.434h4.975v25.952h4.757V23.434h4.975v-4.326H122.3V23.434z M116.289,38.096v4.324c0,2.163-0.952,2.942-2.466,2.942
				c-1.514,0-2.465-0.779-2.465-2.942V26.073c0-2.163,0.951-2.986,2.465-2.986c1.514,0,2.466,0.823,2.466,2.986v3.243h4.497v-2.941
				c0-4.844-2.421-7.612-7.093-7.612s-7.094,2.768-7.094,7.612v15.744c0,4.844,2.423,7.612,7.094,7.612s7.093-2.768,7.093-7.612
				v-4.022H116.289z"/>
			<path class="st1" d="M89.789,23.434v9.299h-1.86c-1.774,0-2.855-0.778-2.855-3.201v-2.984c0-2.162,0.736-3.114,2.423-3.114
				H89.789z M84.599,49.385c0.26-0.779,0.433-1.255,0.433-3.72v-4.758c0-2.811,0.952-3.848,3.115-3.848h1.643v12.327h4.757V19.109
				h-7.18c-4.931,0-7.049,2.292-7.049,6.963v2.378c0,3.115,0.994,5.147,3.114,6.142c-2.379,0.996-3.157,3.288-3.157,6.445v4.671
				c0,1.47-0.043,2.552-0.52,3.677H84.599L84.599,49.385z M67.039,23.434h4.022v21.713h-6.228c0.778-0.736,1.211-1.73,1.34-4.024
				L67.039,23.434z M77.982,49.385v-4.239h-2.077V19.109H62.584L61.502,41.21c-0.086,1.774-0.346,2.899-1.167,3.937h-1.861v4.239
				h4.629h10.164H77.982L77.982,49.385z M51.295,23.434v9.299h-1.86c-1.773,0-2.854-0.778-2.854-3.201v-2.984
				c0-2.162,0.735-3.114,2.421-3.114H51.295z M46.105,49.385c0.26-0.779,0.433-1.255,0.433-3.72v-4.758
				c0-2.811,0.951-3.848,3.114-3.848h1.643v12.327h4.758V19.109h-7.18c-4.931,0-7.05,2.292-7.05,6.963v2.378
				c0,3.115,0.994,5.147,3.114,6.142c-2.378,0.996-3.157,3.288-3.157,6.445v4.671c0,1.47-0.042,2.552-0.518,3.677H46.105
				L46.105,49.385z M28.545,23.434h4.022v21.713h-6.229c0.778-0.736,1.211-1.73,1.341-4.024L28.545,23.434z M39.487,49.385v-4.239
				h-2.076V19.109H24.089L23.007,41.21c-0.086,1.774-0.346,2.899-1.167,3.937h-2.714v4.239h5.482h10.164H39.487z"/>
			<path class="st1" d="M83.883,67.452l-2.521-5.314l-0.713,1.214v4.1H79.95v-4.114l-0.698-1.2l-2.521,5.314h-0.729l2.779-5.968
				l-2.658-4.662h0.715l3.113,5.467v-5.467h0.698v5.467l3.113-5.467h0.729l-2.641,4.647l2.748,5.983H83.883L83.883,67.452z
				 M89.744,58.053l-1.609,4.464l-1.731,4.935h-0.759v-10.63h0.638v9.097l1.229-3.509l2.035-5.588h0.836v10.63h-0.638V58.053
				L89.744,58.053z M96.288,57.461h-2.597l-0.273,7.395c-0.021,0.406-0.056,0.746-0.107,1.025c-0.051,0.279-0.139,0.548-0.266,0.805
				c-0.126,0.259-0.314,0.45-0.562,0.577c-0.248,0.127-0.56,0.195-0.933,0.205h-0.138V66.83c0.283,0,0.517-0.048,0.698-0.145
				c0.183-0.096,0.314-0.248,0.395-0.455c0.081-0.208,0.135-0.406,0.16-0.592c0.026-0.188,0.043-0.443,0.053-0.768l0.319-8.047
				h3.964v10.63h-0.713V57.461L96.288,57.461z M98.187,64.855v-5.436c0-0.81,0.195-1.46,0.585-1.951
				c0.389-0.491,0.969-0.736,1.738-0.736c0.79,0,1.379,0.242,1.769,0.729c0.389,0.485,0.584,1.139,0.584,1.958v5.436
				c0,0.82-0.194,1.473-0.584,1.96c-0.39,0.485-0.979,0.729-1.769,0.729c-0.77,0-1.349-0.246-1.738-0.737
				C98.382,66.317,98.187,65.665,98.187,64.855z M98.886,59.374v5.527c0,0.618,0.132,1.106,0.394,1.466
				c0.263,0.36,0.674,0.54,1.231,0.54c0.567,0,0.984-0.18,1.253-0.54c0.268-0.36,0.402-0.848,0.402-1.466v-5.527
				c0-0.618-0.134-1.106-0.402-1.466c-0.269-0.36-0.686-0.54-1.253-0.54c-0.557,0-0.967,0.18-1.231,0.54
				C99.018,58.268,98.886,58.756,98.886,59.374z M107.526,54.849h0.471c-0.011,0.404-0.158,0.721-0.441,0.949
				c-0.283,0.228-0.648,0.342-1.093,0.342c-0.446,0-0.808-0.114-1.086-0.342c-0.279-0.228-0.422-0.544-0.433-0.949h0.485
				c0.011,0.283,0.112,0.496,0.304,0.638c0.192,0.141,0.435,0.212,0.729,0.212C107.141,55.699,107.496,55.415,107.526,54.849
				L107.526,54.849z M108.118,58.053l-3.341,9.399h-0.759v-10.63h0.638v9.097l1.336-3.781l1.928-5.315h0.836v10.63h-0.638V58.053z
				 M118.642,68.926h-0.698v-1.473h-5.072v1.473h-0.683v-2.111h0.729c0.314-0.334,0.491-0.902,0.531-1.701l0.426-8.292h3.887v9.993
				h0.88V68.926L118.642,68.926z M114.527,57.461l-0.395,7.653c-0.051,0.83-0.217,1.396-0.501,1.701h3.417v-9.354H114.527
				L114.527,57.461z M119.705,64.855v-5.436c0-0.81,0.195-1.46,0.585-1.951c0.39-0.491,0.97-0.736,1.738-0.736
				c0.79,0,1.38,0.242,1.769,0.729c0.39,0.485,0.585,1.139,0.585,1.958v5.436c0,0.82-0.195,1.473-0.585,1.96
				c-0.389,0.485-0.979,0.729-1.769,0.729c-0.769,0-1.348-0.246-1.738-0.737C119.901,66.317,119.705,65.665,119.705,64.855z
				 M120.404,59.374v5.527c0,0.618,0.132,1.106,0.395,1.466c0.263,0.36,0.672,0.54,1.23,0.54c0.567,0,0.985-0.18,1.253-0.54
				c0.268-0.36,0.402-0.848,0.402-1.466v-5.527c0-0.618-0.134-1.106-0.402-1.466c-0.268-0.36-0.685-0.54-1.253-0.54
				c-0.557,0-0.966,0.18-1.23,0.54C120.536,58.268,120.404,58.756,120.404,59.374z M131.322,58.007l-2.217,9.431h-0.698l-2.247-9.4
				v9.414h-0.623v-10.63h1.003l2.232,9.4l2.217-9.4h1.003v10.63h-0.669V58.007L131.322,58.007z"/>
			<rect x="19.135" y="61.819" class="st1" width="51.048" height="0.638"/>
			<rect x="137.826" y="61.819" class="st1" width="51.048" height="0.638"/>
		</g>
	</g>
</g>
</svg>
