<?xml version="1.0" encoding="utf-8"?>
<!-- Generator: Adobe Illustrator 21.1.0, SVG Export Plug-In . SVG Version: 6.00 Build 0)  -->
<svg version="1.1" id="Слой_1" xmlns="http://www.w3.org/2000/svg" xmlns:xlink="http://www.w3.org/1999/xlink" x="0px" y="0px"
	 viewBox="0 0 802 956" style="enable-background:new 0 0 802 956;" xml:space="preserve">
<style type="text/css">
	.st0{fill:#C0ECFA;}
	.st1{fill:#FFCF00;}
	.st2{fill:#2A2A2A;}
</style>
<g id="Слой_x0020_1">
	<g id="_1135724320">
		<rect x="341.766" y="942.487" class="st0" width="417.121" height="13.513"/>
		<rect x="82.459" y="748.769" class="st0" width="212.4" height="59.913"/>
		<polygon class="st1" points="754.047,808.681 754.047,943.014 348.967,943.014 348.967,808.681 275.307,808.681 270.336,751.13 
			98.082,751.13 95.283,808.681 0.264,808.681 0.264,130.348 395.641,130.348 395.641,22.143 801.736,22.143 801.736,130.348 
			801.736,808.681 		"/>
		<path class="st2" d="M0.264,130.348h24.791h360.657V46.935V22.143h24.791h54.768v24.791h-54.768v83.414v16.175v8.617v65.208h-0.44
			v4.18h-0.575l20.957,74.309l-3.82,2.075l-21.543-76.385h-8.299v-4.18h-1.143V155.14H25.056v593.629h62.38h10.646h172.254h7.061
			h118.244V339.276v-14.863h14.863h63.48v14.863h-63.48v409.492h75.17h16.133h206.746h7.109h61.282V339.276H576.967v-1.859h-6.162
			v-8.315l-96.82-27.536l2.588-3.669l94.232,26.801v-0.561h6.162V210.112h14.863v114.301h185.114V46.935H591.831v79.218h-14.863
			V46.935v-8.62h-6.16v-8.322L478.742,3.7l2.467-3.7l89.598,25.588v-0.554h6.16v-2.891h199.977v-0.105h24.791v0.105v24.791v701.834
			v40.096v19.817h-42.849v130.206v7.201v7.551h1.091V956H341.766v-1.18v-1.181v-7.551v-7.201V808.681h-64.369h-7.061H98.081H87.435
			H0.264v-19.817v-40.096V155.14L0.264,130.348L0.264,130.348z M751.686,953.639v-7.551H348.967v7.551H751.686z M98.082,775.095
			h172.254V751.13H98.082V775.095z M270.336,782.296H98.082v24.024h172.254V782.296z M708.553,775.095h-97.928v7.201h97.928v26.385
			h43.132v130.206H348.967V808.681h152.84v-17.988h6.285v-7.89l88.269-19.028l-2.374-3.893l-85.895,18.516v-0.985h-6.285V751.13
			h206.746V775.095L708.553,775.095z"/>
	</g>
</g>
</svg>
