<?xml version="1.0" encoding="UTF-8"?>
<!DOCTYPE svg PUBLIC "-//W3C//DTD SVG 1.0//EN" "http://www.w3.org/TR/2001/REC-SVG-20010904/DTD/svg10.dtd">
<!-- Creator: CorelDRAW X7 -->
<svg xmlns="http://www.w3.org/2000/svg" xml:space="preserve" width="132px" height="168px" version="1.0" style="shape-rendering:geometricPrecision; text-rendering:geometricPrecision; image-rendering:optimizeQuality; fill-rule:evenodd; clip-rule:evenodd"
viewBox="0 0 1147805 1465256"
 xmlns:xlink="http://www.w3.org/1999/xlink">
 <defs>
  <style type="text/css">
   <![CDATA[
    .fil2 {fill:#2A2A2A}
    .fil0 {fill:#C0ECFA}
    .fil1 {fill:#FFCF00}
    .fil3 {fill:#2A2A2A;fill-rule:nonzero}
   ]]>
  </style>
 </defs>
 <g id="Слой_x0020_1">
  <metadata id="CorelCorpID_0Corel-Layer"/>
  <g id="_1004564352">
   <rect class="fil0" x="489280" y="1445617" width="605632" height="17312"/>
   <rect class="fil0" x="108669" y="1096478" width="327347" height="83335"/>
   <g>
    <g>
     <polygon class="fil1" points="0,1117961 0,1094480 0,212210 0,184487 42811,184487 556292,184487 556292,65385 556292,26436 566673,26436 584212,26436 1104995,26436 1124809,26436 1147805,26436 1147805,478601 851374,478601 851374,590452 1147805,590452 1147805,1094480 1147805,1117961 1147805,1180843 1104583,1180843 1104583,1416853 1104583,1416853 1104583,1428150 1104583,1428150 1104583,1437697 1104583,1437697 1104583,1444525 1104583,1444525 1079413,1444525 493482,1444525 482411,1444525 468313,1444525 468313,1180843 425358,1180843 425358,1094480 108886,1094480 108886,1180843 0,1180843 "/>
     <path class="fil2" d="M0 1117961l0 -23481 0 -882270 0 -27723 42811 0 513481 0 0 -119102 0 -38949 10381 0 17539 0 63603 0 0 2389 6333 0 129689 -28825 731 3368 -130317 28969 0 9351 -6436 0 0 23697 -63603 0 0 119102 0 27723 0 113448 -2740 0 0 8311 -9361 0 -28959 113046 -3378 -731 28825 -112418 0 -8208 -1926 0 0 -113448 -10381 0 -513481 0 0 882270 91285 0 5448 0 262869 0 9598 0 154662 0 0 -607167 0 -16457 1926 0 0 -9835 12873 0 0 9835 2740 0 80235 0 0 1349 4747 0 0 12873 -4747 0 0 2235 -80235 0 0 607167 119503 0 0 36951 15252 0 0 1153 134570 -21369 536 3399 -135106 21451 0 12101 139338 0 0 -16735 141306 0 0 -36951 105384 0 0 -493152 -22842 0 -24428 0 -63212 0 -66322 0 -66312 0 -20937 0 0 -20175 0 -48506 0 -20164 0 -25170 -32574 0 0 -2235 -8671 0 0 -9351 -116497 -28969 732 -3368 115868 28815 8568 0 0 -4284 0 -161408 4439 0 0 -5273 12873 0 0 5273 7507 0 0 161408 7755 0 20937 0 66312 0 66322 0 63212 0 24428 0 22842 0 0 -402536 -271808 0 0 131079 -7507 0 0 7085 -9362 0 -28959 83686 -3378 -732 28826 -83057 0 -6982 -4439 0 0 -151810 0 -2966 -9794 0 0 -12863 9794 0 0 -3645 0 1256 296627 0 19814 0 22996 0 0 1068044 0 23481 0 62882 -43222 0 0 256730 0 0 0 11298 0 0 0 9557 0 0 0 6828 0 0 -25170 0 -585931 0 -11071 0 -14098 0 0 -284413 -56302 0 -9598 0 -262869 0 -5448 0 -134096 0 0 -62882zm1079413 62882l-79802 0 0 -26992 -141306 0 -139338 0 -15252 0 0 26992 -210233 0 0 256730 585931 0 0 -256730zm-585931 268028l585931 0 0 9557 -585931 0 0 -9557zm-353938 -350982l0 34623 262869 0 0 -34623 -262869 0zm0 45004l0 34541 262869 0 0 -34541 -262869 0zm905246 -655580l-37105 3543 -13172 16611 0 -20154 50277 0zm-50277 25026l15417 -19444 47795 -4593 0 24181 -63212 0 0 -144zm-79978 -25026l-37116 3543 -15540 19588 0 -23131 52656 0zm-50401 25170l15541 -19588 48516 -4665 0 24253 -64057 0zm176207 20164l-32986 4912 -12842 25283 0 -30195 45828 0zm-45828 37806l15097 -29711 48115 -7209 0 47620 -63212 0 0 -10700zm-80895 -37806l-32975 4912 -18764 36910 0 -41822 51739 0zm-51276 48506l20546 -40411 45303 -6787 0 47198 -65849 0zm219811 -93840l0 93840 22842 0 0 -93840 -22842 0z"/>
    </g>
    <g>
     <path class="fil3" d="M883887 64365l60606 0 0 23903c0,1277 -525,2441 -1359,3275 -845,845 -1998,1359 -3275,1359l-52378 0c-1421,0 -2719,-576 -3656,-1513 -927,-938 -1514,-2225 -1514,-3646l0 -23378 1576 0zm57444 3152l-55858 0 0 20226c0,546 226,1050 587,1411 360,371 865,597 1421,597l52378 0c401,0 772,-175 1040,-443 268,-257 432,-638 432,-1040l0 -20751z"/>
     <path class="fil3" d="M887481 89751l54705 0 0 62203c0,7734 -3161,14768 -8269,19866 -5108,5108 -12142,8269 -19876,8269 -7735,0 -14768,-3161 -19866,-8259 -5108,-5108 -8270,-12142 -8270,-19876l0 -62203 1576 0zm51544 3151l-49969 0 0 59052c0,6869 2812,13120 7333,17641 4531,4532 10782,7343 17652,7343 6879,0 13120,-2811 17651,-7333 4521,-4531 7333,-10782 7333,-17651l0 -59052z"/>
     <path class="fil3" d="M892785 97424l42954 0c1628,11276 6447,44623 6447,54530 0,7734 -3172,14778 -8269,19876 -5098,5098 -12132,8259 -19876,8259 -7735,0 -14779,-3161 -19876,-8259 -5098,-5108 -8260,-12142 -8260,-19876 0,-11143 3996,-42337 5479,-54530l1401 0zm40225 3161l-38835 0 -5119 51451c21,6838 2833,13059 7333,17559 4542,4532 10782,7343 17652,7343 6869,0 13120,-2811 17641,-7343 4511,-4511 7322,-10721 7343,-17559l-6015 -51451z"/>
     <path class="fil3" d="M913804 73583c1462,0 2801,597 3759,1555 957,968 1555,2296 1555,3769 0,1462 -598,2791 -1555,3759 -958,958 -2297,1555 -3759,1555 -1473,0 -2801,-597 -3759,-1555 -968,-968 -1566,-2297 -1566,-3759 0,-1473 598,-2801 1566,-3769 958,-958 2296,-1555 3759,-1555z"/>
    </g>
    <g>
     <path class="fil3" d="M1102914 65014l-105353 0 0 75993 107084 0 0 -75993 -1731 0zm-101903 3461l100184 0 0 69082 -100184 0 0 -69082z"/>
     <path class="fil3" d="M1102914 124385l-105353 0 0 16622 107084 0 0 -16622 -1731 0zm-101903 3460l100184 0 0 9712 -100184 0 0 -9712z"/>
     <path class="fil3" d="M1051103 70462c-7281,0 -13872,2956 -18651,7734 -4778,4779 -7734,11380 -7734,18651 0,7281 2956,13872 7724,18650 4789,4789 11380,7734 18661,7734 7281,0 13872,-2945 18650,-7723 4779,-4789 7735,-11380 7735,-18661 0,-7271 -2956,-13872 -7724,-18651 -4789,-4778 -11380,-7734 -18661,-7734zm-16220 10175c4150,-4150 9886,-6715 16220,-6715 6333,0 12070,2565 16220,6705 4150,4150 6715,9886 6715,16220 0,6333 -2565,12070 -6715,16220 -4150,4150 -9887,6714 -16220,6714 -6334,0 -12070,-2564 -16210,-6714 -4160,-4150 -6725,-9887 -6725,-16220 0,-6334 2565,-12070 6715,-16210z"/>
     <path class="fil3" d="M1051103 79937c-4665,0 -8898,1895 -11957,4953 -3058,3059 -4953,7292 -4953,11957 0,4665 1895,8898 4953,11956 3059,3069 7292,4954 11957,4954 4665,0 8898,-1885 11956,-4954 3059,-3058 4954,-7291 4954,-11956 0,-4665 -1895,-8898 -4954,-11957 -3058,-3058 -7291,-4953 -11956,-4953zm-9516 7394c2431,-2430 5798,-3934 9516,-3934 3718,0 7085,1504 9516,3934 2430,2441 3944,5808 3944,9516 0,3718 -1514,7085 -3944,9516 -2431,2440 -5798,3944 -9516,3944 -3718,0 -7085,-1504 -9516,-3944 -2430,-2431 -3944,-5798 -3944,-9516 0,-3708 1514,-7075 3944,-9516z"/>
     <path class="fil2" d="M1094006 128710c-1967,0 -3563,1597 -3563,3564 0,1967 1596,3552 3563,3552 1967,0 3553,-1585 3553,-3552 0,-1967 -1586,-3564 -3553,-3564z"/>
     <path class="fil2" d="M1006665 128710c-1967,0 -3553,1597 -3553,3564 0,1967 1586,3552 3553,3552 1967,0 3563,-1585 3563,-3552 0,-1967 -1596,-3564 -3563,-3564z"/>
     <path class="fil2" d="M1018210 128710c-1967,0 -3564,1597 -3564,3564 0,1967 1597,3552 3564,3552 1967,0 3553,-1585 3553,-3552 0,-1967 -1586,-3564 -3553,-3564z"/>
    </g>
    <g>
     <path class="fil3" d="M843352 466449l0 -122635 262528 0 0 124354 -262528 0 0 -1719zm3450 -119174l0 117443 255628 0 0 -117443 -255628 0z"/>
     <path class="fil3" d="M852044 405997c0,-14717 6014,-28084 15705,-37775 9691,-9701 23069,-15716 37785,-15716l170543 0c5808,0 11091,2379 14912,6200 3821,3821 6200,9104 6200,14912l0 64757c0,5798 -2379,11081 -6200,14912 -3821,3821 -9104,6189 -14912,6189l-170543 0c-14716,0 -28094,-6014 -37785,-15705 -9691,-9691 -15705,-23068 -15705,-37774zm18156 -35335c-9073,9063 -14706,21576 -14706,35335 0,13758 5633,26261 14706,35334 9063,9062 21575,14695 35334,14695l170543 0c4861,0 9268,-1987 12471,-5190 3203,-3192 5191,-7611 5191,-12461l0 -64757c0,-4850 -1988,-9268 -5191,-12471 -3203,-3193 -7610,-5180 -12471,-5180l-170543 0c-13759,0 -26271,5623 -35334,14695z"/>
     <path class="fil2" d="M1058199 405997c0,-3883 3141,-7034 7023,-7034 3883,0 7034,3151 7034,7034 0,3882 -3151,7023 -7034,7023 -3882,0 -7023,-3141 -7023,-7023zm2739 0c0,-2369 1915,-4285 4284,-4285 2369,0 4284,1916 4284,4285 0,2368 -1915,4284 -4284,4284 -2369,0 -4284,-1916 -4284,-4284z"/>
    </g>
    <g>
     <path class="fil3" d="M1032669 301148l0 -17281c0,-9969 4078,-19032 10659,-25612 6570,-6571 15633,-10649 25612,-10649l26673 0c2636,0 5036,1081 6776,2822 1741,1730 2822,4130 2822,6776l0 70617c0,2636 -1081,5036 -2822,6766 -1730,1751 -4140,2832 -6776,2832l-26673 0c-9969,0 -19042,-4088 -25612,-10659 -6581,-6570 -10659,-15633 -10659,-25612zm3450 -17281l0 17281c0,9021 3697,17229 9649,23171 5942,5953 14150,9640 23172,9640l26673 0c1689,0 3223,-690 4336,-1803 1112,-1112 1802,-2646 1802,-4335l0 -70617c0,-1689 -690,-3233 -1802,-4346 -1113,-1112 -2647,-1802 -4336,-1802l-26673 0c-9022,0 -17230,3697 -23172,9639 -5952,5943 -9649,14151 -9649,23172z"/>
     <path class="fil3" d="M1042998 301148c0,7116 2925,13604 7631,18310 4707,4697 11195,7621 18311,7621l10391 0 0 -69144 -10391 0c-7127,0 -13604,2925 -18311,7632 -4706,4696 -7631,11184 -7631,18300l0 17281zm5190 20751c-5324,-5334 -8640,-12677 -8640,-20751l0 -17281c0,-8064 3316,-15417 8640,-20751 5325,-5325 12678,-8631 20752,-8631l11122 0c752,0 1432,309 1916,793 494,495 803,1174 803,1926l0 70617c0,731 -309,1411 -803,1905 -505,494 -1185,814 -1916,814l-11122 0c-8074,0 -15427,-3316 -20752,-8641z"/>
     <path class="fil2" d="M1085665 289572c1050,-1977 3130,-3326 5530,-3326 3460,0 6272,2801 6272,6261 0,3461 -2812,6262 -6272,6262 -2400,0 -4480,-1349 -5530,-3327l-14758 0 0 -5870 14758 0z"/>
     <path class="fil2" d="M1049733 292507c0,-3882 3141,-7023 7024,-7023 3882,0 7034,3141 7034,7023 0,3883 -3152,7024 -7034,7024 -3883,0 -7024,-3141 -7024,-7024zm2740 0c0,-2368 1915,-4284 4284,-4284 2368,0 4284,1916 4284,4284 0,2369 -1916,4285 -4284,4285 -2369,0 -4284,-1916 -4284,-4285z"/>
    </g>
    <g>
     <path class="fil3" d="M1008045 690337l0 -69823c0,-2750 1133,-5242 2935,-7055 1813,-1812 4315,-2935 7065,-2935l69823 0c2750,0 5253,1123 7055,2935 1812,1802 2935,4305 2935,7055l0 69823c0,2750 -1123,5252 -2935,7065 -1802,1813 -4305,2935 -7055,2935l-69823 0c-2750,0 -5252,-1122 -7065,-2935 -1802,-1823 -2935,-4315 -2935,-7065zm3460 -69823l0 69823c0,1802 731,3440 1916,4624 1184,1185 2822,1916 4624,1916l69823 0c1792,0 3430,-731 4614,-1916 1184,-1184 1926,-2822 1926,-4624l0 -69823c0,-1792 -742,-3430 -1926,-4614 -1184,-1184 -2822,-1926 -4614,-1926l-69823 0c-1802,0 -3440,742 -4624,1926 -1185,1174 -1916,2811 -1916,4614z"/>
     <path class="fil3" d="M1014832 682912l0 -54973c0,-2925 1194,-5582 3120,-7508 1926,-1936 4593,-3131 7518,-3131l37703 0c2914,0 5581,1195 7507,3131 1926,1926 3131,4583 3131,7508l0 54973c0,2925 -1205,5592 -3131,7518 -1926,1926 -4583,3120 -7507,3120l-37703 0c-2935,0 -5592,-1194 -7518,-3120 -1926,-1936 -3120,-4593 -3120,-7518zm3450 -54973l0 54973c0,1977 803,3780 2111,5077 1297,1298 3100,2111 5077,2111l37703 0c1967,0 3769,-813 5067,-2111 1307,-1308 2111,-3100 2111,-5077l0 -54973c0,-1967 -804,-3769 -2111,-5067 -1308,-1308 -3100,-2122 -5067,-2122l-37703 0c-1977,0 -3769,814 -5077,2122 -1298,1298 -2111,3100 -2111,5067z"/>
     <path class="fil2" d="M1077766 652501c1050,-1988 3130,-3337 5530,-3337 3460,0 6261,2801 6261,6261 0,3461 -2801,6262 -6261,6262 -2400,0 -4480,-1349 -5530,-3327l-14758 0 0 -5859 14758 0z"/>
     <path class="fil2" d="M1034265 655425c0,-3882 3141,-7023 7023,-7023 3883,0 7024,3141 7024,7023 0,3883 -3141,7034 -7024,7034 -3882,0 -7023,-3151 -7023,-7034zm2739 0c0,-2368 1916,-4284 4284,-4284 2369,0 4285,1916 4285,4284 0,2369 -1916,4285 -4285,4285 -2368,0 -4284,-1916 -4284,-4285z"/>
    </g>
    <g>
     <path class="fil3" d="M999302 847234l0 -65724c0,-3543 1452,-6767 3779,-9094 2328,-2327 5551,-3780 9094,-3780l94210 0 0 89813 -95879 0c-3079,0 -5890,-1266 -7919,-3295 -2029,-2029 -3285,-4830 -3285,-7920zm3450 -65724l0 65724c0,2132 875,4079 2286,5479 1400,1401 3337,2276 5468,2276l92429 0 0 -82903 -90760 0c-2585,0 -4944,1072 -6653,2771 -1710,1709 -2770,4068 -2770,6653z"/>
     <polygon class="fil3" points="1011773,856719 1011773,770367 1015223,770367 1015223,856719 "/>
     <path class="fil2" d="M1023132 834135c0,-7611 6169,-13780 13780,-13780 7610,0 13779,6169 13779,13780 0,7610 -6169,13779 -13779,13779 -7611,0 -13780,-6169 -13780,-13779z"/>
     <path class="fil2" d="M1027416 795608c0,-5242 4254,-9495 9496,-9495 5242,0 9495,4253 9495,9495 0,5252 -4253,9506 -9495,9506 -5242,0 -9496,-4254 -9496,-9506z"/>
     <path class="fil2" d="M1065799 795608c0,7611 6179,13780 13789,13780 7611,0 13780,-6169 13780,-13780 0,-7610 -6169,-13779 -13780,-13779 -7610,0 -13789,6169 -13789,13779z"/>
     <path class="fil2" d="M1070083 834135c0,5242 4253,9495 9505,9495 5242,0 9496,-4253 9496,-9495 0,-5252 -4254,-9506 -9496,-9506 -5252,0 -9505,4254 -9505,9506z"/>
    </g>
   </g>
  </g>
 </g>
</svg>
