<?xml version="1.0" encoding="UTF-8"?>
<!DOCTYPE svg PUBLIC "-//W3C//DTD SVG 1.0//EN" "http://www.w3.org/TR/2001/REC-SVG-20010904/DTD/svg10.dtd">
<!-- Creator: CorelDRAW X7 -->
<svg xmlns="http://www.w3.org/2000/svg" xml:space="preserve" width="132px" height="168px" version="1.0" style="shape-rendering:geometricPrecision; text-rendering:geometricPrecision; image-rendering:optimizeQuality; fill-rule:evenodd; clip-rule:evenodd"
viewBox="0 0 1946511 2484861"
 xmlns:xlink="http://www.w3.org/1999/xlink">
 <defs>
  <style type="text/css">
   <![CDATA[
    .fil1 {fill:#5B5B5B}
    .fil0 {fill:#FCD38E}
    .fil2 {fill:#FEFEFE}
    .fil3 {fill:#5B5B5B;fill-rule:nonzero}
   ]]>
  </style>
 </defs>
 <g id="Слой_x0020_1">
  <metadata id="CorelCorpID_0Corel-Layer"/>
  <g id="_1004588352">
   <g>
    <g>
     <polygon class="fil0" points="0,1895899 0,1856079 0,359878 0,312863 72601,312863 943391,312863 943391,110883 943391,44832 960995,44832 990738,44832 1873911,44832 1907513,44832 1946511,44832 1946511,811637 1443807,811637 1443807,1001321 1946511,1001321 1946511,1856079 1946511,1895899 1946511,2002538 1873212,2002538 1873212,2402777 1873212,2402777 1873212,2421936 1873212,2421936 1873212,2438125 1873212,2438125 1873212,2449705 1873212,2449705 1830528,2449705 836874,2449705 818099,2449705 794190,2449705 794190,2002538 721345,2002538 721345,1856079 184654,1856079 184654,2002538 0,2002538 "/>
     <path class="fil1" d="M0 1895899l0 -39820 0 -1496201 0 -47015 72601 0 870790 0 0 -201980 0 -66051 17604 0 29743 0 107862 0 0 4052 10741 0 219933 -48884 1240 5711 -220999 49128 0 15858 -10915 0 0 40186 -107862 0 0 201980 0 47015 0 192391 -4646 0 0 14094 -15875 0 -49111 191710 -5728 -1240 48883 -190645 0 -13919 -3266 0 0 -192391 -17604 0 -870790 0 0 1496201 154807 0 9239 0 445786 0 16278 0 262284 0 0 -1029667 0 -27908 3266 0 0 -16679 21831 0 0 16679 4646 0 136067 0 0 2288 8052 0 0 21831 -8052 0 0 3789 -136067 0 0 1029667 202660 0 0 62664 25866 0 0 1956 228211 -36240 908 5764 -229119 36379 0 20521 236297 0 0 -28380 239633 0 0 -62664 178717 0 0 -836315 -38737 0 -41426 0 -107199 0 -112472 0 -112456 0 -35505 0 0 -34213 0 -82259 0 -34196 0 -42684 -55241 0 0 -3789 -14706 0 0 -15858 -197560 -49129 1240 -5711 196495 48867 14531 0 0 -7266 0 -273724 7527 0 0 -8942 21831 0 0 8942 12732 0 0 273724 13151 0 35505 0 112456 0 112472 0 107199 0 41426 0 38737 0 0 -682643 -460946 0 0 222291 -12732 0 0 12016 -15876 0 -49110 141918 -5729 -1240 48884 -140853 0 -11841 -7527 0 0 -257447 0 -5030 -16609 0 0 -21813 16609 0 0 -6183 0 2131 503036 0 33602 0 38998 0 0 1811247 0 39820 0 106639 -73299 0 0 435378 0 0 0 19159 0 0 0 16207 0 0 0 11579 0 0 -42684 0 -993654 0 -18775 0 -23909 0 0 -482323 -95479 0 -16278 0 -445786 0 -9239 0 -227408 0 0 -106639zm1830528 106639l-135334 0 0 -45775 -239633 0 -236297 0 -25866 0 0 45775 -356524 0 0 435378 993654 0 0 -435378zm-993654 454537l993654 0 0 16207 -993654 0 0 -16207zm-600227 -595215l0 58716 445786 0 0 -58716 -445786 0zm0 76321l0 58576 445786 0 0 -58576 -445786 0zm1535165 -1111769l-62925 6008 -22338 28171 0 -34179 85263 0zm-85263 42440l26145 -32974 81054 -7789 0 41007 -107199 0 0 -244zm-135631 -42440l-62942 6008 -26355 33218 0 -39226 89297 0zm-85472 42684l26354 -33218 82277 -7911 0 41129 -108631 0zm298821 34196l-55939 8331 -21779 42876 0 -51207 77718 0zm-77718 64113l25604 -50386 81595 -12225 0 80757 -107199 0 0 -18146zm-137185 -64113l-55922 8331 -31821 62593 0 -70924 87743 0zm-86957 82259l34842 -68532 76828 -11509 0 80041 -111670 0zm372767 -159139l0 159139 38737 0 0 -159139 -38737 0z"/>
    </g>
    <g>
     <polygon class="fil2" points="107652,1459770 547012,1459770 547012,1811247 107652,1811247 "/>
     <path class="fil3" d="M250164 1459770l7161 0 289687 0 0 112473 0 14076 0 98379 0 14094 0 112455 -289687 0 -14321 0 -135352 0 0 -351477 7161 0 128191 0 7160 0zm-7160 337401l0 -98379 0 -14094 0 -98379 0 -14076 0 -98396 -121030 0 0 323324 121030 0zm289670 -98379l-275349 0 0 98379 275349 0 0 -98379zm0 -112473l-275349 0 0 98379 275349 0 0 -98379zm0 -112472l-275349 0 0 98396 275349 0 0 -98396z"/>
     <path class="fil3" d="M189178 1687161c0,1571 -454,2864 -1432,3824 -909,821 -2131,1240 -3616,1240 -1327,0 -2515,-419 -3527,-1257 -1013,-838 -1520,-2131 -1520,-3807l0 -79151 -11649 11649c-1013,1013 -2165,1537 -3493,1537 -1205,0 -2392,-524 -3528,-1537 -1065,-1065 -1606,-2270 -1606,-3632 0,-1170 524,-2323 1536,-3493l20225 -20364c681,-699 1397,-1240 2113,-1659 716,-402 1502,-611 2375,-611 838,0 1799,506 2899,1536 804,1048 1223,2498 1223,4279l0 91446z"/>
     <path class="fil3" d="M336161 1553189c0,1030 -297,1851 -926,2462 -594,542 -1362,804 -2323,804 -856,0 -1624,-262 -2270,-804 -646,-541 -978,-1379 -978,-2462l0 -50875 -7493 7492c-646,647 -1397,978 -2235,978 -786,0 -1537,-331 -2270,-978 -699,-698 -1048,-1467 -1048,-2340 0,-751 349,-1502 995,-2253l13011 -13081c437,-454 891,-803 1345,-1065 472,-262 978,-402 1537,-402 541,0 1153,332 1851,978 524,681 804,1607 804,2760l0 58786zm19543 -55521l0 19648 9815 0c4436,0 8296,1590 11509,4786 3231,3178 4838,7020 4838,11526l0 6515c0,4453 -1607,8278 -4803,11491 -3196,3214 -7056,4821 -11527,4821l-13063 0c-978,0 -1799,-297 -2410,-926 -559,-646 -839,-1432 -839,-2323 0,-768 280,-1502 856,-2200 594,-699 1380,-1048 2410,-1048l13081 0c2672,0 4978,-926 6899,-2795 1921,-1868 2899,-4191 2899,-7020l0 -6532c0,-2707 -943,-5013 -2829,-6916 -1887,-1921 -4209,-2882 -6969,-2882l-13081 0c-2183,0 -3266,-1083 -3266,-3266l0 -26110c0,-2183 1083,-3265 3249,-3265l26127 0c891,0 1677,331 2305,995 629,664 961,1415 961,2253 0,751 -280,1467 -821,2183 -559,716 -1362,1065 -2445,1065l-22896 0zm39190 55538c0,-890 315,-1659 944,-2288 646,-628 1397,-960 2287,-960 717,0 1433,332 2166,960 716,629 1083,1398 1083,2288 0,786 -314,1520 -943,2201 -646,698 -1415,1048 -2306,1048 -908,0 -1711,-315 -2357,-978 -594,-681 -874,-1432 -874,-2271zm26180 -29393l-140 3266 0 16347c0,1834 629,3388 1887,4681 646,558 1344,1012 2095,1397 943,297 1799,454 2585,454l6549 0c1817,0 3354,-594 4629,-1817 1292,-1222 1921,-2794 1921,-4715l0 -13081c0,-1834 -612,-3388 -1852,-4646 -1240,-1257 -2794,-1886 -4698,-1886l-12976 0zm1153 -6497l11806 0c3545,0 6602,1275 9186,3808 2585,2532 3877,5623 3877,9238l0 13047c0,3580 -1274,6636 -3824,9203 -2568,2550 -5624,3843 -9239,3843l-6532 0c-3510,0 -6567,-1258 -9151,-3773 -2603,-2515 -3895,-5606 -3895,-9273l0 -16295c0,-6200 1170,-12068 3545,-17639 1607,-3843 3982,-7353 7126,-10532 3126,-3161 6776,-5641 10898,-7440l1397 -331c838,0 1607,331 2288,1013 559,716 838,1519 838,2392 0,611 -139,1135 -419,1589 -279,437 -803,874 -1572,1345 -890,332 -1659,699 -2357,1048 -699,367 -1468,821 -2271,1380 -1327,908 -2689,2008 -4104,3353 -2532,2550 -4489,5467 -5868,8767l-978 2603 -751 2654zm57459 35873c0,1030 -297,1851 -926,2462 -594,542 -1362,804 -2323,804 -856,0 -1624,-262 -2270,-804 -646,-541 -978,-1379 -978,-2462l0 -50875 -7493 7492c-646,647 -1397,978 -2235,978 -786,0 -1537,-331 -2270,-978 -699,-698 -1048,-1467 -1048,-2340 0,-751 349,-1502 995,-2253l13011 -13081c437,-454 891,-803 1345,-1065 472,-262 978,-402 1537,-402 541,0 1153,332 1851,978 524,681 804,1607 804,2760l0 58786z"/>
     <path class="fil3" d="M316199 1610490l-13082 0c-995,0 -1798,-296 -2427,-925 -542,-646 -838,-1432 -838,-2323 0,-768 296,-1502 855,-2183 577,-716 1397,-1065 2410,-1065l13064 0c5100,0 9169,1659 12208,4977 2742,3126 4104,6864 4104,11247 0,2637 -506,5048 -1554,7266 -1031,2200 -2620,4174 -4768,5955 1799,1432 3301,3283 4506,5571 1222,2271 1816,4733 1816,7336l0 6514c0,4471 -1607,8296 -4803,11509 -3196,3214 -7038,4820 -11509,4820l-13064 0c-995,0 -1798,-279 -2427,-873 -542,-716 -838,-1519 -838,-2375 0,-751 279,-1467 820,-2183 559,-716 1363,-1066 2463,-1066l13081 0c2690,0 4995,-943 6916,-2864 1921,-1921 2882,-4226 2882,-6951l0 -6531c0,-2673 -943,-4978 -2830,-6899 -1886,-1921 -4226,-2899 -6985,-2899l-6550 0c-995,0 -1816,-280 -2427,-873 -559,-716 -839,-1520 -839,-2376 0,-751 262,-1467 821,-2183 542,-716 1345,-1065 2445,-1065l6550 0c2881,0 5274,-1048 7143,-3126 1589,-1869 2375,-4157 2375,-6864 0,-2655 -751,-4838 -2288,-6584 -1729,-1991 -4157,-2987 -7230,-2987zm59869 18565l-21098 33637 20242 0c908,0 1659,350 2305,1013 629,647 961,1415 961,2236 0,751 -280,1467 -821,2183 -559,716 -1362,1065 -2445,1065l-26110 0c-2358,0 -3528,-873 -3528,-2602 0,-698 262,-1502 786,-2445l24101 -38440c821,-1711 1223,-3336 1223,-4907 0,-2795 -1083,-5222 -3266,-7283 -1030,-961 -2235,-1712 -3598,-2271 -1362,-558 -2846,-838 -4418,-838 -1659,0 -3249,419 -4751,1293 -1537,978 -2794,2218 -3790,3720 -244,419 -681,803 -1257,1187l-1450 314c-820,0 -1606,-296 -2305,-908 -699,-611 -1048,-1344 -1048,-2253 0,-436 192,-1065 559,-1868 1485,-2323 3510,-4227 6078,-5711 1240,-716 2497,-1275 3755,-1659 1275,-402 2515,-612 3737,-612 5100,0 9414,1677 12941,5065 3528,3371 5292,7388 5292,12068 0,2672 -698,5344 -2095,8016zm15421 36886c0,-891 314,-1659 943,-2288 646,-629 1397,-961 2288,-961 716,0 1432,332 2165,961 717,629 1083,1397 1083,2288 0,786 -314,1519 -943,2200 -646,699 -1414,1048 -2305,1048 -908,0 -1712,-314 -2358,-978 -594,-681 -873,-1432 -873,-2270zm49809 -36886l-21097 33637 20241 0c909,0 1660,350 2306,1013 629,647 960,1415 960,2236 0,751 -279,1467 -821,2183 -558,716 -1362,1065 -2445,1065l-26109 0c-2358,0 -3528,-873 -3528,-2602 0,-698 262,-1502 786,-2445l24101 -38440c821,-1711 1223,-3336 1223,-4907 0,-2795 -1083,-5222 -3266,-7283 -1031,-961 -2236,-1712 -3598,-2271 -1362,-558 -2847,-838 -4419,-838 -1659,0 -3248,419 -4750,1293 -1537,978 -2794,2218 -3790,3720 -244,419 -681,803 -1257,1187l-1450 314c-821,0 -1607,-296 -2305,-908 -699,-611 -1048,-1344 -1048,-2253 0,-436 192,-1065 559,-1868 1484,-2323 3510,-4227 6077,-5711 1240,-716 2498,-1275 3755,-1659 1275,-402 2515,-612 3738,-612 5100,0 9413,1677 12941,5065 3528,3371 5292,7388 5292,12068 0,2672 -699,5344 -2096,8016zm44815 20661l6514 0c908,0 1677,332 2305,1013 647,646 961,1415 961,2236 0,751 -262,1467 -803,2183 -542,716 -1380,1065 -2463,1065l-6514 0 0 9728c0,1013 -297,1851 -926,2445 -594,541 -1362,803 -2323,803 -856,0 -1624,-262 -2270,-803 -664,-541 -978,-1362 -978,-2445l0 -9728 -19613 0c-2253,0 -3406,-873 -3406,-2637l105 -803 192 -751 13046 -45723c175,-664 542,-1258 1118,-1781l611 -332c367,-192 769,-280 1258,-280 943,0 1746,315 2358,943 698,577 1047,1345 1047,2288l-157 961 -11876 41618 15317 0 0 -9815c0,-856 314,-1659 978,-2410 646,-559 1414,-856 2270,-856 821,0 1590,280 2236,821 681,559 1013,1362 1013,2445l0 9815z"/>
     <path class="fil3" d="M312950 1722876l-13081 0c-995,0 -1799,-297 -2428,-926 -541,-646 -838,-1432 -838,-2323 0,-768 297,-1502 856,-2183 576,-716 1397,-1065 2410,-1065l13064 0c5099,0 9169,1659 12207,4977 2742,3127 4105,6864 4105,11248 0,2637 -507,5047 -1555,7265 -1030,2201 -2619,4174 -4768,5955 1799,1433 3301,3284 4506,5572 1223,2270 1817,4733 1817,7335l0 6514c0,4471 -1607,8296 -4803,11509 -3196,3214 -7038,4821 -11509,4821l-13064 0c-995,0 -1799,-280 -2428,-874 -541,-716 -838,-1519 -838,-2375 0,-751 280,-1467 821,-2183 559,-716 1362,-1065 2462,-1065l13082 0c2689,0 4994,-943 6916,-2864 1921,-1921 2881,-4227 2881,-6951l0 -6532c0,-2672 -943,-4978 -2829,-6899 -1886,-1921 -4226,-2899 -6986,-2899l-6549 0c-996,0 -1817,-279 -2428,-873 -559,-716 -838,-1519 -838,-2375 0,-751 262,-1467 821,-2183 541,-716 1345,-1066 2445,-1066l6549 0c2882,0 5274,-1048 7143,-3126 1589,-1869 2375,-4156 2375,-6863 0,-2655 -751,-4838 -2288,-6585 -1729,-1991 -4156,-2986 -7230,-2986zm59013 39226l6515 0c908,0 1676,331 2305,1013 646,646 961,1414 961,2235 0,751 -262,1467 -804,2183 -541,716 -1380,1065 -2462,1065l-6515 0 0 9728c0,1013 -297,1852 -925,2445 -594,542 -1363,804 -2323,804 -856,0 -1624,-262 -2271,-804 -663,-541 -978,-1362 -978,-2445l0 -9728 -19612 0c-2253,0 -3406,-873 -3406,-2637l105 -803 192 -751 13046 -45723c175,-663 541,-1257 1118,-1781l611 -332c367,-192 768,-279 1257,-279 944,0 1747,314 2358,943 699,576 1048,1345 1048,2288l-157 960 -11876 41619 15316 0 0 -9816c0,-855 315,-1659 978,-2410 647,-559 1415,-855 2271,-855 821,0 1589,279 2235,820 681,559 1013,1363 1013,2445l0 9816zm22792 16224c0,-890 314,-1659 943,-2288 646,-628 1397,-960 2288,-960 716,0 1432,332 2165,960 716,629 1083,1398 1083,2288 0,786 -314,1520 -943,2201 -646,698 -1415,1048 -2305,1048 -908,0 -1712,-315 -2358,-978 -594,-681 -873,-1432 -873,-2271zm39173 -35890c2952,0 5397,-1030 7335,-3073 1624,-1922 2445,-4157 2445,-6759 0,-2655 -821,-4890 -2445,-6742 -1781,-2043 -4226,-3073 -7335,-3073 -2864,0 -5327,1030 -7353,3073 -1624,1921 -2427,4157 -2427,6742 0,2672 803,4907 2427,6759 1782,2043 4227,3073 7353,3073zm0 6497c-4122,0 -7422,1345 -9850,4052 -2183,2463 -3283,5484 -3283,9029 0,3511 1100,6497 3283,8960 2463,2742 5763,4104 9850,4104 4122,0 7405,-1345 9833,-4052 2183,-2462 3283,-5466 3283,-9012 0,-3458 -1083,-6444 -3231,-8977 -2462,-2742 -5763,-4104 -9885,-4104zm10758 -3615c2900,1677 5100,4017 6585,7021 1519,2986 2270,6217 2270,9675 0,5117 -1642,9588 -4908,13413 -3615,4104 -8505,6148 -14722,6148 -6148,0 -11021,-2026 -14706,-6061 -3266,-3632 -4890,-8138 -4890,-13500 0,-3458 734,-6671 2166,-9623 1467,-2986 3685,-5361 6671,-7160 -1746,-1467 -3108,-3336 -4051,-5589 -978,-2253 -1450,-4593 -1450,-7021 0,-4349 1345,-8103 4052,-11247 3004,-3388 7073,-5082 12208,-5082 5029,0 9081,1694 12173,5082 2741,3109 4104,6864 4104,11247 0,2428 -454,4768 -1363,7021 -925,2253 -2287,4157 -4139,5676zm37864 -22442l-13081 0c-996,0 -1799,-297 -2428,-926 -541,-646 -838,-1432 -838,-2323 0,-768 297,-1502 856,-2183 576,-716 1397,-1065 2410,-1065l13063 0c5100,0 9169,1659 12208,4977 2742,3127 4104,6864 4104,11248 0,2637 -506,5047 -1554,7265 -1030,2201 -2620,4174 -4768,5955 1799,1433 3301,3284 4506,5572 1223,2270 1816,4733 1816,7335l0 6514c0,4471 -1606,8296 -4802,11509 -3196,3214 -7039,4821 -11510,4821l-13063 0c-996,0 -1799,-280 -2428,-874 -541,-716 -838,-1519 -838,-2375 0,-751 279,-1467 821,-2183 559,-716 1362,-1065 2462,-1065l13081 0c2690,0 4995,-943 6916,-2864 1921,-1921 2882,-4227 2882,-6951l0 -6532c0,-2672 -943,-4978 -2829,-6899 -1886,-1921 -4227,-2899 -6986,-2899l-6549 0c-996,0 -1817,-279 -2428,-873 -559,-716 -838,-1519 -838,-2375 0,-751 262,-1467 821,-2183 541,-716 1344,-1066 2445,-1066l6549 0c2882,0 5274,-1048 7143,-3126 1589,-1869 2375,-4156 2375,-6863 0,-2655 -751,-4838 -2288,-6585 -1729,-1991 -4156,-2986 -7230,-2986z"/>
    </g>
    <path class="fil3" d="M348019 1119959l23822 -23612c559,-507 1205,-768 1939,-768 698,0 1344,279 1956,855 611,577 925,1258 925,2044 0,489 -297,1117 -855,1903l-16836 16784 17360 30703 401 1502c0,733 -314,1345 -925,1886 -577,559 -1258,856 -2079,856 -908,0 -1694,-489 -2375,-1485l-16591 -29480 -6742 6619 0 21516c0,891 -262,1607 -803,2149 -507,454 -1188,681 -2009,681 -751,0 -1414,-227 -1973,-699 -559,-489 -838,-1187 -838,-2131l0 -50962c0,-716 279,-1362 873,-1921 559,-559 1222,-820 1938,-820 716,0 1380,209 1974,646 559,471 838,1187 838,2095l0 21639zm70593 20836c0,3108 -1101,5763 -3301,7981 -2201,2218 -4873,3336 -7982,3336l-11299 0c-3074,0 -5729,-1101 -7947,-3301 -2235,-2183 -3353,-4855 -3353,-8016l0 -33917c0,-3143 1100,-5816 3283,-8016 2201,-2183 4873,-3283 8017,-3283l11299 0c3127,0 5799,1100 7999,3300 2183,2218 3284,4873 3284,7999l0 33917zm-5607 35l0 -33969c0,-1607 -541,-2934 -1606,-4035 -1066,-1082 -2428,-1641 -4070,-1641l-11317 0c-1589,0 -2934,541 -4052,1624 -541,541 -943,1153 -1205,1834 -262,698 -401,1432 -401,2218l0 33969c0,1589 524,2934 1606,4051 577,472 1188,874 1834,1205 804,262 1537,402 2218,402l11317 0c1572,0 2899,-524 4017,-1589 1101,-1048 1659,-2410 1659,-4069zm61040 8452c0,891 -245,1607 -751,2149 -542,454 -1240,681 -2061,681 -646,0 -1275,-227 -1886,-699 -629,-489 -926,-1187 -926,-2131l0 -40343 -11684 19526c-699,1222 -1519,1816 -2463,1816 -820,0 -1624,-594 -2445,-1816l-11753 -19526 0 40343c0,891 -262,1607 -804,2149 -506,454 -1187,681 -2008,681 -751,0 -1415,-227 -1974,-699 -559,-471 -838,-1187 -838,-2131l0 -50612c0,-1066 279,-1869 803,-2410 489,-559 1083,-856 1782,-856 506,0 960,140 1362,402 402,279 838,751 1292,1414l14583 24224 14514 -24224c646,-1205 1554,-1816 2707,-1816 646,0 1257,297 1816,891 489,611 734,1414 734,2375l0 50612zm39540 -31069l0 -19823c0,-751 262,-1414 838,-1973 559,-577 1222,-838 1956,-838 716,0 1380,227 1956,698 576,472 856,1188 856,2113l0 50823c0,803 -280,1519 -873,2130 -682,507 -1328,769 -1974,769 -681,0 -1345,-227 -1973,-681 -524,-454 -786,-1170 -786,-2114l0 -25481 -22652 0 0 25446c0,891 -262,1607 -803,2149 -507,454 -1188,681 -2009,681 -751,0 -1415,-227 -1973,-699 -559,-471 -839,-1187 -839,-2131l0 -50857c0,-751 280,-1449 839,-2095 558,-490 1222,-734 1973,-734 716,0 1380,244 1939,716 576,472 873,1170 873,2131l0 19770 22652 0zm26843 19770l-4087 12190c-209,594 -559,1066 -1048,1450 -366,244 -890,401 -1519,489 -769,0 -1415,-280 -1991,-821 -611,-472 -926,-1118 -926,-1921l192 -1013 17011 -50857c559,-1607 1450,-2428 2655,-2428 1205,0 2095,821 2654,2428l16924 50857 209 1013c0,733 -314,1380 -943,1973 -594,507 -1257,769 -1973,769 -385,0 -786,-105 -1275,-297 -472,-175 -909,-716 -1310,-1642l-4070 -12190 -20503 0zm18617 -5798l-8330 -24870 -8349 24870 16679 0zm25149 -31000l-11299 0c-856,0 -1572,-245 -2096,-751 -489,-612 -734,-1310 -734,-2044 0,-663 228,-1275 699,-1903 472,-612 1188,-908 2131,-908l28240 0c786,0 1432,279 1991,855 559,577 821,1240 821,1956 0,647 -227,1258 -699,1887 -471,611 -1187,908 -2113,908l-11317 0 0 48097c0,891 -262,1607 -803,2149 -507,454 -1188,681 -2009,681 -733,0 -1397,-227 -1973,-699 -559,-489 -839,-1187 -839,-2131l0 -48097zm29690 36798l-4086 12190c-210,594 -559,1066 -1048,1450 -367,244 -891,401 -1520,489 -768,0 -1414,-280 -1991,-821 -611,-472 -925,-1118 -925,-1921l192 -1013 17011 -50857c558,-1607 1449,-2428 2654,-2428 1205,0 2096,821 2655,2428l16923 50857 210 1013c0,733 -315,1380 -943,1973 -594,507 -1258,769 -1974,769 -384,0 -786,-105 -1275,-297 -471,-175 -908,-716 -1310,-1642l-4069 -12190 -20504 0zm18618 -5798l-8331 -24870 -8348 24870 16679 0zm-193230 84249c0,891 -262,1607 -803,2148 -507,455 -1170,682 -2009,682 -733,0 -1397,-227 -1973,-699 -559,-472 -838,-1188 -838,-2131l0 -44063 -6480 6479c-576,577 -1222,856 -1956,856 -663,0 -1327,-279 -1956,-856 -594,-594 -908,-1257 -908,-2026 0,-646 297,-1292 856,-1938l11282 -11335c367,-384 768,-681 1170,-925 402,-228 838,-350 1310,-350 472,0 1013,297 1624,856 454,594 681,1397 681,2393l0 50909zm16941 -48098l0 17029 8488 0c3842,0 7178,1379 9972,4139 2795,2759 4192,6095 4192,9990l0 5641c0,3859 -1397,7178 -4174,9955 -2760,2776 -6095,4174 -9973,4174l-11299 0c-856,0 -1572,-262 -2096,-804 -489,-559 -734,-1240 -734,-2008 0,-681 245,-1310 734,-1904 524,-594 1205,-908 2096,-908l11334 0c2306,0 4314,-803 5973,-2428 1677,-1624 2515,-3632 2515,-6077l0 -5659c0,-2340 -821,-4331 -2462,-5990 -1625,-1659 -3633,-2498 -6026,-2498l-11334 0c-1886,0 -2830,-925 -2830,-2812l0 -22634c0,-1886 926,-2812 2830,-2812l22617 0c768,0 1449,280 1990,856 559,576 839,1240 839,1956 0,646 -245,1258 -716,1886 -472,612 -1188,908 -2113,908l-19823 0zm33934 48116c0,-769 279,-1432 821,-1991 559,-542 1222,-821 1991,-821 611,0 1240,279 1869,821 628,559 943,1222 943,1991 0,681 -280,1310 -839,1903 -541,612 -1205,909 -1973,909 -804,0 -1485,-280 -2061,-839 -506,-594 -751,-1257 -751,-1973zm22687 -25464l-123 2829 0 14164c0,1590 524,2934 1625,4052 558,472 1170,873 1816,1205 803,262 1554,402 2235,402l5676 0c1572,0 2900,-524 4000,-1589 1118,-1048 1676,-2410 1676,-4070l0 -11317c0,-1607 -541,-2934 -1606,-4034 -1066,-1083 -2428,-1642 -4070,-1642l-11229 0zm995 -5623l10217 0c3074,0 5711,1117 7964,3300 2235,2183 3353,4856 3353,7999l0 11300c0,3109 -1118,5746 -3318,7964 -2218,2218 -4873,3336 -7999,3336l-5659 0c-3038,0 -5676,-1083 -7929,-3266 -2235,-2183 -3370,-4856 -3370,-8034l0 -14112c0,-5361 1013,-10443 3074,-15264 1379,-3335 3458,-6392 6165,-9134 2724,-2742 5868,-4890 9448,-6444l1205 -280c734,0 1397,280 1991,874 472,628 716,1309 716,2060 0,542 -122,996 -367,1380 -227,384 -681,769 -1362,1170 -751,297 -1432,594 -2043,908 -612,315 -1258,716 -1956,1188 -1153,786 -2341,1746 -3546,2917 -2218,2200 -3912,4733 -5082,7579l-856 2271 -646 2288zm49757 31069c0,891 -262,1607 -803,2148 -507,455 -1170,682 -2009,682 -733,0 -1397,-227 -1973,-699 -559,-472 -839,-1188 -839,-2131l0 -44063 -6479 6479c-576,577 -1222,856 -1956,856 -664,0 -1327,-279 -1956,-856 -594,-594 -908,-1257 -908,-2026 0,-646 297,-1292 856,-1938l11282 -11335c367,-384 768,-681 1170,-925 402,-228 838,-350 1310,-350 471,0 1013,297 1624,856 454,594 681,1397 681,2393l0 50909z"/>
    <path class="fil3" d="M1206619 2168331c0,890 -262,1606 -803,2148 -507,454 -1170,681 -2009,681 -733,0 -1397,-227 -1973,-699 -559,-489 -839,-1187 -839,-2130l0 -48098 -9186 0 -13587 48814c-70,576 -402,1065 -926,1502 -542,401 -1118,611 -1747,611 -838,0 -1519,-227 -2060,-699 -542,-471 -821,-1152 -821,-2008 0,-402 52,-681 139,-856l14147 -50875c402,-1397 1292,-2095 2689,-2095l14147 0c1886,0 2829,925 2829,2812l0 50892zm45111 -8488c0,3109 -1100,5763 -3300,7981 -2201,2218 -4873,3336 -7982,3336l-11299 0c-3074,0 -5729,-1100 -7947,-3301 -2235,-2183 -3353,-4855 -3353,-8016l0 -33917c0,-3143 1100,-5815 3283,-8016 2201,-2183 4873,-3283 8017,-3283l11299 0c3126,0 5799,1100 7999,3301 2183,2218 3283,4872 3283,7998l0 33917zm-5606 35l0 -33969c0,-1607 -541,-2934 -1606,-4034 -1066,-1083 -2428,-1642 -4070,-1642l-11317 0c-1589,0 -2934,541 -4052,1624 -541,541 -943,1153 -1205,1834 -262,698 -401,1432 -401,2218l0 33969c0,1589 524,2934 1606,4052 577,471 1188,873 1834,1205 803,262 1537,401 2218,401l11317 0c1572,0 2899,-524 4017,-1589 1100,-1048 1659,-2410 1659,-4069zm24416 5658l5362 -48429c0,-1659 925,-2480 2811,-2480l16959 0c1886,0 2811,925 2811,2812l0 48097 2865 0c1903,0 2846,943 2846,2812l0 5624c0,768 -296,1432 -873,1991 -559,541 -1222,821 -1938,821 -647,0 -1275,-245 -1887,-699 -628,-472 -925,-1170 -925,-2113l0 -2812 -28345 0 0 2812c0,768 -297,1432 -874,1991 -559,541 -1222,821 -1938,821 -646,0 -1275,-245 -1886,-699 -629,-472 -926,-1170 -926,-2113l0 -5624c0,-1869 926,-2812 2829,-2812l3109 0zm22337 0l0 -45303 -11614 0 -5082 45303 16696 0zm48046 -28851l14618 -20818c209,-332 541,-612 978,-856 419,-262 855,-384 1292,-384 734,0 1415,262 2061,838 594,594 891,1257 891,2008 0,559 -210,1118 -577,1660l-14810 21062 14985 26756c262,541 402,1048 402,1502 0,646 -297,1257 -874,1834 -576,576 -1292,873 -2130,873 -856,0 -1642,-489 -2376,-1467l-14460 -25900 0 24538c0,890 -262,1606 -804,2148 -506,454 -1187,681 -2008,681 -751,0 -1415,-227 -1974,-699 -558,-471 -838,-1187 -838,-2130l0 -24451 -14478 25830c-245,315 -576,664 -1031,1048l-698 280 -734 122c-786,0 -1449,-262 -2026,-786 -593,-524 -873,-1205 -873,-1991 0,-314 122,-786 349,-1432l15020 -26704 -14810 -21114c-210,-262 -402,-821 -559,-1694 0,-717 280,-1380 873,-1957 577,-576 1240,-855 2026,-855 786,0 1555,401 2271,1240l14670 20870 0 -19298c0,-734 280,-1433 838,-2096 559,-472 1223,-716 1974,-716 716,0 1380,227 1938,698 577,472 874,1188 874,2114l0 19246zm64933 31646c0,890 -261,1606 -785,2148 -524,454 -1188,681 -2026,681 -734,0 -1397,-227 -1956,-699 -577,-471 -839,-1187 -839,-2130l0 -39942 -22948 41321c-332,577 -734,1031 -1258,1363l-594 349c-192,87 -489,157 -890,227 -542,-18 -1153,-297 -1852,-856 -489,-576 -733,-1380 -733,-2427l0 -50875c0,-769 279,-1467 838,-2113 559,-489 1223,-734 1974,-734 716,0 1379,245 1938,716 577,472 874,1170 874,2131l0 39942 22931 -41304c279,-454 681,-909 1222,-1363 507,-401 1013,-593 1520,-593 628,0 1205,331 1729,943 576,559 855,1344 855,2340l0 50875zm39593 -25446l0 -22652 -16993 0c-1589,0 -2934,541 -4052,1624 -541,541 -943,1153 -1205,1834 -262,698 -402,1432 -402,2218l0 11317c0,1589 524,2934 1607,4052 576,489 1188,891 1834,1205 803,262 1537,402 2218,402l16993 0zm-9728 5623l-13343 21307c-559,908 -1327,1345 -2253,1345 -733,0 -1397,-297 -1991,-891 -646,-576 -960,-1222 -960,-1973 0,-559 157,-1083 436,-1537l11422 -18251 -559 0c-3056,0 -5728,-1100 -7946,-3283 -2236,-2201 -3353,-4873 -3353,-8016l0 -11300c0,-3126 1100,-5798 3283,-7999 2201,-2183 4873,-3283 8016,-3283l19770 0c1887,0 2812,925 2812,2812l0 50892c0,890 -262,1606 -786,2148 -524,454 -1187,681 -2026,681 -733,0 -1397,-227 -1956,-699 -576,-489 -838,-1187 -838,-2130l0 -19823 -9728 0zm-143630 86992c0,-769 280,-1432 821,-1991 559,-541 1223,-821 1991,-821 611,0 1240,280 1869,821 629,559 943,1222 943,1991 0,681 -279,1310 -838,1904 -542,611 -1205,908 -1974,908 -803,0 -1484,-280 -2061,-839 -506,-593 -751,-1257 -751,-1973zm-33934 -48115l0 17028 8488 0c3843,0 7178,1379 9973,4139 2794,2759 4191,6095 4191,9990l0 5641c0,3859 -1397,7178 -4174,9955 -2759,2777 -6095,4174 -9972,4174l-11300 0c-856,0 -1572,-262 -2096,-804 -489,-559 -733,-1240 -733,-2008 0,-681 244,-1310 733,-1904 524,-594 1205,-908 2096,-908l11335 0c2305,0 4313,-803 5973,-2427 1676,-1625 2515,-3633 2515,-6078l0 -5659c0,-2340 -821,-4331 -2463,-5990 -1624,-1659 -3633,-2498 -6025,-2498l-11335 0c-1886,0 -2829,-925 -2829,-2811l0 -22635c0,-1886 925,-2812 2829,-2812l22617 0c768,0 1449,280 1991,856 559,577 838,1240 838,1956 0,647 -244,1258 -716,1886 -471,612 -1187,909 -2113,909l-19823 0zm67816 48097c0,891 -262,1607 -803,2149 -507,454 -1171,681 -2009,681 -733,0 -1397,-227 -1973,-699 -559,-471 -839,-1187 -839,-2131l0 -44063 -6479 6479c-576,577 -1223,856 -1956,856 -664,0 -1327,-279 -1956,-856 -594,-593 -908,-1257 -908,-2025 0,-647 297,-1293 855,-1939l11283 -11335c366,-384 768,-681 1170,-925 401,-227 838,-350 1310,-350 471,0 1013,297 1624,856 454,594 681,1397 681,2393l0 50909zm28293 -31069c2567,0 4698,-891 6374,-2672 1398,-1642 2114,-3581 2114,-5834 0,-2305 -716,-4243 -2114,-5833 -1537,-1781 -3667,-2689 -6374,-2689 -2480,0 -4593,908 -6357,2689 -1398,1642 -2114,3580 -2114,5833 0,2306 716,4244 2114,5834 1536,1781 3667,2672 6357,2672zm0 5623c-3563,0 -6410,1171 -8523,3511 -1886,2148 -2829,4750 -2829,7824 0,3039 943,5624 2829,7772 2131,2358 4995,3545 8523,3545 3580,0 6427,-1170 8540,-3510 1886,-2131 2829,-4733 2829,-7807 0,-2986 -925,-5589 -2794,-7772 -2131,-2375 -4995,-3563 -8575,-3563zm9343 -3126c2498,1450 4401,3476 5694,6078 1310,2585 1956,5397 1956,8383 0,4436 -1415,8296 -4244,11614 -3126,3545 -7370,5327 -12749,5327 -5327,0 -9553,-1747 -12732,-5257 -2829,-3126 -4244,-7038 -4244,-11684 0,-2986 629,-5781 1886,-8348 1258,-2567 3179,-4628 5764,-6183 -1502,-1275 -2672,-2881 -3511,-4837 -838,-1956 -1257,-3982 -1257,-6078 0,-3772 1187,-7038 3528,-9745 2602,-2934 6130,-4402 10566,-4402 4348,0 7859,1468 10548,4402 2376,2689 3546,5938 3546,9745 0,2096 -384,4122 -1170,6078 -804,1956 -1991,3597 -3581,4907zm-87707 63799l-18268 29131 17534 0c786,0 1432,297 1991,873 559,559 821,1223 821,1939 0,646 -227,1275 -699,1886 -489,629 -1187,926 -2113,926l-22617 0c-2043,0 -3056,-751 -3056,-2253 0,-594 227,-1310 681,-2114l20888 -33305c698,-1467 1030,-2882 1030,-4244 0,-2410 -925,-4506 -2812,-6305 -890,-820 -1938,-1484 -3126,-1973 -1170,-472 -2462,-734 -3824,-734 -1433,0 -2812,385 -4122,1136 -1310,838 -2410,1921 -3266,3231 -210,349 -594,681 -1100,1013l-1258 279c-716,0 -1379,-262 -1991,-786 -611,-524 -908,-1170 -908,-1956 0,-367 175,-926 489,-1607 1292,-2026 3039,-3667 5257,-4960 1083,-611 2166,-1100 3266,-1432 1100,-349 2183,-524 3231,-524 4418,0 8156,1450 11212,4366 3057,2935 4576,6410 4576,10462 0,2323 -594,4628 -1816,6951zm35925 -16173l0 17029 8487 0c3843,0 7178,1379 9973,4139 2794,2759 4191,6095 4191,9989l0 5642c0,3859 -1397,7178 -4174,9954 -2759,2777 -6095,4175 -9972,4175l-11300 0c-856,0 -1572,-262 -2096,-804 -489,-559 -733,-1240 -733,-2008 0,-681 244,-1310 733,-1904 524,-594 1205,-908 2096,-908l11335 0c2305,0 4314,-803 5973,-2428 1676,-1624 2515,-3632 2515,-6077l0 -5659c0,-2340 -821,-4331 -2463,-5990 -1624,-1660 -3633,-2498 -6025,-2498l-11335 0c-1886,0 -2829,-925 -2829,-2812l0 -22634c0,-1886 926,-2812 2829,-2812l22617 0c768,0 1450,280 1991,856 559,576 838,1240 838,1956 0,646 -244,1258 -716,1886 -471,612 -1187,908 -2113,908l-19822 0zm56498 22652l87 -1292 0 -1537 0 -14147c0,-1606 -541,-2934 -1607,-4034 -1065,-1083 -2427,-1642 -4069,-1642l-5676 0c-1607,0 -2951,542 -4052,1625 -541,541 -960,1152 -1222,1833 -262,699 -402,1433 -402,2218l0 11318c0,1589 524,2934 1624,4051 559,489 1188,891 1834,1205 803,262 1554,402 2218,402l11265 0zm-1048 5624l-10217 0c-3039,0 -5676,-1083 -7929,-3266 -2235,-2166 -3371,-4855 -3371,-8034l0 -11300c0,-3108 1101,-5780 3301,-7981 2218,-2200 4873,-3301 7999,-3301l5659 0c3161,0 5833,1101 8016,3301 2183,2218 3301,4873 3301,7999l0 14094c0,5449 -1031,10531 -3074,15264 -1484,3528 -3563,6654 -6252,9379 -2672,2707 -5799,4802 -9379,6252l-1205 245c-646,0 -1275,-297 -1851,-909 -577,-611 -873,-1292 -873,-2043 0,-472 122,-908 384,-1327 227,-437 681,-821 1362,-1136 1432,-576 2742,-1257 3982,-2060 1240,-821 2428,-1817 3563,-3004 2096,-2148 3790,-4698 5082,-7632l768 -2149 734 -2392zm-129169 27419c279,542 402,1013 402,1467 0,716 -315,1345 -908,1887 -594,524 -1310,803 -2079,803 -856,0 -1641,-472 -2375,-1450 -2532,-4698 -4611,-9989 -6235,-15927 -629,-2411 -1153,-5135 -1572,-8156 -436,-3004 -646,-5869 -646,-8593 0,-11439 2812,-22337 8453,-32676 245,-455 594,-821 1048,-1083 402,-192 873,-332 1380,-419 820,0 1519,279 2095,820 559,472 839,1136 839,1974 0,402 -123,873 -402,1415 -629,1100 -1188,2200 -1729,3283 -524,1100 -1013,2235 -1485,3423 -471,1188 -925,2410 -1327,3685 -419,1257 -838,2602 -1240,4034 -1345,5240 -2026,10427 -2026,15544 0,10584 2603,20573 7807,29969zm51154 -7579c0,-769 280,-1432 821,-1991 559,-542 1222,-821 1991,-821 611,0 1240,279 1869,821 628,559 943,1222 943,1991 0,681 -280,1310 -839,1903 -541,612 -1205,909 -1973,909 -803,0 -1485,-280 -2061,-839 -506,-594 -751,-1257 -751,-1973zm101051 10286c-157,350 -489,699 -1013,1048l-681 280 -734 122c-751,0 -1432,-262 -2026,-786 -611,-524 -908,-1188 -908,-1956 0,-402 122,-873 384,-1415 2358,-4331 4297,-9203 5816,-14618 1345,-5221 2009,-10339 2009,-15351 0,-2934 -123,-5571 -419,-7946 -280,-2376 -769,-4856 -1468,-7423l-1100 -3720 -576 -1781 -734 -1904c-855,-2201 -2026,-4593 -3528,-7178l-384 -1502c0,-646 297,-1240 908,-1834 629,-576 1310,-856 2079,-856 925,0 1729,489 2375,1485 1362,2532 2532,5030 3493,7475 943,2445 1869,5274 2759,8435 629,2376 1153,5065 1572,8121 437,3039 646,5921 646,8628 0,3161 -157,6078 -506,8750 -332,2672 -873,5379 -1624,8103 -1293,5484 -3406,10759 -6340,15823z"/>
    <path class="fil3" d="M1253285 1243732l23822 -23613c559,-506 1205,-768 1938,-768 699,0 1345,279 1956,856 612,576 926,1257 926,2043 0,489 -297,1118 -856,1904l-16836 16783 17360 30703 402 1502c0,734 -315,1345 -926,1886 -576,559 -1257,856 -2078,856 -908,0 -1694,-489 -2375,-1484l-16592 -29481 -6741 6619 0 21517c0,891 -262,1607 -804,2148 -506,454 -1187,681 -2008,681 -751,0 -1415,-227 -1974,-698 -558,-489 -838,-1188 -838,-2131l0 -50962c0,-716 280,-1362 873,-1921 559,-559 1223,-821 1939,-821 716,0 1380,209 1974,646 558,472 838,1188 838,2096l0 21639zm67850 9500l-16975 0c-3057,0 -5711,-1100 -7947,-3283 -2235,-2200 -3353,-4873 -3353,-8016l0 -19770c0,-751 279,-1432 838,-2096 559,-472 1223,-716 1974,-716 716,0 1379,227 1938,698 577,472 873,1188 873,2114l0 19805c0,1589 524,2934 1607,4034 577,489 1188,891 1834,1205 803,262 1537,402 2218,402l16993 0 0 -25446c0,-751 262,-1432 839,-2096 558,-472 1222,-716 1956,-716 716,0 1379,227 1956,698 576,472 855,1188 855,2114l0 42404c0,3109 -1100,5763 -3300,7981 -2201,2218 -4856,3336 -7982,3336l-14129 0c-856,0 -1554,-262 -2096,-803 -489,-559 -733,-1240 -733,-2009 0,-681 244,-1310 751,-1903 506,-594 1188,-908 2078,-908l14147 0c1554,0 2899,-524 3999,-1590 1100,-1048 1659,-2410 1659,-4087l0 -11352zm36711 -10740l14566 -21936c244,-367 576,-699 1013,-961l593 -244 681 0c734,0 1415,262 2061,838 594,594 891,1258 891,2026 0,472 -175,996 -489,1572l-15875 23822 15875 23839 367 838 122 769c0,733 -297,1380 -873,1956 -577,576 -1275,873 -2113,873 -891,0 -1642,-419 -2253,-1292l-14566 -21849 -14548 21849c-210,349 -576,681 -1100,995l-1240 297c-594,0 -1240,-297 -1974,-856 -629,-541 -925,-1222 -925,-2008 0,-489 157,-1013 471,-1572l15893 -23839 -15963 -23822 -401 -838 0 -786c0,-716 279,-1380 873,-1956 576,-577 1275,-856 2113,-856 891,0 1642,419 2253,1292l14548 21849zm59345 -507l0 -19822c0,-751 262,-1415 838,-1974 559,-576 1223,-838 1956,-838 716,0 1380,227 1956,698 577,472 856,1188 856,2114l0 50822c0,803 -279,1519 -873,2131 -681,506 -1327,768 -1973,768 -682,0 -1345,-227 -1974,-681 -524,-454 -786,-1170 -786,-2113l0 -25481 -22652 0 0 25446c0,891 -262,1607 -803,2148 -506,454 -1188,681 -2008,681 -751,0 -1415,-227 -1974,-698 -559,-472 -838,-1188 -838,-2131l0 -50857c0,-751 279,-1450 838,-2096 559,-489 1223,-734 1974,-734 716,0 1379,245 1938,716 576,472 873,1171 873,2131l0 19770 22652 0zm45199 5624l0 -22652 -16993 0c-1590,0 -2934,541 -4052,1624 -542,542 -943,1153 -1205,1834 -262,699 -402,1432 -402,2218l0 11317c0,1590 524,2934 1607,4052 576,489 1187,891 1834,1205 803,262 1536,402 2218,402l16993 0zm-9728 5623l-13343 21307c-559,909 -1327,1345 -2253,1345 -734,0 -1397,-297 -1991,-891 -646,-576 -961,-1222 -961,-1973 0,-559 158,-1083 437,-1537l11422 -18251 -559 0c-3056,0 -5728,-1100 -7946,-3283 -2236,-2200 -3354,-4873 -3354,-8016l0 -11300c0,-3126 1101,-5798 3284,-7999 2200,-2183 4872,-3283 8016,-3283l19770 0c1886,0 2812,926 2812,2812l0 50892c0,891 -262,1607 -786,2148 -524,454 -1188,681 -2026,681 -733,0 -1397,-227 -1956,-698 -576,-489 -838,-1188 -838,-2131l0 -19823 -9728 0zm-120245 86992c0,-768 280,-1432 821,-1991 559,-541 1223,-821 1991,-821 611,0 1240,280 1869,821 629,559 943,1223 943,1991 0,681 -279,1310 -838,1904 -542,611 -1205,908 -1974,908 -803,0 -1484,-279 -2061,-838 -506,-594 -751,-1258 -751,-1974zm-16993 -25463l88 -1293 0 -1537 0 -14146c0,-1607 -542,-2934 -1607,-4034 -1066,-1083 -2428,-1642 -4069,-1642l-5676 0c-1607,0 -2952,541 -4052,1624 -542,541 -961,1153 -1223,1834 -262,698 -402,1432 -402,2218l0 11317c0,1589 524,2934 1625,4052 559,489 1187,891 1833,1205 804,262 1555,402 2219,402l11264 0zm-1048 5623l-10216 0c-3039,0 -5677,-1083 -7929,-3266 -2236,-2165 -3371,-4855 -3371,-8033l0 -11300c0,-3109 1100,-5781 3301,-7981 2218,-2201 4872,-3301 7999,-3301l5658 0c3161,0 5833,1100 8016,3301 2183,2218 3301,4872 3301,7998l0 14094c0,5449 -1030,10532 -3074,15265 -1484,3527 -3562,6654 -6252,9378 -2672,2707 -5798,4803 -9378,6252l-1206 245c-646,0 -1274,-297 -1851,-908 -576,-611 -873,-1293 -873,-2044 0,-471 122,-908 384,-1327 227,-437 681,-821 1362,-1135 1433,-576 2742,-1258 3982,-2061 1240,-821 2428,-1816 3563,-3004 2096,-2148 3790,-4698 5082,-7632l769 -2148 733 -2393zm40606 -28275l0 2864c0,891 -262,1607 -804,2166 -506,454 -1187,681 -2008,681 -751,0 -1415,-227 -1974,-699 -558,-489 -838,-1187 -838,-2130l0 -5676c0,-1887 943,-2812 2829,-2812l22635 0c1903,0 2864,768 2864,2322l-175 1206 -14111 50909c-88,559 -402,1048 -943,1485 -542,401 -1118,611 -1729,611 -839,0 -1520,-227 -2061,-699 -542,-489 -804,-1152 -804,-2008 0,-402 35,-681 123,-856l13116 -47364 -16120 0zm59397 34056l5641 0c786,0 1450,297 1991,873 559,577 839,1223 839,1939 0,646 -245,1275 -699,1886 -471,629 -1188,926 -2131,926l-5641 0 0 8435c0,891 -262,1607 -803,2131 -507,454 -1188,681 -2009,681 -751,0 -1414,-227 -1973,-699 -559,-471 -838,-1170 -838,-2113l0 -8435 -16994 0c-1956,0 -2951,-751 -2951,-2288l87 -681 175 -647 11282 -39609c175,-559 489,-1083 978,-1537l524 -280c314,-174 681,-244 1100,-244 821,0 1502,262 2044,803 594,507 890,1170 890,1991l-122 838 -10287 36030 13274 0 0 -8488c0,-751 279,-1449 838,-2096 559,-489 1222,-733 1973,-733 717,0 1380,227 1939,698 576,490 873,1188 873,2131l0 8488z"/>
    <path class="fil3" d="M1465254 433998l-14164 0c-3056,0 -5711,-1100 -7946,-3301 -2236,-2183 -3354,-4855 -3354,-8016l0 -33917c0,-3143 1101,-5815 3284,-8016 2200,-2183 4872,-3283 8016,-3283l14164 0c768,0 1432,279 1991,855 559,577 821,1240 821,1957 0,646 -227,1257 -699,1886 -489,611 -1187,908 -2130,908l-14164 0c-1590,0 -2934,541 -4052,1624 -542,542 -943,1153 -1205,1834 -262,698 -402,1432 -402,2218l0 33969c0,1589 524,2934 1607,4052 576,471 1187,873 1834,1205 803,262 1537,401 2218,401l14164 0c785,0 1449,297 2008,874 559,558 821,1222 821,1938 0,646 -227,1275 -699,1886 -489,629 -1187,926 -2113,926zm50700 -69667l-31087 79168c-192,436 -524,873 -1013,1292l-769 367 -768 157c-803,0 -1502,-262 -2096,-768 -594,-507 -890,-1188 -890,-2009 0,-436 69,-786 209,-1065l31070 -79168c140,-401 471,-820 978,-1275l524 -296c332,-158 663,-245 1048,-245 803,0 1502,262 2095,768 594,507 891,1188 891,2026 0,420 -70,769 -192,1048zm42527 47015l-16976 0c-3056,0 -5711,-1100 -7947,-3283 -2235,-2201 -3353,-4873 -3353,-8016l0 -19770c0,-751 280,-1433 839,-2096 558,-472 1222,-716 1973,-716 716,0 1380,227 1939,698 576,472 873,1188 873,2114l0 19805c0,1589 524,2934 1607,4034 576,489 1187,891 1833,1205 804,262 1537,402 2218,402l16994 0 0 -25446c0,-751 262,-1433 838,-2096 559,-472 1222,-716 1956,-716 716,0 1380,227 1956,698 576,472 856,1188 856,2114l0 42404c0,3109 -1101,5763 -3301,7981 -2201,2218 -4855,3336 -7981,3336l-14129 0c-856,0 -1555,-262 -2096,-803 -489,-559 -734,-1240 -734,-2009 0,-681 245,-1310 751,-1904 507,-593 1188,-908 2079,-908l14146 0c1554,0 2899,-524 3999,-1589 1101,-1048 1660,-2410 1660,-4087l0 -11352zm-104789 38964l-11334 0c-856,0 -1555,-262 -2096,-803 -472,-559 -716,-1240 -716,-2009 0,-663 244,-1310 733,-1903 507,-594 1206,-909 2079,-909l11317 0c4418,0 7946,1432 10583,4314 2358,2707 3546,5938 3546,9728 0,2288 -437,4384 -1345,6305 -891,1903 -2270,3615 -4139,5152 1572,1240 2864,2847 3912,4838 1048,1956 1572,4086 1572,6339l0 5659c0,3860 -1380,7178 -4157,9955 -2759,2777 -6095,4174 -9972,4174l-11317 0c-856,0 -1555,-245 -2096,-751 -472,-629 -716,-1310 -716,-2061 0,-646 227,-1258 699,-1886 471,-612 1187,-926 2130,-926l11335 0c2340,0 4331,-821 5990,-2497 1659,-1642 2480,-3650 2480,-6008l0 -5659c0,-2305 -803,-4314 -2445,-5973 -1624,-1676 -3650,-2515 -6043,-2515l-5658 0c-873,0 -1572,-244 -2113,-751 -489,-628 -734,-1309 -734,-2060 0,-647 227,-1258 716,-1887 472,-611 1170,-925 2131,-925l5658 0c2498,0 4576,-908 6183,-2707 1380,-1607 2061,-3598 2061,-5938 0,-2306 -664,-4209 -1974,-5694 -1502,-1729 -3598,-2602 -6270,-2602zm25656 48028c0,-769 279,-1432 821,-1991 559,-541 1222,-821 1991,-821 611,0 1240,280 1869,821 628,559 943,1222 943,1991 0,681 -280,1310 -839,1904 -541,611 -1205,908 -1973,908 -804,0 -1485,-280 -2061,-839 -507,-593 -751,-1257 -751,-1973zm22564 -48115l0 2864c0,891 -262,1607 -803,2166 -506,454 -1188,681 -2008,681 -751,0 -1415,-227 -1974,-699 -559,-489 -838,-1188 -838,-2131l0 -5676c0,-1886 943,-2811 2829,-2811l22634 0c1904,0 2865,768 2865,2322l-175 1205 -14112 50910c-87,559 -401,1048 -943,1484 -541,402 -1117,612 -1729,612 -838,0 -1519,-227 -2061,-699 -541,-489 -803,-1152 -803,-2008 0,-402 35,-681 122,-856l13116 -47364 -16120 0zm47836 87l-11334 0c-856,0 -1555,-262 -2096,-803 -472,-559 -716,-1240 -716,-2009 0,-663 244,-1310 733,-1903 507,-594 1205,-909 2079,-909l11317 0c4418,0 7946,1432 10583,4314 2358,2707 3546,5938 3546,9728 0,2288 -437,4384 -1345,6305 -891,1903 -2270,3615 -4139,5152 1572,1240 2864,2847 3912,4838 1048,1956 1572,4086 1572,6339l0 5659c0,3860 -1380,7178 -4157,9955 -2759,2777 -6095,4174 -9972,4174l-11317 0c-856,0 -1555,-245 -2096,-751 -472,-629 -716,-1310 -716,-2061 0,-646 227,-1258 698,-1886 472,-612 1188,-926 2131,-926l11335 0c2340,0 4331,-821 5990,-2497 1659,-1642 2480,-3650 2480,-6008l0 -5659c0,-2305 -803,-4314 -2445,-5973 -1624,-1676 -3650,-2515 -6043,-2515l-5658 0c-874,0 -1572,-244 -2114,-751 -489,-628 -733,-1309 -733,-2060 0,-647 227,-1258 716,-1887 472,-611 1170,-925 2131,-925l5658 0c2498,0 4576,-908 6183,-2707 1379,-1607 2061,-3598 2061,-5938 0,-2306 -664,-4209 -1974,-5694 -1502,-1729 -3598,-2602 -6270,-2602z"/>
    <path class="fil3" d="M1184299 548339c891,0 1607,262 2148,786 454,524 682,1188 682,2026 0,734 -228,1397 -699,1956 -489,577 -1188,839 -2131,839l-48098 0 0 22651 48098 0c891,0 1607,262 2148,804 454,506 682,1187 682,2008 0,751 -228,1415 -699,1974 -472,558 -1188,838 -2131,838l-50892 0c-1886,0 -2812,-926 -2812,-2829l0 -28241c0,-1886 926,-2812 2812,-2812l50892 0zm-25446 -16940l0 -16976c0,-1572 -524,-2899 -1572,-4017 -1048,-1100 -2410,-1659 -4086,-1659l-11318 0c-1606,0 -2934,541 -4034,1607 -1083,1065 -1642,2427 -1642,4069l0 16976 22652 0zm5624 0l19822 0c891,0 1607,262 2148,803 454,506 682,1188 682,2008 0,751 -228,1415 -699,1974 -472,559 -1188,838 -2131,838l-50892 0c-1886,0 -2812,-925 -2812,-2829l0 -19770c0,-3126 1101,-5798 3301,-7999 2201,-2183 4873,-3283 7981,-3283l11300 0c3109,0 5746,1100 7964,3301 2218,2218 3336,4872 3336,7998l0 16959zm19822 -73457c891,0 1607,262 2148,786 454,524 682,1188 682,2026 0,733 -228,1397 -699,1956 -472,576 -1188,838 -2131,838l-39942 0 41322 22949c576,332 1030,733 1362,1257l349 594c88,192 158,489 228,891 -18,541 -297,1153 -856,1851 -577,489 -1380,734 -2428,734l-50875 0c-768,0 -1467,-280 -2113,-839 -489,-559 -733,-1222 -733,-1973 0,-716 244,-1380 716,-1939 471,-576 1170,-873 2130,-873l39942 0 -41304 -22931c-454,-280 -908,-681 -1362,-1223 -402,-506 -594,-1013 -594,-1519 0,-629 332,-1205 943,-1729 559,-576 1345,-856 2341,-856l50874 0zm-30563 -31105l-21936 -14565c-366,-245 -698,-576 -960,-1013l-245 -594 0 -681c0,-734 262,-1415 839,-2061 593,-594 1257,-891 2025,-891 472,0 996,175 1572,489l23822 15876 23839 -15876 839 -366 768 -123c734,0 1380,297 1956,874 577,576 874,1275 874,2113 0,891 -420,1642 -1293,2253l-21848 14565 21848 14549c349,209 681,576 996,1100l297 1240c0,594 -297,1240 -856,1973 -542,629 -1223,926 -2009,926 -489,0 -1013,-157 -1572,-472l-23839 -15892 -23822 15962 -838 402 -786 0c-716,0 -1380,-279 -1956,-873 -576,-577 -856,-1275 -856,-2114 0,-890 419,-1641 1293,-2252l21848 -14549zm22075 -62087c3109,0 5764,1101 7982,3301 2218,2201 3336,4873 3336,7982l0 11299c0,3074 -1101,5729 -3301,7947 -2183,2235 -4856,3353 -8017,3353l-33916 0c-3144,0 -5816,-1100 -8016,-3283 -2183,-2201 -3284,-4873 -3284,-8017l0 -11299c0,-3127 1101,-5799 3301,-7999 2218,-2183 4873,-3284 7999,-3284l33916 0zm35 5607l-33969 0c-1606,0 -2934,541 -4034,1606 -1083,1066 -1642,2428 -1642,4070l0 11317c0,1589 542,2934 1625,4052 541,541 1152,943 1833,1205 699,262 1433,401 2218,401l33969 0c1590,0 2934,-524 4052,-1606 472,-577 873,-1188 1205,-1834 262,-804 402,-1537 402,-2218l0 -11317c0,-1572 -524,-2900 -1589,-4017 -1048,-1101 -2411,-1659 -4070,-1659zm-23193 -44046l-20818 -14618c-332,-210 -611,-542 -856,-978 -261,-420 -384,-856 -384,-1293 0,-733 262,-1414 839,-2061 593,-593 1257,-890 2008,-890 559,0 1118,209 1659,576l21063 14810 26756 -14985c541,-262 1047,-401 1501,-401 647,0 1258,297 1834,873 577,576 874,1292 874,2131 0,855 -490,1641 -1468,2375l-25900 14461 24538 0c891,0 1607,262 2148,803 454,506 682,1188 682,2008 0,751 -228,1415 -699,1974 -472,559 -1188,838 -2131,838l-24450 0 25830 14478c314,245 664,577 1048,1031l279 698 123 734c0,786 -262,1450 -786,2026 -524,594 -1205,873 -1991,873 -315,0 -786,-122 -1432,-349l-26704 -15020 -21115 14810c-262,210 -821,402 -1694,559 -716,0 -1380,-279 -1956,-873 -576,-576 -856,-1240 -856,-2026 0,-786 402,-1554 1240,-2270l20871 -14671 -19299 0c-733,0 -1432,-279 -2096,-838 -471,-559 -716,-1223 -716,-1974 0,-716 227,-1379 699,-1938 471,-577 1187,-873 2113,-873l19246 0zm20347 -40973l12190 4087c594,210 1065,559 1449,1048 245,367 402,891 490,1519 0,769 -280,1415 -821,1991 -472,612 -1118,926 -1921,926l-1013 -192 -50858 -17011c-1606,-559 -2427,-1449 -2427,-2654 0,-1205 821,-2096 2427,-2655l50858 -16923 1013 -210c733,0 1379,315 1973,943 507,594 769,1258 769,1974 0,384 -105,786 -297,1275 -175,471 -716,908 -1642,1310l-12190 4069 0 20503zm-5799 -18617l-24869 8331 24869 8348 0 -16679zm-8348 -50595l-22652 0 0 16993c0,1589 542,2934 1625,4052 541,541 1152,943 1833,1205 699,262 1433,401 2218,401l11318 0c1589,0 2934,-523 4051,-1606 489,-577 891,-1188 1205,-1834 262,-803 402,-1537 402,-2218l0 -16993zm5624 9728l21307 13343c908,558 1345,1327 1345,2253 0,733 -297,1397 -891,1991 -577,646 -1223,960 -1974,960 -559,0 -1083,-157 -1537,-437l-18250 -11421 0 558c0,3057 -1100,5729 -3284,7947 -2200,2235 -4872,3353 -8016,3353l-11300 0c-3126,0 -5798,-1100 -7998,-3283 -2183,-2201 -3284,-4873 -3284,-8017l0 -19770c0,-1886 926,-2811 2812,-2811l50892 0c891,0 1607,262 2148,785 454,524 682,1188 682,2026 0,734 -228,1398 -699,1956 -489,577 -1188,839 -2131,839l-19822 0 0 9728zm86991 187448c-768,0 -1432,-279 -1990,-821 -542,-558 -821,-1222 -821,-1991 0,-611 279,-1240 821,-1868 558,-629 1222,-943 1990,-943 682,0 1310,279 1904,838 611,541 908,1205 908,1973 0,804 -279,1485 -838,2061 -594,507 -1257,751 -1974,751zm-48027 25656l0 11335c0,855 -262,1554 -804,2095 -559,472 -1240,716 -2008,716 -664,0 -1310,-244 -1904,-733 -594,-507 -908,-1205 -908,-2078l0 -11318c0,-4418 1432,-7946 4314,-10583 2707,-2358 5938,-3546 9728,-3546 2287,0 4383,437 6304,1345 1904,891 3615,2271 5152,4139 1240,-1571 2847,-2864 4838,-3912 1956,-1048 4087,-1572 6340,-1572l5658 0c3860,0 7178,1380 9955,4157 2777,2759 4174,6095 4174,9972l0 11318c0,855 -244,1554 -751,2095 -628,472 -1310,716 -2061,716 -646,0 -1257,-227 -1886,-698 -611,-472 -925,-1188 -925,-2131l0 -11335c0,-2340 -821,-4331 -2498,-5990 -1641,-1659 -3650,-2480 -6008,-2480l-5658 0c-2306,0 -4314,803 -5973,2445 -1677,1624 -2515,3650 -2515,6043l0 5659c0,873 -245,1571 -751,2113 -629,489 -1310,733 -2061,733 -646,0 -1257,-227 -1886,-716 -611,-471 -926,-1170 -926,-2130l0 -5659c0,-2498 -908,-4576 -2707,-6183 -1606,-1379 -3597,-2060 -5938,-2060 -2305,0 -4209,663 -5693,1973 -1729,1502 -2602,3598 -2602,6270zm48010 -59537c891,0 1607,262 2148,803 454,507 681,1170 681,2009 0,733 -227,1397 -698,1973 -472,559 -1188,838 -2131,838l-44063 0 6479 6480c576,576 856,1222 856,1956 0,664 -280,1327 -856,1956 -594,594 -1257,908 -2026,908 -646,0 -1292,-297 -1939,-856l-11334 -11282c-384,-367 -681,-768 -926,-1170 -227,-402 -349,-838 -349,-1310 0,-471 297,-1013 856,-1624 594,-454 1397,-681 2392,-681l50910 0zm-25446 -17063l2829 122 14164 0c1589,0 2934,-524 4052,-1624 471,-559 873,-1170 1205,-1817 262,-803 402,-1554 402,-2235l0 -5676c0,-1572 -524,-2899 -1590,-3999 -1047,-1118 -2410,-1677 -4069,-1677l-11317 0c-1607,0 -2934,541 -4034,1607 -1083,1065 -1642,2427 -1642,4069l0 11230zm-5624 -996l0 -10217c0,-3073 1118,-5711 3301,-7964 2183,-2235 4855,-3353 7999,-3353l11300 0c3108,0 5746,1118 7964,3319 2218,2218 3335,4872 3335,7998l0 5659c0,3039 -1083,5676 -3266,7929 -2183,2235 -4855,3371 -8033,3371l-14112 0c-5362,0 -10444,-1013 -15264,-3074 -3336,-1380 -6392,-3458 -9134,-6165 -2742,-2725 -4890,-5868 -6445,-9449l-279 -1205c0,-733 279,-1397 873,-1991 629,-471 1310,-716 2061,-716 542,0 996,123 1380,367 384,227 768,681 1170,1362 297,751 594,1432 908,2044 315,611 716,1257 1188,1956 786,1152 1746,2340 2916,3545 2201,2218 4733,3912 7580,5082l2270 856 2288 646z"/>
   </g>
   <g>
    <path class="fil3" d="M1498943 109154l102780 0 0 40536c0,2166 -891,4139 -2305,5554 -1432,1432 -3388,2305 -5554,2305l-88825 0c-2411,0 -4611,-978 -6200,-2567 -1572,-1589 -2568,-3773 -2568,-6183l0 -39645 2672 0zm97419 5345l-94729 0 0 34300c0,926 384,1782 995,2393 612,629 1467,1013 2411,1013l88825 0c681,0 1310,-297 1764,-751 454,-437 734,-1083 734,-1764l0 -35191z"/>
    <path class="fil3" d="M1505039 152205l92772 0 0 105487c0,13116 -5362,25044 -14024,33689 -8663,8663 -20591,14024 -33707,14024 -13116,0 -25044,-5361 -33689,-14006 -8663,-8663 -14025,-20591 -14025,-33707l0 -105487 2673 0zm87410 5344l-84738 0 0 100143c0,11649 4768,22250 12435,29917 7684,7684 18285,12452 29934,12452 11666,0 22250,-4768 29935,-12435 7667,-7684 12434,-18285 12434,-29934l0 -100143z"/>
    <path class="fil3" d="M1514033 165216l72845 0c2760,19124 10933,75675 10933,92476 0,13116 -5379,25062 -14024,33707 -8645,8645 -20573,14006 -33707,14006 -13116,0 -25062,-5361 -33707,-14006 -8645,-8663 -14007,-20591 -14007,-33707 0,-18897 6777,-71798 9292,-92476l2375 0zm68217 5362l-65859 0 -8680 87253c35,11597 4802,22146 12435,29778 7701,7684 18285,12452 29934,12452 11649,0 22250,-4768 29917,-12452 7650,-7650 12417,-18181 12452,-29778l-10199 -87253z"/>
    <path class="fil3" d="M1549678 124785c2480,0 4751,1013 6375,2638 1624,1641 2637,3894 2637,6392 0,2480 -1013,4733 -2637,6374 -1624,1624 -3895,2637 -6375,2637 -2497,0 -4750,-1013 -6374,-2637 -1642,-1641 -2655,-3894 -2655,-6374 0,-2498 1013,-4751 2655,-6392 1624,-1625 3894,-2638 6374,-2638z"/>
   </g>
   <g>
    <path class="fil3" d="M1870383 110255l-178664 0 0 128872 181598 0 0 -128872 -2934 0zm-172814 5868l169897 0 0 117153 -169897 0 0 -117153z"/>
    <path class="fil3" d="M1870383 210939l-178664 0 0 28188 181598 0 0 -28188 -2934 0zm-172814 5868l169897 0 0 16469 -169897 0 0 -16469z"/>
    <path class="fil3" d="M1782518 119494c-12348,0 -23525,5012 -31629,13116 -8103,8103 -13116,19298 -13116,31628 0,12348 5013,23525 13099,31629 8121,8121 19298,13116 31646,13116 12347,0 23525,-4995 31628,-13099 8104,-8121 13116,-19298 13116,-31646 0,-12330 -5012,-23525 -13098,-31628 -8121,-8104 -19299,-13116 -31646,-13116zm-27507 17255c7038,-7039 16766,-11387 27507,-11387 10741,0 20468,4348 27507,11369 7038,7038 11387,16766 11387,27507 0,10741 -4349,20469 -11387,27507 -7039,7038 -16766,11387 -27507,11387 -10741,0 -20469,-4349 -27490,-11387 -7055,-7038 -11404,-16766 -11404,-27507 0,-10741 4349,-20469 11387,-27489z"/>
    <path class="fil3" d="M1782518 135561c-7912,0 -15090,3214 -20277,8401 -5187,5187 -8400,12365 -8400,20276 0,7912 3213,15090 8400,20277 5187,5204 12365,8400 20277,8400 7911,0 15089,-3196 20276,-8400 5187,-5187 8401,-12365 8401,-20277 0,-7911 -3214,-15089 -8401,-20276 -5187,-5187 -12365,-8401 -20276,-8401zm-16138 12540c4122,-4122 9833,-6672 16138,-6672 6305,0 12016,2550 16137,6672 4122,4139 6689,9850 6689,16137 0,6305 -2567,12016 -6689,16137 -4121,4140 -9832,6689 -16137,6689 -6305,0 -12016,-2549 -16138,-6689 -4121,-4121 -6689,-9832 -6689,-16137 0,-6287 2568,-11998 6689,-16137z"/>
    <path class="fil1" d="M1855276 218274c-3336,0 -6043,2707 -6043,6043 0,3335 2707,6025 6043,6025 3336,0 6025,-2690 6025,-6025 0,-3336 -2689,-6043 -6025,-6043z"/>
    <path class="fil1" d="M1707158 218274c-3336,0 -6026,2707 -6026,6043 0,3335 2690,6025 6026,6025 3335,0 6042,-2690 6042,-6025 0,-3336 -2707,-6043 -6042,-6043z"/>
    <path class="fil1" d="M1726736 218274c-3336,0 -6043,2707 -6043,6043 0,3335 2707,6025 6043,6025 3335,0 6025,-2690 6025,-6025 0,-3336 -2690,-6043 -6025,-6043z"/>
   </g>
   <g>
    <path class="fil3" d="M1430202 791029l0 -207970 445211 0 0 210887 -445211 0 0 -2917zm5851 -202102l0 199168 433509 0 0 -199168 -433509 0z"/>
    <path class="fil3" d="M1444943 688511c0,-24957 10199,-47626 26633,-64060 16434,-16452 39121,-26652 64078,-26652l289216 0c9850,0 18809,4035 25289,10514 6479,6480 10513,15439 10513,25289l0 109818c0,9833 -4034,18792 -10513,25289 -6480,6479 -15439,10496 -25289,10496l-289216 0c-24957,0 -47644,-10199 -64078,-26633 -16434,-16435 -26633,-39121 -26633,-64061zm30790 -59921c-15387,15369 -24940,36588 -24940,59921 0,23333 9553,44535 24940,59922 15369,15368 36588,24922 59921,24922l289216 0c8243,0 15718,-3371 21150,-8803 5431,-5414 8802,-12906 8802,-21132l0 -109818c0,-8226 -3371,-15718 -8802,-21150 -5432,-5414 -12907,-8784 -21150,-8784l-289216 0c-23333,0 -44552,9535 -59921,24922z"/>
    <path class="fil1" d="M1794551 688511c0,-6584 5327,-11928 11911,-11928 6584,0 11928,5344 11928,11928 0,6584 -5344,11911 -11928,11911 -6584,0 -11911,-5327 -11911,-11911zm4646 0c0,-4017 3248,-7265 7265,-7265 4017,0 7265,3248 7265,7265 0,4017 -3248,7265 -7265,7265 -4017,0 -7265,-3248 -7265,-7265z"/>
   </g>
   <g>
    <path class="fil3" d="M1751256 510703l0 -29306c0,-16906 6916,-32275 18076,-43435 11142,-11142 26511,-18058 43435,-18058l45233 0c4471,0 8541,1834 11492,4785 2952,2934 4785,7004 4785,11492l0 119756c0,4471 -1833,8540 -4785,11474 -2934,2969 -7021,4803 -11492,4803l-45233 0c-16906,0 -32293,-6934 -43435,-18076 -11160,-11143 -18076,-26512 -18076,-43435zm5851 -29306l0 29306c0,15299 6270,29218 16364,39296 10077,10094 23997,16347 39296,16347l45233 0c2865,0 5467,-1171 7353,-3057 1886,-1886 3056,-4488 3056,-7352l0 -119756c0,-2864 -1170,-5484 -3056,-7370 -1886,-1886 -4488,-3056 -7353,-3056l-45233 0c-15299,0 -29219,6269 -39296,16347 -10094,10077 -16364,23996 -16364,39295z"/>
    <path class="fil3" d="M1768773 510703c0,12068 4960,23071 12941,31052 7982,7964 18985,12924 31053,12924l17622 0 0 -117258 -17622 0c-12086,0 -23071,4960 -31053,12941 -7981,7964 -12941,18967 -12941,31035l0 29306zm8802 35191c-9029,-9046 -14653,-21499 -14653,-35191l0 -29306c0,-13675 5624,-26144 14653,-35191 9030,-9029 21499,-14636 35192,-14636l18862 0c1275,0 2427,524 3248,1345 838,838 1362,1991 1362,3266l0 119756c0,1240 -524,2392 -1362,3231 -856,838 -2008,1379 -3248,1379l-18862 0c-13693,0 -26162,-5623 -35192,-14653z"/>
    <path class="fil1" d="M1841129 491073c1782,-3354 5310,-5641 9379,-5641 5868,0 10636,4750 10636,10618 0,5868 -4768,10619 -10636,10619 -4069,0 -7597,-2288 -9379,-5641l-25027 0 0 -9955 25027 0z"/>
    <path class="fil1" d="M1780195 496050c0,-6584 5327,-11911 11911,-11911 6584,0 11928,5327 11928,11911 0,6584 -5344,11911 -11928,11911 -6584,0 -11911,-5327 -11911,-11911zm4646 0c0,-4017 3248,-7265 7265,-7265 4017,0 7265,3248 7265,7265 0,4017 -3248,7265 -7265,7265 -4017,0 -7265,-3248 -7265,-7265z"/>
   </g>
   <g>
    <path class="fil3" d="M1709498 1170712l0 -118411c0,-4663 1921,-8890 4977,-11963 3074,-3074 7318,-4978 11981,-4978l118411 0c4663,0 8907,1904 11963,4978 3074,3056 4978,7300 4978,11963l0 118411c0,4663 -1904,8907 -4978,11980 -3056,3074 -7300,4978 -11963,4978l-118411 0c-4663,0 -8907,-1904 -11981,-4978 -3056,-3091 -4977,-7317 -4977,-11980zm5868 -118411l0 118411c0,3056 1240,5833 3248,7841 2009,2009 4786,3249 7842,3249l118411 0c3039,0 5816,-1240 7824,-3249 2008,-2008 3266,-4785 3266,-7841l0 -118411c0,-3039 -1258,-5816 -3266,-7824 -2008,-2009 -4785,-3266 -7824,-3266l-118411 0c-3056,0 -5833,1257 -7842,3266 -2008,1991 -3248,4768 -3248,7824z"/>
    <path class="fil3" d="M1721007 1158120l0 -93227c0,-4960 2026,-9466 5292,-12732 3266,-3283 7789,-5309 12749,-5309l63938 0c4943,0 9466,2026 12732,5309 3266,3266 5310,7772 5310,12732l0 93227c0,4960 -2044,9483 -5310,12749 -3266,3266 -7772,5292 -12732,5292l-63938 0c-4977,0 -9483,-2026 -12749,-5292 -3266,-3283 -5292,-7789 -5292,-12749zm5851 -93227l0 93227c0,3353 1362,6409 3580,8610 2201,2200 5257,3580 8610,3580l63938 0c3336,0 6393,-1380 8593,-3580 2218,-2218 3580,-5257 3580,-8610l0 -93227c0,-3336 -1362,-6392 -3580,-8593 -2218,-2218 -5257,-3597 -8593,-3597l-63938 0c-3353,0 -6392,1379 -8610,3597 -2200,2201 -3580,5257 -3580,8593z"/>
    <path class="fil1" d="M1827734 1106546c1781,-3370 5309,-5658 9379,-5658 5868,0 10618,4750 10618,10618 0,5868 -4750,10619 -10618,10619 -4070,0 -7598,-2288 -9379,-5641l-25027 0 0 -9938 25027 0z"/>
    <path class="fil1" d="M1753963 1111506c0,-6584 5327,-11911 11911,-11911 6584,0 11911,5327 11911,11911 0,6585 -5327,11929 -11911,11929 -6584,0 -11911,-5344 -11911,-11929zm4646 0c0,-4017 3248,-7265 7265,-7265 4017,0 7265,3248 7265,7265 0,4017 -3248,7266 -7265,7266 -4017,0 -7265,-3249 -7265,-7266z"/>
   </g>
   <g>
    <path class="fil3" d="M1694670 1436786l0 -111459c0,-6008 2463,-11475 6410,-15422 3947,-3947 9413,-6409 15421,-6409l159767 0 0 152310 -162596 0c-5222,0 -9990,-2149 -13430,-5589 -3441,-3441 -5572,-8191 -5572,-13431zm5851 -111459l0 111459c0,3616 1485,6917 3877,9292 2375,2375 5659,3859 9274,3859l156746 0 0 -140590 -153917 0c-4383,0 -8383,1816 -11282,4698 -2899,2899 -4698,6898 -4698,11282z"/>
    <polygon class="fil3" points="1715820,1452871 1715820,1306430 1721671,1306430 1721671,1452871 "/>
    <path class="fil1" d="M1735084 1414571c0,-12906 10461,-23367 23367,-23367 12907,0 23368,10461 23368,23367 0,12907 -10461,23368 -23368,23368 -12906,0 -23367,-10461 -23367,-23368z"/>
    <path class="fil1" d="M1742349 1349236c0,-8890 7213,-16103 16102,-16103 8890,0 16103,7213 16103,16103 0,8907 -7213,16120 -16103,16120 -8889,0 -16102,-7213 -16102,-16120z"/>
    <path class="fil1" d="M1807440 1349236c0,12906 10479,23368 23385,23368 12907,0 23368,-10462 23368,-23368 0,-12906 -10461,-23368 -23368,-23368 -12906,0 -23385,10462 -23385,23368z"/>
    <path class="fil1" d="M1814705 1414571c0,8890 7213,16103 16120,16103 8890,0 16103,-7213 16103,-16103 0,-8907 -7213,-16120 -16103,-16120 -8907,0 -16120,7213 -16120,16120z"/>
   </g>
  </g>
 </g>
</svg>
