<?xml version="1.0" encoding="UTF-8"?>
<!DOCTYPE svg PUBLIC "-//W3C//DTD SVG 1.0//EN" "http://www.w3.org/TR/2001/REC-SVG-20010904/DTD/svg10.dtd">
<!-- Creator: CorelDRAW X7 -->
<svg xmlns="http://www.w3.org/2000/svg" xml:space="preserve" width="132px" height="168px" version="1.0" style="shape-rendering:geometricPrecision; text-rendering:geometricPrecision; image-rendering:optimizeQuality; fill-rule:evenodd; clip-rule:evenodd"
viewBox="0 0 51136350 65279208"
 xmlns:xlink="http://www.w3.org/1999/xlink">
 <defs>
  <style type="text/css">
   <![CDATA[
    .fil1 {fill:#5B5B5B}
    .fil0 {fill:#FCD38E}
    .fil3 {fill:#FEFEFE}
    .fil2 {fill:#5B5B5B;fill-rule:nonzero}
    .fil4 {fill:#FEFEFE;fill-rule:nonzero}
   ]]>
  </style>
 </defs>
 <g id="Слой_x0020_1">
  <metadata id="CorelCorpID_0Corel-Layer"/>
  <g id="_1004558752">
   <g>
    <polygon class="fil0" points="0,49807174 0,48761084 0,9454724 0,8219145 1907278,8219145 24783608,8219145 24783608,2912993 24783608,1177769 25246090,1177769 26027445,1177769 49229072,1177769 50111825,1177769 51136350,1177769 51136350,21322795 37929927,21322795 37929927,26305944 51136350,26305944 51136350,48761084 51136350,49807174 51136350,52608217 49210719,52608217 49210719,63122795 49210719,63122795 49210719,63626111 49210719,63626111 49210719,64051887 49210719,64051887 49210719,64356079 49210719,64356079 48089385,64356079 21985318,64356079 21492096,64356079 20863983,64356079 20863983,52608217 18950282,52608217 18950282,48761084 4851011,48761084 4851011,52608217 0,52608217 "/>
    <path class="fil1" d="M0 49807174l0 -1046090 0 -39306360 0 -1235579 1907278 0 22876330 0 0 -5306152 0 -1735224 462482 0 781355 0 2833619 0 0 106444 282169 0 5777810 -1284213 32575 150490 -5805797 1290177 0 417060 -286757 0 0 1055266 -2833619 0 0 5306152 0 1235579 0 5053806 -122044 0 0 370260 -417059 0 -1290177 5036372 -150490 -32117 1284212 -5008384 0 -366131 -85797 0 0 -5053806 -462482 0 -22876330 0 0 39306360 4066903 0 242712 0 11711157 0 427612 0 6890428 0 0 -27050594 0 -733180 85797 0 0 -437706 573514 0 0 437706 122044 0 3574599 0 0 60563 211512 0 0 573514 -211512 0 0 99103 -3574599 0 0 27050594 5324046 0 0 1645756 679500 0 0 51387 5995286 -952033 23859 151408 -6019145 956162 0 539104 6207716 0 0 -746028 6295349 0 0 -1645756 4695016 0 0 -21971094 -1017643 0 -1088301 0 -2816183 0 -2954745 0 -2954286 0 -932763 0 0 -898353 0 -2161460 0 -898352 0 -1121335 -1451220 0 0 -99103 -386319 0 0 -417060 -5190073 -1290177 32576 -150490 5162085 1284213 381731 0 0 -191325 0 -7190948 197748 0 0 -234453 573514 0 0 234453 334473 0 0 7190948 345485 0 932763 0 2954286 0 2954745 0 2816183 0 1088301 0 1017643 0 0 -17933555 -12109406 0 0 5839749 -334473 0 0 315663 -417060 0 -1290177 3728300 -150490 -32117 1284213 -3700313 0 -311533 -197748 0 0 -6762878 0 -132137 -436329 0 0 -573514 436329 0 0 -161961 0 55517 13215141 0 882753 0 1024525 0 0 47583315 0 1046090 0 2801043 -1925631 0 0 11438165 0 0 0 503316 0 0 0 425318 0 0 0 304192 0 0 -1121334 0 -26104067 0 -493222 0 -628113 0 0 -12670991 -2508321 0 -427612 0 -11711157 0 -242712 0 -5974181 0 0 -2801043zm48089385 2801043l-3555329 0 0 -1202544 -6295349 0 -6207716 0 -679500 0 0 1202544 -9366173 0 0 11438165 26104067 0 0 -11438165zm-26104067 11941481l26104067 0 0 425318 -26104067 0 0 -425318zm-15768425 -15637206l0 1542982 11711157 0 0 -1542982 -11711157 0zm0 2005464l0 1538853 11711157 0 0 -1538853 -11711157 0zm40329968 -29207466l-1653097 157831 -586819 740063 0 -897894 2239916 0zm-2239916 1115370l686840 -866694 2129343 -204171 0 1076830 -2816183 0 0 -5965zm-3563129 -1115370l-1653555 157831 -692347 873118 0 -1030949 2345902 0zm-2245422 1121335l692346 -872659 2161460 -207383 0 1080042 -2853806 0zm7850261 898352l-1469573 219312 -572137 1126382 0 -1345694 2041710 0zm-2041710 1684755l672617 -1323670 2143566 -321168 0 2121543 -2816183 0 0 -476705zm-3603963 -1684755l-1469113 219312 -835955 1643921 0 -1863233 2305068 0zm-2284421 2161460l915328 -1800375 2018311 -302357 0 2102732 -2933639 0zm9792868 -4181147l0 4181147 1017643 0 0 -4181147 -1017643 0z"/>
   </g>
   <g>
    <polygon class="fil2" points="25093764,13523003 11750156,13523003 11750156,13677164 25093764,13677164 "/>
    <polygon class="fil2" points="12678332,13222941 2305068,13222941 2305068,13376642 12678332,13376642 "/>
    <polygon class="fil2" points="25007049,11041293 2492722,11041293 2492722,11194995 25007049,11194995 "/>
    <polygon class="fil2" points="2721210,9628613 2721210,13013264 2894640,13013264 2894640,9628613 "/>
    <polygon class="fil2" points="3178186,9628613 3178186,13013264 3351616,13013264 3351616,9628613 "/>
    <polygon class="fil2" points="3817769,9628613 3817769,13013264 3991199,13013264 3991199,9628613 "/>
    <polygon class="fil2" points="5920042,9628613 5920042,13013264 6093472,13013264 6093472,9628613 "/>
    <polygon class="fil2" points="6422440,9628613 6422440,13013264 6595871,13013264 6595871,9628613 "/>
    <polygon class="fil2" points="8159041,9703858 6798665,12888926 6961543,12938019 8321919,9752492 "/>
    <polygon class="fil2" points="8616017,9703858 7255641,12888926 7418519,12938019 8778895,9752492 "/>
    <polygon class="fil2" points="8959208,9639625 9278540,13013723 9451512,13002252 9132179,9628154 "/>
    <polygon class="fil2" points="10695808,9639625 11015141,13013723 11188113,13002252 10868321,9628154 "/>
    <polygon class="fil2" points="11449176,9628613 11449176,13013264 11622607,13013264 11622607,9628613 "/>
    <polygon class="fil2" points="12088759,9628613 12088759,13013264 12262190,13013264 12262190,9628613 "/>
    <polygon class="fil2" points="12399374,9628613 12399374,13013264 12572805,13013264 12572805,9628613 "/>
    <polygon class="fil2" points="12856350,9628613 12856350,13013264 13029781,13013264 13029781,9628613 "/>
    <polygon class="fil2" points="13496392,9628613 13496392,13013264 13669823,13013264 13669823,9628613 "/>
    <polygon class="fil2" points="15598206,9628613 15598206,13013264 15771637,13013264 15771637,9628613 "/>
    <polygon class="fil2" points="16101064,9628613 16101064,13013264 16274494,13013264 16274494,9628613 "/>
    <polygon class="fil2" points="17837664,9703858 16477289,12888926 16639708,12938019 18000083,9752492 "/>
    <polygon class="fil2" points="18294640,9703858 16934265,12888926 17096684,12938019 18457059,9752492 "/>
    <polygon class="fil2" points="18637831,9639625 18957164,13013723 19129677,13002252 18810344,9628154 "/>
    <polygon class="fil2" points="20374432,9639625 20693764,13013723 20866277,13002252 20546945,9628154 "/>
    <polygon class="fil2" points="21127800,9628613 21127800,13013264 21301230,13013264 21301230,9628613 "/>
    <polygon class="fil2" points="21767383,9628613 21767383,13013264 21940813,13013264 21940813,9628613 "/>
    <polygon class="fil2" points="22211512,9639625 22530845,13013723 22703358,13002252 22384025,9628154 "/>
    <polygon class="fil2" points="22964880,9628613 22964880,13013264 23138311,13013264 23138311,9628613 "/>
    <polygon class="fil2" points="23604463,9628613 23604463,13013264 23777894,13013264 23777894,9628613 "/>
   </g>
   <g>
    <polygon class="fil3" points="44598290,43720125 44598290,26761084 49215308,26761084 49215308,43720125 "/>
    <path class="fil2" d="M44521668 43633410l0 -16959041 4770720 0 0 17045756 -4770720 0 0 -86715zm153702 -16785610l0 16698894 4462857 0 0 -16698894 -4462857 0z"/>
   </g>
   <g>
    <polygon class="fil4" points="44521668,48770719 44521668,44077080 49292388,44077080 49292388,48847800 44521668,48847800 "/>
    <path class="fil2" d="M46014640 46383066l166549 0 -131220 -153243 116538 -100021 217018 253264 341355 0 -222065 -222065 -362919 -61939 25693 -151408 149114 25234 -84421 -83962 109197 -108738 105067 104609 -18811 -204171 152784 -13765 34870 387237 224817 224818 0 -314745 -213347 -300521 125256 -89010 88091 123879 0 -119291 153243 0 0 148655 131220 -157831 117915 98186 -249135 299145 0 297768 217018 -217018 61940 -362919 151407 26152 -25234 149114 83962 -84422 108739 108739 -105068 105067 204630 -18811 13764 152784 -387237 35329 -224359 223900 315204 0 300062 -212430 88092 125256 -123420 87174 119291 0 0 154160 -148196 0 157372 131220 -98186 117915 -298686 -249135 -306027 0 241794 241794 328967 17435 -7799 153243 -159208 -8718 94515 94515 -108738 109197 -117915 -117914 -15140 200959 -153243 -11011 25234 -333097 -233535 -233994 0 341814 220689 245006 -114244 103232 -106445 -118832 0 133973 -153243 0 0 -167007 -154160 131678 -99562 -116538 253722 -217017 0 -349614 -247758 247299 -17434 328967 -153243 -7799 8258 -158749 -94056 94515 -109197 -108738 117914 -117915 -200959 -15599 11011 -153243 333097 25693 233535 -233535 -341814 0 -245005 220230 -102774 -114244 118373 -105986 -133514 0 0 -154160zm-1492972 2387653l0 -4693639 4770720 0 0 4770720 -4770720 0 0 -77081zm153702 -4539937l0 4463316 4462857 0 0 -4463316 -4462857 0z"/>
   </g>
   <g>
    <polygon class="fil3" points="4737226,26830365 4737226,43856392 2147696,43856392 2147696,26830365 "/>
    <polygon class="fil3" points="3358040,30939020 3358040,39944567 2879499,39944567 2879499,30939020 "/>
    <path class="fil3" d="M2879499 39944567c-457434,-3072200 -518456,-6083378 0,-9005547l0 9005547z"/>
    <polygon class="fil3" points="2514286,35231199 2514286,35652847 2232117,35652847 2232117,35231199 "/>
    <path class="fil2" d="M4813848 26830365l0 17103107 -2742774 0 0 -17180187 2742774 0 0 77080zm-153702 16949406l0 -16872326 -2435370 0 0 16872326 2435370 0z"/>
    <path class="fil2" d="M3435120 30939020l0 9082628 -632242 0 0 -9159708 632242 0 0 77080zm-154161 8928926l0 -8851846 -324379 0 0 8851846 324379 0z"/>
    <path class="fil2" d="M2802878 39951908c-228488,-1537017 -358332,-3060271 -365673,-4566089 -7799,-1507195 106903,-2995120 366591,-4460105 7341,-41752 47257,-69739 89009,-62398 37164,6423 63775,38999 63775,75704l0 9005547c0,42670 -34411,77081 -77081,77081 -39916,0 -72951,-30741 -76621,-69740zm-212430 -4566548c5506,1120876 79375,2253222 212430,3395203l0 -6841793c-151408,1136934 -218394,2286256 -212430,3446590z"/>
    <path class="fil2" d="M2591366 35231199l0 498728 -435871 0 0 -575808 435871 0 0 77080zm-154161 344567l0 -267945 -128008 0 0 267945 128008 0z"/>
   </g>
   <g>
    <polygon class="fil3" points="28378853,3144234 28378853,14208926 26262815,14208926 26262815,3144234 "/>
    <path class="fil2" d="M28378853 3144234l0 11064692 -2193118 0 0 -11141314 2193118 0 0 76622zm-153702 10910531l0 -10833451 -1885255 0 0 10833451 1885255 0z"/>
   </g>
   <g>
    <g>
     <path class="fil3" d="M23987570 34061230l0 3652597c0,342273 -279416,621230 -621689,621230l-3007508 0c-342273,0 -621689,-278957 -621689,-621230l0 -3652597c0,-342732 279416,-622148 621689,-622148l3007508 0c342273,0 621689,279416 621689,622148z"/>
     <path class="fil2" d="M24058227 34155746l0 3463107c0,219771 -77998,419353 -203253,563879 -125714,144526 -299145,233994 -489552,233994l-3006590 0c-190407,0 -363837,-89468 -489093,-233994 -126173,-144526 -204171,-344108 -204171,-563879l0 -3463107c0,-219312 77998,-418895 203713,-563421 125714,-144525 299144,-234452 489551,-234452l3006590 0c190407,0 363838,89927 489552,233994 125255,144525 203253,344108 203253,563879zm-141772 3463107l0 -3463107c0,-174349 -61940,-333097 -161961,-448259 -99562,-115162 -237664,-186736 -389072,-186736l-3006590 0c-151866,0 -289510,71574 -389531,186736 -100020,115162 -161960,273910 -161960,448259l0 3463107c0,174348 62398,333097 161960,448259 100021,115161 237665,186736 389531,186736l3006590 0c151408,0 289510,-71575 389072,-186736 100021,-115162 161961,-273911 161961,-448259z"/>
     <path class="fil3" d="M23987570 42609343l0 -3652596c0,-342274 -279416,-621231 -621689,-621231l-3007508 0c-342273,0 -621689,278957 -621689,621231l0 3652596c0,342732 279416,621689 621689,621689l3007508 0c342273,0 621689,-278957 621689,-621689z"/>
     <path class="fil2" d="M23916455 42514828l0 -3463107c0,-174349 -61940,-333556 -161961,-448259 -99562,-115162 -237664,-186736 -389072,-186736l-3006590 0c-151866,0 -289510,71574 -389531,186736 -100020,114703 -161960,273910 -161960,448259l0 3463107c0,174348 62398,333097 161960,448259 100021,115161 237665,186736 389531,186736l3006590 0c151408,0 289510,-71575 389072,-186736 100021,-115162 161961,-273911 161961,-448259zm141772 -3463107l0 3463107c0,219312 -77998,418895 -203253,563420 -125714,144526 -299145,234453 -489552,234453l-3006590 0c-190407,0 -363837,-89927 -489093,-234453 -126173,-144525 -204171,-344108 -204171,-563420l0 -3463107c0,-219312 77998,-418895 203713,-563421 125714,-144984 299144,-234452 489551,-234452l3006590 0c190407,0 363838,89468 489552,233994 125255,144525 203253,344108 203253,563879z"/>
     <path class="fil3" d="M23987570 43852722l0 3652596c0,342273 -279416,621689 -621689,621689l-3007508 0c-342273,0 -621689,-279416 -621689,-621689l0 -3652596c0,-342274 279416,-621690 621689,-621690l3007508 0c342273,0 621689,279416 621689,621690z"/>
     <path class="fil2" d="M24058227 43947696l0 3463107c0,219312 -77998,418895 -203253,563420 -125714,144526 -299145,234453 -489552,234453l-3006590 0c-190407,0 -363837,-89927 -489093,-234453 -126173,-144525 -204171,-344108 -204171,-563420l0 -3463107c0,-219312 77998,-418895 203713,-563421 125714,-144984 299144,-234452 489551,-234452l3006590 0c190407,0 363838,89468 489552,233993 125255,144526 203253,344109 203253,563880zm-141772 3463107l0 -3463107c0,-174349 -61940,-333556 -161961,-448259 -99562,-115162 -237664,-186736 -389072,-186736l-3006590 0c-151866,0 -289510,71574 -389531,186277 -100020,115162 -161960,273910 -161960,448718l0 3463107c0,174348 62398,333097 161960,448259 100021,115161 237665,186277 389531,186277l3006590 0c151408,0 289510,-71575 389072,-186277 100021,-115162 161961,-273911 161961,-448259z"/>
     <path class="fil3" d="M23987570 33439541l0 4728050c0,92221 65152,167466 144985,167466l703357 0c79834,0 145444,-75245 145444,-167466l0 -5621355c0,-92221 -65610,-167466 -145444,-167466l-703357 0c-53681,0 -100939,34410 -126173,84880l-4145819 0c-68363,0 -123879,64233 -123879,142690l0 690052c0,78916 55516,143149 123879,143149l4127007 0z"/>
     <path class="fil2" d="M24058227 33439541l0 4728050c0,23858 8718,45423 22023,60563 13306,16059 32117,25694 52305,25694l703357 0c20647,0 39458,-9635 52305,-25235 13764,-15599 22023,-37164 22023,-61022l0 -5621355c0,-23859 -8259,-44964 -21564,-60563 -13765,-15600 -32117,-25235 -52764,-25235l-703357 0c-13306,0 -26152,4129 -36705,11470 -11929,7800 -21564,18811 -27988,32117l-20646 41293 -4186653 0c-14682,0 -27987,6882 -37622,17894 -9177,11011 -15600,26611 -15600,43128l0 690052c0,16976 6423,32117 15600,43128 9635,11012 22940,18353 37622,18353l4197664 0 0 81668zm-141772 4728050l0 -4646840 -4055892 0c-53681,0 -102315,-25235 -137643,-65610 -35329,-40834 -57352,-96809 -57352,-158749l0 -690052c0,-61940 22023,-117915 57352,-158290 35328,-40834 83962,-66069 137643,-66069l4110031 0c15600,-20187 33494,-37163 53681,-50928 32117,-21564 69281,-33952 108280,-33952l703357 0c59187,0 113327,27988 152326,72951 39458,45422 63775,107821 63775,176184l0 5621355c0,68822 -24317,131220 -63316,176184 -39458,44963 -93598,72951 -152785,72951l-703357 0c-59187,0 -113327,-27988 -152326,-72951 -39457,-44964 -63774,-107362 -63774,-176184z"/>
     <path class="fil3" d="M23987570 43086048l0 -4606006c0,-79833 65152,-144526 144985,-144526l703816 0c79833,0 144985,64693 144985,144526l0 4606006c0,79833 -65152,144984 -144985,144984l-703816 0c-79833,0 -144985,-65151 -144985,-144984z"/>
     <path class="fil2" d="M23916455 43063566l0 -4561043c0,-68362 24317,-130761 63774,-175724 38999,-44964 93139,-72951 152326,-72951l703357 0c59187,0 113327,27987 152785,72951 38999,44963 63316,107362 63316,175724l0 4561043c0,68363 -24317,130761 -63316,175725 -39458,45422 -93598,73410 -152785,73410l-703357 0c-59187,0 -113327,-27988 -152326,-72951 -39457,-45423 -63774,-107821 -63774,-176184zm141772 -4561043l0 4561043c0,23858 8259,45423 21564,61022 13765,15600 32576,25235 52764,25235l703357 0c20647,0 38999,-9635 52764,-25235 13305,-15599 21564,-37164 21564,-61022l0 -4561043c0,-23399 -8259,-44963 -22023,-60563 -12847,-15599 -31658,-25234 -52305,-25234l-703357 0c-20188,0 -38999,10094 -52305,25234 -13305,15600 -22023,37164 -22023,60563z"/>
     <path class="fil3" d="M23790282 32953660c477163,550574 684087,1209427 756121,1922419 -712993,40834 -793285,634536 -1218603,635913 -64693,-675829 -254640,-1327800 -756121,-1922420 267028,-565714 695558,-721251 1218603,-635912z"/>
     <path class="fil2" d="M23840292 32896309c245464,283086 421189,594160 545068,925422 122961,330344 194536,681335 231241,1045172l8717 85798 -75704 4588c-373013,21564 -564338,206465 -729510,366131 -148196,143608 -278498,268864 -492304,269781l-63316 0 -6882 -72492c-31658,-330803 -94057,-655182 -209218,-969009 -114703,-312451 -283087,-616184 -527174,-905694l-36246 -42669 24775 -52763c141773,-300522 327592,-492305 548280,-598290 217935,-104609 468446,-123879 741898,-79375l23858 4130 16517 19270zm414765 990114c-114244,-306027 -275286,-593701 -497810,-855683 -239958,-35787 -457894,-17893 -645089,72034 -178477,85797 -331720,238582 -452846,474411 237205,291345 403754,596913 519374,911658 111950,305109 176184,618018 211512,935975 129844,-23859 228947,-119291 339062,-225736 170677,-165630 366590,-355120 737768,-397789 -37622,-318415 -104150,-625360 -211971,-914870z"/>
    </g>
    <g>
     <path class="fil3" d="M18703441 47506694l-3469989 0c-342274,0 -621690,-279416 -621690,-621689l0 -3007508c0,-342273 279416,-621689 621690,-621689l3469989 0c342273,0 621689,279416 621689,621689l0 3007508c0,342273 -279416,621689 -621689,621689z"/>
     <path class="fil2" d="M18635078 47577351l-3333722 0c-211512,0 -403754,-77998 -542774,-203253 -139020,-125714 -225735,-298686 -225735,-489552l0 -3006590c0,-190406 86715,-363837 225735,-489093 139020,-125714 331262,-203712 542774,-203712l3333722 0c211053,0 403295,77998 542774,203254 139479,125714 225735,299145 225735,489551l0 3006590c0,190866 -86256,363838 -225735,489552 -139020,125255 -331262,203253 -542774,203253zm-3333722 -141772l3333722 0c168384,0 321168,-61940 431742,-161961 110573,-99562 179854,-237664 179854,-389072l0 -3006590c0,-151408 -68822,-289510 -179396,-389531 -111032,-99562 -263816,-161960 -432200,-161960l-3333722 0c-167925,0 -321168,62398 -431742,161960 -110573,100021 -179395,238123 -179395,389531l0 3006590c0,151408 68822,289510 179395,389072 110574,100021 263817,161961 431742,161961z"/>
     <path class="fil3" d="M19163629 47506694l-4551867 0 0 -4130677c0,-66069 -60104,-120209 -133514,-120209l-645088 0c-73410,0 -133056,54140 -133056,120209l0 4157747c-40834,26611 -67445,69740 -67445,118374l0 702898c0,79834 72492,145444 161043,145444l5369927 0c89009,0 161501,-65610 161501,-145444l0 -702898c0,-80292 -72492,-145444 -161501,-145444z"/>
     <path class="fil2" d="M19163629 47577351l-4630782 0 0 -4201334c0,-13306 -5965,-25694 -16059,-34870 -10094,-8717 -23858,-14682 -38540,-14682l-645088 0c-14682,0 -28447,5965 -38541,14682 -9635,9176 -16058,21564 -16058,34870l0 4193993 -33034 21106c-10553,6882 -19729,16517 -25694,27070 -5506,9635 -8717,21564 -8717,33952l0 702898c0,20647 9176,39458 23858,52764 15141,13305 35787,22023 58728,22023l5369927 0c22940,0 43587,-8718 58728,-22023 14682,-13306 24317,-32117 24317,-52764l0 -702898c0,-20647 -9635,-39458 -24317,-52764 -15141,-13764 -35788,-22023 -58728,-22023zm-4473410 -141772l4473410 0c66069,0 126173,24776 169301,63774 43587,38999 70657,93139 70657,152785l0 702898c0,59646 -27070,113327 -70198,152785 -43587,38999 -103691,63316 -169760,63316l-5369927 0c-65610,0 -125715,-24317 -168843,-63316 -44046,-39458 -70657,-93598 -70657,-152785l0 -702898c0,-35329 9635,-68822 26611,-98186 10553,-19270 24317,-36705 40376,-51846l0 -4126089c0,-52305 23858,-100480 62398,-134891 38540,-34411 91304,-55975 149573,-55975l645088 0c58269,0 111491,21564 149573,55975 38540,34411 62398,82586 62398,134891l0 4059562z"/>
     <path class="fil3" d="M14040083 47364922c530386,476705 1164463,683629 1850845,756121 39458,-712993 611137,-793285 612054,-1218603 -650135,-65151 -1278248,-254640 -1850844,-756121 -544609,267028 -693723,695558 -612055,1218603z"/>
     <path class="fil2" d="M14114411 47331429c252346,222982 529009,384025 823566,498269 278957,107820 574432,174348 880918,211970 41293,-371178 223441,-567090 382648,-737768 103233,-110574 194536,-209218 217477,-339520 -306027,-34870 -607466,-99104 -901106,-211054 -302815,-115620 -596913,-282169 -877705,-519374 -227112,121126 -373932,274369 -456518,452847 -86715,187195 -104150,404671 -69280,644630zm761627 628112c-318874,-123420 -618478,-299145 -891012,-544609l-18811 -16976 -3671 -23399c-42669,-273452 -24775,-523963 76163,-741898 101856,-220688 286757,-406507 576267,-548279l50469 -24776 41293 36246c278957,244087 571220,412471 872200,527174 301439,115162 614349,177560 932764,209218l69739 6882 0 63316c-918,213806 -121585,344108 -259687,492305 -153702,165172 -332180,356496 -352367,729509l-4588 75704 -82586 -8717c-350532,-36705 -688217,-108280 -1006173,-231700z"/>
     <path class="fil3" d="M19946820 47506694l3469989 0c342273,0 621689,-279416 621689,-621689l0 -3007508c0,-342273 -279416,-621689 -621689,-621689l-3469989 0c-342274,0 -621690,279416 -621690,621689l0 3007508c0,342273 279416,621689 621690,621689z"/>
     <path class="fil2" d="M20014724 47435579l3334181 0c167925,0 320709,-61940 431283,-161961 111032,-99562 179854,-237664 179854,-389072l0 -3006590c0,-151408 -68822,-289510 -179395,-389531 -111033,-99562 -263817,-161960 -431742,-161960l-3334181 0c-167925,0 -320709,62398 -431742,161960 -110573,100021 -179395,238123 -179395,389531l0 3006590c0,151408 68822,289510 179395,389072 111033,100021 263817,161961 431742,161961zm3334181 141772l-3334181 0c-211512,0 -403295,-77998 -542774,-203253 -139020,-125714 -225276,-298686 -225276,-489552l0 -3006590c0,-190406 86256,-363837 225276,-489093 139479,-125714 331262,-203712 542774,-203712l3334181 0c211053,0 402836,77998 542315,203254 139479,125714 225735,299145 225735,489551l0 3006590c0,190866 -86256,363838 -225276,489552 -139479,125255 -331262,203253 -542774,203253z"/>
     <path class="fil3" d="M19486173 47506694l4552325 0 0 -4130677c0,-66069 60105,-120209 133515,-120209l644629 0c73410,0 133514,54140 133514,120209l0 4157747c40835,26611 67446,69740 67446,118374l0 702898c0,79834 -72493,145444 -161043,145444l-5370386 0c-88550,0 -161043,-65610 -161043,-145444l0 -702898c0,-80292 72493,-145444 161043,-145444z"/>
     <path class="fil2" d="M19486173 47435579l4473869 0 0 -4059562c0,-52305 23858,-100480 61939,-134891 38540,-34411 91762,-55975 150032,-55975l644629 0c58269,0 111491,21564 150032,55975 38081,34411 61939,82586 61939,134891l0 4126089c16517,15141 30282,32576 40834,51387 16976,29823 26611,63316 26611,98645l0 702898c0,59646 -27069,113327 -70657,152785 -43128,38999 -103232,63316 -168842,63316l-5370386 0c-65610,0 -125714,-24317 -168842,-63316 -44046,-39458 -70657,-93139 -70657,-152785l0 -702898c0,-59646 26611,-113786 70198,-152785 43587,-38998 103691,-63774 169301,-63774zm4552325 141772l-4552325 0c-22482,0 -43587,8259 -58269,21565 -15141,13764 -24317,32575 -24317,53222l0 702898c0,20647 9176,39458 23858,52764 15141,13305 36246,22023 58728,22023l5370386 0c22482,0 43128,-8718 58269,-22023 14682,-13306 24317,-32117 24317,-52764l0 -702898c0,-12388 -3212,-24317 -8717,-33952 -6424,-10553 -15600,-20188 -26153,-27070l-32575 -21106 0 -4193993c0,-13306 -6424,-25694 -16518,-34870 -9635,-8717 -23399,-14682 -38540,-14682l-644629 0c-15141,0 -28906,5965 -38541,14682 -10093,9176 -16517,21564 -16517,34870l0 4201334 -78457 0z"/>
     <path class="fil3" d="M24609718 47364922c-529927,476705 -1164004,683629 -1850385,756121 -39458,-712993 -611137,-793285 -612055,-1218603 650136,-65151 1278249,-254640 1850386,-756121 544609,267028 694182,695558 612054,1218603z"/>
     <path class="fil2" d="M24665235 47414932c-272993,245464 -572138,421189 -891012,544609 -317956,123420 -655641,194995 -1006173,231700l-83045 8717 -4129 -75704c-20647,-373013 -198665,-564337 -352367,-729509 -138102,-148655 -259228,-278499 -259687,-492305l0 -63316 69739 -6882c318415,-31658 630865,-94056 932763,-209218 300980,-114703 593243,-283087 871742,-527174l41293 -36246 50928 24776c289051,141772 473952,327591 575808,548279 100938,217935 119291,468446 76163,741898l-3671 23399 -18352 16976zm-953410 414766c295015,-114244 571679,-275287 824025,-498269 34411,-239959 16976,-457435 -69281,-644630 -82586,-178478 -229864,-331721 -456976,-452847 -280333,237205 -574431,403754 -877706,519374 -293639,111950 -595078,176184 -901105,211054 22941,130302 114703,228946 217477,339520 159207,170678 341814,366590 383107,737768 306486,-37622 601960,-104150 880459,-211970z"/>
    </g>
   </g>
   <g>
    <path class="fil3" d="M20028029 32060813c-298686,0 -298686,-563420 0,-563420l0 -4077914c-379896,-53222 -328050,-596914 110115,-568926l3211679 0c904317,0 1644379,776308 1644379,1725130l0 1915078c0,864401 -673993,1571429 -1497560,1571429l-3468613 -1377z"/>
    <path class="fil2" d="M20028029 32147529c-149113,0 -244087,-98645 -284922,-225277 -14682,-45881 -22023,-94974 -22023,-143149 0,-48175 7341,-96809 22023,-142690 33035,-101397 100021,-185360 201877,-214265l0 -3932930c-121126,-37623 -199124,-122503 -233993,-221606 -17894,-51387 -23859,-107362 -18353,-161960 5965,-54140 23858,-107821 52763,-155996 69281,-113326 201877,-196371 392743,-185819l3211679 -458c474869,0 906611,204171 1219520,532679 313368,328050 507445,781356 507445,1279625l0 1915078c0,456059 -177560,870824 -463858,1171345 -286757,300063 -681793,486799 -1116288,486799l-3468613 -1376zm-128467 -280793c19270,60104 62398,107362 128467,107362l3468613 1376c389072,0 742816,-167007 999291,-435870 256017,-269322 415224,-640501 415224,-1048843l0 -1915078c0,-450094 -175724,-860271 -458352,-1157122 -283087,-296851 -673535,-481293 -1102982,-481293l-3216726 -459c-125255,-7800 -208300,39917 -248217,105986 -15599,24775 -24776,53222 -27987,81668 -2753,28446 458,56893 9635,83504 21105,61022 78456,112408 172054,125714l72033 10094 0 4240792 -82586 0c-66069,0 -109197,46799 -128467,107362 -8717,26611 -12847,56434 -12847,87174 0,30741 4130,60563 12847,87633z"/>
    <path class="fil3" d="M20028029 31493264l0 -4073785 2268822 0c706569,0 1285130,607007 1285130,1348446l0 1497101c0,675370 -526715,1228238 -1170427,1228238l-2383525 0z"/>
    <path class="fil2" d="M19944984 31493264l0 -4160501 2351867 0c376225,0 718498,161502 966256,421648 247758,259687 401460,618936 401460,1013514l0 1497101c0,361543 -140855,690511 -367966,928634 -227112,238582 -540021,386319 -885047,386319l-2466570 0 0 -86715zm165631 -3987070l0 3899896 2300939 0c299145,0 571220,-128467 768050,-334933 197289,-206923 319791,-492304 319791,-806131l0 -1497101c0,-346861 -135808,-662065 -353284,-891012 -217936,-228488 -518916,-370719 -849260,-370719l-2186236 0z"/>
    <path class="fil3" d="M23185109 31588697c556997,-586361 798791,-1287425 883212,-2046299 -832742,-43587 -926799,-675370 -1423691,-676746 -75704,718957 -297310,1413597 -883212,2046298 311992,602419 812555,767591 1423691,676747z"/>
    <path class="fil2" d="M23146111 31507028c260604,-278957 448258,-584984 581772,-910740 126173,-308321 203712,-634995 247758,-974057 -433576,-45881 -662523,-247299 -861647,-423023 -129385,-114244 -244547,-215642 -396872,-240876 -40834,338602 -116079,671699 -246840,996538 -134891,334932 -329427,660229 -607008,970385 142232,250970 321168,413848 529468,504693 218853,95891 473035,115161 753369,77080zm733639 -842377c-144067,352826 -349614,683628 -636371,985067l-19271 20647 -27528 4129c-319792,47717 -612513,27529 -867154,-83962 -257851,-112868 -474869,-317498 -640500,-637289l-28905 -55975 42210 -45422c285381,-308321 481752,-631325 616184,-964422 134432,-333555 206924,-679040 244088,-1030949l8258 -77539 73869 459c249593,459 401918,133973 574890,286757 193160,170219 417060,367049 852472,389990l88550 4588 -10094 91762c-43128,387237 -126632,760709 -270698,1112159z"/>
   </g>
   <g>
    <polygon class="fil3" points="12420021,33973139 12420021,40128551 16652096,40128551 16652096,33973139 "/>
    <path class="fil2" d="M12342941 33973139l0 6232492 4385776 0 0 -6309573 -4385776 0 0 77081zm153701 6078790l0 -6002169 4078374 0 0 6002169 -4078374 0z"/>
   </g>
   <g>
    <g>
     <polygon class="fil3" points="30530678,32384275 27746611,32384275 28054473,30548113 30223274,30548113 "/>
     <path class="fil2" d="M30530678 32461356l-2874453 0 333556 -1990324 2298186 0 333555 1990324 -90844 0zm-2693222 -154161l2602836 0 -282169 -1682002 -2038498 0 -282169 1682002z"/>
     <polygon class="fil3" points="30530678,30213639 27746611,30213639 28054473,30548113 30223274,30548113 "/>
     <path class="fil2" d="M30355871 30290719l-2433994 0 166090 180313 2101814 0 166090 -180313zm-2609260 -154160l2959333 0 -449177 488634 -2235787 0 -449176 -488634 174807 0z"/>
    </g>
    <g>
     <polygon class="fil3" points="30723837,41628863 27998957,41057643 27923712,42918123 30046173,43362711 "/>
     <path class="fil2" d="M30739896 41553618l-2813890 -589572 -81668 2016017 2249551 471658 734557 -1879750 -88550 -18353zm-2667988 -401918l2547320 533597 -620771 1588864 -1995370 -417977 68821 -1704484z"/>
     <polygon class="fil3" points="30278790,43753160 27553910,43182398 27923712,42918123 30046173,43362711 "/>
     <path class="fil2" d="M30122795 43642127l-2381690 -499186 199583 -142691 2056851 431283 125256 210594zm-2584943 -384484l2896475 607008 -339520 -570303 -2188071 -458352 -540021 385860 171137 35787z"/>
    </g>
    <g>
     <polygon class="fil3" points="31637789,33775391 32703149,36347946 34281919,35360584 33451929,33357414 "/>
     <path class="fil2" d="M31566674 33805214l1100229 2656058 1710907 -1069948 -879541 -2123378 -1966465 453305 34870 83963zm1172721 2429405l-996079 -2404629 1662273 -383108 780438 1883420 -1446632 904317z"/>
     <polygon class="fil3" points="33643253,32944943 34708613,35517039 34281919,35360584 33451929,33357414 "/>
     <path class="fil2" d="M33639124 33136267l931387 2248634 -230323 -84421 -804296 -1941690 103232 -222523zm1140605 2351408l-1132346 -2734057 -279416 601961 855683 2065568 623065 228488 -66986 -161960z"/>
    </g>
    <path class="fil3" d="M32007591 32591658l0 8428363c0,433118 -354202,787320 -787320,787320l-4196288 0c-433118,0 -787320,-354202 -787320,-787320l0 -8428363c0,-433118 354202,-787320 787320,-787320l4196288 0c433118,0 787320,354202 787320,787320z"/>
    <path class="fil2" d="M32084672 32592117l0 8427904c0,238123 -97268,454223 -253723,610678 -156914,156454 -373014,253722 -610678,253722l-4196288 0c-237664,0 -453764,-97268 -610677,-253722 -156455,-156455 -253723,-372555 -253723,-610678l0 -8427904c0,-237664 97268,-454223 253723,-610678 156913,-156455 373013,-253723 610677,-253723l4196288 0c237664,0 453764,97268 610678,253723 156455,156455 253723,373014 253723,610678zm-154161 8427904l0 -8427904c0,-195454 -79833,-373014 -208759,-501940 -128467,-128926 -306486,-208759 -501481,-208759l-4196288 0c-194994,0 -373013,79833 -501480,208759 -128926,128926 -208760,306486 -208760,501940l0 8427904c0,195453 79834,373013 208760,501939 128467,128468 306486,208759 501480,208759l4196288 0c194995,0 373014,-80291 501481,-208759 128926,-128926 208759,-306486 208759,-501939z"/>
    <g>
     <polygon class="fil3" points="32010803,37635370 32010803,40419437 33846966,40112033 33846966,37943233 "/>
     <path class="fil2" d="M31933723 37635370l0 2874912 1990323 -333556 0 -2298186 -1990323 -334014 0 90844zm154160 2693681l0 -2602836 1682461 282169 0 2038498 -1682461 282169z"/>
     <polygon class="fil3" points="34181439,37635370 34181439,40419437 33846966,40112033 33846966,37943233 "/>
     <path class="fil2" d="M34104359 37810636l0 2433994 -180313 -166090 0 -2101814 180313 -166090zm154160 2608801l0 -2959333 -488175 449635 0 2235788 488175 449176 0 -175266z"/>
    </g>
   </g>
   <g>
    <path class="fil4" d="M44909823 30782106l0 -3111199c0,-122044 50469,-233535 130761,-314286 80751,-80750 192242,-130761 314744,-130761l3110741 0c122502,0 233994,50011 314286,130761 80750,80751 130761,191784 130761,314286l0 3111199c0,122503 -50011,233535 -130761,314286 -80292,80751 -191784,130761 -314286,130761l-3110741 0c-122502,0 -233993,-50010 -314744,-130761 -80292,-80751 -130761,-192242 -130761,-314286z"/>
    <g>
     <path class="fil2" d="M44909823 30782106l0 -3111199c0,-122044 50469,-233535 130761,-314286 80751,-80750 192242,-130761 314744,-130761l3110741 0c122502,0 233994,50011 314286,130761 80750,80751 130761,191784 130761,314286l0 3111199c0,122503 -50011,233535 -130761,314286 -80292,80751 -191784,130761 -314286,130761l-3110741 0c-122502,0 -233993,-50010 -314744,-130761 -80292,-80751 -130761,-192242 -130761,-314286zm154160 -3111199l0 3111199c0,79834 32576,152785 85339,205548 52764,52763 125714,85798 206006,85798l3110741 0c79833,0 152784,-33035 205547,-85798 52764,-52763 85798,-125714 85798,-205548l0 -3111199c0,-79833 -33034,-152784 -85798,-205547 -52763,-52764 -125714,-85798 -205547,-85798l-3110741 0c-80292,0 -153242,33034 -206006,85798 -52763,52763 -85339,125714 -85339,205547z"/>
     <path class="fil2" d="M45212179 30450845l0 -2448676c0,-130761 53222,-249135 139020,-334932 85798,-85798 204630,-139479 334932,-139479l1679708 0c129844,0 248676,53681 334474,139479 85798,85797 139478,204630 139478,334932l0 2448676c0,130302 -53680,249134 -139478,334932 -85798,85798 -204171,139478 -334474,139478l-1679708 0c-130761,0 -249134,-53680 -334932,-139478 -85798,-86257 -139020,-204630 -139020,-334932zm153702 -2448676l0 2448676c0,88091 35787,168383 94056,226194 57811,57810 138103,94056 226194,94056l1679708 0c87633,0 167925,-36246 225736,-94056 58269,-58269 94056,-138103 94056,-226194l0 -2448676c0,-88092 -35787,-167925 -94056,-226194 -58269,-58269 -138103,-94056 -225736,-94056l-1679708 0c-88091,0 -167925,35787 -226194,94056 -57810,57810 -94056,138102 -94056,226194z"/>
     <path class="fil1" d="M48015975 29095975c46799,-88551 139479,-148655 246382,-148655 154160,0 278957,124797 278957,278957 0,154161 -124797,279416 -278957,279416 -106903,0 -199583,-60104 -246382,-148654l-657477 0 0 -261064 657477 0z"/>
     <path class="fil1" d="M46077956 29226277c0,-172513 139938,-312909 312909,-312909 172972,0 312910,140396 312910,312909 0,172972 -139938,313368 -312910,313368 -172971,0 -312909,-140396 -312909,-313368zm122044 0c0,-105067 85339,-190865 190865,-190865 105527,0 190866,85798 190866,190865 0,105527 -85339,191325 -190866,191325 -105526,0 -190865,-85798 -190865,-191325z"/>
    </g>
   </g>
   <g>
    <path class="fil4" d="M44520292 37772096l0 -2928592c0,-157831 64692,-300981 168384,-405131 103691,-103691 247299,-168383 405130,-168383l4197205 0 0 4001293 -4271532 0c-137185,0 -262440,-55975 -352826,-146361 -90386,-90845 -146361,-215641 -146361,-352826z"/>
    <g>
     <path class="fil2" d="M44520292 37772096l0 -2928592c0,-157831 64692,-300981 168384,-405131 103691,-103691 247299,-168383 405130,-168383l4197205 0 0 4001293 -4271532 0c-137185,0 -262440,-55975 -352826,-146361 -90386,-90845 -146361,-215641 -146361,-352826zm153702 -2928592l0 2928592c0,94974 38999,181230 101856,243629 62398,62857 148655,101856 243629,101856l4117831 0 0 -3693431 -4043504 0c-115162,0 -220229,47258 -296392,122962 -76163,76162 -123420,181230 -123420,296392z"/>
     <polygon class="fil2" points="45075912,38194202 45075912,34347070 45229614,34347070 45229614,38194202 "/>
     <path class="fil1" d="M45581981 37188029c0,-339061 274828,-613889 613890,-613889 339061,0 613889,274828 613889,613889 0,339062 -274828,613890 -613889,613890 -339062,0 -613890,-274828 -613890,-613890z"/>
     <path class="fil1" d="M45772847 35472075c0,-233994 189489,-423483 423024,-423483 233535,0 423024,189489 423024,423483 0,233535 -189489,423024 -423024,423024 -233535,0 -423024,-189489 -423024,-423024z"/>
     <path class="fil1" d="M47482836 35472075c0,339062 275287,613890 614349,613890 339061,0 613889,-274828 613889,-613890 0,-339520 -274828,-614348 -613889,-614348 -339062,0 -614349,274828 -614349,614348z"/>
     <path class="fil1" d="M47673702 37188029c0,233535 189489,423024 423483,423024 233534,0 423024,-189489 423024,-423024 0,-233535 -189490,-423024 -423024,-423024 -233994,0 -423483,189489 -423483,423024z"/>
    </g>
   </g>
   <g>
    <path class="fil4" d="M39378394 2867570l2700104 0 0 1065360c0,56893 -23399,108280 -61021,145902 -12388,12388 -26612,23399 -41752,32576l0 2658352 0 16517 -459 16059 -459 16058 -918 16059 -917 15599 -918 16059 0 0 -1376 15599 0 459 -1377 15600 -458 0 -1377 15599 0 0 -1835 15600 0 0 -2294 15599 0 0 -2294 15600 0 0 -2294 15599 0 0 -2753 15141 0 459 -2753 15141 0 0 -3212 15141 0 0 -3211 15140 0 459 -3671 14682 0 459 -3212 14682 0 459 -4129 14682 0 0 -3670 14682 0 458 -8718 29364 0 459 -4588 14223 0 459 -4588 14223 0 459 -4588 14223 0 459 -10553 28446 0 459 -5047 13764 -459 459 -5046 13765 -459 458 -5506 13765 0 459 -5965 13764 0 459 -5964 13305 0 459c-5965,13764 -12388,27988 -19270,41293l0 459 -6423 13305 -459 0c-13306,27070 -27988,53681 -43129,79834l0 0c-54139,91303 -119290,174807 -194077,249593 -110114,110115 -240417,200042 -384484,263358l-458 0c-27529,12387 -55975,23399 -84880,33952l-14682 5047 0 0 -14224 4588 -458 0 -14224 4588 -458 0 -14682 4588 0 0 -14682 4588 0 0 -14682 4129 -459 0 -14682 3671 0 0 -15141 4129 0 0 -14682 3671 -459 0 -15140 3211 0 0 -15141 3212 0 0 -15141 3212 0 0 -15599 2752 0 0 -15141 2753 0 0 -15600 2294 0 0 -15599 2294 0 0 -15600 2294 0 0 -15600 1836 0 0 -15599 1835 -459 0 -15600 1376 0 0 -15599 1377 0 0 -16058 917 -16059 918 -16058 918 -15600 459 -16517 458 -16058 0 -16059 0 -16058 -458 -16059 -459 -16058 -918 -16058 -918 -15600 -917 0 0 -16058 -1377 0 0 -15600 -1376 0 0 -15600 -1835 0 0 -15599 -1836 -459 0 -15141 -2294 -459 0 -15140 -2294 -459 0 -15141 -2294 0 0 -15599 -2753 0 0 -15141 -2752 0 0 -15600 -3212 0 0 -15141 -3212 0 0 -15140 -3211 0 0 -15141 -3671 0 0 -14682 -4129 -459 0 -14682 -3671 0 0 -14682 -4129 -459 0 -14682 -4588 0 0 -14682 -4129 0 -459 -14682 -4588 0 0 -14682 -4588 0 0 -14223 -5047 -14223 -5506 -459 0 -14223 -5047 0 0 -14223 -5506 0 -459c-23858,-9176 -47257,-19270 -69739,-29822l-459 0 -13306 -6883 -458 0c-128009,-61480 -243629,-144525 -343191,-244087 -45881,-45881 -88551,-95892 -127091,-148655l0 0c-17894,-24317 -34870,-49552 -50928,-75245l0 0 -7800 -12847 0 0 -15599 -26152 -7341 -12847 0 0 -7341 -13305 0 0 -7341 -13306 0 0 -6882 -13764 0 0 -6883 -13306 0 0 -6882 -13764 0 0 -6423 -13764 0 0 -6424 -13765 0 0 -6423 -13764 0 -459 -5964 -13764 0 0 -5965 -13764 0 -459 -5506 -13765 0 -458 -5505 -13765 0 -459 -5506 -14223 0 0 -5047 -14223 0 0 -5047 -14682 0 0 -5047 -14682 0 0 -4588 -14223 0 -459 -4588 -14682 0 0 -4129 -14682 0 0 -4130 -14682 0 -458 -4129 -14682 0 0 -3671 -15141 0 0 -3670 -15141 0 0 -3671 -15141 0 0 -3211 -15140 0 0 -2753 -15141 0 0 -3212 -15600 0 0 -2294 -15141 0 0 -2753 -15599 0 0 -2294 -15600 0 0 -1835 -15599 0 0 -1835 -15600 -1835 -15599 0 0 -1836 -16059 -917 -15599 -1377 -16059 -917 -15599 -459 -16059 -918 -16058 0 -16059 0 -16517 0 -2641376c-35328,-11471 -66986,-31199 -92680,-56434 -41293,-41752 -67445,-99562 -67445,-162878l0 -1041502 70198 0z"/>
    <g>
     <path class="fil2" d="M39378394 2867570l2700104 0 0 1065360c0,56893 -23399,108280 -60563,145902 -37622,37164 -89009,60563 -145902,60563l-2333514 0c-63316,0 -121126,-26152 -162878,-67445 -41293,-41752 -67445,-99562 -67445,-162878l0 -1041502 70198 0zm2559249 140855l-2488592 0 0 900647c0,24776 10094,46799 26152,63316 16059,16058 38540,26152 63316,26152l2333514 0c17894,0 34411,-7341 46340,-19270 11929,-11929 19270,-28446 19270,-46340l0 -924505z"/>
     <path class="fil2" d="M39538519 3998540l2437206 0 0 2771220c0,344567 -140855,657936 -368426,885506 -227570,227570 -540938,368425 -885505,368425 -344568,0 -657936,-140855 -885047,-368425 -227571,-227570 -368426,-540939 -368426,-885506l0 -2771220 70198 0zm2296351 140855l-2226153 0 0 2630365c0,306486 125256,584985 326674,786403 201877,201877 480375,326673 786403,326673 306485,0 584525,-124796 786402,-326673 201418,-201418 326674,-479917 326674,-786403l0 -2630365z"/>
     <path class="fil2" d="M39774807 4340813l1913702 0c72492,501940 287216,1988030 287216,2428947 0,345026 -141314,658394 -368426,885506 -227111,227111 -540479,368425 -885505,368425 -344568,0 -658395,-141314 -885506,-368425 -227112,-227112 -367967,-540480 -367967,-885506 0,-495975 178019,-1885714 244088,-2428947l62398 0zm1792117 140397l-1730177 0 -228030 2292679c918,304651 126174,581314 326674,782274 202336,201418 480375,326673 786403,326673 306027,0 584525,-125255 785943,-326673 200960,-200960 326215,-477623 327133,-782274l-267946 -2292679z"/>
     <path class="fil2" d="M40711241 3278665c65151,0 124797,26611 167466,69281 42669,42669 69280,101856 69280,167466 0,65610 -26611,124797 -69280,167466 -42669,43128 -102315,69739 -167466,69739 -65610,0 -124797,-26611 -167466,-69739 -43128,-42669 -69740,-102315 -69740,-167466 0,-65610 26612,-124797 69740,-167466 42669,-42670 102315,-69281 167466,-69281z"/>
    </g>
   </g>
   <g>
    <polygon class="fil4" points="49136392,2896934 44442753,2896934 44442753,5541981 44442753,6282503 49213472,6282503 49213472,5541981 49213472,2896934 "/>
    <g>
     <path class="fil2" d="M49136392 2896934l-4693639 0 0 3385569 4770719 0 0 -3385569 -77080 0zm-4539937 153702l4463316 0 0 3078165 -4463316 0 0 -3078165z"/>
     <path class="fil2" d="M49136392 5541981l-4693639 0 0 740522 4770719 0 0 -740522 -77080 0zm-4539937 153702l4463316 0 0 433118 -4463316 0 0 -433118z"/>
     <path class="fil2" d="M46828113 3139645c-324380,0 -618019,131679 -830908,344109 -212888,213347 -344567,506986 -344567,831366 0,323921 131679,618019 344109,830907 213347,212889 506986,344567 831366,344567 324379,0 618018,-131678 830907,-344567 212888,-212888 344567,-506986 344567,-830907 0,-324380 -131679,-618019 -344108,-830907 -213348,-212889 -506987,-344568 -831366,-344568zm-722628 452847c184901,-184901 440459,-299145 722628,-299145 282169,0 537726,114244 722627,299145 184901,184901 299145,440459 299145,722628 0,282169 -114244,537727 -299145,722169 -184901,185360 -440458,299604 -722627,299604 -282169,0 -537727,-114244 -722169,-299145 -185360,-184901 -299604,-440459 -299604,-722628 0,-282169 114244,-537727 299145,-722628z"/>
     <path class="fil2" d="M46828113 3561752c-207842,0 -396413,84421 -532680,220688 -136267,136267 -220688,324380 -220688,532680 0,207841 84421,396413 220688,532680 136267,136267 324838,220688 532680,220688 207841,0 396413,-84421 532679,-220688 136267,-136267 220689,-324839 220689,-532680 0,-208300 -84422,-396413 -220689,-532680 -136266,-136267 -324838,-220688 -532679,-220688zm-423942 329426c108279,-108279 258311,-175724 423942,-175724 165630,0 315662,67445 423941,175724 108280,108280 175725,258311 175725,423942 0,165631 -67445,315203 -175725,423942 -108279,108279 -258311,175265 -423941,175265 -165631,0 -315663,-66986 -423942,-175265 -108279,-108739 -175725,-258311 -175725,-423942 0,-165631 67446,-315662 175725,-423942z"/>
     <path class="fil1" d="M48739520 5734682c-87633,0 -158748,71116 -158748,158290 0,87633 71115,158749 158748,158749 87633,0 158290,-71116 158290,-158749 0,-87174 -70657,-158290 -158290,-158290z"/>
     <path class="fil1" d="M44848342 5734682c-87633,0 -158290,71116 -158290,158290 0,87633 70657,158749 158290,158749 87633,0 158749,-71116 158749,-158749 0,-87174 -71116,-158290 -158749,-158290z"/>
     <path class="fil1" d="M45362669 5734682c-87633,0 -158748,71116 -158748,158290 0,87633 71115,158749 158748,158749 87633,0 158290,-71116 158290,-158749 0,-87174 -70657,-158290 -158290,-158290z"/>
    </g>
   </g>
   <g>
    <polygon class="fil4" points="37572513,20780938 37572513,15317873 49268530,15317873 49268530,20858019 37572513,20858019 "/>
    <g>
     <path class="fil2" d="M37572513 20780938l0 -5463065 11696017 0 0 5540146 -11696017 0 0 -77081zm153702 -5309363l0 5232742 11388613 0 0 -5232742 -11388613 0z"/>
     <path class="fil2" d="M37959750 18087716c0,-655182 267946,-1251178 699687,-1682919 431741,-431742 1027737,-699688 1683378,-699688l7597915 0c258769,0 494140,105527 664359,276205 170219,170219 276204,405589 276204,663900l0 2885005c0,258770 -105985,494140 -276204,664359 -170219,170219 -405590,276204 -664359,276204l-7597915 0c-655641,0 -1251637,-267946 -1683378,-699687 -431741,-432200 -699687,-1027737 -699687,-1683379zm808884 -1574181c-404213,404213 -655182,961210 -655182,1574181 0,612972 250969,1170428 655182,1574182 403754,404213 961210,655182 1574181,655182l7597915 0c216559,0 412930,-88550 555620,-231241 142691,-142690 231241,-339061 231241,-555620l0 -2885005c0,-216100 -88550,-412930 -231241,-555162 -142690,-142690 -339061,-231241 -555620,-231241l-7597915 0c-612971,0 -1170427,250970 -1574181,654724z"/>
     <path class="fil1" d="M47144234 18087716c0,-172971 139937,-312909 312909,-312909 172972,0 313368,139938 313368,312909 0,172972 -140396,313368 -313368,313368 -172972,0 -312909,-140396 -312909,-313368zm122043 0c0,-105526 85339,-190865 190866,-190865 105526,0 190865,85339 190865,190865 0,105527 -85339,191325 -190865,191325 -105527,0 -190866,-85798 -190866,-191325z"/>
    </g>
   </g>
   <g>
    <path class="fil4" d="M46006840 13416559l0 -769427c0,-444129 181690,-848342 474870,-1141063 292722,-293181 696476,-474870 1141064,-474870l1188321 0c117456,0 224359,48175 301898,125714 77539,77540 125714,184443 125714,301898l0 3146069c0,117456 -48175,224359 -125714,301898 -77081,77539 -184442,125714 -301898,125714l-1188321 0c-444130,0 -848342,-181689 -1141064,-474411 -293180,-292721 -474870,-696934 -474870,-1141522z"/>
    <g>
     <path class="fil2" d="M46006840 13416559l0 -769427c0,-444129 181690,-848342 474870,-1141063 292722,-293181 696476,-474870 1141064,-474870l1188321 0c117456,0 224359,48175 301898,125714 77539,77540 125714,184443 125714,301898l0 3146069c0,117456 -48175,224359 -125714,301898 -77081,77539 -184442,125714 -301898,125714l-1188321 0c-444130,0 -848342,-181689 -1141064,-474411 -293180,-292721 -474870,-696934 -474870,-1141522zm153702 -769427l0 769427c0,401919 164713,767591 429906,1032784 264734,264734 630407,429447 1032326,429447l1188321 0c75245,0 143608,-31199 193159,-80750 49552,-49093 80292,-117915 80292,-193160l0 -3146069c0,-75245 -30740,-143608 -80292,-193159 -49551,-49552 -117914,-80292 -193159,-80292l-1188321 0c-401919,0 -767592,164254 -1032326,429447 -265193,264734 -429906,629948 -429906,1032325z"/>
     <path class="fil2" d="M46467028 13416559c0,317497 130303,606090 339979,815766 209677,209677 498728,339979 815767,339979l462940 0 0 -3080458 -462940 0c-317498,0 -606090,129843 -815767,339520 -209676,209677 -339979,498728 -339979,815766l0 769427zm231241 924505c-237205,-237206 -384943,-564338 -384943,-924505l0 -769427c0,-359708 147738,-687299 384943,-924504 237205,-237206 564797,-384943 924505,-384943l495516 0c33493,0 63775,13764 85339,35787 22023,21564 35787,52305 35787,85339l0 3146069c0,33034 -13764,63316 -35787,84880 -22482,22482 -52764,36246 -85339,36246l-495516 0c-359708,0 -687300,-147278 -924505,-384942z"/>
     <path class="fil1" d="M48367883 12901314c46799,-88551 139479,-148655 246382,-148655 154160,0 279416,125255 279416,279416 0,154161 -125256,278957 -279416,278957 -106903,0 -199583,-60104 -246382,-148655l-657476 0 0 -261063 657476 0z"/>
     <path class="fil1" d="M46767091 13032075c0,-172972 139937,-313368 312909,-313368 172972,0 313368,140396 313368,313368 0,172513 -140396,312909 -313368,312909 -172972,0 -312909,-140396 -312909,-312909zm122044 0c0,-105527 85338,-191324 190865,-191324 105527,0 190865,85797 190865,191324 0,105527 -85338,190866 -190865,190866 -105527,0 -190865,-85339 -190865,-190866z"/>
    </g>
   </g>
  </g>
 </g>
</svg>
