<?xml version="1.0" encoding="UTF-8"?>
<!DOCTYPE svg PUBLIC "-//W3C//DTD SVG 1.0//EN" "http://www.w3.org/TR/2001/REC-SVG-20010904/DTD/svg10.dtd">
<!-- Creator: CorelDRAW X7 -->
<svg xmlns="http://www.w3.org/2000/svg" xml:space="preserve" width="193px" height="147px" version="1.0" style="shape-rendering:geometricPrecision; text-rendering:geometricPrecision; image-rendering:optimizeQuality; fill-rule:evenodd; clip-rule:evenodd"
viewBox="0 0 3906766 2977327"
 xmlns:xlink="http://www.w3.org/1999/xlink">
 <defs>
  <style type="text/css">
   <![CDATA[
    .fil1 {fill:#5B5B5B}
    .fil0 {fill:#C7F5CB}
    .fil2 {fill:#FEFEFE}
    .fil3 {fill:#5B5B5B;fill-rule:nonzero}
   ]]>
  </style>
 </defs>
 <g id="Слой_x0020_1">
  <metadata id="CorelCorpID_0Corel-Layer"/>
  <g id="_1035037792">
   <polygon class="fil0" points="1596405,0 502679,0 502679,1529 499741,1529 499741,532756 700053,532756 700053,1229345 499741,1229345 499741,1294730 112280,1294730 112280,1294730 86073,1294730 86073,1294730 63904,1294730 63904,1294730 48065,1294730 48065,1294730 48065,1353116 48065,2816457 48065,2842162 48065,2874866 499741,2874866 499741,2919826 502679,2919826 700053,2919826 2115281,2919826 2115281,2165042 2386090,2165042 2386090,2919826 3807458,2919826 3902920,2919826 3906766,2919826 3906766,200312 3906766,1529 3906766,0 3427832,0 3427832,200312 2689748,200312 2689748,0 2334513,0 2334513,200312 1596405,200312 "/>
   <path class="fil1" d="M1662387 0l-20091 0 -1139617 0 0 1529 -2938 0 0 571982 0 14573 0 609130 0 20975 0 76541 -435550 0 0 0 -26207 0 0 0 -22145 0 0 0 -15839 0 0 0 0 58386 0 1463341 0 25705 0 32704 499741 0 0 44960 2938 0 197374 0 2551285 0 0 -9365 22504 0 304828 66866 1696 -7835 -306309 -67177 0 -21715 -22719 0 0 -56021 0 -686555 -12470 0 -26302 0 -342358 0 0 2603 -18777 0 -216700 -66866 -1697 7836 218182 67177 0 21715 18992 0 0 4229 342358 0 0 649861 -806361 0 0 -649861 205114 0 0 -4229 21285 0 0 -29862 -21285 0 0 -2603 -205114 0 -38748 0 -231058 0 -5208 0 0 -22194 66866 -304828 -7835 -1696 -67177 306309 -21715 0 0 22409 -3679 0 0 686555 -1397598 0 0 -282085 -82179 0 0 -347327 -38844 0 0 -323223 28093 0 49762 313428 7883 -1242 -49570 -312186 2676 0 0 -36551 82179 0 0 -102676 1397598 0 0 52891 3679 0 0 23244 29861 0 0 -23244 5208 0 0 -52891 0 -4443 23268 0 0 -29862 -23268 0 0 -2389 -1436346 0 0 -477834 0 -20975 0 -609130 0 -14573 0 -373199 942243 0 20091 0 615939 0 8648 0 203943 0 0 1495711 0 2389 -24272 0 -304852 -66866 -1696 7836 306309 67176 0 21716 24511 0 0 4443 38748 0 545537 0 0 -4443 22002 0 0 -29862 -22002 0 0 -2389 -545537 0 0 -1495711 209605 0 15504 0 608032 0 21166 0 423486 0 0 1495711 -374059 0 0 2389 -25204 0 -304851 -66866 -1673 7836 306309 67176 0 21716 25419 0 0 4443 374059 0 0 1091862 -174751 0 0 60034 -19852 0 0 29862 19852 0 0 5351 174751 0 95462 0 3846 0 0 -2719514 0 -198783 0 -1529 -522794 0 -21166 0 -608032 0 -15504 0 -452296 0 -8648 0 -615939 0zm-1162646 1353116l0 482277 66126 0 0 36551 0 323223 0 347327 -66126 0 0 273963 -435550 0 0 -1463341 435550 0zm-461757 1463341l0 -1463341 -22145 0 0 1463341 22145 0zm469640 -2228373l80125 0 0 609130 -80125 0 0 -609130zm104206 0l80339 0 0 609130 -80339 0 0 -609130zm2142944 -395655l0 -80340 608032 0 0 80340 -608032 0zm0 -104421l0 -80125 608032 0 0 80125 -608032 0zm-1092387 104421l0 -80340 615939 0 0 80340 -615939 0zm0 -104421l0 -80125 615939 0 0 80125 -615939 0zm643435 2086710l47038 32800 14597 103823 0 -136623 -61635 0zm61635 165338l-3966 549 -18060 -128501 -40230 -28046 0 157144 62256 0 0 -1146zm-55113 150263l40516 28238 14597 103823 0 -132061 -55113 0zm51075 160776l-17988 -127975 -40230 -28047 0 156022 58218 0zm-209342 -160776l82586 33732 23387 110512 0 -144244 -105973 0zm101291 160776l-25657 -121263 -93312 -38127 0 159390 118969 0zm-108434 -476377l89729 36670 23387 110488 0 -147158 -113116 0zm109031 166484l-26254 -124033 -93312 -38127 0 162160 119566 0zm-119566 346587l123651 0 45151 0 62256 0 0 136790 -231058 0 0 -136790z"/>
   <polygon class="fil2" points="756384,263929 1357368,263929 1357368,744702 756384,744702 "/>
   <path class="fil3" d="M951321 263929l9818 0 396229 0 0 153848 0 19254 0 134569 0 19279 0 153823 -396229 0 -19613 0 -185142 0 0 -480773 9795 0 175347 0 9795 0zm-9795 461518l0 -134568 0 -19279 0 -134569 0 -19254 0 -134569 -165529 0 0 442239 165529 0zm396229 -134568l-376616 0 0 134568 376616 0 0 -134568zm0 -153848l-376616 0 0 134569 376616 0 0 -134569zm0 -153823l-376616 0 0 134569 376616 0 0 -134569z"/>
   <path class="fil3" d="M890140 497161l-44864 71572 43049 0c1935,0 3559,717 4897,2126 1362,1386 2031,3011 2031,4778 0,1601 -574,3106 -1720,4635 -1171,1529 -2915,2269 -5208,2269l-55543 0c-4993,0 -7501,-1863 -7501,-5542 0,-1457 525,-3177 1648,-5184l51315 -81797c1720,-3631 2556,-7119 2556,-10416 0,-5972 -2294,-11108 -6928,-15504 -2198,-2031 -4730,-3655 -7645,-4849 -2914,-1171 -6068,-1792 -9412,-1792 -3512,0 -6904,908 -10129,2771 -3249,2078 -5901,4706 -8051,7931 -502,884 -1409,1696 -2676,2509l-3081 669c-1744,0 -3417,-645 -4898,-1936 -1481,-1290 -2221,-2866 -2221,-4801 0,-908 406,-2270 1170,-3966 3177,-4945 7478,-9006 12924,-12136 2652,-1529 5328,-2723 8027,-3559 2700,-860 5351,-1290 7955,-1290 10822,0 19996,3583 27521,10774 7501,7167 11252,15719 11252,25681 0,5686 -1481,11371 -4468,17057z"/>
   <path class="fil3" d="M1056816 341307l-28858 46011 27688 0c1242,0 2269,478 3153,1385 860,884 1314,1935 1314,3058 0,1027 -382,2007 -1123,2986 -764,980 -1863,1458 -3344,1458l-35715 0c-3225,0 -4826,-1195 -4826,-3560 0,-956 359,-2054 1076,-3344l32967 -52581c1123,-2341 1672,-4563 1672,-6713 0,-3822 -1481,-7143 -4467,-9962 -1410,-1314 -3058,-2341 -4921,-3105 -1864,-765 -3894,-1147 -6044,-1147 -2270,0 -4444,573 -6498,1768 -2103,1338 -3823,3034 -5184,5088 -335,574 -932,1099 -1720,1625l-1983 430c-1123,0 -2198,-406 -3154,-1242 -955,-837 -1433,-1840 -1433,-3082 0,-597 263,-1457 765,-2556 2030,-3178 4801,-5782 8313,-7812 1696,-980 3416,-1744 5136,-2270 1744,-549 3440,-836 5113,-836 6975,0 12876,2294 17702,6928 4825,4611 7238,10105 7238,16508 0,3655 -956,7310 -2867,10965zm47922 1362c4038,0 7382,-1410 10034,-4205 2221,-2628 3344,-5686 3344,-9245 0,-3631 -1123,-6689 -3344,-9221 -2437,-2795 -5781,-4205 -10034,-4205 -3918,0 -7286,1410 -10057,4205 -2222,2627 -3321,5685 -3321,9221 0,3655 1099,6713 3321,9245 2437,2795 5781,4205 10057,4205zm0 8886c-5638,0 -10153,1840 -13473,5543 -2986,3368 -4492,7501 -4492,12351 0,4801 1506,8886 4492,12255 3368,3750 7883,5614 13473,5614 5638,0 10129,-1840 13450,-5543 2986,-3368 4491,-7477 4491,-12326 0,-4731 -1481,-8816 -4419,-12280 -3369,-3750 -7884,-5614 -13522,-5614zm14716 -4945c3966,2294 6976,5495 9006,9604 2079,4085 3106,8504 3106,13235 0,6999 -2246,13115 -6713,18347 -4945,5614 -11634,8409 -20139,8409 -8409,0 -15074,-2772 -20114,-8290 -4468,-4969 -6689,-11132 -6689,-18466 0,-4731 1003,-9126 2962,-13164 2007,-4085 5040,-7334 9126,-9794 -2389,-2007 -4253,-4563 -5543,-7645 -1338,-3081 -1983,-6283 -1983,-9603 0,-5949 1840,-11085 5543,-15385 4109,-4634 9675,-6952 16698,-6952 6880,0 12423,2318 16651,6952 3751,4252 5614,9389 5614,15385 0,3320 -621,6522 -1863,9603 -1266,3082 -3130,5686 -5662,7764zm29838 45151c0,-1218 430,-2269 1290,-3129 884,-860 1911,-1314 3129,-1314 980,0 1959,454 2963,1314 979,860 1481,1911 1481,3129 0,1075 -430,2079 -1290,3010 -884,956 -1935,1434 -3154,1434 -1242,0 -2341,-430 -3225,-1338 -812,-932 -1194,-1959 -1194,-3106zm53584 -49092c4037,0 7381,-1410 10033,-4205 2222,-2628 3345,-5686 3345,-9245 0,-3631 -1123,-6689 -3345,-9221 -2437,-2795 -5781,-4205 -10033,-4205 -3918,0 -7287,1410 -10058,4205 -2221,2627 -3320,5685 -3320,9221 0,3655 1099,6713 3320,9245 2437,2795 5781,4205 10058,4205zm0 8886c-5638,0 -10153,1840 -13474,5543 -2986,3368 -4491,7501 -4491,12351 0,4801 1505,8886 4491,12255 3368,3750 7884,5614 13474,5614 5638,0 10129,-1840 13449,-5543 2986,-3368 4492,-7477 4492,-12326 0,-4731 -1482,-8816 -4420,-12280 -3368,-3750 -7883,-5614 -13521,-5614zm14715 -4945c3966,2294 6976,5495 9007,9604 2078,4085 3105,8504 3105,13235 0,6999 -2245,13115 -6713,18347 -4945,5614 -11634,8409 -20138,8409 -8409,0 -15074,-2772 -20115,-8290 -4467,-4969 -6689,-11132 -6689,-18466 0,-4731 1003,-9126 2962,-13164 2007,-4085 5041,-7334 9126,-9794 -2389,-2007 -4252,-4563 -5542,-7645 -1338,-3081 -1983,-6283 -1983,-9603 0,-5949 1839,-11085 5542,-15385 4109,-4634 9675,-6952 16699,-6952 6880,0 12422,2318 16651,6952 3750,4252 5614,9389 5614,15385 0,3320 -622,6522 -1864,9603 -1266,3082 -3129,5686 -5662,7764zm74487 29958c0,5303 -1911,9914 -5709,13808 -3799,3894 -8457,5829 -13952,5829l-5351 0c-5303,0 -9914,-1888 -13808,-5686 -3894,-3775 -5829,-8433 -5829,-13951l0 -50025c0,-5208 1911,-9794 5734,-13736 3822,-3942 8456,-5901 13903,-5901l5351 0c5304,0 9938,1888 13832,5710 3894,3798 5829,8457 5829,13927l0 50025zm-8886 23l0 -50072c0,-2938 -1052,-5470 -3106,-7573 -2078,-2126 -4611,-3153 -7645,-3153l-5399 0c-2938,0 -5446,1027 -7573,3130 -2102,2078 -3177,4610 -3177,7596l0 50072c0,2939 1051,5471 3130,7573 2102,2126 4634,3154 7620,3154l5399 0c2891,0 5423,-1004 7549,-3058 2127,-2055 3202,-4587 3202,-7669z"/>
   <path class="fil3" d="M1055455 523750l8910 0c1243,0 2294,454 3154,1385 884,884 1314,1935 1314,3058 0,1027 -359,2007 -1099,2986 -741,980 -1888,1458 -3369,1458l-8910 0 0 13306c0,1385 -407,2532 -1267,3344 -812,741 -1863,1099 -3177,1099 -1170,0 -2222,-358 -3105,-1099 -908,-740 -1338,-1863 -1338,-3344l0 -13306 -26828 0c-3082,0 -4658,-1195 -4658,-3608l143 -1099 263 -1027 17845 -62542c239,-908 741,-1720 1529,-2437l836 -454c502,-263 1051,-382 1720,-382 1290,0 2389,430 3225,1290 956,788 1434,1839 1434,3130l-215 1313 -16245 56929 20951 0 0 -13426c0,-1171 430,-2270 1338,-3297 883,-764 1935,-1170 3105,-1170 1123,0 2174,382 3058,1122 932,765 1386,1864 1386,3345l0 13426zm58003 -26900c4037,0 7382,-1409 10033,-4204 2222,-2628 3345,-5686 3345,-9245 0,-3632 -1123,-6689 -3345,-9222 -2436,-2795 -5781,-4204 -10033,-4204 -3918,0 -7286,1409 -10058,4204 -2221,2628 -3320,5686 -3320,9222 0,3655 1099,6713 3320,9245 2437,2795 5782,4204 10058,4204zm0 8887c-5638,0 -10153,1840 -13474,5542 -2986,3369 -4491,7502 -4491,12351 0,4802 1505,8887 4491,12255 3369,3751 7884,5614 13474,5614 5638,0 10129,-1839 13450,-5542 2986,-3368 4491,-7477 4491,-12327 0,-4730 -1481,-8815 -4420,-12279 -3368,-3750 -7883,-5614 -13521,-5614zm14716 -4945c3965,2293 6975,5495 9006,9604 2078,4085 3106,8504 3106,13234 0,7000 -2246,13116 -6713,18347 -4945,5614 -11634,8409 -20139,8409 -8409,0 -15074,-2771 -20115,-8289 -4467,-4969 -6689,-11133 -6689,-18467 0,-4730 1003,-9125 2962,-13163 2007,-4085 5041,-7334 9126,-9794 -2389,-2007 -4252,-4563 -5542,-7645 -1338,-3082 -1983,-6283 -1983,-9603 0,-5949 1839,-11085 5542,-15385 4109,-4635 9676,-6952 16699,-6952 6880,0 12422,2317 16651,6952 3750,4252 5614,9388 5614,15385 0,3320 -621,6521 -1864,9603 -1266,3082 -3129,5686 -5661,7764zm29837 45151c0,-1218 430,-2270 1290,-3130 884,-860 1912,-1314 3130,-1314 979,0 1959,454 2962,1314 980,860 1481,1912 1481,3130 0,1075 -430,2078 -1290,3010 -884,956 -1935,1433 -3153,1433 -1242,0 -2341,-430 -3225,-1337 -812,-932 -1195,-1959 -1195,-3106zm68133 -50454l-28858 46010 27687 0c1243,0 2270,478 3154,1386 860,884 1314,1935 1314,3058 0,1027 -383,2007 -1123,2986 -765,980 -1864,1457 -3345,1457l-35714 0c-3225,0 -4826,-1194 -4826,-3559 0,-956 358,-2055 1075,-3345l32967 -52580c1123,-2341 1673,-4563 1673,-6713 0,-3822 -1482,-7143 -4468,-9962 -1409,-1314 -3058,-2341 -4921,-3105 -1863,-765 -3894,-1147 -6044,-1147 -2269,0 -4443,573 -6498,1768 -2102,1337 -3822,3034 -5184,5088 -334,573 -931,1099 -1720,1625l-1983 430c-1122,0 -2197,-407 -3153,-1243 -956,-836 -1433,-1839 -1433,-3081 0,-598 262,-1458 764,-2557 2031,-3177 4802,-5781 8314,-7811 1696,-980 3416,-1744 5136,-2270 1744,-549 3440,-836 5112,-836 6976,0 12876,2293 17702,6928 4826,4611 7239,10105 7239,16507 0,3655 -956,7311 -2867,10966zm30148 10248l-191 4467 0 22361c0,2508 860,4634 2580,6402 884,765 1840,1386 2867,1911 1290,406 2460,621 3535,621l8959 0c2484,0 4587,-812 6331,-2484 1767,-1672 2627,-3822 2627,-6450l0 -17893c0,-2509 -836,-4635 -2532,-6355 -1696,-1720 -3822,-2580 -6426,-2580l-17750 0zm1577 -8887l16149 0c4850,0 9030,1744 12566,5208 3535,3464 5303,7693 5303,12638l0 17845c0,4897 -1744,9078 -5231,12590 -3512,3488 -7693,5255 -12638,5255l-8935 0c-4801,0 -8982,-1720 -12518,-5160 -3559,-3440 -5327,-7668 -5327,-12685l0 -22289c0,-8480 1601,-16507 4850,-24128 2197,-5256 5446,-10057 9747,-14405 4276,-4324 9269,-7717 14906,-10177l1912 -454c1146,0 2197,454 3129,1386 765,979 1147,2078 1147,3272 0,837 -191,1553 -574,2174 -382,598 -1098,1195 -2150,1840 -1218,454 -2269,955 -3225,1433 -955,502 -2006,1123 -3105,1887 -1816,1243 -3679,2748 -5614,4587 -3464,3488 -6140,7478 -8027,11993l-1338 3559 -1027 3631z"/>
   <path class="fil3" d="M1059898 677478l8911 0c1242,0 2293,453 3153,1385 884,884 1314,1935 1314,3058 0,1027 -358,2007 -1099,2986 -740,980 -1887,1457 -3368,1457l-8911 0 0 13307c0,1385 -406,2532 -1266,3344 -812,741 -1864,1099 -3177,1099 -1171,0 -2222,-358 -3106,-1099 -908,-740 -1338,-1863 -1338,-3344l0 -13307 -26828 0c-3081,0 -4658,-1194 -4658,-3607l143 -1099 263 -1027 17845 -62542c239,-908 741,-1720 1529,-2437l837 -454c501,-263 1051,-382 1720,-382 1290,0 2388,430 3225,1290 955,788 1433,1839 1433,3129l-215 1314 -16245 56929 20951 0 0 -13426c0,-1171 430,-2270 1338,-3297 884,-764 1935,-1171 3106,-1171 1122,0 2173,383 3057,1123 932,765 1386,1864 1386,3345l0 13426zm66818 -18013l120 -2054 0 -2437 0 -22337c0,-2532 -836,-4634 -2532,-6354 -1697,-1720 -3823,-2580 -6427,-2580l-8958 0c-2532,0 -4659,836 -6402,2532 -860,884 -1505,1839 -1935,2914 -430,1099 -645,2246 -645,3488l0 17893c0,2485 860,4635 2580,6379 883,764 1863,1409 2890,1935 1290,406 2461,621 3512,621l17797 0zm-1672 8887l-16125 0c-4802,0 -8982,-1720 -12518,-5160 -3560,-3440 -5327,-7693 -5327,-12685l0 -17846c0,-4921 1720,-9149 5207,-12613 3512,-3488 7717,-5232 12638,-5232l8935 0c4968,0 9197,1744 12661,5232 3464,3487 5208,7692 5208,12637l0 22265c0,8576 -1625,16603 -4850,24104 -2341,5566 -5614,10512 -9866,14788 -4229,4300 -9174,7597 -14811,9890l-1936 382c-1003,0 -1982,-478 -2914,-1433 -908,-956 -1362,-2055 -1362,-3225 0,-741 191,-1434 598,-2103 358,-692 1075,-1290 2150,-1791 2269,-908 4347,-1983 6306,-3273 1959,-1266 3823,-2843 5614,-4706 3297,-3416 5973,-7454 8027,-12088l1219 -3393 1146 -3750zm28500 31319c0,-1219 430,-2270 1290,-3130 884,-860 1911,-1314 3130,-1314 979,0 1959,454 2962,1314 979,860 1481,1911 1481,3130 0,1075 -430,2078 -1290,3010 -884,955 -1935,1433 -3153,1433 -1243,0 -2341,-430 -3225,-1338 -813,-931 -1195,-1959 -1195,-3105zm35619 -75968l0 26875 13426 0c6068,0 11347,2174 15743,6546 4420,4348 6617,9603 6617,15767l0 8911c0,6091 -2197,11323 -6569,15719 -4372,4395 -9651,6593 -15767,6593l-17869 0c-1338,0 -2461,-406 -3297,-1266 -765,-884 -1147,-1959 -1147,-3177 0,-1051 382,-2055 1171,-3010 812,-956 1887,-1434 3297,-1434l17893 0c3655,0 6808,-1266 9436,-3822 2628,-2556 3966,-5733 3966,-9603l0 -8935c0,-3703 -1290,-6856 -3871,-9460 -2580,-2628 -5757,-3942 -9531,-3942l-17893 0c-2987,0 -4468,-1481 -4468,-4467l0 -35715c0,-2986 1481,-4467 4444,-4467l35738 0c1218,0 2293,454 3153,1362 860,907 1314,1935 1314,3081 0,1027 -382,2007 -1122,2986 -765,980 -1864,1458 -3345,1458l-31319 0zm98257 60774c0,5304 -1911,9914 -5710,13808 -3798,3894 -8456,5829 -13951,5829l-5351 0c-5304,0 -9914,-1887 -13808,-5685 -3894,-3775 -5829,-8433 -5829,-13952l0 -50024c0,-5208 1911,-9795 5733,-13736 3823,-3942 8457,-5901 13904,-5901l5351 0c5303,0 9938,1887 13832,5709 3894,3799 5829,8457 5829,13928l0 50024zm-8887 24l0 -50072c0,-2938 -1051,-5471 -3105,-7573 -2079,-2126 -4611,-3153 -7645,-3153l-5399 0c-2938,0 -5447,1027 -7573,3129 -2102,2079 -3177,4611 -3177,7597l0 50072c0,2938 1051,5471 3129,7573 2103,2126 4635,3153 7621,3153l5399 0c2891,0 5423,-1003 7549,-3058 2126,-2054 3201,-4586 3201,-7668z"/>
   <path class="fil3" d="M1427196 1068785l32586 -32299c764,-692 1648,-1051 2651,-1051 956,0 1840,383 2676,1171 836,788 1266,1720 1266,2795 0,669 -406,1529 -1171,2604l-23029 22958 23746 41997 550 2054c0,1004 -430,1840 -1267,2580 -788,765 -1720,1171 -2842,1171 -1243,0 -2318,-669 -3249,-2031l-22695 -40325 -9222 9054 0 29432c0,1218 -358,2198 -1098,2938 -693,622 -1625,932 -2748,932 -1027,0 -1935,-310 -2699,-956 -765,-668 -1147,-1624 -1147,-2914l0 -69709c0,-980 382,-1863 1195,-2628 764,-764 1672,-1123 2651,-1123 980,0 1888,287 2700,884 764,645 1146,1625 1146,2867l0 29599zm96561 28500c0,4252 -1505,7883 -4515,10917 -3010,3034 -6665,4563 -10917,4563l-15457 0c-4204,0 -7835,-1505 -10869,-4515 -3058,-2986 -4587,-6641 -4587,-10965l0 -46393c0,-4300 1505,-7955 4491,-10965 3010,-2987 6665,-4492 10965,-4492l15457 0c4276,0 7931,1505 10941,4515 2986,3034 4491,6666 4491,10942l0 46393zm-7668 48l0 -46465c0,-2198 -741,-4014 -2198,-5519 -1457,-1481 -3321,-2245 -5566,-2245l-15481 0c-2174,0 -4013,740 -5542,2221 -741,741 -1290,1577 -1648,2509 -359,955 -550,1959 -550,3034l0 46465c0,2173 717,4013 2198,5542 788,645 1624,1194 2508,1648 1099,359 2103,550 3034,550l15481 0c2150,0 3965,-717 5494,-2174 1505,-1434 2270,-3297 2270,-5566zm83493 11562c0,1218 -335,2198 -1027,2938 -741,622 -1697,932 -2819,932 -884,0 -1744,-310 -2580,-956 -860,-668 -1266,-1624 -1266,-2914l0 -55184 -15982 26708c-956,1672 -2079,2484 -3369,2484 -1123,0 -2222,-812 -3344,-2484l-16078 -26708 0 55184c0,1218 -358,2198 -1099,2938 -693,622 -1624,932 -2747,932 -1027,0 -1935,-310 -2700,-956 -764,-645 -1146,-1624 -1146,-2914l0 -69231c0,-1458 382,-2556 1099,-3297 669,-764 1481,-1171 2436,-1171 693,0 1314,192 1864,550 549,382 1146,1027 1768,1935l19947 33134 19852 -33134c884,-1648 2126,-2485 3703,-2485 884,0 1720,407 2485,1219 668,836 1003,1935 1003,3249l0 69231zm54085 -42499l0 -27115c0,-1027 359,-1935 1147,-2699 764,-788 1672,-1147 2676,-1147 979,0 1887,311 2675,956 789,645 1171,1624 1171,2890l0 69518c0,1099 -382,2079 -1195,2915 -931,693 -1815,1051 -2699,1051 -932,0 -1840,-310 -2700,-932 -716,-621 -1075,-1600 -1075,-2890l0 -34855 -30984 0 0 34807c0,1218 -358,2198 -1099,2938 -693,622 -1625,932 -2747,932 -1028,0 -1935,-310 -2700,-956 -764,-645 -1147,-1624 -1147,-2914l0 -69566c0,-1027 383,-1983 1147,-2866 765,-669 1672,-1004 2700,-1004 979,0 1887,335 2651,980 789,645 1195,1600 1195,2914l0 27043 30984 0zm36718 27043l-5590 16674c-287,813 -764,1458 -1433,1983 -502,335 -1219,550 -2079,669 -1051,0 -1935,-382 -2723,-1123 -836,-645 -1266,-1529 -1266,-2628l263 -1385 23268 -69566c764,-2198 1983,-3320 3631,-3320 1648,0 2867,1122 3631,3320l23149 69566 287 1385c0,1004 -430,1888 -1290,2700 -813,693 -1720,1051 -2700,1051 -525,0 -1075,-143 -1744,-406 -645,-239 -1242,-980 -1791,-2246l-5567 -16674 -28046 0zm25466 -7932l-11395 -34018 -11419 34018 22814 0zm34401 -42403l-15457 0c-1170,0 -2150,-335 -2866,-1027 -669,-837 -1004,-1792 -1004,-2796 0,-907 311,-1743 956,-2603 645,-837 1624,-1243 2914,-1243l38630 0c1075,0 1958,383 2723,1171 764,788 1123,1696 1123,2675 0,884 -311,1721 -956,2581 -645,836 -1624,1242 -2890,1242l-15481 0 0 65791c0,1218 -358,2198 -1099,2938 -692,622 -1624,932 -2747,932 -1003,0 -1911,-310 -2699,-956 -765,-668 -1147,-1624 -1147,-2914l0 -65791zm40612 50335l-5590 16674c-287,813 -765,1458 -1434,1983 -501,335 -1218,550 -2078,669 -1051,0 -1935,-382 -2723,-1123 -837,-645 -1267,-1529 -1267,-2628l263 -1385 23268 -69566c765,-2198 1983,-3320 3632,-3320 1648,0 2866,1122 3631,3320l23149 69566 286 1385c0,1004 -430,1888 -1290,2700 -812,693 -1720,1051 -2699,1051 -526,0 -1075,-143 -1744,-406 -645,-239 -1243,-980 -1792,-2246l-5566 -16674 -28046 0zm25466 -7932l-11395 -34018 -11420 34018 22815 0zm-275898 115242c0,1219 -358,2198 -1099,2939 -693,621 -1601,932 -2747,932 -1004,0 -1911,-311 -2700,-956 -764,-645 -1146,-1624 -1146,-2915l0 -60272 -8863 8863c-789,788 -1673,1170 -2676,1170 -908,0 -1816,-382 -2676,-1170 -812,-813 -1242,-1720 -1242,-2772 0,-883 406,-1767 1171,-2651l15432 -15504c502,-526 1051,-932 1601,-1267 549,-310 1146,-477 1791,-477 646,0 1386,406 2222,1170 621,812 932,1911 932,3273l0 69637zm23340 -34806l-167 3870 0 19374c0,2174 716,4013 2221,5542 765,645 1601,1195 2485,1649 1099,358 2126,549 3058,549l7764 0c2150,0 3965,-716 5470,-2174 1529,-1433 2294,-3296 2294,-5566l0 -15480c0,-2198 -741,-4014 -2198,-5519 -1457,-1481 -3321,-2245 -5566,-2245l-15361 0zm1361 -7693l13976 0c4204,0 7812,1529 10893,4515 3058,2987 4587,6642 4587,10942l0 15456c0,4252 -1529,7860 -4539,10894 -3034,3034 -6665,4563 -10941,4563l-7740 0c-4157,0 -7764,-1482 -10846,-4468 -3058,-2986 -4611,-6641 -4611,-10989l0 -19302c0,-7334 1386,-14286 4205,-20880 1887,-4563 4730,-8743 8433,-12494 3726,-3750 8026,-6689 12924,-8815l1648 -382c1003,0 1911,382 2724,1194 645,860 979,1792 979,2819 0,741 -167,1362 -502,1887 -310,526 -931,1052 -1863,1601 -1027,406 -1959,812 -2795,1242 -836,430 -1720,980 -2676,1625 -1576,1075 -3201,2389 -4849,3989 -3034,3010 -5351,6474 -6952,10368l-1171 3106 -884 3129zm44889 42523c0,-1051 382,-1959 1122,-2723 765,-741 1673,-1123 2724,-1123 836,0 1696,382 2556,1123 860,764 1290,1672 1290,2723 0,932 -382,1792 -1147,2604 -740,836 -1648,1243 -2699,1243 -1099,0 -2031,-383 -2819,-1147 -693,-812 -1027,-1720 -1027,-2700zm46393 -42523c3511,0 6426,-1218 8719,-3655 1911,-2245 2891,-4897 2891,-7979 0,-3153 -980,-5805 -2891,-7979 -2102,-2436 -5017,-3679 -8719,-3679 -3393,0 -6283,1243 -8696,3679 -1911,2246 -2891,4898 -2891,7979 0,3154 980,5805 2891,7979 2102,2437 5017,3655 8696,3655zm0 7693c-4874,0 -8768,1600 -11658,4801 -2580,2939 -3870,6498 -3870,10703 0,4157 1290,7692 3870,10631 2914,3225 6832,4849 11658,4849 4897,0 8791,-1600 11681,-4802 2581,-2914 3871,-6474 3871,-10678 0,-4085 -1267,-7645 -3823,-10631 -2914,-3249 -6832,-4873 -11729,-4873zm12780 -4276c3417,1982 6020,4754 7788,8313 1792,3536 2676,7382 2676,11467 0,6068 -1935,11347 -5805,15886 -4276,4850 -10081,7287 -17439,7287 -7287,0 -13068,-2389 -17416,-7191 -3870,-4276 -5805,-9628 -5805,-15982 0,-4085 860,-7907 2580,-11419 1720,-3512 4348,-6331 7884,-8457 -2055,-1744 -3655,-3942 -4802,-6617 -1147,-2676 -1720,-5447 -1720,-8314 0,-5160 1624,-9627 4826,-13330 3559,-4014 8385,-6020 14453,-6020 5948,0 10750,2006 14429,6020 3249,3679 4849,8122 4849,13330 0,2867 -525,5638 -1600,8314 -1099,2675 -2724,4921 -4898,6713zm64502 25943c0,4587 -1649,8577 -4946,11969 -3296,3368 -7334,5041 -12088,5041l-4634 0c-4587,0 -8600,-1649 -11969,-4922 -3368,-3272 -5040,-7310 -5040,-12088l0 -43311c0,-4515 1648,-8505 4969,-11921 3320,-3392 7334,-5088 12040,-5088l4634 0c4611,0 8601,1624 11969,4921 3368,3297 5065,7334 5065,12088l0 43311zm-7693 24l0 -43383c0,-2532 -908,-4730 -2699,-6545 -1792,-1840 -3990,-2748 -6618,-2748l-4682 0c-2532,0 -4730,908 -6546,2724 -1839,1815 -2747,3989 -2747,6569l0 43383c0,2556 908,4730 2700,6570 1815,1815 4013,2723 6593,2723l4682 0c2509,0 4683,-884 6546,-2652 1840,-1767 2771,-3989 2771,-6641z"/>
   <path class="fil3" d="M2996606 1068785l32585 -32299c765,-692 1649,-1051 2652,-1051 955,0 1839,383 2675,1171 837,788 1267,1720 1267,2795 0,669 -407,1529 -1171,2604l-23029 22958 23746 41997 549 2054c0,1004 -430,1840 -1266,2580 -788,765 -1720,1171 -2843,1171 -1242,0 -2317,-669 -3249,-2031l-22695 -40325 -9221 9054 0 29432c0,1218 -358,2198 -1099,2938 -693,622 -1624,932 -2747,932 -1027,0 -1935,-310 -2700,-956 -764,-668 -1146,-1624 -1146,-2914l0 -69709c0,-980 382,-1863 1194,-2628 765,-764 1672,-1123 2652,-1123 979,0 1887,287 2699,884 765,645 1147,1625 1147,2867l0 29599zm96561 28500c0,4252 -1505,7883 -4515,10917 -3010,3034 -6665,4563 -10918,4563l-15456 0c-4205,0 -7836,-1505 -10870,-4515 -3058,-2986 -4587,-6641 -4587,-10965l0 -46393c0,-4300 1506,-7955 4492,-10965 3010,-2987 6665,-4492 10965,-4492l15456 0c4276,0 7932,1505 10942,4515 2986,3034 4491,6666 4491,10942l0 46393zm-7669 48l0 -46465c0,-2198 -740,-4014 -2198,-5519 -1457,-1481 -3320,-2245 -5566,-2245l-15480 0c-2174,0 -4013,740 -5542,2221 -741,741 -1290,1577 -1649,2509 -358,955 -549,1959 -549,3034l0 46465c0,2173 717,4013 2198,5542 788,645 1624,1194 2508,1648 1099,359 2102,550 3034,550l15480 0c2150,0 3966,-717 5495,-2174 1505,-1434 2269,-3297 2269,-5566zm83494 11562c0,1218 -335,2198 -1028,2938 -740,622 -1696,932 -2819,932 -884,0 -1744,-310 -2580,-956 -860,-668 -1266,-1624 -1266,-2914l0 -55184 -15982 26708c-955,1672 -2078,2484 -3368,2484 -1123,0 -2222,-812 -3345,-2484l-16077 -26708 0 55184c0,1218 -359,2198 -1099,2938 -693,622 -1625,932 -2747,932 -1028,0 -1935,-310 -2700,-956 -764,-645 -1147,-1624 -1147,-2914l0 -69231c0,-1458 383,-2556 1099,-3297 669,-764 1481,-1171 2437,-1171 693,0 1314,192 1863,550 550,382 1147,1027 1768,1935l19948 33134 19852 -33134c884,-1648 2126,-2485 3703,-2485 884,0 1720,407 2484,1219 669,836 1004,1935 1004,3249l0 69231zm54085 -42499l0 -27115c0,-1027 358,-1935 1147,-2699 764,-788 1672,-1147 2675,-1147 980,0 1888,311 2676,956 788,645 1170,1624 1170,2890l0 69518c0,1099 -382,2079 -1194,2915 -932,693 -1816,1051 -2700,1051 -931,0 -1839,-310 -2699,-932 -717,-621 -1075,-1600 -1075,-2890l0 -34855 -30984 0 0 34807c0,1218 -359,2198 -1099,2938 -693,622 -1625,932 -2748,932 -1027,0 -1935,-310 -2699,-956 -765,-645 -1147,-1624 -1147,-2914l0 -69566c0,-1027 382,-1983 1147,-2866 764,-669 1672,-1004 2699,-1004 980,0 1888,335 2652,980 788,645 1195,1600 1195,2914l0 27043 30984 0zm36718 27043l-5590 16674c-287,813 -765,1458 -1434,1983 -501,335 -1218,550 -2078,669 -1051,0 -1935,-382 -2723,-1123 -836,-645 -1266,-1529 -1266,-2628l262 -1385 23269 -69566c764,-2198 1982,-3320 3631,-3320 1648,0 2866,1122 3631,3320l23149 69566 286 1385c0,1004 -430,1888 -1290,2700 -812,693 -1720,1051 -2699,1051 -526,0 -1075,-143 -1744,-406 -645,-239 -1242,-980 -1792,-2246l-5566 -16674 -28046 0zm25466 -7932l-11395 -34018 -11419 34018 22814 0zm34401 -42403l-15457 0c-1170,0 -2150,-335 -2867,-1027 -668,-837 -1003,-1792 -1003,-2796 0,-907 311,-1743 956,-2603 645,-837 1624,-1243 2914,-1243l38629 0c1075,0 1959,383 2724,1171 764,788 1122,1696 1122,2675 0,884 -310,1721 -955,2581 -645,836 -1625,1242 -2891,1242l-15480 0 0 65791c0,1218 -358,2198 -1099,2938 -693,622 -1624,932 -2747,932 -1004,0 -1911,-310 -2700,-956 -764,-668 -1146,-1624 -1146,-2914l0 -65791zm40611 50335l-5590 16674c-286,813 -764,1458 -1433,1983 -502,335 -1218,550 -2078,669 -1052,0 -1935,-382 -2724,-1123 -836,-645 -1266,-1529 -1266,-2628l263 -1385 23268 -69566c764,-2198 1983,-3320 3631,-3320 1649,0 2867,1122 3631,3320l23149 69566 287 1385c0,1004 -430,1888 -1290,2700 -812,693 -1720,1051 -2700,1051 -525,0 -1075,-143 -1744,-406 -645,-239 -1242,-980 -1791,-2246l-5567 -16674 -28046 0zm25466 -7932l-11395 -34018 -11419 34018 22814 0zm-272051 115242c0,1219 -359,2198 -1099,2939 -693,621 -1601,932 -2747,932 -1004,0 -1912,-311 -2700,-956 -764,-645 -1147,-1624 -1147,-2915l0 -60272 -8863 8863c-788,788 -1672,1170 -2675,1170 -908,0 -1816,-382 -2676,-1170 -812,-813 -1242,-1720 -1242,-2772 0,-883 406,-1767 1171,-2651l15432 -15504c502,-526 1051,-932 1601,-1267 549,-310 1146,-477 1791,-477 645,0 1386,406 2222,1170 621,812 932,1911 932,3273l0 69637zm51314 -43669l-24988 39847 23985 0c1075,0 1959,406 2723,1195 764,764 1123,1672 1123,2651 0,884 -311,1744 -956,2580 -669,860 -1624,1267 -2890,1267l-30937 0c-2795,0 -4181,-1028 -4181,-3082 0,-812 311,-1792 932,-2891l28572 -45557c955,-2006 1409,-3941 1409,-5805 0,-3297 -1266,-6163 -3846,-8624 -1218,-1123 -2652,-2030 -4276,-2699 -1601,-645 -3369,-1004 -5232,-1004 -1959,0 -3846,526 -5638,1553 -1792,1147 -3297,2628 -4467,4420 -287,477 -812,931 -1505,1385l-1720 382c-980,0 -1888,-358 -2724,-1075 -836,-716 -1242,-1600 -1242,-2675 0,-502 239,-1266 669,-2198 1768,-2771 4157,-5017 7191,-6785 1481,-836 2962,-1505 4467,-1959 1505,-477 2986,-716 4420,-716 6044,0 11156,1983 15336,5972 4181,4014 6259,8768 6259,14310 0,3177 -812,6331 -2484,9508zm18275 43693c0,-1051 383,-1959 1123,-2723 765,-741 1672,-1123 2724,-1123 836,0 1696,382 2556,1123 860,764 1290,1672 1290,2723 0,932 -383,1792 -1147,2604 -741,836 -1648,1243 -2699,1243 -1099,0 -2031,-383 -2819,-1147 -693,-812 -1028,-1720 -1028,-2700zm61850 -13163c0,4587 -1649,8577 -4945,11969 -3297,3368 -7334,5041 -12088,5041l-4635 0c-4587,0 -8600,-1649 -11968,-4922 -3369,-3272 -5041,-7310 -5041,-12088l0 -43311c0,-4515 1648,-8505 4969,-11921 3321,-3392 7334,-5088 12040,-5088l4635 0c4610,0 8600,1624 11968,4921 3369,3297 5065,7334 5065,12088l0 43311zm-7693 24l0 -43383c0,-2532 -907,-4730 -2699,-6545 -1792,-1840 -3990,-2748 -6617,-2748l-4683 0c-2532,0 -4730,908 -6545,2724 -1840,1815 -2748,3989 -2748,6569l0 43383c0,2556 908,4730 2700,6570 1815,1815 4013,2723 6593,2723l4683 0c2508,0 4682,-884 6545,-2652 1840,-1767 2771,-3989 2771,-6641zm61802 -24c0,4587 -1648,8577 -4945,11969 -3297,3368 -7334,5041 -12088,5041l-4634 0c-4587,0 -8601,-1649 -11969,-4922 -3368,-3272 -5041,-7310 -5041,-12088l0 -43311c0,-4515 1649,-8505 4969,-11921 3321,-3392 7334,-5088 12041,-5088l4634 0c4611,0 8600,1624 11969,4921 3368,3297 5064,7334 5064,12088l0 43311zm-7692 24l0 -43383c0,-2532 -908,-4730 -2700,-6545 -1791,-1840 -3989,-2748 -6617,-2748l-4682 0c-2533,0 -4730,908 -6546,2724 -1840,1815 -2747,3989 -2747,6569l0 43383c0,2556 907,4730 2699,6570 1816,1815 4014,2723 6594,2723l4682 0c2508,0 4682,-884 6546,-2652 1839,-1767 2771,-3989 2771,-6641z"/>
   <path class="fil3" d="M115027 1958304l0 30985 23221 0c2150,0 3965,-717 5494,-2174 1505,-1434 2270,-3297 2270,-5567l0 -15480c0,-2198 -741,-4013 -2198,-5518 -1457,-1481 -3321,-2246 -5566,-2246l-23221 0zm0 -7692l23197 0c4204,0 7811,1529 10893,4515 3034,2986 4563,6641 4563,10941l0 15457c0,4252 -1505,7859 -4515,10893 -3010,3034 -6665,4563 -10917,4563l-27043 0c-2604,0 -3870,-1290 -3870,-3870l0 -69614c0,-2580 1266,-3846 3870,-3846l30913 0c1051,0 1982,382 2723,1171 764,788 1147,1696 1147,2675 0,884 -335,1720 -980,2580 -645,836 -1600,1243 -2914,1243l-27067 0 0 23292zm63785 27042l-5590 16675c-287,812 -765,1457 -1434,1983 -501,334 -1218,549 -2078,669 -1051,0 -1935,-382 -2724,-1123 -836,-645 -1266,-1529 -1266,-2628l263 -1385 23268 -69566c765,-2198 1983,-3321 3631,-3321 1649,0 2867,1123 3632,3321l23148 69566 287 1385c0,1004 -430,1888 -1290,2700 -812,693 -1720,1051 -2699,1051 -526,0 -1075,-143 -1744,-406 -645,-239 -1243,-980 -1792,-2246l-5566 -16675 -28046 0zm25466 -7931l-11396 -34018 -11419 34018 22815 0zm76995 23388c0,1218 -358,2198 -1099,2938 -693,621 -1601,932 -2747,932 -1004,0 -1911,-311 -2700,-956 -764,-669 -1146,-1624 -1146,-2914l0 -65791 -12566 0 -18586 66770c-96,789 -550,1458 -1266,2055 -741,549 -1529,836 -2389,836 -1147,0 -2079,-311 -2819,-956 -741,-645 -1123,-1576 -1123,-2747 0,-549 72,-932 191,-1171l19351 -69589c549,-1911 1767,-2867 3679,-2867l19350 0c2580,0 3870,1266 3870,3846l0 69614zm23053 -40110l32585 -32299c765,-693 1649,-1051 2652,-1051 956,0 1839,382 2676,1171 836,788 1266,1720 1266,2795 0,669 -406,1529 -1171,2604l-23029 22957 23746 41998 549 2054c0,1004 -430,1840 -1266,2580 -788,765 -1720,1171 -2843,1171 -1242,0 -2317,-669 -3249,-2031l-22695 -40325 -9221 9054 0 29432c0,1218 -358,2198 -1099,2938 -693,621 -1624,932 -2747,932 -1027,0 -1935,-311 -2699,-956 -765,-669 -1147,-1624 -1147,-2914l0 -69709c0,-980 382,-1864 1194,-2628 765,-765 1673,-1123 2652,-1123 979,0 1887,287 2700,884 764,645 1146,1625 1146,2867l0 29599zm96561 28500c0,4252 -1505,7883 -4515,10917 -3010,3034 -6665,4563 -10918,4563l-15456 0c-4205,0 -7836,-1505 -10870,-4515 -3058,-2986 -4586,-6641 -4586,-10965l0 -46393c0,-4301 1505,-7956 4491,-10966 3010,-2986 6665,-4491 10965,-4491l15456 0c4277,0 7932,1505 10942,4515 2986,3034 4491,6665 4491,10942l0 46393zm-7669 47l0 -46464c0,-2198 -740,-4014 -2197,-5519 -1458,-1481 -3321,-2245 -5567,-2245l-15480 0c-2174,0 -4013,740 -5542,2221 -741,741 -1290,1577 -1649,2509 -358,955 -549,1959 -549,3034l0 46464c0,2174 717,4014 2198,5543 788,645 1624,1194 2508,1648 1099,358 2102,550 3034,550l15480 0c2150,0 3966,-717 5495,-2174 1505,-1434 2269,-3297 2269,-5567zm68013 -30936l0 -27115c0,-1027 359,-1935 1147,-2699 764,-789 1672,-1147 2676,-1147 979,0 1887,311 2675,956 789,645 1171,1624 1171,2890l0 69518c0,1099 -382,2079 -1195,2915 -931,693 -1815,1051 -2699,1051 -932,0 -1840,-311 -2700,-932 -716,-621 -1075,-1600 -1075,-2890l0 -34855 -30984 0 0 34807c0,1218 -358,2198 -1099,2938 -693,621 -1625,932 -2747,932 -1028,0 -1935,-311 -2700,-956 -764,-645 -1147,-1624 -1147,-2914l0 -69566c0,-1027 383,-1983 1147,-2867 765,-669 1672,-1003 2700,-1003 979,0 1887,334 2651,979 789,646 1195,1601 1195,2915l0 27043 30984 0zm-192428 134377c0,-1051 382,-1959 1123,-2723 764,-741 1672,-1123 2723,-1123 836,0 1696,382 2556,1123 860,764 1290,1672 1290,2723 0,932 -382,1792 -1147,2604 -740,836 -1648,1242 -2699,1242 -1099,0 -2031,-382 -2819,-1146 -693,-813 -1027,-1720 -1027,-2700zm46345 -24c0,1219 -358,2198 -1099,2939 -693,621 -1600,931 -2747,931 -1003,0 -1911,-310 -2700,-955 -764,-645 -1146,-1625 -1146,-2915l0 -60272 -8863 8862c-789,789 -1672,1171 -2676,1171 -908,0 -1815,-382 -2675,-1171 -813,-812 -1243,-1720 -1243,-2771 0,-884 406,-1767 1171,-2651l15432 -15505c502,-525 1052,-931 1601,-1266 549,-310 1147,-478 1792,-478 645,0 1385,407 2221,1171 622,812 932,1911 932,3273l0 69637zm34496 -65671l-15504 0c-1170,0 -2126,-359 -2867,-1099 -645,-765 -979,-1697 -979,-2748 0,-907 334,-1791 1003,-2604 693,-812 1649,-1242 2843,-1242l15480 0c6044,0 10870,1959 14477,5901 3225,3703 4850,8122 4850,13306 0,3130 -597,5996 -1840,8624 -1218,2604 -3105,4945 -5661,7048 2150,1696 3917,3894 5351,6617 1433,2676 2150,5590 2150,8672l0 7740c0,5279 -1887,9818 -5686,13617 -3774,3798 -8337,5709 -13641,5709l-15480 0c-1170,0 -2126,-334 -2867,-1027 -645,-860 -979,-1792 -979,-2819 0,-884 310,-1720 955,-2580 645,-836 1625,-1266 2915,-1266l15504 0c3201,0 5925,-1123 8194,-3416 2270,-2246 3392,-4993 3392,-8218l0 -7740c0,-3154 -1098,-5901 -3344,-8170 -2222,-2294 -4993,-3440 -8266,-3440l-7740 0c-1194,0 -2150,-335 -2890,-1028 -669,-860 -1004,-1791 -1004,-2819 0,-884 311,-1720 980,-2580 645,-836 1600,-1266 2914,-1266l7740 0c3416,0 6259,-1242 8457,-3703 1887,-2197 2819,-4921 2819,-8122 0,-3153 -908,-5757 -2699,-7788 -2055,-2365 -4922,-3559 -8577,-3559zm-107836 46464l7716 0c1075,0 1983,406 2723,1195 765,788 1147,1672 1147,2651 0,884 -334,1744 -955,2581 -645,860 -1625,1266 -2915,1266l-7716 0 0 11538c0,1219 -359,2198 -1099,2915 -693,621 -1625,931 -2747,931 -1028,0 -1935,-310 -2700,-955 -764,-645 -1147,-1601 -1147,-2891l0 -11538 -23244 0c-2675,0 -4037,-1028 -4037,-3130l119 -932 239 -883 15433 -54181c239,-765 669,-1482 1337,-2103l717 -382c430,-239 932,-334 1505,-334 1123,0 2055,358 2795,1099 812,692 1219,1600 1219,2723l-168 1147 -14070 49283 18155 0 0 -11610c0,-1027 383,-1983 1147,-2867 765,-669 1672,-1003 2700,-1003 979,0 1887,311 2651,956 789,668 1195,1624 1195,2914l0 11610zm-50693 121454c382,740 549,1385 549,2006 0,980 -430,1840 -1242,2580 -812,717 -1792,1099 -2843,1099 -1171,0 -2246,-645 -3249,-1982 -3464,-6427 -6307,-13665 -8528,-21788 -860,-3296 -1577,-7023 -2150,-11156 -598,-4109 -884,-8027 -884,-11753 0,-15648 3846,-30555 11562,-44697 335,-621 812,-1123 1433,-1482 550,-262 1195,-453 1888,-573 1122,0 2078,382 2866,1123 765,645 1147,1553 1147,2699 0,550 -167,1195 -549,1935 -860,1505 -1625,3011 -2365,4492 -717,1505 -1386,3057 -2031,4682 -645,1624 -1266,3297 -1816,5041 -573,1720 -1146,3559 -1696,5518 -1839,7167 -2771,14262 -2771,21262 0,14476 3560,28141 10679,40994zm39035 -10392c0,1218 -359,2198 -1099,2938 -693,621 -1601,932 -2747,932 -1004,0 -1912,-311 -2700,-956 -764,-645 -1147,-1624 -1147,-2914l0 -60273 -8862 8863c-789,788 -1673,1171 -2676,1171 -908,0 -1816,-383 -2676,-1171 -812,-812 -1242,-1720 -1242,-2771 0,-884 406,-1768 1171,-2652l15432 -15504c502,-526 1051,-932 1601,-1266 549,-311 1146,-478 1791,-478 645,0 1386,406 2222,1171 621,812 932,1911 932,3272l0 69638zm161420 14095c-215,477 -669,955 -1386,1433l-931 382 -1004 167c-1027,0 -1959,-358 -2771,-1075 -836,-716 -1242,-1624 -1242,-2675 0,-550 167,-1195 526,-1935 3225,-5925 5876,-12590 7955,-19996 1839,-7143 2747,-14142 2747,-20998 0,-4014 -167,-7621 -573,-10870 -383,-3249 -1051,-6641 -2007,-10153l-1505 -5088 -788 -2437 -1004 -2604c-1170,-3010 -2771,-6283 -4825,-9819l-526 -2054c0,-884 406,-1696 1242,-2509 860,-788 1792,-1170 2843,-1170 1266,0 2365,669 3249,2031 1863,3463 3464,6880 4778,10224 1290,3345 2556,7215 3774,11539 860,3249 1577,6928 2150,11108 598,4157 884,8099 884,11802 0,4324 -215,8313 -692,11968 -454,3655 -1195,7358 -2222,11085 -1768,7501 -4659,14716 -8672,21644zm-145940 -14071c0,-1051 382,-1959 1123,-2724 764,-740 1672,-1122 2723,-1122 836,0 1696,382 2556,1122 860,765 1290,1673 1290,2724 0,931 -382,1791 -1146,2604 -741,836 -1649,1242 -2700,1242 -1099,0 -2030,-382 -2819,-1147 -692,-812 -1027,-1720 -1027,-2699zm59007 -43694l-24988 39848 23984 0c1075,0 1959,406 2724,1194 764,764 1123,1672 1123,2652 0,884 -311,1744 -956,2580 -669,860 -1624,1266 -2891,1266l-30936 0c-2795,0 -4181,-1027 -4181,-3082 0,-812 311,-1792 932,-2890l28571 -45557c956,-2007 1410,-3942 1410,-5806 0,-3296 -1266,-6163 -3846,-8624 -1219,-1122 -2652,-2030 -4276,-2699 -1601,-645 -3369,-1003 -5232,-1003 -1959,0 -3846,525 -5638,1552 -1792,1147 -3297,2628 -4467,4420 -287,478 -813,932 -1505,1385l-1720 383c-980,0 -1888,-359 -2724,-1075 -836,-717 -1242,-1601 -1242,-2676 0,-502 239,-1266 669,-2198 1768,-2771 4157,-5016 7190,-6784 1482,-836 2963,-1505 4468,-1959 1505,-478 2986,-717 4419,-717 6044,0 11157,1983 15337,5972 4181,4014 6259,8768 6259,14310 0,3177 -812,6331 -2484,9508zm53106 24463l7716 0c1075,0 1983,406 2723,1194 765,789 1147,1672 1147,2652 0,884 -334,1744 -956,2580 -645,860 -1624,1266 -2914,1266l-7716 0 0 11539c0,1218 -359,2198 -1099,2914 -693,621 -1625,932 -2747,932 -1028,0 -1935,-311 -2700,-956 -764,-645 -1147,-1600 -1147,-2890l0 -11539 -23244 0c-2676,0 -4037,-1027 -4037,-3129l119 -932 239 -884 15433 -54181c239,-764 669,-1481 1337,-2102l717 -382c430,-239 932,-335 1505,-335 1123,0 2055,358 2795,1099 812,693 1219,1601 1219,2723l-168 1147 -14071 49284 18156 0 0 -11610c0,-1028 383,-1983 1147,-2867 765,-669 1672,-1004 2700,-1004 979,0 1887,311 2651,956 789,669 1195,1625 1195,2915l0 11610z"/>
   <path class="fil3" d="M1220052 2183103l32585 -32299c765,-692 1648,-1051 2652,-1051 955,0 1839,382 2675,1171 837,788 1267,1720 1267,2795 0,669 -407,1529 -1171,2604l-23029 22957 23746 41998 549 2054c0,1004 -430,1840 -1266,2580 -788,765 -1720,1171 -2843,1171 -1242,0 -2317,-669 -3249,-2031l-22695 -40325 -9221 9054 0 29432c0,1218 -358,2198 -1099,2938 -693,621 -1624,932 -2747,932 -1027,0 -1935,-311 -2700,-956 -764,-669 -1146,-1624 -1146,-2914l0 -69709c0,-980 382,-1864 1194,-2628 765,-764 1672,-1123 2652,-1123 979,0 1887,287 2699,884 765,645 1147,1625 1147,2867l0 29599zm92810 12995l-23220 0c-4181,0 -7812,-1505 -10870,-4491 -3058,-3010 -4587,-6665 -4587,-10965l0 -27043c0,-1027 383,-1959 1147,-2866 764,-645 1672,-980 2699,-980 980,0 1888,311 2652,956 789,645 1195,1624 1195,2890l0 27091c0,2174 716,4013 2197,5518 789,669 1625,1219 2509,1649 1099,358 2102,549 3034,549l23244 0 0 -34807c0,-1027 358,-1959 1147,-2866 764,-645 1672,-980 2675,-980 980,0 1888,311 2676,956 788,645 1171,1624 1171,2890l0 58004c0,4252 -1505,7883 -4515,10917 -3011,3034 -6642,4563 -10918,4563l-19326 0c-1171,0 -2127,-358 -2867,-1099 -669,-764 -1003,-1696 -1003,-2747 0,-932 334,-1792 1027,-2604 693,-812 1624,-1242 2843,-1242l19350 0c2126,0 3966,-717 5471,-2174 1505,-1434 2269,-3297 2269,-5590l0 -15529zm50215 -14691l19924 -30005c335,-502 789,-956 1386,-1314l812 -335 932 0c1003,0 1935,359 2819,1147 812,812 1218,1720 1218,2771 0,645 -239,1362 -669,2150l-21715 32585 21715 32609 502 1147 167 1051c0,1003 -406,1887 -1194,2675 -789,789 -1744,1195 -2891,1195 -1218,0 -2246,-573 -3082,-1768l-19924 -29885 -19899 29885c-287,478 -789,932 -1505,1362l-1696 406c-813,0 -1697,-406 -2700,-1171 -860,-740 -1266,-1672 -1266,-2747 0,-669 215,-1385 645,-2150l21739 -32609 -21835 -32585 -549 -1147 0 -1075c0,-979 382,-1887 1194,-2675 789,-789 1744,-1171 2891,-1171 1218,0 2246,574 3082,1768l19899 29886zm81176 -693l0 -27115c0,-1027 359,-1935 1147,-2699 765,-788 1672,-1147 2676,-1147 979,0 1887,311 2675,956 789,645 1171,1624 1171,2890l0 69518c0,1099 -382,2079 -1195,2915 -931,693 -1815,1051 -2699,1051 -932,0 -1840,-311 -2700,-932 -716,-621 -1075,-1600 -1075,-2890l0 -34855 -30984 0 0 34807c0,1218 -358,2198 -1099,2938 -693,621 -1624,932 -2747,932 -1027,0 -1935,-311 -2700,-956 -764,-645 -1146,-1624 -1146,-2914l0 -69566c0,-1027 382,-1983 1146,-2867 765,-668 1673,-1003 2700,-1003 979,0 1887,335 2652,980 788,645 1194,1600 1194,2914l0 27043 30984 0zm61826 7692l0 -30984 -23244 0c-2174,0 -4014,740 -5543,2221 -740,741 -1290,1577 -1648,2509 -358,955 -549,1959 -549,3034l0 15480c0,2174 716,4013 2197,5542 789,669 1625,1219 2509,1649 1099,358 2102,549 3034,549l23244 0zm-13306 7692l-18252 29145c-764,1243 -1815,1840 -3082,1840 -1003,0 -1911,-406 -2723,-1218 -884,-789 -1314,-1673 -1314,-2700 0,-764 215,-1481 597,-2102l15624 -24965 -764 0c-4181,0 -7836,-1505 -10870,-4491 -3058,-3010 -4587,-6665 -4587,-10965l0 -15456c0,-4276 1505,-7932 4491,-10942 3010,-2986 6666,-4491 10966,-4491l27042 0c2580,0 3847,1266 3847,3846l0 69614c0,1218 -359,2198 -1076,2938 -716,621 -1624,932 -2771,932 -1003,0 -1911,-311 -2675,-956 -789,-669 -1147,-1624 -1147,-2914l0 -27115 -13306 0zm-183877 84163l120 -1768 0 -2102 0 -19351c0,-2198 -741,-4013 -2198,-5518 -1457,-1481 -3321,-2246 -5566,-2246l-7764 0c-2198,0 -4037,741 -5542,2222 -741,740 -1314,1577 -1673,2508 -358,956 -549,1959 -549,3034l0 15480c0,2174 717,4014 2222,5543 764,669 1624,1218 2508,1648 1099,358 2126,550 3034,550l15408 0zm-1433 7692l-13975 0c-4157,0 -7764,-1481 -10846,-4467 -3058,-2963 -4611,-6642 -4611,-10989l0 -15457c0,-4252 1505,-7907 4516,-10917 3033,-3010 6665,-4515 10941,-4515l7740 0c4324,0 7979,1505 10965,4515 2986,3034 4515,6665 4515,10941l0 19279c0,7453 -1409,14405 -4204,20879 -2031,4826 -4874,9102 -8553,12829 -3655,3702 -7931,6569 -12828,8552l-1649 334c-883,0 -1743,-406 -2532,-1242 -788,-836 -1194,-1768 -1194,-2795 0,-645 167,-1242 525,-1815 311,-598 932,-1123 1864,-1553 1959,-789 3750,-1720 5446,-2819 1697,-1123 3321,-2485 4874,-4109 2867,-2939 5184,-6426 6952,-10440l1051 -2938 1003 -3273zm24678 27138c0,-1051 382,-1959 1123,-2723 764,-741 1672,-1123 2723,-1123 836,0 1696,382 2556,1123 860,764 1290,1672 1290,2723 0,932 -382,1792 -1147,2604 -740,836 -1648,1242 -2699,1242 -1099,0 -2031,-382 -2819,-1146 -693,-812 -1027,-1720 -1027,-2700zm30865 -65815l0 23292 11610 0c5256,0 9819,1887 13641,5662 3822,3775 5733,8337 5733,13665l0 7716c0,5280 -1911,9818 -5709,13617 -3775,3798 -8338,5709 -13641,5709l-15456 0c-1171,0 -2151,-358 -2867,-1098 -669,-765 -1004,-1697 -1004,-2748 0,-931 335,-1791 1004,-2604 716,-812 1648,-1242 2867,-1242l15504 0c3153,0 5900,-1099 8170,-3321 2293,-2221 3440,-4969 3440,-8313l0 -7740c0,-3201 -1123,-5925 -3368,-8194 -2222,-2270 -4969,-3416 -8242,-3416l-15504 0c-2581,0 -3871,-1267 -3871,-3847l0 -30960c0,-2580 1267,-3846 3871,-3846l30936 0c1051,0 1983,382 2724,1170 764,789 1146,1696 1146,2676 0,884 -334,1720 -979,2580 -645,836 -1625,1242 -2891,1242l-27114 0zm54109 0l0 23292 11610 0c5256,0 9819,1887 13641,5662 3822,3775 5734,8337 5734,13665l0 7716c0,5280 -1912,9818 -5710,13617 -3774,3798 -8337,5709 -13641,5709l-15456 0c-1171,0 -2150,-358 -2867,-1098 -669,-765 -1003,-1697 -1003,-2748 0,-931 334,-1791 1003,-2604 717,-812 1649,-1242 2867,-1242l15504 0c3153,0 5901,-1099 8170,-3321 2294,-2221 3440,-4969 3440,-8313l0 -7740c0,-3201 -1123,-5925 -3368,-8194 -2222,-2270 -4969,-3416 -8242,-3416l-15504 0c-2580,0 -3870,-1267 -3870,-3847l0 -30960c0,-2580 1266,-3846 3870,-3846l30937 0c1051,0 1982,382 2723,1170 764,789 1147,1696 1147,2676 0,884 -335,1720 -980,2580 -645,836 -1624,1242 -2890,1242l-27115 0z"/>
   <path class="fil3" d="M3526567 2682127c1218,0 2198,358 2938,1075 622,717 932,1624 932,2771 0,1003 -310,1911 -955,2676 -669,788 -1625,1146 -2915,1146l-65791 0 0 30985 65791 0c1218,0 2198,358 2938,1099 622,693 932,1624 932,2747 0,1027 -310,1935 -955,2700 -645,764 -1625,1146 -2915,1146l-69613 0c-2581,0 -3847,-1266 -3847,-3870l0 -38629c0,-2580 1266,-3846 3847,-3846l69613 0zm-34807 -23173l0 -23220c0,-2150 -716,-3966 -2150,-5495 -1433,-1505 -3296,-2269 -5590,-2269l-15480 0c-2198,0 -4014,740 -5519,2198 -1481,1457 -2245,3320 -2245,5566l0 23220 30984 0zm7693 0l27114 0c1218,0 2198,359 2938,1099 622,693 932,1625 932,2747 0,1028 -310,1936 -955,2700 -645,764 -1625,1147 -2915,1147l-69613 0c-2581,0 -3847,-1266 -3847,-3870l0 -27043c0,-4276 1505,-7931 4515,-10941 3010,-2987 6666,-4492 10918,-4492l15456 0c4253,0 7860,1505 10894,4515 3034,3034 4563,6666 4563,10942l0 23196zm27114 -100478c1218,0 2198,358 2938,1075 622,716 932,1624 932,2771 0,1003 -310,1911 -955,2676 -645,788 -1625,1146 -2915,1146l-54635 0 56522 31391c789,454 1410,1003 1864,1720l477 812c120,263 215,669 311,1218 -24,741 -406,1577 -1171,2533 -788,669 -1887,1003 -3320,1003l-69590 0c-1051,0 -2007,-382 -2890,-1147 -669,-764 -1004,-1672 -1004,-2699 0,-980 335,-1887 980,-2652 645,-788 1600,-1194 2914,-1194l54635 0 -56498 -31367c-621,-382 -1242,-932 -1864,-1672 -549,-693 -812,-1386 -812,-2079 0,-860 454,-1648 1290,-2365 765,-788 1840,-1170 3201,-1170l69590 0zm-41806 -42547l-30005 -19924c-502,-334 -956,-788 -1314,-1385l-335 -813 0 -931c0,-1004 359,-1935 1147,-2819 812,-813 1720,-1219 2771,-1219 645,0 1362,239 2150,669l32585 21716 32609 -21716 1147 -501 1051 -168c1003,0 1887,406 2676,1195 788,788 1194,1744 1194,2890 0,1219 -573,2246 -1768,3082l-29885 19924 29885 19900c478,286 932,788 1362,1505l406 1696c0,812 -406,1696 -1170,2699 -741,860 -1673,1266 -2748,1266 -669,0 -1385,-215 -2150,-645l-32609 -21739 -32585 21835 -1146 549 -1075 0c-980,0 -1888,-382 -2676,-1194 -788,-788 -1171,-1744 -1171,-2891 0,-1218 574,-2245 1768,-3081l29886 -19900zm30196 -84927c4252,0 7883,1505 10917,4515 3034,3010 4563,6665 4563,10918l0 15456c0,4205 -1505,7836 -4515,10870 -2986,3058 -6641,4587 -10965,4587l-46393 0c-4300,0 -7955,-1505 -10965,-4492 -2987,-3010 -4492,-6665 -4492,-10965l0 -15456c0,-4276 1505,-7931 4515,-10942 3034,-2986 6666,-4491 10942,-4491l46393 0zm48 7669l-46465 0c-2198,0 -4014,740 -5519,2198 -1481,1457 -2245,3320 -2245,5566l0 15480c0,2174 740,4013 2222,5542 740,741 1576,1290 2508,1649 955,358 1959,549 3034,549l46465 0c2174,0 4013,-716 5542,-2198 645,-788 1194,-1624 1648,-2508 359,-1099 550,-2102 550,-3034l0 -15480c0,-2150 -717,-3966 -2174,-5495 -1434,-1505 -3297,-2269 -5566,-2269zm-31725 -60249l-28477 -19996c-453,-286 -836,-740 -1170,-1337 -358,-574 -526,-1171 -526,-1768 0,-1003 359,-1935 1147,-2819 812,-812 1720,-1218 2747,-1218 765,0 1529,286 2270,788l28810 20258 36599 -20497c740,-358 1433,-549 2054,-549 884,0 1720,406 2509,1194 788,788 1194,1768 1194,2915 0,1170 -669,2245 -2007,3249l-35427 19780 33564 0c1218,0 2198,358 2938,1099 622,693 932,1624 932,2747 0,1027 -310,1935 -955,2700 -645,764 -1625,1146 -2915,1146l-33445 0 35332 19804c430,335 908,789 1434,1410l382 956 167 1003c0,1075 -358,1983 -1075,2771 -717,812 -1648,1195 -2723,1195 -430,0 -1075,-168 -1959,-478l-36527 -20545 -28882 20258c-359,287 -1123,550 -2317,765 -980,0 -1888,-383 -2676,-1195 -788,-788 -1171,-1696 -1171,-2771 0,-1075 550,-2126 1696,-3106l28548 -20067 -26397 0c-1004,0 -1959,-382 -2867,-1146 -645,-765 -980,-1673 -980,-2700 0,-979 311,-1887 956,-2652 645,-788 1624,-1194 2891,-1194l26326 0zm27831 -56045l16674 5591c813,286 1458,764 1983,1433 335,502 550,1218 669,2078 0,1051 -382,1935 -1123,2724 -645,836 -1529,1266 -2628,1266l-1385 -263 -69566 -23268c-2198,-765 -3320,-1983 -3320,-3631 0,-1649 1122,-2867 3320,-3631l69566 -23149 1385 -287c1004,0 1888,430 2700,1290 693,812 1051,1720 1051,2700 0,525 -143,1075 -406,1744 -239,645 -979,1242 -2246,1791l-16674 5566 0 28046zm-7932 -25466l-34018 11396 34018 11419 0 -22815zm-11419 -69207l-30984 0 0 23244c0,2174 740,4014 2222,5543 740,740 1576,1290 2508,1648 955,358 1959,550 3034,550l15480 0c2174,0 4014,-717 5542,-2198 669,-789 1219,-1625 1649,-2509 358,-1099 549,-2102 549,-3034l0 -23244zm7693 13306l29145 18252c1242,764 1839,1815 1839,3082 0,1003 -406,1911 -1218,2723 -789,884 -1672,1314 -2700,1314 -764,0 -1481,-215 -2102,-597l-24964 -15624 0 765c0,4180 -1505,7835 -4492,10869 -3010,3058 -6665,4587 -10965,4587l-15456 0c-4276,0 -7931,-1505 -10941,-4491 -2987,-3010 -4492,-6665 -4492,-10965l0 -27043c0,-2580 1266,-3846 3847,-3846l69613 0c1218,0 2198,358 2938,1075 622,716 932,1624 932,2771 0,1003 -310,1911 -955,2675 -669,789 -1625,1147 -2915,1147l-27114 0 0 13306zm84162 310395l3870 167 19374 0c2174,0 4013,-717 5542,-2222 645,-764 1195,-1601 1649,-2484 358,-1099 549,-2127 549,-3058l0 -7764c0,-2150 -716,-3966 -2174,-5471 -1433,-1529 -3296,-2293 -5566,-2293l-15480 0c-2198,0 -4014,740 -5519,2197 -1481,1458 -2245,3321 -2245,5567l0 15361zm-7693 -1362l0 -13975c0,-4205 1529,-7812 4515,-10894 2987,-3058 6642,-4587 10942,-4587l15456 0c4252,0 7860,1529 10894,4539 3034,3034 4563,6665 4563,10942l0 7740c0,4156 -1482,7764 -4468,10845 -2986,3058 -6641,4611 -10989,4611l-19302 0c-7334,0 -14286,-1385 -20880,-4204 -4563,-1888 -8743,-4731 -12494,-8433 -3750,-3727 -6689,-8027 -8815,-12924l-382 -1649c0,-1003 382,-1911 1194,-2723 860,-645 1792,-980 2819,-980 741,0 1362,168 1887,502 526,311 1052,932 1601,1863 406,1028 812,1959 1242,2795 430,837 980,1720 1625,2676 1075,1577 2389,3201 3989,4850 3010,3033 6474,5351 10368,6951l3106 1171 3129 884zm42523 -44888c-1051,0 -1959,-382 -2723,-1123 -741,-764 -1123,-1672 -1123,-2723 0,-837 382,-1697 1123,-2557 764,-860 1672,-1290 2723,-1290 932,0 1792,383 2604,1147 836,741 1243,1648 1243,2700 0,1099 -383,2030 -1147,2819 -812,692 -1720,1027 -2700,1027zm-65815 -30865l3918 0c1219,0 2198,358 2962,1099 622,692 932,1624 932,2747 0,1027 -310,1935 -955,2699 -669,765 -1625,1147 -2915,1147l-7764 0c-2580,0 -3846,-1290 -3846,-3870l0 -30961c0,-2603 1051,-3917 3177,-3917l1648 239 69638 19302c764,120 1433,550 2030,1290 550,741 837,1529 837,2365 0,1147 -311,2079 -956,2819 -669,741 -1577,1099 -2747,1099 -550,0 -932,-48 -1171,-167l-64788 -17941 0 22050zm52652 -85094c4587,0 8577,1648 11969,4945 3368,3297 5041,7334 5041,12088l0 4635c0,4586 -1649,8600 -4922,11968 -3272,3369 -7310,5041 -12088,5041l-43311 0c-4515,0 -8505,-1649 -11921,-4969 -3392,-3321 -5088,-7334 -5088,-12040l0 -4635c0,-4611 1624,-8600 4921,-11969 3297,-3368 7334,-5064 12088,-5064l43311 0zm24 7692l-43383 0c-2532,0 -4730,908 -6545,2700 -1840,1792 -2748,3989 -2748,6617l0 4682c0,2533 908,4731 2724,6546 1815,1840 3989,2747 6569,2747l43383 0c2556,0 4730,-907 6570,-2699 1815,-1816 2723,-4013 2723,-6594l0 -4682c0,-2508 -884,-4682 -2651,-6546 -1768,-1839 -3990,-2771 -6642,-2771z"/>
   <path class="fil3" d="M2708262 2402908l-19374 0c-4181,0 -7812,-1505 -10870,-4515 -3058,-2986 -4587,-6641 -4587,-10965l0 -46393c0,-4300 1505,-7955 4491,-10965 3010,-2986 6666,-4491 10966,-4491l19374 0c1051,0 1959,382 2723,1170 765,789 1123,1696 1123,2676 0,884 -311,1720 -956,2580 -668,836 -1624,1242 -2914,1242l-19374 0c-2174,0 -4014,741 -5543,2222 -740,740 -1290,1577 -1648,2508 -358,956 -549,1959 -549,3034l0 46465c0,2174 716,4013 2197,5542 789,645 1625,1195 2509,1649 1099,358 2102,549 3034,549l19374 0c1075,0 1983,406 2747,1195 765,764 1123,1672 1123,2651 0,884 -311,1744 -956,2580 -668,860 -1624,1266 -2890,1266zm69351 -95294l-42523 108290c-263,597 -717,1195 -1386,1768l-1051 502 -1051 215c-1099,0 -2055,-359 -2867,-1051 -812,-693 -1218,-1625 -1218,-2748 0,-597 95,-1075 286,-1457l42499 -108290c192,-550 645,-1123 1338,-1744l717 -406c454,-215 908,-335 1433,-335 1099,0 2055,359 2867,1051 812,693 1218,1625 1218,2772 0,573 -95,1051 -262,1433zm58170 64310l-23220 0c-4181,0 -7812,-1505 -10870,-4491 -3058,-3010 -4587,-6665 -4587,-10965l0 -27043c0,-1027 383,-1959 1147,-2867 764,-645 1672,-979 2699,-979 980,0 1888,310 2652,955 789,645 1195,1625 1195,2891l0 27090c0,2174 716,4014 2197,5519 789,669 1625,1218 2509,1648 1099,358 2102,550 3034,550l23244 0 0 -34807c0,-1027 358,-1959 1147,-2867 764,-645 1672,-979 2675,-979 980,0 1888,310 2676,955 788,645 1171,1625 1171,2891l0 58003c0,4252 -1505,7884 -4515,10918 -3011,3034 -6642,4562 -10918,4562l-19326 0c-1171,0 -2127,-358 -2867,-1098 -669,-765 -1003,-1697 -1003,-2748 0,-931 334,-1791 1027,-2604 693,-812 1624,-1242 2843,-1242l19350 0c2126,0 3966,-717 5471,-2174 1505,-1433 2269,-3297 2269,-5590l0 -15528zm-143336 53297l-15504 0c-1171,0 -2126,-358 -2867,-1099 -645,-764 -979,-1696 -979,-2747 0,-908 334,-1792 1003,-2604 693,-812 1648,-1242 2843,-1242l15480 0c6044,0 10870,1959 14477,5900 3225,3703 4850,8123 4850,13307 0,3129 -598,5996 -1840,8624 -1218,2604 -3105,4945 -5662,7047 2151,1696 3918,3894 5352,6617 1433,2676 2150,5591 2150,8672l0 7740c0,5280 -1888,9819 -5686,13617 -3774,3799 -8337,5710 -13641,5710l-15480 0c-1171,0 -2126,-335 -2867,-1027 -645,-860 -979,-1792 -979,-2819 0,-884 310,-1720 955,-2580 645,-836 1625,-1266 2915,-1266l15504 0c3201,0 5925,-1123 8194,-3417 2270,-2245 3392,-4992 3392,-8218l0 -7740c0,-3153 -1099,-5900 -3344,-8170 -2222,-2293 -4993,-3440 -8266,-3440l-7740 0c-1194,0 -2150,-334 -2891,-1027 -669,-860 -1003,-1792 -1003,-2819 0,-884 311,-1720 979,-2580 646,-836 1601,-1266 2915,-1266l7740 0c3416,0 6259,-1243 8457,-3703 1887,-2198 2819,-4921 2819,-8122 0,-3154 -908,-5758 -2700,-7788 -2054,-2365 -4921,-3560 -8576,-3560zm35094 65696c0,-1051 382,-1959 1122,-2724 765,-740 1673,-1122 2724,-1122 836,0 1696,382 2556,1122 860,765 1290,1673 1290,2724 0,931 -382,1791 -1147,2604 -740,836 -1648,1242 -2699,1242 -1099,0 -2031,-382 -2819,-1147 -693,-812 -1027,-1720 -1027,-2699zm59006 -43694l-24988 39848 23985 0c1075,0 1959,406 2723,1194 765,764 1123,1672 1123,2652 0,884 -311,1744 -956,2580 -668,860 -1624,1266 -2890,1266l-30937 0c-2795,0 -4180,-1027 -4180,-3082 0,-812 310,-1792 931,-2890l28572 -45557c955,-2007 1409,-3942 1409,-5805 0,-3297 -1266,-6164 -3846,-8625 -1218,-1122 -2652,-2030 -4276,-2699 -1601,-645 -3368,-1003 -5232,-1003 -1959,0 -3846,525 -5638,1552 -1791,1147 -3296,2628 -4467,4420 -287,478 -812,932 -1505,1386l-1720 382c-980,0 -1887,-359 -2723,-1075 -837,-717 -1243,-1601 -1243,-2676 0,-502 239,-1266 669,-2198 1768,-2771 4157,-5016 7191,-6784 1481,-836 2962,-1505 4467,-1959 1505,-478 2986,-717 4420,-717 6044,0 11156,1983 15337,5972 4180,4014 6259,8768 6259,14310 0,3177 -813,6331 -2485,9508zm56952 30531c0,4586 -1648,8576 -4945,11968 -3296,3369 -7334,5041 -12088,5041l-4634 0c-4587,0 -8600,-1648 -11969,-4921 -3368,-3273 -5040,-7310 -5040,-12088l0 -43312c0,-4515 1648,-8504 4969,-11920 3320,-3393 7334,-5089 12040,-5089l4634 0c4611,0 8600,1625 11969,4921 3368,3297 5064,7334 5064,12088l0 43312zm-7692 24l0 -43383c0,-2533 -908,-4731 -2699,-6546 -1792,-1840 -3990,-2747 -6618,-2747l-4682 0c-2532,0 -4730,907 -6546,2723 -1839,1816 -2747,3990 -2747,6570l0 43383c0,2556 908,4730 2699,6569 1816,1816 4014,2724 6594,2724l4682 0c2509,0 4682,-884 6546,-2652 1839,-1768 2771,-3990 2771,-6641z"/>
   <path class="fil3" d="M2931794 2215353l284451 0 0 608987 -288464 0 0 -608987 4013 0zm276448 8027l-272458 0 0 592957 272458 0 0 -592957z"/>
   <path class="fil3" d="M3072025 2235516c34114,0 65146,13951 87626,36455 22480,22480 36431,53488 36431,87626l0 395631c0,13450 -5495,25705 -14381,34568 -8863,8887 -21119,14382 -34568,14382l-150216 0c-13474,0 -25729,-5495 -34592,-14382 -8863,-8863 -14381,-21118 -14381,-34568l0 -395631c0,-34138 13951,-65146 36431,-87626 22504,-22504 53512,-36455 87650,-36455zm81964 42117c-21046,-21047 -50048,-34090 -81964,-34090 -31916,0 -60942,13043 -81965,34090 -21046,21022 -34114,50048 -34114,81964l0 395631c0,11252 4611,21501 12041,28906 7429,7430 17654,12041 28930,12041l150216 0c11252,0 21500,-4611 28906,-12041 7429,-7405 12040,-17654 12040,-28906l0 -395631c0,-31916 -13067,-60942 -34090,-81964z"/>
   <path class="fil1" d="M3072025 2713733c8982,0 16292,7286 16292,16292 0,9006 -7310,16316 -16292,16316 -9007,0 -16317,-7310 -16317,-16316 0,-9006 7310,-16292 16317,-16292zm0 6354c5494,0 9938,4444 9938,9938 0,5495 -4444,9962 -9938,9962 -5495,0 -9962,-4467 -9962,-9962 0,-5494 4467,-9938 9962,-9938z"/>
   <path class="fil3" d="M2796867 2656064l40087 0c23125,0 44171,9484 59412,24725 15242,15242 24726,36288 24726,59413l0 61873c0,6116 -2532,11682 -6546,15719 -4037,4038 -9603,6546 -15719,6546l-163833 0c-6092,0 -11658,-2508 -15695,-6522 -4061,-4037 -6546,-9603 -6546,-15743l0 -61873c0,-23125 9460,-44148 24702,-59413 15241,-15241 36288,-24725 59412,-24725zm40087 8026l-40087 0c-20927,0 -39943,8577 -53751,22361 -13808,13784 -22360,32824 -22360,53751l0 61873c0,3918 1601,7502 4181,10082 2580,2580 6163,4180 10057,4180l163833 0c3894,0 7477,-1624 10057,-4204 2581,-2556 4181,-6140 4181,-10058l0 -61873c0,-20927 -8576,-39967 -22360,-53751 -13784,-13808 -32824,-22361 -53751,-22361z"/>
   <path class="fil3" d="M2796867 2680049c-16507,0 -31557,6784 -42451,17678 -10917,10917 -17702,25967 -17702,42475l0 24104 160393 0 0 -24104c0,-16508 -6785,-31558 -17678,-42451 -10917,-10918 -25968,-17702 -42475,-17702l-40087 0zm-48113 12016c12351,-12351 29384,-20043 48113,-20043l40087 0c18705,0 35762,7692 48137,20043 12350,12375 20043,29408 20043,48137l0 25824c0,1720 -741,3297 -1864,4444 -1146,1122 -2723,1863 -4443,1863l-163833 0c-1696,0 -3273,-741 -4419,-1863 -1147,-1171 -1864,-2771 -1864,-4444l0 -25824c0,-18705 7669,-35762 20043,-48137z"/>
   <path class="fil1" d="M2823719 2778998c4587,2437 7716,7286 7716,12853 0,8026 -6498,14524 -14524,14524 -8027,0 -14525,-6498 -14525,-14524 0,-5567 3129,-10416 7740,-12853l0 -34233 13593 0 0 34233z"/>
   <path class="fil1" d="M2816911 2695648c9006,0 16316,7310 16316,16317 0,8982 -7310,16292 -16316,16292 -9007,0 -16293,-7310 -16293,-16292 0,-9007 7286,-16317 16293,-16317zm0 6355c5494,0 9938,4467 9938,9962 0,5470 -4444,9938 -9938,9938 -5495,0 -9938,-4468 -9938,-9938 0,-5495 4443,-9962 9938,-9962z"/>
   <path class="fil3" d="M2631458 2824340l-140565 0 0 -55447c0,-2962 1194,-5662 3153,-7597 1935,-1935 4635,-3153 7573,-3153l121501 0c3297,0 6307,1338 8481,3512 2174,2173 3512,5160 3512,8456l0 54229 -3655 0zm-133255 -7310l129600 0 0 -46919c0,-1266 -526,-2436 -1386,-3272 -836,-861 -2007,-1386 -3297,-1386l-121501 0c-932,0 -1792,406 -2413,1027 -621,597 -1003,1481 -1003,2413l0 48137z"/>
   <path class="fil3" d="M2623120 2765453l-126900 0 0 -144292c0,-17941 7358,-34257 19183,-46082 11849,-11849 28166,-19183 46107,-19183 17941,0 34257,7334 46082,19159 11849,11849 19207,28165 19207,46106l0 144292 -3679 0zm-119566 -7310l115911 0 0 -136982c0,-15934 -6522,-30435 -17009,-40922 -10511,-10511 -24988,-17033 -40946,-17033 -15958,0 -30435,6522 -40923,17009 -10511,10511 -17033,25012 -17033,40946l0 136982z"/>
   <path class="fil3" d="M2610817 2747655l-99642 0c-3775,-26158 -14955,-103512 -14955,-126494 0,-17941 7358,-34281 19183,-46106 11826,-11825 28142,-19159 46107,-19159 17964,0 34281,7334 46106,19159 11825,11849 19183,28165 19183,46106 0,25849 -9293,98209 -12733,126494l-3249 0zm-93311 -7334l90086 0 11873 -119351c-48,-15862 -6569,-30291 -17009,-40731 -10511,-10511 -25012,-17033 -40946,-17033 -15934,0 -30435,6522 -40923,17033 -10463,10463 -16985,24869 -17033,40731l13952 119351z"/>
   <path class="fil3" d="M2562059 2802959c-3392,0 -6498,-1385 -8719,-3607 -2222,-2246 -3608,-5327 -3608,-8744 0,-3392 1386,-6474 3608,-8719 2221,-2222 5327,-3607 8719,-3607 3416,0 6498,1385 8720,3607 2245,2245 3631,5327 3631,8719 0,3417 -1386,6498 -3631,8744 -2222,2222 -5328,3607 -8720,3607z"/>
   <path class="fil3" d="M2406396 2176820l0 244412 176304 0 0 -248402 -176304 0 0 3990zm8027 236385l0 -232372 160250 0 0 232372 -160250 0z"/>
   <path class="fil3" d="M2544142 2176820l0 244412 38558 0 0 -248402 -38558 0 0 3990zm8003 236385l0 -232372 22528 0 0 232372 -22528 0z"/>
   <path class="fil3" d="M2419034 2297031c0,16866 6856,32179 17941,43263 11084,11085 26397,17941 43263,17941 16890,0 32179,-6856 43264,-17941 11108,-11084 17965,-26397 17965,-43263 0,-16890 -6857,-32179 -17941,-43264 -11109,-11108 -26398,-17941 -43288,-17941 -16866,0 -32179,6833 -43263,17917 -11085,11109 -17941,26398 -17941,43288zm23602 37602c-9627,-9604 -15575,-22910 -15575,-37602 0,-14692 5948,-27998 15552,-37626 9627,-9627 22933,-15576 37625,-15576 14716,0 28022,5949 37626,15576 9627,9628 15576,22934 15576,37626 0,14692 -5949,27998 -15552,37602 -9628,9627 -22934,15576 -37650,15576 -14692,0 -27998,-5949 -37602,-15576z"/>
   <path class="fil3" d="M2441012 2297031c0,10822 4396,20640 11491,27735 7119,7096 16913,11491 27735,11491 10846,0 20641,-4395 27736,-11491 7119,-7095 11490,-16913 11490,-27735 0,-10822 -4371,-20640 -11490,-27736 -7095,-7119 -16890,-11490 -27736,-11490 -10822,0 -20616,4371 -27735,11490 -7095,7096 -11491,16914 -11491,27736zm17176 22074c-5661,-5662 -9149,-13474 -9149,-22074 0,-8624 3488,-16436 9149,-22074 5638,-5662 13450,-9149 22050,-9149 8624,0 16436,3487 22074,9149 5662,5638 9150,13450 9150,22074 0,8600 -3488,16412 -9150,22074 -5638,5638 -13450,9125 -22074,9125 -8600,0 -16412,-3487 -22050,-9125z"/>
   <path class="fil1" d="M2554176 2197508c0,4563 3679,8242 8242,8242 4562,0 8241,-3679 8241,-8242 0,-4563 -3679,-8266 -8241,-8266 -4563,0 -8242,3703 -8242,8266z"/>
   <path class="fil1" d="M2554176 2400113c0,4563 3679,8242 8242,8242 4562,0 8241,-3679 8241,-8242 0,-4562 -3679,-8265 -8241,-8265 -4563,0 -8242,3703 -8242,8265z"/>
   <path class="fil1" d="M2554176 2373333c0,4563 3679,8242 8242,8242 4562,0 8241,-3679 8241,-8242 0,-4562 -3679,-8265 -8241,-8265 -4563,0 -8242,3703 -8242,8265z"/>
   <path class="fil3" d="M1181925 2577611l152485 0c8218,0 15672,3369 21095,8768 5399,5422 8767,12876 8767,21094l0 218539 -208339 0 0 -222385c0,-7167 2915,-13665 7645,-18371 4706,-4706 11204,-7645 18347,-7645zm152485 8027l-152485 0c-4945,0 -9437,2031 -12686,5279 -3272,3249 -5303,7765 -5303,12710l0 214382 192309 0 0 -210536c0,-5996 -2460,-11467 -6402,-15409 -3966,-3965 -9436,-6426 -15433,-6426z"/>
   <polygon class="fil3" points="1159947,2606541 1360259,2606541 1360259,2614568 1159947,2614568 "/>
   <path class="fil1" d="M1212336 2632891c17654,0 31964,14310 31964,31964 0,17654 -14310,31964 -31964,31964 -17654,0 -31964,-14310 -31964,-31964 0,-17654 14310,-31964 31964,-31964z"/>
   <path class="fil1" d="M1301706 2642829c12159,0 22026,9866 22026,22026 0,12184 -9867,22050 -22026,22050 -12184,0 -22050,-9866 -22050,-22050 0,-12160 9866,-22026 22050,-22026z"/>
   <path class="fil1" d="M1301706 2731888c-17678,0 -31988,14310 -31988,31964 0,17655 14310,31964 31988,31964 17654,0 31964,-14309 31964,-31964 0,-17654 -14310,-31964 -31964,-31964z"/>
   <path class="fil1" d="M1212336 2741826c-12160,0 -22026,9867 -22026,22026 0,12160 9866,22026 22026,22026 12183,0 22050,-9866 22050,-22026 0,-12159 -9867,-22026 -22050,-22026z"/>
   <path class="fil3" d="M1893588 2597845l161970 0c6378,0 12159,2604 16364,6809 4204,4180 6808,9986 6808,16364l0 161970c0,6378 -2604,12183 -6784,16388 -4205,4204 -10010,6808 -16388,6808l-161970 0c-6379,0 -12184,-2604 -16388,-6808 -4181,-4205 -6785,-10010 -6785,-16388l0 -161970c0,-6378 2604,-12184 6785,-16364 4228,-4205 10009,-6809 16388,-6809zm161970 8003l-161970 0c-4181,0 -7979,1720 -10726,4444 -2724,2771 -4444,6569 -4444,10726l0 161970c0,4180 1720,7979 4444,10726 2771,2747 6545,4443 10726,4443l161970 0c4180,0 7979,-1696 10726,-4443 2723,-2747 4443,-6546 4443,-10726l0 -161970c0,-4157 -1720,-7955 -4443,-10702 -2747,-2748 -6546,-4468 -10726,-4468z"/>
   <path class="fil3" d="M1910812 2613565l127521 0c6785,0 12972,2795 17440,7262 4467,4467 7238,10631 7238,17415l0 87459c0,6785 -2771,12972 -7238,17439 -4468,4468 -10655,7239 -17440,7239l-127521 0c-6784,0 -12948,-2771 -17439,-7239 -4467,-4467 -7239,-10654 -7239,-17439l0 -87459c0,-6784 2772,-12948 7239,-17415 4491,-4491 10678,-7262 17439,-7262zm127521 8026l-127521 0c-4587,0 -8767,1864 -11753,4874 -3034,3034 -4922,7214 -4922,11777l0 87459c0,4587 1888,8744 4922,11778 3010,3010 7190,4897 11753,4897l127521 0c4563,0 8744,-1887 11778,-4897 3010,-3034 4897,-7191 4897,-11778l0 -87459c0,-4563 -1887,-8743 -4897,-11753 -3034,-3034 -7215,-4898 -11778,-4898z"/>
   <path class="fil1" d="M1981381 2759552c4587,2437 7716,7287 7716,12853 0,8027 -6497,14524 -14524,14524 -8027,0 -14525,-6497 -14525,-14524 0,-5566 3130,-10416 7716,-12853l0 -34233 13617 0 0 34233z"/>
   <path class="fil1" d="M1974573 2658644c9006,0 16292,7310 16292,16292 0,9007 -7286,16317 -16292,16317 -9007,0 -16293,-7310 -16293,-16317 0,-8982 7286,-16292 16293,-16292zm0 6354c5494,0 9938,4468 9938,9938 0,5495 -4444,9962 -9938,9962 -5495,0 -9938,-4467 -9938,-9962 0,-5470 4443,-9938 9938,-9938z"/>
  </g>
 </g>
</svg>
