<?xml version="1.0" encoding="utf-8"?>
<!-- Generator: Adobe Illustrator 21.1.0, SVG Export Plug-In . SVG Version: 6.00 Build 0)  -->
<svg version="1.1" id="Слой_1" xmlns="http://www.w3.org/2000/svg" xmlns:xlink="http://www.w3.org/1999/xlink" x="0px" y="0px"
	 viewBox="0 0 1342 886" style="enable-background:new 0 0 1342 886;" xml:space="preserve">
<style type="text/css">
	.st0{fill:#C0ECFA;}
	.st1{fill:#FFCF00;}
	.st2{fill:#2A2A2A;}
</style>
<g id="Слой_x0020_1">
	<g id="_1135740704">
		<rect x="1328.766" y="392.643" class="st0" width="12.988" height="464.694"/>
		<rect x="810.37" class="st0" width="212.434" height="59.922"/>
		<rect x="446.182" class="st0" width="212.434" height="59.922"/>
		<rect x="90.042" class="st0" width="212.434" height="59.922"/>
		<polygon class="st1" points="1328.766,389.886 1194.429,389.886 1194.429,0 1007.311,0 1003.817,57.561 829.922,59.922 824.51,0 
			643.233,0 645.911,57.561 467.828,57.561 463.479,0 273.061,0 271.476,57.561 98.146,57.561 96.354,0 0.246,0 0.246,864.539 
			1172.149,864.539 1194.429,864.539 1328.766,864.539 		"/>
		<path class="st2" d="M1137.592,839.744v-62.111v-21.07V548.333v-0.727v-25.283H719.395v6.426h-7.671l-17.149,95.29l-3.947-2.549
			l16.69-92.741h-1.204v-6.426h-0.065v-13.137h-0.045v-7.772h8.449l21.309-76.813l3.83,2.076l-20.734,74.737h0.427v6.043h418.306
			V59.922h-133.775h-0.564H829.922h-16.097h-93.84v354.74h-14.865v-11.309h-7.772v-9.161l-79.011-16.873l2.076-3.964l78.27,16.716
			h6.437V59.922h-59.208h-4.752H467.828h-11.909h-79.083v447.535h208.12V391.126h14.865v116.332v14.865h-14.865h-208.12H361.97
			h-80.832v-0.811h-6.506v-7.931l-79.559-21.916l2.076-3.835l77.483,21.345v-0.946h6.506v-0.772h80.832V59.922h-81.936h-8.558
			H98.146h-8.103H25.042v447.535h163.495v14.865H25.042v317.421h74.387v24.795H25.042H0.246v-24.795V59.922V0h24.795h65.001h8.103
			h173.331h8.558h175.885h11.909h173.331h4.752h167.914h16.097h173.331h0.564h133.775h59.922v59.922v328.665h143.059v0.058h1.181
			v475.894h-1.181h-1.181h-7.552h-7.202h-130.209h-37.854H214.602v-3.658h-6.875v-0.947L112.997,886l-2.518-3.713l97.248-26.758
			v-7.93h6.875v-7.855h9.861V652.511v-14.865h14.865h110.254v0.497h5.775v0.777l62.111-20.597l1.679,3.85l-63.79,21.153v8.099
			h-5.775v1.086H239.329v187.233h288.546V652.511H420.194v-14.865h107.681h14.865h0.096v14.865h-0.096v187.233h155.928v-187.82
			h-83.981v-0.5h-7.178v-8.394l-63.79-27.428l1.679-3.684l62.111,26.706v-0.482h7.178v-0.497h83.981h16.363v14.279v187.82
			L1137.592,839.744L1137.592,839.744z M1197.514,395.789v152.544h-57.561v208.229h23.969V645.079h7.203v111.483h26.389v100.775
			h127.124V395.79L1197.514,395.789L1197.514,395.789z M1331.84,395.789v461.547h7.552V395.789L1331.84,395.789L1331.84,395.789z
			 M1149.242,630.983l7.913-74.321h-1.658v-7.772h13.282v7.772h-7.219l-8.134,76.397L1149.242,630.983L1149.242,630.983z
			 M98.146,2.361V26.33h173.331V2.361H98.146z M98.146,33.533v24.028h173.331V33.533H98.146z M467.828,57.561h173.331V33.533
			H467.828V57.561z M641.159,2.361H467.828V26.33h173.331V2.361z M829.922,57.561h173.331V33.533H829.922V57.561z M1003.252,2.361
			H829.922V26.33h173.331V2.361z"/>
	</g>
</g>
</svg>
