<?xml version="1.0" encoding="UTF-8"?>
<!DOCTYPE svg PUBLIC "-//W3C//DTD SVG 1.0//EN" "http://www.w3.org/TR/2001/REC-SVG-20010904/DTD/svg10.dtd">
<!-- Creator: CorelDRAW X7 -->
<svg xmlns="http://www.w3.org/2000/svg" xml:space="preserve" width="225px" height="147px" version="1.0" style="shape-rendering:geometricPrecision; text-rendering:geometricPrecision; image-rendering:optimizeQuality; fill-rule:evenodd; clip-rule:evenodd"
viewBox="0 0 5134119 3359870"
 xmlns:xlink="http://www.w3.org/1999/xlink">
 <defs>
  <style type="text/css">
   <![CDATA[
    .fil1 {fill:#5B5B5B}
    .fil0 {fill:#E8D6FF}
    .fil2 {fill:#FEFEFE}
    .fil3 {fill:#5B5B5B;fill-rule:nonzero}
   ]]>
  </style>
 </defs>
 <g id="Слой_x0020_1">
  <metadata id="CorelCorpID_0Corel-Layer"/>
  <g id="_1036207600">
   <path class="fil0" d="M3867272 0l36545 0 653556 0 0 27 4527 0 0 1458413 445550 0 0 0 29565 0 0 0 25011 0 0 0 17841 0 0 0 0 65895 0 1659897 0 28972 0 36895 -517967 0 0 40966 -4449866 0 -100957 0 -11077 0 0 -3065056 0 -61448 0 -164561 347880 0 0 226009 732333 0 0 -226009 644231 0 12397 0 0 226009 732306 0 0 -226009 82874 0 524192 0 58726 0 0 226009 732333 0 0 -226009zm-1475392 2433195l339687 0 0 828116 -339687 0 0 -828116z"/>
   <path class="fil1" d="M3850508 0l53309 0 653556 0 0 27 4527 0 0 1458413 499802 0 0 0 29565 0 0 0 24984 0 0 0 17868 0 0 0 0 65895 0 1659897 0 28972 0 36895 -572219 0 0 40966 -3740171 0 0 -6603 -27868 0 -343918 75408 -1914 -8813 345563 -75786 0 -24498 28137 0 0 -66218 44064 0 0 -718884 0 -55061 58025 0 414018 0 0 11993 13637 0 217357 -75408 1887 8813 -219002 75813 0 24471 -13879 0 0 9379 -414018 0 0 718884 940932 0 0 -718884 -239296 0 0 -9379 -18057 0 0 -33689 18057 0 0 -11993 239296 0 58025 0 157635 0 0 11993 12074 0 217357 -75408 1887 8813 -219002 75813 0 24471 -12316 0 0 9379 -157635 0 0 718884 443367 0 0 -728263 -17734 0 0 -33689 17734 0 0 -11993 25738 0 32260 0 95836 0 57999 0 117747 0 19917 0 0 -14445 33688 0 0 14445 4420 0 0 773945 1182330 0 193264 0 305136 0 0 -401701 -646 0 0 -304543 43794 0 0 -364644 -31667 0 -56138 353594 -8894 -1429 55923 -352165 -3018 0 0 -39860 -97940 0 0 -97400 -1582117 0 0 46059 -4447 0 0 13825 75436 321307 -8840 1914 -75786 -322978 -24498 0 0 -14068 -3019 0 0 -46059 0 -21103 0 -21426 4286 0 0 -20886 24498 0 75785 -336535 8840 1914 -75435 334863 0 20644 1585297 0 0 -1707869 -432074 0 -53309 0 -683417 0 -90878 0 -322439 0 0 1293367 -3180 0 0 20428 -33688 0 0 -20428 -4286 0 0 -7088 -27920 0 0 -24498 -327479 -75786 1913 -8840 325835 75435 27651 0 0 -1252590 -160599 0 -91821 0 -704763 0 -30993 0 -285894 0 0 1707869 817444 0 0 -455979 41127 0 0 700 23447 0 0 33689 -23447 0 0 421590 0 17572 0 24957 -1194377 0 0 -3288 -15604 0 0 -24499 -304867 -75785 1886 -8840 303250 75435 15335 0 0 -5552 294680 0 0 -1707869 -317211 0 -31640 0 -670966 0 -24687 0 -240886 0 0 1707869 613831 0 0 5552 19728 0 0 33689 -19728 0 0 3288 -613831 0 0 1208148 274467 0 0 66218 24875 0 0 33689 -24875 0 0 6603 -274467 0 -100957 0 -11077 0 0 -3065056 0 -61448 0 -164561 352920 0 24687 0 670966 0 31640 0 644231 0 30993 0 704763 0 91821 0 524192 0 90878 0 683417 0zm-1178394 2465671l-70504 28810 -23635 111765 0 -140575 94139 0zm-91741 172835l29080 -137503 86269 -35251 0 172754 -115349 0zm-71473 -172835l-70503 28810 -14257 67323 0 -96133 84760 0zm-84760 139712l22099 -104380 73737 -30131 0 167634 -95836 0 0 -33123zm236331 207845l-58861 24040 -23635 111765 0 -135805 82496 0zm-79505 165235l28487 -134673 74815 -30562 11454 0 0 165235 -114756 0zm-83709 -165235l-58860 24040 -14257 67323 0 -91363 73117 0zm-73117 134942l22099 -104380 73737 -30131 0 164804 -95836 0 0 -30293zm271582 85353l-271582 0 0 151032 271582 0 0 -151032zm1796780 -168442l69398 0 0 319151 499802 0 0 -1659897 -499802 0 0 549472 -69398 0 0 39860 0 364644 0 386770zm598765 319151l0 -1659897 24984 0 0 1659897 -24984 0zm-1240759 -2967144l0 -90608 -683417 0 0 90608 683417 0zm0 -117774l0 -90393 -683417 0 0 90393 683417 0zm-2095071 117774l704763 0 0 -90608 -704763 0 0 90608zm704763 -208167l-704763 0 0 90393 704763 0 0 -90393zm-2082593 208167l670966 0 0 -90608 -670966 0 0 90608zm670966 -208167l-670966 0 0 90393 670966 0 0 -90393z"/>
   <polygon class="fil2" points="3586472,299989 4264472,299989 4264472,842373 3586472,842373 "/>
   <path class="fil3" d="M3806390 299989l11077 0 447005 0 0 173536 0 21749 0 151814 0 21722 0 173563 -447005 0 -22127 0 -208868 0 0 -542384 11050 0 197818 0 11050 0zm-11050 520662l0 -151841 0 -21722 0 -151814 0 -21749 0 -151814 -186742 0 0 498940 186742 0zm447005 -151841l-424878 0 0 151841 424878 0 0 -151841zm0 -173536l-424878 0 0 151814 424878 0 0 -151814zm0 -173563l-424878 0 0 151814 424878 0 0 -151814z"/>
   <path class="fil3" d="M3703842 517832l-31370 0c-2372,0 -4312,-728 -5795,-2237 -1347,-1563 -2048,-3423 -2048,-5552 0,-1887 701,-3638 2075,-5282 1375,-1671 3315,-2507 5768,-2507l31343 0c12263,0 22019,3962 29323,11939 6576,7493 9837,16467 9837,26951 0,6334 -1213,12155 -3719,17464 -2480,5283 -6307,10026 -11454,14311 4312,3423 7923,7870 10834,13368 2910,5444 4339,11319 4339,17599l0 15658c0,10672 -3854,19890 -11508,27598 -7681,7707 -16925,11561 -27652,11561l-31343 0c-2372,0 -4312,-673 -5795,-2102 -1347,-1725 -2048,-3611 -2048,-5686 0,-1806 674,-3504 1967,-5229 1321,-1725 3288,-2560 5903,-2560l31397 0c6495,0 12020,-2291 16602,-6900 4608,-4581 6899,-10133 6899,-16655l0 -15685c0,-6415 -2237,-11967 -6791,-16575 -4501,-4636 -10107,-6953 -16764,-6953l-15685 0c-2399,0 -4339,-674 -5848,-2103 -1321,-1724 -2022,-3611 -2022,-5686 0,-1806 647,-3504 1995,-5229 1293,-1724 3234,-2560 5875,-2560l15685 0c6954,0 12694,-2506 17141,-7519 3827,-4474 5741,-9972 5741,-16467 0,-6361 -1833,-11643 -5498,-15793 -4151,-4771 -9972,-7169 -17384,-7169z"/>
   <path class="fil3" d="M3908533 358607l-20186 0c-1536,0 -2776,-458 -3746,-1429 -835,-997 -1294,-2210 -1294,-3584 0,-1186 459,-2318 1321,-3369 889,-1105 2156,-1644 3719,-1644l20159 0c7870,0 14150,2560 18839,7681 4231,4824 6333,10592 6333,17356 0,4070 -781,7789 -2398,11212 -1590,3396 -4043,6441 -7358,9190 2776,2210 5094,5067 6954,8597 1886,3504 2802,7304 2802,11320l0 10052c0,6900 -2479,12802 -7411,17761 -4932,4959 -10861,7438 -17761,7438l-20159 0c-1536,0 -2776,-431 -3746,-1347 -835,-1105 -1294,-2345 -1294,-3666 0,-1158 432,-2263 1267,-3368 863,-1105 2102,-1644 3800,-1644l20186 0c4151,0 7708,-1456 10673,-4420 2964,-2965 4447,-6522 4447,-10727l0 -10079c0,-4124 -1456,-7681 -4366,-10646 -2911,-2964 -6522,-4474 -10781,-4474l-10106 0c-1536,0 -2803,-431 -3746,-1347 -863,-1105 -1294,-2345 -1294,-3666 0,-1158 404,-2263 1267,-3368 835,-1105 2075,-1644 3773,-1644l10106 0c4447,0 8139,-1617 11023,-4825 2453,-2883 3665,-6414 3665,-10591 0,-4097 -1158,-7466 -3530,-10161 -2668,-3072 -6414,-4608 -11158,-4608zm70477 0l-20187 0c-1536,0 -2775,-458 -3746,-1429 -835,-997 -1293,-2210 -1293,-3584 0,-1186 458,-2318 1320,-3369 890,-1105 2156,-1644 3719,-1644l20160 0c7869,0 14149,2560 18838,7681 4231,4824 6334,10592 6334,17356 0,4070 -782,7789 -2399,11212 -1590,3396 -4043,6441 -7358,9190 2776,2210 5094,5067 6954,8597 1886,3504 2803,7304 2803,11320l0 10052c0,6900 -2480,12802 -7412,17761 -4932,4959 -10861,7438 -17760,7438l-20160 0c-1536,0 -2775,-431 -3746,-1347 -835,-1105 -1293,-2345 -1293,-3666 0,-1158 431,-2263 1266,-3368 863,-1105 2102,-1644 3800,-1644l20187 0c4150,0 7707,-1456 10672,-4420 2965,-2965 4447,-6522 4447,-10727l0 -10079c0,-4124 -1455,-7681 -4366,-10646 -2911,-2964 -6522,-4474 -10780,-4474l-10107 0c-1536,0 -2803,-431 -3746,-1347 -863,-1105 -1294,-2345 -1294,-3666 0,-1158 404,-2263 1267,-3368 835,-1105 2075,-1644 3773,-1644l10107 0c4446,0 8139,-1617 11022,-4825 2453,-2883 3666,-6414 3666,-10591 0,-4097 -1159,-7466 -3531,-10161 -2668,-3072 -6414,-4608 -11157,-4608zm45708 85568c0,-1374 485,-2560 1455,-3530 998,-970 2156,-1482 3531,-1482 1105,0 2210,512 3342,1482 1105,970 1671,2156 1671,3530 0,1213 -485,2345 -1456,3396 -997,1078 -2183,1617 -3557,1617 -1402,0 -2641,-485 -3638,-1509 -917,-1051 -1348,-2210 -1348,-3504zm60451 -55383c4554,0 8327,-1590 11319,-4744 2506,-2964 3773,-6414 3773,-10430 0,-4096 -1267,-7546 -3773,-10403 -2749,-3153 -6522,-4743 -11319,-4743 -4420,0 -8220,1590 -11347,4743 -2506,2965 -3746,6415 -3746,10403 0,4124 1240,7573 3746,10430 2749,3154 6522,4744 11347,4744zm0 10025c-6361,0 -11454,2075 -15201,6253 -3368,3800 -5066,8462 -5066,13933 0,5417 1698,10026 5066,13826 3800,4231 8894,6334 15201,6334 6360,0 11427,-2076 15173,-6253 3369,-3800 5067,-8436 5067,-13907 0,-5336 -1671,-9944 -4986,-13852 -3800,-4232 -8894,-6334 -15254,-6334zm16601 -5579c4474,2588 7870,6199 10161,10835 2344,4608 3503,9594 3503,14930 0,7897 -2533,14796 -7573,20699 -5579,6333 -13125,9486 -22719,9486 -9487,0 -17006,-3126 -22693,-9352 -5040,-5605 -7546,-12559 -7546,-20833 0,-5336 1132,-10295 3342,-14849 2264,-4609 5686,-8274 10295,-11050 -2695,-2264 -4797,-5148 -6253,-8625 -1509,-3476 -2237,-7088 -2237,-10834 0,-6710 2076,-12505 6253,-17356 4636,-5228 10915,-7843 18839,-7843 7761,0 14014,2615 18784,7843 4232,4797 6334,10592 6334,17356 0,3746 -701,7358 -2102,10834 -1429,3477 -3531,6415 -6388,8759zm80340 -5983l-32556 51908 31236 0c1401,0 2560,539 3557,1563 971,997 1483,2183 1483,3449 0,1159 -432,2264 -1267,3369 -862,1105 -2102,1644 -3773,1644l-40292 0c-3638,0 -5444,-1347 -5444,-4015 0,-1078 405,-2318 1213,-3774l37192 -59318c1267,-2641 1887,-5148 1887,-7573 0,-4312 -1671,-8059 -5040,-11239 -1590,-1482 -3450,-2641 -5552,-3503 -2102,-863 -4393,-1294 -6818,-1294 -2561,0 -5013,647 -7331,1994 -2372,1510 -4312,3423 -5848,5741 -378,647 -1051,1240 -1941,1833l-2237 485c-1266,0 -2479,-459 -3557,-1402 -1078,-943 -1617,-2075 -1617,-3476 0,-674 296,-1644 862,-2884 2291,-3585 5417,-6522 9379,-8813 1914,-1105 3854,-1967 5794,-2560 1968,-620 3881,-944 5768,-944 7870,0 14526,2588 19970,7816 5445,5202 8167,11400 8167,18623 0,4123 -1078,8247 -3235,12370z"/>
   <path class="fil3" d="M3893522 532439l0 30320 15146 0c6846,0 12802,2452 17761,7384 4986,4905 7465,10834 7465,17788l0 10052c0,6873 -2479,12775 -7411,17734 -4932,4959 -10889,7438 -17788,7438l-20159 0c-1509,0 -2776,-458 -3719,-1428 -863,-997 -1294,-2210 -1294,-3584 0,-1186 431,-2318 1321,-3396 916,-1078 2129,-1617 3719,-1617l20186 0c4123,0 7681,-1429 10645,-4312 2965,-2884 4474,-6469 4474,-10835l0 -10079c0,-4178 -1455,-7735 -4366,-10673 -2910,-2964 -6495,-4447 -10753,-4447l-20186 0c-3369,0 -5040,-1671 -5040,-5039l0 -40292c0,-3369 1671,-5040 5013,-5040l40318 0c1375,0 2587,513 3558,1537 970,1024 1482,2183 1482,3476 0,1159 -431,2264 -1267,3369 -862,1105 -2102,1644 -3773,1644l-35332 0zm70476 0l0 5067c0,1590 -458,2884 -1428,3854 -890,808 -2103,1240 -3585,1240 -1320,0 -2479,-432 -3503,-1267 -998,-863 -1483,-2102 -1483,-3800l0 -10080c0,-3369 1671,-5040 5040,-5040l40318 0c3396,0 5094,1375 5094,4151l-296 2156 -25145 90716c-162,997 -728,1860 -1671,2614 -971,728 -1995,1105 -3100,1105 -1482,0 -2695,-404 -3665,-1239 -943,-863 -1428,-2049 -1428,-3585 0,-727 53,-1213 215,-1509l23366 -84383 -28729 0zm60477 85704c0,-1375 486,-2561 1456,-3531 997,-970 2156,-1482 3530,-1482 1105,0 2210,512 3342,1482 1105,970 1671,2156 1671,3531 0,1212 -485,2344 -1455,3395 -997,1078 -2183,1617 -3558,1617 -1401,0 -2641,-485 -3638,-1509 -916,-1051 -1348,-2210 -1348,-3503zm60451 -55384c4555,0 8328,-1590 11319,-4744 2507,-2964 3773,-6414 3773,-10430 0,-4096 -1266,-7546 -3773,-10403 -2749,-3153 -6522,-4743 -11319,-4743 -4420,0 -8220,1590 -11346,4743 -2507,2965 -3746,6415 -3746,10403 0,4124 1239,7574 3746,10430 2749,3154 6522,4744 11346,4744zm0 10025c-6360,0 -11454,2076 -15200,6253 -3369,3800 -5067,8463 -5067,13934 0,5417 1698,10025 5067,13825 3800,4232 8894,6334 15200,6334 6360,0 11427,-2076 15173,-6253 3369,-3800 5067,-8435 5067,-13906 0,-5337 -1671,-9945 -4986,-13853 -3800,-4231 -8894,-6334 -15254,-6334zm16602 -5578c4474,2587 7869,6198 10160,10834 2345,4608 3504,9594 3504,14931 0,7896 -2534,14795 -7573,20698 -5579,6333 -13125,9486 -22720,9486 -9487,0 -17006,-3126 -22692,-9352 -5040,-5605 -7547,-12559 -7547,-20832 0,-5337 1132,-10296 3342,-14850 2264,-4609 5687,-8274 10295,-11050 -2695,-2264 -4797,-5148 -6252,-8624 -1509,-3477 -2237,-7088 -2237,-10835 0,-6710 2075,-12505 6252,-17356 4636,-5228 10916,-7843 18839,-7843 7762,0 14014,2615 18785,7843 4231,4797 6333,10592 6333,17356 0,3747 -701,7358 -2102,10835 -1428,3476 -3531,6414 -6387,8759zm43876 5578l-216 5040 0 25226c0,2830 970,5229 2911,7223 997,862 2075,1563 3234,2156 1455,458 2776,701 3988,701l10107 0c2803,0 5174,-917 7142,-2803 1994,-1887 2964,-4312 2964,-7277l0 -20186c0,-2830 -943,-5228 -2856,-7169 -1914,-1940 -4312,-2911 -7250,-2911l-20024 0zm1778 -10025l18219 0c5471,0 10187,1967 14176,5875 3989,3908 5983,8678 5983,14257l0 20132c0,5525 -1967,10241 -5902,14203 -3962,3935 -8678,5929 -14257,5929l-10080 0c-5417,0 -10133,-1940 -14122,-5821 -4015,-3881 -6010,-8651 -6010,-14311l0 -25145c0,-9567 1806,-18623 5471,-27220 2480,-5929 6145,-11346 10996,-16251 4824,-4879 10457,-8706 16817,-11481l2156 -513c1294,0 2480,513 3531,1564 862,1105 1294,2344 1294,3692 0,943 -216,1752 -647,2452 -431,674 -1240,1348 -2426,2076 -1374,512 -2560,1078 -3638,1617 -1078,566 -2264,1266 -3504,2129 -2048,1401 -4150,3099 -6333,5174 -3908,3935 -6926,8436 -9056,13530l-1509 4015 -1159 4097z"/>
   <path class="fil3" d="M3908614 705867l0 30320 15147 0c6845,0 12801,2452 17760,7384 4986,4905 7465,10835 7465,17788l0 10052c0,6873 -2479,12775 -7411,17734 -4932,4959 -10888,7438 -17788,7438l-20159 0c-1509,0 -2776,-458 -3719,-1428 -862,-997 -1294,-2210 -1294,-3584 0,-1186 432,-2318 1321,-3396 916,-1078 2129,-1617 3719,-1617l20186 0c4124,0 7681,-1429 10646,-4312 2964,-2884 4474,-6469 4474,-10835l0 -10079c0,-4177 -1456,-7735 -4366,-10673 -2911,-2964 -6495,-4446 -10754,-4446l-20186 0c-3369,0 -5040,-1671 -5040,-5040l0 -40292c0,-3368 1671,-5039 5013,-5039l40319 0c1374,0 2587,512 3557,1536 970,1024 1482,2183 1482,3476 0,1159 -431,2264 -1266,3369 -863,1105 -2102,1644 -3773,1644l-35333 0zm100688 40346l135 -2318 0 -2749 0 -25199c0,-2857 -943,-5229 -2857,-7169 -1913,-1941 -4312,-2911 -7250,-2911l-10106 0c-2857,0 -5256,944 -7223,2857 -970,997 -1698,2075 -2183,3288 -485,1240 -728,2533 -728,3935l0 20186c0,2803 971,5228 2911,7196 997,862 2102,1590 3261,2183 1455,458 2776,701 3962,701l20078 0zm-1886 10025l-18192 0c-5417,0 -10134,-1940 -14122,-5821 -4016,-3881 -6010,-8678 -6010,-14311l0 -20132c0,-5552 1940,-10322 5875,-14230 3962,-3935 8705,-5902 14257,-5902l10079 0c5606,0 10377,1967 14284,5902 3908,3935 5876,8678 5876,14257l0 25118c0,9675 -1833,18731 -5471,27193 -2642,6280 -6334,11858 -11131,16683 -4770,4851 -10349,8570 -16709,11157l-2184 431c-1131,0 -2236,-539 -3287,-1617 -1025,-1078 -1537,-2317 -1537,-3638 0,-835 216,-1617 674,-2372 404,-781 1213,-1455 2426,-2021 2560,-1024 4905,-2237 7115,-3692 2210,-1429 4312,-3207 6333,-5309 3719,-3854 6738,-8409 9056,-13638l1374 -3827 1294 -4231zm32152 35333c0,-1375 485,-2561 1455,-3531 997,-970 2156,-1482 3531,-1482 1105,0 2210,512 3342,1482 1105,970 1671,2156 1671,3531 0,1212 -485,2344 -1456,3395 -997,1078 -2183,1617 -3557,1617 -1402,0 -2641,-485 -3639,-1509 -916,-1051 -1347,-2210 -1347,-3503zm60370 -27c0,1590 -459,2856 -1429,3800 -916,835 -2102,1239 -3584,1239 -1321,0 -2507,-404 -3504,-1239 -997,-836 -1509,-2129 -1509,-3800l0 -78508 -11562 11562c-997,997 -2156,1509 -3450,1509 -1212,0 -2371,-512 -3503,-1509 -1078,-1078 -1617,-2264 -1617,-3611 0,-1159 539,-2318 1536,-3477l20078 -20186c674,-701 1375,-1240 2075,-1644 728,-404 1510,-620 2372,-620 836,0 1779,512 2857,1509 808,1051 1240,2480 1240,4258l0 90717zm66837 -56893l-32556 51907 31236 0c1401,0 2560,539 3557,1563 971,997 1483,2183 1483,3450 0,1159 -432,2264 -1267,3368 -862,1105 -2102,1644 -3773,1644l-40291 0c-3639,0 -5445,-1347 -5445,-4015 0,-1078 405,-2318 1213,-3773l37192 -59319c1267,-2641 1887,-5147 1887,-7573 0,-4312 -1671,-8058 -5040,-11239 -1590,-1482 -3450,-2641 -5552,-3503 -2102,-863 -4393,-1294 -6818,-1294 -2561,0 -5013,647 -7331,1995 -2372,1509 -4312,3422 -5848,5740 -378,647 -1051,1240 -1941,1833l-2237 485c-1266,0 -2479,-458 -3557,-1402 -1078,-943 -1617,-2075 -1617,-3476 0,-674 296,-1644 862,-2884 2291,-3584 5417,-6522 9379,-8813 1914,-1105 3854,-1967 5795,-2560 1967,-620 3880,-943 5767,-943 7870,0 14526,2587 19970,7815 5445,5202 8167,11400 8167,18623 0,4124 -1078,8247 -3235,12371z"/>
   <path class="fil3" d="M493037 1208714l36761 -36437c862,-782 1860,-1186 2991,-1186 1079,0 2076,431 3019,1321 943,889 1428,1940 1428,3153 0,755 -458,1725 -1320,2938l-25981 25899 26789 47380 620 2318c0,1131 -485,2075 -1428,2910 -890,863 -1941,1321 -3207,1321 -1402,0 -2615,-755 -3666,-2291l-25603 -45493 -10403 10214 0 33204c0,1374 -404,2479 -1240,3315 -781,700 -1832,1051 -3099,1051 -1159,0 -2183,-351 -3045,-1078 -863,-755 -1294,-1833 -1294,-3288l0 -78643c0,-1105 431,-2102 1348,-2964 862,-863 1886,-1267 2991,-1267 1105,0 2129,324 3045,997 863,728 1294,1833 1294,3234l0 33392zm108935 32153c0,4797 -1698,8893 -5094,12316 -3395,3423 -7519,5148 -12316,5148l-17437 0c-4744,0 -8840,-1698 -12263,-5094 -3450,-3369 -5174,-7492 -5174,-12370l0 -52339c0,-4851 1698,-8974 5066,-12370 3396,-3369 7520,-5067 12371,-5067l17437 0c4824,0 8948,1698 12343,5094 3369,3423 5067,7519 5067,12343l0 52339zm-8651 54l0 -52420c0,-2479 -836,-4527 -2480,-6225 -1644,-1671 -3746,-2534 -6279,-2534l-17464 0c-2453,0 -4528,836 -6253,2507 -835,835 -1455,1779 -1859,2830 -405,1078 -620,2210 -620,3422l0 52420c0,2452 808,4527 2479,6252 890,728 1833,1348 2830,1860 1240,404 2372,620 3423,620l17464 0c2425,0 4474,-809 6199,-2453 1697,-1617 2560,-3719 2560,-6279zm94193 13044c0,1374 -378,2479 -1159,3315 -836,700 -1914,1051 -3180,1051 -997,0 -1968,-351 -2911,-1078 -970,-755 -1428,-1833 -1428,-3288l0 -62256 -18030 30130c-1078,1887 -2345,2803 -3800,2803 -1267,0 -2507,-916 -3774,-2803l-18137 -30130 0 62256c0,1374 -405,2479 -1240,3315 -782,700 -1833,1051 -3100,1051 -1158,0 -2183,-351 -3045,-1078 -862,-728 -1294,-1833 -1294,-3288l0 -78104c0,-1644 432,-2883 1240,-3719 755,-862 1671,-1320 2749,-1320 782,0 1482,215 2102,620 620,431 1294,1158 1995,2183l22504 37380 22396 -37380c997,-1860 2398,-2803 4177,-2803 997,0 1940,458 2803,1374 754,943 1132,2183 1132,3665l0 78104zm61016 -47946l0 -30589c0,-1159 405,-2183 1294,-3045 862,-890 1886,-1294 3018,-1294 1105,0 2130,351 3019,1078 889,728 1320,1833 1320,3261l0 78427c0,1240 -431,2345 -1347,3288 -1051,782 -2048,1186 -3045,1186 -1052,0 -2076,-351 -3046,-1051 -808,-701 -1213,-1806 -1213,-3261l0 -39321 -34955 0 0 39267c0,1374 -404,2479 -1240,3315 -781,700 -1832,1051 -3099,1051 -1159,0 -2183,-351 -3045,-1078 -863,-728 -1294,-1833 -1294,-3288l0 -78481c0,-1159 431,-2237 1294,-3234 862,-755 1886,-1132 3045,-1132 1105,0 2129,377 2992,1105 889,728 1347,1806 1347,3288l0 30508 34955 0zm41424 30509l-6307 18811c-323,917 -862,1644 -1617,2237 -566,377 -1374,620 -2345,755 -1185,0 -2183,-431 -3072,-1267 -943,-728 -1428,-1725 -1428,-2964l296 -1564 26250 -78480c863,-2480 2237,-3746 4097,-3746 1859,0 3234,1266 4096,3746l26115 78480 324 1564c0,1131 -485,2129 -1456,3045 -916,782 -1940,1186 -3045,1186 -593,0 -1213,-162 -1967,-458 -728,-270 -1402,-1105 -2022,-2534l-6279 -18811 -31640 0zm28729 -8948l-12855 -38378 -12883 38378 25738 0zm38809 -47838l-17437 0c-1321,0 -2426,-377 -3234,-1159 -755,-943 -1132,-2021 -1132,-3153 0,-1024 350,-1967 1078,-2937 728,-944 1833,-1402 3288,-1402l43579 0c1213,0 2210,431 3073,1321 862,889 1266,1913 1266,3018 0,997 -350,1941 -1078,2911 -727,943 -1832,1401 -3261,1401l-17464 0 0 74223c0,1374 -404,2479 -1239,3315 -782,700 -1833,1051 -3100,1051 -1132,0 -2156,-351 -3045,-1078 -863,-755 -1294,-1833 -1294,-3288l0 -74223zm45816 56786l-6306 18811c-323,917 -862,1644 -1617,2237 -566,377 -1375,620 -2345,755 -1186,0 -2183,-431 -3072,-1267 -943,-728 -1429,-1725 -1429,-2964l297 -1564 26250 -78480c862,-2480 2237,-3746 4096,-3746 1860,0 3235,1266 4097,3746l26115 78480 324 1564c0,1131 -485,2129 -1456,3045 -916,782 -1940,1186 -3045,1186 -593,0 -1213,-162 -1968,-458 -727,-270 -1401,-1105 -2021,-2534l-6279 -18811 -31641 0zm28730 -8948l-12856 -38378 -12882 38378 25738 0zm-224042 130037c0,-1185 432,-2210 1267,-3072 862,-835 1887,-1267 3072,-1267 944,0 1914,432 2884,1267 970,862 1455,1887 1455,3072 0,1051 -431,2022 -1293,2938 -836,943 -1860,1401 -3046,1401 -1239,0 -2290,-431 -3180,-1293 -781,-917 -1159,-1941 -1159,-3046zm-78507 -27c0,1375 -404,2480 -1240,3315 -782,701 -1806,1051 -3099,1051 -1132,0 -2156,-350 -3046,-1078 -862,-727 -1293,-1832 -1293,-3288l0 -67996 -9999 9998c-889,890 -1887,1321 -3019,1321 -1024,0 -2048,-431 -3018,-1321 -916,-916 -1401,-1940 -1401,-3126 0,-997 458,-1994 1320,-2991l17410 -17491c566,-593 1186,-1052 1806,-1429 620,-350 1294,-539 2021,-539 728,0 1563,458 2507,1321 700,916 1051,2156 1051,3692l0 78561zm61097 -14823c0,5175 -1859,9676 -5579,13503 -3719,3800 -8274,5686 -13637,5686l-5228 0c-5175,0 -9702,-1859 -13503,-5551 -3800,-3693 -5686,-8247 -5686,-13638l0 -48861c0,-5094 1859,-9595 5606,-13449 3746,-3827 8274,-5740 13583,-5740l5228 0c5202,0 9703,1832 13503,5552 3800,3719 5713,8274 5713,13637l0 48861zm-8678 27l0 -48942c0,-2857 -1024,-5336 -3045,-7385 -2022,-2075 -4501,-3099 -7466,-3099l-5282 0c-2857,0 -5336,1024 -7385,3072 -2075,2049 -3099,4501 -3099,7412l0 48942c0,2884 1024,5337 3045,7412 2049,2048 4528,3072 7439,3072l5282 0c2830,0 5283,-997 7385,-2991 2075,-1995 3126,-4501 3126,-7493zm78427 -33149c3961,0 7249,-1374 9837,-4123 2156,-2534 3261,-5525 3261,-9002 0,-3558 -1105,-6549 -3261,-9002 -2372,-2749 -5660,-4150 -9837,-4150 -3827,0 -7088,1401 -9810,4150 -2156,2534 -3261,5525 -3261,9002 0,3557 1105,6549 3261,9002 2371,2749 5659,4123 9810,4123zm0 8678c-5498,0 -9891,1806 -13152,5417 -2911,3315 -4366,7331 -4366,12074 0,4690 1455,8678 4366,11993 3288,3639 7708,5471 13152,5471 5525,0 9918,-1805 13179,-5417 2910,-3288 4366,-7303 4366,-12047 0,-4608 -1429,-8624 -4312,-11993 -3288,-3665 -7708,-5498 -13233,-5498zm14418 -4824c3854,2237 6792,5363 8786,9379 2022,3989 3019,8328 3019,12936 0,6846 -2183,12802 -6549,17922 -4824,5471 -11373,8220 -19674,8220 -8220,0 -14742,-2695 -19647,-8112 -4366,-4824 -6549,-10861 -6549,-18030 0,-4608 970,-8920 2910,-12882 1941,-3962 4905,-7142 8894,-9541 -2318,-1967 -4123,-4447 -5417,-7465 -1294,-3019 -1941,-6145 -1941,-9379 0,-5821 1833,-10861 5445,-15039 4015,-4527 9459,-6791 16305,-6791 6710,0 12128,2264 16278,6791 3665,4151 5471,9164 5471,15039 0,3234 -593,6360 -1806,9379 -1239,3018 -3072,5552 -5525,7573zm55276 44091c0,1375 -404,2480 -1239,3315 -782,701 -1806,1051 -3100,1051 -1132,0 -2156,-350 -3045,-1078 -863,-727 -1294,-1832 -1294,-3288l0 -67996 -9999 9998c-889,890 -1886,1321 -3018,1321 -1024,0 -2048,-431 -3018,-1321 -917,-916 -1402,-1940 -1402,-3126 0,-997 458,-1994 1321,-2991l17410 -17491c566,-593 1186,-1052 1806,-1429 619,-350 1293,-539 2021,-539 728,0 1563,458 2506,1321 701,916 1051,2156 1051,3692l0 78561z"/>
   <path class="fil3" d="M1855101 1208714l36761 -36437c863,-782 1860,-1186 2992,-1186 1078,0 2075,431 3018,1321 943,889 1429,1940 1429,3153 0,755 -459,1725 -1321,2938l-25981 25899 26790 47380 619 2318c0,1131 -485,2075 -1428,2910 -889,863 -1940,1321 -3207,1321 -1402,0 -2614,-755 -3665,-2291l-25604 -45493 -10403 10214 0 33204c0,1374 -404,2479 -1239,3315 -782,700 -1833,1051 -3100,1051 -1159,0 -2183,-351 -3045,-1078 -863,-755 -1294,-1833 -1294,-3288l0 -78643c0,-1105 431,-2102 1348,-2964 862,-863 1886,-1267 2991,-1267 1105,0 2129,324 3046,997 862,728 1293,1833 1293,3234l0 33392zm108935 32153c0,4797 -1698,8893 -5093,12316 -3396,3423 -7520,5148 -12317,5148l-17437 0c-4743,0 -8840,-1698 -12263,-5094 -3449,-3369 -5174,-7492 -5174,-12370l0 -52339c0,-4851 1698,-8974 5067,-12370 3395,-3369 7519,-5067 12370,-5067l17437 0c4824,0 8948,1698 12344,5094 3368,3423 5066,7519 5066,12343l0 52339zm-8651 54l0 -52420c0,-2479 -835,-4527 -2479,-6225 -1644,-1671 -3747,-2534 -6280,-2534l-17464 0c-2452,0 -4528,836 -6253,2507 -835,835 -1455,1779 -1859,2830 -404,1078 -620,2210 -620,3422l0 52420c0,2452 809,4527 2479,6252 890,728 1833,1348 2830,1860 1240,404 2372,620 3423,620l17464 0c2426,0 4474,-809 6199,-2453 1698,-1617 2560,-3719 2560,-6279zm94193 13044c0,1374 -377,2479 -1159,3315 -835,700 -1913,1051 -3180,1051 -997,0 -1967,-351 -2911,-1078 -970,-755 -1428,-1833 -1428,-3288l0 -62256 -18030 30130c-1078,1887 -2345,2803 -3800,2803 -1267,0 -2507,-916 -3773,-2803l-18138 -30130 0 62256c0,1374 -404,2479 -1240,3315 -782,700 -1833,1051 -3099,1051 -1159,0 -2183,-351 -3046,-1078 -862,-728 -1293,-1833 -1293,-3288l0 -78104c0,-1644 431,-2883 1239,-3719 755,-862 1671,-1320 2749,-1320 782,0 1483,215 2103,620 619,431 1293,1158 1994,2183l22504 37380 22396 -37380c997,-1860 2398,-2803 4177,-2803 997,0 1941,458 2803,1374 755,943 1132,2183 1132,3665l0 78104zm61017 -47946l0 -30589c0,-1159 404,-2183 1293,-3045 863,-890 1887,-1294 3019,-1294 1105,0 2129,351 3018,1078 890,728 1321,1833 1321,3261l0 78427c0,1240 -431,2345 -1348,3288 -1051,782 -2048,1186 -3045,1186 -1051,0 -2075,-351 -3046,-1051 -808,-701 -1212,-1806 -1212,-3261l0 -39321 -34956 0 0 39267c0,1374 -404,2479 -1239,3315 -782,700 -1833,1051 -3100,1051 -1159,0 -2183,-351 -3045,-1078 -863,-728 -1294,-1833 -1294,-3288l0 -78481c0,-1159 431,-2237 1294,-3234 862,-755 1886,-1132 3045,-1132 1105,0 2129,377 2992,1105 889,728 1347,1806 1347,3288l0 30508 34956 0zm41423 30509l-6307 18811c-323,917 -862,1644 -1617,2237 -566,377 -1374,620 -2344,755 -1186,0 -2183,-431 -3073,-1267 -943,-728 -1428,-1725 -1428,-2964l296 -1564 26250 -78480c863,-2480 2237,-3746 4097,-3746 1859,0 3234,1266 4096,3746l26116 78480 323 1564c0,1131 -485,2129 -1455,3045 -917,782 -1941,1186 -3046,1186 -593,0 -1213,-162 -1967,-458 -728,-270 -1402,-1105 -2021,-2534l-6280 -18811 -31640 0zm28729 -8948l-12855 -38378 -12883 38378 25738 0zm38809 -47838l-17437 0c-1320,0 -2425,-377 -3234,-1159 -754,-943 -1132,-2021 -1132,-3153 0,-1024 351,-1967 1078,-2937 728,-944 1833,-1402 3288,-1402l43580 0c1212,0 2210,431 3072,1321 862,889 1267,1913 1267,3018 0,997 -351,1941 -1078,2911 -728,943 -1833,1401 -3261,1401l-17464 0 0 74223c0,1374 -405,2479 -1240,3315 -782,700 -1833,1051 -3100,1051 -1131,0 -2156,-351 -3045,-1078 -862,-755 -1294,-1833 -1294,-3288l0 -74223zm45817 56786l-6307 18811c-323,917 -862,1644 -1617,2237 -566,377 -1374,620 -2345,755 -1185,0 -2183,-431 -3072,-1267 -943,-728 -1428,-1725 -1428,-2964l296 -1564 26250 -78480c863,-2480 2237,-3746 4097,-3746 1859,0 3234,1266 4096,3746l26116 78480 323 1564c0,1131 -485,2129 -1455,3045 -917,782 -1941,1186 -3046,1186 -593,0 -1213,-162 -1967,-458 -728,-270 -1402,-1105 -2022,-2534l-6279 -18811 -31640 0zm28729 -8948l-12855 -38378 -12883 38378 25738 0zm-276434 90743l135 -1994 0 -2372 0 -21830c0,-2479 -835,-4528 -2479,-6226 -1644,-1671 -3747,-2533 -6280,-2533l-8759 0c-2479,0 -4555,836 -6252,2506 -836,836 -1483,1779 -1887,2830 -404,1078 -620,2210 -620,3423l0 17464c0,2453 809,4528 2507,6253 862,754 1832,1374 2829,1859 1240,405 2399,620 3423,620l17383 0zm-1617 8678l-15766 0c-4689,0 -8759,-1671 -12236,-5039 -3449,-3342 -5201,-7493 -5201,-12398l0 -17437c0,-4797 1698,-8921 5094,-12316 3422,-3396 7519,-5094 12343,-5094l8732 0c4878,0 9002,1698 12371,5094 3368,3422 5093,7519 5093,12343l0 21749c0,8409 -1590,16252 -4743,23555 -2291,5444 -5498,10268 -9648,14473 -4124,4177 -8948,7411 -14473,9648l-1860 377c-997,0 -1967,-458 -2856,-1401 -890,-943 -1348,-1994 -1348,-3153 0,-728 189,-1402 593,-2049 350,-673 1051,-1266 2102,-1751 2210,-890 4231,-1941 6145,-3180 1913,-1267 3746,-2803 5498,-4636 3234,-3315 5848,-7250 7843,-11778l1185 -3314 1132 -3693zm27840 30616c0,-1185 432,-2210 1267,-3072 863,-835 1887,-1267 3072,-1267 944,0 1914,432 2884,1267 970,862 1456,1887 1456,3072 0,1051 -432,2022 -1294,2938 -836,943 -1860,1401 -3046,1401 -1239,0 -2290,-431 -3180,-1293 -781,-917 -1159,-1941 -1159,-3046zm34821 -74249l0 4420c0,1374 -404,2479 -1240,3342 -782,701 -1833,1051 -3099,1051 -1159,0 -2183,-350 -3046,-1078 -862,-755 -1293,-1833 -1293,-3288l0 -8759c0,-2911 1455,-4339 4366,-4339l34928 0c2937,0 4420,1186 4420,3584l-270 1860 -21776 78561c-135,863 -620,1617 -1455,2291 -836,620 -1725,943 -2668,943 -1294,0 -2345,-350 -3181,-1078 -835,-754 -1239,-1778 -1239,-3099 0,-620 54,-1051 188,-1321l20240 -73090 -24875 0zm95998 59399c0,5175 -1859,9676 -5578,13503 -3720,3800 -8274,5686 -13638,5686l-5228 0c-5175,0 -9702,-1859 -13502,-5551 -3800,-3693 -5687,-8247 -5687,-13638l0 -48861c0,-5094 1860,-9595 5606,-13449 3746,-3827 8274,-5740 13583,-5740l5228 0c5202,0 9703,1832 13503,5552 3800,3719 5713,8274 5713,13637l0 48861zm-8678 27l0 -48942c0,-2857 -1024,-5336 -3045,-7385 -2022,-2075 -4501,-3099 -7466,-3099l-5282 0c-2857,0 -5336,1024 -7384,3072 -2076,2049 -3100,4501 -3100,7412l0 48942c0,2884 1024,5337 3046,7412 2048,2048 4527,3072 7438,3072l5282 0c2830,0 5283,-997 7385,-2991 2075,-1995 3126,-4501 3126,-7493z"/>
   <path class="fil3" d="M3311790 1208580l36761 -36438c862,-781 1859,-1186 2991,-1186 1078,0 2075,432 3019,1321 943,889 1428,1940 1428,3153 0,755 -458,1725 -1321,2938l-25980 25900 26789 47379 620 2318c0,1132 -485,2075 -1429,2910 -889,863 -1940,1321 -3207,1321 -1401,0 -2614,-755 -3665,-2291l-25603 -45493 -10403 10215 0 33203c0,1374 -405,2479 -1240,3315 -782,701 -1833,1051 -3099,1051 -1159,0 -2183,-350 -3046,-1078 -862,-755 -1293,-1833 -1293,-3288l0 -78642c0,-1105 431,-2102 1347,-2965 863,-862 1887,-1267 2992,-1267 1105,0 2129,324 3045,998 862,727 1294,1832 1294,3234l0 33392zm108935 32152c0,4797 -1698,8894 -5094,12316 -3396,3423 -7519,5148 -12317,5148l-17437 0c-4743,0 -8840,-1698 -12262,-5094 -3450,-3369 -5175,-7492 -5175,-12370l0 -52338c0,-4852 1698,-8975 5067,-12371 3396,-3369 7519,-5067 12370,-5067l17437 0c4825,0 8948,1698 12344,5094 3369,3423 5067,7519 5067,12344l0 52338zm-8652 54l0 -52419c0,-2480 -835,-4528 -2479,-6226 -1644,-1671 -3746,-2533 -6280,-2533l-17464 0c-2452,0 -4527,835 -6252,2506 -836,836 -1456,1779 -1860,2830 -404,1078 -620,2210 -620,3423l0 52419c0,2452 809,4528 2480,6252 889,728 1832,1348 2830,1860 1239,404 2371,620 3422,620l17464 0c2426,0 4474,-809 6199,-2453 1698,-1617 2560,-3719 2560,-6279zm94193 13044c0,1374 -377,2479 -1159,3315 -835,701 -1913,1051 -3180,1051 -997,0 -1967,-350 -2910,-1078 -971,-755 -1429,-1833 -1429,-3288l0 -62256 -18030 30131c-1078,1886 -2345,2803 -3800,2803 -1267,0 -2506,-917 -3773,-2803l-18138 -30131 0 62256c0,1374 -404,2479 -1240,3315 -781,701 -1832,1051 -3099,1051 -1159,0 -2183,-350 -3045,-1078 -863,-728 -1294,-1833 -1294,-3288l0 -78103c0,-1644 431,-2884 1240,-3719 754,-863 1671,-1321 2749,-1321 781,0 1482,216 2102,620 620,431 1293,1159 1994,2183l22504 37380 22396 -37380c997,-1860 2399,-2803 4178,-2803 997,0 1940,458 2802,1374 755,944 1132,2183 1132,3666l0 78103zm61017 -47945l0 -30589c0,-1159 404,-2184 1293,-3046 863,-889 1887,-1294 3019,-1294 1105,0 2129,351 3018,1078 890,728 1321,1833 1321,3262l0 78426c0,1240 -431,2345 -1347,3288 -1052,782 -2049,1186 -3046,1186 -1051,0 -2075,-350 -3045,-1051 -809,-701 -1213,-1806 -1213,-3261l0 -39321 -34955 0 0 39267c0,1374 -405,2479 -1240,3315 -782,701 -1833,1051 -3099,1051 -1159,0 -2183,-350 -3046,-1078 -862,-728 -1293,-1833 -1293,-3288l0 -78481c0,-1158 431,-2237 1293,-3234 863,-754 1887,-1132 3046,-1132 1105,0 2129,378 2991,1105 890,728 1348,1806 1348,3288l0 30509 34955 0zm41423 30508l-6306 18811c-324,917 -863,1644 -1617,2237 -566,378 -1375,620 -2345,755 -1186,0 -2183,-431 -3072,-1267 -944,-727 -1429,-1725 -1429,-2964l297 -1563 26250 -78481c862,-2479 2237,-3746 4096,-3746 1860,0 3234,1267 4097,3746l26115 78481 323 1563c0,1132 -485,2129 -1455,3045 -916,782 -1940,1186 -3045,1186 -593,0 -1213,-162 -1968,-458 -727,-270 -1401,-1105 -2021,-2534l-6280 -18811 -31640 0zm28730 -8948l-12856 -38378 -12882 38378 25738 0zm38809 -47837l-17437 0c-1321,0 -2426,-378 -3234,-1159 -755,-944 -1132,-2022 -1132,-3153 0,-1025 350,-1968 1078,-2938 727,-943 1832,-1402 3288,-1402l43579 0c1213,0 2210,432 3072,1321 863,889 1267,1914 1267,3019 0,997 -350,1940 -1078,2910 -728,943 -1833,1402 -3261,1402l-17464 0 0 74222c0,1374 -404,2479 -1240,3315 -781,701 -1832,1051 -3099,1051 -1132,0 -2156,-350 -3046,-1078 -862,-755 -1293,-1833 -1293,-3288l0 -74222zm45816 56785l-6306 18811c-324,917 -863,1644 -1617,2237 -566,378 -1375,620 -2345,755 -1186,0 -2183,-431 -3073,-1267 -943,-727 -1428,-1725 -1428,-2964l296 -1563 26251 -78481c862,-2479 2236,-3746 4096,-3746 1860,0 3234,1267 4097,3746l26115 78481 323 1563c0,1132 -485,2129 -1455,3045 -916,782 -1941,1186 -3046,1186 -592,0 -1212,-162 -1967,-458 -728,-270 -1401,-1105 -2021,-2534l-6280 -18811 -31640 0zm28730 -8948l-12856 -38378 -12882 38378 25738 0zm-298184 130011c0,1374 -404,2479 -1239,3315 -782,700 -1806,1051 -3100,1051 -1132,0 -2156,-351 -3045,-1078 -863,-728 -1294,-1833 -1294,-3288l0 -67997 -9998 9999c-890,889 -1887,1320 -3019,1320 -1024,0 -2048,-431 -3018,-1320 -917,-917 -1402,-1941 -1402,-3127 0,-997 458,-1994 1321,-2991l17410 -17491c566,-593 1186,-1051 1806,-1429 619,-350 1293,-539 2021,-539 728,0 1563,459 2506,1321 701,916 1051,2156 1051,3692l0 78562zm38917 -74088l-17491 0c-1320,0 -2398,-404 -3234,-1240 -728,-862 -1105,-1913 -1105,-3099 0,-1024 377,-2021 1132,-2938 782,-916 1860,-1401 3207,-1401l17464 0c6819,0 12263,2210 16332,6657 3639,4177 5471,9163 5471,15011 0,3531 -673,6765 -2075,9730 -1374,2937 -3503,5578 -6387,7950 2426,1913 4420,4393 6037,7465 1617,3019 2425,6307 2425,9783l0 8733c0,5956 -2129,11076 -6414,15361 -4258,4286 -9406,6442 -15389,6442l-17464 0c-1320,0 -2398,-378 -3234,-1159 -728,-970 -1105,-2022 -1105,-3180 0,-998 351,-1941 1078,-2911 728,-943 1833,-1428 3288,-1428l17491 0c3612,0 6684,-1267 9244,-3854 2561,-2534 3827,-5633 3827,-9271l0 -8733c0,-3557 -1239,-6656 -3773,-9217 -2506,-2587 -5632,-3881 -9325,-3881l-8732 0c-1347,0 -2425,-377 -3261,-1158 -754,-971 -1132,-2022 -1132,-3181 0,-997 351,-1940 1105,-2910 728,-944 1806,-1429 3288,-1429l8732 0c3854,0 7061,-1401 9541,-4177 2129,-2480 3180,-5552 3180,-9163 0,-3558 -1024,-6495 -3045,-8786 -2318,-2668 -5552,-4016 -9676,-4016zm39591 74115c0,-1186 431,-2210 1267,-3073 862,-835 1886,-1266 3072,-1266 943,0 1914,431 2884,1266 970,863 1455,1887 1455,3073 0,1051 -431,2021 -1294,2937 -835,944 -1859,1402 -3045,1402 -1240,0 -2291,-432 -3180,-1294 -782,-916 -1159,-1940 -1159,-3045zm47595 -74115l-17491 0c-1321,0 -2399,-404 -3234,-1240 -728,-862 -1105,-1913 -1105,-3099 0,-1024 377,-2021 1132,-2938 781,-916 1859,-1401 3207,-1401l17464 0c6819,0 12263,2210 16332,6657 3639,4177 5471,9163 5471,15011 0,3531 -674,6765 -2075,9730 -1375,2937 -3504,5578 -6387,7950 2425,1913 4420,4393 6037,7465 1617,3019 2425,6307 2425,9783l0 8733c0,5956 -2129,11076 -6414,15361 -4258,4286 -9406,6442 -15389,6442l-17464 0c-1321,0 -2399,-378 -3234,-1159 -728,-970 -1105,-2022 -1105,-3180 0,-998 350,-1941 1078,-2911 728,-943 1833,-1428 3288,-1428l17491 0c3611,0 6684,-1267 9244,-3854 2560,-2534 3827,-5633 3827,-9271l0 -8733c0,-3557 -1240,-6656 -3773,-9217 -2506,-2587 -5633,-3881 -9325,-3881l-8732 0c-1348,0 -2426,-377 -3261,-1158 -755,-971 -1132,-2022 -1132,-3181 0,-997 350,-1940 1105,-2910 728,-944 1806,-1429 3288,-1429l8732 0c3854,0 7061,-1401 9541,-4177 2129,-2480 3180,-5552 3180,-9163 0,-3558 -1024,-6495 -3046,-8786 -2317,-2668 -5552,-4016 -9675,-4016zm65733 74088c0,1374 -404,2479 -1240,3315 -781,700 -1806,1051 -3099,1051 -1132,0 -2156,-351 -3046,-1078 -862,-728 -1293,-1833 -1293,-3288l0 -67997 -9999 9999c-889,889 -1887,1320 -3018,1320 -1025,0 -2049,-431 -3019,-1320 -916,-917 -1401,-1941 -1401,-3127 0,-997 458,-1994 1320,-2991l17410 -17491c566,-593 1186,-1051 1806,-1429 620,-350 1294,-539 2021,-539 728,0 1564,459 2507,1321 701,916 1051,2156 1051,3692l0 78562z"/>
   <path class="fil3" d="M3409163 2468285l36761 -36437c862,-782 1859,-1186 2991,-1186 1078,0 2075,431 3019,1320 943,890 1428,1941 1428,3154 0,754 -458,1724 -1321,2937l-25980 25900 26789 47379 620 2318c0,1132 -485,2075 -1429,2911 -889,862 -1940,1320 -3207,1320 -1401,0 -2614,-754 -3665,-2291l-25603 -45492 -10403 10214 0 33203c0,1375 -404,2480 -1240,3315 -782,701 -1833,1051 -3099,1051 -1159,0 -2183,-350 -3046,-1078 -862,-754 -1293,-1832 -1293,-3288l0 -78642c0,-1105 431,-2102 1347,-2965 863,-862 1887,-1266 2992,-1266 1105,0 2129,323 3045,997 863,728 1294,1833 1294,3234l0 33392zm104703 14661l-26196 0c-4716,0 -8813,-1698 -12262,-5067 -3450,-3395 -5175,-7519 -5175,-12370l0 -30508c0,-1159 431,-2210 1294,-3234 862,-728 1886,-1105 3045,-1105 1105,0 2129,350 2992,1078 889,727 1347,1832 1347,3261l0 30562c0,2452 809,4528 2480,6226 889,754 1832,1374 2830,1859 1239,404 2371,620 3422,620l26223 0 0 -39267c0,-1159 405,-2210 1294,-3234 863,-728 1887,-1105 3019,-1105 1105,0 2129,350 3018,1078 889,727 1321,1832 1321,3261l0 65436c0,4797 -1698,8894 -5094,12317 -3396,3422 -7492,5147 -12317,5147l-21803 0c-1320,0 -2398,-404 -3234,-1239 -754,-863 -1132,-1914 -1132,-3100 0,-1051 378,-2021 1159,-2937 782,-917 1833,-1402 3207,-1402l21830 0c2399,0 4474,-808 6172,-2452 1698,-1617 2560,-3720 2560,-6307l0 -17518zm56651 -16575l22477 -33850c377,-566 889,-1078 1563,-1482l916 -377 1051 0c1132,0 2183,404 3181,1293 916,917 1374,1941 1374,3127 0,727 -269,1536 -755,2425l-24498 36761 24498 36788 566 1293 189 1186c0,1132 -458,2129 -1347,3019 -890,889 -1968,1347 -3261,1347 -1375,0 -2534,-647 -3477,-1994l-22477 -33715 -22450 33715c-323,539 -889,1051 -1698,1536l-1913 458c-917,0 -1914,-458 -3046,-1320 -970,-836 -1428,-1887 -1428,-3100 0,-754 242,-1563 727,-2425l24526 -36788 -24633 -36761 -620 -1293 0 -1213c0,-1105 431,-2129 1347,-3019 890,-889 1968,-1320 3261,-1320 1375,0 2534,647 3477,1994l22450 33715zm91579 -781l0 -30589c0,-1159 404,-2183 1293,-3046 863,-889 1887,-1293 3019,-1293 1105,0 2129,350 3018,1078 890,727 1321,1832 1321,3261l0 78426c0,1240 -431,2345 -1348,3288 -1051,782 -2048,1186 -3045,1186 -1051,0 -2075,-350 -3046,-1051 -808,-701 -1212,-1805 -1212,-3261l0 -39321 -34956 0 0 39267c0,1375 -404,2480 -1239,3315 -782,701 -1833,1051 -3100,1051 -1158,0 -2183,-350 -3045,-1078 -862,-727 -1294,-1832 -1294,-3288l0 -78480c0,-1159 432,-2237 1294,-3234 862,-755 1887,-1132 3045,-1132 1105,0 2130,377 2992,1105 889,727 1347,1805 1347,3288l0 30508 34956 0zm69748 8678l0 -34955 -26223 0c-2452,0 -4528,835 -6252,2506 -836,836 -1456,1779 -1860,2830 -404,1078 -620,2210 -620,3423l0 17464c0,2452 809,4528 2480,6253 889,754 1832,1374 2829,1859 1240,404 2372,620 3423,620l26223 0zm-15011 8678l-20591 32880c-862,1402 -2048,2075 -3476,2075 -1132,0 -2156,-458 -3073,-1374 -997,-890 -1482,-1887 -1482,-3046 0,-862 242,-1671 674,-2371l17625 -28164 -862 0c-4716,0 -8840,-1698 -12263,-5067 -3449,-3395 -5174,-7519 -5174,-12370l0 -17437c0,-4824 1698,-8948 5067,-12344 3395,-3368 7519,-5066 12370,-5066l30508 0c2911,0 4339,1428 4339,4339l0 78534c0,1375 -404,2480 -1212,3315 -809,701 -1833,1051 -3127,1051 -1132,0 -2156,-350 -3018,-1078 -890,-754 -1294,-1832 -1294,-3288l0 -30589 -15011 0zm-207440 94948l134 -1995 0 -2371 0 -21830c0,-2480 -835,-4528 -2479,-6226 -1644,-1671 -3746,-2533 -6280,-2533l-8759 0c-2479,0 -4554,835 -6252,2506 -836,835 -1482,1779 -1887,2830 -404,1078 -620,2210 -620,3423l0 17464c0,2452 809,4527 2507,6252 862,755 1832,1375 2830,1860 1239,404 2398,620 3422,620l17384 0zm-1617 8678l-15767 0c-4689,0 -8759,-1671 -12235,-5040 -3450,-3342 -5202,-7492 -5202,-12397l0 -17437c0,-4798 1698,-8921 5094,-12317 3423,-3396 7519,-5094 12343,-5094l8732 0c4879,0 9002,1698 12371,5094 3369,3423 5094,7519 5094,12343l0 21750c0,8408 -1591,16251 -4744,23555 -2291,5444 -5498,10268 -9648,14472 -4124,4178 -8948,7412 -14473,9649l-1859 377c-998,0 -1968,-458 -2857,-1401 -889,-944 -1348,-1995 -1348,-3154 0,-727 189,-1401 593,-2048 351,-674 1051,-1267 2102,-1752 2210,-889 4232,-1940 6145,-3180 1914,-1267 3746,-2803 5498,-4636 3234,-3314 5848,-7249 7843,-11777l1186 -3315 1132 -3692zm27840 30616c0,-1186 431,-2210 1266,-3073 863,-835 1887,-1266 3073,-1266 943,0 1913,431 2884,1266 970,863 1455,1887 1455,3073 0,1051 -431,2021 -1294,2938 -835,943 -1859,1401 -3045,1401 -1240,0 -2291,-431 -3180,-1294 -782,-916 -1159,-1940 -1159,-3045zm34820 -74249l0 26277 13098 0c5929,0 11077,2129 15389,6387 4312,4258 6468,9406 6468,15416l0 8705c0,5956 -2156,11077 -6441,15362 -4258,4285 -9406,6441 -15389,6441l-17437 0c-1321,0 -2426,-404 -3234,-1240 -755,-862 -1132,-1913 -1132,-3099 0,-1051 377,-2021 1132,-2938 808,-916 1859,-1401 3234,-1401l17491 0c3558,0 6657,-1240 9217,-3746 2587,-2507 3881,-5606 3881,-9379l0 -8732c0,-3612 -1267,-6684 -3800,-9244 -2506,-2561 -5606,-3854 -9298,-3854l-17491 0c-2911,0 -4366,-1429 -4366,-4339l0 -34929c0,-2910 1428,-4339 4366,-4339l34901 0c1186,0 2237,432 3073,1321 862,889 1293,1913 1293,3018 0,998 -377,1941 -1105,2911 -727,943 -1832,1402 -3261,1402l-30589 0zm95999 59399c0,5175 -1860,9675 -5579,13502 -3719,3800 -8274,5687 -13637,5687l-5229 0c-5174,0 -9702,-1860 -13502,-5552 -3800,-3692 -5687,-8247 -5687,-13637l0 -48862c0,-5093 1860,-9594 5606,-13448 3746,-3827 8274,-5741 13583,-5741l5229 0c5201,0 9702,1833 13502,5552 3800,3719 5714,8274 5714,13637l0 48862zm-8678 27l0 -48943c0,-2856 -1025,-5336 -3046,-7384 -2021,-2075 -4501,-3099 -7465,-3099l-5283 0c-2856,0 -5336,1024 -7384,3072 -2075,2048 -3099,4501 -3099,7411l0 48943c0,2884 1024,5336 3045,7411 2048,2049 4528,3073 7438,3073l5283 0c2830,0 5282,-997 7384,-2992 2075,-1994 3127,-4501 3127,-7492z"/>
   <path class="fil3" d="M4592166 2343368l0 34955 26196 0c2426,0 4474,-808 6199,-2452 1698,-1617 2560,-3719 2560,-6280l0 -17464c0,-2479 -835,-4528 -2479,-6225 -1644,-1671 -3746,-2534 -6280,-2534l-26196 0zm0 -8678l26169 0c4744,0 8813,1725 12290,5094 3423,3369 5148,7492 5148,12343l0 17437c0,4798 -1698,8867 -5094,12290 -3396,3423 -7519,5147 -12317,5147l-30508 0c-2938,0 -4366,-1455 -4366,-4366l0 -78534c0,-2911 1428,-4339 4366,-4339l34874 0c1186,0 2237,431 3073,1320 862,890 1293,1914 1293,3019 0,997 -377,1940 -1105,2911 -727,943 -1805,1401 -3288,1401l-30535 0 0 26277zm71959 30508l-6307 18812c-323,916 -862,1644 -1617,2237 -566,377 -1374,620 -2345,754 -1185,0 -2183,-431 -3072,-1266 -943,-728 -1428,-1725 -1428,-2965l296 -1563 26250 -78481c863,-2479 2237,-3746 4097,-3746 1859,0 3234,1267 4096,3746l26116 78481 323 1563c0,1132 -485,2129 -1455,3046 -917,781 -1941,1185 -3046,1185 -593,0 -1213,-161 -1967,-458 -728,-269 -1402,-1105 -2022,-2533l-6279 -18812 -31640 0zm28729 -8947l-12855 -38378 -12883 38378 25738 0zm86863 26384c0,1375 -405,2480 -1240,3315 -782,701 -1806,1051 -3100,1051 -1132,0 -2156,-350 -3045,-1078 -862,-754 -1294,-1832 -1294,-3288l0 -74222 -14176 0 -20967 75327c-108,890 -620,1644 -1429,2318 -835,620 -1725,943 -2695,943 -1294,0 -2345,-350 -3180,-1078 -836,-727 -1267,-1778 -1267,-3099 0,-620 81,-1051 216,-1320l21830 -78508c620,-2156 1994,-3234 4150,-3234l21830 0c2911,0 4367,1428 4367,4339l0 78534zm26007 -45250l36761 -36437c862,-782 1859,-1186 2991,-1186 1078,0 2076,431 3019,1320 943,890 1428,1941 1428,3154 0,754 -458,1725 -1320,2937l-25981 25900 26789 47379 620 2318c0,1132 -485,2075 -1428,2911 -890,862 -1941,1320 -3208,1320 -1401,0 -2614,-754 -3665,-2290l-25603 -45493 -10403 10214 0 33203c0,1375 -404,2480 -1240,3315 -781,701 -1832,1051 -3099,1051 -1159,0 -2183,-350 -3046,-1078 -862,-754 -1293,-1832 -1293,-3288l0 -78642c0,-1105 431,-2102 1347,-2964 863,-863 1887,-1267 2992,-1267 1105,0 2129,323 3045,997 863,728 1294,1833 1294,3234l0 33392zm108935 32152c0,4798 -1698,8894 -5094,12317 -3396,3423 -7519,5147 -12316,5147l-17437 0c-4744,0 -8840,-1697 -12263,-5093 -3450,-3369 -5175,-7493 -5175,-12371l0 -52338c0,-4851 1698,-8975 5067,-12370 3396,-3369 7519,-5067 12371,-5067l17437 0c4824,0 8947,1698 12343,5094 3369,3422 5067,7519 5067,12343l0 52338zm-8651 54l0 -52419c0,-2479 -836,-4528 -2480,-6226 -1644,-1671 -3746,-2533 -6279,-2533l-17464 0c-2453,0 -4528,836 -6253,2506 -835,836 -1455,1779 -1860,2830 -404,1078 -619,2210 -619,3423l0 52419c0,2453 808,4528 2479,6253 889,728 1833,1347 2830,1859 1240,405 2372,620 3423,620l17464 0c2425,0 4474,-808 6198,-2452 1698,-1617 2561,-3719 2561,-6280zm76729 -34901l0 -30589c0,-1159 404,-2183 1293,-3045 863,-890 1887,-1294 3019,-1294 1105,0 2129,350 3018,1078 890,728 1321,1833 1321,3261l0 78427c0,1239 -431,2344 -1348,3288 -1051,781 -2048,1185 -3045,1185 -1051,0 -2075,-350 -3046,-1051 -808,-700 -1212,-1805 -1212,-3261l0 -39321 -34956 0 0 39267c0,1375 -404,2480 -1239,3315 -782,701 -1833,1051 -3100,1051 -1159,0 -2183,-350 -3045,-1078 -863,-727 -1294,-1832 -1294,-3288l0 -78480c0,-1159 431,-2237 1294,-3234 862,-755 1886,-1132 3045,-1132 1105,0 2129,377 2992,1105 889,727 1347,1806 1347,3288l0 30508 34956 0zm-225794 151598c0,-1186 431,-2210 1267,-3072 862,-836 1886,-1267 3072,-1267 943,0 1914,431 2884,1267 970,862 1455,1886 1455,3072 0,1051 -431,2021 -1293,2938 -836,943 -1860,1401 -3046,1401 -1240,0 -2291,-431 -3180,-1294 -782,-916 -1159,-1940 -1159,-3045zm-30454 -21695l8705 0c1213,0 2237,458 3072,1347 863,890 1294,1887 1294,2992 0,997 -377,1967 -1078,2910 -728,971 -1833,1429 -3288,1429l-8705 0 0 13017c0,1375 -405,2480 -1240,3288 -782,701 -1833,1051 -3099,1051 -1159,0 -2183,-350 -3046,-1078 -862,-728 -1293,-1806 -1293,-3261l0 -13017 -26223 0c-3019,0 -4555,-1159 -4555,-3531l135 -1051 269 -997 17410 -61124c270,-863 755,-1671 1510,-2372l808 -431c485,-270 1051,-377 1698,-377 1267,0 2318,404 3153,1239 917,782 1375,1806 1375,3073l-189 1293 -15874 55600 20483 0 0 -13098c0,-1159 431,-2237 1293,-3234 863,-755 1887,-1132 3046,-1132 1105,0 2129,350 2991,1078 890,754 1348,1832 1348,3288l0 13098zm97022 -27598l-28190 44954 27059 0c1212,0 2210,458 3072,1348 862,862 1267,1886 1267,2991 0,997 -351,1967 -1078,2911 -755,970 -1833,1428 -3261,1428l-34902 0c-3153,0 -4716,-1159 -4716,-3477 0,-916 350,-2021 1051,-3261l32233 -51395c1078,-2264 1590,-4447 1590,-6549 0,-3719 -1428,-6953 -4339,-9729 -1374,-1267 -2991,-2291 -4824,-3045 -1806,-728 -3800,-1132 -5902,-1132 -2210,0 -4339,593 -6361,1752 -2021,1293 -3719,2964 -5039,4985 -324,539 -917,1051 -1698,1564l-1941 431c-1105,0 -2129,-404 -3072,-1213 -943,-809 -1402,-1806 -1402,-3019 0,-565 270,-1428 755,-2479 1994,-3126 4689,-5660 8112,-7654 1671,-943 3342,-1698 5040,-2210 1698,-539 3369,-808 4986,-808 6818,0 12586,2236 17302,6737 4717,4528 7061,9891 7061,16144 0,3584 -916,7142 -2803,10726zm64251 34443c0,5175 -1860,9676 -5579,13503 -3719,3800 -8274,5686 -13637,5686l-5228 0c-5175,0 -9703,-1859 -13503,-5552 -3800,-3692 -5686,-8247 -5686,-13637l0 -48862c0,-5093 1859,-9594 5606,-13448 3746,-3827 8273,-5740 13583,-5740l5228 0c5202,0 9702,1832 13503,5551 3800,3720 5713,8274 5713,13637l0 48862zm-8678 27l0 -48942c0,-2857 -1024,-5337 -3045,-7385 -2022,-2075 -4501,-3099 -7466,-3099l-5282 0c-2857,0 -5336,1024 -7385,3072 -2075,2048 -3099,4501 -3099,7412l0 48942c0,2884 1024,5336 3045,7412 2049,2048 4528,3072 7439,3072l5282 0c2830,0 5282,-997 7385,-2992 2075,-1994 3126,-4500 3126,-7492zm-196714 130145c432,836 620,1563 620,2264 0,1105 -485,2075 -1401,2911 -917,808 -2022,1240 -3207,1240 -1321,0 -2534,-728 -3666,-2237 -3908,-7250 -7115,-15416 -9621,-24579 -970,-3720 -1779,-7924 -2426,-12586 -673,-4636 -997,-9056 -997,-13260 0,-17653 4339,-34470 13044,-50425 378,-701 917,-1267 1617,-1671 620,-296 1348,-512 2130,-647 1266,0 2344,431 3234,1267 862,728 1293,1752 1293,3045 0,620 -188,1348 -620,2183 -970,1698 -1832,3396 -2668,5067 -808,1698 -1563,3450 -2291,5282 -727,1833 -1428,3720 -2048,5687 -647,1940 -1293,4016 -1913,6226 -2076,8085 -3127,16089 -3127,23986 0,16332 4016,31748 12047,46247zm44038 -11723c0,1374 -404,2479 -1240,3315 -781,700 -1806,1051 -3099,1051 -1132,0 -2156,-351 -3046,-1078 -862,-728 -1293,-1833 -1293,-3288l0 -67997 -9999 9999c-889,889 -1887,1320 -3018,1320 -1025,0 -2049,-431 -3019,-1320 -916,-917 -1401,-1941 -1401,-3127 0,-997 458,-1994 1320,-2991l17410 -17491c566,-593 1186,-1051 1806,-1429 620,-350 1294,-539 2021,-539 728,0 1564,459 2507,1321 701,916 1051,2156 1051,3692l0 78562zm84032 -49266l-28190 44954 27058 0c1213,0 2210,458 3073,1347 862,863 1267,1887 1267,2992 0,997 -351,1967 -1079,2910 -754,971 -1832,1429 -3261,1429l-34901 0c-3153,0 -4716,-1159 -4716,-3477 0,-916 350,-2021 1051,-3261l32233 -51395c1078,-2264 1590,-4447 1590,-6549 0,-3719 -1428,-6953 -4339,-9729 -1374,-1267 -2992,-2291 -4824,-3046 -1806,-727 -3800,-1132 -5902,-1132 -2210,0 -4339,593 -6361,1752 -2021,1294 -3719,2965 -5040,4986 -323,539 -916,1051 -1697,1563l-1941 431c-1105,0 -2129,-404 -3072,-1212 -944,-809 -1402,-1806 -1402,-3019 0,-566 270,-1428 755,-2479 1994,-3127 4689,-5660 8112,-7654 1671,-944 3342,-1698 5040,-2210 1698,-539 3369,-809 4986,-809 6818,0 12586,2237 17302,6738 4717,4528 7061,9891 7061,16143 0,3585 -916,7142 -2803,10727zm29484 9999l-188 4366 0 21857c0,2452 808,4527 2506,6252 863,728 1806,1348 2803,1860 1240,404 2399,620 3450,620l8759 0c2425,0 4474,-809 6172,-2453 1724,-1617 2587,-3719 2587,-6279l0 -17464c0,-2480 -836,-4528 -2480,-6226 -1644,-1671 -3746,-2533 -6279,-2533l-17330 0zm1537 -8679l15766 0c4743,0 8813,1725 12289,5094 3450,3369 5175,7492 5175,12344l0 17437c0,4797 -1725,8866 -5121,12289 -3422,3423 -7519,5148 -12343,5148l-8732 0c-4690,0 -8759,-1671 -12236,-5040 -3450,-3369 -5201,-7492 -5201,-12397l0 -21777c0,-8273 1563,-16116 4743,-23555 2129,-5147 5336,-9864 9514,-14095 4204,-4231 9055,-7546 14580,-9945l1860 -431c1132,0 2156,431 3072,1348 728,970 1105,2021 1105,3180 0,835 -189,1536 -566,2129 -350,593 -1051,1186 -2102,1806 -1159,458 -2210,916 -3153,1401 -944,485 -1941,1105 -3019,1833 -1779,1213 -3611,2695 -5471,4501 -3423,3395 -6037,7303 -7843,11696l-1320 3504 -997 3530zm58348 63847c-242,539 -755,1078 -1563,1617l-1051 431 -1132 189c-1159,0 -2210,-405 -3126,-1213 -944,-809 -1402,-1833 -1402,-3019 0,-620 189,-1347 593,-2183 3638,-6683 6630,-14203 8975,-22557 2075,-8059 3099,-15955 3099,-23690 0,-4528 -189,-8597 -647,-12263 -431,-3665 -1186,-7492 -2264,-11454l-1698 -5740 -889 -2749 -1132 -2938c-1320,-3396 -3126,-7088 -5444,-11077l-593 -2317c0,-998 458,-1914 1402,-2830 970,-890 2021,-1321 3207,-1321 1428,0 2668,755 3665,2291 2102,3908 3908,7762 5390,11535 1456,3773 2884,8139 4258,13017 971,3665 1779,7816 2426,12532 674,4690 997,9136 997,13314 0,4878 -242,9379 -781,13502 -512,4124 -1348,8301 -2507,12505 -1994,8463 -5255,16602 -9783,24418zm-155937 -15874c0,-1186 431,-2210 1267,-3073 862,-835 1886,-1266 3072,-1266 943,0 1914,431 2884,1266 970,863 1455,1887 1455,3073 0,1051 -431,2021 -1293,2937 -836,944 -1860,1402 -3046,1402 -1240,0 -2291,-431 -3180,-1294 -782,-916 -1159,-1940 -1159,-3045z"/>
   <path class="fil3" d="M1403973 2578460c2479,1509 4473,3584 6010,6279 1536,2695 2290,5579 2290,8624l0 17411c0,4797 -1697,8893 -5093,12316 -3396,3423 -7519,5148 -12317,5148l-30508 0c-2938,0 -4366,-1456 -4366,-4366l0 -78535c0,-2911 1428,-4339 4366,-4339l26169 0c4824,0 8948,1698 12344,5094 3369,3423 5066,7519 5066,12343l0 8732c0,1995 -296,3935 -916,5795 -620,1859 -1644,3692 -3045,5498zm-35306 6144l0 34956 26196 0c2426,0 4474,-809 6199,-2453 1698,-1617 2560,-3719 2560,-6280l0 -17464c0,-2479 -835,-4527 -2479,-6225 -1644,-1671 -3746,-2534 -6280,-2534l-26196 0zm21857 -8678c2426,0 4474,-808 6199,-2452 1698,-1617 2560,-3719 2560,-6307l0 -8759c0,-2452 -835,-4527 -2479,-6225 -1644,-1671 -3746,-2534 -6280,-2534l-21857 0 0 26277 21857 0zm50102 30509l-6307 18811c-323,916 -862,1644 -1617,2237 -566,377 -1374,620 -2345,755 -1185,0 -2183,-432 -3072,-1267 -943,-728 -1428,-1725 -1428,-2965l296 -1563 26250 -78480c863,-2480 2237,-3746 4097,-3746 1859,0 3234,1266 4096,3746l26115 78480 324 1563c0,1132 -485,2130 -1455,3046 -917,781 -1941,1186 -3046,1186 -593,0 -1213,-162 -1967,-458 -728,-270 -1402,-1105 -2022,-2534l-6279 -18811 -31640 0zm28729 -8948l-12855 -38378 -12883 38378 25738 0zm78077 -21561l0 -30589c0,-1159 404,-2183 1293,-3045 863,-890 1887,-1294 3019,-1294 1105,0 2129,350 3018,1078 890,728 1321,1833 1321,3261l0 78427c0,1240 -431,2345 -1348,3288 -1051,781 -2048,1186 -3045,1186 -1051,0 -2075,-351 -3046,-1051 -808,-701 -1212,-1806 -1212,-3261l0 -39322 -34956 0 0 39268c0,1374 -404,2479 -1239,3315 -782,700 -1833,1051 -3100,1051 -1159,0 -2183,-351 -3045,-1078 -863,-728 -1294,-1833 -1294,-3288l0 -78481c0,-1159 431,-2237 1294,-3234 862,-755 1886,-1132 3045,-1132 1105,0 2129,377 2992,1105 889,728 1347,1806 1347,3288l0 30508 34956 0zm69748 0l0 -30589c0,-1159 404,-2183 1294,-3045 862,-890 1886,-1294 3018,-1294 1105,0 2129,350 3019,1078 889,728 1320,1833 1320,3261l0 78427c0,1240 -431,2345 -1347,3288 -1051,781 -2049,1186 -3046,1186 -1051,0 -2075,-351 -3045,-1051 -809,-701 -1213,-1806 -1213,-3261l0 -39322 -34955 0 0 39268c0,1374 -404,2479 -1240,3315 -781,700 -1832,1051 -3099,1051 -1159,0 -2183,-351 -3046,-1078 -862,-728 -1293,-1833 -1293,-3288l0 -78481c0,-1159 431,-2237 1293,-3234 863,-755 1887,-1132 3046,-1132 1105,0 2129,377 2991,1105 890,728 1348,1806 1348,3288l0 30508 34955 0zm41423 30509l-6306 18811c-323,916 -863,1644 -1617,2237 -566,377 -1375,620 -2345,755 -1186,0 -2183,-432 -3072,-1267 -944,-728 -1429,-1725 -1429,-2965l297 -1563 26250 -78480c862,-2480 2237,-3746 4096,-3746 1860,0 3234,1266 4097,3746l26115 78480 324 1563c0,1132 -486,2130 -1456,3046 -916,781 -1940,1186 -3045,1186 -593,0 -1213,-162 -1968,-458 -727,-270 -1401,-1105 -2021,-2534l-6279 -18811 -31641 0zm28730 -8948l-12856 -38378 -12882 38378 25738 0zm78076 -12883l0 -34955 -26223 0c-2452,0 -4528,836 -6252,2507 -836,835 -1456,1778 -1860,2830 -404,1078 -620,2209 -620,3422l0 17464c0,2453 809,4528 2480,6253 889,755 1832,1374 2829,1860 1240,404 2372,619 3423,619l26223 0zm-15011 8679l-20591 32879c-862,1402 -2048,2076 -3476,2076 -1132,0 -2156,-458 -3073,-1375 -997,-889 -1482,-1886 -1482,-3045 0,-863 243,-1671 674,-2372l17626 -28163 -863 0c-4716,0 -8840,-1698 -12262,-5067 -3450,-3396 -5175,-7519 -5175,-12371l0 -17437c0,-4824 1698,-8947 5067,-12343 3396,-3369 7519,-5067 12370,-5067l30508 0c2911,0 4339,1428 4339,4339l0 78535c0,1374 -404,2479 -1212,3315 -809,700 -1833,1051 -3127,1051 -1132,0 -2156,-351 -3018,-1078 -889,-755 -1294,-1833 -1294,-3288l0 -30589 -15011 0zm-262177 60127l-17491 0c-1321,0 -2399,-405 -3234,-1240 -728,-862 -1105,-1914 -1105,-3099 0,-1025 377,-2022 1132,-2938 781,-916 1859,-1401 3207,-1401l17464 0c6818,0 12262,2210 16332,6656 3638,4178 5471,9164 5471,15012 0,3531 -674,6765 -2075,9729 -1375,2938 -3504,5579 -6388,7951 2426,1913 4420,4393 6037,7465 1617,3018 2426,6306 2426,9783l0 8732c0,5956 -2129,11077 -6414,15362 -4259,4285 -9406,6441 -15389,6441l-17464 0c-1321,0 -2399,-377 -3234,-1159 -728,-970 -1105,-2021 -1105,-3180 0,-997 350,-1940 1078,-2910 727,-944 1832,-1429 3288,-1429l17491 0c3611,0 6683,-1266 9244,-3854 2560,-2533 3827,-5632 3827,-9271l0 -8732c0,-3557 -1240,-6657 -3773,-9217 -2507,-2587 -5633,-3881 -9325,-3881l-8732 0c-1348,0 -2426,-377 -3261,-1159 -755,-970 -1132,-2021 -1132,-3180 0,-997 350,-1940 1105,-2911 727,-943 1805,-1428 3288,-1428l8732 0c3854,0 7061,-1402 9540,-4177 2129,-2480 3180,-5552 3180,-9164 0,-3557 -1024,-6495 -3045,-8786 -2318,-2668 -5552,-4015 -9675,-4015zm39590 74114c0,-1186 432,-2210 1267,-3072 862,-836 1887,-1267 3072,-1267 944,0 1914,431 2884,1267 970,862 1456,1886 1456,3072 0,1051 -432,2022 -1294,2938 -836,943 -1860,1401 -3046,1401 -1239,0 -2290,-431 -3180,-1293 -781,-917 -1159,-1941 -1159,-3046zm47595 -74114l-17491 0c-1320,0 -2398,-405 -3234,-1240 -727,-862 -1105,-1914 -1105,-3099 0,-1025 378,-2022 1132,-2938 782,-916 1860,-1401 3207,-1401l17464 0c6819,0 12263,2210 16333,6656 3638,4178 5471,9164 5471,15012 0,3531 -674,6765 -2076,9729 -1374,2938 -3503,5579 -6387,7951 2426,1913 4420,4393 6037,7465 1617,3018 2426,6306 2426,9783l0 8732c0,5956 -2129,11077 -6415,15362 -4258,4285 -9405,6441 -15389,6441l-17464 0c-1320,0 -2398,-377 -3234,-1159 -727,-970 -1105,-2021 -1105,-3180 0,-997 351,-1940 1078,-2910 728,-944 1833,-1429 3288,-1429l17491 0c3612,0 6684,-1266 9244,-3854 2561,-2533 3827,-5632 3827,-9271l0 -8732c0,-3557 -1239,-6657 -3773,-9217 -2506,-2587 -5632,-3881 -9325,-3881l-8732 0c-1347,0 -2425,-377 -3261,-1159 -754,-970 -1132,-2021 -1132,-3180 0,-997 351,-1940 1105,-2911 728,-943 1806,-1428 3288,-1428l8732 0c3854,0 7062,-1402 9541,-4177 2129,-2480 3180,-5552 3180,-9164 0,-3557 -1024,-6495 -3045,-8786 -2318,-2668 -5552,-4015 -9676,-4015zm65787 26142c3962,0 7250,-1375 9837,-4124 2156,-2533 3261,-5524 3261,-9001 0,-3558 -1105,-6549 -3261,-9002 -2371,-2749 -5659,-4150 -9837,-4150 -3827,0 -7088,1401 -9810,4150 -2156,2534 -3261,5525 -3261,9002 0,3557 1105,6549 3261,9001 2372,2749 5660,4124 9810,4124zm0 8678c-5498,0 -9891,1806 -13152,5417 -2910,3315 -4366,7331 -4366,12074 0,4690 1456,8678 4366,11993 3288,3639 7708,5471 13152,5471 5525,0 9918,-1806 13179,-5417 2911,-3288 4366,-7304 4366,-12047 0,-4608 -1428,-8624 -4312,-11993 -3288,-3665 -7708,-5498 -13233,-5498zm14419 -4824c3854,2237 6791,5363 8786,9379 2021,3988 3018,8328 3018,12936 0,6846 -2183,12802 -6549,17922 -4824,5471 -11373,8220 -19674,8220 -8220,0 -14742,-2695 -19647,-8112 -4366,-4824 -6549,-10861 -6549,-18030 0,-4608 970,-8921 2911,-12882 1940,-3962 4905,-7142 8894,-9541 -2318,-1967 -4124,-4447 -5418,-7465 -1293,-3019 -1940,-6145 -1940,-9379 0,-5822 1833,-10861 5444,-15039 4016,-4527 9460,-6791 16305,-6791 6711,0 12128,2264 16278,6791 3666,4151 5471,9164 5471,15039 0,3234 -592,6360 -1805,9379 -1240,3018 -3073,5552 -5525,7573z"/>
   <path class="fil3" d="M484709 3028807c1375,0 2480,404 3315,1213 701,808 1051,1832 1051,3126 0,1132 -350,2156 -1078,3018 -754,890 -1832,1294 -3288,1294l-74222 0 0 34955 74222 0c1375,0 2480,404 3315,1240 701,781 1051,1832 1051,3099 0,1159 -350,2183 -1078,3046 -727,862 -1832,1293 -3288,1293l-78534 0c-2911,0 -4339,-1428 -4339,-4366l0 -43579c0,-2911 1428,-4339 4339,-4339l78534 0zm-39267 -26142l0 -26197c0,-2425 -808,-4473 -2425,-6198 -1618,-1698 -3720,-2561 -6307,-2561l-17464 0c-2480,0 -4528,836 -6226,2480 -1671,1644 -2533,3746 -2533,6279l0 26197 34955 0zm8678 0l30589 0c1375,0 2480,404 3315,1239 701,782 1051,1833 1051,3100 0,1158 -350,2183 -1078,3045 -727,862 -1832,1294 -3288,1294l-78534 0c-2911,0 -4339,-1429 -4339,-4366l0 -30509c0,-4824 1698,-8947 5093,-12343 3396,-3369 7520,-5067 12317,-5067l17437 0c4797,0 8867,1698 12290,5094 3422,3423 5147,7519 5147,12343l0 26170zm30589 -113355c1375,0 2480,404 3315,1212 701,809 1051,1833 1051,3127 0,1132 -350,2156 -1078,3018 -727,890 -1832,1294 -3288,1294l-61636 0 63765 35413c890,512 1591,1132 2103,1941l539 916c134,296 242,755 350,1374 -27,836 -458,1779 -1321,2857 -889,755 -2129,1132 -3746,1132l-78507 0c-1186,0 -2264,-431 -3261,-1294 -755,-862 -1132,-1886 -1132,-3045 0,-1105 377,-2129 1105,-2991 727,-890 1805,-1348 3288,-1348l61636 0 -63738 -35386c-701,-432 -1402,-1051 -2103,-1887 -619,-781 -916,-1563 -916,-2345 0,-970 512,-1859 1455,-2668 863,-889 2076,-1320 3612,-1320l78507 0zm-47163 -48000l-33851 -22477c-566,-377 -1078,-889 -1482,-1563l-377 -916 0 -1051c0,-1132 404,-2183 1293,-3180 917,-917 1941,-1375 3127,-1375 727,0 1536,270 2425,755l36761 24498 36788 -24498 1294 -566 1185 -189c1132,0 2129,458 3019,1348 889,889 1347,1967 1347,3261 0,1374 -646,2533 -1994,3476l-33715 22477 33715 22450c539,324 1051,890 1536,1698l458 1914c0,916 -458,1913 -1320,3045 -836,970 -1887,1429 -3100,1429 -754,0 -1563,-243 -2425,-728l-36788 -24525 -36761 24633 -1293 620 -1213 0c-1105,0 -2129,-432 -3019,-1348 -889,-889 -1320,-1967 -1320,-3261 0,-1375 647,-2533 1994,-3477l33716 -22450zm34065 -95810c4798,0 8894,1698 12317,5094 3423,3396 5147,7519 5147,12317l0 17437c0,4743 -1698,8840 -5093,12262 -3369,3450 -7493,5175 -12371,5175l-52338 0c-4851,0 -8975,-1698 -12370,-5067 -3369,-3396 -5067,-7519 -5067,-12370l0 -17437c0,-4825 1698,-8948 5093,-12344 3423,-3369 7520,-5067 12344,-5067l52338 0zm54 8652l-52419 0c-2480,0 -4528,835 -6226,2479 -1671,1644 -2533,3746 -2533,6280l0 17464c0,2452 835,4527 2506,6252 836,836 1779,1456 2830,1860 1078,404 2210,620 3423,620l52419 0c2453,0 4528,-809 6253,-2480 727,-889 1347,-1832 1859,-2830 405,-1239 620,-2371 620,-3422l0 -17464c0,-2426 -808,-4474 -2452,-6199 -1617,-1698 -3720,-2560 -6280,-2560zm-35790 -67970l-32126 -22558c-512,-323 -943,-835 -1320,-1509 -405,-647 -593,-1321 -593,-1995 0,-1132 404,-2183 1293,-3180 917,-916 1941,-1374 3100,-1374 862,0 1725,323 2560,889l32503 22854 41288 -23123c836,-405 1617,-620 2318,-620 997,0 1940,458 2830,1347 889,890 1347,1995 1347,3288 0,1321 -754,2534 -2264,3666l-39967 22315 37865 0c1375,0 2480,404 3315,1240 701,781 1051,1832 1051,3099 0,1159 -350,2183 -1078,3045 -727,863 -1832,1294 -3288,1294l-37731 0 39860 22342c486,377 1025,890 1617,1590l432 1078 188 1132c0,1213 -404,2237 -1212,3126 -809,917 -1860,1348 -3073,1348 -485,0 -1213,-189 -2210,-539l-41207 -23178 -32584 22855c-404,323 -1267,619 -2614,862 -1105,0 -2129,-431 -3019,-1348 -889,-889 -1320,-1913 -1320,-3126 0,-1213 620,-2398 1913,-3503l32206 -22639 -29780 0c-1132,0 -2210,-431 -3234,-1294 -728,-862 -1105,-1886 -1105,-3045 0,-1105 350,-2129 1078,-2992 727,-889 1832,-1347 3261,-1347l29700 0zm31397 -63227l18812 6307c916,323 1644,862 2237,1617 377,566 620,1374 754,2345 0,1185 -431,2183 -1266,3072 -728,943 -1725,1428 -2965,1428l-1563 -296 -78481 -26250c-2479,-863 -3746,-2237 -3746,-4097 0,-1859 1267,-3234 3746,-4096l78481 -26115 1563 -324c1132,0 2129,485 3046,1455 781,917 1185,1941 1185,3046 0,593 -161,1213 -458,1967 -269,728 -1105,1402 -2533,2022l-18812 6279 0 31640zm-8947 -28729l-38378 12855 38378 12883 0 -25738zm-12883 -78077l-34955 0 0 26224c0,2452 835,4527 2506,6252 836,836 1779,1455 2830,1860 1078,404 2210,620 3423,620l17464 0c2453,0 4528,-809 6253,-2480 754,-889 1374,-1832 1859,-2830 404,-1239 620,-2371 620,-3422l0 -26224zm8678 15012l32880 20590c1402,863 2075,2049 2075,3477 0,1132 -458,2156 -1374,3072 -890,998 -1887,1483 -3046,1483 -862,0 -1671,-243 -2371,-674l-28164 -17626 0 863c0,4716 -1698,8839 -5067,12262 -3395,3450 -7519,5175 -12370,5175l-17437 0c-4824,0 -8948,-1698 -12343,-5067 -3369,-3396 -5067,-7519 -5067,-12370l0 -30509c0,-2910 1428,-4339 4339,-4339l78534 0c1375,0 2480,405 3315,1213 701,809 1051,1833 1051,3126 0,1132 -350,2156 -1078,3019 -754,889 -1832,1293 -3288,1293l-30589 0 0 15012zm94948 324218l-1995 -135 -2371 0 -21830 0c-2480,0 -4528,835 -6226,2479 -1671,1644 -2533,3747 -2533,6280l0 8759c0,2479 835,4555 2506,6252 836,836 1779,1483 2830,1887 1078,404 2210,620 3423,620l17464 0c2452,0 4527,-809 6252,-2507 755,-862 1375,-1832 1860,-2829 404,-1240 620,-2399 620,-3423l0 -17383zm8678 1617l0 15766c0,4689 -1671,8759 -5040,12236 -3342,3449 -7492,5201 -12397,5201l-17437 0c-4798,0 -8921,-1698 -12317,-5094 -3396,-3422 -5094,-7519 -5094,-12343l0 -8732c0,-4878 1698,-9002 5094,-12371 3423,-3368 7519,-5093 12344,-5093l21749 0c8408,0 16251,1590 23555,4743 5444,2291 10268,5498 14472,9648 4178,4124 7412,8948 9649,14473l377 1860c0,997 -458,1967 -1401,2856 -944,890 -1995,1348 -3154,1348 -727,0 -1401,-189 -2048,-593 -674,-350 -1267,-1051 -1752,-2102 -889,-2210 -1940,-4231 -3180,-6145 -1267,-1913 -2803,-3746 -4635,-5498 -3315,-3234 -7250,-5848 -11778,-7843l-3315 -1185 -3692 -1132zm30616 -27840c-1186,0 -2210,-432 -3072,-1267 -836,-863 -1267,-1887 -1267,-3073 0,-943 431,-1913 1267,-2883 862,-970 1886,-1456 3072,-1456 1051,0 2021,432 2938,1294 943,836 1401,1860 1401,3045 0,1240 -431,2291 -1294,3181 -916,781 -1940,1159 -3045,1159zm-74249 -34821l26277 0 0 -13098c0,-5929 2129,-11077 6387,-15389 4258,-4312 9406,-6468 15416,-6468l8705 0c5956,0 11077,2156 15362,6441 4285,4259 6441,9406 6441,15389l0 17437c0,1321 -404,2426 -1240,3234 -862,755 -1913,1132 -3099,1132 -1051,0 -2021,-377 -2938,-1132 -916,-808 -1401,-1859 -1401,-3234l0 -17491c0,-3557 -1240,-6657 -3746,-9217 -2507,-2587 -5606,-3881 -9379,-3881l-8732 0c-3612,0 -6684,1267 -9244,3800 -2561,2507 -3854,5606 -3854,9298l0 17491c0,2911 -1429,4366 -4339,4366l-34929 0c-2910,0 -4339,-1428 -4339,-4366l0 -34901c0,-1186 432,-2237 1321,-3072 889,-863 1914,-1294 3018,-1294 998,0 1941,377 2911,1105 943,728 1402,1833 1402,3261l0 30589zm34955 -61232l4366 189 21857 0c2452,0 4528,-809 6252,-2507 728,-862 1348,-1805 1860,-2803 404,-1239 620,-2398 620,-3449l0 -8759c0,-2426 -809,-4474 -2453,-6172 -1617,-1725 -3719,-2587 -6279,-2587l-17464 0c-2480,0 -4528,835 -6226,2479 -1671,1644 -2533,3746 -2533,6280l0 17329zm-8678 -1536l0 -15766c0,-4744 1724,-8813 5093,-12290 3369,-3450 7493,-5174 12344,-5174l17437 0c4797,0 8867,1724 12289,5120 3423,3423 5148,7520 5148,12344l0 8732c0,4689 -1671,8759 -5040,12235 -3369,3450 -7492,5202 -12397,5202l-21776 0c-8274,0 -16117,-1563 -23555,-4743 -5148,-2130 -9864,-5337 -14096,-9514 -4231,-4204 -7546,-9056 -9944,-14580l-432 -1860c0,-1132 432,-2156 1348,-3072 970,-728 2021,-1105 3180,-1105 836,0 1536,188 2129,566 593,350 1186,1051 1806,2102 458,1159 916,2210 1401,3153 486,943 1105,1940 1833,3018 1213,1779 2695,3612 4501,5471 3396,3423 7303,6037 11696,7843l3504 1321 3531 997z"/>
   <path class="fil3" d="M2168188 2595789l-21857 0c-4716,0 -8813,-1698 -12262,-5094 -3450,-3369 -5175,-7492 -5175,-12370l0 -52338c0,-4852 1698,-8975 5067,-12371 3396,-3369 7519,-5067 12370,-5067l21857 0c1186,0 2210,432 3073,1321 862,889 1266,1913 1266,3018 0,998 -350,1941 -1078,2911 -754,943 -1832,1402 -3288,1402l-21857 0c-2452,0 -4527,835 -6252,2506 -836,835 -1456,1779 -1860,2830 -404,1078 -620,2210 -620,3423l0 52419c0,2452 809,4528 2480,6252 889,728 1832,1348 2830,1860 1239,404 2371,620 3422,620l21857 0c1213,0 2237,458 3100,1347 862,863 1266,1887 1266,2992 0,997 -350,1967 -1078,2911 -754,970 -1832,1428 -3261,1428zm78238 -107507l-47972 122168c-296,674 -809,1348 -1563,1995l-1186 566 -1186 242c-1240,0 -2318,-404 -3234,-1186 -916,-781 -1374,-1832 -1374,-3099 0,-674 107,-1213 323,-1644l47945 -122168c216,-620 728,-1267 1510,-1967l808 -458c512,-243 1024,-378 1617,-378 1240,0 2318,405 3234,1186 917,782 1375,1833 1375,3126 0,647 -108,1186 -297,1617zm65625 72552l-26196 0c-4716,0 -8813,-1698 -12262,-5067 -3450,-3396 -5175,-7519 -5175,-12370l0 -30509c0,-1158 431,-2210 1294,-3234 862,-727 1886,-1105 3045,-1105 1105,0 2129,351 2992,1078 889,728 1347,1833 1347,3261l0 30563c0,2452 809,4527 2480,6225 889,755 1832,1375 2830,1860 1239,404 2371,620 3422,620l26223 0 0 -39268c0,-1158 405,-2210 1294,-3234 862,-727 1887,-1105 3019,-1105 1105,0 2129,351 3018,1078 889,728 1321,1833 1321,3261l0 65437c0,4797 -1698,8894 -5094,12316 -3396,3423 -7492,5148 -12317,5148l-21803 0c-1320,0 -2398,-404 -3234,-1240 -754,-862 -1132,-1913 -1132,-3099 0,-1051 378,-2021 1159,-2938 782,-916 1833,-1401 3207,-1401l21830 0c2399,0 4474,-809 6172,-2453 1698,-1617 2560,-3719 2560,-6306l0 -17518zm-148283 134215c0,1374 -404,2479 -1239,3315 -782,700 -1806,1051 -3100,1051 -1132,0 -2156,-351 -3045,-1078 -863,-728 -1294,-1833 -1294,-3288l0 -67997 -9999 9999c-889,889 -1886,1320 -3018,1320 -1024,0 -2048,-431 -3018,-1320 -917,-917 -1402,-1941 -1402,-3127 0,-997 458,-1994 1321,-2991l17410 -17491c566,-593 1186,-1051 1806,-1429 619,-350 1293,-539 2021,-539 728,0 1563,458 2506,1321 701,916 1051,2156 1051,3692l0 78562zm52473 -39268l-188 4366 0 21857c0,2453 808,4528 2506,6253 863,728 1806,1348 2803,1860 1240,404 2399,619 3450,619l8759 0c2425,0 4474,-808 6172,-2452 1724,-1617 2587,-3719 2587,-6280l0 -17464c0,-2479 -836,-4527 -2480,-6225 -1644,-1671 -3746,-2534 -6279,-2534l-17330 0zm1537 -8678l15766 0c4743,0 8813,1725 12289,5094 3450,3369 5175,7492 5175,12343l0 17437c0,4798 -1725,8867 -5121,12290 -3422,3423 -7519,5148 -12343,5148l-8732 0c-4690,0 -8759,-1671 -12236,-5040 -3450,-3369 -5201,-7492 -5201,-12398l0 -21776c0,-8274 1563,-16116 4743,-23555 2129,-5147 5336,-9864 9514,-14095 4204,-4231 9055,-7546 14580,-9945l1860 -431c1132,0 2156,431 3072,1348 728,970 1105,2021 1105,3180 0,835 -189,1536 -566,2129 -350,593 -1051,1186 -2102,1806 -1159,458 -2210,916 -3153,1401 -944,485 -1941,1105 -3019,1833 -1779,1212 -3611,2695 -5471,4500 -3423,3396 -6037,7304 -7843,11697l-1320 3504 -997 3530zm94273 33123c0,5174 -1859,9675 -5578,13502 -3720,3800 -8274,5687 -13637,5687l-5229 0c-5174,0 -9702,-1860 -13502,-5552 -3800,-3692 -5687,-8247 -5687,-13637l0 -48862c0,-5094 1860,-9594 5606,-13448 3746,-3827 8274,-5741 13583,-5741l5229 0c5201,0 9702,1833 13502,5552 3800,3719 5713,8274 5713,13637l0 48862zm-8678 27l0 -48943c0,-2857 -1024,-5336 -3045,-7384 -2021,-2076 -4501,-3100 -7466,-3100l-5282 0c-2857,0 -5336,1024 -7384,3073 -2076,2048 -3100,4500 -3100,7411l0 48943c0,2883 1024,5336 3046,7411 2048,2048 4527,3072 7438,3072l5282 0c2830,0 5283,-997 7385,-2991 2075,-1994 3126,-4501 3126,-7492zm-122141 14823c0,-1186 432,-2210 1267,-3073 863,-835 1887,-1267 3073,-1267 943,0 1913,432 2883,1267 970,863 1456,1887 1456,3073 0,1051 -432,2021 -1294,2937 -836,943 -1860,1402 -3045,1402 -1240,0 -2291,-432 -3181,-1294 -781,-916 -1159,-1940 -1159,-3045z"/>
   <path class="fil3" d="M1242403 2499898l-320903 0 0 687029 325431 0 0 -687029 -4528 0zm-311874 9056l307346 0 0 668944 -307346 0 0 -668944z"/>
   <path class="fil3" d="M1084202 2522645c-38486,0 -73495,15766 -98855,41126 -25361,25361 -41100,60343 -41100,98856l0 446331c0,15174 6198,28999 16197,38998 10026,10026 23825,16224 39025,16224l169466 0c15200,0 29026,-6198 39025,-16224 9999,-9999 16224,-23824 16224,-38998l0 -446331c0,-38513 -15739,-73495 -41127,-98856 -25360,-25360 -60369,-41126 -98855,-41126zm-92468 47514c23744,-23744 56462,-38459 92468,-38459 36006,0 68751,14715 92468,38459 23744,23716 38459,56462 38459,92468l0 446331c0,12694 -5202,24256 -13557,32611 -8381,8381 -19943,13583 -32637,13583l-169466 0c-12694,0 -24256,-5202 -32611,-13583 -8381,-8355 -13583,-19917 -13583,-32611l0 -446331c0,-36006 14742,-68752 38459,-92468z"/>
   <path class="fil1" d="M1084202 3062145c-10160,0 -18380,8247 -18380,18380 0,10161 8220,18408 18380,18408 10160,0 18407,-8247 18407,-18408 0,-10133 -8247,-18380 -18407,-18380zm0 7169c-6199,0 -11212,5040 -11212,11211 0,6199 5013,11239 11212,11239 6199,0 11211,-5040 11211,-11239 0,-6171 -5012,-11211 -11211,-11211z"/>
   <path class="fil3" d="M2064239 3185418l158605 0 0 -62580c0,-3342 -1374,-6360 -3584,-8570 -2183,-2183 -5228,-3558 -8543,-3558l-137072 0c-3719,0 -7115,1536 -9567,3989 -2426,2425 -3962,5821 -3962,9540l0 61179 4123 0zm150332 -8274l-146208 0 0 -52905c0,-1428 620,-2749 1563,-3719 943,-943 2264,-1536 3719,-1536l137072 0c1051,0 2021,431 2722,1132 700,701 1132,1671 1132,2722l0 54306z"/>
   <path class="fil3" d="M2073645 3118984l143162 0 0 -162783c0,-20240 -8300,-38647 -21641,-52015 -13368,-13340 -31775,-21641 -52015,-21641 -20240,0 -38647,8301 -51988,21641 -13368,13368 -21668,31775 -21668,52015l0 162783 4150 0zm134889 -8274l-130765 0 0 -154509c0,-18003 7357,-34335 19188,-46166 11859,-11859 28218,-19216 46194,-19216 18003,0 34335,7357 46167,19189 11858,11858 19216,28190 19216,46193l0 154509z"/>
   <path class="fil3" d="M2087525 3098879l112411 0c4258,-29484 16871,-116778 16871,-142678 0,-20267 -8300,-38674 -21641,-52015 -13341,-13340 -31748,-21641 -52015,-21641 -20240,0 -38674,8301 -52015,21641 -13341,13368 -21641,31775 -21641,52015 0,29134 10483,110795 14364,142678l3666 0zm105269 -8247l-101631 0 -13394 -134673c53,-17895 7411,-34147 19188,-45951 11859,-11832 28218,-19189 46194,-19189 17976,0 34335,7357 46167,19216 11804,11777 19162,28056 19216,45924l-15740 134673z"/>
   <path class="fil3" d="M2142531 3161297c3827,0 7331,-1563 9837,-4097 2507,-2506 4070,-5983 4070,-9837 0,-3854 -1563,-7330 -4070,-9837 -2506,-2506 -6010,-4069 -9837,-4069 -3854,0 -7330,1563 -9837,4069 -2533,2507 -4096,6010 -4096,9837 0,3854 1563,7331 4096,9837 2507,2534 6010,4097 9837,4097z"/>
   <path class="fil3" d="M1394486 2997086l-45223 0c-26089,0 -49832,10672 -67027,27894 -17194,17194 -27894,40911 -27894,67026l0 69803c0,6899 2830,13179 7385,17733 4554,4555 10834,7385 17733,7385l184802 0c6899,0 13178,-2830 17733,-7385 4555,-4527 7385,-10834 7385,-17733l0 -69803c0,-26088 -10673,-49832 -27867,-67026 -17195,-17222 -40939,-27894 -67027,-27894zm-45223 9028l45223 0c23609,0 45062,9676 60639,25253 15551,15551 25226,37030 25226,60639l0 69803c0,4420 -1806,8435 -4716,11346 -2911,2911 -6954,4716 -11373,4716l-184802 0c-4393,0 -8435,-1805 -11346,-4716 -2911,-2911 -4716,-6926 -4716,-11346l0 -69803c0,-23609 9648,-45088 25225,-60639 15551,-15577 37031,-25253 60640,-25253z"/>
   <path class="fil3" d="M1394486 3024117c18623,0 35602,7654 47891,19971 12317,12316 19971,29295 19971,47918l0 27194 -180947 0 0 -27194c0,-18650 7654,-35602 19943,-47918 12317,-12317 29296,-19971 47919,-19971l45223 0zm54279 13584c-13934,-13934 -33150,-22612 -54279,-22612l-45223 0c-21103,0 -40346,8678 -54306,22612 -13934,13933 -22612,33176 -22612,54305l0 29107c0,1968 836,3746 2102,5013 1294,1294 3073,2102 5013,2102l184802 0c1940,0 3719,-808 4985,-2102 1321,-1321 2130,-3099 2130,-5013l0 -29107c0,-21129 -8652,-40372 -22612,-54305z"/>
   <path class="fil1" d="M1364193 3135774c-5174,2749 -8705,8193 -8705,14473 0,9055 7331,16413 16386,16413 9056,0 16386,-7358 16386,-16413 0,-6280 -3530,-11724 -8732,-14473l0 -38620 -15335 0 0 38620z"/>
   <path class="fil1" d="M1371874 3041743c-10160,0 -18407,8220 -18407,18381 0,10160 8247,18407 18407,18407 10161,0 18381,-8247 18381,-18407 0,-10161 -8220,-18381 -18381,-18381zm0 7169c-6198,0 -11211,5013 -11211,11212 0,6198 5013,11211 11211,11211 6199,0 11212,-5013 11212,-11211 0,-6199 -5013,-11212 -11212,-11212z"/>
   <path class="fil3" d="M1859225 3181833l-275706 0 0 -198869 280234 0 0 198869 -4528 0zm-266678 -9028l262150 0 0 -180786 -262150 0 0 180786z"/>
   <path class="fil3" d="M1859225 3026462l-275706 0 0 -43498 280234 0 0 43498 -4528 0zm-266678 -9028l262150 0 0 -25415 -262150 0 0 25415z"/>
   <path class="fil3" d="M1723636 3167603c-19055,0 -36303,-7735 -48808,-20240 -12532,-12532 -20240,-29780 -20240,-48835 0,-19027 7708,-36302 20213,-48807 12532,-12506 29780,-20240 48835,-20240 19027,0 36302,7734 48807,20240 12506,12505 20240,29780 20240,48807 0,19055 -7734,36303 -20240,48808 -12505,12532 -29780,20267 -48807,20267zm-42448 -26627c10861,10861 25846,17572 42448,17572 16574,0 31586,-6711 42420,-17545 10861,-10861 17572,-25873 17572,-42475 0,-16574 -6711,-31586 -17545,-42420 -10861,-10861 -25873,-17572 -42447,-17572 -16602,0 -31587,6711 -42448,17545 -10861,10861 -17572,25873 -17572,42447 0,16602 6711,31614 17572,42448z"/>
   <path class="fil3" d="M1723636 3142782c-12236,0 -23286,-4932 -31290,-12964 -8032,-8004 -12964,-19054 -12964,-31290 0,-12208 4932,-23258 12964,-31289 8004,-8005 19054,-12964 31290,-12964 12208,0 23285,4959 31289,12964 8005,8031 12964,19081 12964,31289 0,12236 -4959,23286 -12964,31290 -8004,8032 -19081,12964 -31289,12964zm-24903 -19351c6360,6387 15173,10322 24903,10322 9702,0 18515,-3935 24902,-10322 6360,-6361 10295,-15173 10295,-24903 0,-9702 -3935,-18515 -10295,-24902 -6387,-6361 -15200,-10295 -24902,-10295 -9730,0 -18543,3934 -24903,10295 -6387,6387 -10322,15200 -10322,24902 0,9730 3935,18542 10322,24903z"/>
   <path class="fil1" d="M1835885 3015143c-5120,0 -9298,-4151 -9298,-9298 0,-5148 4178,-9325 9298,-9325 5148,0 9325,4177 9325,9325 0,5147 -4177,9298 -9325,9298z"/>
   <path class="fil1" d="M1607343 3015143c-5148,0 -9325,-4151 -9325,-9298 0,-5148 4177,-9325 9325,-9325 5148,0 9298,4177 9298,9325 0,5147 -4150,9298 -9298,9298z"/>
   <path class="fil1" d="M1637555 3015143c-5148,0 -9325,-4151 -9325,-9298 0,-5148 4177,-9325 9325,-9325 5121,0 9298,4177 9298,9325 0,5147 -4177,9298 -9298,9298z"/>
   <path class="fil3" d="M3786500 2906396l-172026 0c-9271,0 -17707,3800 -23798,9891 -6091,6091 -9891,14527 -9891,23798l0 246545 235038 0 0 -250911c0,-8058 -3315,-15416 -8625,-20725 -5309,-5310 -12639,-8598 -20698,-8598zm-172026 9029l172026 0c5579,0 10646,2291 14311,5983 3692,3665 5983,8732 5983,14311l0 241883 -216953 0 0 -237517c0,-6765 2776,-12936 7222,-17410 4474,-4474 10646,-7250 17411,-7250z"/>
   <polygon class="fil3" points="3811295,2939034 3585313,2939034 3585313,2948062 3811295,2948062 "/>
   <path class="fil1" d="M3752192 2968760c-19917,0 -36060,16144 -36060,36061 0,19916 16143,36060 36060,36060 19917,0 36060,-16144 36060,-36060 0,-19917 -16143,-36061 -36060,-36061z"/>
   <path class="fil1" d="M3651369 2979972c-13718,0 -24848,11131 -24848,24849 0,13718 11130,24848 24848,24848 13745,0 24876,-11130 24876,-24848 0,-13718 -11131,-24849 -24876,-24849z"/>
   <path class="fil1" d="M3651369 3080417c19917,0 36087,16171 36087,36088 0,19916 -16170,36060 -36087,36060 -19916,0 -36060,-16144 -36060,-36060 0,-19917 16144,-36088 36060,-36088z"/>
   <path class="fil1" d="M3752192 3091629c13718,0 24849,11131 24849,24876 0,13717 -11131,24848 -24849,24848 -13745,0 -24876,-11131 -24876,-24848 0,-13745 11131,-24876 24876,-24876z"/>
   <path class="fil3" d="M2983637 2929197l-182726 0c-7196,0 -13718,2964 -18461,7681 -4743,4743 -7708,11292 -7708,18488l0 182726c0,7196 2965,13745 7681,18461 4743,4744 11292,7681 18488,7681l182726 0c7196,0 13745,-2937 18489,-7681 4716,-4716 7654,-11265 7654,-18461l0 -182726c0,-7196 -2938,-13745 -7654,-18488 -4771,-4717 -11293,-7681 -18489,-7681zm-182726 9055l182726 0c4717,0 9002,1914 12101,5013 3073,3099 5013,7385 5013,12101l0 182726c0,4690 -1940,8975 -5040,12074 -3099,3099 -7357,5040 -12074,5040l-182726 0c-4716,0 -9001,-1941 -12101,-5040 -3099,-3099 -5013,-7384 -5013,-12074l0 -182726c0,-4716 1914,-9002 5013,-12101 3100,-3099 7385,-5013 12101,-5013z"/>
   <path class="fil3" d="M2964206 2946957l-143863 0c-7654,0 -14635,3127 -19674,8166 -5040,5040 -8166,12020 -8166,19674l0 98667c0,7654 3126,14607 8166,19647 5039,5040 12020,8193 19674,8193l143863 0c7654,0 14607,-3153 19674,-8193 5040,-5040 8166,-11993 8166,-19647l0 -98667c0,-7654 -3126,-14634 -8166,-19674 -5067,-5039 -12047,-8166 -19674,-8166zm-143863 9029l143863 0c5174,0 9864,2102 13260,5525 3422,3422 5551,8112 5551,13286l0 98667c0,5148 -2129,9864 -5551,13260 -3396,3423 -8113,5525 -13260,5525l-143863 0c-5175,0 -9864,-2102 -13287,-5525 -3396,-3396 -5525,-8112 -5525,-13260l0 -98667c0,-5174 2129,-9864 5525,-13286 3423,-3396 8112,-5525 13287,-5525z"/>
   <path class="fil1" d="M2884593 3111653c-5174,2749 -8705,8193 -8705,14473 0,9055 7331,16413 16386,16413 9056,0 16386,-7358 16386,-16413 0,-6280 -3530,-11724 -8705,-14473l0 -38620 -15362 0 0 38620z"/>
   <path class="fil1" d="M2892274 2997813c-10160,0 -18380,8220 -18380,18381 0,10160 8220,18380 18380,18380 10161,0 18381,-8220 18381,-18380 0,-10161 -8220,-18381 -18381,-18381zm0 7169c-6198,0 -11211,5013 -11211,11212 0,6198 5013,11211 11211,11211 6199,0 11212,-5013 11212,-11211 0,-6199 -5013,-11212 -11212,-11212z"/>
  </g>
 </g>
</svg>
