<?xml version="1.0" encoding="UTF-8"?>
<!DOCTYPE svg PUBLIC "-//W3C//DTD SVG 1.0//EN" "http://www.w3.org/TR/2001/REC-SVG-20010904/DTD/svg10.dtd">
<!-- Creator: CorelDRAW X7 -->
<svg xmlns="http://www.w3.org/2000/svg" xml:space="preserve" width="225px" height="147px" version="1.0" style="shape-rendering:geometricPrecision; text-rendering:geometricPrecision; image-rendering:optimizeQuality; fill-rule:evenodd; clip-rule:evenodd"
viewBox="0 0 39755231 26016616"
 xmlns:xlink="http://www.w3.org/1999/xlink">
 <defs>
  <style type="text/css">
   <![CDATA[
    .fil1 {fill:#5B5B5B}
    .fil0 {fill:#E8D6FF}
    .fil2 {fill:#FEFEFE}
    .fil3 {fill:#5B5B5B;fill-rule:nonzero}
    .fil4 {fill:#FEFEFE;fill-rule:nonzero}
   ]]>
  </style>
 </defs>
 <g id="Слой_x0020_1">
  <metadata id="CorelCorpID_0Corel-Layer"/>
  <g id="_1035012896">
   <path class="fil0" d="M29945602 0l282982 0 5060705 0 0 209 35060 0 0 11292990 3450044 0 0 0 228932 0 0 0 193663 0 0 0 138152 0 0 0 0 510035 0 12853148 0 224549 0 285695 -4010791 0 0 317208 -34456829 0 -781749 0 -85771 0 0 -23733978 0 -475602 0 -1274254 2693756 0 0 1749856 5670703 0 0 -1749856 4988499 0 95997 0 0 1749856 5670494 0 0 -1749856 641718 0 4058999 0 454733 0 0 1749856 5670703 0 0 -1749856zm-11424464 18841058l2630314 0 0 6412174 -2630314 0 0 -6412174z"/>
   <path class="fil1" d="M29815797 0l412787 0 5060705 0 0 209 35060 0 0 11292990 3870135 0 0 0 228932 0 0 0 193454 0 0 0 138361 0 0 0 0 510035 0 12853148 0 224549 0 285695 -4430882 0 0 317208 -28961425 0 0 -51338 -215784 0 -2663079 584120 -14817 -68450 2675809 -586833 0 -189698 217871 0 0 -512540 341206 0 0 -5566567 0 -426560 449307 0 3205879 0 0 93075 105596 0 1683076 -584120 14608 68450 -1695805 586833 0 189698 -107475 0 0 72624 -3205879 0 0 5566567 7285955 0 0 -5566567 -1852948 0 0 -72624 -139822 0 0 -260861 139822 0 0 -93075 1852948 0 449307 0 1220622 0 0 93075 93492 0 1683076 -584120 14608 68450 -1695806 586833 0 189698 -95370 0 0 72624 -1220622 0 0 5566567 3433141 0 0 -5639191 -137317 0 0 -260861 137317 0 0 -93075 199298 0 249800 0 742098 0 449099 0 911761 0 154221 0 0 -111649 260861 0 0 111649 34225 0 0 5993127 9155181 0 1496508 0 2362776 0 0 -3110508 -5009 0 0 -2358184 339120 0 0 -2823769 -245210 0 -434699 2737998 -68867 -10852 433029 -2727146 -23373 0 0 -308651 -758375 0 0 -753993 -12250872 0 0 356649 -34434 0 0 107058 584121 2487989 -68450 14608 -586833 -2500719 -189699 0 0 -108936 -23373 0 0 -356649 0 -163612 0 -165908 33182 0 0 -161733 189698 0 586833 -2605690 68450 14817 -584120 2592959 0 159647 12275497 0 0 -13224614 -3345700 0 -412787 0 -5291932 0 -703699 0 -2496754 0 0 10014979 -24625 0 0 158395 -260861 0 0 -158395 -33182 0 0 -54885 -216201 0 0 -189698 -2535779 -586833 14817 -68450 2523048 584120 214115 0 0 -9699233 -1243577 0 -711003 0 -5457214 0 -239992 0 -2213772 0 0 13224614 6329743 0 0 -3530598 318459 0 0 5217 181559 0 0 260861 -181559 0 0 3264520 0 136066 0 193454 -9248465 0 0 -25669 -120831 0 0 -189698 -2360689 -586833 14609 -68450 2348167 584120 118744 0 0 -42990 2281804 0 0 -13224614 -2456268 0 -245001 0 -5195518 0 -191159 0 -1865261 0 0 13224614 4753098 0 0 42990 152760 0 0 260861 -152760 0 0 25669 -4753098 0 0 9355105 2125287 0 0 512540 192620 0 0 260861 -192620 0 0 51338 -2125287 0 -781749 0 -85771 0 0 -23733978 0 -475602 0 -1274254 2732781 0 191159 0 5195518 0 245001 0 4988499 0 239992 0 5457214 0 711003 0 4058999 0 703699 0 5291932 0zm-9124712 19092528l-545930 223088 -183020 865225 0 -1088313 728950 0zm-710377 1338113l225175 -1064731 668013 -272756 0 1337487 -893188 0zm-553443 -1338113l-545930 223088 -110397 521097 0 -744185 656327 0zm-656327 1081634l171125 -808252 570973 -233105 0 1297836 -742098 0 0 -256479zm1829993 1609409l-455776 186359 -183020 865224 0 -1051583 638796 0zm-615632 1279472l220584 -1042819 579320 -236653 88693 0 0 1279472 -888597 0zm-648188 -1279472l-455776 186359 -110397 521096 0 -707455 566173 0zm-566173 1044905l171125 -808252 570973 -233105 0 1275924 -742098 0 0 -234567zm2102958 661127l-2102958 0 0 1169492 2102958 0 0 -1169492zm13913079 -1304306l537374 0 0 2471085 3870135 0 0 -12853148 -3870135 0 0 4254749 -537374 0 0 308651 0 2823769 0 2994894zm4636441 2471085l0 -12853148 193454 0 0 12853148 -193454 0zm-9607619 -22975393l0 -701821 -5291932 0 0 701821 5291932 0zm0 -911970l0 -700152 -5291932 0 0 700152 5291932 0zm-16222847 911970l5457214 0 0 -701821 -5457214 0 0 701821zm5457214 -1612122l-5457214 0 0 700152 5457214 0 0 -700152zm-16126224 1612122l5195518 0 0 -701821 -5195518 0 0 701821zm5195518 -1612122l-5195518 0 0 700152 5195518 0 0 -700152z"/>
   <polygon class="fil2" points="31965501,22551964 21360141,22551964 21360141,24651791 31965501,24651791 "/>
   <path class="fil3" d="M31966754 22516904l-10646055 0 0 2169947 10685288 0 0 -2169947 -39233 0zm-10567170 70119l10527727 0 0 2029917 -10527727 0 0 -2029917z"/>
   <path class="fil4" d="M29320161 22516904l-1332061 0c-71789,0 -137108,29425 -184272,76589 -47164,47163 -76589,112483 -76589,184272l0 1909086 1819976 0 0 -1942685c0,-62607 -25669,-119370 -66781,-160482 -41111,-41111 -97875,-66780 -160273,-66780z"/>
   <path class="fil3" d="M29320161 22516904l-1332061 0c-71789,0 -137108,29425 -184272,76589 -47164,47163 -76589,112483 -76589,184272l0 1909086 1819976 0 0 -1942685c0,-62607 -25669,-119370 -66781,-160482 -41111,-41111 -97875,-66780 -160273,-66780zm-1332061 70119l1332061 0c43199,0 82432,17530 110814,46121 28590,28381 46329,67823 46329,111022l0 1872774 -1679946 0 0 -1839175c0,-52381 21495,-100171 55929,-134813 34642,-34434 82432,-55929 134813,-55929z"/>
   <polygon class="fil3" points="29512155,22769626 27762299,22769626 27762299,22839745 29512155,22839745 "/>
   <path class="fil1" d="M29054500 22999810c-154221,0 -279225,125004 -279225,279226 0,154221 125004,279225 279225,279225 154221,0 279226,-125004 279226,-279225 0,-154222 -125005,-279226 -279226,-279226z"/>
   <path class="fil1" d="M28273795 23086624c-106222,0 -192411,86189 -192411,192412 0,106431 86189,192619 192411,192619 106431,0 192620,-86188 192620,-192619 0,-106223 -86189,-192412 -192620,-192412z"/>
   <path class="fil1" d="M28273795 23864617c154221,0 279435,125004 279435,279225 0,154221 -125214,279226 -279435,279226 -154221,0 -279226,-125005 -279226,-279226 0,-154221 125005,-279225 279226,-279225z"/>
   <path class="fil1" d="M29054500 23951222c106223,0 192411,86189 192411,192620 0,106223 -86188,192411 -192411,192411 -106431,0 -192620,-86188 -192620,-192411 0,-106431 86189,-192620 192620,-192620z"/>
   <polygon class="fil4" points="34270261,22494365 32135165,22494365 32135165,24664312 34305112,24664312 34305112,22494365 "/>
   <path class="fil3" d="M33184244 23173439l0 75963 -69910 -59894 -45286 53007 115196 98710 0 155473 -101214 -101214 -28173 -165073 -68867 11687 11687 67824 -38399 -38191 -49459 49460 47789 47789 -92866 -8556 -6470 69494 176343 16069 102048 102049 -143160 0 -136691 -96832 -40486 56972 56555 39860 -54468 0 0 69702 67615 0 -71789 59893 44659 53633 136066 -113526 135647 0 -98918 98709 -164864 28173 11686 68868 67824 -11478 -38399 38399 49460 49459 47789 -47790 -8347 92867 69493 6260 15861 -176133 102048 -102049 0 143369 -96831 136483 56972 40277 39859 -56137 0 54259 69911 0 0 -67616 59685 71581 53633 -44660 -113318 -135856 0 -139196 109979 109979 7930 149630 69703 -3547 -3757 -72207 42990 42990 49459 -49668 -53633 -53424 91615 -7096 -5218 -69702 -151508 11687 -106431 -106431 155473 0 111649 100379 46746 -51964 -53842 -48415 60729 0 0 -69702 -75963 0 60102 -69911 -53215 -45494 -98710 115405 -159021 0 112692 -112692 149630 -7722 -3548 -69702 -72415 3756 42990 -42990 -49459 -49459 -53633 53425 -6887 -91406 -69911 5217 11687 151299 -106223 106432 0 -155473 100380 -111440 -51964 -46747 -48416 53633 0 -60728 -69911 0zm1086017 -679074l-2135096 0 0 2169947 2169947 0 0 -2169947 -34851 0zm-2064976 70120l2029917 0 0 2029917 -2029917 0 0 -2029917z"/>
   <path class="fil4" d="M23103320 22693663l-1414911 0c-55720,0 -106223,22747 -142952,59268 -36729,36729 -59685,87441 -59685,143160l0 1414911c0,55720 22956,106431 59476,143161 36730,36520 87441,59476 143161,59476l1414911 0c55719,0 106431,-22956 143160,-59476 36521,-36730 59268,-87441 59268,-143161l0 -1414911c0,-55719 -22747,-106431 -59268,-143160 -36938,-36521 -87441,-59268 -143160,-59268z"/>
   <path class="fil3" d="M23103320 22693663l-1414911 0c-55720,0 -106223,22747 -142952,59268 -36729,36729 -59685,87441 -59685,143160l0 1414911c0,55720 22956,106431 59476,143161 36730,36520 87441,59476 143161,59476l1414911 0c55719,0 106431,-22956 143160,-59476 36521,-36730 59268,-87441 59268,-143161l0 -1414911c0,-55719 -22747,-106431 -59268,-143160 -36938,-36521 -87441,-59268 -143160,-59268zm-1414911 69911l1414911 0c36520,0 69702,14817 93701,38816 23790,24208 38816,57390 38816,93701l0 1414911c0,36521 -15026,69702 -39025,93701 -23999,24000 -56972,38817 -93492,38817l-1414911 0c-36521,0 -69702,-14817 -93701,-38817 -24000,-23999 -38816,-57180 -38816,-93701l0 -1414911c0,-36311 14816,-69493 38816,-93492 23999,-24208 57180,-39025 93701,-39025z"/>
   <path class="fil3" d="M22952855 22830981l-1113981 0c-59268,0 -113318,24207 -152343,63232 -39025,39234 -63233,93076 -63233,152343l0 764010c0,59268 24208,113110 63233,152343 39025,39025 93075,63233 152343,63233l1113981 0c59268,0 113109,-24208 152343,-63233 39025,-39025 63232,-93075 63232,-152343l0 -764010c0,-59267 -24207,-113318 -63232,-152343 -39234,-39025 -93284,-63232 -152343,-63232zm-1113981 69910l1113981 0c40068,0 76380,16487 102675,42782 26503,26503 42990,63024 42990,102883l0 764010c0,39860 -16487,76380 -42990,102675 -26295,26504 -62816,42990 -102675,42990l-1113981 0c-40069,0 -76380,-16486 -102884,-42990 -26295,-26295 -42781,-62815 -42781,-102675l0 -764010c0,-39859 16486,-76380 42781,-102675 26504,-26503 62815,-42990 102884,-42990z"/>
   <path class="fil1" d="M22336388 24106278c-40068,21287 -67407,63650 -67407,112275 0,70119 56764,126883 126883,126883 70120,0 126883,-56764 126883,-126883 0,-48625 -27338,-90988 -67406,-112275l0 -299051 -118953 0 0 299051z"/>
   <path class="fil1" d="M22395864 23224776c-78675,0 -142326,63651 -142326,142326 0,78676 63651,142535 142326,142535 78676,0 142326,-63859 142326,-142535 0,-78675 -63650,-142326 -142326,-142326zm0 55512c-47998,0 -86814,38816 -86814,86814 0,47999 38816,87024 86814,87024 47999,0 86815,-39025 86815,-87024 0,-47998 -38816,-86814 -86815,-86814z"/>
   <polygon class="fil2" points="22612483,2913714 22612483,10658158 21434852,10658158 21434852,2913714 "/>
   <polygon class="fil2" points="21985373,4782732 21985373,8878877 21767711,8878877 21767711,4782732 "/>
   <path class="fil2" d="M21767711 8878877c-208063,-1397381 -235819,-2767006 0,-4096145l0 4096145z"/>
   <polygon class="fil2" points="21601594,6734807 21601594,6926593 21473251,6926593 21473251,6734807 "/>
   <path class="fil3" d="M22647543 2913714l0 7779504 -1247542 0 0 -7814355 1247542 0 0 34851zm-69911 7709385l0 -7674325 -1107720 0 0 7674325 1107720 0z"/>
   <path class="fil3" d="M22020224 4782732l0 4131205 -287573 0 0 -4166265 287573 0 0 35060zm-69911 4061085l0 -4026234 -147543 0 0 4026234 147543 0z"/>
   <path class="fil3" d="M21732860 8882007c-103927,-699107 -162986,-1391955 -166325,-2076663 -3548,-685543 48624,-1362529 166742,-2028664 3339,-18991 21495,-31721 40486,-28382 16904,2922 29007,17739 29007,34434l0 4096145c0,19199 -15651,35060 -35059,35060 -18156,0 -33182,-13982 -34851,-31930zm-96623 -2076871c2504,509827 36103,1024871 96414,1544089l0 -3111969c-68659,517131 -99127,1040105 -96414,1567880z"/>
   <path class="fil3" d="M21636445 6734807l0 226845 -198045 0 0 -261696 198045 0 0 34851zm-69910 156934l0 -121874 -58225 0 0 121874 58225 0z"/>
   <polygon class="fil2" points="10735165,14892456 10735165,9692764 8702952,9692764 8702952,14892456 "/>
   <path class="fil3" d="M10768972 14858439l0 -5233291 -2100036 0 0 5267308 2100036 0 0 -34017zm-67615 -5165675l0 5131868 -1964597 0 0 -5131868 1964597 0z"/>
   <path class="fil3" d="M9414999 12626303c-8974,12939 -15235,27338 -18365,41947 -3339,15443 -3756,31094 -1043,46120 2504,15025 8139,29634 16695,42781 7930,12730 18782,23999 31929,33182 13148,9182 27547,15443 42155,18573 15235,3339 31095,3756 45912,1043 15025,-2713 29842,-8347 42990,-16695 12521,-8139 23999,-18782 33181,-31929 33599,-48207 63650,-96206 89737,-143787 26294,-47998 48833,-95788 67615,-143786 18156,-46121 32973,-93076 44450,-140031 9809,-41529 17113,-82849 21495,-123752l107684 0 0 -6261 9182 -4382c7304,-4174 14191,-9183 19826,-15235 7512,-7721 13564,-17112 17529,-27338 3757,-9600 5844,-20451 5635,-31721l835 -7721c626,-2504 1669,-5217 3130,-7930 1461,-3131 3548,-6052 5843,-8974l7513 -7721 8139 -5844 7722 -3756 7721 -2504 6052 -835 4591 626 5217 1878 5635 3757 6052 6052 5843 7304 4383 7304 3130 6261c6469,20451 -1043,26503 -17947,38607l-10643 5843 -12939 5217 -14608 4383c-10852,2713 -20660,7721 -29217,13982 -8973,6678 -16486,15026 -21912,24208 -5426,9182 -9182,19825 -10852,30677 -1461,10435 -1043,21495 1670,32347 2713,10852 7721,20660 13982,29216 6678,8974 15025,16487 24208,21913 9391,5634 19825,9391 30677,10852 10434,1669 21495,1043 32347,-1670 10852,-2713 21286,-6052 31303,-9600 10226,-3756 20243,-8138 29425,-12730 9391,-4591 18574,-9808 27130,-15234 8765,-5843 17112,-11895 24625,-18365 7096,-6051 13982,-12312 20034,-18990 6261,-6678 12104,-13565 16904,-20452 5009,-7095 9808,-14817 13982,-22747 4174,-7930 7722,-15860 10435,-23790 3130,-8348 5634,-17321 7304,-26504 1669,-8765 2921,-17947 3130,-27129 417,-9183 209,-18365 -835,-27547 -834,-8974 -2504,-18365 -4799,-27339 -2087,-8138 -4800,-16277 -7931,-24416 -3130,-7722 -6678,-15860 -11060,-23791 -4174,-7721 -8765,-15443 -13982,-22747 -5009,-7513 -10643,-15025 -16904,-22121 -10226,-12104 -20869,-22538 -31930,-31094 -11686,-9183 -23999,-16696 -36520,-22539 -13356,-6260 -27130,-10852 -40694,-13773 -14191,-2922 -28799,-4174 -42990,-3965l-18365 1252 -18156 2921 -17947 4592 -17530 6052 -15652 7304 -15651 8556 -15026 9808 -13773 10852c-7722,6469 -15235,13774 -22121,21286 -6887,7513 -13148,15652 -18991,24208 -4800,7096 -9182,14400 -12939,21495l-5426 11269 -9182 0c-3339,-42363 -9808,-84936 -19199,-127508 -10644,-47582 -25043,-95163 -43408,-142118 -19199,-49668 -42990,-99336 -70954,-148377 -27756,-49042 -60102,-97667 -96623,-146291 -9808,-12730 -21495,-22956 -34434,-30678 -13564,-7930 -28590,-12938 -43616,-15025 -15234,-2087 -30885,-1252 -46120,2504 -14608,3965 -28799,10643 -41529,20243 -12730,9600 -22956,21286 -30677,34434 -7930,13356 -12939,28381 -15026,43616 -2087,15025 -1252,30886 2713,45911 3757,14608 10435,28799 19826,41529 31929,42155 59685,84519 83267,126466 23581,42155 43198,84310 58432,126048 15235,41320 26504,82641 33599,123544 7513,41320 10852,82640 10435,123543 -418,40695 -4591,82015 -12522,123336 -8138,41737 -20034,83892 -35685,126048 -15443,42363 -34851,84936 -57598,127300 -23165,42781 -49877,85562 -79928,128552zm41320 77424c-1461,-7304 -1252,-14817 417,-22330 1461,-6887 4383,-13773 8765,-20034 31721,-45286 59894,-90571 84102,-135648 23999,-44868 44451,-89736 60728,-134187 16696,-45077 29634,-90362 38191,-135648 8556,-44659 13356,-89527 13773,-134395 417,-44868 -3339,-89736 -11269,-134605 -7930,-44659 -20034,-89318 -36521,-133978 -16277,-44868 -37146,-89736 -62189,-134813 -25043,-44451 -54259,-89110 -88067,-133769 -4591,-6052 -7930,-12939 -9599,-19826 -1879,-7304 -2296,-14817 -1253,-22121 835,-7304 3339,-14399 7096,-20869 3756,-6260 8765,-11895 14817,-16486 6052,-4591 12938,-7930 19825,-9600 7304,-1878 14817,-2295 22121,-1252 7304,1043 14400,3339 20869,7304 6261,3548 11895,8556 16487,14608 35059,46329 65737,92867 92240,139404 26712,46747 49042,93493 67198,140239 18156,46121 32138,92658 42155,139196 10017,46746 16069,93701 18156,140448l1252 29425 111023 0 6886 -21287c2087,-6886 4800,-13564 7930,-19616 3131,-6470 6679,-12730 10852,-18782 3965,-5844 8765,-11687 13774,-17322 5008,-5634 10643,-11060 16277,-15860l10226 -7930 10643 -7096 11478 -6260 11061 -5009 12521 -4382 12313 -3131 12730 -2086 12312 -835c9809,-209 19826,626 29426,2713 9182,1878 18364,4800 27129,8973 8556,3966 16904,9183 25043,15652 8139,6261 15860,13774 22747,22121l13147 17113c3965,5634 7513,11477 10435,17112 2921,5426 5634,11269 7930,17113 2295,5843 4174,11477 5634,17112 1461,6261 2713,12730 3340,18782 626,6261 834,12521 626,18573 -209,5635 -1044,11687 -2087,17739 -1252,6052 -2922,12104 -5009,17738 -1878,5426 -4382,10852 -7095,16070 -2505,5008 -5844,10225 -9391,15234 -3757,5217 -7722,10226 -12104,14817 -4383,4591 -9183,9182 -14191,13565 -5635,4799 -11895,9182 -18365,13564 -6886,4174 -13773,8348 -21077,11896 -7513,3756 -15443,7095 -23373,10017 -8139,2921 -16487,5634 -25252,7721 -2713,626 -5634,835 -8556,417 -2713,-417 -5635,-1460 -7930,-2712 -2504,-1461 -4591,-3340 -6261,-5635 -1669,-2087 -2922,-4800 -3756,-7722 -626,-2713 -835,-5843 -418,-8556 418,-2713 1461,-5634 2922,-7930 1252,-2296 3339,-4591 5635,-6261 2086,-1669 4799,-2921 7512,-3756l20243 -6052c6470,-2296 12730,-4800 18574,-7513 6052,-2921 11686,-6052 17112,-9391 5217,-3339 10226,-7095 15026,-11060l9599 -8974 8139 -9808 6887 -10852 5217 -11687 3130 -11686 1461 -12104 -626 -12104 -2087 -11687 -4382 -13356 -6469 -13356 -7722 -12313 -9391 -12312c-4591,-5635 -9600,-10435 -14608,-14400 -5217,-4382 -10852,-7930 -16695,-10852 -6261,-3130 -12730,-5217 -18991,-6678 -6678,-1460 -13356,-2295 -19825,-2087l-8765 627 -8974 1460 -8556 2087 -8556 3131 -8557 3756c-7513,4174 -17112,9600 -23373,15443 -6261,5217 -11895,10852 -16695,17112 -5009,6052 -9182,12522 -12730,19408 -3548,7096 -6261,14609 -8139,22122 -1669,7304 -2504,15025 -2504,22329 209,2922 -418,6052 -1461,8556 -1043,2713 -2504,5218 -4382,7096 -2087,2087 -4383,3756 -6887,4800 -2504,1043 -5426,1878 -8139,1878 -26921,626 -54050,417 -80971,209l-53216 -209 -2296 28590c-3339,45703 -10434,91406 -21077,136900 -10643,45912 -25251,92032 -43199,137735 -17947,45703 -39442,91406 -64276,136900 -25460,46329 -54259,92240 -86188,137734 -4383,6261 -9809,11478 -15652,15235 -6469,3965 -13565,6678 -20660,7930 -7304,1252 -14817,1252 -22121,-417 -7096,-1461 -13982,-4383 -20243,-8765 -6261,-4383 -11269,-9809 -15026,-15861 -3965,-6260 -6886,-13356 -7930,-20451z"/>
   <polygon class="fil2" points="17472268,2494041 20867218,2494041 20867218,9493883 17472268,9493883 "/>
   <path class="fil3" d="M17472268 2458981l3430010 0 0 7069962 -3465070 0 0 -7069962 35060 0zm3359890 70120l-3324831 0 0 6929931 3324831 0 0 -6929931z"/>
   <polygon class="fil2" points="17779666,2494041 20535820,2494041 20535820,9186484 17779666,9186484 "/>
   <path class="fil3" d="M17779666 2458981l2791005 0 0 6762354 -2825856 0 0 -6762354 34851 0zm2721095 70120l-2686035 0 0 6622324 2686035 0 0 -6622324z"/>
   <path class="fil2" d="M20535820 5191553l0 3994931 -2756154 0 0 -5027315 1788881 -58015c75337,352684 294460,259817 636501,718724 258983,347885 -42155,289034 330772,371675z"/>
   <path class="fil3" d="M20570671 5191553l0 4029782 -2825856 0 0 -5095973 1851905 -60103 6052 28591c37982,178429 116866,235401 232480,318876 104970,75963 238322,172169 397761,386492 122083,163821 126256,245001 128552,290704 1461,26503 1461,27755 181768,67615l27338 6052 0 27964zm-69910 3959872l0 -3931907c-204724,-45703 -205142,-52173 -208898,-126049 -1878,-38190 -5426,-105596 -114988,-252722 -152969,-205558 -281312,-298216 -382318,-371257 -122709,-88693 -208062,-150465 -253557,-332442l-1726274 55929 0 4958448 2686035 0z"/>
   <path class="fil3" d="M19602981 4094684c17947,95997 -12313,167160 -49459,254601 -64276,151091 -151300,356023 -9809,844772 41947,145457 38190,257523 35477,333068 -1460,45285 -2504,72832 209,74084 22539,10435 117075,-32764 358945,-143160l89945 -41112c148378,-67406 273382,-66572 365832,-65945 57389,417 100170,626 118326,-15652l46746 51963c-37981,34225 -92449,34017 -165490,33391 -85980,-626 -202011,-1461 -336406,59685l-89945 41111c-262740,119996 -365414,166951 -416961,143161 -44868,-20660 -43407,-65737 -40903,-139613 2505,-71163 6052,-176759 -32764,-311572 -148586,-512958 -55928,-730829 12522,-891519 32555,-76798 59059,-139196 45076,-214324l68659 -12939z"/>
   <path class="fil2" d="M18133603 6220181c381692,-189072 679282,-500854 877745,-957465 -471846,600189 -731663,867937 -877745,957465z"/>
   <path class="fil3" d="M18494634 5936572c41947,-37146 82224,-76588 121040,-118535 66572,-71789 128344,-150673 185107,-236862 -118118,143787 -219541,260861 -306147,355397zm172169 -71162c-149630,161525 -322425,289034 -516297,385448l-1043 417c-16069,8139 -36103,2713 -45703,-12938 -10017,-16487 -4800,-37982 11687,-47999 70537,-43198 169455,-130639 309485,-281104 141283,-152343 323468,-368544 559078,-668013 9391,-12104 26503,-16904 41320,-10434 17530,7721 25669,28173 17947,45911 -100588,231854 -226844,427186 -376474,588712z"/>
   <polygon class="fil3" points="18585414,4158126 18178262,4577799 18128177,4529175 18535329,4109501 "/>
   <polygon class="fil3" points="18287615,9163320 18783668,8601947 18836049,8648276 18339787,9209440 "/>
   <polygon class="fil2" points="17472268,2494041 20900400,2494041 20900400,1890304 17472268,1890304 "/>
   <path class="fil3" d="M17507327 2458981l3358013 0 0 -533617 -3358013 0 0 533617zm3393073 70120l-3463192 0 0 -673857 3498251 0 0 673857 -35059 0z"/>
   <path class="fil2" d="M18160106 2335229c1167823,-157978 1702693,-114571 2013848,0 -94119,358944 -139613,726028 0,1123789 -495219,-134187 -1088939,151717 -1414911,124170 -243540,-20660 -427186,-69493 -598937,-124170 -38816,-306564 161734,-822651 0,-1123789z"/>
   <path class="fil3" d="M18155306 2300795c585790,-79302 1013185,-108101 1333522,-102675 323259,5635 538417,45911 697230,104344l29634 11061 -7931 30468c-46537,177386 -80971,356441 -86606,539461 -5634,182394 17322,369588 85772,564086l21912 62607 -63859 -17321c-293834,-79511 -628362,-6052 -916979,57389 -189281,41529 -359571,79093 -491879,67824 -122918,-10434 -231436,-28173 -330981,-50085 -98710,-21913 -188655,-48207 -275678,-75754l-21286 -6678 -2713 -22121c-15652,-123544 5634,-275887 27755,-434908 33808,-242705 69911,-502105 -23999,-676569l-23790 -44451 49876 -6678zm1332479 -32764c-308234,-5426 -717890,21495 -1275924,95579 77841,190116 43199,439708 10434,674483 -20034,144830 -39442,284025 -30051,394630 78259,24417 159438,47581 247923,66989 95996,21287 201176,38399 321589,48625 121874,10226 287365,-26086 471637,-66572 276513,-60728 594346,-130639 887971,-71163 -56137,-181768 -75128,-357484 -69911,-529026 5426,-178638 37147,-352475 80763,-524018 -149630,-50294 -350597,-84519 -644431,-89527z"/>
   <polygon class="fil3" points="19507193,2388236 19419543,2709408 19352346,2691043 19439786,2369871 "/>
   <polygon class="fil3" points="19812922,2434147 19637832,2945017 19571678,2922270 19746768,2411609 "/>
   <polygon class="fil2" points="13544326,2326255 13544326,6176147 11444289,6176147 11444289,2326255 "/>
   <path class="fil3" d="M13579177 2361315l0 3849892 -2169947 0 0 -3884952 2169947 0 0 35060zm-69911 3779773l0 -3744922 -2029917 0 0 3744922 2029917 0z"/>
   <path class="fil2" d="M13544326 5076148c442420,-15234 796565,-378770 796565,-824947 0,-446177 -354145,-809713 -796565,-824947l0 1649894z"/>
   <path class="fil3" d="M13579177 5039210c197837,-15860 375013,-104344 504818,-238948 137317,-142118 221836,-335781 221836,-549061 0,-213280 -84519,-406943 -221836,-549060 -129805,-134605 -306981,-223089 -504818,-238949l0 1576018zm555321 -190533c-150048,155265 -358110,254392 -589129,262322l-36103 1252 0 -1722100 36103 1252c231019,7930 439081,107057 589129,262322 149421,154847 241244,365414 241244,597476 0,232062 -91823,442629 -241244,597476z"/>
   <path class="fil2" d="M14082534 5392521c391083,-229767 653614,-654866 653614,-1141320 0,-486454 -262531,-911553 -653614,-1141319l0 278808c272965,189489 451603,505027 451603,862511 0,357484 -178638,673022 -451603,862511l0 278809z"/>
   <path class="fil3" d="M14117594 5329914c170290,-111440 312616,-262322 414247,-439708 107684,-188237 169456,-406317 169456,-639005 0,-232688 -61772,-450768 -169456,-639005 -101631,-177386 -243957,-328268 -414247,-439708l0 198255c136691,98501 249592,227888 328476,378353 78676,150256 123127,321172 123127,502105 0,180933 -44451,351850 -123127,502106 -78884,150464 -191785,280060 -328476,378352l0 198255zm474976 -404856c-117909,205558 -287991,377518 -492297,497514l-52799 31094 0 -358318 15235 -10435c134395,-93284 245209,-218288 321381,-363953 73458,-140239 114987,-300095 114987,-469759 0,-169664 -41529,-329520 -114987,-469759 -76172,-145664 -186986,-270669 -321381,-363953l-15235 -10434 0 -358319 52799 31094c204306,119997 374388,291956 492297,497515 113735,198672 178637,428647 178637,673856 0,245210 -64902,475185 -178637,673857z"/>
   <path class="fil2" d="M14528920 4355963l-194707 0c4382,-34434 6678,-69285 6678,-104762 0,-35477 -2296,-70328 -6678,-104762l194707 0c3547,34434 5217,69494 5217,104762 0,35269 -1670,70328 -5217,104762z"/>
   <path class="fil3" d="M14528920 4391023l-234358 0 4800 -39234c2295,-17321 3965,-34016 5008,-50294 835,-15860 1461,-32764 1461,-50294 0,-17530 -626,-34225 -1461,-50085 -1043,-16278 -2713,-33182 -5008,-50294l-4800 -39234 266078 0 3131 31512c1669,17948 3130,36103 3965,54259 835,18991 1461,37147 1461,53842 0,16695 -626,34851 -1461,53842 -835,18156 -2296,36312 -3965,54259l-3131 31721 -31720 0zm-156100 -70120l124170 0 1044 -18990c626,-15443 1043,-32347 1043,-50712 0,-18365 -417,-35268 -1043,-50503l-1044 -19199 -124170 0 1252 15234c1044,18574 1670,36938 1670,54468 0,17530 -626,35895 -1670,54677l-1252 15025z"/>
   <polygon class="fil3" points="2745928,24539725 2745928,19153883 2815839,19153883 2815839,24539725 "/>
   <polygon class="fil3" points="2609237,19528270 2609237,15341345 2679148,15341345 2679148,19528270 "/>
   <polygon class="fil3" points="1616921,24504874 1616921,15417100 1686832,15417100 1686832,24504874 "/>
   <polygon class="fil3" points="974368,15509131 2514075,15509131 2514075,15579251 974368,15579251 "/>
   <polygon class="fil3" points="974368,15693612 2514075,15693612 2514075,15763732 974368,15763732 "/>
   <polygon class="fil3" points="974368,15951969 2514075,15951969 2514075,16021880 974368,16021880 "/>
   <polygon class="fil3" points="974368,16800289 2514075,16800289 2514075,16870409 974368,16870409 "/>
   <polygon class="fil3" points="974368,17003344 2514075,17003344 2514075,17073254 974368,17073254 "/>
   <polygon class="fil3" points="1008593,17704330 2457520,17155060 2479850,17220797 1030923,17769858 "/>
   <polygon class="fil3" points="1008593,17888811 2457520,17339541 2479850,17405278 1030923,17954339 "/>
   <polygon class="fil3" points="979377,18027171 2514075,18156141 2508858,18225843 974160,18096873 "/>
   <polygon class="fil3" points="979377,18728157 2514075,18857127 2508858,18926829 974160,18797859 "/>
   <polygon class="fil3" points="974368,19032217 2514075,19032217 2514075,19102336 974368,19102336 "/>
   <polygon class="fil3" points="974368,19290574 2514075,19290574 2514075,19360485 974368,19360485 "/>
   <polygon class="fil3" points="974368,19415787 2514075,19415787 2514075,19485907 974368,19485907 "/>
   <polygon class="fil3" points="974368,19600268 2514075,19600268 2514075,19670388 974368,19670388 "/>
   <polygon class="fil3" points="974368,19858625 2514075,19858625 2514075,19928536 974368,19928536 "/>
   <polygon class="fil3" points="974368,20706945 2514075,20706945 2514075,20777065 974368,20777065 "/>
   <polygon class="fil3" points="974368,20909999 2514075,20909999 2514075,20979910 974368,20979910 "/>
   <polygon class="fil3" points="1008593,21610777 2457520,21061716 2479850,21127453 1030923,21676514 "/>
   <polygon class="fil3" points="1008593,21795258 2457520,21246197 2479850,21311934 1030923,21860995 "/>
   <polygon class="fil3" points="979377,21933827 2514075,22062797 2508858,22132499 974160,22003529 "/>
   <polygon class="fil3" points="979377,22634813 2514075,22763783 2508858,22833485 974160,22704515 "/>
   <polygon class="fil3" points="974368,22938873 2514075,22938873 2514075,23008783 974368,23008783 "/>
   <polygon class="fil3" points="974368,23197021 2514075,23197021 2514075,23267140 974368,23267140 "/>
   <polygon class="fil3" points="979377,23376285 2514075,23505254 2508858,23574956 974160,23445987 "/>
   <polygon class="fil3" points="974368,23680344 2514075,23680344 2514075,23750464 974368,23750464 "/>
   <polygon class="fil3" points="974368,23938701 2514075,23938701 2514075,24008612 974368,24008612 "/>
   <polygon class="fil3" points="17350811,13059333 13823343,13059333 13823343,12989213 17350811,12989213 "/>
   <polygon class="fil3" points="14197939,13196024 11248122,13196024 11248122,13125904 14197939,13125904 "/>
   <polygon class="fil3" points="17402774,14188131 11248122,14188131 11248122,14118220 17402774,14118220 "/>
   <polygon class="fil3" points="11469958,14830892 11469958,13291186 11540078,13291186 11540078,14830892 "/>
   <polygon class="fil3" points="11672804,14830892 11672804,13291186 11742923,13291186 11742923,14830892 "/>
   <polygon class="fil3" points="12373790,14796667 11824729,13347741 11890257,13325411 12439527,14774338 "/>
   <polygon class="fil3" points="12558271,14796667 12009210,13347741 12074738,13325411 12624008,14774338 "/>
   <polygon class="fil3" points="12696840,14825884 12825810,13290977 12895512,13296194 12766542,14830892 "/>
   <polygon class="fil3" points="13397826,14825884 13526587,13290977 13596498,13296194 13467528,14830892 "/>
   <polygon class="fil3" points="13701886,14830892 13701886,13291186 13771796,13291186 13771796,14830892 "/>
   <polygon class="fil3" points="13960034,14830892 13960034,13291186 14030153,13291186 14030153,14830892 "/>
   <polygon class="fil3" points="14085456,14830892 14085456,13291186 14155367,13291186 14155367,14830892 "/>
   <polygon class="fil3" points="14269937,14830892 14269937,13291186 14339848,13291186 14339848,14830892 "/>
   <polygon class="fil3" points="14528085,14830892 14528085,13291186 14598204,13291186 14598204,14830892 "/>
   <polygon class="fil3" points="15376614,14830892 15376614,13291186 15446525,13291186 15446525,14830892 "/>
   <polygon class="fil3" points="15579459,14830892 15579459,13291186 15649579,13291186 15649579,14830892 "/>
   <polygon class="fil3" points="16280445,14796667 15731385,13347741 15796913,13325411 16346182,14774338 "/>
   <polygon class="fil3" points="16464926,14796667 15915866,13347741 15981394,13325411 16530663,14774338 "/>
   <polygon class="fil3" points="16603496,14825884 16732465,13290977 16802168,13296194 16673198,14830892 "/>
   <polygon class="fil2" points="10422757,3881613 10422757,9481362 3422915,9481362 3422915,3881613 "/>
   <path class="fil3" d="M10457817 3881613l0 5634808 -7069962 0 0 -5669868 7069962 0 0 35060zm-70119 5564898l0 -5530047 -6929723 0 0 5530047 6929723 0z"/>
   <polygon class="fil2" points="10422757,1888426 10422757,9489292 10698853,9489292 10698853,1888426 "/>
   <path class="fil3" d="M10457817 1923485l0 7530747 205976 0 0 -7530747 -205976 0zm-70119 7565807l0 -7635717 346214 0 0 7670777 -346214 0 0 -35060z"/>
   <polygon class="fil2" points="10273545,1946441 10273545,3696506 8873660,3696506 8873660,1946441 "/>
   <path class="fil3" d="M10308604 1946441l0 1785125 -1470004 0 0 -1819976 1470004 0 0 34851zm-69910 1715005l0 -1679945 -1329975 0 0 1679945 1329975 0z"/>
   <polygon class="fil2" points="10422757,4095728 10422757,9267247 3731148,9267247 3731148,4095728 "/>
   <path class="fil3" d="M10457817 4095728l0 5206579 -6761728 0 0 -5241639 6761728 0 0 35060zm-70119 5136668l0 -5101817 -6621490 0 0 5101817 6621490 0z"/>
   <path class="fil3" d="M7714810 9317124l-4029990 0 0 -5256456 5095973 0 60103 4282296 -28591 6052c-178220,38190 -235192,116866 -318876,232479 -75754,104971 -172169,238323 -386283,397761 -164030,122083 -245001,126257 -290704,128761 -26504,1252 -27756,1461 -67615,181560l-6052 27547 -27965 0zm-3959871 -70120l3931907 0c45703,-204515 52172,-204932 126048,-208897 37982,-1879 105597,-5426 252722,-114779 205559,-153178 298217,-281522 371258,-382527 88693,-122709 150256,-208063 332441,-253557l-55928 -4156665 -4958448 0 0 5116425z"/>
   <path class="fil3" d="M8811470 8349225c-95996,17947 -167159,-12313 -254600,-49460 -150882,-64276 -355814,-151299 -844773,-9808 -145247,41946 -257522,38190 -333067,35477 -45077,-1461 -72624,-2504 -73876,209 -10434,22747 32556,117074 143161,358945l40903 89945c67615,148586 66780,273382 66154,365831 -417,57390 -835,100379 15443,118327l-51963 46746c-34225,-37981 -33808,-92449 -33182,-165282 417,-85979 1252,-202219 -59894,-336615l-40903 -89945c-119996,-262739 -166951,-365205 -143160,-416960 20660,-44868 65737,-43407 139613,-40903 71162,2504 176759,6052 311363,-32764 512958,-148378 731038,-55720 891728,12521 76589,32556 139195,59268 214323,45077l12730 68659z"/>
   <polygon class="fil3" points="8674571,5193223 8254897,4785862 8303522,4735985 8723195,5143137 "/>
   <path class="fil3" d="M6911776 5445945c37146,41946 76588,82223 118326,121039 71789,66572 150674,128344 237071,185108 -143787,-118118 -261070,-219541 -355397,-306147zm70954 172168c-161525,-149630 -289034,-322424 -385240,-516296l-417 -1043c-8348,-16070 -2922,-36104 12730,-45703 16486,-10017 37981,-4800 48207,11686 42990,70537 130430,169456 281104,309486 152134,141282 368544,323676 668013,559077 12104,9600 16904,26504 10434,41321 -7721,17738 -28381,25668 -45911,18156 -231853,-100797 -427186,-227054 -588920,-376684z"/>
   <polygon class="fil3" points="3756400,6586847 4317564,7082900 4271444,7135073 3710071,6639019 "/>
   <path class="fil2" d="M10424635 4538357c158187,1167823 114571,1702693 0,2013848 -358736,-94119 -725819,-139613 -1123580,0 133978,-495219 -151717,-1088939 -124170,-1414911 20451,-243540 69493,-427186 124170,-598937 306564,-38607 822651,161734 1123580,0z"/>
   <path class="fil3" d="M10459278 4533766c79302,585581 107892,1013184 102466,1333313 -5426,323259 -45703,538417 -104136,697230l-11060 29842 -30677 -8139c-177177,-46537 -356232,-80971 -539253,-86606 -182394,-5426 -369588,17530 -564086,85772l-62606 21912 17321 -63859c79510,-293834 6052,-628362 -57389,-916770 -41738,-189490 -79094,-359780 -67824,-492089 10225,-122917 27964,-231227 50085,-330980 21912,-98710 47998,-188655 75754,-275469l6678 -21287 22121 -2921c123544,-15443 275678,5634 434908,27755 242705,33808 502105,69911 676569,-23790l44451 -23999 6678 50085zm32764 1332270c5217,-308234 -21704,-717890 -95580,-1275924 -190115,77841 -439707,43198 -674482,10643 -144830,-20243 -284026,-39651 -394631,-30051 -24416,78049 -47581,159229 -67197,247713 -21078,95997 -38191,201177 -48416,321799 -10435,121874 26086,287364 66571,471428 60729,276513 130640,594346 71163,887971 181768,-56137 357484,-75128 529027,-69911 178637,5426 352475,37147 523809,80763 50502,-149421 84727,-350597 89736,-644431z"/>
   <polygon class="fil3" points="10371837,5885444 10050665,5797794 10069030,5730597 10390202,5818246 "/>
   <polygon class="fil3" points="10325717,6191382 9815055,6016292 9837802,5950137 10348464,6125227 "/>
   <path class="fil2" d="M10424635 6877968c158187,1168032 114571,1702693 0,2013848 -358736,-94119 -725819,-139613 -1123580,0 133978,-495010 -151717,-1088939 -124170,-1414911 20451,-243540 69493,-427186 124170,-598937 306564,-38607 822651,161943 1123580,0z"/>
   <path class="fil3" d="M10459278 6873377c79302,585581 107892,1013184 102466,1333313 -5426,323259 -45703,538626 -104136,697230l-11060 29842 -30677 -8139c-177177,-46329 -356232,-80971 -539253,-86606 -182394,-5426 -369588,17530 -564086,85772l-62606 21912 17321 -63859c79510,-293834 6052,-628362 -57389,-916770 -41738,-189490 -79094,-359780 -67824,-492089 10225,-122917 27964,-231227 50085,-330980 21912,-98710 47998,-188655 75754,-275469l6678 -21287 22121 -2713c123544,-15651 275678,5635 434908,27547 242705,33808 502105,69911 676569,-23790l44451 -23999 6678 50085zm32764 1332270c5217,-308234 -21704,-717890 -95580,-1275715 -190115,77632 -439707,42989 -674482,10434 -144830,-20243 -284026,-39442 -394631,-30051 -24416,78049 -47581,159229 -67197,247713 -21078,95997 -38191,201177 -48416,321799 -10435,121874 26086,287364 66571,471428 60729,276513 130640,594346 71163,887971 181768,-56137 357484,-75128 529027,-69911 178637,5426 352475,37356 523809,80763 50502,-149421 84727,-350389 89736,-644431z"/>
   <polygon class="fil3" points="10371837,8225055 10050665,8137405 10069030,8070208 10390202,8157857 "/>
   <polygon class="fil3" points="10325717,8530993 9815055,8355903 9837802,8289748 10348464,8464838 "/>
   <path class="fil2" d="M26895405 2315403l1661372 0c155682,0 282774,127092 282774,282774l0 1367955c0,155682 -127092,282774 -282774,282774l-1661372 0c-155682,0 -282773,-127092 -282773,-282774l0 -1367955c0,-155682 127091,-282774 282773,-282774z"/>
   <path class="fil3" d="M26938395 2283056l1575184 0c99962,0 190741,35477 256478,92658 65737,56972 106640,135857 106640,222671l0 1367538c0,86606 -40903,165282 -106640,222463 -65737,57181 -156516,92658 -256478,92658l-1575184 0c-99545,0 -190324,-35477 -256270,-92450 -65737,-57389 -106640,-136065 -106640,-222671l0 -1367538c0,-86814 40903,-165699 106640,-222671 65737,-57181 156517,-92658 256270,-92658zm1575184 64485l-1575184 0c-79302,0 -151508,28382 -203889,73667 -52172,45495 -84728,108101 -84728,177177l0 1367538c0,68868 32347,131683 84728,177177 52381,45286 124587,73459 203889,73459l1575184 0c79301,0 151717,-28173 203889,-73667 52381,-45286 84936,-108101 84936,-176969l0 -1367538c0,-69076 -32555,-131682 -84936,-177177 -52172,-45285 -124588,-73667 -203889,-73667z"/>
   <path class="fil2" d="M30783696 2315403l-1661372 0c-155682,0 -282773,127092 -282773,282774l0 1367955c0,155682 127091,282774 282773,282774l1661372 0c155682,0 282774,-127092 282774,-282774l0 -1367955c0,-155682 -127092,-282774 -282774,-282774z"/>
   <path class="fil3" d="M30740498 2347541l-1575184 0c-79302,0 -151508,28382 -203889,73667 -52172,45495 -84728,108101 -84728,177177l0 1367538c0,68868 32347,131683 84728,177177 52381,45286 124587,73459 203889,73459l1575184 0c79301,0 151717,-28173 203889,-73667 52381,-45286 84936,-108101 84936,-176969l0 -1367538c0,-69076 -32555,-131682 -84936,-177177 -52172,-45285 -124588,-73667 -203889,-73667zm-1575184 -64485l1575184 0c99962,0 190741,35477 256478,92658 65737,56972 106432,135857 106432,222671l0 1367538c0,86606 -40695,165282 -106432,222463 -65737,57181 -156516,92658 -256478,92658l-1575184 0c-99545,0 -190324,-35477 -256270,-92450 -65737,-57389 -106640,-136065 -106640,-222671l0 -1367538c0,-86814 40903,-165699 106640,-222671 65737,-57181 156517,-92658 256270,-92658z"/>
   <path class="fil2" d="M31349243 2315403l1661372 0c155682,0 282774,127092 282774,282774l0 1367955c0,155682 -127092,282774 -282774,282774l-1661372 0c-155890,0 -282773,-127092 -282773,-282774l0 -1367955c0,-155682 126883,-282774 282773,-282774z"/>
   <path class="fil3" d="M31392233 2283056l1575184 0c99962,0 190741,35477 256478,92658 65737,56972 106432,135857 106432,222671l0 1367538c0,86606 -40695,165282 -106432,222463 -65737,57181 -156516,92658 -256478,92658l-1575184 0c-99753,0 -190533,-35477 -256270,-92450 -65737,-57389 -106640,-136065 -106640,-222671l0 -1367538c0,-86814 40903,-165699 106640,-222671 65737,-57181 156517,-92658 256270,-92658zm1575184 64485l-1575184 0c-79302,0 -151508,28382 -203889,73667 -52381,45495 -84936,108101 -84936,177177l0 1367538c0,68868 32555,131683 84936,177177 52381,45286 124587,73459 203889,73459l1575184 0c79301,0 151717,-28173 203889,-73667 52381,-45286 84936,-108101 84936,-176969l0 -1367538c0,-69076 -32555,-131682 -84936,-177177 -52172,-45285 -124588,-73667 -203889,-73667z"/>
   <path class="fil2" d="M26612632 2315403l2150747 0c41947,0 76172,-29842 76172,-66154l0 -319712c0,-36520 -34225,-66154 -76172,-66154l-2557065 0c-41946,0 -76171,29634 -76171,66154l0 319712c0,24625 15652,46120 38607,57389l0 1885922c0,30885 29217,56346 64903,56346l314076 0c35686,0 64903,-25461 64903,-56346l0 -1877157z"/>
   <path class="fil3" d="M26612632 2283056l2150747 0c10643,0 20452,-3756 27547,-9808 7096,-6052 11478,-14608 11478,-23999l0 -319712c0,-9391 -4382,-17947 -11478,-23999 -7095,-6052 -16904,-10017 -27547,-10017l-2557065 0c-10643,0 -20451,3756 -27546,9808 -7096,6261 -11478,14817 -11478,24208l0 319712c0,6260 1878,11895 5217,16904 3548,5217 8556,9599 14608,12521l18782 9391 0 1904495c0,6469 3130,12521 8139,16903 5008,4383 12104,7096 19617,7096l314076 0c7513,0 14609,-2713 19617,-7096 5009,-4382 8139,-10434 8139,-16903l0 -1909504 37147 0zm2150747 64485l-2113601 0 0 1845019c0,24207 -11478,46537 -30051,62398 -18364,16069 -44033,26086 -71998,26086l-314076 0c-27965,0 -53633,-10017 -71998,-26086 -18365,-15861 -30051,-38191 -30051,-62398l0 -1869644c-9182,-6887 -16904,-15234 -22956,-24417 -10017,-14399 -15652,-31303 -15652,-49250l0 -319712c0,-27129 12939,-51754 33391,-69493 20660,-17947 48833,-29008 79927,-29008l2557065 0c31095,0 59477,11061 79928,29008 20452,17739 33390,42364 33390,69493l0 319712c0,26921 -12938,51546 -33390,69493 -20451,17739 -48833,28799 -79928,28799z"/>
   <path class="fil2" d="M31000524 2315403l-2095028 0c-36311,0 -65945,-29634 -65945,-65946l0 -320128c0,-36312 29634,-65946 65945,-65946l2095028 0c36312,0 65946,29634 65946,65946l0 320128c0,36312 -29634,65946 -65946,65946z"/>
   <path class="fil3" d="M30990298 2347541l-2074576 0c-31303,0 -59685,-11060 -80136,-28799 -20452,-17738 -33182,-42364 -33182,-69493l0 -319712c0,-27129 12730,-51754 33390,-69493 20243,-17947 48625,-29008 79928,-29008l2074576 0c31095,0 59268,11061 79928,29008 20452,17739 33182,42364 33182,69493l0 319712c0,26921 -12730,51546 -33182,69284 -20660,17948 -48833,29008 -79928,29008zm-2074576 -64485l2074576 0c10643,0 20452,-3756 27547,-9808 7096,-6261 11478,-14608 11478,-23999l0 -319712c0,-9391 -4382,-17947 -11269,-23999 -7304,-6261 -17113,-10017 -27756,-10017l-2074576 0c-10852,0 -20451,3965 -27547,10017 -7095,6052 -11478,14608 -11478,23999l0 319712c0,9182 4383,17738 11478,23999 7096,6052 16695,9808 27547,9808z"/>
   <path class="fil2" d="M26391630 2404931c250636,-216828 550104,-310947 874407,-343711 18573,324094 288616,360823 289242,554278 -307190,29425 -603945,115613 -874406,343710 -257313,-121457 -327850,-316372 -289243,-554277z"/>
   <path class="fil3" d="M26365544 2382184c128970,-111440 270252,-191577 421134,-247714 150048,-56137 309695,-88484 475185,-105388l39233 -3965 1879 34434c9808,169664 93910,256687 166742,331815 65111,67615 122292,126674 122500,223923l0 29008 -32973 3130c-150256,14400 -298007,42573 -440542,94954 -142326,52172 -280269,128761 -411952,239992l-19616 16486 -24000 -11478c-136482,-64485 -223923,-149004 -272130,-249174 -47581,-99336 -56137,-213280 -35894,-337659l1669 -10643 8765 -7721zm450351 -188447c-139196,51755 -270044,125005 -389205,226428 -16278,109144 -8139,208063 32764,293416 39025,80972 108518,150674 215784,205976 132518,-108100 271505,-183646 414665,-236235 138778,-50921 281313,-80137 425725,-96206 -10851,-59268 -54050,-104136 -102674,-154430 -75337,-77423 -161526,-166742 -180934,-335363 -144830,16904 -284443,47164 -416125,96414z"/>
   <path class="fil2" d="M33011033 4718873l0 1578314c0,155682 -127092,282773 -282774,282773l-1367955 0c-155682,0 -282774,-127091 -282774,-282773l0 -1578314c0,-155682 127092,-282774 282774,-282774l1367955 0c155682,0 282774,127092 282774,282774z"/>
   <path class="fil3" d="M33043379 4749759l0 1516542c0,95997 -35477,183437 -92657,246670 -56972,63442 -135857,102675 -222671,102675l-1367539 0c-86606,0 -165281,-39233 -222462,-102675 -57181,-63233 -92658,-150673 -92658,-246670l0 -1516542c0,-95997 35477,-183438 92449,-246670 57390,-63442 136065,-102884 222671,-102884l1367539 0c86814,0 165699,39442 222671,102675 57180,63233 92657,150673 92657,246879zm-64484 1516542l0 -1516542c0,-76380 -28382,-145874 -73668,-196376 -45494,-50294 -108100,-81598 -177176,-81598l-1367539 0c-68867,0 -131682,31304 -177177,81598 -45285,50502 -73458,119996 -73458,196376l0 1516542c0,76380 28173,145873 73667,196167 45286,50503 108101,81807 176968,81807l1367539 0c69076,0 131682,-31304 177176,-81807 45286,-50294 73668,-119787 73668,-196167z"/>
   <path class="fil2" d="M33011033 4509349l0 2070611 -1878618 0c-30259,0 -54885,27339 -54885,60729l0 293208c0,33390 24626,60728 54885,60728l1891139 0c11895,18573 31512,30677 53633,30677l319711 0c36521,0 66155,-32972 66155,-73458l0 -2442495c0,-40277 -29634,-73250 -66155,-73250l-319711 0c-36312,0 -66154,32973 -66154,73250z"/>
   <path class="fil3" d="M33043379 4509349l0 2106297 -1910964 0c-6260,0 -11895,2922 -15860,7513 -4174,4382 -6678,10643 -6678,17530l0 293208c0,6886 2504,13147 6678,17530 3965,4591 9600,7512 15860,7512l1907417 0 9808 14817c3130,4800 7304,8974 12104,11687 4383,2713 9808,4174 15443,4174l319711 0c9391,0 17948,-4383 24000,-11061 6260,-6887 10017,-16278 10017,-26712l0 -2442495c0,-10434 -3757,-19825 -9809,-26503 -6260,-6887 -14817,-11061 -24208,-11061l-319711 0c-9391,0 -17738,4174 -23999,10852 -6052,6887 -9809,16278 -9809,26712zm-64484 2034926l0 -2034926c0,-29842 11060,-57180 28799,-77006 17947,-19825 42572,-32138 69493,-32138l319711 0c27130,0 51755,12313 69494,32138 17947,19826 29008,47164 29008,77006l0 2442495c0,30051 -11061,57181 -29008,77006 -17947,19826 -42364,32138 -69494,32138l-319711 0c-15860,0 -31095,-4382 -44659,-12104 -8765,-4800 -16487,-11060 -23374,-18573l-1876739 0c-23999,0 -45702,-10852 -61563,-28382 -15651,-17321 -25460,-41529 -25460,-68032l0 -293208c0,-26504 9809,-50712 25460,-68241 15861,-17322 37564,-28173 61563,-28173l1846480 0z"/>
   <path class="fil2" d="M32946548 6839778c217036,-241036 311155,-529652 343919,-841642 -324302,-17948 -360823,-277974 -554278,-278600 -29425,295921 -115822,581616 -343919,841851 121457,247714 316373,315746 554278,278391z"/>
   <path class="fil3" d="M32931522 6806179c101214,-114779 174464,-240827 226428,-374805 49250,-126674 79301,-261070 96414,-400683 -168829,-18573 -257940,-101631 -335572,-173838 -50085,-46955 -95162,-88692 -154221,-99127 -16069,139196 -45285,276304 -96205,409865 -52590,137943 -128344,271713 -236236,399222 55094,103301 124796,170290 205976,207645 85145,39443 184272,47373 293416,31721zm285695 -346423c-56346,145038 -136274,281103 -247922,405273l-7513 8348 -10852 1669c-124378,19617 -238322,11270 -337450,-34642 -100379,-46329 -184898,-130431 -249383,-261905l-11269 -23164 16486 -18782c111023,-126674 187612,-259609 239784,-396509 52381,-137317 80763,-279434 95162,-424264l3130 -31930 28799 209c97249,209 156517,55303 223924,118118 75128,69911 162151,150882 331815,160273l34434 1878 -3966 37773c-16695,159438 -49250,313033 -105179,457655z"/>
   <path class="fil2" d="M33011033 4153326l0 -1578314c0,-155682 -127092,-282773 -282774,-282773l-1367955 0c-155682,0 -282774,127091 -282774,282773l0 1578314c0,155682 127092,282773 282774,282773l1367955 0c155682,0 282774,-127091 282774,-282773z"/>
   <path class="fil3" d="M32978895 4122231l0 -1516333c0,-76380 -28382,-146082 -73668,-196376 -45494,-50294 -108100,-81598 -177176,-81598l-1367539 0c-68867,0 -131682,31095 -177177,81598 -45285,50294 -73458,119787 -73458,196376l0 1516333c0,76381 28173,146083 73667,196377 45286,50502 108101,81597 176968,81597l1367539 0c69076,0 131682,-31303 177176,-81597 45286,-50294 73668,-119996 73668,-196377zm64484 -1516333l0 1516333c0,96206 -35477,183647 -92657,246879 -56972,63233 -135857,102675 -222671,102675l-1367539 0c-86606,0 -165281,-39442 -222462,-102675 -57181,-63232 -92658,-150673 -92658,-246879l0 -1516333c0,-95997 35477,-183438 92449,-246670 57390,-63442 136065,-102884 222671,-102884l1367539 0c86814,0 165699,39442 222671,102675 57180,63233 92657,150673 92657,246879z"/>
   <path class="fil2" d="M33011033 4362641l0 -2070611 -1878618 0c-30259,0 -54885,-27130 -54885,-60520l0 -293416c0,-33391 24626,-60520 54885,-60520l1891139 0c11895,-18573 31512,-30677 53633,-30677l319711 0c36521,0 66155,32972 66155,73249l0 2442495c0,40486 -29634,73458 -66155,73458l-319711 0c-36312,0 -66154,-32972 -66154,-73458z"/>
   <path class="fil3" d="M32978895 4362641l0 -2034717 -1846480 0c-23999,0 -45702,-10851 -61563,-28381 -15651,-17530 -25460,-41529 -25460,-68033l0 -293416c0,-26504 9809,-50712 25460,-68033 15861,-17530 37564,-28382 61563,-28382l1876739 0c6887,-7304 14609,-13564 23165,-18573 13773,-7513 29008,-12104 44868,-12104l319711 0c27130,0 51755,12313 69494,32138 17947,19617 29008,46955 29008,77006l0 2442495c0,30051 -11061,57181 -29008,77006 -17739,19826 -42364,32138 -69494,32138l-319711 0c-26921,0 -51546,-12312 -69285,-31929 -17947,-20034 -29007,-47164 -29007,-77215zm64484 -2070611l0 2070611c0,10434 3757,19825 9809,26712 6261,6678 14608,10852 23999,10852l319711 0c9391,0 17948,-4174 24000,-10852 6260,-6887 10017,-16278 10017,-26712l0 -2442495c0,-10225 -3965,-19825 -10017,-26503 -6052,-6887 -14609,-11061 -24000,-11061l-319711 0c-5635,0 -11060,1461 -15443,3965 -4800,2713 -8974,6887 -12104,11687l-9808 15026 -1907417 0c-6260,0 -11895,2713 -15860,7304 -4174,4591 -6678,10852 -6678,17530l0 293416c0,6678 2504,12939 6678,17530 3965,4382 9600,7304 15860,7304l1910964 0 0 35686z"/>
   <path class="fil2" d="M32946548 2032212c217036,241245 311155,529653 343919,841851 -324302,17947 -360823,277765 -554278,278391 -29425,-295712 -115822,-581407 -343919,-841851 121457,-247713 316373,-315746 554278,-278391z"/>
   <path class="fil3" d="M32969295 2007170c111648,123961 191576,260235 247922,405273 55929,144622 88484,298217 105179,457655l3966 37564 -34434 1878c-169664,9391 -256687,90571 -331815,160482 -67407,62815 -126675,117701 -223924,117909l-28799 209 -3130 -31721c-14399,-144830 -42781,-287156 -95162,-424264 -52172,-136900 -128761,-269835 -239784,-396718l-16486 -18782 11269 -22956c64485,-131474 149004,-215784 249383,-262113 99128,-45911 213072,-54050 337450,-34642l10852 1669 7513 8557zm188655 433446c-51964,-133978 -125214,-259817 -226428,-374596 -109144,-15860 -208271,-7930 -293416,31512 -81180,37564 -150882,104344 -205976,207645 107892,127718 183646,261488 236236,399222 50920,133770 80136,270670 96205,409865 59059,-10434 104136,-51963 154221,-98918 77632,-72415 166743,-155265 335572,-174047 -17113,-139404 -47372,-273800 -96414,-400683z"/>
   <polygon class="fil2" points="29645716,7475862 26845737,7475862 26845737,5550915 29645716,5550915 "/>
   <path class="fil3" d="M29645716 7510921l-2835039 0 0 -1995065 2870099 0 0 1995065 -35060 0zm-2764919 -70119l2729859 0 0 -1854827 -2729859 0 0 1854827z"/>
   <path class="fil2" d="M26002008 4109919c0,135856 -256270,135856 -256270,0l-1854827 0c-24416,172794 -271504,149004 -258983,-50086l0 -1460822c0,-411534 353311,-747941 784879,-747941l871068 0c392961,0 714759,306356 714759,680952l-626 1577897z"/>
   <path class="fil3" d="M26041450 4109919c0,67824 -44868,110814 -102466,129387 -20869,6887 -43199,10226 -65111,10226 -21912,0 -44242,-3548 -64902,-10226 -46120,-14817 -84310,-45286 -97667,-91615l-1788672 0c-17321,55094 -55720,90571 -100797,106223 -23373,8348 -48833,11061 -73667,8348 -24625,-2505 -49042,-10644 -70954,-24000 -51546,-31303 -89528,-91614 -84728,-178429l0 -1460822c0,-215993 92867,-412369 242079,-554695 149422,-142534 355606,-231018 582242,-231018l871068 0c207436,0 396091,80971 532574,211193 136691,130430 221627,310111 221627,507531l-626 1577897zm-127717 58224c27338,-8765 48624,-28173 48624,-58224l835 -1577897c-209,-176968 -76172,-337867 -198255,-454316 -122709,-116657 -291329,-189072 -477062,-189072l-871068 0c-204932,0 -391291,79928 -526313,208689 -135022,128761 -218915,306355 -218915,501688l-208 1463118c-3548,56972 18156,94745 47998,112901 11478,6886 24417,11269 37355,12730 12939,1252 25878,-209 37982,-4383 27755,-9808 51129,-35686 57181,-78258l4591 -32764 1928702 0 0 37564c0,29842 21495,49459 48834,58224 12312,3965 25877,6052 39859,6052 13774,0 27547,-2087 39860,-6052z"/>
   <path class="fil2" d="M25743651 4109919l-1852740 0 0 -1031967c0,-321589 275887,-584537 613337,-584537l680952 0c307190,0 558451,239366 558451,532156l0 1084348z"/>
   <path class="fil3" d="M25743651 4147691l-1892391 0 0 -1069739c0,-171125 73668,-326807 191786,-439499 118326,-112692 281521,-182811 461202,-182811l680952 0c164447,0 314077,64276 422386,167368 108310,103301 175716,245836 175716,402561l0 1122120 -39651 0zm-1813297 -75336l1773855 0 0 -1046784c0,-135856 -58433,-259609 -152552,-349345 -93910,-89527 -223923,-145247 -366457,-145247l-680952 0c-157769,0 -301347,61563 -405274,160690 -103927,99127 -168620,235819 -168620,386283l0 994403z"/>
   <path class="fil2" d="M25787267 2673931c-266704,-253349 -585581,-363328 -930752,-401727 -19826,378771 -307190,421552 -307816,647562 327015,34434 642761,135230 930752,401726 273800,-141908 349137,-369588 307816,-647561z"/>
   <path class="fil3" d="M25750121 2691669c-127092,-118535 -266287,-204098 -414457,-264826 -140030,-57389 -288616,-92658 -443046,-112483 -20660,197211 -112275,301346 -192202,391917 -51964,58642 -98084,111232 -109562,180308 153804,18782 305520,52798 453272,112483 152343,61354 300303,149838 441377,275887 114153,-64485 188029,-145874 229558,-240619 43616,-99544 52381,-215158 35060,-342667zm-383153 -333902c160273,65737 310946,159230 448055,289451l9391 8974 1878 12521c21495,145457 12313,278391 -38399,394422 -51129,117075 -144204,215993 -289660,291330l-25460 13147 -20869 -19199c-140030,-129804 -286947,-219332 -438455,-280269 -151717,-61146 -308860,-94327 -469133,-111023l-35059 -3756 0 -33599c417,-113735 61145,-182811 130639,-261696 77215,-87858 166951,-189489 177177,-387744l2086 -40277 41738 4800c176342,19408 346215,57598 506071,122918z"/>
   <path class="fil2" d="M31216934 7174724c-135856,0 -135856,256270 0,256270l0 1854826c-172794,24417 -149003,271713 50086,258983l1461031 0c411325,0 747941,-353310 747941,-784879l0 -871067c0,-392961 -306564,-714759 -681161,-714759l-1577897 626z"/>
   <path class="fil3" d="M31216934 7135281c-67823,0 -110813,45077 -129387,102675 -6678,20661 -10017,42990 -10017,64903 0,21912 3339,44242 10017,64902 14817,46329 45494,84310 91823,97666l0 1788673c-55302,17321 -90571,55720 -106431,100796 -8139,23582 -11060,48834 -8347,73667 2712,24626 10643,49042 23999,70955 31303,51546 91614,89527 178429,84727l1461031 0c215993,0 412369,-92866 554695,-242079 142325,-149421 230810,-355606 230810,-582242l0 -871067c0,-207437 -80972,-396092 -211194,-532574 -130222,-136691 -309903,-221628 -507531,-221628l-1577897 626zm-58224 127718c8765,-27338 28382,-48625 58224,-48625l1577897 -834c176968,208 337867,76171 454316,198254 116657,122709 189072,291539 189072,477063l0 871067c0,204933 -79928,391292 -208689,526314 -128552,135230 -306147,218914 -501479,218914l-1463118 209c-57181,3548 -94745,-18156 -113110,-47998 -6886,-11478 -11269,-24417 -12521,-37356 -1461,-12730 0,-25877 4174,-37981 9808,-27756 35686,-51129 78258,-57181l32973 -4591 0 -1928703 -37773 0c-29842,0 -49459,-21495 -58224,-48833 -3965,-12312 -5843,-25877 -5843,-39859 0,-13774 1878,-27547 5843,-39860z"/>
   <path class="fil2" d="M31216934 7433080l0 1852740 1031967 0c321589,0 584746,-275886 584746,-613336l0 -680952c0,-307190 -239575,-558452 -532365,-558452l-1084348 0z"/>
   <path class="fil3" d="M31179370 7433080l0 1892391 1069531 0c171333,0 326807,-73458 439499,-191785 112692,-118326 182811,-281521 182811,-461202l0 -680952c0,-164447 -64067,-314077 -167368,-422386 -103301,-108310 -245836,-175716 -402561,-175716l-1121912 0 0 39650zm75337 1813298l0 -1773855 1046575 0c135856,0 259609,58433 349345,152551 89528,93910 145247,223923 145247,366458l0 680952c0,157768 -61563,301346 -160690,405273 -99127,103928 -235818,168621 -386283,168621l-994194 0z"/>
   <path class="fil2" d="M32653131 7389464c253349,266705 363328,585581 401726,930753 -378979,19825 -421760,307190 -647561,307816 -34643,-327016 -135231,-642762 -401726,-930752 141908,-273800 369588,-349137 647561,-307817z"/>
   <path class="fil3" d="M32635393 7426611c118326,127092 203889,266287 264617,414456 57390,140030 92658,288617 112484,443047 -197211,20660 -301347,112483 -391918,192202 -58642,51964 -111023,98084 -180307,109562 -18782,-153804 -52799,-305521 -112275,-453272 -61563,-152343 -149839,-300304 -276095,-441377 64484,-114153 145873,-188029 240827,-229558 99544,-43616 215158,-52381 342667,-35060zm333693 383153c-65737,-160273 -159021,-310947 -289451,-448055l-8974 -9391 -12521 -1878c-145456,-21495 -278391,-12313 -394422,38398 -117075,51129 -215784,144204 -291121,289661l-13356 25460 19408 20868c129804,140031 219123,287156 280269,438456 61146,151717 94119,308859 111022,469132l3548 35060 33808 0c113527,-417 182811,-61146 261487,-130639 87858,-77215 189698,-166951 387744,-177177l40277 -2087 -4591 -41738c-19617,-176342 -57598,-346214 -123127,-506070z"/>
   <polygon class="fil2" points="33501869,14848422 26159151,14848422 26159151,12816210 33501869,12816210 "/>
   <path class="fil3" d="M33468061 14882230l-7376734 0 0 -2099828 7410542 0 0 2099828 -33808 0zm-7308910 -67615l7275103 0 0 -1964597 -7275103 0 0 1964597z"/>
   <path class="fil3" d="M30234010 13528465c12939,-9182 27338,-15443 41946,-18573 15235,-3339 31095,-3757 45912,-1044 15234,2713 29842,8348 42990,16696 12521,7930 23999,18782 33181,31929 9183,13147 15235,27547 18574,42155 3339,15443 3547,31095 1043,45912 -2713,15025 -8348,29842 -16904,42990 -7930,12521 -18782,23999 -31929,33181 -47999,33599 -95997,63650 -143787,89736 -47790,26295 -95788,48833 -143578,67615 -46120,18156 -93075,32973 -140239,44451 -41320,9809 -82640,17113 -123752,21495l0 107684 -6052 0 -4383 9182c-4173,7513 -9391,14191 -15234,19825 -7721,7513 -17112,13565 -27338,17530 -9809,3757 -20660,5844 -31721,5635l-7721 835c-2505,626 -5426,1669 -8139,3130 -2922,1461 -6052,3548 -8765,5843l-7722 7513 -5843 8139 -3965 7721 -2296 7722 -834 6052 626 4591 1669 5217 3757 5635 6052 6052 7512 5843 7304 4383 6261 3130c20452,6678 26504,-1044 38608,-17947l5843 -10643 5217 -12731 4383 -14816c2713,-10644 7512,-20661 13982,-29217 6678,-8973 15025,-16278 24208,-21912 9182,-5426 19616,-9183 30677,-10852 10434,-1461 21495,-1043 32347,1878 10852,2713 20660,7513 29216,13774 8974,6678 16487,15025 21912,24416 5426,9183 9183,19617 10852,30469 1461,10434 1044,21495 -1669,32347 -2713,10851 -6052,21495 -9600,31303 -3756,10226 -8139,20243 -12730,29425 -4591,9391 -9808,18573 -15443,27130 -5635,8765 -11686,17112 -18156,24834 -6052,7095 -12521,13773 -18991,19825 -6678,6261 -13564,12104 -20660,17113 -7095,5008 -14608,9599 -22538,13773 -7930,4174 -15860,7721 -23791,10643 -8556,2922 -17530,5426 -26503,7096 -8765,1878 -17947,2921 -27338,3339 -8974,417 -18156,0 -27339,-1044 -9182,-835 -18364,-2504 -27338,-4800 -8139,-2087 -16486,-4800 -24416,-7930 -7722,-2922 -15861,-6678 -23791,-11060 -7722,-4174 -15443,-8765 -22747,-13983 -7513,-5008 -15026,-10643 -22121,-16695 -12313,-10434 -22539,-21077 -31303,-32138 -8974,-11686 -16487,-23790 -22539,-36520 -6261,-13356 -10643,-26921 -13565,-40695 -2921,-14190 -4173,-28799 -3965,-42990l1252 -18155 2922 -18365 4383 -17739 6260 -17530 7096 -15860 8556 -15443 10017 -15025 10852 -13983c6469,-7721 13565,-15234 21286,-22121 7513,-6678 15652,-13147 24208,-18990 7095,-4800 14191,-9183 21495,-12939l11060 -5426 0 -9182c-42363,-3339 -84727,-9600 -127300,-19200 -47581,-10434 -95162,-25042 -142326,-43407 -49459,-19199 -99127,-42990 -148169,-70954 -49042,-27756 -97875,-60103 -146291,-96623 -12730,-9600 -23164,-21495 -30677,-34434 -7930,-13565 -13147,-28381 -15234,-43616 -2087,-15234 -1252,-30886 2713,-46120 3756,-14608 10434,-28799 20034,-41320 9600,-12730 21495,-23165 34434,-30886 13564,-7722 28590,-12939 43616,-15026 15234,-2087 30885,-1252 46120,2713 14608,3756 28799,10434 41529,20034 42155,31721 84310,59476 126465,83267 42155,23582 84311,42990 126048,58433 41321,15026 82432,26295 123336,33599 41529,7304 82849,10643 123752,10226 40694,-209 81806,-4592 123335,-12522 41738,-8139 83684,-20034 126048,-35477 42364,-15652 84728,-35060 127300,-57807 42782,-23164 85563,-49668 128553,-79719zm77423 41112c-7304,-1252 -15025,-1252 -22329,417 -6887,1461 -13774,4383 -20034,8765 -45495,31721 -90780,59894 -135648,84102 -44868,24208 -89736,44451 -134187,60937 -45077,16695 -90362,29425 -135857,38190 -44659,8556 -89527,13147 -134187,13565 -44868,417 -89945,-3339 -134604,-11269 -44659,-7931 -89319,-20035 -134187,-36312 -44659,-16487 -89736,-37356 -134604,-62398 -44451,-24834 -89110,-54259 -133770,-88067 -6052,-4591 -12938,-7721 -19825,-9600 -7304,-1878 -14817,-2295 -22121,-1252 -7304,1044 -14608,3548 -20869,7304 -6261,3548 -11895,8557 -16487,14609 -4591,6260 -7930,12938 -9808,19825 -1669,7304 -2087,15026 -1043,22330 834,7095 3339,14399 7095,20869 3756,6052 8765,11686 14817,16277 46329,35060 92867,65946 139404,92241 46746,26712 93493,49250 140239,67406 46120,17948 92658,31930 139196,41947 46746,10017 93492,16069 140238,18156l29634 1252 0 111022 -21286 6887c-6887,2296 -13565,4800 -19617,7930 -6469,3131 -12730,6887 -18782,11061 -5843,3756 -11686,8556 -17530,13565 -5426,5008 -10851,10643 -15651,16277l-7930 10226 -7096 10643 -6261 11478 -5008 11061 -4591 12521 -3131 12313 -1878 12730 -835 12521c-208,9808 627,19617 2713,29216 1879,9183 4800,18365 8974,27130 3965,8556 9182,17112 15443,25043 6469,8138 13982,15860 22121,22747l17113 13147c5843,3965 11686,7513 17321,10643 5426,2713 11060,5426 17112,7722 5635,2295 11478,4173 16904,5634 6469,1461 12730,2713 18991,3339 6260,626 12521,835 18364,626 5844,-208 11896,-834 17948,-2087 5843,-1252 11895,-2921 17738,-5008 5426,-1878 10852,-4174 16069,-6887 5009,-2713 10226,-5843 15234,-9391 5009,-3756 10226,-7930 14817,-12312 4592,-4174 9183,-9183 13356,-14191 4800,-5635 9391,-11687 13774,-18365 4174,-6678 8347,-13773 11895,-21077 3757,-7513 7096,-15443 10017,-23374 2922,-8139 5426,-16486 7722,-25042 626,-2922 835,-5844 417,-8557 -417,-2921 -1461,-5634 -2713,-8138 -1461,-2296 -3548,-4592 -5843,-6261 -2087,-1670 -4591,-2922 -7513,-3548 -2922,-835 -5843,-1043 -8556,-626 -2922,418 -5635,1461 -7930,2922 -2505,1461 -4591,3339 -6261,5634 -1670,2296 -3130,4800 -3756,7513l-6052 20452c-2296,6260 -4800,12521 -7722,18364 -2713,6052 -5843,11687 -9182,17113 -3339,5217 -7096,10434 -11061,15025l-8973 9600 -9809 8139 -10852 6887 -11686 5217 -11687 3339 -12104 1252 -12104 -626 -11686 -2087 -13356 -4382 -13356 -6261 -12313 -7722 -12313 -9391c-5634,-4799 -10434,-9808 -14399,-14608 -4383,-5426 -7930,-11060 -10852,-16904 -3130,-6260 -5426,-12521 -6887,-18782 -1461,-6886 -2087,-13564 -1878,-20034l417 -8765 1461 -8973 2296 -8348 3130 -8765 3757 -8347c4173,-7722 9599,-17113 15443,-23582 5217,-6052 10851,-11895 16903,-16695 6052,-4800 12730,-9183 19617,-12730 7096,-3548 14608,-6261 21912,-8139 7513,-1461 15026,-2504 22539,-2296 2922,0 5843,-626 8556,-1669 2713,-1044 5217,-2504 7096,-4383 1878,-1878 3756,-4382 4799,-6886 1044,-2505 1670,-5426 1670,-8139 835,-26921 626,-54051 417,-80972l-208 -53215 28590 -2087c45703,-3548 91406,-10643 136900,-21286 45911,-10643 91823,-25043 137735,-43199 45702,-17947 91405,-39442 136899,-64276 46121,-25460 92241,-54051 137735,-85980 6261,-4591 11478,-9808 15234,-15860 3965,-6470 6678,-13356 7931,-20452 1252,-7304 1043,-15025 -418,-22330 -1461,-7095 -4591,-13982 -8765,-20034 -4382,-6260 -9808,-11478 -15860,-15234 -6261,-3965 -13356,-6678 -20452,-7930z"/>
   <polygon class="fil2" points="26233861,17401313 26233861,16134989 25398689,16275019 25398689,17261283 "/>
   <path class="fil3" d="M26268921 17401313l0 -1307644 -905292 151717 0 1045531 905292 151717 0 -41321zm-70119 -1225003l0 1183683 -765262 -128344 0 -927204 765262 -128135z"/>
   <polygon class="fil2" points="25246554,17401313 25246554,16134989 25398689,16275019 25398689,17261283 "/>
   <path class="fil3" d="M25281614 17321594l0 -1106886 82015 75546 0 955795 -82015 75545zm-70119 -1186605l0 1346043 222045 -204515 0 -1016732 -222045 -204515 0 79719z"/>
   <polygon class="fil2" points="30438734,17489171 30178916,16249559 31025149,16215334 31227369,17180729 "/>
   <path class="fil3" d="M30404509 17496267l-268374 -1279889 917187 -37147 214324 1023202 -854790 334319 -8347 -40485zm-182812 -1213317l242705 1158640 722690 -282564 -190116 -907588 -775279 31512z"/>
   <polygon class="fil2" points="31404963,17286534 31145354,16047131 31025149,16215334 31227369,17180729 "/>
   <path class="fil3" d="M31354460 17215789l-227053 -1083513 -64902 90780 195958 935552 95997 57181zm-174881 -1175753l276095 1317453 -259400 -154639 -208480 -995237 175299 -245627 16486 78050z"/>
   <polygon class="fil2" points="26866606,17904671 28036725,18389246 27587626,19107345 26676491,18730035 "/>
   <path class="fil3" d="M26879962 17872324l1208100 500436 -486454 778201 -965812 -400057 206185 -894232 37981 15652zm1105216 533618l-1093738 -453064 -174464 756080 856877 354771 411325 -657787z"/>
   <polygon class="fil2" points="26488879,18816850 27658789,19301426 27587626,19107345 26676491,18730035 "/>
   <path class="fil3" d="M26575902 18814972l1022785 423638 -38608 -104762 -882962 -365623 -101215 46747zm1069531 518800l-1243577 -515044 273800 -126883 939517 388996 103927 283400 -73667 -30469z"/>
   <path class="fil2" d="M26328189 18073083l3833614 0c197003,0 358111,-161108 358111,-358110l0 -1908669c0,-197002 -161108,-358110 -358111,-358110l-3833614 0c-197003,0 -358110,161108 -358110,358110l0 1908669c0,197002 161107,358110 358110,358110z"/>
   <path class="fil3" d="M26328189 18107934l3833614 0c108101,0 206602,-44242 277765,-115405 71163,-71163 115405,-169455 115405,-277765l0 -1908460c0,-108101 -44242,-206602 -115405,-277765 -71163,-71163 -169664,-115405 -277765,-115405l-3833614 0c-108101,0 -206394,44242 -277556,115405 -71372,71163 -115614,169664 -115614,277765l0 1908460c0,108310 44242,206602 115614,277765 71162,71163 169455,115405 277556,115405zm3833614 -69911l-3833614 0c-88693,0 -169664,-36520 -228097,-94953 -58642,-58642 -94954,-139404 -94954,-228306l0 -1908460c0,-88901 36312,-169664 94954,-228305 58433,-58642 139404,-94954 228097,-94954l3833614 0c88902,0 169665,36312 228306,94954 58433,58641 94954,139404 94954,228305l0 1908460c0,88902 -36521,169664 -94954,228306 -58641,58433 -139404,94953 -228306,94953z"/>
   <polygon class="fil2" points="28622306,18074335 29888630,18074335 29748599,18909717 28762336,18909717 "/>
   <path class="fil3" d="M28622306 18039484l1307644 0 -151717 905084 -1045531 0 -151717 -905084 41321 0zm1225212 69911l-1183892 0 128344 765262 927204 0 128344 -765262z"/>
   <polygon class="fil2" points="28622306,19061642 29888630,19061642 29748599,18909717 28762336,18909717 "/>
   <path class="fil3" d="M28702025 19026791l1106886 0 -75546 -82223 -955795 0 -75545 82223zm1186605 69911l-1346044 0 204516 -222045 1016732 0 204515 222045 -79719 0z"/>
   <polygon class="fil4" points="9620349,19357563 7135490,19357563 7135490,24677460 9655408,24677460 9655408,19357563 "/>
   <path class="fil3" d="M9620349 19357563l-2484859 0 0 5319897 2519918 0 0 -5319897 -35059 0zm-2414948 69911l2379888 0 0 5179866 -2379888 0 0 -5179866z"/>
   <path class="fil3" d="M8395345 19533696c-298008,0 -569095,121875 -765471,318251 -196376,196376 -318250,467463 -318250,765471l0 3456096c0,117701 47998,224758 125422,302182 77632,77423 184480,125630 302181,125630l1312236 0c117700,0 224758,-48207 302181,-125630 77424,-77424 125631,-184481 125631,-302182l0 -3456096c0,-298008 -121874,-569095 -318459,-765471 -196377,-196376 -467463,-318251 -765471,-318251zm-716012 367710c183855,-183646 437204,-297799 716012,-297799 278808,0 532365,114153 716011,297799 183855,183855 297799,437203 297799,716012l0 3456096c0,98293 -40277,187820 -104970,252722 -64902,64903 -154430,105180 -252722,105180l-1312236 0c-98292,0 -187820,-40277 -252514,-105180 -64902,-64902 -105179,-154429 -105179,-252722l0 -3456096c0,-278809 114153,-532157 297799,-716012z"/>
   <path class="fil1" d="M8395345 23711230c-78676,0 -142326,63650 -142326,142326 0,78676 63650,142326 142326,142326 78676,0 142534,-63650 142534,-142326 0,-78676 -63858,-142326 -142534,-142326zm0 55511c-47999,0 -86815,38817 -86815,86815 0,47999 38816,86815 86815,86815 47998,0 86814,-38816 86814,-86815 0,-47998 -38816,-86815 -86814,-86815z"/>
   <path class="fil4" d="M15984107 24665564l1228134 0 0 -484366c0,-25878 -10643,-49460 -27755,-66363 -5635,-5635 -12104,-10644 -18991,-14817l0 -1209352 -209 -7305 0 -7304 -208 -7304 -418 -7304 -417 -7095 -418 -7304 0 0 -626 -7305 0 0 -626 -7095 -208 0 -626 -7095 0 0 -835 -7096 -209 -208 -835 -6887 0 -209 -1043 -6887 0 0 -1044 -7095 0 0 -1252 -6887 0 -208 -1461 -6887 0 0 -1252 -6887 0 -209 -1460 -6886 0 0 -1670 -6678 0 -209 -1670 -6678 0 -209 -1669 -6678 0 -209 -1670 -6678 0 0 -3965 -13356 0 -208 -2087 -6470 0 -208 -2086 -6470 0 -208 -2087 -6470 -209 -209 -4591 -12938 0 -209 -2296 -6261 -208 -208 -2505 -6261 0 -209 -2504 -6260 0 -209 -2713 -6261 0 -208 -2713 -6261 0 0c-2921,-6469 -5634,-12730 -8765,-18782l0 -209 -2921 -6052 -209 0c-6052,-12312 -12730,-24625 -19617,-36312l-209 -208c-24416,-41321 -54050,-79511 -88066,-113527 -50086,-49877 -109353,-90780 -174882,-119579l-208 0c-12522,-5634 -25669,-10852 -38816,-15443l-6470 -2295 0 0 -6469 -2087 -209 -209 -6678 -2087 0 0 -6678 -2087 0 0 -6678 -1878 0 0 -6678 -1878 -209 0 -6678 -1878 0 0 -6886 -1670 0 0 -6887 -1669 0 0 -6887 -1461 0 0 -6887 -1461 0 0 -6886 -1461 -209 0 -6887 -1252 0 0 -6886 -1252 -209 0 -6887 -1043 0 0 -7095 -1044 0 0 -7096 -1043 0 0 -7095 -835 0 0 -7096 -835 -208 0 -7096 -626 0 0 -7095 -626 -209 0 -7095 -626 -7304 -417 -7304 -209 -7305 -209 -7304 -208 -7304 0 -7304 0 -7304 208 -7304 209 -7304 209 -7304 417 -7096 626 0 0 -7304 626 0 0 -7095 626 0 0 -7096 835 -208 0 -7096 835 0 0 -7095 1043 0 0 -6887 1044 -209 0 -6886 1043 0 0 -7096 1252 0 0 -6887 1252 -208 0 -6887 1461 0 0 -6887 1461 0 0 -6886 1461 0 0 -6887 1669 0 0 -6678 1670 -209 0 -6678 1878 -209 0 -6678 1878 0 0 -6678 1878 0 0 -6678 2087 0 0 -6678 2087 0 209 -6678 2087 0 0 -6469 2295 -6678 2296 0 0 -6470 2504 0 0 -6469 2504 0 0c-10852,4383 -21495,8974 -31929,13774l0 0 -6052 2922 -209 0c-58224,28173 -111023,65945 -156099,111022 -21078,21078 -40277,43825 -57807,67824l0 0c-8139,11060 -15860,22330 -23165,34016l0 0 -3547 5844 0 208 -7096 11687 -3339 6052 0 0 -3547 6052 0 0 -3131 6052 0 0 -3130 6052 0 208 -3130 6052 0 0 -3131 6261 0 0 -2921 6261 0 0 -2922 6260 0 0 -2922 6261 0 0 -2713 6469 0 0 -2713 6261 0 209 -2504 6260 0 0 -2504 6470 0 208 -2504 6261 0 209 -2296 6469 0 0 -2296 6469 0 209 -2295 6470 0 208 -2087 6470 0 208 -2087 6470 0 208 -1878 6678 0 0 -1878 6678 0 0 -1879 6887 0 0 -1669 6678 0 209 -1670 6678 0 0 -1669 6887 0 0 -1461 7095 0 0 -1252 6887 0 0 -1461 6887 0 208 -1252 6887 0 0 -1043 7095 0 0 -1044 7096 0 0 -835 7095 -208 0 -835 7096 -626 7095 0 0 -835 7095 -626 7305 -417 7304 -418 7095 -417 7304 -209 7304 0 7304 -208 7305 0 1201630c-15861,5217 -30260,14191 -41947,25669 -18991,18991 -30677,45077 -30677,74084l0 473515 31929 0z"/>
   <path class="fil3" d="M15984107 24665564l1228134 0 0 -484366c0,-25878 -10643,-49460 -27755,-66363 -16904,-16904 -40486,-27547 -66155,-27547l-1061391 0c-28799,0 -55094,11686 -74085,30677 -18782,18991 -30677,45077 -30677,74084l0 473515 31929 0zm1164067 -63858l-1132137 0 0 -409657c0,-11269 4799,-21495 12104,-28799 7304,-7512 17529,-12104 28799,-12104l1061391 0c8139,0 15652,3548 21078,8974 5426,5426 8765,12939 8765,21078l0 420508z"/>
   <path class="fil3" d="M16056940 24151146l1108555 0 0 -1260480c0,-156726 -64276,-299260 -167577,-402561 -103510,-103510 -246044,-167577 -402770,-167577 -156725,0 -299260,64067 -402561,167368 -103509,103510 -167785,246044 -167785,402770l0 1260480 32138 0zm1044487 -63858l-1012558 0 0 -1196622c0,-139196 56972,-265870 148586,-357484 91824,-91824 218498,-148796 357693,-148796 139404,0 265870,56972 357484,148587 91823,91823 148795,218497 148795,357693l0 1196622z"/>
   <path class="fil3" d="M16164414 23995673l870442 0c32973,-228514 130639,-904249 130639,-1105007 0,-156726 -64276,-299260 -167577,-402770 -103301,-103301 -245836,-167368 -402770,-167368 -156725,0 -299468,64067 -402769,167368 -103301,103510 -167577,246044 -167577,402770 0,225801 81179,857920 111231,1105007l28381 0zm815139 -64067l-786966 0 -103718 -1042610c417,-138569 57389,-264409 148586,-355814 91824,-91824 218498,-148796 357693,-148796 139196,0 265870,57181 357484,148796 91406,91405 148378,217245 148795,355814l-121874 1042610z"/>
   <path class="fil3" d="M16590348 24478788c29634,0 56764,-12104 76172,-31512 19408,-19617 31512,-46538 31512,-76172 0,-29842 -12104,-56763 -31512,-76380 -19408,-19408 -46538,-31512 -76172,-31512 -29842,0 -56763,12104 -76171,31512 -19617,19617 -31721,46538 -31721,76380 0,29634 12104,56555 31721,76172 19408,19408 46538,31512 76171,31512z"/>
   <path class="fil4" d="M10797980 23207455l-350180 0c-202011,0 -385866,82641 -519009,215785 -133144,133143 -215993,316998 -215993,519009l0 540504c0,53424 21912,102049 57180,137317 35269,35269 83893,57181 137318,57181l1430979 0c53425,0 102049,-21912 137318,-56972 35268,-35268 57180,-83893 57180,-137526l0 -540504c0,-202011 -82640,-385657 -215784,-518801 -133143,-133352 -316998,-215993 -519009,-215993z"/>
   <path class="fil3" d="M10797980 23207455l-350180 0c-202011,0 -385866,82641 -519009,215785 -133144,133143 -215993,316998 -215993,519009l0 540504c0,53424 21912,102049 57180,137317 35269,35269 83893,57181 137318,57181l1430979 0c53425,0 102049,-21912 137318,-56972 35268,-35268 57180,-83893 57180,-137526l0 -540504c0,-202011 -82640,-385657 -215784,-518801 -133143,-133352 -316998,-215993 -519009,-215993zm-350180 69911l350180 0c182811,0 348928,74919 469550,195333 120413,120413 195333,286738 195333,469550l0 540504c0,34225 -13982,65528 -36521,88067 -22538,22538 -53842,36520 -88067,36520l-1430979 0c-34017,0 -65320,-13982 -87858,-36520 -22539,-22539 -36521,-53842 -36521,-88067l0 -540504c0,-182812 74711,-348928 195333,-469550 120413,-120622 286738,-195333 469550,-195333z"/>
   <path class="fil3" d="M10797980 23416770c144204,0 275678,59268 370840,154639 95371,95162 154638,226636 154638,370840l0 210776 -1401137 0 0 -210776c0,-144204 59268,-275678 154430,-370840 95371,-95371 226845,-154639 371049,-154639l350180 0zm420299 104971c-107892,-107892 -256687,-174882 -420299,-174882l-350180 0c-163403,0 -312407,66990 -420508,175090 -107892,107893 -175090,256688 -175090,420300l0 225593c0,15025 6469,28799 16278,38816 10017,9808 23790,16277 38816,16277l1430979 0c15026,0 28799,-6469 38608,-16277 10226,-10226 16486,-24208 16486,-38816l0 -225593c0,-163404 -66989,-312407 -175090,-420508z"/>
   <path class="fil1" d="M10563414 24281160c-40069,21495 -67407,63650 -67407,112274 0,70120 56763,126883 126883,126883 70119,0 126883,-56763 126883,-126883 0,-48624 -27338,-90779 -67615,-112274l0 -298843 -118744 0 0 298843z"/>
   <path class="fil1" d="M10622890 23553044c-78676,0 -142535,63859 -142535,142535 0,78675 63859,142325 142535,142325 78676,0 142326,-63650 142326,-142325 0,-78676 -63650,-142535 -142326,-142535zm0 55720c-47999,0 -86815,38816 -86815,86815 0,47998 38816,86814 86815,86814 47998,0 86814,-38816 86814,-86814 0,-47999 -38816,-86815 -86814,-86815z"/>
   <polygon class="fil4" points="14396611,24638018 12261724,24638018 12261724,23434926 12261724,23098102 14431671,23098102 14431671,23434926 14431671,24638018 "/>
   <path class="fil3" d="M14396611 24638018l-2134887 0 0 -1539916 2169947 0 0 1539916 -35060 0zm-2064977 -69911l2029917 0 0 -1400094 -2029917 0 0 1400094z"/>
   <path class="fil3" d="M14396611 23434926l-2134887 0 0 -336824 2169947 0 0 336824 -35060 0zm-2064977 -70119l2029917 0 0 -196794 -2029917 0 0 196794z"/>
   <path class="fil3" d="M13346697 24527621c-147543,0 -281104,-59894 -377935,-156517 -97041,-97040 -156726,-230601 -156726,-378144 0,-147543 59685,-281104 156517,-377935 97040,-96832 230601,-156726 378144,-156726 147334,0 281104,59894 377936,156517 96831,97040 156725,230601 156725,378144 0,147543 -59894,281104 -156725,377936 -96832,96831 -230602,156725 -377936,156725zm-328685 -205976c84102,84102 200133,136065 328685,136065 128344,0 244584,-51963 328476,-136065 84102,-84101 136066,-200341 136066,-328685 0,-128343 -51964,-244583 -135857,-328476 -84101,-84310 -200341,-136274 -328685,-136274 -128552,0 -244583,51964 -328685,136065 -84101,84102 -136065,200342 -136065,328685 0,128344 51964,244584 136065,328685z"/>
   <path class="fil3" d="M13346697 24335627c-94745,0 -180307,-38398 -242288,-100379 -62189,-61981 -100379,-147752 -100379,-242288 0,-94536 38190,-180307 100379,-242288 61981,-61980 147543,-100379 242288,-100379 94536,0 180307,38399 242288,100379 61981,61981 100379,147752 100379,242288 0,94536 -38398,180307 -100379,242288 -61981,61981 -147752,100379 -242288,100379zm-192828 -149838c49250,49250 117491,79928 192828,79928 75128,0 143369,-30678 192829,-79928 49250,-49251 79719,-117492 79719,-192829 0,-75336 -30469,-143578 -79719,-192828 -49460,-49251 -117701,-79928 -192829,-79928 -75337,0 -143578,30677 -192828,79928 -49460,49250 -79928,117492 -79928,192828 0,75337 30468,143578 79928,192829z"/>
   <path class="fil1" d="M14215886 23347277c-39651,0 -71997,-32347 -71997,-72207 0,-39650 32346,-71997 71997,-71997 39860,0 72207,32347 72207,71997 0,39860 -32347,72207 -72207,72207z"/>
   <path class="fil1" d="M12446205 23347277c-39860,0 -72207,-32347 -72207,-72207 0,-39650 32347,-71997 72207,-71997 39859,0 71997,32347 71997,71997 0,39860 -32138,72207 -71997,72207z"/>
   <path class="fil1" d="M12680145 23347277c-39860,0 -72206,-32347 -72206,-72207 0,-39650 32346,-71997 72206,-71997 39651,0 71998,32347 71998,71997 0,39860 -32347,72207 -71998,72207z"/>
  </g>
 </g>
</svg>
