<?xml version="1.0" encoding="utf-8"?>
<!-- Generator: Adobe Illustrator 21.1.0, SVG Export Plug-In . SVG Version: 6.00 Build 0)  -->
<svg version="1.1" id="Слой_1" xmlns="http://www.w3.org/2000/svg" xmlns:xlink="http://www.w3.org/1999/xlink" x="0px" y="0px"
	 viewBox="0 0 84 172" style="enable-background:new 0 0 84 172;" xml:space="preserve">
<style type="text/css">
	.st0{fill:#C0ECFA;}
	.st1{fill:#FFCF00;}
	.st2{fill:#2A2A2A;}
</style>
<g id="Слой_x0020_1">
	<g id="_1005424640">
		<rect x="6.347" y="0.379" class="st0" width="76.754" height="3.157"/>
		<g>
			<g>
				<polygon class="st1" points="0,168.616 0,34.603 0,26.139 0,24.723 7.73,24.723 7.73,2.755 9.343,2.755 10.61,2.755 
					80.221,2.755 83.101,2.755 83.102,2.755 83.102,3.536 83.101,3.536 83.101,4.628 83.102,4.628 83.102,5.921 83.101,5.921 
					83.101,24.723 84,24.723 84,26.139 84,34.603 84,126.101 72.464,126.101 72.464,168.656 				"/>
				<path class="st2" d="M35.072,148.047l3.298-9.305v-0.92h-0.567v-13.763H22.219v-0.068h-0.912v-1.473h0.912v-0.084h15.776h33.371
					h2.677H79.1v-21.078h-1.779v-0.395H79.1V34.6H55.755v-4.088H38.542v-1.916H22.599v1.385l15.46,2.454l-0.062,0.389l-15.398-2.445
					v0.133h-1.515V34.6H4.9v87.917h1.069l13.652-3.298l0.084,0.386l-13.725,3.314v1.071H4.9v39.984l13.813-0.011l0.02,2.887h1.115
					v1.473h-1.115v0.333L4.9,168.612H0V34.6v-8.464v-1.418h6.347V0.379H7.96h1.267h70.994h2.88h0.001V1.16h-0.001v1.092h0.001v1.293
					h-0.001v21.173H84v1.418V34.6v134.056h-1.079H79.1H37.605v-0.333H36.57l-15.036,3.298l-0.084-0.387l15.109-3.313v-1.071h1.045
					v-2.891h0.199v-13.612h0.567v-0.614h1.473v0.614h0.637v13.612h30.885v-9.495v-7.362v-17.306v-4.973H40.481v12.998h-0.637v0.931
					h-1.071l-3.314,9.378L35.072,148.047z M74.973,154.464l3.138,1.451l0.99,5.338v-6.789H74.973z M79.1,163.404l-1.333-7.204
					l-3.725-1.73v9.489H79.1V163.404z M74.043,129.885l4.068,2.978l0.99,10.642v-13.709h-5.058V129.885z M79.044,147.102
					l-1.276-13.954l-3.725-2.776v16.73H79.044z M4.936,100.96v0.395h2.129v-0.395H4.936z M9.195,100.96v0.395h2.128v-0.395H9.195z
					 M13.452,100.96v0.395h2.129v-0.395H13.452z M17.711,100.96v0.395h2.128v-0.395H17.711z M21.968,100.96v0.395h2.129v-0.395
					H21.968z M26.227,100.96v0.395h2.128v-0.395H26.227z M30.484,100.96v0.395h2.129v-0.395H30.484z M34.741,100.96v0.395h2.129
					v-0.395H34.741z M39,100.96v0.395h2.129v-0.395H39z M43.257,100.96v0.395h2.129v-0.395H43.257z M47.516,100.96v0.395h2.129
					v-0.395H47.516z M51.773,100.96v0.395h2.129v-0.395H51.773z M56.032,100.96v0.395h2.129v-0.395H56.032z M60.289,100.96v0.395
					h2.129v-0.395H60.289z M64.548,100.96v0.395h2.129v-0.395H64.548z M68.805,100.96v0.395h2.129v-0.395H68.805z M73.064,100.96
					v0.395h2.128v-0.395H73.064z M55.755,27.945H38.542H22.599h-1.515v-3.228H9.227V3.545h70.994v21.173H55.755V27.945z
					 M9.227,2.253h70.994V1.16H9.227V2.253z"/>
			</g>
			<g>
				<path class="st2" d="M62.883,155.845c0-0.24,0.098-0.458,0.256-0.615c0.157-0.158,0.375-0.254,0.614-0.254
					c0.239,0,0.457,0.097,0.614,0.254c0.158,0.157,0.256,0.375,0.256,0.615c0,0.238-0.098,0.456-0.254,0.613
					c-0.158,0.159-0.376,0.256-0.615,0.256c-0.239,0-0.457-0.098-0.614-0.254C62.981,156.302,62.883,156.084,62.883,155.845z
					 M63.453,155.546c-0.075,0.075-0.124,0.181-0.124,0.299c0,0.115,0.048,0.222,0.124,0.298c0.076,0.077,0.183,0.124,0.299,0.124
					c0.118,0,0.224-0.047,0.299-0.123c0.077-0.077,0.124-0.183,0.124-0.299c0-0.118-0.047-0.224-0.124-0.299
					c-0.075-0.076-0.181-0.124-0.299-0.124C63.636,155.422,63.53,155.469,63.453,155.546z"/>
				<path class="st2" d="M71.359,148.431v15.618h-15.81v-4.781c0-0.253,0.101-0.729,0.271-1.138c0.132-0.319,0.31-0.609,0.523-0.753
					l8.214-8.378c0.227-0.229,0.544-0.401,0.866-0.522c0.43-0.161,0.878-0.238,1.129-0.238h4.807V148.431z M70.973,163.662v-15.038
					h-4.421c-0.217,0-0.609,0.068-0.993,0.213c-0.277,0.105-0.546,0.247-0.728,0.431l-8.246,8.41l-0.017,0.011
					c-0.147,0.093-0.284,0.325-0.392,0.588c-0.152,0.366-0.243,0.779-0.242,0.99l0.001,4.395H70.973z"/>
				<path class="st2" d="M70.187,149.41h-3.635c-0.164,0-0.423,0.058-0.666,0.145c-0.208,0.074-0.399,0.168-0.494,0.264
					l-8.311,8.476l-0.052,0.031c-0.052,0.06-0.115,0.209-0.173,0.375c-0.079,0.224-0.137,0.464-0.137,0.567v3.609h13.467V149.41z
					 M66.552,149.025h4.021v14.237H56.336v-3.995c0-0.141,0.067-0.434,0.158-0.694c0.079-0.227,0.183-0.444,0.283-0.54l0.015-0.014
					l0.052-0.029l8.274-8.441c0.138-0.139,0.382-0.264,0.639-0.356C66.04,149.091,66.349,149.025,66.552,149.025z"/>
			</g>
			<g>
				<path class="st2" d="M59.35,124.852h6.933v2.735c0,0.146-0.059,0.279-0.156,0.375c-0.095,0.097-0.229,0.156-0.375,0.156H59.76
					c-0.161,0-0.31-0.066-0.417-0.173c-0.107-0.107-0.173-0.254-0.173-0.417v-2.675H59.35z M65.923,125.214H59.53v2.313
					c0,0.063,0.026,0.12,0.068,0.161c0.041,0.042,0.099,0.068,0.161,0.068h5.993c0.047,0,0.09-0.019,0.119-0.049
					c0.031-0.031,0.051-0.073,0.051-0.12V125.214z"/>
				<path class="st2" d="M59.76,127.757h6.259v7.117c0,0.885-0.362,1.69-0.945,2.273c-0.585,0.585-1.389,0.946-2.274,0.946
					s-1.69-0.362-2.274-0.945c-0.585-0.585-0.946-1.389-0.946-2.274v-7.117H59.76z M65.659,128.117h-5.717v6.757
					c0,0.786,0.32,1.501,0.839,2.019c0.518,0.518,1.233,0.84,2.02,0.84c0.786,0,1.501-0.322,2.019-0.839
					c0.519-0.518,0.84-1.234,0.84-2.02V128.117z"/>
				<path class="st2" d="M60.367,128.635h4.916c0.186,1.29,0.737,5.107,0.737,6.239c0,0.886-0.362,1.691-0.945,2.274
					c-0.583,0.583-1.389,0.945-2.274,0.945c-0.886,0-1.691-0.362-2.274-0.945c-0.583-0.585-0.946-1.389-0.946-2.274
					c0-1.274,0.458-4.844,0.628-6.239H60.367z M64.971,128.996h-4.444l-0.586,5.887c0.002,0.782,0.324,1.494,0.839,2.01
					c0.518,0.517,1.234,0.839,2.02,0.839c0.786,0,1.501-0.322,2.019-0.84c0.516-0.516,0.838-1.227,0.84-2.008L64.971,128.996z"/>
				<path class="st2" d="M62.772,125.907c0.168,0,0.32,0.068,0.431,0.179c0.11,0.11,0.178,0.262,0.178,0.43
					c0,0.167-0.068,0.32-0.178,0.43c-0.111,0.11-0.263,0.178-0.431,0.178c-0.167,0-0.319-0.068-0.43-0.178
					c-0.11-0.11-0.178-0.263-0.178-0.43c0-0.168,0.068-0.32,0.178-0.43C62.453,125.975,62.605,125.907,62.772,125.907z"/>
			</g>
			<g>
				<path class="st2" d="M49.831,133.165h-1.977c-1.141,0-2.179-0.467-2.931-1.22c-0.753-0.751-1.22-1.789-1.22-2.931v-3.052
					c0-0.3,0.124-0.576,0.323-0.775c0.199-0.199,0.474-0.323,0.775-0.323h8.08c0.302,0,0.576,0.125,0.775,0.323
					c0.199,0.199,0.323,0.474,0.323,0.775v3.052c0,1.141-0.467,2.179-1.218,2.931C52.01,132.699,50.972,133.165,49.831,133.165z
					 M47.854,132.771h1.977c1.031,0,1.97-0.423,2.651-1.103c0.68-0.681,1.103-1.619,1.103-2.652v-3.052
					c0-0.193-0.08-0.369-0.207-0.496c-0.126-0.127-0.303-0.206-0.496-0.206h-8.08c-0.193,0-0.369,0.079-0.496,0.206
					c-0.127,0.127-0.206,0.303-0.206,0.496v3.052c0,1.032,0.422,1.971,1.103,2.652C45.883,132.348,46.821,132.771,47.854,132.771z"
					/>
				<path class="st2" d="M49.831,131.983c0.814,0,1.556-0.335,2.094-0.873c0.539-0.537,0.873-1.281,0.873-2.095v-1.189h-7.911v1.189
					c0,0.815,0.335,1.557,0.872,2.095c0.539,0.539,1.281,0.873,2.095,0.873H49.831z M52.205,131.39
					c-0.609,0.61-1.449,0.989-2.373,0.989h-1.977c-0.924,0-1.765-0.378-2.374-0.989c-0.609-0.609-0.989-1.451-0.989-2.374v-1.273
					c0-0.085,0.035-0.164,0.092-0.219c0.055-0.057,0.134-0.092,0.219-0.092h8.08c0.085,0,0.163,0.037,0.218,0.092
					c0.058,0.058,0.093,0.136,0.093,0.219v1.273C53.193,129.939,52.815,130.78,52.205,131.39z"/>
				<path class="st2" d="M48.507,127.102c-0.227-0.12-0.382-0.358-0.382-0.633c0-0.396,0.322-0.716,0.718-0.716
					s0.716,0.32,0.716,0.716c0,0.275-0.154,0.513-0.382,0.633v1.689h-0.67V127.102z"/>
				<path class="st2" d="M48.843,131.213c-0.444,0-0.805-0.359-0.805-0.804c0-0.444,0.361-0.804,0.805-0.804
					c0.444,0,0.804,0.359,0.804,0.804C49.646,130.853,49.287,131.213,48.843,131.213z M48.843,130.899
					c-0.271,0-0.491-0.219-0.491-0.49c0-0.271,0.22-0.49,0.491-0.49s0.49,0.219,0.49,0.49
					C49.333,130.68,49.114,130.899,48.843,130.899z"/>
			</g>
			<g>
				<path class="st2" d="M52.481,163.98H40.427v-8.695h12.253v8.695H52.481z M40.822,163.586h11.462v-7.906H40.822V163.586z"/>
				<path class="st2" d="M52.481,157.187H40.427v-1.902h12.253v1.902H52.481z M40.822,156.791h11.462v-1.111H40.822V156.791z"/>
				<path class="st2" d="M46.553,163.357c-0.833,0-1.587-0.338-2.134-0.885c-0.548-0.547-0.885-1.301-0.885-2.134
					c0-0.833,0.337-1.587,0.884-2.134c0.548-0.547,1.302-0.885,2.135-0.885c0.832,0,1.587,0.338,2.134,0.884
					c0.547,0.548,0.885,1.302,0.885,2.135c0,0.833-0.338,1.587-0.885,2.134C48.14,163.019,47.385,163.357,46.553,163.357z
					 M44.697,162.194c0.475,0.475,1.13,0.768,1.856,0.768c0.725,0,1.381-0.293,1.855-0.768c0.475-0.475,0.768-1.131,0.768-1.856
					c0-0.725-0.293-1.381-0.767-1.856c-0.475-0.475-1.131-0.768-1.856-0.768c-0.726,0-1.381,0.293-1.856,0.768
					c-0.475,0.475-0.768,1.131-0.768,1.856C43.929,161.063,44.222,161.719,44.697,162.194z"/>
				<path class="st2" d="M46.553,162.273c-0.535,0-1.018-0.217-1.368-0.567c-0.351-0.35-0.567-0.834-0.567-1.368
					c0-0.534,0.216-1.018,0.567-1.368c0.35-0.35,0.833-0.567,1.368-0.567c0.534,0,1.018,0.217,1.368,0.567
					c0.35,0.35,0.567,0.834,0.567,1.368c0,0.534-0.217,1.018-0.567,1.368C47.571,162.056,47.087,162.273,46.553,162.273z
					 M45.464,161.427c0.278,0.278,0.663,0.451,1.089,0.451c0.424,0,0.81-0.173,1.089-0.451c0.278-0.278,0.45-0.663,0.45-1.089
					c0-0.425-0.172-0.811-0.45-1.089c-0.279-0.278-0.665-0.451-1.089-0.451c-0.425,0-0.811,0.173-1.089,0.451
					c-0.279,0.278-0.451,0.663-0.451,1.089C45.013,160.763,45.185,161.149,45.464,161.427z"/>
				<path class="st2" d="M51.461,156.692c-0.224,0-0.407-0.183-0.407-0.408c0-0.225,0.183-0.407,0.407-0.407
					c0.225,0,0.408,0.181,0.408,0.407C51.869,156.51,51.686,156.692,51.461,156.692z"/>
				<path class="st2" d="M41.469,156.692c-0.225,0-0.408-0.183-0.408-0.408c0-0.225,0.183-0.407,0.408-0.407
					s0.407,0.181,0.407,0.407C41.875,156.51,41.694,156.692,41.469,156.692z"/>
				<path class="st2" d="M42.79,156.692c-0.225,0-0.408-0.183-0.408-0.408c0-0.225,0.183-0.407,0.408-0.407
					c0.224,0,0.407,0.181,0.407,0.407C43.196,156.51,43.013,156.692,42.79,156.692z"/>
			</g>
			<g>
				<path class="st2" d="M68.59,111.125h7.99c0.313,0,0.6,0.128,0.807,0.336c0.207,0.206,0.336,0.493,0.336,0.807v7.991
					c0,0.313-0.129,0.6-0.336,0.807c-0.206,0.207-0.493,0.336-0.807,0.336h-7.99c-0.315,0-0.6-0.128-0.807-0.336
					c-0.207-0.207-0.336-0.494-0.336-0.807v-7.991c0-0.315,0.129-0.601,0.336-0.807C67.99,111.254,68.276,111.125,68.59,111.125z
					 M76.58,111.52h-7.99c-0.205,0-0.392,0.085-0.528,0.22s-0.219,0.323-0.219,0.528v7.991c0,0.205,0.084,0.392,0.219,0.528
					c0.136,0.136,0.323,0.219,0.528,0.219h7.99c0.205,0,0.392-0.084,0.528-0.219c0.136-0.135,0.22-0.323,0.22-0.528v-7.991
					c0-0.205-0.085-0.392-0.22-0.528C76.974,111.605,76.786,111.52,76.58,111.52z"/>
				<path class="st2" d="M69.44,111.901h6.29c0.335,0,0.639,0.138,0.859,0.358c0.222,0.22,0.358,0.526,0.358,0.859v4.314
					c0,0.335-0.137,0.64-0.358,0.86c-0.22,0.22-0.524,0.357-0.859,0.357h-6.29c-0.335,0-0.64-0.137-0.86-0.357
					c-0.22-0.22-0.357-0.525-0.357-0.86v-4.314c0-0.335,0.137-0.639,0.357-0.859C68.802,112.037,69.106,111.901,69.44,111.901z
					 M75.73,112.297h-6.29c-0.226,0-0.432,0.092-0.581,0.24c-0.148,0.15-0.242,0.356-0.242,0.581v4.314
					c0,0.226,0.093,0.431,0.242,0.581c0.15,0.148,0.355,0.241,0.581,0.241h6.29c0.225,0,0.431-0.093,0.58-0.241
					c0.15-0.15,0.243-0.355,0.243-0.581v-4.314c0-0.225-0.093-0.431-0.243-0.58C76.162,112.389,75.955,112.297,75.73,112.297z"/>
				<path class="st2" d="M72.92,119.102c0.227,0.12,0.382,0.359,0.382,0.634c0,0.396-0.32,0.716-0.716,0.716
					s-0.717-0.32-0.717-0.716c0-0.275,0.154-0.514,0.381-0.634v-1.687h0.67V119.102z"/>
				<path class="st2" d="M72.585,114.124c0.444,0,0.804,0.361,0.804,0.805c0,0.443-0.359,0.804-0.804,0.804
					c-0.444,0-0.805-0.361-0.805-0.804C71.781,114.485,72.141,114.124,72.585,114.124z M72.585,114.438
					c0.271,0,0.49,0.22,0.49,0.491c0,0.27-0.219,0.49-0.49,0.49s-0.491-0.22-0.491-0.49
					C72.094,114.658,72.314,114.438,72.585,114.438z"/>
			</g>
			<g>
				<path class="st2" d="M55.443,110.118h-7.521c-0.405,0-0.773,0.165-1.04,0.432c-0.266,0.266-0.432,0.635-0.432,1.04v10.78h10.276
					V111.4c0-0.352-0.144-0.674-0.376-0.906C56.117,110.262,55.795,110.118,55.443,110.118z M47.921,110.513h7.521
					c0.244,0,0.465,0.1,0.626,0.26c0.161,0.161,0.261,0.383,0.261,0.627v10.574h-9.486v-10.384c0-0.297,0.121-0.567,0.316-0.761
					C47.356,110.634,47.625,110.513,47.921,110.513z"/>
				<polygon class="st2" points="56.528,111.545 46.646,111.545 46.646,111.94 56.528,111.94 				"/>
				<path class="st2" d="M53.943,112.845c-0.871,0-1.577,0.706-1.577,1.577s0.706,1.577,1.577,1.577
					c0.871,0,1.577-0.706,1.577-1.577S54.813,112.845,53.943,112.845z"/>
				<path class="st2" d="M49.536,113.334c-0.601,0-1.088,0.487-1.088,1.088c0,0.6,0.487,1.086,1.088,1.086
					c0.6,0,1.086-0.487,1.086-1.086C50.622,113.82,50.135,113.334,49.536,113.334z"/>
				<path class="st2" d="M49.536,117.727c0.871,0,1.577,0.706,1.577,1.577s-0.706,1.577-1.577,1.577s-1.578-0.706-1.578-1.577
					S48.665,117.727,49.536,117.727z"/>
				<path class="st2" d="M53.943,118.217c0.601,0,1.086,0.487,1.086,1.086c0,0.601-0.485,1.088-1.086,1.088
					c-0.6,0-1.086-0.487-1.086-1.088C52.856,118.703,53.343,118.217,53.943,118.217z"/>
			</g>
		</g>
		<polygon class="st1" points="9.227,3.545 80.221,3.545 80.221,24.718 55.755,24.718 55.755,27.945 21.083,27.945 21.083,24.718 
			9.227,24.718 		"/>
	</g>
</g>
</svg>
