<?xml version="1.0" encoding="utf-8"?>
<!-- Generator: Adobe Illustrator 21.1.0, SVG Export Plug-In . SVG Version: 6.00 Build 0)  -->
<svg version="1.1" id="Слой_1" xmlns="http://www.w3.org/2000/svg" xmlns:xlink="http://www.w3.org/1999/xlink" x="0px" y="0px"
	 viewBox="0 0 134 172" style="enable-background:new 0 0 134 172;" xml:space="preserve">
<style type="text/css">
	.st0{fill:#C0ECFA;}
	.st1{fill:#FFCF00;}
	.st2{fill:#2A2A2A;}
</style>
<g id="Слой_x0020_1">
	<g id="_1005427360">
		<rect x="2.488" y="0.393" class="st0" width="71.043" height="1.988"/>
		<rect x="82.67" y="24.838" class="st0" width="37.621" height="9.142"/>
		<polygon class="st1" points="133.907,143.035 133.907,34.372 133.907,25.87 133.907,24.447 126.016,24.447 122.072,24.447 
			122.072,34.372 84.451,34.372 84.451,24.447 75.311,24.447 75.311,2.381 73.691,2.381 72.418,2.381 3.888,2.381 0.996,2.381 
			0.995,2.381 0.995,3.166 0.996,3.166 0.996,4.264 0.995,4.264 0.995,5.563 0.996,5.563 0.996,24.447 0.093,24.447 0.093,25.87 
			0.093,34.372 0.093,129.859 10.276,129.859 10.276,169.022 122.525,169.022 122.525,143.035 		"/>
		<path class="st2" d="M66.279,110.368v-0.531h11.825v-0.476h0.761v-1.076l14.183-3.328l-0.083-0.387l-14.11,3.312h-0.75v-0.241
			H66.279V34.372h19.944h1.8h30.103h7.89h2.97v73.268H97.691h-2.287v0.241h-0.746v1.479h0.746v0.476v9.196h0.458v0.656h1.479v-0.656
			h0.349v-9.196h31.295v32.585H97.691v-10.494h-0.349v-0.615h-1.076l-3.328-10.014l-0.388,0.084l3.313,9.942v0.604h-0.458v10.494
			v2.197v4.003h0.458v0.517h1.479v-0.517h0.349v-4.003h23.881v14.379v5.306H97.691v-5.166h-0.349v-0.557h-1.076l-3.328-7.832
			l-0.388,0.084l3.313,7.758v0.547h-0.458v5.166h-0.395v2.904h-1.044v1.076l-15.176,3.328L78.874,172l15.102-3.313h1.033v0.335
			h37.163v-0.045h1.735V34.372V25.87v-1.424h-7.891h-7.89H88.024h-1.8H75.311V0h-1.62h-1.272H3.888H0.996H0.995v0.785h0.001v1.097
			H0.995V3.18h0.001v21.266H0.093v1.424v8.502v134.65h1.084h3.837h71.645v-0.335h0.521v-1.479h-0.521v-2.904h-10.38v-38.777h-0.295
			v-0.672h-1.479v0.672h-0.311v38.777H11.612v-8.08v-7.512v-16.742v-0.595h0.259v-0.398h-0.259v-2.11H8.94H5.014V34.372h8.033
			v-4.106h17.404v-1.924h16.014v1.391l-15.528,2.465l0.063,0.391l15.466-2.456v0.134h1.584v4.106h16.145v75.996h0.311v0.666
			l-3.312,12.126l0.387,0.084l3.329-12.198h1.075v-0.678H66.279z M128.986,144.845l-3.958,2.899l-0.784,8.426v-11.552h4.741V144.845
			z M124.369,158.997l1.004-10.967l3.613-2.694v13.661H124.369z M5.014,148.711H8.94v-16.742H8.214l-1.862,1.387l-1.339,14.641
			V148.711z M8.94,156.223H5.014v8.08H8.94V156.223z M7.513,131.969l-1.504,1.101l-0.994,10.689v-11.79H7.513z M88.024,33.98h30.103
			v-3.979H88.024V33.98z M88.024,28.808h30.103v-3.97H88.024V28.808z M63.194,130.976v0.398h-2.139v-0.398H63.194z M58.916,130.976
			v0.398h-2.138v-0.398H58.916z M54.64,130.976v0.398h-2.139v-0.398H54.64z M50.363,130.976v0.398h-2.138v-0.398H50.363z
			 M46.086,130.976v0.398h-2.139v-0.398H46.086z M41.81,130.976v0.398h-2.139v-0.398H41.81z M37.533,130.976v0.398h-2.139v-0.398
			H37.533z M33.256,130.976v0.398h-2.139v-0.398H33.256z M28.979,130.976v0.398H26.84v-0.398H28.979z M24.703,130.976v0.398h-2.139
			v-0.398H24.703z M20.425,130.976v0.398h-2.139v-0.398H20.425z M16.149,130.976v0.398H14.01v-0.398H16.149z M13.047,27.688h17.404
			h16.014h1.584v-3.242h24.37V3.18H3.888v21.266h9.158V27.688z M72.418,1.882H3.888V0.785h68.53V1.882z"/>
		<g>
			<path class="st2" d="M114.926,139.988h14.093v-30.172h-14.292v30.172H114.926z M128.623,139.591h-13.497v-29.377h13.497V139.591z
				"/>
			<path class="st2" d="M121.874,138.989c1.69,0,3.228-0.691,4.341-1.805c1.114-1.114,1.806-2.651,1.806-4.341v-19.601
				c0-0.668-0.273-1.275-0.713-1.714c-0.44-0.439-1.046-0.713-1.714-0.713h-7.442c-0.668,0-1.275,0.273-1.714,0.713
				c-0.439,0.439-0.713,1.046-0.713,1.714v19.601c0,1.69,0.692,3.228,1.806,4.341C118.646,138.298,120.184,138.989,121.874,138.989z
				 M125.935,136.904c-1.042,1.042-2.48,1.689-4.061,1.689c-1.581,0-3.019-0.647-4.061-1.689c-1.043-1.043-1.689-2.48-1.689-4.061
				v-19.601c0-0.557,0.229-1.065,0.595-1.433c0.368-0.367,0.876-0.595,1.433-0.595h7.442c0.558,0,1.065,0.228,1.432,0.595
				c0.368,0.368,0.597,0.876,0.597,1.433v19.601C127.624,134.424,126.976,135.861,125.935,136.904z"/>
			<path class="st2" d="M121.874,115.296c0.446,0,0.807-0.361,0.807-0.807c0-0.446-0.361-0.807-0.807-0.807
				s-0.808,0.361-0.808,0.807C121.065,114.935,121.428,115.296,121.874,115.296z M121.874,114.981c0.272,0,0.492-0.22,0.492-0.492
				c0-0.272-0.22-0.492-0.492-0.492c-0.272,0-0.492,0.22-0.492,0.492C121.382,114.761,121.602,114.981,121.874,114.981z"/>
		</g>
		<g>
			<path class="st2" d="M104.988,118.133h1.986c1.146,0,2.188-0.469,2.944-1.225c0.755-0.754,1.225-1.797,1.225-2.944v-3.065
				c0-0.302-0.125-0.579-0.324-0.779c-0.2-0.2-0.476-0.324-0.779-0.324h-8.117c-0.302,0-0.578,0.125-0.778,0.324
				c-0.2,0.2-0.324,0.476-0.324,0.779v3.065c0,1.147,0.469,2.188,1.224,2.944C102.799,117.665,103.842,118.133,104.988,118.133z
				 M106.974,117.737h-1.986c-1.037,0-1.979-0.425-2.663-1.108c-0.683-0.684-1.108-1.626-1.108-2.664v-3.065
				c0-0.193,0.079-0.371,0.207-0.498c0.128-0.128,0.305-0.207,0.498-0.207h8.117c0.193,0,0.37,0.079,0.498,0.207
				c0.128,0.128,0.207,0.304,0.207,0.498v3.065c0,1.037-0.425,1.98-1.108,2.664C108.954,117.312,108.011,117.737,106.974,117.737z"
				/>
			<path class="st2" d="M104.988,116.946c-0.818,0-1.563-0.336-2.103-0.877c-0.541-0.54-0.877-1.287-0.877-2.104v-1.194h7.947v1.194
				c0,0.819-0.336,1.563-0.876,2.104c-0.541,0.541-1.287,0.877-2.104,0.877H104.988z M102.604,116.35
				c0.612,0.613,1.456,0.993,2.384,0.993h1.986c0.927,0,1.772-0.38,2.385-0.993c0.612-0.612,0.993-1.456,0.993-2.385v-1.278
				c0-0.085-0.037-0.165-0.092-0.22c-0.057-0.057-0.135-0.092-0.22-0.092h-8.117c-0.084,0-0.162,0.037-0.219,0.092
				c-0.057,0.058-0.092,0.136-0.092,0.22v1.278C101.611,114.893,101.991,115.738,102.604,116.35z"/>
			<path class="st2" d="M106.318,112.043c0.227-0.121,0.382-0.36,0.382-0.636c0-0.398-0.322-0.72-0.72-0.72
				c-0.398,0-0.72,0.322-0.72,0.72c0,0.276,0.155,0.515,0.383,0.636v1.696h0.673V112.043z"/>
			<path class="st2" d="M105.981,116.172c0.446,0,0.808-0.361,0.808-0.807s-0.362-0.807-0.808-0.807
				c-0.446,0-0.807,0.361-0.807,0.807S105.535,116.172,105.981,116.172z M105.981,115.857c0.272,0,0.492-0.22,0.492-0.492
				s-0.22-0.492-0.492-0.492c-0.272,0-0.492,0.22-0.492,0.492S105.709,115.857,105.981,115.857z"/>
		</g>
		<g>
			<path class="st2" d="M98.04,142.402h12.108v-8.734H97.841v8.734H98.04z M109.752,142.006H98.239v-7.941h11.513V142.006z"/>
			<path class="st2" d="M98.04,135.579h12.108v-1.91H97.841v1.91H98.04z M109.752,135.183H98.239v-1.117h11.513V135.183z"/>
			<path class="st2" d="M103.995,141.776c0.837,0,1.594-0.34,2.143-0.888c0.55-0.55,0.889-1.308,0.889-2.145
				c0-0.836-0.338-1.594-0.888-2.143c-0.55-0.549-1.308-0.889-2.145-0.889c-0.836,0-1.594,0.34-2.143,0.889
				c-0.549,0.549-0.889,1.308-0.889,2.143c0,0.837,0.34,1.594,0.889,2.143C102.401,141.437,103.159,141.776,103.995,141.776z
				 M105.859,140.608c-0.477,0.477-1.135,0.772-1.864,0.772c-0.728,0-1.387-0.295-1.863-0.772c-0.477-0.477-0.772-1.136-0.772-1.864
				c0-0.728,0.295-1.387,0.77-1.863c0.477-0.478,1.136-0.773,1.864-0.773c0.729,0,1.387,0.295,1.864,0.772
				c0.477,0.477,0.772,1.136,0.772,1.864C106.631,139.472,106.336,140.131,105.859,140.608z"/>
			<path class="st2" d="M103.995,140.687c0.537,0,1.023-0.218,1.374-0.569c0.352-0.352,0.569-0.837,0.569-1.374
				c0-0.536-0.218-1.023-0.569-1.374c-0.352-0.352-0.837-0.569-1.374-0.569c-0.536,0-1.023,0.218-1.374,0.569
				c-0.352,0.352-0.569,0.838-0.569,1.374c0,0.537,0.218,1.023,0.569,1.374C102.972,140.47,103.459,140.687,103.995,140.687z
				 M105.089,139.838c-0.279,0.279-0.666,0.453-1.094,0.453c-0.427,0-0.813-0.174-1.094-0.453c-0.279-0.279-0.452-0.666-0.452-1.094
				c0-0.427,0.173-0.813,0.452-1.094c0.28-0.279,0.666-0.453,1.094-0.453c0.427,0,0.814,0.174,1.094,0.453
				c0.279,0.28,0.453,0.666,0.453,1.094C105.542,139.171,105.368,139.558,105.089,139.838z"/>
			<path class="st2" d="M99.064,135.082c0.226,0,0.41-0.184,0.41-0.408c0-0.226-0.183-0.41-0.41-0.41
				c-0.225,0-0.408,0.183-0.408,0.41C98.656,134.899,98.839,135.082,99.064,135.082z"/>
			<path class="st2" d="M109.102,135.082c0.226,0,0.41-0.184,0.41-0.408c0-0.226-0.183-0.41-0.41-0.41
				c-0.226,0-0.408,0.183-0.408,0.41C108.694,134.899,108.876,135.082,109.102,135.082z"/>
			<path class="st2" d="M107.775,135.082c0.226,0,0.41-0.184,0.41-0.408c0-0.226-0.183-0.41-0.41-0.41
				c-0.225,0-0.408,0.183-0.408,0.41C107.367,134.899,107.55,135.082,107.775,135.082z"/>
		</g>
		<g>
			<path class="st2" d="M121.602,157.526v-6.964h-2.748c-0.147,0-0.279,0.06-0.376,0.156c-0.096,0.096-0.156,0.23-0.156,0.376v6.02
				c0,0.163,0.068,0.312,0.174,0.419c0.108,0.108,0.257,0.174,0.42,0.174h2.687V157.526z M121.238,150.924v6.421h-2.323
				c-0.064,0-0.121-0.026-0.163-0.067c-0.041-0.043-0.067-0.101-0.067-0.163v-6.02c0-0.046,0.019-0.089,0.05-0.12
				c0.031-0.031,0.073-0.051,0.12-0.051H121.238z"/>
			<path class="st2" d="M118.684,157.114v-6.287h-7.149c-0.889,0-1.697,0.363-2.284,0.949c-0.587,0.587-0.95,1.395-0.95,2.284
				s0.363,1.697,0.95,2.284c0.587,0.587,1.395,0.95,2.284,0.95h7.149V157.114z M118.321,151.189v5.744h-6.785
				c-0.791,0-1.508-0.323-2.029-0.844c-0.521-0.52-0.843-1.238-0.843-2.027c0-0.791,0.322-1.509,0.843-2.029
				c0.521-0.521,1.238-0.844,2.029-0.844H118.321z"/>
			<path class="st2" d="M117.801,156.505v-4.938c-1.295-0.187-5.128-0.74-6.266-0.74c-0.89,0-1.698,0.363-2.284,0.95
				c-0.586,0.585-0.95,1.394-0.95,2.283c0,0.89,0.365,1.698,0.95,2.284c0.586,0.586,1.394,0.95,2.284,0.95
				c1.279,0,4.865-0.46,6.266-0.631V156.505z M117.439,151.88v4.463l-5.914,0.589c-0.786-0.004-1.5-0.326-2.018-0.844
				c-0.52-0.521-0.843-1.239-0.843-2.029c0-0.788,0.323-1.507,0.843-2.027c0.518-0.518,1.232-0.84,2.018-0.844L117.439,151.88z"/>
			<path class="st2" d="M120.541,154.089c0-0.169-0.069-0.322-0.179-0.432c-0.11-0.111-0.263-0.18-0.432-0.18
				s-0.322,0.069-0.432,0.18c-0.111,0.11-0.18,0.263-0.18,0.432c0,0.168,0.069,0.322,0.18,0.432c0.11,0.11,0.264,0.179,0.432,0.179
				c0.169,0,0.322-0.069,0.432-0.179C120.473,154.41,120.541,154.257,120.541,154.089z"/>
		</g>
		<g>
			<path class="st2" d="M21.91,153.089h-8.026c-0.315,0-0.602,0.13-0.811,0.337c-0.208,0.208-0.337,0.496-0.337,0.812v8.025
				c0,0.316,0.129,0.604,0.337,0.811c0.207,0.208,0.495,0.337,0.811,0.337h8.026c0.316,0,0.602-0.129,0.811-0.337
				c0.208-0.207,0.337-0.495,0.337-0.811v-8.025c0-0.316-0.129-0.604-0.337-0.812C22.512,153.219,22.224,153.089,21.91,153.089z
				 M13.884,153.487h8.026c0.206,0,0.394,0.084,0.53,0.22c0.136,0.136,0.22,0.324,0.22,0.531v8.025c0,0.206-0.084,0.394-0.22,0.53
				c-0.136,0.136-0.324,0.221-0.53,0.221h-8.026c-0.206,0-0.394-0.085-0.53-0.221c-0.136-0.136-0.221-0.324-0.221-0.53v-8.025
				c0-0.207,0.085-0.395,0.221-0.531C13.488,153.571,13.677,153.487,13.884,153.487z"/>
			<path class="st2" d="M21.055,153.869h-6.318c-0.336,0-0.641,0.137-0.863,0.359c-0.222,0.221-0.36,0.528-0.36,0.864v4.333
				c0,0.335,0.137,0.642,0.36,0.863c0.221,0.221,0.527,0.36,0.863,0.36h6.318c0.336,0,0.643-0.138,0.864-0.36
				c0.221-0.221,0.359-0.527,0.359-0.863v-4.333c0-0.337-0.137-0.643-0.359-0.864C21.696,154.006,21.391,153.869,21.055,153.869z
				 M14.737,154.265h6.318c0.227,0,0.434,0.092,0.583,0.243c0.149,0.149,0.243,0.356,0.243,0.583v4.333
				c0,0.226-0.094,0.433-0.243,0.582c-0.15,0.15-0.356,0.243-0.583,0.243h-6.318c-0.226,0-0.433-0.092-0.582-0.243
				c-0.15-0.15-0.244-0.356-0.244-0.582v-4.333c0-0.227,0.093-0.433,0.244-0.583C14.304,154.359,14.511,154.265,14.737,154.265z"/>
			<path class="st2" d="M17.56,161.102c-0.228,0.121-0.383,0.36-0.383,0.636c0,0.398,0.322,0.72,0.72,0.72s0.72-0.322,0.72-0.72
				c0-0.276-0.155-0.515-0.382-0.636v-1.696H17.56V161.102z"/>
			<path class="st2" d="M17.896,156.102c-0.446,0-0.807,0.361-0.807,0.807c0,0.446,0.361,0.807,0.807,0.807s0.808-0.361,0.808-0.807
				C18.704,156.463,18.342,156.102,17.896,156.102z M17.896,156.417c-0.272,0-0.492,0.22-0.492,0.492
				c0,0.272,0.22,0.492,0.492,0.492s0.494-0.22,0.494-0.492C18.39,156.637,18.168,156.417,17.896,156.417z"/>
		</g>
		<g>
			<path class="st2" d="M39.941,152.084h-7.555c-0.407,0-0.778,0.167-1.045,0.434c-0.268,0.268-0.434,0.638-0.434,1.045v10.827
				h10.322v-11.019c0-0.354-0.146-0.677-0.379-0.91C40.617,152.228,40.295,152.084,39.941,152.084z M32.386,152.481h7.555
				c0.244,0,0.468,0.101,0.628,0.263c0.162,0.161,0.263,0.383,0.263,0.628v10.623h-9.529v-10.431c0-0.297,0.123-0.568,0.318-0.765
				C31.818,152.604,32.089,152.481,32.386,152.481z"/>
			<polygon class="st2" points="41.03,153.517 31.106,153.517 31.106,153.914 41.03,153.914 			"/>
			<path class="st2" d="M38.435,154.823c-0.875,0-1.584,0.709-1.584,1.584c0,0.875,0.709,1.584,1.584,1.584
				c0.875,0,1.584-0.709,1.584-1.584C40.018,155.532,39.309,154.823,38.435,154.823z"/>
			<path class="st2" d="M34.007,155.315c-0.602,0-1.091,0.489-1.091,1.091c0,0.602,0.489,1.091,1.091,1.091
				c0.604,0,1.092-0.489,1.092-1.091C35.099,155.804,34.61,155.315,34.007,155.315z"/>
			<path class="st2" d="M34.007,159.726c0.875,0,1.584,0.71,1.584,1.585c0,0.875-0.709,1.584-1.584,1.584
				c-0.875,0-1.584-0.709-1.584-1.584C32.423,160.436,33.132,159.726,34.007,159.726z"/>
			<path class="st2" d="M38.435,160.219c0.602,0,1.091,0.489,1.091,1.092c0,0.602-0.489,1.091-1.091,1.091
				c-0.604,0-1.092-0.489-1.092-1.091C37.342,160.708,37.831,160.219,38.435,160.219z"/>
		</g>
		<polygon class="st1" points="3.888,3.18 72.418,3.18 72.418,24.447 48.049,24.447 48.049,27.688 13.047,27.688 13.047,24.447 
			3.888,24.447 		"/>
	</g>
</g>
</svg>
