<?xml version="1.0" encoding="utf-8"?>
<!-- Generator: Adobe Illustrator 21.1.0, SVG Export Plug-In . SVG Version: 6.00 Build 0)  -->
<svg version="1.1" id="Слой_1" xmlns="http://www.w3.org/2000/svg" xmlns:xlink="http://www.w3.org/1999/xlink" x="0px" y="0px"
	 viewBox="0 0 193 176" style="enable-background:new 0 0 193 176;" xml:space="preserve">
<style type="text/css">
	.st0{fill:#C0ECFA;}
	.st1{fill:#FFCF00;}
	.st2{fill:#2A2A2A;}
</style>
<g id="Слой_x0020_1">
	<g id="_1035067168">
		<rect x="50.021" y="166.267" class="st0" width="37.52" height="9.466"/>
		<rect x="0.373" y="2.723" class="st0" width="1.984" height="74.648"/>
		<rect x="132.004" y="166.267" class="st0" width="37.52" height="9.466"/>
		<g>
			<path class="st1" d="M192.376,43.625H193v122.417v4.949v4.949h-22.937h-0.619v-9.899h-36.978v9.899h-0.718H89.052v-9.899H52.074
				v9.899h-1.335H24.838v-0.594h-0.145V80.51H5.746l0,0H4.45l0,0H3.356l0,0H2.573l0,0v-2.886V2.944v-1.27V0.06h22.119h0.145h6.182
				h3.571h72.993h4.751v4.705v38.861h69.575v24.679h8.751V43.625H192.376z M102.206,4.765h8.017v33.178h-8.017V4.765z"/>
			<path class="st2" d="M36.08,39.475v0.397h-1.935v-0.397H36.08z M150.864,93.424l3.304-9.322v-0.897h-0.424V69.853V68.04v-4.036
				h0.424v-1.163h1.475v1.163h0.773v4.036h24.179V53.614V48.33h-24.458l-0.043,3.807l-0.452-0.045v0.938h-1.073l-3.319,8.206
				l-0.387-0.084l3.304-8.133v-0.928l-0.63-0.058l-0.011-3.704v-2.884h-1.006v-1.475h1.006v-0.346h34.566h4.282H193v122.417v4.949
				v4.949h-22.937h-4.074h-30.068h-4.173H89.052h-5.167H53.677h-2.938H24.838v-0.594h-0.145V80.51H3.172l0,0H1.877l0,0H0.783l0,0H0
				l0,0v-2.886V2.944v-1.27V0.06h24.692h0.145h6.182h3.571h72.993h4.751v4.705v38.861h22.202v0.346h1.233l15.063-3.303l0.084,0.386
				l-15.135,3.319v1.073h-1.245v2.884h-22.202h-2.777h-1.974v-8.459h-4.981h-0.738h-1.788h-0.148v-0.397h0.148v-2.063V20.368v-7.505
				V4.765H34.59v13.988h-4.333v17.362h-1.919v15.971h1.387l2.46-15.487l0.39,0.061l-2.449,15.425h0.132v1.572h4.333v48.039h55.423
				v0.101h1.033v1.474h-1.033v0.237H34.59v62.532h16.149h2.938h30.208h5.167h23.219V103.51h-4.506v-0.237h-0.957l-14.074,3.304
				l-0.083-0.386l14.145-3.32v-1.072h0.969v-0.101h13.806v-1.189h0.395v1.189h14.48v0.101h1.035v1.072l13.552,3.32l-0.084,0.386
				l-13.479-3.304h-1.025v0.237h-21.503v62.532h16.805h4.173h30.068h4.074h18.03V103.51h-31.677h-2.672v-0.237h-1.105v-1.474h1.105
				v-0.101v-5.378h0.424v-1.205h1.475v1.205h0.773v5.378h31.677V69.853h-4.972h-2.526h-24.179v13.352h-0.773v0.908h-1.073
				l-3.319,9.394L150.864,93.424z M121.571,50.203h0.395v1.935h-0.395V50.203z M121.571,54.073h0.395v1.935h-0.395V54.073z
				 M121.571,57.942h0.395v1.935h-0.395V57.942z M121.571,61.813h0.395v1.935h-0.395V61.813z M121.571,65.682h0.395v1.935h-0.395
				V65.682z M121.571,69.551h0.395v1.935h-0.395V69.551z M121.571,73.42h0.395v1.935h-0.395V73.42z M121.571,77.29h0.395v1.935
				h-0.395V77.29z M121.571,81.16h0.395v1.935h-0.395V81.16z M121.571,85.03h0.395v1.935h-0.395V85.03z M121.571,88.899h0.395v1.935
				h-0.395V88.899z M121.571,92.768h0.395v1.936h-0.395V92.768z M121.571,96.639h0.395v1.935h-0.395V96.639z M97.993,39.475v0.397
				h-1.935v-0.397H97.993z M94.124,39.475v0.397h-1.935v-0.397H94.124z M90.255,39.475v0.397H88.32v-0.397H90.255z M86.384,39.475
				v0.397h-1.935v-0.397H86.384z M82.515,39.475v0.397H80.58v-0.397H82.515z M78.645,39.475v0.397h-1.935v-0.397H78.645z
				 M74.776,39.475v0.397h-1.935v-0.397H74.776z M70.907,39.475v0.397h-1.936v-0.397H70.907z M67.036,39.475v0.397h-1.935v-0.397
				H67.036z M63.167,39.475v0.397h-1.935v-0.397H63.167z M59.298,39.475v0.397h-1.935v-0.397H59.298z M55.428,39.475v0.397h-1.935
				v-0.397H55.428z M51.558,39.475v0.397h-1.935v-0.397H51.558z M47.689,39.475v0.397h-1.935v-0.397H47.689z M43.819,39.475v0.397
				h-1.935v-0.397H43.819z M39.95,39.475v0.397h-1.936v-0.397H39.95z M187.519,53.614l-3.8,2.962l-0.598,7.681V53.614H187.519z
				 M183.217,68.04l0.846-11.179l4.03-3.208V68.04H183.217z M107.473,20.368l-3.803,2.965l-1.068,10.859V20.368H107.473z
				 M102.678,37.412l1.335-13.793l3.569-2.842v16.635H102.678z M102.601,12.863h4.981V4.765h-4.981V12.863z M27.686,18.752h-2.993
				V2.944H3.172v74.679h21.521V53.657h2.993v-1.572V36.114V18.752z M1.877,2.944v74.679H0.783V2.944H1.877z M135.921,166.432v3.968
				h30.068v-3.968H135.921z M135.921,171.591v3.959h30.068v-3.959H135.921z M53.677,166.432v3.968h30.208v-3.968H53.677z
				 M53.677,171.591v3.959h30.208v-3.959H53.677z"/>
			<path class="st2" d="M174.088,71.625h14.056v30.09H173.89v-30.09H174.088z M187.747,72.021h-13.461v29.298h13.461V72.021z"/>
			<path class="st2" d="M181.017,72.62c1.687,0,3.219,0.69,4.33,1.801c1.111,1.111,1.801,2.644,1.801,4.33v19.548
				c0,0.666-0.273,1.27-0.711,1.709c-0.439,0.438-1.043,0.711-1.709,0.711h-7.422c-0.666,0-1.27-0.273-1.709-0.711
				c-0.438-0.439-0.711-1.043-0.711-1.709V78.751c0-1.686,0.691-3.219,1.801-4.33C177.798,73.311,179.331,72.62,181.017,72.62z
				 M185.067,74.701c-1.039-1.039-2.473-1.684-4.05-1.684c-1.577,0-3.011,0.646-4.05,1.684c-1.04,1.039-1.684,2.473-1.684,4.05
				v19.548c0,0.556,0.228,1.062,0.594,1.429c0.367,0.366,0.874,0.594,1.43,0.594h7.422c0.556,0,1.062-0.228,1.429-0.594
				c0.366-0.367,0.594-0.874,0.594-1.429V78.751C186.751,77.174,186.105,75.74,185.067,74.701z"/>
			<path class="st2" d="M181.017,96.249c0.445,0,0.805,0.361,0.805,0.806c0,0.445-0.36,0.805-0.805,0.805
				c-0.445,0-0.805-0.36-0.805-0.805C180.212,96.61,180.572,96.249,181.017,96.249z M181.017,96.563
				c0.271,0,0.491,0.221,0.491,0.492c0,0.271-0.22,0.491-0.491,0.491c-0.271,0-0.491-0.22-0.491-0.491
				C180.526,96.784,180.745,96.563,181.017,96.563z"/>
			<path class="st2" d="M167.171,93.44h1.981c1.143,0,2.181,0.469,2.936,1.222c0.753,0.753,1.221,1.792,1.221,2.936v3.057
				c0,0.302-0.124,0.577-0.323,0.777c-0.198,0.199-0.473,0.323-0.776,0.323h-8.095c-0.302,0-0.577-0.124-0.776-0.323
				c-0.201-0.198-0.323-0.475-0.323-0.777v-3.057c0-1.143,0.468-2.183,1.221-2.936C164.988,93.907,166.027,93.44,167.171,93.44z
				 M169.152,93.836h-1.981c-1.034,0-1.975,0.423-2.656,1.105c-0.682,0.681-1.105,1.622-1.105,2.656v3.057
				c0,0.194,0.079,0.369,0.207,0.497c0.128,0.127,0.303,0.208,0.497,0.208h8.095c0.192,0,0.369-0.08,0.497-0.208
				c0.128-0.126,0.207-0.303,0.207-0.497v-3.057c0-1.034-0.424-1.975-1.105-2.656C171.126,94.259,170.186,93.836,169.152,93.836z"/>
			<path class="st2" d="M167.171,94.625c-0.816,0-1.559,0.334-2.098,0.874c-0.539,0.539-0.875,1.283-0.875,2.099v1.191h7.925v-1.191
				c0-0.816-0.335-1.559-0.875-2.099c-0.538-0.538-1.282-0.874-2.098-0.874H167.171z M164.792,95.219
				c0.611-0.61,1.453-0.99,2.378-0.99h1.981c0.924,0,1.767,0.38,2.378,0.99c0.61,0.61,0.99,1.453,0.99,2.378v1.276
				c0,0.085-0.037,0.163-0.092,0.22c-0.057,0.055-0.135,0.092-0.22,0.092h-8.095c-0.084,0-0.162-0.037-0.218-0.092
				c-0.057-0.058-0.092-0.137-0.092-0.22v-1.276C163.803,96.672,164.182,95.829,164.792,95.219z"/>
			<path class="st2" d="M168.498,99.514c0.227,0.12,0.381,0.36,0.381,0.635c0,0.397-0.321,0.718-0.718,0.718
				c-0.397,0-0.718-0.321-0.718-0.718c0-0.275,0.155-0.515,0.381-0.635v-1.692h0.673V99.514z"/>
			<path class="st2" d="M168.161,95.396c0.445,0,0.805,0.36,0.805,0.805s-0.36,0.806-0.805,0.806c-0.445,0-0.805-0.361-0.805-0.806
				S167.716,95.396,168.161,95.396z M168.161,95.71c0.271,0,0.491,0.22,0.491,0.491s-0.22,0.492-0.491,0.492
				c-0.271,0-0.491-0.221-0.491-0.492S167.89,95.71,168.161,95.71z"/>
			<path class="st2" d="M180.584,54.803v6.947h-2.74c-0.146,0-0.28-0.06-0.375-0.156c-0.097-0.097-0.157-0.229-0.157-0.375v-6.003
				c0-0.163,0.067-0.312,0.175-0.419c0.106-0.106,0.255-0.174,0.418-0.174h2.679V54.803z M180.221,61.388v-6.402h-2.317
				c-0.063,0-0.12,0.026-0.163,0.067c-0.041,0.041-0.067,0.099-0.067,0.163v6.003c0,0.046,0.019,0.089,0.05,0.119
				c0.031,0.031,0.073,0.05,0.12,0.05H180.221z"/>
			<path class="st2" d="M177.674,55.215v6.27h-7.13c-0.886,0-1.693-0.362-2.277-0.948c-0.585-0.585-0.949-1.392-0.949-2.278
				c0-0.886,0.364-1.693,0.948-2.277c0.586-0.585,1.392-0.948,2.278-0.948h7.13V55.215z M177.312,61.123v-5.727h-6.767
				c-0.788,0-1.504,0.322-2.022,0.84c-0.519,0.519-0.842,1.236-0.842,2.023c0,0.789,0.322,1.504,0.84,2.023
				c0.519,0.519,1.235,0.84,2.023,0.84H177.312z"/>
			<path class="st2" d="M176.793,55.823v4.923c-1.291,0.186-5.115,0.739-6.249,0.739c-0.888,0-1.694-0.364-2.278-0.948
				c-0.584-0.584-0.948-1.391-0.948-2.278c0-0.886,0.364-1.694,0.948-2.278c0.586-0.584,1.392-0.947,2.278-0.947
				c1.276,0,4.853,0.458,6.249,0.628V55.823z M176.432,60.434v-4.451l-5.897-0.587c-0.784,0.002-1.497,0.325-2.014,0.842
				c-0.518,0.519-0.84,1.235-0.84,2.022c0,0.787,0.322,1.504,0.842,2.022c0.517,0.517,1.229,0.839,2.011,0.842L176.432,60.434z"/>
			<path class="st2" d="M179.527,58.232c0,0.168-0.068,0.321-0.179,0.431c-0.11,0.11-0.262,0.178-0.431,0.178
				s-0.321-0.068-0.431-0.178c-0.11-0.11-0.178-0.263-0.178-0.431c0-0.169,0.068-0.321,0.178-0.431
				c0.11-0.111,0.263-0.179,0.431-0.179c0.169,0,0.321,0.068,0.431,0.179C179.459,57.913,179.527,58.065,179.527,58.232z"/>
			<path class="st2" d="M168.474,69.866h-12.076v8.71h12.274v-8.71H168.474z M156.794,70.262h11.482v7.919h-11.482V70.262z"/>
			<path class="st2" d="M168.474,76.671h-12.076v1.905h12.274v-1.905H168.474z M156.794,77.067h11.482v1.114h-11.482V77.067z"/>
			<path class="st2" d="M162.534,70.491c-0.833,0-1.59,0.339-2.138,0.885c-0.548,0.549-0.886,1.304-0.886,2.139
				c0,0.833,0.339,1.59,0.886,2.138s1.304,0.886,2.138,0.886c0.835,0,1.59-0.339,2.138-0.886c0.549-0.548,0.886-1.304,0.886-2.138
				c0-0.835-0.338-1.59-0.885-2.138C164.124,70.83,163.369,70.491,162.534,70.491z M160.676,71.656
				c0.475-0.476,1.132-0.77,1.858-0.77c0.727,0,1.383,0.294,1.859,0.77c0.476,0.476,0.77,1.133,0.77,1.859s-0.294,1.383-0.77,1.858
				c-0.476,0.477-1.132,0.771-1.859,0.771c-0.726,0-1.383-0.294-1.858-0.77c-0.476-0.476-0.77-1.133-0.77-1.859
				S160.201,72.132,160.676,71.656z"/>
			<path class="st2" d="M162.534,71.577c-0.535,0-1.02,0.217-1.37,0.568c-0.351,0.351-0.568,0.835-0.568,1.37
				c0,0.535,0.217,1.02,0.568,1.37c0.351,0.351,0.836,0.568,1.37,0.568c0.536,0,1.02-0.217,1.37-0.568
				c0.352-0.351,0.568-0.836,0.568-1.37c0-0.536-0.216-1.02-0.568-1.37C163.554,71.794,163.07,71.577,162.534,71.577z
				 M161.444,72.424c0.28-0.279,0.666-0.452,1.091-0.452c0.426,0,0.812,0.174,1.091,0.452c0.28,0.278,0.452,0.665,0.452,1.091
				c0,0.426-0.172,0.811-0.452,1.091c-0.278,0.279-0.665,0.452-1.091,0.452c-0.425,0-0.811-0.174-1.091-0.452
				c-0.279-0.28-0.451-0.665-0.451-1.091C160.993,73.089,161.165,72.703,161.444,72.424z"/>
			<path class="st2" d="M167.452,77.167c-0.225,0-0.407,0.183-0.407,0.407c0,0.225,0.182,0.408,0.407,0.408
				c0.225,0,0.408-0.183,0.408-0.408C167.86,77.35,167.677,77.167,167.452,77.167z"/>
			<path class="st2" d="M157.441,77.167c-0.224,0-0.407,0.183-0.407,0.407c0,0.225,0.183,0.408,0.407,0.408
				c0.225,0,0.408-0.183,0.408-0.408C157.849,77.35,157.666,77.167,157.441,77.167z"/>
			<path class="st2" d="M158.764,77.167c-0.225,0-0.407,0.183-0.407,0.407c0,0.225,0.182,0.408,0.407,0.408
				c0.225,0,0.408-0.183,0.408-0.408C159.173,77.35,158.99,77.167,158.764,77.167z"/>
			<path class="st2" d="M58.4,17.075h7.534c0.406,0,0.776-0.165,1.042-0.433c0.267-0.267,0.433-0.636,0.433-1.042V4.801H57.115
				v10.989c0,0.353,0.145,0.675,0.378,0.908C57.726,16.931,58.047,17.075,58.4,17.075z M65.934,16.679H58.4
				c-0.244,0-0.466-0.1-0.627-0.261c-0.162-0.162-0.262-0.384-0.262-0.628V5.198h9.503v10.402c0,0.298-0.123,0.567-0.317,0.763
				C66.501,16.558,66.23,16.679,65.934,16.679z"/>
			<polygon class="st2" points="57.314,15.645 67.211,15.645 67.211,15.25 57.314,15.25 			"/>
			<path class="st2" d="M59.902,14.343c0.872,0,1.579-0.707,1.579-1.579c0-0.872-0.707-1.579-1.579-1.579
				c-0.872,0-1.579,0.707-1.579,1.579C58.323,13.636,59.03,14.343,59.902,14.343z"/>
			<path class="st2" d="M64.318,13.854c0.601,0,1.088-0.487,1.088-1.09c0-0.601-0.487-1.088-1.088-1.088
				c-0.602,0-1.09,0.487-1.09,1.088C63.229,13.366,63.716,13.854,64.318,13.854z"/>
			<path class="st2" d="M64.318,9.453c-0.872,0-1.581-0.707-1.581-1.579c0-0.872,0.708-1.581,1.581-1.581
				c0.872,0,1.579,0.708,1.579,1.581C65.897,8.746,65.19,9.453,64.318,9.453z"/>
			<path class="st2" d="M59.902,8.962c-0.601,0-1.088-0.488-1.088-1.088c0-0.602,0.487-1.09,1.088-1.09
				c0.602,0,1.09,0.488,1.09,1.09C60.992,8.474,60.504,8.962,59.902,8.962z"/>
			<path class="st2" d="M89.193,16.076h8.003c0.315,0,0.601-0.129,0.809-0.336c0.208-0.208,0.338-0.495,0.338-0.81V6.927
				c0-0.315-0.13-0.602-0.336-0.809c-0.208-0.208-0.495-0.336-0.81-0.336h-8.003c-0.315,0-0.602,0.129-0.81,0.336
				c-0.207,0.207-0.335,0.493-0.335,0.809v8.003c0,0.315,0.129,0.602,0.335,0.81C88.593,15.948,88.878,16.076,89.193,16.076z
				 M97.196,15.68h-8.003c-0.207,0-0.394-0.084-0.53-0.22c-0.135-0.136-0.22-0.323-0.22-0.53V6.927c0-0.205,0.085-0.393,0.221-0.529
				c0.136-0.136,0.322-0.221,0.529-0.221h8.003c0.207,0,0.394,0.085,0.53,0.221c0.136,0.136,0.22,0.323,0.22,0.529v8.003
				c0,0.207-0.084,0.394-0.22,0.53C97.591,15.596,97.403,15.68,97.196,15.68z"/>
			<path class="st2" d="M90.045,15.298h6.301c0.335,0,0.641-0.137,0.862-0.358s0.358-0.526,0.358-0.862v-4.32
				c0-0.335-0.137-0.641-0.358-0.862s-0.526-0.359-0.862-0.359h-6.301c-0.335,0-0.64,0.138-0.862,0.359
				c-0.221,0.221-0.358,0.525-0.358,0.862v4.32c0,0.336,0.137,0.641,0.358,0.862C89.405,15.161,89.71,15.298,90.045,15.298z
				 M96.345,14.903h-6.301c-0.227,0-0.432-0.092-0.581-0.241c-0.15-0.15-0.243-0.356-0.243-0.583v-4.32
				c0-0.227,0.093-0.433,0.243-0.582c0.149-0.15,0.355-0.242,0.581-0.242h6.301c0.227,0,0.432,0.092,0.582,0.242
				c0.149,0.15,0.242,0.355,0.242,0.582v4.32c0,0.227-0.093,0.432-0.242,0.582C96.777,14.81,96.572,14.903,96.345,14.903z"/>
			<path class="st2" d="M93.531,8.085c0.227-0.12,0.381-0.359,0.381-0.634c0-0.397-0.321-0.718-0.718-0.718
				s-0.718,0.321-0.718,0.718c0,0.275,0.155,0.513,0.381,0.634v1.692h0.673V8.085z"/>
			<path class="st2" d="M93.195,13.072c0.445,0,0.805-0.361,0.805-0.806s-0.36-0.805-0.805-0.805s-0.805,0.36-0.805,0.805
				S92.75,13.072,93.195,13.072z M93.195,12.757c0.271,0,0.491-0.22,0.491-0.491s-0.22-0.491-0.491-0.491
				c-0.271,0-0.491,0.22-0.491,0.491S92.923,12.757,93.195,12.757z"/>
		</g>
	</g>
</g>
</svg>
