<?xml version="1.0" encoding="utf-8"?>
<!-- Generator: Adobe Illustrator 21.1.0, SVG Export Plug-In . SVG Version: 6.00 Build 0)  -->
<svg version="1.1" id="Слой_1" xmlns="http://www.w3.org/2000/svg" xmlns:xlink="http://www.w3.org/1999/xlink" x="0px" y="0px"
	 viewBox="0 0 370 277" style="enable-background:new 0 0 370 277;" xml:space="preserve">
<style type="text/css">
	.st0{fill:#C7F5CB;}
	.st1{fill:#5B5B5B;}
	.st2{fill:#FEFEFE;}
</style>
<g id="Слой_x0020_1">
	<g id="_792530672">
		<g>
			<polygon class="st0" points="151.197,0 47.63,0 47.63,0.146 47.35,0.146 47.35,50.45 66.319,50.45 66.319,116.411 47.35,116.411 
				47.35,122.602 10.661,122.602 10.661,122.602 8.179,122.602 8.179,122.602 6.08,122.602 6.08,122.602 4.581,122.602 
				4.581,122.602 4.581,128.132 4.581,266.699 4.581,269.133 4.581,272.229 47.35,272.229 47.35,276.488 47.63,276.488 
				66.319,276.488 200.332,276.488 200.332,205.015 225.974,205.015 225.974,276.488 360.567,276.488 369.608,276.488 
				369.972,276.488 369.972,18.97 369.972,0.146 369.972,0 324.621,0 324.621,18.97 254.727,18.97 254.727,0 221.091,0 
				221.091,18.97 151.197,18.97 			"/>
			<path class="st1" d="M157.444,0h-1.902H47.63v0.146h-0.28v54.162v1.379v57.681v1.986v7.247H6.107l0,0H3.626l0,0H1.528l0,0h-1.5
				l0,0v5.53v138.567v2.434v3.096H47.35v4.258h0.28h18.689h241.588v-5.818h2.13L338.903,277l0.161-0.74l-29.006-6.362v-2.056h-2.152
				v-0.373v-65.012h-1.18h-2.491h-32.421v0.246h-1.776l-20.521-6.332l-0.159,0.742l20.659,6.362v2.056h1.797v0.403h32.421v61.537
				h-76.357v-61.537h19.421v-0.403h2.016v-2.827h-2.016v-0.246h-19.421h-3.67h-21.878h-0.494v-2.101l6.331-28.866l-0.742-0.161
				l-6.36,29.006h-2.056v2.122h-0.35v65.012H66.319v-26.712h-7.782v-32.887h-3.677v-30.608h2.658l4.713,29.679l0.746-0.118
				l-4.694-29.561h0.254v-3.46h7.782v-9.723h132.342v5.008h0.35v2.2h2.827v-2.2h0.494v-5.008v-0.422h2.201v-2.828h-2.201v-0.226
				H66.319v-45.248v-1.986V55.687v-1.379V18.97h89.223h1.902h58.327h0.818h19.31v141.632v0.226h-2.299l-28.866-6.331l-0.159,0.742
				l29.005,6.362v2.056h2.32v0.422h3.67h51.658v-0.422h2.084v-2.828h-2.084v-0.226H239.57V18.97h19.849h1.468h57.575h2.004h40.102
				v141.632h-35.42v0.226h-2.387l-28.866-6.331l-0.159,0.742l29.005,6.362v2.056h2.408v0.422h35.42v103.391h-16.548v0.373h-1.878
				v2.827h1.878v5.818h16.548h9.041h0.364V18.97V0.146V0h-49.507h-2.004h-57.575h-1.468h-42.83h-0.818H157.444z M47.35,128.132
				v45.669h6.261v3.46v30.608v32.887H47.35v25.942H6.107V128.132H47.35z M3.626,266.699V128.132H1.528v138.567H3.626z
				 M48.097,55.687h7.587v57.681h-7.587V55.687z M57.965,55.687h7.606v57.681h-7.606V55.687z M260.887,18.223v-7.606h57.575v7.606
				H260.887z M260.887,8.336V0.749h57.575v7.587H260.887z M157.444,18.223v-7.606h58.327v7.606H157.444z M157.444,8.336V0.749
				h58.327v7.587H157.444z M218.373,205.932l4.454,3.105l1.382,9.831v-12.936H218.373z M224.209,221.588l-0.374,0.052l-1.71-12.169
				l-3.81-2.656v14.882h5.894V221.588z M218.992,235.815l3.836,2.675l1.382,9.831v-12.506H218.992z M223.827,251.04l-1.703-12.116
				l-3.81-2.656v14.772H223.827z M204.005,235.815l7.821,3.196l2.213,10.463v-13.659H204.005z M213.596,251.04l-2.429-11.482
				l-8.836-3.61v15.092H213.596z M203.329,205.932l8.497,3.472l2.213,10.463v-13.935H203.329z M213.651,221.696l-2.485-11.745
				l-8.836-3.611v15.357H213.651z M202.331,254.515h11.708h4.276h5.894v12.953h-21.878V254.515z"/>
		</g>
		<g>
			<polygon class="st2" points="71.653,24.994 128.561,24.994 128.561,70.52 71.653,70.52 			"/>
			<path class="st1" d="M90.113,24.994h0.927h37.521v14.567v1.825v12.743v1.825V70.52H91.04h-1.855H71.653V24.994h0.928h16.604
				H90.113z M89.185,68.695V55.953v-1.825V41.385v-1.825V26.819H73.509v41.877H89.185z M126.705,55.953H91.04v12.742h35.665V55.953z
				 M126.705,41.385H91.04v12.743h35.665V41.385z M126.705,26.819H91.04v12.742h35.665V26.819z"/>
			<path class="st1" d="M84.32,47.079l-4.25,6.778h4.077c0.183,0,0.337,0.067,0.465,0.202c0.128,0.131,0.193,0.285,0.193,0.452
				c0,0.15-0.056,0.294-0.164,0.438c-0.112,0.144-0.275,0.215-0.494,0.215h-5.259c-0.475,0-0.711-0.176-0.711-0.526
				c0-0.138,0.051-0.301,0.157-0.49l4.858-7.747c0.163-0.342,0.243-0.672,0.243-0.986c0-0.564-0.218-1.052-0.657-1.468
				c-0.209-0.193-0.449-0.346-0.725-0.458c-0.275-0.112-0.574-0.17-0.89-0.17c-0.334,0-0.654,0.086-0.959,0.262
				c-0.307,0.196-0.56,0.446-0.763,0.75c-0.047,0.084-0.133,0.161-0.253,0.237l-0.292,0.064c-0.167,0-0.324-0.06-0.464-0.182
				c-0.142-0.122-0.213-0.273-0.213-0.456c0-0.086,0.039-0.214,0.113-0.374c0.301-0.468,0.707-0.853,1.223-1.15
				c0.25-0.144,0.503-0.257,0.759-0.337c0.256-0.08,0.507-0.122,0.753-0.122c1.026,0,1.894,0.339,2.605,1.018
				c0.712,0.68,1.068,1.49,1.068,2.433C84.742,46.002,84.602,46.54,84.32,47.079z"/>
			<path class="st1" d="M100.1,32.319l-2.733,4.358h2.622c0.117,0,0.216,0.044,0.299,0.13c0.081,0.085,0.124,0.184,0.124,0.291
				c0,0.097-0.035,0.19-0.105,0.282c-0.073,0.093-0.178,0.138-0.318,0.138h-3.382c-0.305,0-0.457-0.113-0.457-0.338
				c0-0.089,0.033-0.194,0.102-0.315l3.124-4.981c0.105-0.22,0.156-0.432,0.156-0.634c0-0.363-0.139-0.675-0.422-0.944
				c-0.135-0.124-0.289-0.223-0.466-0.295c-0.177-0.072-0.368-0.109-0.573-0.109c-0.214,0-0.42,0.055-0.615,0.169
				c-0.198,0.125-0.361,0.287-0.491,0.482c-0.031,0.054-0.086,0.103-0.163,0.152l-0.187,0.041c-0.107,0-0.209-0.039-0.299-0.117
				c-0.091-0.079-0.137-0.175-0.137-0.293c0-0.055,0.025-0.138,0.073-0.241c0.192-0.301,0.455-0.548,0.786-0.739
				c0.161-0.093,0.324-0.165,0.489-0.217c0.164-0.051,0.325-0.078,0.484-0.078c0.659,0,1.218,0.218,1.675,0.655
				c0.458,0.437,0.686,0.958,0.686,1.564C100.372,31.626,100.282,31.973,100.1,32.319z M104.637,32.449
				c0.384,0,0.701-0.135,0.952-0.4c0.21-0.247,0.315-0.537,0.315-0.874c0-0.344-0.105-0.634-0.315-0.874
				c-0.23-0.266-0.547-0.399-0.952-0.399c-0.371,0-0.687,0.133-0.952,0.399c-0.21,0.248-0.315,0.538-0.315,0.874
				c0,0.345,0.105,0.635,0.315,0.874C103.917,32.315,104.235,32.449,104.637,32.449z M104.637,33.29
				c-0.534,0-0.96,0.175-1.275,0.525c-0.282,0.319-0.424,0.709-0.424,1.168c0,0.456,0.142,0.843,0.424,1.162
				c0.32,0.354,0.746,0.531,1.275,0.531c0.534,0,0.96-0.175,1.275-0.525c0.282-0.319,0.425-0.709,0.425-1.168
				c0-0.448-0.141-0.835-0.418-1.162C105.6,33.467,105.171,33.29,104.637,33.29z M106.033,32.822
				c0.374,0.216,0.659,0.518,0.853,0.908c0.196,0.387,0.293,0.805,0.293,1.253c0,0.664-0.213,1.242-0.635,1.737
				c-0.468,0.531-1.102,0.797-1.907,0.797c-0.796,0-1.428-0.262-1.905-0.785c-0.423-0.47-0.634-1.055-0.634-1.749
				c0-0.448,0.094-0.863,0.282-1.247c0.19-0.385,0.476-0.694,0.863-0.927c-0.227-0.19-0.402-0.431-0.525-0.723
				c-0.125-0.293-0.188-0.596-0.188-0.909c0-0.564,0.176-1.051,0.525-1.457c0.39-0.438,0.918-0.659,1.581-0.659
				c0.651,0,1.176,0.221,1.578,0.659c0.354,0.402,0.533,0.888,0.533,1.457c0,0.313-0.06,0.616-0.178,0.909
				C106.449,32.378,106.272,32.624,106.033,32.822z M108.858,37.097c0-0.115,0.041-0.214,0.124-0.296
				c0.083-0.083,0.181-0.124,0.296-0.124c0.092,0,0.185,0.041,0.28,0.124c0.093,0.083,0.141,0.182,0.141,0.296
				c0,0.102-0.041,0.196-0.124,0.285c-0.081,0.091-0.181,0.136-0.296,0.136c-0.119,0-0.223-0.041-0.307-0.125
				C108.896,37.304,108.858,37.205,108.858,37.097z M113.933,32.449c0.383,0,0.7-0.135,0.952-0.4
				c0.21-0.247,0.315-0.537,0.315-0.874c0-0.344-0.105-0.634-0.315-0.874c-0.23-0.266-0.548-0.399-0.952-0.399
				c-0.371,0-0.688,0.133-0.952,0.399c-0.21,0.248-0.315,0.538-0.315,0.874c0,0.345,0.105,0.635,0.315,0.874
				C113.212,32.315,113.53,32.449,113.933,32.449z M113.933,33.29c-0.534,0-0.96,0.175-1.275,0.525
				c-0.282,0.319-0.425,0.709-0.425,1.168c0,0.456,0.143,0.843,0.425,1.162c0.319,0.354,0.745,0.531,1.275,0.531
				c0.534,0,0.96-0.175,1.275-0.525c0.282-0.319,0.425-0.709,0.425-1.168c0-0.448-0.141-0.835-0.419-1.162
				C114.896,33.467,114.467,33.29,113.933,33.29z M115.328,32.822c0.376,0.216,0.66,0.518,0.854,0.908
				c0.196,0.387,0.292,0.805,0.292,1.253c0,0.664-0.211,1.242-0.634,1.737c-0.468,0.531-1.103,0.797-1.908,0.797
				c-0.795,0-1.428-0.262-1.904-0.785c-0.423-0.47-0.635-1.055-0.635-1.749c0-0.448,0.096-0.863,0.282-1.247
				c0.19-0.385,0.477-0.694,0.864-0.927c-0.227-0.19-0.403-0.431-0.525-0.723c-0.126-0.293-0.188-0.596-0.188-0.909
				c0-0.564,0.175-1.051,0.525-1.457c0.39-0.438,0.916-0.659,1.58-0.659c0.652,0,1.177,0.221,1.579,0.659
				c0.354,0.402,0.531,0.888,0.531,1.457c0,0.313-0.06,0.616-0.177,0.909C115.745,32.378,115.568,32.624,115.328,32.822z
				 M122.382,35.657c0,0.503-0.178,0.94-0.54,1.308c-0.36,0.37-0.801,0.553-1.32,0.553h-0.508c-0.502,0-0.939-0.18-1.308-0.537
				c-0.368-0.359-0.552-0.799-0.552-1.324v-4.734c0-0.495,0.181-0.929,0.543-1.303c0.364-0.373,0.802-0.559,1.317-0.559h0.508
				c0.502,0,0.939,0.179,1.308,0.54c0.368,0.361,0.551,0.802,0.551,1.321V35.657z M121.541,35.661v-4.744
				c0-0.278-0.098-0.517-0.294-0.717c-0.196-0.2-0.437-0.299-0.724-0.299h-0.51c-0.279,0-0.517,0.099-0.718,0.296
				c-0.2,0.198-0.3,0.437-0.3,0.719v4.744c0,0.277,0.098,0.517,0.296,0.717c0.198,0.2,0.439,0.299,0.722,0.299h0.51
				c0.275,0,0.514-0.097,0.716-0.29C121.441,36.193,121.541,35.952,121.541,35.661z"/>
			<path class="st1" d="M99.97,49.597h0.844c0.118,0,0.217,0.044,0.299,0.13c0.083,0.085,0.124,0.183,0.124,0.29
				c0,0.097-0.034,0.19-0.105,0.282c-0.07,0.093-0.177,0.138-0.318,0.138H99.97v1.261c0,0.132-0.039,0.239-0.119,0.318
				c-0.077,0.067-0.177,0.103-0.301,0.103c-0.111,0-0.21-0.035-0.294-0.105c-0.085-0.07-0.126-0.175-0.126-0.315v-1.261h-2.541
				c-0.292,0-0.44-0.113-0.44-0.342l0.013-0.103l0.025-0.097l1.69-5.925c0.024-0.084,0.072-0.162,0.145-0.23L98.1,43.7
				c0.047-0.025,0.1-0.037,0.163-0.037c0.123,0,0.226,0.041,0.306,0.122c0.09,0.076,0.135,0.175,0.135,0.296l-0.019,0.125
				l-1.539,5.391h1.984v-1.271c0-0.112,0.041-0.217,0.126-0.314c0.084-0.072,0.183-0.109,0.294-0.109
				c0.107,0,0.207,0.034,0.29,0.105c0.086,0.072,0.13,0.177,0.13,0.318V49.597z M105.464,47.051c0.384,0,0.7-0.135,0.952-0.4
				c0.21-0.248,0.315-0.538,0.315-0.874c0-0.344-0.105-0.634-0.315-0.874c-0.23-0.266-0.548-0.399-0.952-0.399
				c-0.371,0-0.688,0.133-0.952,0.399c-0.21,0.248-0.315,0.538-0.315,0.874c0,0.344,0.105,0.635,0.315,0.874
				C104.742,46.917,105.06,47.051,105.464,47.051z M105.464,47.891c-0.534,0-0.96,0.176-1.275,0.526
				c-0.282,0.32-0.424,0.71-0.424,1.169c0,0.455,0.142,0.842,0.424,1.162c0.32,0.354,0.746,0.531,1.275,0.531
				c0.534,0,0.96-0.175,1.275-0.525c0.282-0.319,0.425-0.709,0.425-1.168c0-0.448-0.141-0.835-0.419-1.162
				C106.426,48.068,105.998,47.891,105.464,47.891z M106.859,47.423c0.376,0.216,0.66,0.52,0.854,0.909
				c0.196,0.387,0.293,0.805,0.293,1.253c0,0.662-0.213,1.242-0.635,1.737c-0.468,0.531-1.102,0.797-1.908,0.797
				c-0.795,0-1.428-0.262-1.904-0.785c-0.423-0.47-0.634-1.055-0.634-1.749c0-0.448,0.094-0.864,0.282-1.247
				c0.189-0.385,0.476-0.694,0.863-0.927c-0.227-0.19-0.401-0.431-0.525-0.724c-0.125-0.293-0.188-0.595-0.188-0.908
				c0-0.564,0.175-1.051,0.525-1.457c0.39-0.439,0.918-0.659,1.58-0.659c0.652,0,1.177,0.22,1.579,0.659
				c0.354,0.402,0.531,0.888,0.531,1.457c0,0.313-0.059,0.615-0.177,0.908C107.275,46.981,107.098,47.226,106.859,47.423z
				 M109.684,51.699c0-0.116,0.041-0.215,0.124-0.296c0.081-0.083,0.181-0.124,0.296-0.124c0.092,0,0.185,0.041,0.28,0.124
				c0.093,0.081,0.141,0.181,0.141,0.296c0,0.1-0.041,0.196-0.124,0.285c-0.083,0.091-0.182,0.136-0.296,0.136
				c-0.119,0-0.223-0.041-0.307-0.125C109.721,51.905,109.684,51.807,109.684,51.699z M116.138,46.92l-2.733,4.359h2.622
				c0.117,0,0.216,0.044,0.299,0.13c0.083,0.085,0.124,0.183,0.124,0.291c0,0.097-0.035,0.19-0.105,0.282
				c-0.072,0.093-0.177,0.138-0.318,0.138h-3.382c-0.305,0-0.457-0.113-0.457-0.338c0-0.089,0.033-0.194,0.102-0.315l3.124-4.981
				c0.105-0.22,0.157-0.432,0.157-0.634c0-0.363-0.141-0.675-0.423-0.944c-0.135-0.124-0.288-0.223-0.466-0.295
				c-0.177-0.072-0.368-0.109-0.573-0.109c-0.214,0-0.42,0.055-0.615,0.169c-0.198,0.125-0.361,0.286-0.491,0.482
				c-0.031,0.053-0.086,0.103-0.163,0.152l-0.187,0.041c-0.107,0-0.209-0.039-0.299-0.118c-0.091-0.078-0.136-0.175-0.136-0.292
				c0-0.055,0.024-0.138,0.072-0.241c0.192-0.301,0.455-0.548,0.787-0.74c0.161-0.092,0.324-0.164,0.489-0.216
				c0.164-0.052,0.325-0.078,0.484-0.078c0.659,0,1.217,0.218,1.675,0.654c0.458,0.438,0.686,0.959,0.686,1.565
				C116.41,46.228,116.32,46.574,116.138,46.92z M118.995,47.891l-0.019,0.423v2.119c0,0.236,0.08,0.439,0.243,0.606
				c0.084,0.072,0.175,0.131,0.272,0.181c0.122,0.04,0.233,0.06,0.334,0.06h0.849c0.235,0,0.435-0.078,0.599-0.237
				c0.168-0.156,0.25-0.36,0.25-0.609v-1.693c0-0.24-0.08-0.439-0.24-0.602c-0.161-0.163-0.363-0.246-0.609-0.246H118.995z
				 M119.142,47.051h1.529c0.459,0,0.855,0.164,1.192,0.492c0.333,0.327,0.5,0.726,0.5,1.196v1.69c0,0.464-0.164,0.86-0.494,1.192
				c-0.332,0.332-0.73,0.498-1.197,0.498h-0.846c-0.455,0-0.85-0.163-1.186-0.489c-0.337-0.325-0.505-0.727-0.505-1.201v-2.111
				c0-0.802,0.152-1.562,0.459-2.284c0.208-0.498,0.517-0.954,0.923-1.364c0.406-0.41,0.877-0.731,1.411-0.965l0.182-0.042
				c0.109,0,0.208,0.042,0.296,0.131c0.072,0.093,0.109,0.196,0.109,0.309c0,0.08-0.018,0.149-0.055,0.207
				c-0.034,0.055-0.103,0.112-0.203,0.175c-0.113,0.043-0.215,0.089-0.306,0.133c-0.09,0.047-0.189,0.107-0.292,0.18
				c-0.174,0.117-0.351,0.262-0.533,0.435c-0.329,0.331-0.583,0.709-0.761,1.136l-0.128,0.338L119.142,47.051z"/>
			<path class="st1" d="M100.393,64.153h0.844c0.118,0,0.217,0.044,0.299,0.13c0.083,0.085,0.124,0.183,0.124,0.29
				c0,0.097-0.034,0.19-0.105,0.282c-0.07,0.092-0.177,0.138-0.318,0.138h-0.844v1.261c0,0.132-0.039,0.239-0.119,0.316
				c-0.077,0.068-0.177,0.104-0.301,0.104c-0.111,0-0.21-0.035-0.294-0.105c-0.085-0.071-0.126-0.176-0.126-0.315v-1.261h-2.541
				c-0.292,0-0.44-0.113-0.44-0.342l0.013-0.103l0.025-0.097l1.689-5.925c0.025-0.084,0.072-0.162,0.146-0.23l0.079-0.041
				c0.047-0.025,0.1-0.037,0.162-0.037c0.124,0,0.227,0.041,0.307,0.122c0.09,0.076,0.135,0.175,0.135,0.296l-0.019,0.125
				l-1.539,5.391h1.984v-1.271c0-0.112,0.041-0.217,0.126-0.314c0.084-0.072,0.183-0.109,0.294-0.109
				c0.107,0,0.207,0.034,0.291,0.105c0.086,0.072,0.13,0.177,0.13,0.318V64.153z M106.722,62.447l0.012-0.194v-0.23v-2.116
				c0-0.24-0.08-0.439-0.239-0.602c-0.161-0.163-0.363-0.246-0.611-0.246h-0.849c-0.239,0-0.44,0.081-0.606,0.242
				c-0.08,0.083-0.142,0.172-0.183,0.275c-0.039,0.104-0.06,0.213-0.06,0.331V61.6c0,0.237,0.081,0.439,0.243,0.606
				c0.085,0.072,0.177,0.132,0.274,0.182c0.122,0.039,0.234,0.059,0.334,0.059H106.722z M106.565,63.288h-1.529
				c-0.453,0-0.849-0.163-1.184-0.489c-0.337-0.325-0.505-0.726-0.505-1.201v-1.69c0-0.465,0.165-0.864,0.495-1.195
				c0.332-0.329,0.73-0.494,1.197-0.494h0.844c0.472,0,0.873,0.164,1.2,0.494c0.328,0.332,0.492,0.73,0.492,1.197v2.108
				c0,0.814-0.152,1.574-0.459,2.284c-0.221,0.527-0.531,0.994-0.933,1.401c-0.4,0.406-0.868,0.719-1.404,0.935l-0.181,0.038
				c-0.097,0-0.19-0.045-0.276-0.136c-0.086-0.091-0.13-0.194-0.13-0.305c0-0.071,0.019-0.137,0.055-0.201
				c0.035-0.064,0.103-0.122,0.204-0.169c0.214-0.086,0.412-0.188,0.598-0.309c0.185-0.122,0.363-0.269,0.531-0.446
				c0.313-0.324,0.567-0.705,0.76-1.144l0.116-0.321L106.565,63.288z M109.262,66.255c0-0.116,0.041-0.215,0.124-0.296
				c0.083-0.083,0.182-0.124,0.296-0.124c0.093,0,0.185,0.041,0.281,0.124c0.092,0.081,0.139,0.181,0.139,0.296
				c0,0.1-0.041,0.196-0.124,0.285c-0.081,0.091-0.181,0.136-0.296,0.136c-0.119,0-0.222-0.041-0.307-0.126
				C109.3,66.461,109.262,66.362,109.262,66.255z M112.638,59.059v2.547h1.271c0.575,0,1.073,0.207,1.49,0.619
				c0.418,0.412,0.626,0.91,0.626,1.494v0.844c0,0.575-0.208,1.072-0.622,1.488c-0.415,0.416-0.913,0.625-1.492,0.625h-1.692
				c-0.128,0-0.233-0.039-0.313-0.119c-0.072-0.085-0.109-0.185-0.109-0.301c0-0.102,0.037-0.196,0.111-0.285
				c0.076-0.091,0.18-0.136,0.313-0.136h1.695c0.346,0,0.645-0.122,0.894-0.363c0.249-0.243,0.374-0.544,0.374-0.909v-0.847
				c0-0.351-0.122-0.65-0.366-0.896c-0.243-0.249-0.544-0.373-0.902-0.373h-1.695c-0.282,0-0.424-0.141-0.424-0.423v-3.383
				c0-0.282,0.139-0.422,0.422-0.422h3.385c0.115,0,0.216,0.042,0.299,0.129c0.081,0.085,0.123,0.184,0.123,0.292
				c0,0.096-0.034,0.189-0.105,0.282c-0.072,0.092-0.177,0.137-0.316,0.137H112.638z M121.941,64.815c0,0.503-0.179,0.94-0.54,1.308
				c-0.36,0.37-0.802,0.553-1.321,0.553h-0.507c-0.503,0-0.94-0.18-1.308-0.539c-0.368-0.358-0.553-0.799-0.553-1.323v-4.736
				c0-0.495,0.182-0.929,0.544-1.303c0.363-0.372,0.802-0.557,1.317-0.557h0.507c0.503,0,0.94,0.18,1.308,0.54
				c0.37,0.36,0.553,0.802,0.553,1.32V64.815z M121.1,64.82v-4.744c0-0.279-0.099-0.517-0.294-0.717
				c-0.196-0.201-0.437-0.3-0.724-0.3h-0.511c-0.278,0-0.517,0.099-0.717,0.298c-0.2,0.197-0.301,0.437-0.301,0.719v4.744
				c0,0.277,0.099,0.517,0.298,0.717c0.197,0.2,0.438,0.299,0.72,0.299h0.511c0.274,0,0.514-0.097,0.716-0.29
				C120.999,65.351,121.1,65.11,121.1,64.82z"/>
		</g>
		<path class="st1" d="M135.173,101.206l3.086-3.059c0.073-0.066,0.157-0.1,0.252-0.1c0.091,0,0.175,0.038,0.254,0.112
			c0.08,0.076,0.119,0.163,0.119,0.265c0,0.063-0.038,0.145-0.111,0.247l-2.18,2.173l2.248,3.979l0.052,0.194
			c0,0.094-0.04,0.175-0.12,0.244c-0.073,0.073-0.162,0.111-0.267,0.111c-0.118,0-0.222-0.064-0.309-0.193l-2.148-3.817
			l-0.875,0.856v2.787c0,0.115-0.033,0.207-0.103,0.278c-0.066,0.058-0.154,0.089-0.261,0.089c-0.096,0-0.182-0.031-0.255-0.091
			c-0.073-0.063-0.109-0.154-0.109-0.276v-6.599c0-0.094,0.038-0.178,0.112-0.25c0.073-0.071,0.158-0.107,0.252-0.107
			s0.178,0.028,0.255,0.084c0.073,0.063,0.109,0.154,0.109,0.272V101.206z M144.32,103.906c0,0.403-0.143,0.746-0.429,1.033
			c-0.286,0.288-0.632,0.432-1.036,0.432h-1.463c-0.398,0-0.74-0.143-1.03-0.426c-0.288-0.283-0.433-0.631-0.433-1.039v-4.393
			c0-0.409,0.143-0.755,0.426-1.039c0.285-0.283,0.631-0.426,1.037-0.426h1.463c0.407,0,0.753,0.143,1.037,0.429
			c0.285,0.287,0.428,0.632,0.428,1.037V103.906z M143.591,103.91v-4.401c0-0.207-0.07-0.38-0.207-0.521
			c-0.138-0.142-0.314-0.213-0.527-0.213h-1.467c-0.206,0-0.38,0.07-0.524,0.209c-0.07,0.071-0.122,0.15-0.157,0.239
			c-0.034,0.09-0.052,0.184-0.052,0.286v4.401c0,0.204,0.07,0.379,0.209,0.524c0.074,0.063,0.153,0.115,0.237,0.156
			c0.103,0.034,0.2,0.053,0.287,0.053h1.467c0.203,0,0.374-0.068,0.52-0.205C143.52,104.302,143.591,104.125,143.591,103.91z
			 M151.498,105.005c0,0.115-0.032,0.207-0.098,0.278c-0.07,0.058-0.159,0.089-0.266,0.089c-0.084,0-0.164-0.031-0.244-0.091
			c-0.08-0.063-0.12-0.154-0.12-0.275v-5.227l-1.513,2.531c-0.091,0.157-0.198,0.235-0.319,0.235c-0.106,0-0.211-0.078-0.316-0.235
			l-1.523-2.531v5.227c0,0.115-0.034,0.207-0.104,0.278c-0.066,0.058-0.154,0.089-0.261,0.089c-0.096,0-0.182-0.031-0.255-0.091
			c-0.073-0.06-0.109-0.154-0.109-0.275v-6.556c0-0.138,0.035-0.242,0.105-0.312c0.063-0.073,0.139-0.111,0.23-0.111
			c0.066,0,0.125,0.018,0.177,0.052c0.051,0.035,0.109,0.097,0.168,0.184l1.888,3.137l1.88-3.137c0.084-0.157,0.2-0.236,0.35-0.236
			c0.084,0,0.163,0.038,0.236,0.115c0.063,0.08,0.094,0.184,0.094,0.308V105.005z M156.618,100.982v-2.57
			c0-0.097,0.035-0.182,0.109-0.255c0.074-0.073,0.159-0.11,0.256-0.11c0.092,0,0.178,0.031,0.252,0.091
			c0.074,0.061,0.112,0.155,0.112,0.275v6.581c0,0.105-0.038,0.198-0.115,0.277c-0.087,0.065-0.171,0.099-0.255,0.099
			c-0.09,0-0.175-0.031-0.255-0.089c-0.07-0.059-0.104-0.15-0.104-0.274v-3.3h-2.933v3.296c0,0.115-0.034,0.207-0.104,0.278
			c-0.066,0.058-0.154,0.089-0.26,0.089c-0.097,0-0.182-0.031-0.255-0.091c-0.073-0.06-0.11-0.154-0.11-0.275v-6.588
			c0-0.096,0.037-0.187,0.11-0.27c0.073-0.063,0.158-0.094,0.255-0.094c0.092,0,0.178,0.032,0.252,0.092
			c0.074,0.06,0.112,0.151,0.112,0.275v2.563H156.618z M160.097,103.541l-0.529,1.579c-0.028,0.077-0.073,0.139-0.136,0.189
			c-0.047,0.031-0.116,0.052-0.197,0.063c-0.098,0-0.184-0.035-0.257-0.105c-0.08-0.063-0.119-0.146-0.119-0.25l0.025-0.13
			l2.202-6.588c0.073-0.209,0.187-0.314,0.344-0.314c0.157,0,0.272,0.105,0.345,0.314l2.192,6.588l0.026,0.13
			c0,0.094-0.04,0.178-0.12,0.256c-0.077,0.065-0.163,0.099-0.256,0.099c-0.05,0-0.103-0.013-0.165-0.038
			c-0.06-0.022-0.118-0.094-0.17-0.214l-0.528-1.579H160.097z M162.507,102.791l-1.078-3.223l-1.081,3.223H162.507z M165.765,98.776
			h-1.464c-0.111,0-0.202-0.032-0.272-0.098c-0.063-0.08-0.094-0.17-0.094-0.266c0-0.084,0.031-0.164,0.091-0.244
			c0.06-0.08,0.154-0.12,0.275-0.12h3.657c0.103,0,0.188,0.038,0.26,0.112c0.071,0.073,0.106,0.159,0.106,0.253
			c0,0.084-0.031,0.164-0.091,0.244c-0.06,0.08-0.154,0.119-0.275,0.119h-1.464v6.229c0,0.115-0.034,0.207-0.104,0.278
			c-0.066,0.058-0.154,0.089-0.26,0.089c-0.097,0-0.183-0.031-0.256-0.091c-0.073-0.063-0.109-0.154-0.109-0.275V98.776z
			 M169.611,103.541l-0.529,1.579c-0.028,0.077-0.072,0.139-0.135,0.189c-0.048,0.031-0.117,0.052-0.198,0.063
			c-0.098,0-0.184-0.035-0.256-0.105c-0.081-0.063-0.12-0.146-0.12-0.25l0.025-0.13l2.202-6.588
			c0.073-0.209,0.188-0.314,0.345-0.314c0.157,0,0.27,0.105,0.344,0.314l2.192,6.588l0.027,0.13c0,0.094-0.041,0.178-0.122,0.256
			c-0.077,0.065-0.163,0.099-0.255,0.099c-0.05,0-0.104-0.013-0.167-0.038c-0.06-0.022-0.118-0.094-0.169-0.214l-0.529-1.579
			H169.611z M172.022,102.791l-1.077-3.223l-1.082,3.223H172.022z M145.896,113.706c0,0.113-0.034,0.207-0.104,0.276
			c-0.066,0.059-0.154,0.089-0.26,0.089c-0.097,0-0.183-0.03-0.256-0.091c-0.072-0.06-0.107-0.154-0.107-0.274v-5.71l-0.841,0.841
			c-0.073,0.073-0.157,0.111-0.252,0.111c-0.089,0-0.174-0.038-0.256-0.111c-0.076-0.077-0.116-0.164-0.116-0.262
			c0-0.084,0.038-0.168,0.111-0.252l1.46-1.469c0.048-0.05,0.1-0.089,0.152-0.119c0.051-0.028,0.109-0.045,0.171-0.045
			c0.06,0,0.13,0.038,0.208,0.111c0.059,0.077,0.09,0.18,0.09,0.308V113.706z M148.106,110.409l-0.017,0.366v1.835
			c0,0.205,0.07,0.38,0.21,0.524c0.073,0.063,0.152,0.115,0.236,0.157c0.105,0.034,0.202,0.052,0.289,0.052h0.735
			c0.203,0,0.377-0.069,0.52-0.205c0.144-0.136,0.216-0.312,0.216-0.528v-1.468c0-0.207-0.07-0.38-0.208-0.521
			c-0.139-0.141-0.314-0.213-0.528-0.213H148.106z M148.233,109.681h1.325c0.398,0,0.74,0.143,1.031,0.426
			c0.289,0.283,0.433,0.631,0.433,1.037v1.463c0,0.402-0.142,0.744-0.428,1.032c-0.288,0.287-0.632,0.431-1.037,0.431h-0.732
			c-0.394,0-0.737-0.141-1.027-0.423c-0.292-0.282-0.438-0.629-0.438-1.04v-1.829c0-0.694,0.132-1.352,0.398-1.977
			c0.181-0.432,0.449-0.827,0.799-1.182c0.352-0.354,0.761-0.633,1.222-0.835l0.157-0.037c0.094,0,0.181,0.037,0.257,0.113
			c0.063,0.08,0.094,0.17,0.094,0.268c0,0.07-0.017,0.129-0.047,0.178c-0.031,0.048-0.09,0.098-0.177,0.152
			c-0.098,0.037-0.185,0.076-0.264,0.116c-0.078,0.041-0.164,0.092-0.253,0.155c-0.15,0.102-0.303,0.227-0.461,0.377
			c-0.286,0.286-0.505,0.614-0.659,0.984l-0.111,0.292L148.233,109.681z M152.485,113.707c0-0.1,0.035-0.185,0.106-0.257
			c0.072-0.071,0.157-0.106,0.257-0.106c0.08,0,0.161,0.035,0.243,0.106c0.08,0.072,0.12,0.157,0.12,0.257
			c0,0.087-0.035,0.169-0.106,0.247c-0.072,0.078-0.157,0.117-0.257,0.117c-0.103,0-0.192-0.035-0.266-0.109
			C152.516,113.885,152.485,113.8,152.485,113.707z M156.88,109.681c0.332,0,0.607-0.116,0.824-0.346
			c0.182-0.215,0.273-0.466,0.273-0.757c0-0.298-0.091-0.55-0.273-0.757c-0.2-0.23-0.475-0.346-0.824-0.346
			c-0.321,0-0.596,0.116-0.824,0.346c-0.182,0.215-0.273,0.466-0.273,0.757c0,0.298,0.091,0.549,0.273,0.757
			C156.255,109.566,156.53,109.681,156.88,109.681z M156.88,110.409c-0.463,0-0.831,0.152-1.105,0.456
			c-0.243,0.276-0.367,0.614-0.367,1.011c0,0.394,0.124,0.73,0.367,1.007c0.278,0.307,0.647,0.461,1.105,0.461
			c0.462,0,0.831-0.152,1.104-0.456c0.244-0.276,0.367-0.614,0.367-1.012c0-0.386-0.12-0.722-0.361-1.006
			C157.712,110.562,157.342,110.409,156.88,110.409z M158.088,110.004c0.325,0.188,0.57,0.45,0.738,0.788
			c0.17,0.335,0.254,0.698,0.254,1.084c0,0.575-0.184,1.077-0.549,1.506c-0.405,0.459-0.955,0.69-1.653,0.69
			c-0.688,0-1.236-0.227-1.649-0.679c-0.366-0.407-0.549-0.914-0.549-1.516c0-0.386,0.081-0.748,0.244-1.079
			c0.164-0.333,0.412-0.601,0.748-0.803c-0.196-0.164-0.348-0.373-0.455-0.626c-0.11-0.254-0.163-0.516-0.163-0.786
			c0-0.49,0.152-0.91,0.455-1.262c0.338-0.38,0.795-0.57,1.369-0.57c0.564,0,1.019,0.19,1.368,0.57
			c0.307,0.348,0.461,0.77,0.461,1.262c0,0.27-0.052,0.533-0.154,0.786C158.448,109.62,158.295,109.833,158.088,110.004z
			 M164.197,112.46c0,0.435-0.156,0.814-0.468,1.132c-0.313,0.32-0.694,0.478-1.144,0.478h-0.439c-0.435,0-0.814-0.155-1.133-0.465
			c-0.32-0.311-0.478-0.693-0.478-1.145v-4.101c0-0.427,0.157-0.804,0.471-1.128c0.314-0.324,0.694-0.483,1.14-0.483h0.439
			c0.436,0,0.814,0.155,1.133,0.468c0.32,0.312,0.479,0.693,0.479,1.143V112.46z M163.468,112.464v-4.108
			c0-0.241-0.086-0.448-0.255-0.621c-0.17-0.172-0.378-0.259-0.627-0.259h-0.442c-0.241,0-0.449,0.086-0.621,0.257
			c-0.174,0.171-0.261,0.378-0.261,0.622v4.108c0,0.241,0.086,0.448,0.257,0.621c0.171,0.172,0.38,0.259,0.625,0.259h0.442
			c0.239,0,0.445-0.084,0.62-0.252C163.381,112.924,163.468,112.715,163.468,112.464z"/>
		<path class="st1" d="M283.786,101.206l3.086-3.059c0.073-0.066,0.157-0.1,0.252-0.1c0.091,0,0.175,0.038,0.254,0.112
			c0.08,0.076,0.119,0.163,0.119,0.265c0,0.063-0.038,0.145-0.111,0.247l-2.18,2.173l2.248,3.979l0.052,0.194
			c0,0.094-0.04,0.175-0.12,0.244c-0.072,0.073-0.162,0.111-0.267,0.111c-0.118,0-0.222-0.064-0.309-0.193l-2.148-3.817
			l-0.875,0.856v2.787c0,0.115-0.033,0.207-0.103,0.278c-0.066,0.058-0.154,0.089-0.261,0.089c-0.096,0-0.182-0.031-0.255-0.091
			c-0.073-0.063-0.109-0.154-0.109-0.276v-6.599c0-0.094,0.038-0.178,0.112-0.25c0.073-0.071,0.159-0.107,0.251-0.107
			c0.093,0,0.178,0.028,0.255,0.084c0.073,0.063,0.109,0.154,0.109,0.272V101.206z M292.932,103.906
			c0,0.403-0.143,0.746-0.429,1.033c-0.285,0.288-0.632,0.432-1.034,0.432h-1.463c-0.398,0-0.742-0.143-1.03-0.426
			c-0.289-0.283-0.435-0.631-0.435-1.039v-4.393c0-0.409,0.143-0.755,0.428-1.039c0.283-0.283,0.629-0.426,1.037-0.426h1.463
			c0.406,0,0.752,0.143,1.037,0.429c0.283,0.287,0.426,0.632,0.426,1.037V103.906z M292.204,103.91v-4.401
			c0-0.207-0.069-0.38-0.207-0.521c-0.137-0.142-0.314-0.213-0.527-0.213h-1.467c-0.205,0-0.38,0.07-0.524,0.209
			c-0.07,0.071-0.122,0.15-0.157,0.239c-0.034,0.09-0.052,0.184-0.052,0.286v4.401c0,0.204,0.07,0.379,0.209,0.524
			c0.074,0.063,0.154,0.115,0.237,0.156c0.104,0.034,0.2,0.053,0.287,0.053h1.467c0.204,0,0.376-0.068,0.52-0.205
			C292.133,104.302,292.204,104.125,292.204,103.91z M300.111,105.005c0,0.115-0.032,0.207-0.098,0.278
			c-0.07,0.058-0.158,0.089-0.266,0.089c-0.084,0-0.164-0.031-0.244-0.091c-0.08-0.063-0.119-0.154-0.119-0.275v-5.227l-1.514,2.531
			c-0.091,0.157-0.197,0.235-0.319,0.235c-0.105,0-0.21-0.078-0.317-0.235l-1.523-2.531v5.227c0,0.115-0.034,0.207-0.104,0.278
			c-0.066,0.058-0.154,0.089-0.26,0.089c-0.097,0-0.183-0.031-0.256-0.091s-0.109-0.154-0.109-0.275v-6.556
			c0-0.138,0.035-0.242,0.106-0.312c0.061-0.073,0.138-0.111,0.229-0.111c0.066,0,0.125,0.018,0.177,0.052
			c0.052,0.035,0.109,0.097,0.168,0.184l1.888,3.137l1.88-3.137c0.084-0.157,0.201-0.236,0.351-0.236
			c0.084,0,0.162,0.038,0.235,0.115c0.063,0.08,0.094,0.184,0.094,0.308V105.005z M305.232,100.982v-2.57
			c0-0.097,0.035-0.182,0.109-0.255c0.073-0.073,0.158-0.11,0.255-0.11c0.092,0,0.178,0.031,0.252,0.091
			c0.074,0.061,0.112,0.155,0.112,0.275v6.581c0,0.105-0.038,0.198-0.115,0.277c-0.087,0.065-0.171,0.099-0.255,0.099
			c-0.089,0-0.175-0.031-0.255-0.089c-0.07-0.059-0.103-0.15-0.103-0.274v-3.3h-2.935v3.296c0,0.115-0.033,0.207-0.103,0.278
			c-0.066,0.058-0.154,0.089-0.261,0.089c-0.096,0-0.182-0.031-0.255-0.091c-0.073-0.06-0.109-0.154-0.109-0.275v-6.588
			c0-0.096,0.035-0.187,0.109-0.27c0.073-0.063,0.159-0.094,0.255-0.094c0.093,0,0.178,0.032,0.251,0.092
			c0.074,0.06,0.112,0.151,0.112,0.275v2.563H305.232z M308.71,103.541l-0.529,1.579c-0.028,0.077-0.072,0.139-0.135,0.189
			c-0.048,0.031-0.117,0.052-0.198,0.063c-0.098,0-0.184-0.035-0.257-0.105c-0.08-0.063-0.119-0.146-0.119-0.25l0.025-0.13
			l2.202-6.588c0.073-0.209,0.187-0.314,0.344-0.314c0.157,0,0.272,0.105,0.345,0.314l2.192,6.588l0.027,0.13
			c0,0.094-0.041,0.178-0.122,0.256c-0.077,0.065-0.163,0.099-0.255,0.099c-0.05,0-0.104-0.013-0.167-0.038
			c-0.06-0.022-0.118-0.094-0.169-0.214l-0.529-1.579H308.71z M311.12,102.791l-1.078-3.223l-1.081,3.223H311.12z M314.379,98.776
			h-1.466c-0.111,0-0.202-0.032-0.272-0.098c-0.063-0.08-0.095-0.17-0.095-0.266c0-0.084,0.031-0.164,0.091-0.244
			c0.061-0.08,0.154-0.12,0.275-0.12h3.658c0.102,0,0.187,0.038,0.259,0.112c0.071,0.073,0.106,0.159,0.106,0.253
			c0,0.084-0.03,0.164-0.091,0.244c-0.06,0.08-0.152,0.119-0.274,0.119h-1.466v6.229c0,0.115-0.034,0.207-0.104,0.278
			c-0.066,0.058-0.152,0.089-0.26,0.089c-0.097,0-0.182-0.031-0.255-0.091c-0.073-0.063-0.109-0.154-0.109-0.275V98.776z
			 M318.224,103.541l-0.528,1.579c-0.028,0.077-0.073,0.139-0.136,0.189c-0.048,0.031-0.116,0.052-0.198,0.063
			c-0.098,0-0.184-0.035-0.256-0.105c-0.08-0.063-0.12-0.146-0.12-0.25l0.025-0.13l2.202-6.588c0.073-0.209,0.188-0.314,0.345-0.314
			c0.157,0,0.27,0.105,0.344,0.314l2.192,6.588l0.027,0.13c0,0.094-0.041,0.178-0.122,0.256c-0.077,0.065-0.162,0.099-0.255,0.099
			c-0.05,0-0.104-0.013-0.167-0.038c-0.06-0.022-0.117-0.094-0.169-0.214l-0.528-1.579H318.224z M320.634,102.791l-1.077-3.223
			l-1.082,3.223H320.634z M294.875,113.706c0,0.113-0.034,0.207-0.104,0.276c-0.066,0.059-0.154,0.089-0.26,0.089
			c-0.097,0-0.183-0.03-0.256-0.091c-0.072-0.06-0.107-0.154-0.107-0.274v-5.71l-0.841,0.841c-0.073,0.073-0.157,0.111-0.252,0.111
			c-0.089,0-0.174-0.038-0.256-0.111c-0.077-0.077-0.116-0.164-0.116-0.262c0-0.084,0.038-0.168,0.111-0.252l1.46-1.469
			c0.048-0.05,0.1-0.089,0.152-0.119c0.051-0.028,0.107-0.045,0.171-0.045c0.06,0,0.13,0.038,0.208,0.111
			c0.059,0.077,0.09,0.18,0.09,0.308V113.706z M299.733,109.569l-2.365,3.774h2.27c0.102,0,0.188,0.038,0.259,0.112
			c0.072,0.073,0.107,0.158,0.107,0.252c0,0.084-0.031,0.164-0.091,0.244c-0.063,0.08-0.154,0.119-0.275,0.119h-2.929
			c-0.263,0-0.396-0.098-0.396-0.292c0-0.078,0.028-0.169,0.087-0.274l2.706-4.313c0.091-0.191,0.135-0.376,0.135-0.55
			c0-0.313-0.12-0.585-0.365-0.817c-0.117-0.106-0.25-0.192-0.404-0.255s-0.319-0.094-0.496-0.094c-0.185,0-0.364,0.048-0.534,0.146
			c-0.171,0.109-0.312,0.248-0.424,0.418c-0.027,0.046-0.076,0.089-0.142,0.132l-0.162,0.035c-0.093,0-0.181-0.034-0.259-0.102
			c-0.079-0.068-0.118-0.152-0.118-0.254c0-0.048,0.021-0.119,0.063-0.209c0.168-0.26,0.394-0.475,0.681-0.64
			c0.139-0.08,0.28-0.143,0.423-0.188c0.143-0.045,0.282-0.067,0.419-0.067c0.572,0,1.055,0.189,1.451,0.567
			c0.396,0.378,0.594,0.83,0.594,1.355C299.97,108.969,299.89,109.269,299.733,109.569z M301.463,113.707
			c0-0.1,0.035-0.185,0.106-0.257c0.072-0.071,0.157-0.106,0.257-0.106c0.08,0,0.161,0.035,0.242,0.106
			c0.081,0.072,0.122,0.157,0.122,0.257c0,0.087-0.035,0.169-0.106,0.247c-0.072,0.078-0.157,0.117-0.257,0.117
			c-0.104,0-0.193-0.035-0.266-0.109C301.495,113.885,301.463,113.8,301.463,113.707z M307.32,112.46
			c0,0.435-0.155,0.814-0.466,1.132c-0.313,0.32-0.694,0.478-1.144,0.478h-0.439c-0.436,0-0.814-0.155-1.133-0.465
			c-0.32-0.311-0.478-0.693-0.478-1.145v-4.101c0-0.427,0.157-0.804,0.471-1.128c0.314-0.324,0.694-0.483,1.14-0.483h0.439
			c0.435,0,0.814,0.155,1.132,0.468c0.32,0.312,0.478,0.693,0.478,1.143V112.46z M306.592,112.464v-4.108
			c0-0.241-0.086-0.448-0.255-0.621c-0.17-0.172-0.379-0.259-0.627-0.259h-0.442c-0.241,0-0.449,0.086-0.621,0.257
			c-0.174,0.171-0.261,0.378-0.261,0.622v4.108c0,0.241,0.086,0.448,0.257,0.621c0.171,0.172,0.379,0.259,0.625,0.259h0.442
			c0.237,0,0.445-0.084,0.62-0.252C306.505,112.924,306.592,112.715,306.592,112.464z M312.444,112.46
			c0,0.435-0.156,0.814-0.468,1.132c-0.312,0.32-0.694,0.478-1.144,0.478h-0.438c-0.436,0-0.814-0.155-1.134-0.465
			c-0.319-0.311-0.478-0.693-0.478-1.145v-4.101c0-0.427,0.157-0.804,0.471-1.128c0.314-0.324,0.694-0.483,1.141-0.483h0.438
			c0.436,0,0.814,0.155,1.134,0.468c0.319,0.312,0.478,0.693,0.478,1.143V112.46z M311.715,112.464v-4.108
			c0-0.241-0.085-0.448-0.255-0.621c-0.17-0.172-0.378-0.259-0.626-0.259h-0.443c-0.241,0-0.448,0.086-0.621,0.257
			c-0.172,0.171-0.261,0.378-0.261,0.622v4.108c0,0.241,0.086,0.448,0.257,0.621c0.171,0.172,0.38,0.259,0.625,0.259h0.443
			c0.237,0,0.444-0.084,0.619-0.252C311.628,112.924,311.715,112.715,311.715,112.464z"/>
		<path class="st1" d="M10.921,185.439v2.935h2.201c0.203,0,0.374-0.068,0.518-0.206c0.143-0.136,0.215-0.313,0.215-0.528v-1.468
			c0-0.207-0.07-0.38-0.208-0.521c-0.137-0.141-0.313-0.213-0.525-0.213H10.921z M10.921,184.711h2.197
			c0.398,0,0.742,0.143,1.032,0.426c0.289,0.283,0.433,0.629,0.433,1.037v1.463c0,0.402-0.143,0.744-0.429,1.031
			c-0.285,0.288-0.631,0.432-1.034,0.432h-2.561c-0.243,0-0.365-0.122-0.365-0.366v-6.592c0-0.244,0.122-0.366,0.365-0.366h2.929
			c0.1,0,0.188,0.038,0.259,0.112c0.072,0.073,0.107,0.159,0.107,0.253c0,0.084-0.031,0.164-0.092,0.244s-0.152,0.119-0.275,0.119
			h-2.565V184.711z M16.961,187.27l-0.528,1.579c-0.028,0.077-0.073,0.139-0.136,0.189c-0.048,0.031-0.116,0.052-0.197,0.063
			c-0.099,0-0.184-0.035-0.257-0.105c-0.08-0.063-0.119-0.146-0.119-0.25l0.025-0.13l2.202-6.588
			c0.072-0.209,0.187-0.314,0.344-0.314c0.157,0,0.272,0.105,0.345,0.314l2.191,6.588l0.027,0.13c0,0.094-0.041,0.178-0.122,0.256
			c-0.077,0.065-0.162,0.099-0.255,0.099c-0.05,0-0.103-0.013-0.165-0.038c-0.061-0.022-0.118-0.094-0.17-0.214l-0.528-1.579H16.961
			z M19.373,186.52l-1.078-3.223l-1.082,3.223H19.373z M26.663,188.735c0,0.115-0.033,0.207-0.103,0.277
			c-0.067,0.058-0.154,0.089-0.261,0.089c-0.097,0-0.182-0.031-0.255-0.091c-0.073-0.063-0.109-0.154-0.109-0.275v-6.229h-1.19
			l-1.76,6.323c-0.011,0.074-0.052,0.137-0.122,0.192c-0.07,0.053-0.144,0.08-0.224,0.08c-0.109,0-0.198-0.031-0.268-0.091
			c-0.07-0.06-0.105-0.148-0.105-0.259c0-0.053,0.005-0.09,0.015-0.111l1.833-6.592c0.052-0.18,0.168-0.272,0.35-0.272h1.833
			c0.244,0,0.366,0.122,0.366,0.366V188.735z M28.846,184.936l3.086-3.059c0.073-0.066,0.157-0.1,0.252-0.1
			c0.091,0,0.175,0.038,0.254,0.112c0.08,0.076,0.119,0.163,0.119,0.265c0,0.063-0.038,0.145-0.111,0.247l-2.18,2.173l2.248,3.978
			l0.052,0.194c0,0.094-0.04,0.175-0.12,0.244c-0.073,0.073-0.162,0.111-0.267,0.111c-0.118,0-0.222-0.064-0.309-0.192l-2.148-3.817
			l-0.875,0.856v2.787c0,0.115-0.033,0.207-0.103,0.277c-0.066,0.058-0.154,0.089-0.261,0.089c-0.096,0-0.182-0.031-0.255-0.091
			c-0.073-0.063-0.109-0.154-0.109-0.276v-6.599c0-0.094,0.038-0.178,0.112-0.25c0.073-0.071,0.159-0.107,0.252-0.107
			c0.093,0,0.178,0.028,0.255,0.084c0.073,0.063,0.109,0.155,0.109,0.272V184.936z M37.992,187.635c0,0.403-0.143,0.746-0.429,1.033
			c-0.286,0.288-0.632,0.432-1.034,0.432h-1.464c-0.398,0-0.74-0.143-1.029-0.426c-0.289-0.283-0.435-0.631-0.435-1.039v-4.393
			c0-0.409,0.143-0.755,0.426-1.038c0.285-0.285,0.631-0.428,1.037-0.428h1.464c0.406,0,0.752,0.143,1.037,0.429
			c0.283,0.287,0.426,0.632,0.426,1.037V187.635z M37.263,187.64v-4.401c0-0.207-0.07-0.38-0.207-0.521
			c-0.138-0.142-0.314-0.213-0.527-0.213h-1.467c-0.205,0-0.38,0.07-0.524,0.209c-0.07,0.071-0.122,0.15-0.157,0.239
			c-0.034,0.09-0.052,0.184-0.052,0.286v4.401c0,0.204,0.07,0.379,0.209,0.524c0.074,0.063,0.154,0.115,0.237,0.157
			c0.103,0.033,0.2,0.052,0.287,0.052h1.467c0.203,0,0.376-0.068,0.52-0.206C37.193,188.032,37.263,187.855,37.263,187.64z
			 M43.704,184.711v-2.57c0-0.097,0.035-0.182,0.109-0.255c0.073-0.073,0.159-0.11,0.255-0.11c0.093,0,0.178,0.031,0.252,0.092
			c0.076,0.06,0.112,0.154,0.112,0.274v6.581c0,0.105-0.037,0.198-0.113,0.278c-0.087,0.065-0.171,0.099-0.255,0.099
			c-0.09,0-0.176-0.031-0.255-0.089c-0.07-0.059-0.104-0.15-0.104-0.274v-3.299h-2.933v3.296c0,0.115-0.034,0.207-0.104,0.277
			c-0.066,0.058-0.154,0.089-0.26,0.089c-0.097,0-0.183-0.031-0.256-0.091s-0.109-0.154-0.109-0.275v-6.588
			c0-0.096,0.035-0.187,0.109-0.27c0.073-0.063,0.159-0.094,0.256-0.094c0.092,0,0.178,0.032,0.252,0.092
			c0.074,0.06,0.112,0.152,0.112,0.275v2.563H43.704z M25.484,197.437c0-0.1,0.035-0.185,0.107-0.257
			c0.071-0.071,0.157-0.106,0.256-0.106c0.08,0,0.161,0.035,0.243,0.106c0.08,0.072,0.12,0.157,0.12,0.257
			c0,0.087-0.035,0.169-0.106,0.247c-0.072,0.078-0.157,0.117-0.257,0.117c-0.103,0-0.193-0.035-0.266-0.109
			C25.516,197.615,25.484,197.53,25.484,197.437z M29.874,197.436c0,0.113-0.034,0.207-0.104,0.276
			c-0.066,0.059-0.154,0.089-0.261,0.089c-0.096,0-0.182-0.03-0.255-0.091c-0.073-0.06-0.109-0.154-0.109-0.274v-5.709l-0.841,0.84
			c-0.073,0.073-0.157,0.111-0.252,0.111c-0.087,0-0.172-0.038-0.255-0.111c-0.077-0.077-0.116-0.164-0.116-0.262
			c0-0.084,0.037-0.168,0.111-0.252l1.46-1.469c0.048-0.05,0.099-0.089,0.151-0.119c0.052-0.028,0.109-0.045,0.171-0.045
			c0.061,0,0.13,0.038,0.209,0.111c0.059,0.077,0.09,0.18,0.09,0.308V197.436z M33.14,191.216h-1.467
			c-0.111,0-0.202-0.033-0.272-0.103c-0.063-0.073-0.094-0.162-0.094-0.261c0-0.087,0.032-0.17,0.096-0.246
			c0.065-0.079,0.156-0.118,0.27-0.118h1.464c0.573,0,1.03,0.185,1.371,0.559c0.307,0.35,0.461,0.769,0.461,1.259
			c0,0.296-0.058,0.568-0.176,0.816c-0.116,0.248-0.294,0.47-0.535,0.67c0.202,0.161,0.372,0.367,0.507,0.625
			c0.136,0.255,0.204,0.529,0.204,0.822v0.732c0,0.5-0.181,0.929-0.54,1.29c-0.359,0.361-0.79,0.541-1.292,0.541h-1.464
			c-0.111,0-0.202-0.032-0.272-0.098c-0.063-0.08-0.094-0.17-0.094-0.266c0-0.084,0.03-0.164,0.091-0.244
			c0.063-0.08,0.154-0.119,0.276-0.119h1.467c0.304,0,0.562-0.107,0.777-0.324c0.215-0.214,0.322-0.472,0.322-0.778v-0.733
			c0-0.3-0.105-0.559-0.318-0.775c-0.21-0.215-0.472-0.325-0.783-0.325h-0.733c-0.112,0-0.203-0.032-0.274-0.098
			c-0.061-0.08-0.094-0.169-0.094-0.266c0-0.084,0.031-0.164,0.093-0.244c0.06-0.08,0.151-0.119,0.275-0.119h0.733
			c0.325,0,0.593-0.118,0.801-0.352c0.178-0.209,0.268-0.465,0.268-0.769c0-0.298-0.086-0.544-0.257-0.739
			C33.757,191.329,33.486,191.216,33.14,191.216z M22.926,195.617h0.732c0.102,0,0.188,0.037,0.259,0.112
			c0.072,0.073,0.107,0.158,0.107,0.252c0,0.084-0.031,0.164-0.091,0.244c-0.061,0.08-0.154,0.119-0.275,0.119h-0.732v1.092
			c0,0.115-0.033,0.207-0.103,0.275c-0.066,0.059-0.154,0.089-0.261,0.089c-0.096,0-0.182-0.03-0.255-0.091
			c-0.073-0.06-0.109-0.151-0.109-0.273v-1.092h-2.2c-0.254,0-0.383-0.098-0.383-0.296l0.011-0.089l0.022-0.084l1.463-5.131
			c0.021-0.073,0.061-0.141,0.126-0.2l0.068-0.035c0.04-0.021,0.086-0.032,0.141-0.032c0.106,0,0.196,0.035,0.266,0.105
			c0.077,0.066,0.116,0.151,0.116,0.256l-0.017,0.11l-1.332,4.668h1.718v-1.102c0-0.096,0.035-0.187,0.109-0.27
			c0.073-0.063,0.159-0.096,0.255-0.096c0.093,0,0.178,0.031,0.252,0.092c0.076,0.063,0.112,0.154,0.112,0.274V195.617z
			 M18.127,207.118c0.035,0.07,0.051,0.132,0.051,0.189c0,0.093-0.039,0.176-0.116,0.244c-0.078,0.07-0.17,0.106-0.269,0.106
			c-0.112,0-0.214-0.063-0.309-0.19c-0.326-0.606-0.595-1.293-0.808-2.061c-0.08-0.314-0.148-0.666-0.203-1.056
			c-0.055-0.391-0.084-0.763-0.084-1.114c0-1.483,0.365-2.894,1.095-4.234c0.033-0.058,0.078-0.106,0.137-0.141
			c0.053-0.025,0.112-0.044,0.178-0.054c0.106,0,0.197,0.037,0.27,0.106c0.073,0.061,0.109,0.148,0.109,0.256
			c0,0.052-0.015,0.112-0.051,0.183c-0.08,0.142-0.154,0.285-0.223,0.426c-0.068,0.141-0.132,0.288-0.192,0.443
			c-0.061,0.152-0.12,0.312-0.174,0.476c-0.054,0.164-0.107,0.337-0.158,0.523c-0.176,0.679-0.263,1.35-0.263,2.015
			C17.116,204.607,17.453,205.902,18.127,207.118z M21.824,206.135c0,0.113-0.034,0.207-0.104,0.276
			c-0.066,0.059-0.154,0.089-0.261,0.089c-0.096,0-0.182-0.03-0.255-0.091c-0.073-0.06-0.109-0.152-0.109-0.274v-5.709l-0.841,0.84
			c-0.073,0.073-0.157,0.111-0.252,0.111c-0.087,0-0.172-0.038-0.255-0.111c-0.077-0.077-0.116-0.164-0.116-0.262
			c0-0.084,0.038-0.168,0.111-0.252l1.46-1.469c0.048-0.05,0.099-0.089,0.151-0.119c0.052-0.028,0.109-0.044,0.171-0.044
			c0.061,0,0.13,0.037,0.209,0.11c0.059,0.077,0.09,0.181,0.09,0.309V206.135z M37.11,207.47c-0.021,0.045-0.065,0.089-0.132,0.136
			l-0.087,0.035l-0.094,0.017c-0.098,0-0.185-0.034-0.265-0.102c-0.078-0.068-0.117-0.155-0.117-0.254
			c0-0.053,0.018-0.115,0.052-0.184c0.305-0.56,0.554-1.192,0.751-1.893c0.175-0.677,0.262-1.338,0.262-1.988
			c0-0.38-0.018-0.723-0.056-1.03c-0.035-0.307-0.1-0.628-0.191-0.962l-0.143-0.482l-0.073-0.23l-0.094-0.246
			c-0.112-0.286-0.265-0.596-0.456-0.931l-0.052-0.194c0-0.084,0.039-0.163,0.119-0.237c0.08-0.076,0.169-0.112,0.268-0.112
			c0.12,0,0.224,0.064,0.308,0.193c0.176,0.328,0.328,0.651,0.451,0.968c0.123,0.316,0.243,0.681,0.359,1.092
			c0.08,0.307,0.148,0.657,0.203,1.051c0.055,0.394,0.084,0.768,0.084,1.12c0,0.409-0.021,0.786-0.066,1.132
			c-0.042,0.346-0.113,0.696-0.21,1.05C37.763,206.129,37.49,206.813,37.11,207.47z M23.288,206.137
			c0-0.099,0.035-0.185,0.107-0.256c0.071-0.072,0.157-0.107,0.257-0.107c0.079,0,0.159,0.035,0.242,0.107
			c0.08,0.071,0.122,0.157,0.122,0.256c0,0.087-0.037,0.17-0.107,0.247c-0.071,0.078-0.157,0.117-0.256,0.117
			c-0.104,0-0.194-0.035-0.267-0.109C23.32,206.315,23.288,206.23,23.288,206.137z M28.878,201.999l-2.367,3.774h2.27
			c0.103,0,0.188,0.038,0.26,0.112c0.071,0.073,0.106,0.159,0.106,0.252c0,0.084-0.03,0.164-0.091,0.244
			c-0.063,0.08-0.154,0.119-0.275,0.119h-2.928c-0.265,0-0.397-0.098-0.397-0.292c0-0.077,0.03-0.169,0.087-0.274l2.705-4.313
			c0.091-0.191,0.136-0.374,0.136-0.549c0-0.314-0.122-0.586-0.366-0.817c-0.116-0.107-0.249-0.194-0.403-0.255
			c-0.154-0.063-0.32-0.096-0.496-0.096c-0.187,0-0.365,0.048-0.534,0.146c-0.171,0.11-0.313,0.248-0.425,0.418
			c-0.026,0.046-0.074,0.09-0.141,0.132l-0.163,0.035c-0.092,0-0.179-0.034-0.259-0.102c-0.078-0.068-0.118-0.152-0.118-0.254
			c0-0.047,0.022-0.119,0.063-0.209c0.168-0.26,0.394-0.475,0.683-0.64c0.139-0.08,0.28-0.143,0.423-0.188
			c0.143-0.045,0.282-0.067,0.419-0.067c0.57,0,1.055,0.189,1.45,0.567c0.397,0.379,0.594,0.83,0.594,1.355
			C29.113,201.399,29.035,201.699,28.878,201.999z M33.905,204.317h0.731c0.103,0,0.188,0.037,0.26,0.112
			c0.071,0.073,0.106,0.159,0.106,0.252c0,0.084-0.031,0.164-0.091,0.244c-0.06,0.08-0.153,0.119-0.275,0.119h-0.731v1.092
			c0,0.115-0.034,0.207-0.104,0.275c-0.066,0.059-0.154,0.089-0.26,0.089c-0.097,0-0.183-0.03-0.256-0.091
			c-0.073-0.06-0.109-0.151-0.109-0.273v-1.092h-2.2c-0.253,0-0.381-0.098-0.381-0.295l0.011-0.09l0.021-0.084l1.463-5.13
			c0.021-0.073,0.063-0.142,0.126-0.201l0.068-0.035c0.041-0.021,0.087-0.032,0.141-0.032c0.108,0,0.197,0.035,0.266,0.105
			c0.077,0.066,0.117,0.151,0.117,0.257l-0.017,0.109l-1.333,4.668h1.718v-1.101c0-0.097,0.035-0.188,0.109-0.272
			c0.073-0.063,0.159-0.094,0.256-0.094c0.092,0,0.178,0.03,0.252,0.091c0.074,0.063,0.112,0.154,0.112,0.275V204.317z"/>
		<path class="st1" d="M115.557,206.725l3.085-3.059c0.073-0.066,0.157-0.1,0.252-0.1c0.092,0,0.176,0.038,0.254,0.112
			c0.08,0.076,0.119,0.163,0.119,0.265c0,0.063-0.038,0.144-0.111,0.246l-2.18,2.174l2.248,3.977l0.052,0.195
			c0,0.094-0.039,0.175-0.12,0.244c-0.072,0.073-0.162,0.11-0.267,0.11c-0.118,0-0.221-0.064-0.309-0.193l-2.148-3.817l-0.874,0.856
			v2.788c0,0.115-0.034,0.207-0.104,0.276c-0.066,0.059-0.154,0.089-0.26,0.089c-0.097,0-0.183-0.03-0.256-0.091
			c-0.073-0.063-0.109-0.152-0.109-0.276v-6.599c0-0.094,0.038-0.178,0.112-0.25c0.073-0.071,0.159-0.106,0.253-0.106
			c0.092,0,0.178,0.028,0.254,0.084c0.073,0.063,0.11,0.154,0.11,0.272V206.725z M124.346,207.955h-2.197
			c-0.398,0-0.74-0.143-1.032-0.426c-0.288-0.283-0.433-0.629-0.433-1.037v-2.56c0-0.098,0.035-0.188,0.109-0.272
			c0.073-0.063,0.159-0.094,0.256-0.094c0.092,0,0.178,0.031,0.252,0.091c0.074,0.06,0.112,0.154,0.112,0.275v2.564
			c0,0.205,0.07,0.38,0.209,0.523c0.074,0.063,0.154,0.115,0.237,0.157c0.103,0.034,0.2,0.052,0.287,0.052h2.2v-3.296
			c0-0.098,0.035-0.188,0.109-0.272c0.073-0.063,0.159-0.094,0.255-0.094c0.093,0,0.178,0.031,0.252,0.091
			c0.076,0.06,0.113,0.154,0.113,0.275v5.492c0,0.402-0.143,0.745-0.429,1.033c-0.286,0.287-0.629,0.431-1.036,0.431h-1.828
			c-0.111,0-0.202-0.033-0.272-0.103c-0.063-0.073-0.094-0.161-0.094-0.261c0-0.087,0.032-0.169,0.097-0.246
			c0.065-0.079,0.155-0.118,0.269-0.118h1.833c0.201,0,0.374-0.068,0.517-0.205c0.143-0.135,0.214-0.312,0.214-0.53V207.955z
			 M129.104,206.563l1.886-2.84c0.031-0.048,0.076-0.091,0.13-0.125l0.079-0.032h0.087c0.094,0,0.183,0.035,0.267,0.109
			c0.078,0.077,0.115,0.164,0.115,0.262c0,0.063-0.021,0.131-0.063,0.204l-2.057,3.087l2.057,3.087l0.047,0.109l0.015,0.1
			c0,0.094-0.037,0.178-0.112,0.253c-0.074,0.076-0.165,0.112-0.275,0.112c-0.113,0-0.211-0.054-0.29-0.168l-1.886-2.83l-1.887,2.83
			c-0.026,0.047-0.072,0.09-0.141,0.131l-0.161,0.037c-0.077,0-0.162-0.037-0.257-0.11c-0.079-0.072-0.119-0.159-0.119-0.261
			c0-0.063,0.022-0.13,0.063-0.203l2.057-3.087l-2.068-3.087l-0.052-0.11v-0.099c0-0.095,0.038-0.178,0.112-0.254
			c0.076-0.074,0.167-0.112,0.275-0.112c0.115,0,0.213,0.055,0.291,0.168L129.104,206.563z M136.788,206.499v-2.57
			c0-0.096,0.035-0.182,0.109-0.255c0.073-0.073,0.158-0.109,0.255-0.109c0.092,0,0.178,0.031,0.252,0.091
			c0.074,0.06,0.112,0.154,0.112,0.275v6.581c0,0.105-0.038,0.198-0.115,0.276c-0.087,0.066-0.171,0.099-0.255,0.099
			c-0.089,0-0.175-0.03-0.255-0.089c-0.07-0.059-0.103-0.15-0.103-0.273v-3.3h-2.935v3.296c0,0.115-0.033,0.207-0.103,0.276
			c-0.066,0.059-0.154,0.089-0.261,0.089c-0.096,0-0.182-0.03-0.255-0.091c-0.073-0.06-0.109-0.152-0.109-0.274v-6.588
			c0-0.097,0.035-0.188,0.109-0.272c0.073-0.063,0.159-0.095,0.255-0.095c0.093,0,0.178,0.032,0.252,0.092
			c0.074,0.061,0.112,0.152,0.112,0.275v2.563H136.788z M142.643,207.228v-2.935h-2.201c-0.205,0-0.379,0.07-0.524,0.209
			c-0.07,0.072-0.122,0.15-0.157,0.24c-0.034,0.089-0.052,0.183-0.052,0.285v1.468c0,0.204,0.07,0.38,0.209,0.524
			c0.076,0.063,0.154,0.115,0.237,0.157c0.104,0.034,0.2,0.052,0.287,0.052H142.643z M141.383,207.955l-1.728,2.761
			c-0.073,0.116-0.171,0.172-0.293,0.172c-0.094,0-0.18-0.039-0.257-0.116c-0.084-0.073-0.124-0.157-0.124-0.255
			c0-0.073,0.019-0.139,0.057-0.197l1.48-2.365h-0.073c-0.397,0-0.74-0.143-1.03-0.426c-0.289-0.283-0.433-0.629-0.433-1.037v-1.463
			c0-0.406,0.143-0.753,0.426-1.037c0.283-0.283,0.629-0.426,1.037-0.426h2.56c0.244,0,0.366,0.122,0.366,0.366v6.592
			c0,0.115-0.033,0.207-0.104,0.276c-0.066,0.059-0.152,0.089-0.26,0.089c-0.097,0-0.182-0.03-0.255-0.091
			c-0.073-0.063-0.109-0.152-0.109-0.276v-2.566H141.383z M123.974,215.928l0.011-0.168v-0.2v-1.833c0-0.208-0.071-0.38-0.208-0.522
			c-0.139-0.141-0.314-0.211-0.528-0.211h-0.736c-0.207,0-0.381,0.07-0.524,0.209c-0.07,0.071-0.123,0.149-0.158,0.239
			c-0.034,0.089-0.052,0.183-0.052,0.286v1.467c0,0.205,0.07,0.38,0.21,0.524c0.073,0.063,0.154,0.115,0.237,0.157
			c0.105,0.034,0.202,0.052,0.289,0.052H123.974z M123.838,216.655h-1.325c-0.392,0-0.735-0.141-1.026-0.423
			c-0.291-0.282-0.437-0.629-0.437-1.04v-1.463c0-0.403,0.143-0.749,0.429-1.034c0.287-0.286,0.632-0.429,1.037-0.429h0.731
			c0.409,0,0.756,0.143,1.039,0.429c0.283,0.287,0.426,0.632,0.426,1.037v1.826c0,0.705-0.132,1.363-0.398,1.977
			c-0.191,0.457-0.461,0.862-0.809,1.213c-0.346,0.352-0.751,0.624-1.215,0.81l-0.157,0.033c-0.084,0-0.164-0.039-0.239-0.118
			c-0.076-0.078-0.112-0.168-0.112-0.264c0-0.06,0.015-0.117,0.048-0.172c0.03-0.055,0.089-0.105,0.176-0.146
			c0.185-0.076,0.357-0.163,0.517-0.268c0.162-0.105,0.314-0.234,0.461-0.387c0.272-0.28,0.491-0.609,0.659-0.99l0.1-0.279
			L123.838,216.655z M126.174,219.225c0-0.099,0.035-0.185,0.106-0.256c0.072-0.072,0.157-0.107,0.257-0.107
			c0.08,0,0.161,0.035,0.242,0.107c0.08,0.071,0.122,0.157,0.122,0.256c0,0.087-0.035,0.17-0.107,0.247
			c-0.071,0.079-0.157,0.118-0.256,0.118c-0.104,0-0.192-0.037-0.266-0.11C126.206,219.404,126.174,219.318,126.174,219.225z
			 M129.096,212.994v2.205h1.101c0.498,0,0.931,0.178,1.291,0.536c0.363,0.357,0.542,0.789,0.542,1.293v0.732
			c0,0.497-0.18,0.928-0.538,1.288c-0.359,0.36-0.79,0.541-1.292,0.541h-1.466c-0.11,0-0.202-0.034-0.272-0.104
			c-0.061-0.073-0.095-0.161-0.095-0.261c0-0.087,0.033-0.169,0.097-0.246c0.066-0.079,0.155-0.118,0.272-0.118h1.467
			c0.3,0,0.559-0.105,0.775-0.314c0.216-0.21,0.325-0.471,0.325-0.786v-0.733c0-0.304-0.106-0.562-0.318-0.777
			c-0.21-0.216-0.471-0.322-0.782-0.322h-1.467c-0.244,0-0.368-0.122-0.368-0.366v-2.93c0-0.244,0.122-0.366,0.366-0.366h2.931
			c0.099,0,0.187,0.038,0.259,0.112c0.071,0.073,0.106,0.159,0.106,0.252c0,0.084-0.03,0.164-0.091,0.244
			c-0.063,0.08-0.154,0.12-0.274,0.12H129.096z M134.219,212.994v2.205h1.102c0.497,0,0.929,0.178,1.29,0.536
			c0.363,0.357,0.543,0.789,0.543,1.293v0.732c0,0.497-0.181,0.928-0.54,1.288c-0.359,0.36-0.79,0.541-1.292,0.541h-1.465
			c-0.11,0-0.201-0.034-0.27-0.104c-0.063-0.073-0.094-0.161-0.094-0.261c0-0.087,0.032-0.169,0.096-0.246
			c0.066-0.079,0.156-0.118,0.272-0.118h1.467c0.3,0,0.559-0.105,0.775-0.314c0.216-0.21,0.325-0.471,0.325-0.786v-0.733
			c0-0.304-0.105-0.562-0.318-0.777c-0.21-0.216-0.471-0.322-0.782-0.322h-1.467c-0.244,0-0.367-0.122-0.367-0.366v-2.93
			c0-0.244,0.122-0.366,0.365-0.366h2.931c0.099,0,0.188,0.038,0.259,0.112c0.071,0.073,0.107,0.159,0.107,0.252
			c0,0.084-0.031,0.164-0.092,0.244c-0.061,0.08-0.152,0.12-0.274,0.12H134.219z"/>
		<path class="st1" d="M333.969,253.978c0.115,0,0.207,0.033,0.276,0.103c0.059,0.066,0.09,0.154,0.09,0.261
			c0,0.096-0.031,0.182-0.091,0.255c-0.064,0.073-0.154,0.109-0.275,0.109h-6.231v2.933h6.231c0.115,0,0.207,0.034,0.276,0.104
			c0.059,0.066,0.09,0.154,0.09,0.261c0,0.096-0.031,0.182-0.091,0.255c-0.061,0.073-0.154,0.109-0.275,0.109h-6.592
			c-0.244,0-0.366-0.122-0.366-0.366v-3.658c0-0.244,0.122-0.365,0.366-0.365H333.969z M330.673,251.784v-2.2
			c0-0.203-0.068-0.374-0.205-0.52c-0.136-0.143-0.312-0.214-0.528-0.214h-1.468c-0.207,0-0.379,0.07-0.521,0.207
			c-0.141,0.138-0.213,0.314-0.213,0.527v2.2H330.673z M331.401,251.784h2.566c0.117,0,0.209,0.034,0.279,0.104
			c0.059,0.066,0.09,0.154,0.09,0.26c0,0.097-0.031,0.183-0.091,0.256c-0.061,0.073-0.154,0.109-0.275,0.109h-6.592
			c-0.244,0-0.366-0.122-0.366-0.366v-2.56c0-0.407,0.143-0.753,0.429-1.037c0.286-0.285,0.632-0.426,1.034-0.426h1.463
			c0.401,0,0.744,0.142,1.032,0.428c0.287,0.287,0.431,0.632,0.431,1.037V251.784z M333.969,242.267
			c0.115,0,0.207,0.034,0.276,0.104c0.059,0.066,0.09,0.153,0.09,0.261c0,0.096-0.031,0.182-0.091,0.255
			c-0.061,0.073-0.154,0.109-0.275,0.109h-5.175l5.353,2.971c0.073,0.043,0.132,0.097,0.177,0.163l0.044,0.078
			c0.012,0.025,0.02,0.063,0.03,0.115c-0.002,0.07-0.038,0.15-0.111,0.241c-0.073,0.063-0.178,0.094-0.314,0.094h-6.591
			c-0.098,0-0.189-0.035-0.273-0.109c-0.063-0.073-0.094-0.159-0.094-0.256c0-0.092,0.032-0.178,0.093-0.252
			c0.06-0.074,0.151-0.112,0.274-0.112h5.175l-5.351-2.971c-0.059-0.035-0.118-0.087-0.177-0.157
			c-0.05-0.066-0.074-0.132-0.074-0.198c0-0.079,0.04-0.155,0.12-0.224c0.073-0.073,0.175-0.111,0.303-0.111H333.969z
			 M330.01,238.238l-2.841-1.886c-0.048-0.031-0.091-0.076-0.125-0.13l-0.032-0.079v-0.087c0-0.094,0.035-0.183,0.109-0.267
			c0.077-0.078,0.164-0.115,0.262-0.115c0.063,0,0.131,0.021,0.204,0.063l3.087,2.057l3.087-2.057l0.109-0.047l0.1-0.015
			c0.094,0,0.178,0.037,0.254,0.112c0.074,0.074,0.112,0.165,0.112,0.275c0,0.113-0.056,0.213-0.168,0.29l-2.831,1.886l2.831,1.887
			c0.046,0.026,0.089,0.072,0.13,0.141l0.038,0.161c0,0.077-0.038,0.162-0.111,0.257c-0.072,0.079-0.158,0.119-0.261,0.119
			c-0.063,0-0.13-0.022-0.203-0.063l-3.087-2.057l-3.087,2.068l-0.11,0.052h-0.099c-0.094,0-0.178-0.038-0.254-0.112
			c-0.074-0.076-0.112-0.167-0.112-0.275c0-0.115,0.055-0.213,0.168-0.291L330.01,238.238z M332.87,230.197
			c0.402,0,0.745,0.143,1.033,0.429c0.287,0.285,0.432,0.632,0.432,1.034v1.463c0,0.398-0.143,0.742-0.426,1.03
			c-0.285,0.289-0.631,0.435-1.039,0.435h-4.393c-0.409,0-0.756-0.143-1.039-0.427c-0.283-0.283-0.426-0.629-0.426-1.037v-1.463
			c0-0.406,0.143-0.752,0.429-1.037c0.287-0.283,0.632-0.426,1.037-0.426H332.87z M332.874,230.925h-4.401
			c-0.207,0-0.379,0.068-0.521,0.207c-0.141,0.137-0.213,0.314-0.213,0.527v1.467c0,0.205,0.071,0.38,0.209,0.524
			c0.072,0.07,0.15,0.122,0.24,0.157c0.089,0.034,0.183,0.052,0.285,0.052h4.401c0.205,0,0.38-0.07,0.524-0.209
			c0.063-0.074,0.115-0.154,0.157-0.237c0.034-0.103,0.052-0.2,0.052-0.287v-1.467c0-0.203-0.067-0.376-0.206-0.52
			C333.267,230.996,333.09,230.925,332.874,230.925z M329.87,225.22l-2.697-1.895c-0.043-0.027-0.079-0.07-0.112-0.125
			c-0.034-0.055-0.05-0.112-0.05-0.168c0-0.094,0.035-0.184,0.109-0.268c0.077-0.077,0.164-0.113,0.261-0.113
			c0.073,0,0.144,0.025,0.214,0.073l2.729,1.918l3.467-1.939c0.07-0.034,0.133-0.052,0.192-0.052c0.084,0,0.164,0.037,0.24,0.112
			c0.074,0.074,0.112,0.165,0.112,0.275c0,0.112-0.063,0.214-0.19,0.308l-3.354,1.874h3.175c0.117,0,0.209,0.033,0.279,0.103
			c0.059,0.066,0.09,0.154,0.09,0.261c0,0.097-0.031,0.182-0.091,0.255c-0.061,0.073-0.154,0.109-0.275,0.109h-3.167l3.346,1.874
			c0.041,0.032,0.086,0.077,0.136,0.136l0.035,0.089l0.017,0.094c0,0.103-0.034,0.19-0.102,0.265
			c-0.069,0.074-0.156,0.112-0.26,0.112c-0.039,0-0.099-0.015-0.183-0.046l-3.46-1.945l-2.734,1.918
			c-0.034,0.028-0.107,0.052-0.22,0.073c-0.094,0-0.178-0.038-0.254-0.112c-0.074-0.074-0.112-0.162-0.112-0.265
			c0-0.102,0.053-0.2,0.162-0.292l2.702-1.901h-2.498c-0.097,0-0.188-0.035-0.272-0.109c-0.063-0.073-0.094-0.158-0.094-0.255
			c0-0.093,0.031-0.178,0.091-0.252c0.06-0.076,0.154-0.112,0.275-0.112H329.87z M332.504,219.913l1.58,0.528
			c0.077,0.028,0.139,0.073,0.189,0.136c0.03,0.048,0.052,0.116,0.063,0.198c0,0.098-0.037,0.183-0.106,0.256
			c-0.061,0.08-0.145,0.12-0.249,0.12l-0.13-0.026l-6.588-2.201c-0.209-0.073-0.314-0.188-0.314-0.345
			c0-0.157,0.105-0.272,0.314-0.345l6.588-2.191l0.13-0.027c0.094,0,0.178,0.041,0.255,0.122c0.066,0.077,0.1,0.162,0.1,0.255
			c0,0.05-0.013,0.103-0.038,0.165c-0.024,0.061-0.094,0.118-0.214,0.17l-1.58,0.528V219.913z M331.754,217.502l-3.222,1.078
			l3.222,1.082V217.502z M330.673,210.95h-2.935v2.2c0,0.205,0.071,0.379,0.209,0.524c0.072,0.07,0.15,0.122,0.24,0.157
			c0.089,0.034,0.183,0.052,0.285,0.052h1.468c0.205,0,0.38-0.07,0.524-0.209c0.063-0.074,0.115-0.154,0.157-0.237
			c0.034-0.104,0.052-0.2,0.052-0.287V210.95z M331.401,212.209l2.761,1.728c0.116,0.073,0.174,0.171,0.174,0.293
			c0,0.094-0.039,0.18-0.117,0.257c-0.073,0.084-0.157,0.124-0.255,0.124c-0.073,0-0.138-0.019-0.197-0.057l-2.365-1.48v0.073
			c0,0.397-0.143,0.74-0.426,1.03c-0.283,0.289-0.629,0.433-1.037,0.433h-1.463c-0.406,0-0.753-0.142-1.037-0.426
			c-0.283-0.283-0.426-0.629-0.426-1.037v-2.56c0-0.244,0.122-0.366,0.366-0.366h6.592c0.115,0,0.207,0.034,0.276,0.104
			c0.059,0.066,0.09,0.154,0.09,0.26c0,0.097-0.031,0.182-0.091,0.255c-0.064,0.073-0.154,0.11-0.277,0.11h-2.566V212.209z
			 M339.373,241.6l0.366,0.017h1.834c0.205,0,0.38-0.07,0.525-0.21c0.061-0.073,0.113-0.152,0.156-0.236
			c0.034-0.105,0.052-0.202,0.052-0.289v-0.735c0-0.204-0.067-0.377-0.204-0.52c-0.136-0.145-0.313-0.216-0.529-0.216h-1.467
			c-0.207,0-0.38,0.07-0.521,0.207c-0.142,0.139-0.213,0.314-0.213,0.529V241.6z M338.645,241.471v-1.324
			c0-0.398,0.143-0.74,0.427-1.031c0.283-0.289,0.629-0.433,1.037-0.433h1.463c0.402,0,0.744,0.142,1.031,0.428
			c0.287,0.287,0.432,0.632,0.432,1.037v0.732c0,0.394-0.142,0.737-0.423,1.027c-0.282,0.291-0.631,0.437-1.04,0.437h-1.829
			c-0.694,0-1.353-0.131-1.978-0.398c-0.431-0.18-0.826-0.448-1.181-0.799c-0.355-0.351-0.633-0.759-0.835-1.222l-0.038-0.157
			c0-0.094,0.038-0.18,0.115-0.256c0.08-0.063,0.169-0.094,0.268-0.094c0.068,0,0.128,0.015,0.178,0.047
			c0.047,0.031,0.098,0.09,0.151,0.177c0.038,0.098,0.077,0.185,0.116,0.265c0.041,0.078,0.093,0.164,0.156,0.253
			c0.102,0.15,0.227,0.304,0.377,0.461c0.285,0.286,0.613,0.505,0.983,0.659l0.293,0.11L338.645,241.471z M342.67,237.221
			c-0.099,0-0.185-0.035-0.256-0.107c-0.071-0.071-0.107-0.157-0.107-0.256c0-0.08,0.037-0.161,0.107-0.243
			c0.071-0.08,0.157-0.12,0.256-0.12c0.089,0,0.17,0.035,0.247,0.106c0.079,0.072,0.118,0.157,0.118,0.257
			c0,0.103-0.035,0.193-0.109,0.266C342.85,237.189,342.764,237.221,342.67,237.221z M336.44,234.298h0.37
			c0.116,0,0.208,0.033,0.28,0.103c0.059,0.066,0.089,0.154,0.089,0.261c0,0.096-0.03,0.182-0.091,0.255
			c-0.063,0.073-0.154,0.109-0.276,0.109h-0.733c-0.244,0-0.366-0.123-0.366-0.367v-2.93c0-0.248,0.1-0.372,0.302-0.372l0.157,0.022
			l6.593,1.828c0.073,0.011,0.136,0.052,0.191,0.122c0.053,0.07,0.08,0.145,0.08,0.224c0,0.107-0.031,0.197-0.091,0.267
			c-0.063,0.07-0.149,0.105-0.261,0.105c-0.052,0-0.087-0.006-0.109-0.017l-6.135-1.698V234.298z M341.423,226.241
			c0.436,0,0.814,0.155,1.134,0.468c0.319,0.312,0.478,0.694,0.478,1.143v0.439c0,0.436-0.156,0.814-0.466,1.134
			c-0.309,0.319-0.692,0.478-1.146,0.478h-4.1c-0.429,0-0.805-0.157-1.128-0.471c-0.324-0.314-0.484-0.694-0.484-1.141v-0.439
			c0-0.435,0.156-0.812,0.468-1.133c0.313-0.319,0.694-0.478,1.144-0.478H341.423z M341.427,226.969h-4.107
			c-0.241,0-0.448,0.085-0.621,0.255c-0.174,0.169-0.259,0.378-0.259,0.626v0.443c0,0.241,0.085,0.448,0.256,0.621
			c0.171,0.172,0.379,0.26,0.624,0.26h4.107c0.241,0,0.449-0.085,0.621-0.256c0.174-0.171,0.259-0.38,0.259-0.625v-0.443
			c0-0.237-0.084-0.444-0.251-0.619S341.678,226.969,341.427,226.969z"/>
		<path class="st1" d="M256.482,227.538h-1.833c-0.398,0-0.74-0.143-1.031-0.426c-0.289-0.283-0.433-0.631-0.433-1.039v-4.393
			c0-0.409,0.143-0.755,0.426-1.038c0.283-0.285,0.629-0.428,1.038-0.428h1.833c0.1,0,0.188,0.038,0.26,0.113
			c0.071,0.073,0.106,0.158,0.106,0.252c0,0.084-0.031,0.164-0.091,0.244c-0.063,0.08-0.154,0.119-0.276,0.119h-1.835
			c-0.205,0-0.379,0.07-0.524,0.209c-0.07,0.071-0.122,0.15-0.157,0.239c-0.034,0.09-0.052,0.184-0.052,0.286v4.401
			c0,0.204,0.07,0.38,0.209,0.524c0.076,0.063,0.154,0.115,0.237,0.157c0.104,0.034,0.2,0.052,0.287,0.052h1.835
			c0.102,0,0.189,0.037,0.261,0.112c0.071,0.073,0.106,0.158,0.106,0.252c0,0.084-0.031,0.164-0.091,0.244
			C256.695,227.499,256.604,227.538,256.482,227.538z M263.049,218.515l-4.026,10.255c-0.025,0.055-0.067,0.112-0.132,0.168
			l-0.098,0.046l-0.1,0.021c-0.105,0-0.194-0.033-0.27-0.099c-0.077-0.066-0.117-0.154-0.117-0.261c0-0.057,0.009-0.102,0.027-0.137
			l4.026-10.256c0.018-0.051,0.059-0.106,0.125-0.165l0.067-0.038c0.044-0.021,0.089-0.032,0.136-0.032
			c0.105,0,0.196,0.034,0.274,0.1c0.077,0.065,0.113,0.152,0.113,0.262C263.074,218.434,263.066,218.478,263.049,218.515z
			 M268.556,224.605h-2.197c-0.398,0-0.74-0.143-1.031-0.426c-0.289-0.285-0.433-0.631-0.433-1.037v-2.561
			c0-0.098,0.035-0.187,0.109-0.272c0.073-0.061,0.158-0.094,0.255-0.094c0.092,0,0.178,0.031,0.252,0.092
			c0.074,0.06,0.112,0.154,0.112,0.274v2.565c0,0.204,0.07,0.379,0.209,0.523c0.074,0.061,0.154,0.113,0.237,0.157
			c0.104,0.033,0.2,0.051,0.287,0.051h2.2v-3.296c0-0.098,0.037-0.187,0.11-0.272c0.073-0.061,0.158-0.094,0.255-0.094
			c0.092,0,0.178,0.031,0.252,0.092c0.074,0.06,0.112,0.154,0.112,0.274v5.492c0,0.403-0.143,0.746-0.429,1.034
			c-0.285,0.287-0.629,0.431-1.035,0.431h-1.829c-0.111,0-0.202-0.033-0.272-0.104c-0.063-0.073-0.094-0.159-0.094-0.26
			c0-0.087,0.032-0.17,0.097-0.247c0.066-0.078,0.155-0.117,0.269-0.117h1.833c0.202,0,0.374-0.069,0.517-0.205
			c0.143-0.136,0.214-0.313,0.214-0.53V224.605z M254.985,229.653h-1.467c-0.11,0-0.201-0.033-0.27-0.103
			c-0.063-0.073-0.096-0.161-0.096-0.261c0-0.087,0.033-0.17,0.097-0.246c0.065-0.079,0.156-0.118,0.269-0.118h1.466
			c0.573,0,1.03,0.185,1.371,0.559c0.306,0.35,0.459,0.769,0.459,1.259c0,0.296-0.057,0.568-0.175,0.816
			c-0.116,0.248-0.294,0.47-0.535,0.67c0.202,0.161,0.371,0.367,0.507,0.625c0.136,0.255,0.203,0.529,0.203,0.823v0.731
			c0,0.5-0.18,0.929-0.539,1.291c-0.359,0.36-0.79,0.54-1.292,0.54h-1.466c-0.11,0-0.201-0.032-0.27-0.098
			c-0.063-0.08-0.096-0.17-0.096-0.266c0-0.084,0.031-0.164,0.092-0.244c0.063-0.08,0.154-0.119,0.276-0.119h1.467
			c0.303,0,0.562-0.107,0.776-0.324c0.216-0.214,0.324-0.472,0.324-0.777v-0.733c0-0.301-0.105-0.56-0.318-0.776
			c-0.21-0.215-0.472-0.325-0.784-0.325h-0.733c-0.112,0-0.203-0.032-0.273-0.098c-0.063-0.08-0.094-0.169-0.094-0.266
			c0-0.084,0.031-0.164,0.093-0.244c0.06-0.08,0.151-0.119,0.274-0.119h0.733c0.325,0,0.593-0.118,0.802-0.352
			c0.178-0.209,0.268-0.465,0.268-0.769c0-0.298-0.086-0.544-0.257-0.739C255.602,229.767,255.332,229.653,254.985,229.653z
			 M258.308,235.874c0-0.1,0.035-0.185,0.107-0.257c0.071-0.071,0.157-0.106,0.256-0.106c0.08,0,0.161,0.035,0.243,0.106
			c0.08,0.072,0.122,0.157,0.122,0.257c0,0.087-0.037,0.17-0.107,0.247c-0.071,0.078-0.157,0.117-0.257,0.117
			c-0.103,0-0.193-0.035-0.266-0.109C258.34,236.053,258.308,235.968,258.308,235.874z M263.897,231.737l-2.367,3.774h2.27
			c0.103,0,0.188,0.038,0.26,0.112c0.071,0.073,0.106,0.159,0.106,0.252c0,0.084-0.03,0.164-0.091,0.244
			c-0.063,0.08-0.154,0.119-0.275,0.119h-2.928c-0.264,0-0.397-0.098-0.397-0.292c0-0.078,0.028-0.169,0.087-0.274l2.706-4.313
			c0.091-0.191,0.136-0.376,0.136-0.55c0-0.313-0.122-0.585-0.366-0.817c-0.116-0.106-0.25-0.192-0.403-0.255
			c-0.154-0.063-0.32-0.094-0.497-0.094c-0.185,0-0.364,0.048-0.533,0.146c-0.171,0.109-0.313,0.248-0.425,0.418
			c-0.027,0.046-0.074,0.089-0.141,0.132l-0.163,0.035c-0.092,0-0.18-0.034-0.259-0.102c-0.078-0.068-0.118-0.152-0.118-0.254
			c0-0.048,0.022-0.119,0.063-0.209c0.168-0.26,0.394-0.475,0.683-0.64c0.139-0.08,0.28-0.143,0.423-0.188
			c0.143-0.045,0.282-0.067,0.419-0.067c0.57,0,1.055,0.189,1.45,0.567c0.397,0.379,0.594,0.83,0.594,1.355
			C264.132,231.137,264.054,231.437,263.897,231.737z M269.288,234.627c0,0.435-0.155,0.814-0.468,1.132
			c-0.312,0.32-0.694,0.478-1.143,0.478h-0.439c-0.436,0-0.814-0.155-1.134-0.465c-0.319-0.311-0.478-0.693-0.478-1.145v-4.101
			c0-0.428,0.157-0.804,0.471-1.128c0.314-0.322,0.694-0.483,1.141-0.483h0.439c0.435,0,0.812,0.155,1.133,0.468
			c0.319,0.312,0.478,0.693,0.478,1.143V234.627z M268.561,234.631v-4.108c0-0.241-0.086-0.448-0.256-0.621
			c-0.169-0.172-0.378-0.259-0.626-0.259h-0.443c-0.241,0-0.448,0.086-0.621,0.257c-0.172,0.171-0.26,0.378-0.26,0.622v4.108
			c0,0.241,0.085,0.448,0.257,0.621c0.17,0.172,0.379,0.259,0.624,0.259h0.443c0.237,0,0.444-0.084,0.619-0.252
			S268.561,234.883,268.561,234.631z"/>
	</g>
</g>
</svg>
