<?xml version="1.0" encoding="utf-8"?>
<!-- Generator: Adobe Illustrator 21.1.0, SVG Export Plug-In . SVG Version: 6.00 Build 0)  -->
<svg version="1.1" id="Слой_1" xmlns="http://www.w3.org/2000/svg" xmlns:xlink="http://www.w3.org/1999/xlink" x="0px" y="0px"
	 viewBox="0 0 73 73" style="enable-background:new 0 0 73 73;" xml:space="preserve">
<style type="text/css">
	.st0{fill:#6DD4D6;}
	.st1{fill:#FEFEFE;}
</style>
<g id="Слой_x0020_1">
	<g id="_789972976">
		<circle class="st0" cx="36.5" cy="36.5" r="36.5"/>
		<circle class="st1" cx="36.5" cy="36.5" r="31.202"/>
		<path class="st0" d="M27.857,43.574c-0.557,0-0.618-0.865-0.618-1.236v-1.312c0.049,0.006,0.1,0.008,0.15,0.013
			c0.062,0.007,0.123,0.012,0.186,0.018c0.292,0.026,0.587,0.044,0.884,0.044h0.032c0.297,0,0.591-0.018,0.882-0.044
			c0.061-0.006,0.127-0.011,0.191-0.018c0.048-0.005,0.099-0.007,0.148-0.013v1.312c0,0.371-0.062,1.236-0.618,1.236H27.857z"/>
		<path class="st0" d="M20.436,32.493v-0.05h1.854v0.071c0.047,2.688,1.834,5.033,4.414,5.789c1.352,0.429,2.802,0.429,4.154,0
			c2.581-0.755,4.371-3.1,4.418-5.789v-0.071h1.236v0.05c0,3.44-2.652,6.468-6.306,7.199c-0.858,0.172-1.738,0.216-2.609,0.128
			c-0.287-0.028-0.572-0.071-0.854-0.13C23.088,38.961,20.436,35.934,20.436,32.493z"/>
		<path class="st0" d="M24.765,19.791c0.499,0,0.904,0.405,0.904,0.904c0,0.499-0.405,0.904-0.904,0.904
			c-0.499,0-0.904-0.405-0.904-0.904C23.86,20.196,24.265,19.791,24.765,19.791z"/>
		<path class="st0" d="M32.185,21.6c-0.499,0-0.904-0.405-0.904-0.904c0-0.499,0.405-0.904,0.904-0.904
			c0.499,0,0.904,0.405,0.904,0.904C33.089,21.195,32.684,21.6,32.185,21.6z"/>
		<path d="M56.256,38.632c-0.274-1.899-1.766-3.391-3.665-3.665v-1.124c0-3.101-2.358-5.627-5.256-5.627
			c-2.815,0-5.171,2.449-5.256,5.459h0.035l-0.035,0.007v12.185c0,3.896-2.913,7.06-6.492,7.06c-3.58,0-6.493-3.168-6.493-7.06
			v-1.055c0.897,0,1.856-0.65,1.856-2.474v-1.555c3.968-1.015,6.802-4.422,6.802-8.286v-1.289h-1.237l-0.026-8.047
			c-0.008-1.49-1.077-2.762-2.543-3.027c-0.317-0.969-1.359-1.498-2.327-1.181c-0.969,0.316-1.498,1.357-1.182,2.326
			c0.317,0.969,1.359,1.498,2.327,1.181c0.519-0.169,0.936-0.559,1.14-1.066c0.792,0.225,1.341,0.945,1.347,1.77l0.028,8.044H34.04
			v1.307c-0.05,2.151-1.492,4.02-3.559,4.613c-1.107,0.352-2.295,0.352-3.402,0c-2.065-0.595-3.504-2.464-3.551-4.613v-1.307h-1.856
			v-8.038c0.004-0.836,0.566-1.566,1.373-1.784c0.377,0.959,1.458,1.429,2.416,1.054c0.958-0.377,1.429-1.459,1.054-2.416
			c-0.377-0.958-1.459-1.431-2.416-1.054c-0.519,0.204-0.919,0.63-1.091,1.16c-1.482,0.254-2.568,1.537-2.572,3.04v8.038H19.2v1.286
			c0,3.868,2.834,7.278,6.801,8.289v1.555c0,1.824,0.958,2.474,1.856,2.474v1.055c0,4.577,3.467,8.296,7.73,8.296
			c4.262,0,7.729-3.724,7.729-8.296V33.711c0.062-2.347,1.866-4.256,4.02-4.256c2.216,0,4.02,1.969,4.02,4.391v1.122
			c-2.367,0.341-4.008,2.536-3.667,4.903c0.341,2.365,2.536,4.007,4.903,3.665C54.956,43.194,56.598,40.999,56.256,38.632z
			 M32.185,21.314c-0.341,0-0.618-0.277-0.618-0.618s0.277-0.618,0.618-0.618c0.341,0,0.618,0.277,0.618,0.618
			S32.526,21.314,32.185,21.314z M24.765,20.077c0.341,0,0.618,0.277,0.618,0.618s-0.277,0.618-0.618,0.618
			s-0.618-0.277-0.618-0.618S24.423,20.077,24.765,20.077z M20.436,32.493v-0.05h1.854v0.071c0.047,2.688,1.834,5.033,4.414,5.789
			c1.352,0.429,2.802,0.429,4.154,0c2.581-0.755,4.371-3.1,4.418-5.789v-0.071h1.236v0.05c0,3.44-2.652,6.468-6.306,7.199
			c-0.858,0.172-1.738,0.216-2.609,0.128c-0.287-0.028-0.572-0.071-0.854-0.13C23.088,38.961,20.436,35.934,20.436,32.493z
			 M27.857,43.574c-0.557,0-0.618-0.865-0.618-1.236v-1.312c0.049,0.006,0.1,0.008,0.15,0.013c0.062,0.007,0.123,0.012,0.186,0.018
			c0.292,0.026,0.587,0.044,0.884,0.044h0.032c0.297,0,0.591-0.018,0.882-0.044c0.061-0.006,0.127-0.011,0.191-0.018
			c0.048-0.005,0.099-0.007,0.148-0.013v1.312c0,0.371-0.062,1.236-0.618,1.236H27.857z M51.973,42.338
			c-1.707,0-3.092-1.385-3.092-3.092s1.385-3.092,3.092-3.092c1.707,0,3.092,1.385,3.092,3.092
			C55.062,40.953,53.679,42.335,51.973,42.338z"/>
		<path d="M51.973,37.391c-1.024,0-1.856,0.83-1.856,1.855s0.831,1.856,1.856,1.856c1.024,0,1.854-0.831,1.854-1.856
			S52.997,37.391,51.973,37.391z"/>
		<path class="st0" d="M51.973,39.864c-0.341,0-0.618-0.277-0.618-0.618s0.277-0.618,0.618-0.618c0.341,0,0.618,0.277,0.618,0.618
			S52.314,39.864,51.973,39.864z"/>
	</g>
</g>
</svg>
