<?xml version="1.0" encoding="utf-8"?>
<!-- Generator: Adobe Illustrator 21.1.0, SVG Export Plug-In . SVG Version: 6.00 Build 0)  -->
<svg version="1.1" id="Слой_1" xmlns="http://www.w3.org/2000/svg" xmlns:xlink="http://www.w3.org/1999/xlink" x="0px" y="0px"
	 viewBox="0 0 73 73" style="enable-background:new 0 0 73 73;" xml:space="preserve">
<style type="text/css">
	.st0{fill:#F96058;}
	.st1{fill:#FEFEFE;}
	.st2{fill:#CF7AC6;}
	.st3{fill:#BF61B6;}
	.st4{fill:#E94141;}
	.st5{fill:#FFA511;}
	.st6{fill:#FFDC13;}
	.st7{fill:#F48500;}
	.st8{fill:#0064DB;}
	.st9{fill:#0050C4;}
	.st10{fill:#0B9CFF;}
</style>
<g id="Слой_x0020_1">
	<g id="_789968848">
		<circle class="st0" cx="36.5" cy="36.5" r="36.5"/>
		<circle class="st1" cx="36.5" cy="36.5" r="31.202"/>
		<path class="st2" d="M51.443,26.717v-2.454c0-0.264-0.214-0.478-0.479-0.478H48.28v3.41h2.683
			C51.228,27.195,51.443,26.981,51.443,26.717z"/>
		<path class="st2" d="M51.443,32.1v-2.453c0-0.265-0.214-0.479-0.479-0.479H48.28v3.411h2.683
			C51.228,32.579,51.443,32.365,51.443,32.1z"/>
		<path class="st2" d="M51.443,37.484V35.03c0-0.264-0.214-0.478-0.479-0.478H48.28v3.41h2.683
			C51.228,37.962,51.443,37.748,51.443,37.484z"/>
		<path class="st3" d="M50.961,23.785h-0.712v2.019c0,0.265-0.215,0.482-0.482,0.482H48.28v0.909h2.681
			c0.265,0,0.482-0.215,0.482-0.481v-2.447C51.443,24,51.226,23.785,50.961,23.785z"/>
		<path class="st3" d="M50.961,29.168h-0.712v2.019c0,0.266-0.215,0.482-0.482,0.482H48.28v0.91h2.681
			c0.265,0,0.482-0.217,0.482-0.482V29.65C51.443,29.385,51.226,29.168,50.961,29.168z"/>
		<path class="st3" d="M50.961,34.553h-0.712v2.019c0,0.266-0.215,0.482-0.482,0.482H48.28v0.909h2.681
			c0.265,0,0.482-0.215,0.482-0.482v-2.447C51.443,34.768,51.226,34.553,50.961,34.553z"/>
		<path class="st2" d="M42.551,39.449V22.124c0-0.265,0.214-0.479,0.478-0.479h5.464c0.265,0,0.479,0.214,0.479,0.479v17.326
			c0,0.265-0.214,0.479-0.479,0.479h-5.464C42.765,39.929,42.551,39.714,42.551,39.449z"/>
		<path class="st0" d="M31.01,21.644h-2.454c-0.265,0-0.479,0.214-0.479,0.479v2.683h3.411v-2.683
			C31.488,21.859,31.273,21.644,31.01,21.644z"/>
		<path class="st0" d="M36.393,21.644h-2.454c-0.264,0-0.478,0.214-0.478,0.479v2.683h3.41v-2.683
			C36.871,21.859,36.657,21.644,36.393,21.644z"/>
		<path class="st4" d="M31.006,21.644h-1.325c0.266,0,0.482,0.217,0.482,0.482v2.681h1.325v-2.681
			C31.488,21.861,31.272,21.644,31.006,21.644z"/>
		<path class="st4" d="M36.389,21.644h-1.323c0.265,0,0.482,0.217,0.482,0.482v2.681h1.323v-2.681
			C36.871,21.861,36.655,21.644,36.389,21.644z"/>
		<path class="st0" d="M38.55,30.536H26.415c-0.264,0-0.478-0.214-0.478-0.478v-5.466c0-0.264,0.214-0.478,0.478-0.478H38.55
			c0.264,0,0.478,0.214,0.478,0.478v5.466C39.028,30.322,38.813,30.536,38.55,30.536z"/>
		<path class="st3" d="M48.491,21.644h-1.175v16.8c0,0.265-0.215,0.481-0.482,0.481h-4.283v0.522c0,0.265,0.215,0.482,0.482,0.482
			h5.459c0.266,0,0.481-0.217,0.481-0.482V22.126C48.972,21.861,48.757,21.644,48.491,21.644z"/>
		<path class="st4" d="M38.546,24.115h-1.175v4.937c0,0.266-0.215,0.482-0.481,0.482H25.937v0.521c0,0.266,0.215,0.482,0.482,0.482
			h12.127c0.266,0,0.482-0.215,0.482-0.482v-5.459C39.028,24.33,38.812,24.115,38.546,24.115z"/>
		<path class="st5" d="M44.958,43.658H22.036c-0.265,0-0.479-0.214-0.479-0.478v-10.5c0-0.265,0.214-0.479,0.479-0.479h22.922
			c0.265,0,0.479,0.214,0.479,0.479v10.5C45.438,43.443,45.224,43.658,44.958,43.658z"/>
		<g>
			<path class="st6" d="M27.108,35.41c0,0.942-0.763,1.705-1.705,1.705s-1.705-0.763-1.705-1.705c0-0.942,0.763-1.705,1.705-1.705
				S27.108,34.468,27.108,35.41z"/>
			<path class="st6" d="M27.108,40.448c0,0.942-0.763,1.705-1.705,1.705s-1.705-0.763-1.705-1.705c0-0.942,0.763-1.705,1.705-1.705
				S27.108,39.506,27.108,40.448z"/>
			<path class="st6" d="M32.483,35.41c0,0.942-0.763,1.705-1.705,1.705c-0.942,0-1.705-0.763-1.705-1.705
				c0-0.942,0.763-1.705,1.705-1.705C31.72,33.705,32.483,34.468,32.483,35.41z"/>
			<path class="st6" d="M32.483,40.448c0,0.942-0.763,1.705-1.705,1.705c-0.942,0-1.705-0.763-1.705-1.705
				c0-0.942,0.763-1.705,1.705-1.705C31.72,38.743,32.483,39.506,32.483,40.448z"/>
			<path class="st6" d="M37.875,35.41c0,0.942-0.763,1.705-1.705,1.705c-0.942,0-1.705-0.763-1.705-1.705
				c0-0.942,0.763-1.705,1.705-1.705C37.112,33.705,37.875,34.468,37.875,35.41z"/>
			<path class="st6" d="M37.875,40.448c0,0.942-0.763,1.705-1.705,1.705c-0.942,0-1.705-0.763-1.705-1.705
				c0-0.942,0.763-1.705,1.705-1.705C37.112,38.743,37.875,39.506,37.875,40.448z"/>
			<path class="st6" d="M43.25,35.41c0,0.942-0.763,1.705-1.705,1.705c-0.942,0-1.705-0.763-1.705-1.705
				c0-0.942,0.763-1.705,1.705-1.705C42.487,33.705,43.25,34.468,43.25,35.41z"/>
			<path class="st6" d="M43.25,40.448c0,0.942-0.763,1.705-1.705,1.705c-0.942,0-1.705-0.763-1.705-1.705
				c0-0.942,0.763-1.705,1.705-1.705C42.487,38.743,43.25,39.506,43.25,40.448z"/>
		</g>
		<path class="st7" d="M44.956,32.2h-1.195v9.725c0,0.265-0.215,0.482-0.482,0.482H21.557v0.769c0,0.266,0.215,0.482,0.481,0.482
			h22.917c0.266,0,0.481-0.215,0.481-0.482V32.682C45.438,32.415,45.222,32.2,44.956,32.2z"/>
		<path class="st8" d="M49.462,51.355H37.319c-0.264,0-0.478-0.214-0.478-0.479v-10.5c0-0.264,0.214-0.478,0.478-0.478h12.143
			c0.264,0,0.478,0.214,0.478,0.478v10.5C49.94,51.141,49.726,51.355,49.462,51.355z"/>
		<path class="st9" d="M49.459,39.898h-1.194v9.724c0,0.266-0.215,0.482-0.481,0.482H36.841v0.77c0,0.266,0.215,0.481,0.481,0.481
			h12.136c0.266,0,0.481-0.215,0.481-0.481V40.379C49.94,40.113,49.725,39.898,49.459,39.898z"/>
		<path class="st10" d="M42.408,43.108c0,0.942-0.763,1.705-1.705,1.705c-0.942,0-1.705-0.763-1.705-1.705
			c0-0.942,0.763-1.705,1.705-1.705C41.645,41.403,42.408,42.166,42.408,43.108z"/>
		<path class="st10" d="M42.408,48.146c0,0.941-0.763,1.705-1.705,1.705c-0.942,0-1.705-0.764-1.705-1.705
			c0-0.942,0.763-1.705,1.705-1.705C41.645,46.441,42.408,47.204,42.408,48.146z"/>
		<path class="st10" d="M47.783,43.108c0,0.942-0.763,1.705-1.705,1.705c-0.942,0-1.705-0.763-1.705-1.705
			c0-0.942,0.763-1.705,1.705-1.705C47.02,41.403,47.783,42.166,47.783,43.108z"/>
		<path class="st10" d="M47.783,48.146c0,0.941-0.763,1.705-1.705,1.705c-0.942,0-1.705-0.764-1.705-1.705
			c0-0.942,0.763-1.705,1.705-1.705C47.02,46.441,47.783,47.204,47.783,48.146z"/>
		<path d="M50.96,27.647c0.516,0,0.934-0.419,0.934-0.934v-2.447c0-0.513-0.418-0.934-0.934-0.934h-1.537v-1.207
			c0-0.515-0.418-0.932-0.932-0.932h-5.46c-0.514,0-0.932,0.418-0.932,0.932v4.414c0,1.737,0,3.472,0,5.209h-20.06
			c-0.514,0-0.932,0.418-0.932,0.934v10.494c0,0.513,0.418,0.931,0.932,0.931h14.35v6.766c0,0.514,0.418,0.932,0.934,0.932h12.136
			c0.515,0,0.934-0.418,0.934-0.932V40.379c0-0.516-0.418-0.934-0.934-0.934h-0.035v-1.033h1.537c0.516,0,0.934-0.418,0.934-0.932
			v-2.447c0-0.514-0.418-0.932-0.934-0.932h-1.537V33.03h1.537c0.516,0,0.934-0.418,0.934-0.932v-2.447
			c0-0.514-0.418-0.934-0.934-0.934h-1.537v-1.07H50.96z M43.002,26.54v-4.414c0-0.015,0.014-0.03,0.029-0.03h5.46
			c0.016,0,0.029,0.014,0.029,0.03v17.32h-2.631v-6.763c0-0.516-0.419-0.934-0.934-0.934h-1.953
			C43.002,30.012,43.002,28.277,43.002,26.54z M22.039,43.205c-0.015,0-0.03-0.013-0.03-0.028V32.683
			c0-0.016,0.014-0.031,0.03-0.031h22.916c0.017,0,0.031,0.014,0.031,0.031v6.763h-1.531c-0.367-0.702-1.099-1.154-1.91-1.154
			c-0.811,0-1.543,0.452-1.911,1.154h-1.553c-0.368-0.702-1.101-1.154-1.912-1.154c-1.188,0-2.154,0.968-2.154,2.156
			c0,1.189,0.967,2.156,2.154,2.156c0.075,0,0.148-0.002,0.22-0.011v0.612H22.039z M42.298,39.446h-1.506
			c0.213-0.159,0.474-0.252,0.753-0.252C41.823,39.194,42.086,39.287,42.298,39.446z M36.389,41.681
			c-0.072,0.013-0.145,0.02-0.218,0.02c-0.692,0-1.255-0.562-1.255-1.253c0-0.691,0.563-1.254,1.255-1.254
			c0.31,0,0.603,0.116,0.825,0.312c-0.354,0.133-0.608,0.473-0.608,0.874V41.681z M49.489,40.379v10.494
			c0,0.015-0.014,0.029-0.031,0.029H37.323c-0.016,0-0.031-0.014-0.031-0.029c0-3.498,0-6.996,0-10.494
			c0-0.016,0.014-0.031,0.031-0.031L49.489,40.379z M50.96,24.236c0.016,0,0.031,0.014,0.031,0.031v2.447
			c0,0.016-0.014,0.031-0.031,0.031h-1.537v-2.508H50.96z M50.96,35.003c0.016,0,0.031,0.013,0.031,0.031v2.447
			c0,0.018-0.014,0.031-0.031,0.031h-1.537v-2.508H50.96z M50.96,29.62c0.016,0,0.031,0.013,0.031,0.031v2.447
			c0,0.015-0.014,0.03-0.031,0.03h-1.537V29.62H50.96z"/>
		<path d="M26.419,30.988h12.127c0.515,0,0.932-0.419,0.932-0.934v-5.459c0-0.514-0.418-0.932-0.932-0.932h-1.224v-1.538
			c0-0.515-0.418-0.932-0.932-0.932h-2.447c-0.515,0-0.932,0.418-0.932,0.932v0.024v1.514h-1.071v-1.538
			c0-0.515-0.418-0.932-0.932-0.932h-2.447c-0.515,0-0.934,0.418-0.934,0.932v1.538h-1.207c-0.515,0-0.934,0.418-0.934,0.932v5.459
			C25.485,30.569,25.904,30.988,26.419,30.988z M33.912,22.15v-0.024c0-0.015,0.013-0.03,0.031-0.03h2.447
			c0.018,0,0.03,0.014,0.03,0.03v1.538h-2.507V22.15z M28.529,22.126c0-0.015,0.013-0.03,0.031-0.03h2.447
			c0.015,0,0.029,0.014,0.029,0.03v1.538h-2.507V22.126z M26.388,24.596c0-0.016,0.014-0.031,0.031-0.031h12.127
			c0.017,0,0.031,0.014,0.031,0.031v5.459c0,0.017-0.014,0.031-0.031,0.031H26.419c-0.017,0-0.031-0.014-0.031-0.031V24.596z"/>
		<path d="M25.403,33.254c-1.189,0-2.156,0.967-2.156,2.156s0.967,2.157,2.156,2.157s2.156-0.968,2.156-2.157
			S26.592,33.254,25.403,33.254z M25.403,36.664c-0.691,0-1.254-0.563-1.254-1.254c0-0.691,0.563-1.254,1.254-1.254
			s1.254,0.563,1.254,1.254C26.657,36.101,26.094,36.664,25.403,36.664z"/>
		<path d="M25.403,38.292c-1.189,0-2.156,0.967-2.156,2.156c0,1.189,0.967,2.157,2.156,2.157s2.156-0.968,2.156-2.157
			C27.559,39.259,26.592,38.292,25.403,38.292z M25.403,41.702c-0.691,0-1.254-0.563-1.254-1.254c0-0.691,0.563-1.253,1.254-1.253
			s1.254,0.562,1.254,1.253C26.657,41.139,26.094,41.702,25.403,41.702z"/>
		<path d="M30.778,33.254c-0.679,0-1.306,0.31-1.717,0.851c-0.152,0.198-0.113,0.482,0.086,0.632
			c0.198,0.151,0.482,0.113,0.632-0.086c0.239-0.314,0.603-0.496,0.998-0.496c0.691,0,1.254,0.563,1.254,1.254
			c0,0.691-0.563,1.254-1.254,1.254c-0.394,0-0.758-0.18-0.997-0.493c-0.152-0.199-0.434-0.237-0.634-0.085
			c-0.198,0.151-0.235,0.434-0.085,0.632c0.412,0.539,1.037,0.849,1.715,0.849c1.189,0,2.156-0.968,2.156-2.157
			S31.967,33.254,30.778,33.254z"/>
		<path d="M30.778,38.292c-1.189,0-2.157,0.967-2.157,2.156c0,1.189,0.968,2.157,2.157,2.157c1.189,0,2.156-0.968,2.156-2.157
			C32.934,39.259,31.967,38.292,30.778,38.292z M30.778,41.702c-0.691,0-1.254-0.563-1.254-1.254c0-0.691,0.563-1.253,1.254-1.253
			c0.691,0,1.254,0.562,1.254,1.253C32.032,41.139,31.469,41.702,30.778,41.702z"/>
		<path d="M36.17,37.567c1.189,0,2.157-0.968,2.157-2.157s-0.968-2.156-2.157-2.156c-1.189,0-2.157,0.967-2.157,2.156
			S34.981,37.567,36.17,37.567z M36.17,34.156c0.691,0,1.254,0.563,1.254,1.254c0,0.691-0.563,1.254-1.254,1.254
			c-0.691,0-1.254-0.563-1.254-1.254C34.916,34.719,35.479,34.156,36.17,34.156z"/>
		<path d="M41.545,37.567c1.189,0,2.156-0.968,2.156-2.157s-0.967-2.156-2.156-2.156s-2.157,0.967-2.157,2.156
			S40.356,37.567,41.545,37.567z M41.545,34.156c0.691,0,1.254,0.563,1.254,1.254c0,0.691-0.563,1.254-1.254,1.254
			s-1.254-0.563-1.254-1.254C40.291,34.719,40.854,34.156,41.545,34.156z"/>
		<path d="M40.703,40.951c-1.189,0-2.156,0.968-2.156,2.157c0,1.189,0.967,2.156,2.156,2.156c1.189,0,2.157-0.967,2.157-2.156
			C42.86,41.918,41.892,40.951,40.703,40.951z M40.703,44.36c-0.691,0-1.254-0.562-1.254-1.253c0-0.691,0.563-1.254,1.254-1.254
			c0.691,0,1.254,0.563,1.254,1.254C41.957,43.799,41.394,44.36,40.703,44.36z"/>
		<path d="M40.703,45.989c-1.189,0-2.156,0.968-2.156,2.157s0.967,2.156,2.156,2.156c1.189,0,2.157-0.967,2.157-2.156
			S41.892,45.989,40.703,45.989z M40.703,49.399c-0.691,0-1.254-0.562-1.254-1.253c0-0.691,0.563-1.254,1.254-1.254
			c0.691,0,1.254,0.563,1.254,1.254C41.957,48.837,41.394,49.399,40.703,49.399z"/>
		<path d="M43.921,43.108c0,1.189,0.968,2.156,2.157,2.156s2.157-0.967,2.157-2.156c0-1.189-0.968-2.157-2.157-2.157
			S43.921,41.918,43.921,43.108z M46.078,41.854c0.691,0,1.254,0.563,1.254,1.254c0,0.691-0.563,1.253-1.254,1.253
			c-0.691,0-1.254-0.562-1.254-1.253C44.824,42.416,45.387,41.854,46.078,41.854z"/>
		<path d="M46.078,45.989c-1.189,0-2.157,0.968-2.157,2.157s0.968,2.156,2.157,2.156s2.157-0.967,2.157-2.156
			S47.267,45.989,46.078,45.989z M46.078,49.399c-0.691,0-1.254-0.562-1.254-1.253c0-0.691,0.563-1.254,1.254-1.254
			c0.691,0,1.254,0.563,1.254,1.254C47.332,48.837,46.769,49.399,46.078,49.399z"/>
	</g>
</g>
</svg>
