<?xml version="1.0" encoding="UTF-8"?>
<!DOCTYPE svg PUBLIC "-//W3C//DTD SVG 1.0//EN" "http://www.w3.org/TR/2001/REC-SVG-20010904/DTD/svg10.dtd">
<!-- Creator: CorelDRAW X7 -->
<svg xmlns="http://www.w3.org/2000/svg" xml:space="preserve" width="134px" height="172px" version="1.0" style="shape-rendering:geometricPrecision; text-rendering:geometricPrecision; image-rendering:optimizeQuality; fill-rule:evenodd; clip-rule:evenodd"
viewBox="0 0 3141545 4038022"
 xmlns:xlink="http://www.w3.org/1999/xlink">
 <defs>
  <style type="text/css">
   <![CDATA[
    .fil1 {fill:#5B5B5B}
    .fil0 {fill:#A2D9F7}
    .fil3 {fill:#FEFEFE}
    .fil2 {fill:#5B5B5B;fill-rule:nonzero}
   ]]>
  </style>
 </defs>
 <g id="Слой_x0020_1">
  <metadata id="CorelCorpID_0Corel-Layer"/>
  <g id="_1005450784">
   <polygon class="fil0" points="3141545,3358003 3141545,806949 3141545,607358 3141545,573931 2956293,573931 2863680,573931 2863680,806949 1980457,806949 1980457,573931 1765890,573931 1765890,55907 1727850,55907 1697979,55907 89111,55907 21201,55907 21173,55907 21173,74329 21201,74329 21201,100115 21173,100115 21173,130597 21201,130597 21201,573931 0,573931 0,607358 0,806949 0,3048683 239075,3048683 239075,3968111 2874322,3968111 2874322,3358003 "/>
   <path class="fil1" d="M1553851 2591094l0 -12476 277615 0 0 -11170 17867 0 0 -25258 332966 -78136 -1945 -9086 -331271 77747 -17617 0 0 -5669 -277615 0 0 -1720097 468231 0 42263 0 706723 0 185225 0 69716 0 0 1720097 -734704 0 -53683 0 0 5669 -17506 0 0 34733 17506 0 0 11170 0 215901 10753 0 0 15394 34733 0 0 -15394 8197 0 0 -215901 734704 0 0 764991 -734704 0 0 -246355 -8197 0 0 -14449 -25258 0 -78135 -235102 -9114 1973 77774 233407 0 14171 -10753 0 0 246355 0 51572 0 93974 10753 0 0 12143 34733 0 0 -12143 8197 0 0 -93974 560649 0 0 337578 0 124568 -560649 0 0 -121289 -8197 0 0 -13087 -25258 0 -78135 -183864 -9114 1973 77774 182141 0 12837 -10753 0 0 121289 -9281 0 0 68188 -24508 0 0 25258 -356279 78135 1973 9114 354556 -77774 24258 0 0 7863 872469 0 0 -1055 40735 0 0 -3160107 0 -199591 0 -33427 -185252 0 -185225 0 -706723 0 -42263 0 -256192 0 0 -573931 -38040 0 -29871 0 -1608868 0 -67910 0 -28 0 0 18422 28 0 0 25759 -28 0 0 30481 28 0 0 499269 -21201 0 0 33427 0 199591 0 3161162 25452 0 90084 0 1682003 0 0 -7863 12226 0 0 -34733 -12226 0 0 -68188 -243688 0 0 -910371 -6919 0 0 -15782 -34733 0 0 15782 -7308 0 0 910371 -1234445 0 0 -189699 0 -176361 0 -393041 0 -13976 6086 0 0 -9337 -6086 0 0 -49543 -62742 0 -92168 0 0 -2218421 188588 0 0 -96392 408601 0 0 -45181 375951 0 0 32649 -364559 57880 1473 9169 363086 -57657 0 3140 37179 0 0 96392 379036 0 0 1784145 7308 0 0 15644 -77747 284673 9086 1973 78164 -286368 25230 0 0 -15922 6919 0zm1472158 809422l-92918 68049 -18395 197812 0 -271196 111313 0 0 5335zm-108395 332243l23563 -257470 84832 -63242 0 320712 -108395 0zm-2802078 -241492l92168 0 0 -393041 -17033 0 -43708 32566 -31427 343719 0 16756zm92168 176361l-92168 0 0 189699 92168 0 0 -189699zm-33510 -569402l-35317 25842 -23341 250940 0 -276782 58658 0zm1890151 -2300475l706723 0 0 -93418 -706723 0 0 93418zm0 -121427l706723 0 0 -93196 -706723 0 0 93196zm-582934 2398589l0 9337 -50210 0 0 -9337 50210 0zm-100420 0l0 9337 -50183 0 0 -9337 50183 0zm-100393 0l0 9337 -50210 0 0 -9337 50210 0zm-100421 0l0 9337 -50182 0 0 -9337 50182 0zm-100392 0l0 9337 -50211 0 0 -9337 50211 0zm-100393 0l0 9337 -50210 0 0 -9337 50210 0zm-100421 0l0 9337 -50210 0 0 -9337 50210 0zm-100392 0l0 9337 -50211 0 0 -9337 50211 0zm-100421 0l0 9337 -50210 0 0 -9337 50210 0zm-100393 0l0 9337 -50210 0 0 -9337 50210 0zm-100420 0l0 9337 -50210 0 0 -9337 50210 0zm-100393 0l0 9337 -50210 0 0 -9337 50210 0zm-72828 -2424875l408601 0 375951 0 37179 0 0 -76107 572124 0 0 -499269 -1608868 0 0 499269 215013 0 0 76107zm1393855 -605857l-1608868 0 0 -25759 1608868 0 0 25759z"/>
   <path class="fil2" d="M584601 1820129l37901 -37567c889,-806 1917,-1223 3084,-1223 1111,0 2140,445 3112,1362 973,917 1473,2000 1473,3251 0,778 -473,1778 -1362,3028l-26786 26703 27620 48849 639 2390c0,1167 -500,2139 -1473,3001 -917,889 -2000,1361 -3306,1361 -1445,0 -2696,-778 -3779,-2362l-26398 -46903 -10725 10531 0 34233c0,1417 -417,2556 -1278,3417 -806,723 -1890,1084 -3196,1084 -1195,0 -2250,-361 -3140,-1111 -889,-778 -1333,-1890 -1333,-3390l0 -81081c0,-1140 444,-2168 1389,-3057 889,-889 1945,-1306 3084,-1306 1139,0 2195,334 3140,1028 889,750 1334,1890 1334,3335l0 34427zm112313 33149c0,4946 -1751,9170 -5252,12699 -3501,3529 -7752,5307 -12698,5307l-17978 0c-4890,0 -9114,-1750 -12643,-5252 -3557,-3473 -5335,-7724 -5335,-12754l0 -53961c0,-5002 1751,-9253 5224,-12754 3501,-3473 7752,-5224 12754,-5224l17978 0c4974,0 9225,1751 12726,5252 3473,3529 5224,7752 5224,12726l0 53961zm-8919 56l0 -54045c0,-2556 -862,-4668 -2557,-6419 -1695,-1722 -3862,-2611 -6474,-2611l-18006 0c-2528,0 -4668,861 -6446,2584 -862,861 -1501,1834 -1917,2917 -417,1112 -640,2279 -640,3529l0 54045c0,2529 834,4668 2557,6446 917,751 1889,1390 2917,1918 1279,417 2446,639 3529,639l18006 0c2501,0 4613,-834 6391,-2529 1750,-1667 2640,-3834 2640,-6474zm97113 13449c0,1417 -389,2556 -1194,3417 -862,723 -1973,1084 -3279,1084 -1028,0 -2029,-361 -3001,-1111 -1000,-778 -1473,-1890 -1473,-3390l0 -64187 -18589 31065c-1111,1945 -2417,2890 -3918,2890 -1306,0 -2584,-945 -3890,-2890l-18700 -31065 0 64187c0,1417 -417,2556 -1278,3417 -806,723 -1890,1084 -3196,1084 -1195,0 -2251,-361 -3140,-1111 -889,-751 -1334,-1890 -1334,-3390l0 -80526c0,-1695 445,-2973 1279,-3834 778,-889 1722,-1362 2834,-1362 806,0 1528,222 2167,639 639,445 1334,1195 2056,2251l23202 38540 23091 -38540c1028,-1917 2473,-2890 4307,-2890 1028,0 2000,473 2889,1417 778,973 1167,2251 1167,3779l0 80526zm62909 -49433l0 -31537c0,-1195 417,-2251 1334,-3140 889,-917 1945,-1334 3112,-1334 1139,0 2195,361 3112,1112 917,750 1362,1889 1362,3362l0 80859c0,1278 -445,2417 -1390,3389 -1083,806 -2111,1223 -3140,1223 -1083,0 -2139,-361 -3139,-1084 -834,-722 -1251,-1861 -1251,-3362l0 -40540 -36039 0 0 40485c0,1417 -417,2556 -1278,3417 -806,723 -1890,1084 -3196,1084 -1194,0 -2250,-361 -3139,-1111 -890,-751 -1334,-1890 -1334,-3390l0 -80915c0,-1195 444,-2306 1334,-3334 889,-778 1945,-1167 3139,-1167 1140,0 2196,389 3085,1139 917,750 1389,1862 1389,3390l0 31454 36039 0zm42708 31455l-6502 19395c-333,945 -889,1695 -1667,2306 -584,389 -1417,639 -2418,778 -1222,0 -2250,-445 -3167,-1306 -973,-750 -1473,-1778 -1473,-3056l306 -1612 27064 -80914c889,-2557 2306,-3863 4223,-3863 1918,0 3335,1306 4224,3863l26925 80914 334 1612c0,1167 -501,2195 -1501,3139 -945,806 -2001,1223 -3140,1223 -611,0 -1250,-167 -2028,-472 -750,-278 -1445,-1140 -2084,-2612l-6475 -19395 -32621 0zm29621 -9225l-13255 -39568 -13282 39568 26537 0zm40012 -49321l-17978 0c-1361,0 -2501,-389 -3334,-1195 -778,-973 -1167,-2084 -1167,-3251 0,-1056 361,-2029 1111,-3029 751,-973 1890,-1445 3390,-1445l44931 0c1250,0 2279,445 3168,1362 889,917 1306,1972 1306,3112 0,1028 -362,2000 -1112,3001 -750,972 -1889,1445 -3362,1445l-18006 0 0 76524c0,1417 -416,2556 -1278,3417 -806,723 -1889,1084 -3195,1084 -1167,0 -2223,-361 -3140,-1111 -889,-778 -1334,-1890 -1334,-3390l0 -76524zm47237 58546l-6502 19395c-333,945 -889,1695 -1667,2306 -583,389 -1417,639 -2417,778 -1223,0 -2251,-445 -3168,-1306 -973,-750 -1473,-1778 -1473,-3056l306 -1612 27064 -80914c889,-2557 2306,-3863 4224,-3863 1917,0 3334,1306 4223,3863l26925 80914 334 1612c0,1167 -500,2195 -1501,3139 -945,806 -2000,1223 -3140,1223 -611,0 -1250,-167 -2028,-472 -750,-278 -1445,-1140 -2084,-2612l-6474 -19395 -32622 0zm29621 -9225l-13254 -39568 -13282 39568 26536 0zm-311932 134042c0,1417 -417,2556 -1278,3418 -806,722 -1862,1083 -3196,1083 -1167,0 -2222,-361 -3139,-1111 -890,-750 -1334,-1890 -1334,-3390l0 -70106 -10309 10309c-917,917 -1945,1362 -3112,1362 -1056,0 -2112,-445 -3112,-1362 -945,-944 -1445,-2000 -1445,-3223 0,-1028 472,-2056 1361,-3084l17951 -18034c583,-611 1222,-1083 1861,-1472 639,-362 1334,-556 2084,-556 751,0 1612,472 2584,1361 723,945 1084,2223 1084,3807l0 80998zm58519 -22341l8975 0c1250,0 2306,473 3167,1390 889,917 1334,1945 1334,3084 0,1028 -389,2029 -1111,3001 -751,1000 -1890,1473 -3390,1473l-8975 0 0 13421c0,1417 -417,2556 -1279,3390 -805,722 -1889,1083 -3195,1083 -1195,0 -2251,-361 -3140,-1111 -889,-750 -1334,-1862 -1334,-3362l0 -13421 -27036 0c-3112,0 -4696,-1195 -4696,-3640l139 -1084 278 -1028 17950 -63020c278,-889 778,-1723 1556,-2445l834 -445c500,-278 1083,-389 1750,-389 1306,0 2390,417 3251,1278 945,806 1417,1862 1417,3168l-194 1334 -16367 57323 21118 0 0 -13504c0,-1195 445,-2306 1334,-3334 889,-778 1945,-1167 3140,-1167 1139,0 2195,361 3084,1111 917,778 1390,1890 1390,3390l0 13504zm31398 22369c0,-1223 445,-2279 1306,-3168 889,-861 1945,-1306 3168,-1306 972,0 1973,445 2973,1306 1000,889 1501,1945 1501,3168 0,1083 -445,2084 -1334,3028 -862,973 -1917,1445 -3140,1445 -1278,0 -2362,-444 -3279,-1333 -806,-945 -1195,-2001 -1195,-3140zm36095 -40513l-194 4501 0 22535c0,2529 833,4668 2584,6447 889,750 1861,1389 2889,1917 1279,417 2473,639 3557,639l9031 0c2501,0 4612,-834 6363,-2529 1778,-1667 2667,-3834 2667,-6474l0 -18005c0,-2557 -861,-4669 -2556,-6419 -1695,-1723 -3862,-2612 -6474,-2612l-17867 0zm1584 -8947l16255 0c4890,0 9086,1778 12671,5251 3556,3474 5335,7725 5335,12727l0 17977c0,4946 -1779,9142 -5280,12671 -3529,3529 -7752,5307 -12726,5307l-9003 0c-4835,0 -9030,-1722 -12615,-5196 -3557,-3473 -5363,-7724 -5363,-12782l0 -22451c0,-8531 1612,-16616 4891,-24286 2195,-5307 5501,-10169 9808,-14532 4335,-4362 9337,-7780 15033,-10253l1917 -445c1167,0 2223,445 3168,1390 750,1000 1139,2084 1139,3278 0,862 -194,1584 -583,2196 -362,611 -1084,1222 -2168,1861 -1195,473 -2278,945 -3251,1445 -972,500 -2001,1139 -3112,1890 -1834,1250 -3723,2778 -5641,4640 -3529,3501 -6224,7530 -8086,12059l-1361 3613 -1028 3640zm79164 49432c0,1417 -417,2556 -1279,3418 -805,722 -1861,1083 -3195,1083 -1167,0 -2223,-361 -3140,-1111 -889,-750 -1334,-1890 -1334,-3390l0 -70106 -10308 10309c-917,917 -1945,1362 -3112,1362 -1056,0 -2112,-445 -3113,-1362 -944,-944 -1444,-2000 -1444,-3223 0,-1028 472,-2056 1361,-3084l17950 -18034c584,-611 1223,-1083 1862,-1472 639,-362 1334,-556 2084,-556 750,0 1611,472 2584,1361 722,945 1084,2223 1084,3807l0 80998z"/>
   <path class="fil2" d="M2071236 1819990l37901 -37567c889,-806 1917,-1223 3084,-1223 1112,0 2140,445 3112,1362 973,917 1473,2000 1473,3251 0,778 -472,1778 -1362,3028l-26786 26703 27620 48849 639 2390c0,1167 -500,2139 -1473,3001 -917,889 -2000,1361 -3306,1361 -1445,0 -2696,-778 -3779,-2362l-26397 -46903 -10726 10531 0 34233c0,1417 -417,2556 -1278,3417 -806,723 -1890,1084 -3196,1084 -1194,0 -2250,-361 -3140,-1111 -889,-778 -1333,-1890 -1333,-3390l0 -81081c0,-1140 444,-2168 1389,-3057 889,-889 1945,-1306 3084,-1306 1140,0 2195,334 3140,1028 889,750 1334,1890 1334,3335l0 34427zm112313 33149c0,4946 -1750,9170 -5252,12699 -3501,3529 -7752,5307 -12698,5307l-17978 0c-4890,0 -9114,-1750 -12643,-5252 -3556,-3473 -5335,-7724 -5335,-12754l0 -53961c0,-5002 1751,-9253 5224,-12754 3501,-3473 7753,-5224 12754,-5224l17978 0c4974,0 9225,1751 12726,5252 3474,3529 5224,7752 5224,12726l0 53961zm-8919 56l0 -54045c0,-2556 -862,-4668 -2557,-6418 -1695,-1723 -3862,-2612 -6474,-2612l-18006 0c-2528,0 -4668,861 -6446,2584 -862,861 -1501,1834 -1917,2917 -417,1112 -639,2279 -639,3529l0 54045c0,2529 833,4668 2556,6447 917,750 1889,1389 2917,1917 1279,417 2446,639 3529,639l18006 0c2501,0 4613,-834 6391,-2529 1750,-1667 2640,-3834 2640,-6474zm97114 13449c0,1417 -389,2556 -1195,3417 -862,723 -1973,1084 -3279,1084 -1028,0 -2028,-361 -3001,-1111 -1000,-778 -1473,-1890 -1473,-3390l0 -64187 -18589 31065c-1111,1945 -2417,2890 -3918,2890 -1306,0 -2584,-945 -3890,-2890l-18700 -31065 0 64187c0,1417 -417,2556 -1278,3417 -806,723 -1890,1084 -3196,1084 -1195,0 -2251,-361 -3140,-1111 -889,-751 -1333,-1890 -1333,-3390l0 -80526c0,-1695 444,-2973 1278,-3834 778,-889 1722,-1362 2834,-1362 806,0 1528,223 2167,639 639,445 1334,1195 2056,2251l23202 38540 23091 -38540c1028,-1917 2473,-2890 4307,-2890 1028,0 2000,473 2890,1417 778,973 1167,2251 1167,3779l0 80526zm62908 -49433l0 -31537c0,-1195 417,-2251 1334,-3140 889,-917 1945,-1334 3112,-1334 1139,0 2195,361 3112,1112 917,750 1362,1889 1362,3362l0 80859c0,1278 -445,2417 -1390,3390 -1083,805 -2111,1222 -3139,1222 -1084,0 -2140,-361 -3140,-1084 -834,-722 -1251,-1861 -1251,-3362l0 -40540 -36039 0 0 40485c0,1417 -417,2556 -1278,3417 -806,723 -1890,1084 -3195,1084 -1195,0 -2251,-361 -3140,-1111 -890,-751 -1334,-1890 -1334,-3390l0 -80915c0,-1194 444,-2306 1334,-3334 889,-778 1945,-1167 3140,-1167 1139,0 2195,389 3084,1139 917,750 1389,1862 1389,3390l0 31454 36039 0zm42708 31455l-6502 19395c-333,945 -889,1695 -1667,2306 -584,389 -1417,639 -2417,778 -1223,0 -2251,-444 -3168,-1306 -973,-750 -1473,-1778 -1473,-3056l306 -1612 27064 -80914c889,-2557 2306,-3863 4223,-3863 1918,0 3335,1306 4224,3863l26925 80914 334 1612c0,1167 -501,2195 -1501,3140 -945,805 -2000,1222 -3140,1222 -611,0 -1250,-167 -2028,-472 -750,-278 -1445,-1139 -2084,-2612l-6474 -19395 -32622 0zm29621 -9225l-13255 -39568 -13281 39568 26536 0zm40012 -49321l-17978 0c-1361,0 -2500,-389 -3334,-1195 -778,-973 -1167,-2084 -1167,-3251 0,-1056 361,-2029 1111,-3029 751,-972 1890,-1445 3390,-1445l44931 0c1251,0 2279,445 3168,1362 889,917 1306,1973 1306,3112 0,1028 -361,2000 -1112,3001 -750,972 -1889,1445 -3362,1445l-18005 0 0 76524c0,1417 -417,2556 -1279,3417 -805,723 -1889,1084 -3195,1084 -1167,0 -2223,-361 -3140,-1111 -889,-778 -1334,-1890 -1334,-3390l0 -76524zm47237 58546l-6502 19395c-333,945 -889,1695 -1667,2306 -583,389 -1417,639 -2417,778 -1223,0 -2251,-444 -3168,-1306 -973,-750 -1473,-1778 -1473,-3056l306 -1612 27064 -80914c889,-2557 2306,-3863 4224,-3863 1917,0 3334,1306 4223,3863l26925 80914 334 1612c0,1167 -500,2195 -1501,3140 -944,805 -2000,1222 -3140,1222 -611,0 -1250,-167 -2028,-472 -750,-278 -1445,-1139 -2084,-2612l-6474 -19395 -32622 0zm29621 -9225l-13254 -39568 -13282 39568 26536 0zm-311932 134042c0,1417 -417,2556 -1278,3418 -806,722 -1862,1083 -3195,1083 -1167,0 -2223,-361 -3140,-1111 -890,-750 -1334,-1890 -1334,-3390l0 -70105 -10309 10308c-917,917 -1945,1362 -3112,1362 -1056,0 -2112,-445 -3112,-1362 -945,-944 -1445,-2000 -1445,-3223 0,-1028 472,-2056 1362,-3084l17950 -18034c583,-611 1222,-1083 1861,-1472 639,-362 1334,-556 2084,-556 751,0 1612,472 2585,1361 722,945 1083,2223 1083,3807l0 80998zm44959 0c0,1417 -417,2556 -1278,3418 -806,722 -1862,1083 -3196,1083 -1167,0 -2223,-361 -3140,-1111 -889,-750 -1333,-1890 -1333,-3390l0 -70105 -10309 10308c-917,917 -1945,1362 -3112,1362 -1056,0 -2112,-445 -3112,-1362 -945,-944 -1445,-2000 -1445,-3223 0,-1028 472,-2056 1361,-3084l17950 -18034c584,-611 1223,-1083 1862,-1472 639,-362 1334,-556 2084,-556 750,0 1612,472 2584,1361 723,945 1084,2223 1084,3807l0 80998zm18005 28c0,-1223 445,-2279 1306,-3168 890,-861 1945,-1306 3168,-1306 973,0 1973,445 2973,1306 1001,889 1501,1945 1501,3168 0,1083 -445,2084 -1334,3028 -861,973 -1917,1445 -3140,1445 -1278,0 -2362,-444 -3279,-1333 -806,-945 -1195,-2001 -1195,-3140zm53962 -49460c4085,0 7474,-1417 10142,-4252 2223,-2612 3362,-5696 3362,-9280 0,-3668 -1139,-6752 -3362,-9281 -2445,-2834 -5835,-4279 -10142,-4279 -3946,0 -7308,1445 -10114,4279 -2223,2612 -3363,5696 -3363,9281 0,3667 1140,6752 3363,9280 2445,2835 5835,4252 10114,4252zm0 8947c-5669,0 -10198,1862 -13560,5585 -3001,3418 -4501,7558 -4501,12448 0,4835 1500,8948 4501,12365 3390,3752 7947,5641 13560,5641 5696,0 10225,-1862 13588,-5585 3000,-3390 4501,-7530 4501,-12421 0,-4751 -1473,-8891 -4446,-12365 -3390,-3779 -7947,-5668 -13643,-5668zm14866 -4974c3973,2306 7002,5530 9058,9670 2084,4112 3112,8586 3112,13337 0,7058 -2251,13199 -6752,18478 -4974,5641 -11726,8475 -20284,8475 -8475,0 -15199,-2778 -20256,-8363 -4502,-4974 -6753,-11198 -6753,-18590 0,-4751 1001,-9197 3001,-13282 2001,-4084 5057,-7363 9170,-9836 -2390,-2028 -4251,-4585 -5585,-7697 -1334,-3112 -2001,-6335 -2001,-9670 0,-6001 1890,-11198 5613,-15504 4140,-4669 9753,-7003 16811,-7003 6919,0 12504,2334 16783,7003 3779,4279 5641,9447 5641,15504 0,3335 -612,6558 -1862,9670 -1278,3112 -3168,5724 -5696,7808zm52155 -30926l-18033 0c-1362,0 -2473,-417 -3335,-1278 -750,-890 -1139,-1973 -1139,-3196 0,-1056 389,-2084 1167,-3029 806,-944 1917,-1445 3307,-1445l18005 0c7030,0 12643,2279 16839,6864 3751,4307 5641,9447 5641,15477 0,3640 -695,6974 -2140,10031 -1417,3029 -3612,5752 -6585,8197 2500,1973 4557,4529 6224,7697 1667,3112 2501,6502 2501,10086l0 9003c0,6141 -2196,11420 -6614,15838 -4390,4418 -9697,6641 -15866,6641l-18005 0c-1362,0 -2473,-389 -3335,-1194 -750,-1001 -1139,-2084 -1139,-3279 0,-1028 361,-2001 1111,-3001 751,-973 1890,-1473 3390,-1473l18034 0c3723,0 6891,-1306 9531,-3973 2639,-2612 3945,-5808 3945,-9559l0 -9003c0,-3668 -1278,-6863 -3890,-9503 -2584,-2667 -5807,-4001 -9614,-4001l-9003 0c-1389,0 -2501,-389 -3362,-1195 -778,-1000 -1167,-2084 -1167,-3279 0,-1028 361,-2000 1139,-3001 750,-972 1862,-1472 3390,-1472l9003 0c3974,0 7280,-1445 9836,-4307 2196,-2557 3279,-5724 3279,-9448 0,-3667 -1056,-6696 -3140,-9058 -2389,-2751 -5724,-4140 -9975,-4140z"/>
   <path class="fil2" d="M504881 3171083l37901 -37568c889,-806 1917,-1222 3084,-1222 1112,0 2140,444 3113,1361 972,917 1472,2001 1472,3251 0,778 -472,1778 -1361,3029l-26787 26703 27620 48848 639 2390c0,1167 -500,2140 -1472,3001 -917,889 -2001,1362 -3307,1362 -1445,0 -2695,-779 -3779,-2362l-26397 -46904 -10726 10531 0 34233c0,1417 -416,2556 -1278,3418 -806,722 -1889,1084 -3195,1084 -1195,0 -2251,-362 -3140,-1112 -889,-778 -1334,-1889 -1334,-3390l0 -81081c0,-1139 445,-2167 1389,-3057 890,-889 1945,-1305 3085,-1305 1139,0 2195,333 3140,1028 889,750 1333,1889 1333,3334l0 34428zm107951 15115l-27009 0c-4862,0 -9086,-1750 -12642,-5223 -3557,-3502 -5335,-7753 -5335,-12754l0 -31455c0,-1195 444,-2278 1333,-3334 890,-750 1945,-1139 3140,-1139 1139,0 2195,361 3085,1111 916,750 1389,1889 1389,3362l0 31510c0,2529 833,4668 2556,6419 917,778 1890,1417 2918,1917 1278,417 2445,639 3529,639l27036 0 0 -40485c0,-1195 417,-2278 1334,-3334 889,-750 1945,-1139 3112,-1139 1139,0 2195,361 3112,1111 917,750 1361,1889 1361,3362l0 67466c0,4946 -1750,9169 -5251,12698 -3501,3529 -7725,5308 -12699,5308l-22479 0c-1361,0 -2473,-417 -3334,-1279 -778,-889 -1167,-1973 -1167,-3195 0,-1084 389,-2084 1194,-3029 806,-945 1890,-1445 3307,-1445l22507 0c2473,0 4613,-833 6363,-2528 1751,-1668 2640,-3835 2640,-6502l0 -18062zm58407 -17088l23174 -34900c389,-584 917,-1112 1612,-1528l945 -389 1083 0c1167,0 2251,416 3279,1333 945,945 1417,2001 1417,3224 0,750 -278,1583 -778,2500l-25258 37901 25258 37929 584 1333 194 1223c0,1167 -472,2195 -1389,3112 -917,917 -2029,1390 -3362,1390 -1417,0 -2612,-667 -3585,-2057l-23174 -34761 -23146 34761c-333,556 -917,1084 -1750,1584l-1973 473c-945,0 -1973,-473 -3140,-1362 -1000,-861 -1473,-1945 -1473,-3195 0,-778 250,-1612 750,-2501l25286 -37929 -25397 -37901 -639 -1333 0 -1251c0,-1139 445,-2195 1389,-3112 917,-917 2029,-1361 3363,-1361 1417,0 2612,666 3584,2056l23146 34761zm94419 -806l0 -31538c0,-1195 417,-2251 1334,-3140 889,-917 1945,-1333 3112,-1333 1139,0 2195,361 3112,1111 917,750 1361,1889 1361,3362l0 80859c0,1278 -444,2417 -1389,3390 -1084,806 -2112,1223 -3140,1223 -1083,0 -2139,-362 -3140,-1084 -833,-723 -1250,-1862 -1250,-3362l0 -40541 -36039 0 0 40485c0,1417 -417,2556 -1278,3418 -806,722 -1890,1084 -3196,1084 -1195,0 -2251,-362 -3140,-1112 -889,-750 -1333,-1889 -1333,-3390l0 -80914c0,-1195 444,-2307 1333,-3335 889,-778 1945,-1167 3140,-1167 1139,0 2195,389 3084,1140 917,750 1390,1861 1390,3390l0 31454 36039 0zm71911 8947l0 -36039 -27036 0c-2528,0 -4668,861 -6446,2584 -862,862 -1501,1834 -1918,2918 -416,1111 -639,2278 -639,3529l0 18005c0,2529 834,4668 2557,6447 917,778 1889,1417 2917,1917 1278,417 2445,639 3529,639l27036 0zm-15477 8947l-21229 33900c-889,1445 -2111,2140 -3584,2140 -1167,0 -2223,-473 -3168,-1418 -1028,-917 -1528,-1945 -1528,-3139 0,-890 250,-1723 695,-2446l18172 -29037 -889 0c-4863,0 -9114,-1750 -12643,-5223 -3557,-3502 -5335,-7753 -5335,-12754l0 -17978c0,-4974 1751,-9226 5224,-12727 3501,-3473 7752,-5223 12754,-5223l31454 0c3001,0 4474,1472 4474,4473l0 80970c0,1417 -417,2556 -1250,3418 -834,722 -1890,1084 -3224,1084 -1167,0 -2223,-362 -3112,-1112 -917,-778 -1334,-1889 -1334,-3390l0 -31538 -15477 0zm82915 8948l-35983 0c-1362,0 -2473,-417 -3335,-1279 -750,-889 -1167,-1972 -1167,-3195 0,-1084 417,-2084 1195,-3029 778,-944 1917,-1445 3307,-1445l35983 0c1251,0 2279,473 3168,1390 889,889 1306,1945 1306,3084 0,1028 -361,2028 -1111,3001 -778,1000 -1890,1473 -3363,1473zm67411 -26842l0 -31538c0,-1195 416,-2251 1333,-3140 889,-917 1945,-1333 3112,-1333 1140,0 2195,361 3112,1111 917,750 1362,1889 1362,3362l0 80859c0,1278 -445,2417 -1389,3390 -1084,806 -2112,1223 -3140,1223 -1084,0 -2140,-362 -3140,-1084 -834,-723 -1250,-1862 -1250,-3362l0 -40541 -36040 0 0 40485c0,1417 -416,2556 -1278,3418 -806,722 -1889,1084 -3195,1084 -1195,0 -2251,-362 -3140,-1112 -889,-750 -1334,-1889 -1334,-3390l0 -80914c0,-1195 445,-2307 1334,-3335 889,-778 1945,-1167 3140,-1167 1139,0 2195,389 3084,1140 917,750 1389,1861 1389,3390l0 31454 36040 0zm80831 49432c0,1417 -417,2556 -1251,3418 -833,722 -1889,1084 -3223,1084 -1167,0 -2223,-362 -3112,-1112 -917,-750 -1334,-1889 -1334,-3390l0 -63548 -36511 65743c-528,917 -1167,1640 -2001,2168l-945 555c-305,139 -778,250 -1417,362 -861,-28 -1834,-473 -2945,-1362 -778,-917 -1167,-2195 -1167,-3862l0 -80942c0,-1223 444,-2335 1333,-3363 890,-778 1945,-1167 3140,-1167 1140,0 2195,389 3085,1140 917,750 1389,1861 1389,3390l0 63547 36484 -65715c444,-722 1083,-1445 1945,-2167 806,-639 1611,-945 2417,-945 1000,0 1917,528 2751,1501 917,889 1362,2139 1362,3723l0 80942zm58379 -4446l22479 0 0 -76524c0,-1167 445,-2278 1334,-3334 917,-750 1973,-1139 3140,-1139 1111,0 2140,361 3140,1083 889,778 1334,1917 1334,3390l0 80970c0,3001 -1501,4502 -4502,4502l-62797 0c-3029,0 -4502,-1501 -4502,-4502l0 -80970c0,-1195 445,-2278 1334,-3334 889,-750 1945,-1139 3140,-1139 1139,0 2195,361 3084,1111 917,750 1389,1889 1389,3362l0 76524 22480 0 0 -76524c0,-1167 444,-2278 1334,-3334 889,-750 1945,-1139 3139,-1139 1140,0 2196,361 3085,1111 917,750 1389,1889 1389,3362l0 76524zm65326 -13532l-6502 19395c-333,945 -889,1695 -1667,2306 -584,390 -1417,640 -2417,779 -1223,0 -2251,-445 -3168,-1306 -973,-751 -1473,-1779 -1473,-3057l306 -1612 27064 -80914c889,-2556 2306,-3862 4223,-3862 1918,0 3335,1306 4224,3862l26925 80914 334 1612c0,1167 -501,2195 -1501,3140 -945,806 -2001,1223 -3140,1223 -611,0 -1250,-167 -2028,-473 -750,-278 -1445,-1139 -2084,-2612l-6474 -19395 -32622 0zm29621 -9225l-13255 -39568 -13282 39568 26537 0zm-418382 111702l8975 0c1250,0 2306,472 3168,1389 889,917 1333,1945 1333,3085 0,1028 -389,2028 -1111,3001 -750,1000 -1890,1472 -3390,1472l-8975 0 0 13421c0,1417 -417,2556 -1278,3390 -806,723 -1890,1084 -3196,1084 -1195,0 -2251,-361 -3140,-1112 -889,-750 -1333,-1861 -1333,-3362l0 -13421 -27037 0c-3112,0 -4696,-1195 -4696,-3640l139 -1083 278 -1029 17950 -63019c278,-890 778,-1723 1556,-2446l834 -444c500,-278 1084,-389 1750,-389 1306,0 2390,417 3251,1278 945,806 1418,1862 1418,3168l-195 1333 -16366 57324 21118 0 0 -13504c0,-1195 444,-2307 1333,-3335 889,-778 1945,-1167 3140,-1167 1139,0 2195,362 3084,1112 917,778 1390,1889 1390,3390l0 13504zm31399 22368c0,-1222 444,-2278 1306,-3168 889,-861 1945,-1306 3167,-1306 973,0 1973,445 2973,1306 1001,890 1501,1946 1501,3168 0,1084 -445,2084 -1334,3029 -861,972 -1917,1445 -3140,1445 -1278,0 -2362,-445 -3279,-1334 -805,-945 -1194,-2001 -1194,-3140zm67465 -22368l8975 0c1251,0 2307,472 3168,1389 889,917 1334,1945 1334,3085 0,1028 -389,2028 -1112,3001 -750,1000 -1889,1472 -3390,1472l-8975 0 0 13421c0,1417 -417,2556 -1278,3390 -806,723 -1889,1084 -3195,1084 -1195,0 -2251,-361 -3140,-1112 -889,-750 -1334,-1861 -1334,-3362l0 -13421 -27036 0c-3112,0 -4696,-1195 -4696,-3640l139 -1083 278 -1029 17950 -63019c278,-890 778,-1723 1556,-2446l833 -444c500,-278 1084,-389 1751,-389 1306,0 2390,417 3251,1278 945,806 1417,1862 1417,3168l-194 1333 -16367 57324 21118 0 0 -13504c0,-1195 445,-2307 1334,-3335 889,-778 1945,-1167 3140,-1167 1139,0 2195,362 3084,1112 917,778 1389,1889 1389,3390l0 13504zm58408 -27092c4084,0 7474,-1417 10142,-4251 2223,-2612 3362,-5696 3362,-9281 0,-3668 -1139,-6752 -3362,-9281 -2446,-2834 -5836,-4279 -10142,-4279 -3946,0 -7308,1445 -10115,4279 -2223,2612 -3362,5697 -3362,9281 0,3668 1139,6752 3362,9281 2445,2834 5835,4251 10115,4251zm0 8947c-5669,0 -10198,1862 -13560,5585 -3001,3418 -4502,7558 -4502,12449 0,4835 1501,8947 4502,12365 3390,3751 7947,5640 13560,5640 5696,0 10225,-1861 13587,-5585 3001,-3390 4502,-7530 4502,-12420 0,-4752 -1473,-8892 -4446,-12365 -3390,-3779 -7947,-5669 -13643,-5669zm14865 -4973c3974,2306 7003,5529 9059,9669 2084,4113 3112,8586 3112,13338 0,7058 -2251,13198 -6752,18478 -4974,5641 -11726,8475 -20284,8475 -8475,0 -15200,-2779 -20257,-8364 -4501,-4974 -6752,-11198 -6752,-18589 0,-4752 1000,-9198 3001,-13282 2001,-4085 5057,-7364 9170,-9837 -2390,-2028 -4252,-4584 -5586,-7696 -1333,-3113 -2000,-6336 -2000,-9670 0,-6002 1889,-11198 5613,-15505 4140,-4668 9753,-7002 16811,-7002 6918,0 12504,2334 16783,7002 3779,4279 5640,9447 5640,15505 0,3334 -611,6557 -1861,9670 -1279,3112 -3168,5724 -5697,7808z"/>
   <path class="fil2" d="M1886178 3696693c1417,0 2556,416 3417,1250 723,834 1084,1889 1084,3223 0,1167 -361,2223 -1111,3112 -778,917 -1890,1334 -3390,1334l-76524 0 0 36039 76524 0c1417,0 2556,417 3417,1278 723,806 1084,1890 1084,3196 0,1195 -361,2251 -1111,3140 -751,889 -1890,1333 -3390,1333l-80970 0c-3001,0 -4474,-1472 -4474,-4501l0 -44931c0,-3001 1473,-4473 4474,-4473l80970 0zm-40485 -26953l0 -27009c0,-2501 -834,-4612 -2501,-6391 -1667,-1750 -3835,-2639 -6502,-2639l-18006 0c-2556,0 -4668,861 -6419,2556 -1722,1695 -2611,3862 -2611,6474l0 27009 36039 0zm8947 0l31538 0c1417,0 2556,416 3417,1278 723,806 1084,1889 1084,3195 0,1195 -361,2251 -1111,3140 -751,889 -1890,1334 -3390,1334l-80970 0c-3001,0 -4474,-1473 -4474,-4502l0 -31454c0,-4974 1751,-9225 5252,-12726 3501,-3473 7752,-5224 12698,-5224l17978 0c4946,0 9142,1751 12671,5252 3529,3529 5307,7752 5307,12726l0 26981zm31538 -116871c1417,0 2556,417 3417,1251 723,833 1084,1889 1084,3223 0,1167 -361,2223 -1111,3112 -751,917 -1890,1334 -3390,1334l-63548 0 65743 36511c917,528 1639,1167 2167,2001l556 945c139,305 250,778 361,1417 -28,861 -472,1834 -1361,2945 -917,778 -2196,1167 -3863,1167l-80942 0c-1223,0 -2334,-444 -3362,-1333 -778,-890 -1167,-1945 -1167,-3140 0,-1140 389,-2195 1139,-3085 750,-917 1862,-1389 3390,-1389l63548 0 -65715 -36484c-723,-444 -1445,-1083 -2168,-1945 -639,-805 -944,-1611 -944,-2417 0,-1000 528,-1917 1500,-2751 889,-917 2140,-1362 3723,-1362l80943 0zm-48627 -49487l-34900 -23174c-583,-389 -1111,-917 -1528,-1612l-389 -945 0 -1083c0,-1167 417,-2251 1334,-3279 945,-945 2000,-1417 3223,-1417 750,0 1584,278 2501,778l37901 25258 37928 -25258 1334 -584 1223 -194c1167,0 2195,472 3112,1389 917,917 1389,2028 1389,3362 0,1417 -667,2612 -2056,3585l-34761 23174 34761 23146c556,333 1084,917 1584,1750l472 1973c0,945 -472,1973 -1361,3140 -862,1000 -1946,1473 -3196,1473 -778,0 -1612,-250 -2501,-750l-37928 -25286 -37901 25397 -1334 639 -1250 0c-1140,0 -2195,-445 -3112,-1390 -917,-916 -1362,-2028 -1362,-3362 0,-1417 667,-2612 2056,-3584l34761 -23146zm35122 -98781c4946,0 9170,1750 12699,5251 3529,3501 5307,7753 5307,12699l0 17978c0,4890 -1750,9114 -5252,12642 -3473,3557 -7724,5335 -12754,5335l-53961 0c-5002,0 -9253,-1750 -12754,-5223 -3473,-3502 -5224,-7753 -5224,-12754l0 -17978c0,-4974 1751,-9225 5252,-12727 3529,-3473 7752,-5223 12726,-5223l53961 0zm56 8919l-54045 0c-2556,0 -4668,861 -6419,2556 -1722,1695 -2611,3863 -2611,6475l0 18005c0,2529 861,4668 2584,6447 861,861 1834,1500 2917,1917 1112,417 2279,639 3529,639l54045 0c2529,0 4668,-833 6446,-2556 751,-917 1390,-1890 1918,-2918 417,-1278 639,-2445 639,-3529l0 -18005c0,-2501 -834,-4613 -2529,-6391 -1667,-1751 -3834,-2640 -6474,-2640zm-36901 -70078l-33121 -23257c-528,-333 -973,-861 -1362,-1556 -416,-667 -611,-1362 -611,-2056 0,-1167 417,-2251 1334,-3279 945,-945 2000,-1417 3195,-1417 889,0 1779,333 2640,917l33511 23563 42569 -23841c861,-417 1667,-639 2389,-639 1028,0 2001,472 2918,1389 917,917 1389,2056 1389,3390 0,1362 -778,2612 -2334,3779l-41207 23007 39040 0c1417,0 2556,417 3417,1279 723,805 1084,1889 1084,3195 0,1195 -361,2251 -1111,3140 -751,889 -1890,1334 -3390,1334l-38901 0 41096 23035c500,389 1056,917 1667,1639l445 1112 194 1167c0,1250 -417,2306 -1250,3223 -834,945 -1918,1389 -3168,1389 -500,0 -1250,-194 -2278,-556l-42486 -23896 -33594 23563c-417,333 -1306,639 -2695,889 -1140,0 -2195,-444 -3112,-1389 -917,-917 -1362,-1973 -1362,-3223 0,-1251 639,-2473 1973,-3613l33205 -23340 -30704 0c-1167,0 -2279,-445 -3335,-1334 -750,-889 -1139,-1945 -1139,-3140 0,-1139 361,-2195 1112,-3084 750,-917 1889,-1390 3362,-1390l30620 0zm32372 -65187l19395 6502c945,334 1695,889 2306,1667 389,584 639,1418 778,2418 0,1222 -445,2251 -1306,3168 -750,972 -1778,1472 -3056,1472l-1612 -305 -80914 -27065c-2557,-889 -3863,-2306 -3863,-4223 0,-1917 1306,-3334 3863,-4224l80914 -26925 1612 -333c1167,0 2195,500 3139,1500 806,945 1223,2001 1223,3140 0,611 -167,1251 -472,2029 -278,750 -1140,1444 -2612,2084l-19395 6474 0 32621zm-9225 -29620l-39568 13254 39568 13282 0 -26536zm-13282 -80498l-36039 0 0 27036c0,2529 861,4669 2584,6447 861,861 1834,1500 2917,1917 1112,417 2279,639 3529,639l18006 0c2528,0 4668,-833 6446,-2556 778,-917 1417,-1890 1918,-2918 416,-1278 639,-2445 639,-3529l0 -27036zm8947 15477l33900 21229c1444,889 2139,2112 2139,3585 0,1167 -472,2223 -1417,3167 -917,1028 -1945,1529 -3140,1529 -889,0 -1723,-251 -2445,-695l-29037 -18173 0 890c0,4862 -1751,9114 -5224,12643 -3501,3556 -7752,5335 -12754,5335l-17978 0c-4974,0 -9225,-1751 -12726,-5224 -3473,-3501 -5224,-7753 -5224,-12754l0 -31455c0,-3001 1473,-4473 4474,-4473l80970 0c1417,0 2556,416 3417,1250 723,834 1084,1890 1084,3223 0,1167 -361,2223 -1111,3112 -778,917 -1890,1334 -3390,1334l-31538 0 0 15477zm116036 325158l0 -8975c0,-1250 473,-2306 1390,-3167 917,-890 1945,-1334 3084,-1334 1028,0 2029,389 3001,1111 1000,750 1473,1890 1473,3390l0 8975 13421 0c1417,0 2556,417 3390,1278 722,806 1083,1890 1083,3196 0,1195 -361,2251 -1111,3140 -750,889 -1862,1334 -3362,1334l-13421 0 0 27036c0,3112 -1195,4696 -3640,4696l-1084 -139 -1028 -278 -63020 -17950c-889,-278 -1723,-778 -2445,-1556l-445 -834c-278,-500 -389,-1083 -389,-1750 0,-1306 417,-2390 1278,-3251 806,-945 1862,-1417 3168,-1417l1334 194 57323 16366 0 -21117 -13504 0c-1195,0 -2306,-445 -3334,-1334 -778,-889 -1167,-1945 -1167,-3140 0,-1139 361,-2195 1111,-3084 778,-917 1890,-1390 3390,-1390l13504 0zm22369 -31399c-1223,0 -2279,-444 -3168,-1305 -861,-890 -1306,-1946 -1306,-3168 0,-973 445,-1973 1306,-2973 889,-1001 1945,-1501 3168,-1501 1083,0 2084,445 3028,1334 973,861 1445,1917 1445,3140 0,1278 -444,2362 -1333,3279 -945,805 -2001,1194 -3140,1194zm-28 -53905c1417,0 2556,416 3418,1278 722,806 1083,1861 1083,3195 0,1167 -361,2223 -1111,3140 -750,889 -1890,1334 -3390,1334l-70106 0 10309 10309c917,917 1362,1945 1362,3112 0,1056 -445,2112 -1362,3112 -944,945 -2000,1445 -3223,1445 -1028,0 -2056,-473 -3084,-1362l-18034 -17950c-611,-583 -1083,-1223 -1472,-1862 -362,-639 -556,-1333 -556,-2084 0,-750 472,-1611 1361,-2584 945,-722 2223,-1083 3807,-1083l80998 0zm-76385 -40124l0 18033c0,1362 -417,2473 -1278,3335 -890,750 -1973,1139 -3196,1139 -1056,0 -2084,-389 -3029,-1167 -944,-806 -1445,-1917 -1445,-3307l0 -18005c0,-7030 2279,-12643 6864,-16839 4307,-3751 9447,-5641 15477,-5641 3640,0 6974,695 10031,2140 3028,1417 5752,3612 8197,6585 1973,-2500 4529,-4557 7697,-6224 3112,-1667 6502,-2501 10086,-2501l9003 0c6141,0 11420,2195 15838,6614 4418,4390 6641,9697 6641,15866l0 18005c0,1362 -389,2473 -1195,3335 -1000,750 -2084,1139 -3278,1139 -1028,0 -2001,-361 -3001,-1112 -973,-750 -1473,-1889 -1473,-3389l0 -18034c0,-3723 -1306,-6891 -3973,-9531 -2612,-2639 -5808,-3945 -9559,-3945l-9003 0c-3668,0 -6863,1278 -9503,3890 -2667,2584 -4001,5807 -4001,9614l0 9003c0,1389 -389,2500 -1195,3362 -1000,778 -2084,1167 -3279,1167 -1028,0 -2000,-361 -3001,-1139 -972,-751 -1472,-1862 -1472,-3390l0 -9003c0,-3974 -1445,-7280 -4307,-9837 -2557,-2195 -5724,-3278 -9448,-3278 -3668,0 -6696,1055 -9058,3139 -2751,2390 -4140,5725 -4140,9976z"/>
   <path class="fil2" d="M2341015 3725340l-22534 0c-4863,0 -9087,-1750 -12643,-5251 -3557,-3473 -5335,-7725 -5335,-12754l0 -53962c0,-5001 1750,-9253 5224,-12754 3501,-3473 7752,-5224 12754,-5224l22534 0c1223,0 2279,445 3168,1362 889,917 1306,1973 1306,3112 0,1028 -361,2001 -1111,3001 -778,973 -1890,1445 -3390,1445l-22535 0c-2529,0 -4668,861 -6447,2584 -861,861 -1500,1834 -1917,2918 -417,1111 -639,2278 -639,3529l0 54044c0,2529 834,4669 2556,6447 917,750 1890,1389 2918,1917 1278,417 2445,639 3529,639l22535 0c1250,0 2306,473 3195,1390 889,889 1306,1945 1306,3084 0,1028 -361,2028 -1111,3001 -778,1000 -1890,1472 -3363,1472zm80665 -110840l-49460 125956c-306,695 -834,1390 -1612,2057l-1223 583 -1222 250c-1278,0 -2390,-417 -3335,-1222 -944,-806 -1417,-1890 -1417,-3196 0,-695 112,-1250 334,-1695l49432 -125956c222,-639 750,-1306 1556,-2029l834 -472c528,-250 1056,-389 1667,-389 1278,0 2390,417 3334,1223 945,805 1417,1889 1417,3223 0,667 -111,1222 -305,1667zm67660 74801l-27009 0c-4862,0 -9086,-1750 -12642,-5224 -3557,-3501 -5335,-7752 -5335,-12754l0 -31454c0,-1195 444,-2278 1333,-3334 889,-751 1945,-1140 3140,-1140 1139,0 2195,362 3084,1112 917,750 1390,1889 1390,3362l0 31510c0,2529 833,4668 2556,6419 917,778 1890,1417 2918,1917 1278,417 2445,639 3529,639l27036 0 0 -40485c0,-1195 417,-2278 1334,-3334 889,-751 1945,-1140 3112,-1140 1139,0 2195,362 3112,1112 917,750 1361,1889 1361,3362l0 67466c0,4946 -1750,9169 -5251,12698 -3501,3529 -7725,5307 -12699,5307l-22479 0c-1362,0 -2473,-416 -3334,-1278 -778,-889 -1167,-1973 -1167,-3195 0,-1084 389,-2084 1194,-3029 806,-945 1890,-1445 3307,-1445l22507 0c2473,0 4613,-833 6363,-2528 1751,-1668 2640,-3835 2640,-6502l0 -18062zm-152882 138377c0,1417 -416,2557 -1278,3418 -806,722 -1861,1084 -3195,1084 -1167,0 -2223,-362 -3140,-1112 -889,-750 -1334,-1889 -1334,-3390l0 -70105 -10309 10309c-917,917 -1945,1361 -3112,1361 -1056,0 -2112,-444 -3112,-1361 -945,-945 -1445,-2001 -1445,-3224 0,-1028 473,-2056 1362,-3084l17950 -18033c583,-612 1223,-1084 1862,-1473 639,-361 1333,-556 2084,-556 750,0 1611,473 2584,1362 722,945 1083,2223 1083,3807l0 80997zm18006 28c0,-1223 445,-2278 1306,-3168 889,-861 1945,-1306 3168,-1306 972,0 1973,445 2973,1306 1000,890 1500,1945 1500,3168 0,1084 -444,2084 -1333,3029 -862,972 -1918,1445 -3140,1445 -1278,0 -2362,-445 -3279,-1334 -806,-945 -1195,-2001 -1195,-3140zm68633 -50821l-29065 46347 27898 0c1250,0 2278,473 3167,1390 890,889 1306,1945 1306,3084 0,1028 -361,2028 -1111,3001 -778,1000 -1890,1473 -3362,1473l-35984 0c-3251,0 -4862,-1195 -4862,-3585 0,-944 361,-2084 1083,-3362l33233 -52989c1111,-2334 1639,-4585 1639,-6752 0,-3835 -1472,-7169 -4473,-10031 -1417,-1306 -3085,-2362 -4974,-3140 -1862,-750 -3918,-1167 -6085,-1167 -2279,0 -4474,611 -6558,1806 -2084,1334 -3834,3057 -5196,5141 -333,556 -945,1083 -1751,1611l-2000 445c-1139,0 -2195,-417 -3168,-1250 -972,-834 -1445,-1862 -1445,-3112 0,-584 278,-1473 778,-2557 2056,-3223 4835,-5835 8364,-7891 1723,-973 3446,-1751 5196,-2279 1751,-555 3473,-833 5141,-833 7030,0 12976,2306 17839,6946 4862,4668 7280,10198 7280,16644 0,3696 -945,7364 -2890,11060zm62936 0l-29064 46347 27897 0c1251,0 2279,473 3168,1390 889,889 1306,1945 1306,3084 0,1028 -361,2028 -1112,3001 -778,1000 -1889,1473 -3362,1473l-35983 0c-3251,0 -4863,-1195 -4863,-3585 0,-944 361,-2084 1084,-3362l33232 -52989c1112,-2334 1640,-4585 1640,-6752 0,-3835 -1473,-7169 -4474,-10031 -1417,-1306 -3084,-2362 -4974,-3140 -1861,-750 -3917,-1167 -6085,-1167 -2278,0 -4473,611 -6557,1806 -2084,1334 -3835,3057 -5197,5141 -333,556 -944,1083 -1750,1611l-2001 445c-1139,0 -2195,-417 -3167,-1250 -973,-834 -1445,-1862 -1445,-3112 0,-584 278,-1473 778,-2557 2056,-3223 4835,-5835 8364,-7891 1722,-973 3445,-1751 5196,-2279 1750,-555 3473,-833 5140,-833 7030,0 12976,2306 17839,6946 4863,4668 7280,10198 7280,16644 0,3696 -945,7364 -2890,11060z"/>
   <path class="fil2" d="M2289249 2900942c2556,1556 4613,3695 6196,6474 1584,2779 2362,5752 2362,8892l0 17950c0,4946 -1750,9169 -5251,12698 -3501,3529 -7753,5308 -12699,5308l-31454 0c-3029,0 -4502,-1501 -4502,-4502l0 -80970c0,-3001 1473,-4473 4502,-4473l26981 0c4973,0 9225,1750 12726,5251 3473,3529 5224,7753 5224,12726l0 9003c0,2056 -306,4057 -945,5974 -639,1918 -1695,3807 -3140,5669zm-36400 6335l0 36039 27008 0c2501,0 4613,-833 6391,-2528 1751,-1667 2640,-3835 2640,-6475l0 -18005c0,-2557 -862,-4668 -2556,-6419 -1695,-1723 -3863,-2612 -6475,-2612l-27008 0zm22535 -8947c2500,0 4612,-834 6391,-2529 1750,-1667 2639,-3834 2639,-6502l0 -9030c0,-2529 -861,-4668 -2556,-6419 -1695,-1723 -3862,-2612 -6474,-2612l-22535 0 0 27092 22535 0zm51655 31454l-6502 19395c-334,945 -889,1695 -1667,2307 -584,389 -1418,639 -2418,778 -1222,0 -2251,-445 -3168,-1306 -972,-751 -1472,-1779 -1472,-3057l305 -1612 27064 -80914c890,-2556 2307,-3862 4224,-3862 1917,0 3334,1306 4224,3862l26925 80914 333 1612c0,1167 -500,2195 -1500,3140 -945,806 -2001,1223 -3140,1223 -611,0 -1251,-167 -2029,-473 -750,-278 -1444,-1139 -2084,-2612l-6474 -19395 -32621 0zm29620 -9225l-13254 -39568 -13282 39568 26536 0zm80498 -22229l0 -31538c0,-1195 417,-2251 1334,-3140 889,-917 1945,-1333 3112,-1333 1139,0 2195,361 3112,1111 917,750 1361,1890 1361,3362l0 80859c0,1278 -444,2417 -1389,3390 -1084,806 -2112,1223 -3140,1223 -1084,0 -2139,-362 -3140,-1084 -833,-723 -1250,-1862 -1250,-3362l0 -40541 -36039 0 0 40485c0,1417 -417,2557 -1278,3418 -806,722 -1890,1084 -3196,1084 -1195,0 -2251,-362 -3140,-1112 -889,-750 -1334,-1889 -1334,-3390l0 -80914c0,-1195 445,-2307 1334,-3335 889,-778 1945,-1167 3140,-1167 1139,0 2195,389 3084,1140 917,750 1390,1861 1390,3390l0 31454 36039 0zm71911 0l0 -31538c0,-1195 417,-2251 1334,-3140 889,-917 1945,-1333 3112,-1333 1139,0 2195,361 3112,1111 917,750 1362,1890 1362,3362l0 80859c0,1278 -445,2417 -1389,3390 -1084,806 -2112,1223 -3140,1223 -1084,0 -2140,-362 -3140,-1084 -834,-723 -1251,-1862 -1251,-3362l0 -40541 -36039 0 0 40485c0,1417 -417,2557 -1278,3418 -806,722 -1889,1084 -3195,1084 -1195,0 -2251,-362 -3140,-1112 -889,-750 -1334,-1889 -1334,-3390l0 -80914c0,-1195 445,-2307 1334,-3335 889,-778 1945,-1167 3140,-1167 1139,0 2195,389 3084,1140 917,750 1389,1861 1389,3390l0 31454 36039 0zm42708 31454l-6502 19395c-333,945 -889,1695 -1667,2307 -583,389 -1417,639 -2417,778 -1223,0 -2251,-445 -3168,-1306 -973,-751 -1473,-1779 -1473,-3057l306 -1612 27064 -80914c889,-2556 2306,-3862 4224,-3862 1917,0 3334,1306 4223,3862l26925 80914 334 1612c0,1167 -500,2195 -1501,3140 -945,806 -2000,1223 -3140,1223 -611,0 -1250,-167 -2028,-473 -750,-278 -1445,-1139 -2084,-2612l-6474 -19395 -32622 0zm29621 -9225l-13254 -39568 -13282 39568 26536 0zm80497 -13282l0 -36039 -27036 0c-2529,0 -4668,861 -6446,2584 -862,862 -1501,1834 -1918,2918 -417,1111 -639,2278 -639,3529l0 18005c0,2529 834,4668 2557,6447 916,778 1889,1417 2917,1917 1278,417 2445,639 3529,639l27036 0zm-15477 8947l-21229 33900c-889,1445 -2111,2140 -3584,2140 -1167,0 -2223,-473 -3168,-1418 -1028,-917 -1528,-1945 -1528,-3139 0,-890 250,-1723 695,-2446l18172 -29037 -889 0c-4863,0 -9114,-1750 -12643,-5223 -3557,-3502 -5335,-7753 -5335,-12754l0 -17978c0,-4974 1750,-9225 5224,-12727 3501,-3473 7752,-5223 12754,-5223l31454 0c3001,0 4474,1472 4474,4473l0 80970c0,1417 -417,2557 -1251,3418 -833,722 -1889,1084 -3223,1084 -1167,0 -2223,-362 -3112,-1112 -917,-778 -1334,-1889 -1334,-3390l0 -31538 -15477 0zm-250745 87584l-29065 46348 27897 0c1251,0 2279,472 3168,1389 889,889 1306,1945 1306,3084 0,1028 -361,2029 -1111,3001 -778,1000 -1890,1473 -3363,1473l-35983 0c-3251,0 -4863,-1195 -4863,-3585 0,-944 362,-2084 1084,-3362l33233 -52989c1111,-2334 1639,-4585 1639,-6752 0,-3834 -1473,-7169 -4474,-10031 -1417,-1306 -3084,-2362 -4973,-3140 -1862,-750 -3918,-1167 -6086,-1167 -2278,0 -4473,612 -6557,1806 -2084,1334 -3835,3057 -5196,5141 -334,556 -945,1084 -1751,1612l-2000 444c-1140,0 -2196,-417 -3168,-1250 -973,-834 -1445,-1862 -1445,-3112 0,-584 278,-1473 778,-2557 2056,-3223 4835,-5835 8364,-7891 1722,-973 3445,-1751 5196,-2279 1750,-555 3473,-833 5140,-833 7030,0 12977,2306 17839,6946 4863,4669 7280,10198 7280,16645 0,3695 -944,7363 -2889,11059zm21256 50821c0,-1222 445,-2278 1306,-3168 889,-861 1945,-1305 3168,-1305 972,0 1973,444 2973,1305 1000,890 1500,1946 1500,3168 0,1084 -444,2084 -1333,3029 -862,972 -1918,1445 -3140,1445 -1278,0 -2362,-445 -3279,-1334 -806,-945 -1195,-2001 -1195,-3140zm36095 -40513l-195 4502 0 22535c0,2528 834,4668 2585,6446 889,750 1861,1389 2889,1917 1279,417 2473,640 3557,640l9031 0c2500,0 4612,-834 6363,-2529 1778,-1667 2667,-3835 2667,-6474l0 -18006c0,-2556 -861,-4668 -2556,-6419 -1695,-1722 -3862,-2612 -6474,-2612l-17867 0zm1584 -8947l16255 0c4890,0 9086,1778 12671,5252 3556,3473 5335,7724 5335,12726l0 17978c0,4946 -1779,9142 -5280,12671 -3529,3528 -7752,5307 -12726,5307l-9003 0c-4835,0 -9031,-1723 -12615,-5196 -3557,-3474 -5363,-7725 -5363,-12782l0 -22452c0,-8530 1612,-16616 4891,-24285 2195,-5307 5501,-10170 9808,-14532 4335,-4363 9337,-7781 15033,-10254l1917 -444c1167,0 2223,444 3168,1389 750,1000 1139,2084 1139,3279 0,861 -195,1584 -584,2195 -361,611 -1083,1223 -2167,1862 -1195,472 -2278,944 -3251,1445 -972,500 -2001,1139 -3112,1889 -1834,1251 -3723,2779 -5641,4640 -3529,3502 -6224,7531 -8086,12060l-1361 3612 -1028 3640zm92723 27092l8975 0c1251,0 2307,472 3168,1389 889,917 1334,1945 1334,3085 0,1028 -389,2028 -1112,3001 -750,1000 -1889,1472 -3390,1472l-8975 0 0 13421c0,1417 -416,2557 -1278,3390 -806,723 -1889,1084 -3195,1084 -1195,0 -2251,-361 -3140,-1112 -889,-750 -1334,-1861 -1334,-3362l0 -13421 -27036 0c-3112,0 -4696,-1195 -4696,-3640l139 -1083 278 -1029 17950 -63019c278,-890 778,-1723 1556,-2446l833 -444c501,-278 1084,-389 1751,-389 1306,0 2390,417 3251,1278 945,806 1417,1862 1417,3168l-194 1333 -16367 57324 21118 0 0 -13504c0,-1195 445,-2307 1334,-3335 889,-778 1945,-1167 3140,-1167 1139,0 2195,362 3084,1112 917,778 1389,1889 1389,3390l0 13504z"/>
   <polygon class="fil3" points="2201749,877749 2947373,877749 2947373,1436953 2201749,1436953 "/>
   <path class="fil2" d="M2475113 877749l11393 0 460867 0 0 178917 0 22424 0 156522 0 22395 0 178946 -460867 0 -22813 0 -261916 0 0 -559204 11393 0 250523 0 11420 0zm-11420 536780l0 -156522 0 -22395 0 -156522 0 -22424 0 -156521 -239131 0 0 514384 239131 0zm460895 -156522l-438082 0 0 156522 438082 0 0 -156522zm0 -178917l-438082 0 0 156522 438082 0 0 -156522zm0 -178945l-438082 0 0 156521 438082 0 0 -156521z"/>
   <path class="fil2" d="M2320981 1149029l-52183 83248 50072 0c2250,0 4140,834 5696,2473 1584,1612 2362,3501 2362,5557 0,1862 -667,3613 -2001,5391 -1362,1778 -3390,2640 -6057,2640l-64604 0c-5808,0 -8725,-2168 -8725,-6447 0,-1695 611,-3695 1917,-6029l59686 -95141c2000,-4224 2973,-8281 2973,-12115 0,-6947 -2668,-12921 -8058,-18034 -2557,-2362 -5502,-4251 -8892,-5641 -3390,-1361 -7058,-2084 -10948,-2084 -4085,0 -8030,1056 -11781,3224 -3779,2417 -6864,5474 -9364,9225 -584,1028 -1640,1973 -3113,2917l-3584 778c-2028,0 -3973,-750 -5696,-2250 -1723,-1501 -2584,-3335 -2584,-5585 0,-1056 472,-2640 1361,-4613 3696,-5752 8697,-10475 15033,-14115 3084,-1779 6196,-3168 9336,-4141 3140,-1000 6224,-1500 9253,-1500 12587,0 23257,4168 32010,12532 8725,8336 13087,18283 13087,29870 0,6613 -1722,13227 -5196,19840zm54212 2473l40624 0c2250,0 4140,833 5696,2473 1612,1611 2417,3501 2417,5557 0,1917 -666,3751 -2056,5446 -1334,1723 -3390,2584 -6057,2584l-40624 0 0 64715 56768 0c2250,0 4140,834 5752,2473 1556,1612 2361,3501 2361,5557 0,1918 -666,3752 -2028,5447 -1362,1722 -3362,2584 -6057,2584l-64799 0c-5390,0 -8058,-2557 -8058,-7642l0 -145851c0,-5391 2668,-8058 8058,-8058l64799 0c2222,0 4140,833 5724,2473 1556,1612 2361,3501 2361,5557 0,1917 -666,3751 -2056,5446 -1334,1723 -3334,2584 -6057,2584l-56768 0 0 48655z"/>
   <path class="fil2" d="M2602987 967722l-33566 53516 32204 0c1445,0 2640,556 3668,1612 1000,1028 1528,2251 1528,3557 0,1195 -444,2334 -1306,3473 -889,1139 -2167,1695 -3890,1695l-41541 0c-3751,0 -5612,-1389 -5612,-4140 0,-1112 416,-2390 1250,-3890l38345 -61158c1306,-2724 1945,-5308 1945,-7808 0,-4446 -1722,-8309 -5196,-11587 -1639,-1529 -3556,-2724 -5724,-3613 -2167,-889 -4529,-1333 -7030,-1333 -2639,0 -5168,666 -7558,2056 -2445,1556 -4445,3529 -6029,5918 -389,667 -1084,1278 -2001,1890l-2306 500c-1306,0 -2557,-472 -3668,-1445 -1111,-972 -1667,-2140 -1667,-3584 0,-695 305,-1695 889,-2974 2362,-3695 5585,-6724 9670,-9086 1973,-1139 3973,-2028 5974,-2639 2028,-640 4001,-973 5946,-973 8114,0 14977,2667 20590,8058 5613,5363 8419,11754 8419,19201 0,4251 -1111,8502 -3334,12754zm35066 11920l-222 5196 0 26008c0,2918 1000,5391 3001,7447 1028,889 2140,1612 3334,2223 1501,472 2862,722 4113,722l10420 0c2890,0 5335,-944 7363,-2889 2056,-1945 3057,-4446 3057,-7503l0 -20812c0,-2917 -973,-5390 -2946,-7391 -1972,-2001 -4445,-3001 -7474,-3001l-20646 0zm1834 -10337l18784 0c5641,0 10503,2029 14616,6058 4112,4029 6168,8947 6168,14699l0 20757c0,5696 -2028,10558 -6085,14643 -4084,4057 -8947,6113 -14699,6113l-10392 0c-5585,0 -10448,-2001 -14560,-6002 -4140,-4001 -6197,-8919 -6197,-14754l0 -25925c0,-9865 1862,-19201 5641,-28065 2556,-6113 6335,-11698 11337,-16755 4974,-5029 10781,-8975 17339,-11837l2223 -528c1333,0 2556,528 3640,1612 889,1139 1333,2417 1333,3806 0,973 -222,1806 -666,2529 -445,695 -1279,1389 -2501,2139 -1417,528 -2640,1112 -3751,1668 -1112,583 -2334,1306 -3613,2195 -2111,1445 -4279,3195 -6529,5335 -4030,4057 -7142,8697 -9337,13949l-1556 4140 -1195 4223zm60297 57102c0,-1417 500,-2640 1501,-3640 1028,-1001 2223,-1529 3640,-1529 1139,0 2278,528 3445,1529 1139,1000 1723,2223 1723,3640 0,1250 -500,2417 -1501,3501 -1028,1111 -2250,1667 -3667,1667 -1445,0 -2723,-500 -3752,-1556 -944,-1084 -1389,-2279 -1389,-3612zm77886 -25814l10364 0c1445,0 2668,528 3668,1612 1028,1028 1528,2250 1528,3556 0,1195 -417,2334 -1278,3474 -861,1139 -2195,1695 -3918,1695l-10364 0 0 15477c0,1611 -473,2945 -1473,3890 -945,861 -2167,1278 -3696,1278 -1361,0 -2584,-417 -3612,-1278 -1056,-862 -1556,-2167 -1556,-3890l0 -15477 -31204 0c-3585,0 -5418,-1390 -5418,-4196l166 -1278 306 -1195 20756 -72745c278,-1056 862,-2001 1779,-2834l972 -528c584,-306 1223,-445 2001,-445 1500,0 2779,500 3751,1500 1112,917 1667,2140 1667,3640l-250 1529 -18895 66215 24369 0 0 -15616c0,-1362 500,-2640 1556,-3835 1028,-889 2251,-1361 3612,-1361 1306,0 2529,445 3557,1306 1084,889 1612,2167 1612,3890l0 15616zm46570 -62547l0 31259 15616 0c7058,0 13199,2529 18311,7614 5141,5057 7697,11170 7697,18339l0 10364c0,7086 -2556,13171 -7641,18284 -5085,5113 -11226,7669 -18339,7669l-20784 0c-1557,0 -2863,-472 -3835,-1473 -889,-1028 -1334,-2278 -1334,-3695 0,-1223 445,-2390 1362,-3501 944,-1112 2195,-1668 3834,-1668l20812 0c4252,0 7920,-1472 10976,-4445 3057,-2974 4613,-6669 4613,-11171l0 -10392c0,-4307 -1501,-7974 -4502,-11003 -3001,-3057 -6696,-4585 -11087,-4585l-20812 0c-3473,0 -5196,-1723 -5196,-5196l0 -41541c0,-3473 1723,-5196 5169,-5196l41568 0c1417,0 2668,528 3668,1584 1000,1056 1528,2251 1528,3584 0,1195 -444,2334 -1306,3474 -889,1139 -2167,1695 -3890,1695l-36428 0z"/>
   <path class="fil2" d="M2580174 1117547l-20812 0c-1584,0 -2862,-473 -3862,-1473 -862,-1028 -1334,-2279 -1334,-3696 0,-1222 472,-2389 1361,-3473 917,-1139 2223,-1695 3835,-1695l20784 0c8114,0 14588,2640 19423,7919 4363,4974 6530,10920 6530,17895 0,4195 -806,8030 -2473,11559 -1639,3501 -4168,6641 -7586,9475 2862,2279 5252,5224 7169,8864 1945,3612 2890,7530 2890,11670l0 10365c0,7113 -2556,13198 -7641,18311 -5085,5113 -11198,7669 -18312,7669l-20784 0c-1584,0 -2862,-444 -3862,-1389 -862,-1139 -1334,-2418 -1334,-3779 0,-1195 444,-2334 1306,-3474 889,-1139 2167,-1694 3918,-1694l20812 0c4279,0 7947,-1501 11003,-4557 3057,-3057 4585,-6725 4585,-11060l0 -10392c0,-4251 -1500,-7919 -4501,-10975 -3001,-3057 -6725,-4613 -11115,-4613l-10420 0c-1584,0 -2890,-445 -3862,-1389 -889,-1139 -1334,-2418 -1334,-3779 0,-1195 417,-2334 1306,-3474 861,-1139 2140,-1695 3890,-1695l10420 0c4585,0 8392,-1667 11365,-4973 2528,-2973 3779,-6613 3779,-10920 0,-4224 -1195,-7697 -3640,-10476 -2751,-3168 -6613,-4751 -11504,-4751zm78330 31120c4696,0 8586,-1639 11671,-4890 2584,-3056 3890,-6613 3890,-10753 0,-4224 -1306,-7781 -3890,-10726 -2835,-3251 -6725,-4890 -11671,-4890 -4557,0 -8475,1639 -11698,4890 -2584,3057 -3862,6613 -3862,10726 0,4251 1278,7808 3862,10753 2834,3251 6725,4890 11698,4890zm0 10337c-6557,0 -11809,2140 -15671,6447 -3474,3917 -5224,8725 -5224,14365 0,5585 1750,10337 5224,14255 3918,4362 9169,6530 15671,6530 6558,0 11782,-2140 15644,-6447 3473,-3918 5224,-8697 5224,-14338 0,-5502 -1723,-10253 -5140,-14282 -3918,-4363 -9170,-6530 -15728,-6530zm17117 -5752c4612,2668 8114,6391 10475,11170 2418,4752 3613,9892 3613,15394 0,8142 -2612,15255 -7808,21340 -5752,6530 -13532,9781 -23424,9781 -9781,0 -17534,-3223 -23397,-9642 -5196,-5779 -7780,-12948 -7780,-21479 0,-5502 1167,-10614 3446,-15310 2334,-4752 5863,-8531 10614,-11393 -2779,-2334 -4946,-5307 -6446,-8891 -1556,-3585 -2307,-7308 -2307,-11171 0,-6918 2140,-12892 6447,-17894 4779,-5391 11253,-8086 19423,-8086 8002,0 14449,2695 19367,8086 4362,4946 6530,10920 6530,17894 0,3863 -723,7586 -2168,11171 -1472,3584 -3640,6613 -6585,9030zm34705 52517c0,-1417 500,-2640 1501,-3640 1028,-1001 2223,-1528 3640,-1528 1139,0 2278,527 3445,1528 1140,1000 1723,2223 1723,3640 0,1250 -500,2417 -1500,3501 -1029,1111 -2251,1667 -3668,1667 -1445,0 -2723,-500 -3751,-1556 -945,-1084 -1390,-2278 -1390,-3612zm72579 -46765l139 -2390 0 -2834 0 -25980c0,-2946 -973,-5391 -2946,-7391 -1973,-2001 -4446,-3001 -7474,-3001l-10420 0c-2946,0 -5419,972 -7447,2945 -1000,1028 -1751,2140 -2251,3390 -500,1278 -750,2612 -750,4057l0 20812c0,2890 1000,5391 3001,7419 1028,889 2167,1639 3362,2251 1501,472 2862,722 4085,722l20701 0zm-1945 10337l-18756 0c-5585,0 -10448,-2001 -14560,-6002 -4141,-4001 -6197,-8947 -6197,-14755l0 -20756c0,-5724 2001,-10643 6058,-14672 4084,-4057 8975,-6085 14699,-6085l10392 0c5779,0 10698,2028 14727,6085 4029,4057 6057,8948 6057,14699l0 25897c0,9976 -1889,19312 -5640,28037 -2724,6474 -6530,12226 -11476,17200 -4919,5001 -10670,8836 -17228,11504l-2251 444c-1167,0 -2306,-556 -3390,-1667 -1056,-1112 -1583,-2390 -1583,-3751 0,-862 222,-1667 694,-2445 417,-806 1251,-1501 2501,-2084 2640,-1056 5057,-2307 7336,-3807 2278,-1473 4445,-3307 6529,-5474 3835,-3974 6947,-8670 9337,-14060l1417 -3946 1334 -4362zm81275 -22257l-33566 53517 32205 0c1445,0 2639,555 3667,1611 1001,1028 1529,2251 1529,3557 0,1195 -445,2334 -1306,3473 -889,1139 -2168,1695 -3890,1695l-41541 0c-3751,0 -5613,-1389 -5613,-4140 0,-1112 417,-2390 1250,-3890l38346 -61158c1306,-2723 1945,-5308 1945,-7808 0,-4446 -1723,-8309 -5196,-11587 -1640,-1529 -3557,-2723 -5724,-3613 -2168,-889 -4530,-1333 -7030,-1333 -2640,0 -5169,667 -7558,2056 -2445,1556 -4446,3529 -6030,5918 -389,667 -1084,1279 -2001,1890l-2306 500c-1306,0 -2556,-472 -3668,-1445 -1111,-972 -1667,-2139 -1667,-3584 0,-695 306,-1695 889,-2974 2362,-3695 5585,-6724 9670,-9086 1973,-1139 3973,-2028 5974,-2639 2029,-640 4001,-973 5946,-973 8114,0 14977,2668 20590,8058 5613,5363 8420,11754 8420,19201 0,4251 -1112,8502 -3335,12754z"/>
   <path class="fil2" d="M2596235 1358761l10364 0c1445,0 2668,528 3668,1612 1028,1028 1528,2251 1528,3557 0,1195 -417,2334 -1278,3473 -861,1139 -2195,1695 -3918,1695l-10364 0 0 15477c0,1612 -473,2946 -1473,3890 -945,862 -2167,1278 -3696,1278 -1361,0 -2584,-416 -3612,-1278 -1056,-861 -1556,-2167 -1556,-3890l0 -15477 -31204 0c-3585,0 -5419,-1389 -5419,-4196l167 -1278 306 -1195 20756 -72745c278,-1056 862,-2000 1779,-2834l972 -528c584,-306 1223,-445 2001,-445 1500,0 2779,501 3751,1501 1112,917 1667,2139 1667,3640l-250 1528 -18895 66215 24369 0 0 -15616c0,-1361 500,-2639 1556,-3834 1028,-889 2251,-1362 3612,-1362 1306,0 2529,445 3557,1306 1084,889 1612,2168 1612,3890l0 15616zm88194 8142c0,6169 -2223,11531 -6641,16061 -4418,4529 -9836,6779 -16227,6779l-6224 0c-6169,0 -11532,-2195 -16061,-6613 -4529,-4390 -6780,-9808 -6780,-16227l0 -58185c0,-6058 2223,-11393 6669,-15977 4446,-4585 9836,-6864 16172,-6864l6224 0c6168,0 11559,2196 16088,6641 4529,4418 6780,9837 6780,16200l0 58185zm-10336 28l0 -58241c0,-3418 -1223,-6363 -3613,-8808 -2417,-2473 -5362,-3668 -8891,-3668l-6280 0c-3418,0 -6335,1195 -8808,3640 -2446,2417 -3696,5363 -3696,8836l0 58241c0,3417 1223,6363 3640,8808 2445,2473 5391,3668 8864,3668l6280 0c3362,0 6307,-1167 8780,-3557 2473,-2389 3724,-5335 3724,-8919zm31065 17644c0,-1417 500,-2640 1500,-3640 1029,-1000 2223,-1528 3640,-1528 1140,0 2279,528 3446,1528 1139,1000 1723,2223 1723,3640 0,1251 -500,2418 -1501,3501 -1028,1112 -2250,1667 -3668,1667 -1444,0 -2723,-500 -3751,-1556 -944,-1083 -1389,-2278 -1389,-3612zm83054 -17672c0,6169 -2223,11531 -6641,16061 -4418,4529 -9837,6779 -16227,6779l-6225 0c-6168,0 -11531,-2195 -16060,-6613 -4529,-4390 -6780,-9808 -6780,-16227l0 -58185c0,-6058 2223,-11393 6669,-15977 4445,-4585 9836,-6864 16171,-6864l6225 0c6168,0 11559,2196 16088,6641 4529,4418 6780,9837 6780,16200l0 58185zm-10337 28l0 -58241c0,-3418 -1222,-6363 -3612,-8808 -2417,-2473 -5363,-3668 -8892,-3668l-6279 0c-3418,0 -6336,1195 -8809,3640 -2445,2417 -3695,5363 -3695,8836l0 58241c0,3417 1222,6363 3640,8808 2445,2473 5390,3668 8864,3668l6279 0c3363,0 6308,-1167 8781,-3557 2473,-2389 3723,-5335 3723,-8919zm62270 -39457c4696,0 8586,-1640 11670,-4891 2584,-3056 3890,-6613 3890,-10753 0,-4224 -1306,-7780 -3890,-10726 -2834,-3251 -6724,-4890 -11670,-4890 -4557,0 -8475,1639 -11698,4890 -2584,3057 -3863,6614 -3863,10726 0,4251 1279,7808 3863,10753 2834,3251 6724,4891 11698,4891zm0 10336c-6558,0 -11809,2140 -15672,6447 -3473,3918 -5224,8725 -5224,14366 0,5585 1751,10336 5224,14254 3918,4363 9170,6530 15672,6530 6558,0 11781,-2140 15644,-6447 3473,-3918 5224,-8697 5224,-14337 0,-5502 -1723,-10254 -5141,-14283 -3918,-4362 -9169,-6530 -15727,-6530zm17116 -5751c4613,2667 8114,6391 10476,11170 2417,4751 3612,9892 3612,15394 0,8141 -2612,15254 -7808,21340 -5752,6529 -13532,9780 -23424,9780 -9781,0 -17533,-3223 -23396,-9641 -5196,-5780 -7780,-12949 -7780,-21479 0,-5502 1167,-10615 3445,-15311 2334,-4751 5863,-8530 10615,-11392 -2779,-2334 -4946,-5308 -6447,-8892 -1556,-3584 -2306,-7308 -2306,-11170 0,-6919 2139,-12893 6446,-17895 4780,-5390 11254,-8086 19423,-8086 8003,0 14449,2696 19367,8086 4363,4946 6530,10920 6530,17895 0,3862 -722,7586 -2167,11170 -1473,3584 -3640,6613 -6586,9031z"/>
   <g>
    <path class="fil2" d="M2695933 3286480l330854 0 0 -708334 -335522 0 0 708334 4668 0zm321546 -9309l-316878 0 0 -689689 316878 0 0 689689z"/>
    <path class="fil2" d="M2859040 3263028c39679,0 75774,-16227 101921,-42374 26147,-26147 42402,-62242 42402,-101921l0 -460173c0,-15672 -6419,-29926 -16727,-40235 -10337,-10309 -24564,-16727 -40235,-16727l-174722 0c-15672,0 -29926,6418 -40235,16727 -10309,10309 -16728,24563 -16728,40235l0 460173c0,39679 16256,75774 42403,101921 26147,26147 62242,42374 101921,42374zm95335 -48960c-24452,24452 -58212,39652 -95335,39652 -37123,0 -70884,-15200 -95336,-39652 -24480,-24480 -39651,-58213 -39651,-95335l0 -460173c0,-13088 5363,-25008 13976,-33650 8642,-8613 20562,-13976 33650,-13976l174722 0c13087,0 25007,5363 33621,13976 8642,8642 14005,20562 14005,33650l0 460173c0,37122 -15200,70855 -39652,95335z"/>
    <path class="fil1" d="M2859040 2706797c10475,0 18950,-8475 18950,-18950 0,-10476 -8475,-18950 -18950,-18950 -10476,0 -18978,8474 -18978,18950 0,10475 8502,18950 18978,18950zm0 -7391c6391,0 11559,-5168 11559,-11559 0,-6391 -5168,-11559 -11559,-11559 -6391,0 -11559,5168 -11559,11559 0,6391 5168,11559 11559,11559z"/>
   </g>
   <g>
    <path class="fil2" d="M2462609 2773402l46626 0c26897,0 51377,-11004 69105,-28759 17728,-17700 28759,-42180 28759,-69106l0 -71967c0,-7085 -2945,-13587 -7613,-18283 -4696,-4696 -11170,-7614 -18284,-7614l-190560 0c-7085,0 -13560,2946 -18256,7614 -4696,4696 -7613,11170 -7613,18283l0 71967c0,26926 11003,51378 28731,69106 17728,17755 42208,28759 69105,28759zm46626 -9309l-46626 0c-24341,0 -46459,-9975 -62519,-26008 -16033,-16061 -26009,-38179 -26009,-62548l0 -71967c0,-4529 1862,-8697 4863,-11698 3001,-3001 7169,-4862 11698,-4862l190560 0c4529,0 8697,1861 11698,4862 3001,3001 4863,7141 4863,11698l0 71967c0,24341 -9975,46487 -26008,62548 -16033,16033 -38179,26008 -62520,26008z"/>
    <path class="fil2" d="M2462609 2745532c-19200,0 -36706,-7892 -49376,-20590 -12699,-12671 -20590,-30204 -20590,-49405l0 -28036 186559 0 0 28036c0,19229 -7892,36706 -20562,49405 -12699,12698 -30204,20590 -49405,20590l-46626 0zm-55962 -14005c14366,14394 34178,23313 55962,23313l46626 0c21757,0 41597,-8919 55990,-23313 14366,-14365 23313,-34177 23313,-55990l0 -30009c0,-2001 -862,-3862 -2168,-5168 -1333,-1334 -3167,-2168 -5168,-2168l-190560 0c-1973,0 -3807,862 -5140,2168 -1334,1361 -2168,3195 -2168,5168l0 30009c0,21785 8920,41625 23313,55990z"/>
    <path class="fil1" d="M2493841 2630412c5335,-2834 8975,-8447 8975,-14921 0,-9336 -7558,-16894 -16894,-16894 -9336,0 -16894,7558 -16894,16894 0,6474 3640,12087 9003,14921l0 39818 15810 0 0 -39818z"/>
    <path class="fil1" d="M2485922 2727359c10476,0 18978,-8475 18978,-18950 0,-10476 -8502,-18950 -18978,-18950 -10475,0 -18950,8474 -18950,18950 0,10475 8475,18950 18950,18950zm0 -7391c6391,0 11559,-5168 11559,-11559 0,-6391 -5168,-11559 -11559,-11559 -6391,0 -11559,5168 -11559,11559 0,6391 5168,11559 11559,11559z"/>
   </g>
   <g>
    <path class="fil2" d="M2299502 3343165l284257 0 0 -205037 -288925 0 0 205037 4668 0zm274948 -9309l-270280 0 0 -186420 270280 0 0 186420z"/>
    <path class="fil2" d="M2299502 3182975l284257 0 0 -44847 -288925 0 0 44847 4668 0zm274948 -9308l-270280 0 0 -26231 270280 0 0 26231z"/>
    <path class="fil2" d="M2439296 3328465c19645,0 37429,-7974 50322,-20839 12921,-12921 20867,-30705 20867,-50350 0,-19617 -7946,-37428 -20839,-50321 -12921,-12893 -30705,-20868 -50350,-20868 -19617,0 -37428,7975 -50321,20868 -12893,12893 -20868,30704 -20868,50321 0,19645 7975,37429 20868,50322 12893,12893 30704,20867 50321,20867zm43764 -27425c-11198,11198 -26647,18117 -43764,18117 -17088,0 -32565,-6919 -43736,-18117 -11198,-11198 -18116,-26675 -18116,-43764 0,-17088 6918,-32565 18089,-43736 11198,-11225 26675,-18144 43763,-18144 17117,0 32566,6919 43764,18117 11198,11198 18117,26675 18117,43763 0,17089 -6919,32566 -18117,43764z"/>
    <path class="fil2" d="M2439296 3302902c12615,0 24008,-5113 32261,-13365 8252,-8253 13365,-19646 13365,-32261 0,-12587 -5113,-24007 -13365,-32260 -8253,-8252 -19646,-13365 -32261,-13365 -12587,0 -24007,5113 -32260,13365 -8252,8253 -13365,19673 -13365,32260 0,12615 5113,24008 13365,32261 8253,8252 19673,13365 32260,13365zm25675 -19951c-6557,6558 -15644,10642 -25675,10642 -10031,0 -19089,-4084 -25674,-10642 -6558,-6558 -10615,-15644 -10615,-25675 0,-10031 4057,-19089 10615,-25674 6585,-6558 15643,-10643 25674,-10643 10031,0 19118,4085 25675,10643 6558,6585 10642,15643 10642,25674 0,10031 -4084,19117 -10642,25675z"/>
    <path class="fil1" d="M2323538 3171305c5307,0 9614,-4307 9614,-9587 0,-5307 -4307,-9614 -9614,-9614 -5280,0 -9587,4307 -9587,9614 0,5280 4307,9587 9587,9587z"/>
    <path class="fil1" d="M2559195 3171305c5307,0 9614,-4307 9614,-9587 0,-5307 -4307,-9614 -9614,-9614 -5307,0 -9586,4307 -9586,9614 0,5280 4279,9587 9586,9587z"/>
    <path class="fil1" d="M2528047 3171305c5307,0 9614,-4307 9614,-9587 0,-5307 -4307,-9614 -9614,-9614 -5280,0 -9587,4307 -9587,9614 0,5280 4307,9587 9587,9587z"/>
   </g>
   <g>
    <path class="fil2" d="M2852649 3698221l0 -163496 -64520 0c-3446,0 -6558,1417 -8837,3668 -2250,2250 -3667,5390 -3667,8836l0 141322c0,3835 1583,7336 4084,9837 2529,2528 6030,4084 9864,4084l63076 0 0 -4251zm-8531 -154993l0 150741 -54545 0c-1500,0 -2834,-611 -3834,-1583 -973,-1001 -1584,-2362 -1584,-3835l0 -141322c0,-1084 445,-2084 1167,-2807 723,-722 1723,-1194 2807,-1194l55989 0z"/>
    <path class="fil2" d="M2784155 3688551l0 -147602 -167831 0c-20867,0 -39846,8531 -53628,22285 -13782,13782 -22312,32760 -22312,53628 0,20868 8530,39846 22312,53628 13782,13782 32761,22312 53628,22312l167831 0 0 -4251zm-8530 -139099l0 134848 -159301 0c-18561,0 -35400,-7586 -47626,-19812 -12226,-12198 -19784,-29065 -19784,-47598 0,-18562 7558,-35428 19784,-47626 12226,-12227 29065,-19812 47626,-19812l159301 0z"/>
    <path class="fil2" d="M2763426 3674241l0 -115925c-30398,-4391 -120399,-17367 -147102,-17367 -20895,0 -39873,8531 -53628,22313 -13754,13726 -22312,32732 -22312,53600 0,20895 8558,39874 22312,53628 13755,13754 32733,22312 53628,22312 30038,0 114203,-10809 147102,-14810l0 -3751zm-8502 -108562l0 104783 -138850 13838c-18450,-84 -35205,-7642 -47376,-19812 -12198,-12226 -19784,-29093 -19784,-47626 0,-18506 7586,-35372 19784,-47598 12171,-12171 28926,-19729 47376,-19812l138850 16227z"/>
    <path class="fil2" d="M2827752 3617529c0,-3974 -1612,-7558 -4196,-10142 -2584,-2612 -6168,-4224 -10142,-4224 -3973,0 -7558,1612 -10142,4224 -2612,2584 -4223,6168 -4223,10142 0,3945 1611,7558 4223,10142 2584,2584 6197,4196 10142,4196 3974,0 7558,-1612 10142,-4196 2584,-2612 4196,-6197 4196,-10142z"/>
   </g>
   <g>
    <path class="fil2" d="M512189 3594049l-188420 0c-7392,0 -14144,3057 -19034,7919 -4891,4891 -7919,11643 -7919,19062l0 188393c0,7419 3028,14171 7919,19033 4863,4891 11615,7919 19034,7919l188420 0c7419,0 14144,-3028 19034,-7919 4890,-4862 7919,-11614 7919,-19033l0 -188393c0,-7419 -3029,-14171 -7919,-19062 -4890,-4862 -11643,-7919 -19034,-7919zm-188420 9336l188420 0c4835,0 9253,1973 12449,5169 3195,3195 5168,7613 5168,12476l0 188393c0,4834 -1973,9252 -5168,12448 -3196,3195 -7614,5196 -12449,5196l-188420 0c-4835,0 -9253,-2001 -12449,-5196 -3195,-3196 -5196,-7614 -5196,-12448l0 -188393c0,-4863 2001,-9281 5196,-12476 3168,-3196 7586,-5169 12449,-5169z"/>
    <path class="fil2" d="M492127 3612360l-148324 0c-7892,0 -15061,3224 -20257,8420 -5223,5196 -8447,12393 -8447,20284l0 101726c0,7864 3224,15061 8447,20257 5196,5196 12365,8447 20257,8447l148324 0c7892,0 15088,-3251 20284,-8447 5197,-5196 8420,-12365 8420,-20257l0 -101726c0,-7919 -3223,-15088 -8420,-20284 -5223,-5196 -12392,-8420 -20284,-8420zm-148324 9309l148324 0c5335,0 10198,2167 13699,5696 3501,3501 5696,8364 5696,13699l0 101726c0,5308 -2195,10170 -5696,13671 -3529,3529 -8364,5697 -13699,5697l-148324 0c-5307,0 -10170,-2168 -13671,-5697 -3529,-3528 -5724,-8363 -5724,-13671l0 -101726c0,-5335 2195,-10170 5724,-13699 3501,-3501 8364,-5696 13671,-5696z"/>
    <path class="fil1" d="M410074 3782164c-5363,2834 -9003,8447 -9003,14921 0,9337 7558,16895 16894,16895 9336,0 16894,-7558 16894,-16895 0,-6474 -3640,-12087 -8975,-14921l0 -39818 -15810 0 0 39818z"/>
    <path class="fil1" d="M417965 3664794c-10475,0 -18950,8475 -18950,18950 0,10476 8475,18950 18950,18950 10476,0 18978,-8474 18978,-18950 0,-10475 -8502,-18950 -18978,-18950zm0 7391c-6391,0 -11559,5168 -11559,11559 0,6391 5168,11559 11559,11559 6391,0 11587,-5168 11587,-11559 0,-6391 -5196,-11559 -11587,-11559z"/>
   </g>
   <g>
    <path class="fil2" d="M935517 3570458l-177361 0c-9559,0 -18256,3918 -24536,10198 -6280,6280 -10198,14977 -10198,24536l0 254191 242327 0 0 -258693c0,-8308 -3418,-15894 -8892,-21368 -5474,-5474 -13032,-8864 -21340,-8864zm-177361 9309l177361 0c5724,0 10976,2362 14755,6168 3806,3779 6168,9003 6168,14755l0 249384 -223709 0 0 -244882c0,-6975 2890,-13338 7474,-17951 4613,-4584 10976,-7474 17951,-7474z"/>
    <polygon class="fil2" points="961081,3604108 728091,3604108 728091,3613416 961081,3613416 "/>
    <path class="fil1" d="M900145 3634756c-20535,0 -37179,16645 -37179,37179 0,20534 16644,37178 37179,37178 20534,0 37178,-16644 37178,-37178 0,-20534 -16644,-37179 -37178,-37179z"/>
    <path class="fil1" d="M796195 3646316c-14143,0 -25619,11475 -25619,25619 0,14143 11476,25619 25619,25619 14171,0 25647,-11476 25647,-25619 0,-14144 -11476,-25619 -25647,-25619z"/>
    <path class="fil1" d="M796195 3749876c20535,0 37179,16672 37179,37206 0,20534 -16644,37179 -37179,37179 -20534,0 -37178,-16645 -37178,-37179 0,-20534 16644,-37206 37178,-37206z"/>
    <path class="fil1" d="M900145 3761435c14143,0 25619,11476 25619,25647 0,14144 -11476,25619 -25619,25619 -14171,0 -25647,-11475 -25647,-25619 0,-14171 11476,-25647 25647,-25647z"/>
   </g>
   <polygon class="fil0" points="89111,74662 1697979,74662 1697979,573931 1125855,573931 1125855,650038 304124,650038 304124,573931 89111,573931 "/>
   <path class="fil2" d="M695942 185558l0 36040 27008 0c2501,0 4613,-834 6391,-2529 1750,-1667 2640,-3835 2640,-6474l0 -18006c0,-2556 -862,-4668 -2557,-6419 -1695,-1722 -3862,-2612 -6474,-2612l-27008 0zm0 -8947l26980 0c4891,0 9086,1779 12671,5252 3529,3473 5307,7725 5307,12726l0 17978c0,4946 -1750,9142 -5252,12671 -3501,3529 -7752,5307 -12698,5307l-31454 0c-3029,0 -4502,-1501 -4502,-4502l0 -80970c0,-3000 1473,-4473 4502,-4473l35955 0c1223,0 2307,444 3168,1361 889,917 1334,1973 1334,3112 0,1029 -389,2001 -1139,3001 -751,973 -1862,1445 -3390,1445l-31482 0 0 27092zm74190 31455l-6502 19395c-334,944 -890,1695 -1668,2306 -583,389 -1417,639 -2417,778 -1223,0 -2251,-445 -3168,-1306 -972,-750 -1472,-1778 -1472,-3057l305 -1611 27064 -80915c889,-2556 2307,-3862 4224,-3862 1917,0 3334,1306 4223,3862l26926 80915 333 1611c0,1167 -500,2196 -1501,3140 -944,806 -2000,1223 -3139,1223 -612,0 -1251,-167 -2029,-473 -750,-277 -1445,-1139 -2084,-2611l-6474 -19395 -32621 0zm29620 -9226l-13254 -39568 -13282 39568 26536 0zm89556 27203c0,1418 -417,2557 -1278,3418 -806,723 -1862,1084 -3196,1084 -1167,0 -2223,-361 -3140,-1112 -889,-778 -1333,-1889 -1333,-3390l0 -76524 -14616 0 -21618 77664c-111,917 -639,1695 -1473,2389 -861,639 -1778,973 -2778,973 -1334,0 -2418,-361 -3279,-1112 -861,-750 -1306,-1834 -1306,-3195 0,-639 83,-1084 222,-1362l22507 -80942c639,-2223 2057,-3334 4279,-3334l22508 0c3001,0 4501,1473 4501,4473l0 80970zm26814 -46653l37901 -37568c889,-805 1917,-1222 3084,-1222 1112,0 2140,444 3112,1361 973,917 1473,2001 1473,3251 0,778 -472,1779 -1362,3029l-26786 26703 27620 48849 639 2389c0,1167 -500,2140 -1473,3001 -917,889 -2000,1362 -3306,1362 -1445,0 -2696,-778 -3779,-2362l-26397 -46904 -10726 10531 0 34233c0,1418 -417,2557 -1278,3418 -806,723 -1890,1084 -3196,1084 -1194,0 -2250,-361 -3140,-1112 -889,-778 -1333,-1889 -1333,-3390l0 -81081c0,-1139 444,-2167 1389,-3056 889,-889 1945,-1306 3084,-1306 1140,0 2195,333 3140,1028 889,750 1334,1889 1334,3334l0 34428zm112313 33149c0,4946 -1750,9170 -5251,12699 -3502,3529 -7753,5307 -12699,5307l-17978 0c-4890,0 -9114,-1751 -12643,-5252 -3556,-3473 -5335,-7724 -5335,-12754l0 -53961c0,-5002 1751,-9253 5224,-12754 3501,-3474 7753,-5224 12754,-5224l17978 0c4974,0 9225,1750 12726,5252 3474,3528 5224,7752 5224,12726l0 53961zm-8919 56l0 -54045c0,-2556 -862,-4668 -2557,-6419 -1695,-1722 -3862,-2612 -6474,-2612l-18006 0c-2528,0 -4668,862 -6446,2584 -861,862 -1501,1834 -1917,2918 -417,1112 -639,2279 -639,3529l0 54045c0,2528 833,4668 2556,6446 917,750 1889,1390 2917,1918 1279,416 2446,639 3529,639l18006 0c2501,0 4613,-834 6391,-2529 1751,-1667 2640,-3835 2640,-6474zm79108 -35984l0 -31538c0,-1194 417,-2250 1334,-3139 889,-917 1945,-1334 3112,-1334 1139,0 2195,361 3112,1111 917,751 1361,1890 1361,3362l0 80859c0,1278 -444,2418 -1389,3390 -1084,806 -2112,1223 -3140,1223 -1083,0 -2139,-361 -3140,-1084 -833,-722 -1250,-1862 -1250,-3362l0 -40541 -36039 0 0 40485c0,1418 -417,2557 -1278,3418 -806,723 -1890,1084 -3196,1084 -1195,0 -2251,-361 -3140,-1112 -889,-750 -1333,-1889 -1333,-3390l0 -80914c0,-1195 444,-2306 1333,-3334 889,-778 1945,-1167 3140,-1167 1139,0 2195,389 3084,1139 917,750 1390,1862 1390,3390l0 31454 36039 0zm-282589 79886l-18034 0c-1361,0 -2473,-416 -3334,-1278 -750,-889 -1139,-1973 -1139,-3195 0,-1056 389,-2084 1167,-3029 806,-945 1917,-1445 3306,-1445l18006 0c7030,0 12643,2279 16839,6863 3751,4307 5640,9448 5640,15478 0,3640 -694,6974 -2139,10031 -1417,3028 -3612,5751 -6586,8197 2501,1972 4557,4529 6225,7696 1667,3113 2500,6502 2500,10087l0 9003c0,6141 -2195,11420 -6613,15838 -4390,4418 -9697,6641 -15866,6641l-18006 0c-1361,0 -2473,-389 -3334,-1195 -750,-1000 -1139,-2084 -1139,-3279 0,-1028 361,-2000 1111,-3000 751,-973 1890,-1473 3390,-1473l18034 0c3723,0 6891,-1306 9530,-3974 2640,-2612 3946,-5807 3946,-9558l0 -9003c0,-3668 -1278,-6863 -3890,-9503 -2584,-2668 -5807,-4001 -9614,-4001l-9003 0c-1389,0 -2501,-389 -3362,-1195 -778,-1000 -1167,-2084 -1167,-3279 0,-1028 361,-2001 1139,-3001 750,-972 1862,-1473 3390,-1473l9003 0c3973,0 7280,-1444 9836,-4306 2195,-2557 3279,-5725 3279,-9448 0,-3668 -1056,-6696 -3140,-9058 -2389,-2751 -5724,-4141 -9975,-4141zm40818 76413c0,-1222 445,-2278 1306,-3167 889,-862 1945,-1306 3168,-1306 972,0 1973,444 2973,1306 1000,889 1501,1945 1501,3167 0,1084 -445,2084 -1334,3029 -862,973 -1917,1445 -3140,1445 -1278,0 -2362,-444 -3279,-1334 -806,-944 -1195,-2000 -1195,-3140zm53962 -49460c4084,0 7474,-1417 10142,-4251 2223,-2612 3362,-5696 3362,-9281 0,-3667 -1139,-6752 -3362,-9280 -2445,-2835 -5835,-4279 -10142,-4279 -3946,0 -7308,1444 -10115,4279 -2222,2612 -3362,5696 -3362,9280 0,3668 1140,6753 3362,9281 2446,2834 5836,4251 10115,4251zm0 8948c-5669,0 -10198,1861 -13560,5585 -3001,3418 -4501,7558 -4501,12448 0,4835 1500,8947 4501,12365 3390,3751 7947,5641 13560,5641 5696,0 10225,-1862 13587,-5585 3001,-3390 4502,-7530 4502,-12421 0,-4751 -1473,-8892 -4446,-12365 -3390,-3779 -7947,-5668 -13643,-5668zm14866 -4974c3973,2306 7002,5529 9058,9670 2084,4112 3112,8586 3112,13337 0,7058 -2251,13199 -6752,18478 -4974,5641 -11726,8475 -20284,8475 -8475,0 -15199,-2779 -20257,-8364 -4501,-4973 -6752,-11198 -6752,-18589 0,-4751 1001,-9197 3001,-13282 2001,-4084 5057,-7363 9170,-9836 -2390,-2029 -4252,-4585 -5585,-7697 -1334,-3112 -2001,-6335 -2001,-9670 0,-6002 1890,-11198 5613,-15505 4140,-4668 9753,-7002 16811,-7002 6919,0 12504,2334 16783,7002 3779,4279 5640,9448 5640,15505 0,3335 -611,6558 -1861,9670 -1278,3112 -3168,5724 -5696,7808zm39179 4974l-195 4501 0 22535c0,2529 834,4668 2584,6446 889,751 1862,1390 2890,1918 1278,417 2473,639 3557,639l9030 0c2501,0 4613,-834 6363,-2529 1779,-1667 2668,-3834 2668,-6474l0 -18006c0,-2556 -861,-4668 -2556,-6418 -1695,-1723 -3863,-2612 -6475,-2612l-17866 0zm1583 -8948l16256 0c4890,0 9086,1779 12670,5252 3557,3473 5335,7725 5335,12726l0 17978c0,4946 -1778,9142 -5279,12671 -3529,3529 -7753,5307 -12726,5307l-9003 0c-4835,0 -9031,-1723 -12615,-5196 -3557,-3473 -5363,-7725 -5363,-12782l0 -22451c0,-8531 1611,-16617 4890,-24286 2195,-5307 5502,-10170 9809,-14532 4335,-4363 9336,-7780 15032,-10253l1918 -445c1167,0 2223,445 3167,1389 751,1001 1140,2084 1140,3279 0,862 -195,1584 -584,2195 -361,612 -1084,1223 -2167,1862 -1195,472 -2279,945 -3251,1445 -973,500 -2001,1139 -3112,1889 -1834,1251 -3724,2779 -5641,4641 -3529,3501 -6224,7530 -8086,12059l-1361 3612 -1029 3640zm-123122 156272c0,1417 -417,2556 -1278,3418 -806,722 -1862,1083 -3195,1083 -1167,0 -2223,-361 -3140,-1111 -889,-750 -1334,-1890 -1334,-3390l0 -70106 -10309 10309c-917,917 -1945,1362 -3112,1362 -1056,0 -2112,-445 -3112,-1362 -945,-944 -1445,-2000 -1445,-3223 0,-1028 472,-2056 1362,-3084l17950 -18034c583,-611 1222,-1083 1861,-1472 640,-362 1334,-556 2084,-556 751,0 1612,472 2585,1361 722,945 1083,2223 1083,3807l0 80998zm18006 28c0,-1223 445,-2279 1306,-3168 889,-861 1945,-1306 3168,-1306 972,0 1972,445 2973,1306 1000,889 1500,1945 1500,3168 0,1083 -444,2084 -1334,3028 -861,973 -1917,1445 -3139,1445 -1279,0 -2362,-444 -3279,-1333 -806,-945 -1195,-2001 -1195,-3140zm53906 -28c0,1417 -417,2556 -1278,3418 -806,722 -1862,1083 -3196,1083 -1167,0 -2223,-361 -3140,-1111 -889,-750 -1333,-1890 -1333,-3390l0 -70106 -10309 10309c-917,917 -1945,1362 -3112,1362 -1056,0 -2112,-445 -3112,-1362 -945,-944 -1445,-2000 -1445,-3223 0,-1028 472,-2056 1361,-3084l17950 -18034c584,-611 1223,-1083 1862,-1472 639,-362 1334,-556 2084,-556 750,0 1612,472 2584,1361 723,945 1084,2223 1084,3807l0 80998zm27147 -40485l-194 4501 0 22535c0,2529 833,4668 2584,6447 889,750 1862,1389 2890,1917 1278,417 2473,639 3556,639l9031 0c2501,0 4613,-834 6363,-2529 1778,-1667 2668,-3834 2668,-6474l0 -18005c0,-2557 -862,-4669 -2557,-6419 -1695,-1723 -3862,-2612 -6474,-2612l-17867 0zm1584 -8947l16255 0c4891,0 9086,1778 12671,5251 3557,3474 5335,7725 5335,12727l0 17977c0,4946 -1778,9142 -5280,12671 -3528,3529 -7752,5307 -12726,5307l-9003 0c-4834,0 -9030,-1722 -12615,-5196 -3556,-3473 -5363,-7724 -5363,-12782l0 -22451c0,-8531 1612,-16616 4891,-24286 2195,-5307 5502,-10169 9809,-14532 4334,-4362 9336,-7780 15032,-10253l1917 -445c1167,0 2223,445 3168,1390 750,1000 1139,2084 1139,3278 0,862 -194,1584 -583,2196 -361,611 -1084,1222 -2168,1861 -1194,473 -2278,945 -3251,1445 -972,500 -2000,1139 -3112,1890 -1834,1250 -3723,2778 -5640,4640 -3529,3501 -6225,7530 -8086,12059l-1362 3613 -1028 3640zm-146046 61519c445,861 639,1612 639,2334 0,1139 -500,2140 -1445,3001 -944,834 -2084,1278 -3306,1278 -1362,0 -2612,-750 -3779,-2306 -4029,-7475 -7336,-15894 -9920,-25341 -1000,-3835 -1834,-8170 -2501,-12977 -695,-4779 -1028,-9336 -1028,-13671 0,-18200 4474,-35539 13449,-51988 389,-723 944,-1306 1667,-1723 639,-306 1389,-528 2195,-667 1306,0 2417,445 3334,1306 890,750 1334,1806 1334,3140 0,639 -194,1389 -639,2251 -1000,1750 -1889,3501 -2751,5224 -833,1750 -1611,3556 -2362,5446 -750,1889 -1472,3834 -2111,5863 -667,2000 -1334,4140 -1973,6418 -2140,8336 -3223,16589 -3223,24730 0,16839 4140,32733 12420,47682zm206204 4307c-250,556 -778,1111 -1612,1667l-1083 445 -1167 194c-1195,0 -2279,-417 -3224,-1250 -972,-834 -1445,-1890 -1445,-3112 0,-639 195,-1390 612,-2251 3751,-6891 6835,-14643 9253,-23257 2139,-8308 3195,-16450 3195,-24425 0,-4668 -194,-8864 -667,-12643 -444,-3779 -1222,-7724 -2334,-11809l-1750 -5918 -917 -2835 -1167 -3028c-1362,-3501 -3224,-7308 -5613,-11421l-612 -2389c0,-1028 473,-1973 1445,-2918 1001,-917 2084,-1361 3307,-1361 1473,0 2751,778 3779,2362 2167,4029 4029,8002 5557,11892 1501,3890 2973,8392 4391,13421 1000,3779 1833,8058 2500,12921 695,4835 1028,9419 1028,13726 0,5030 -250,9670 -805,13921 -528,4252 -1390,8559 -2585,12893 -2056,8725 -5418,17117 -10086,25175z"/>
  </g>
 </g>
</svg>
