<?xml version="1.0" encoding="UTF-8"?>
<!DOCTYPE svg PUBLIC "-//W3C//DTD SVG 1.0//EN" "http://www.w3.org/TR/2001/REC-SVG-20010904/DTD/svg10.dtd">
<!-- Creator: CorelDRAW X7 -->
<svg xmlns="http://www.w3.org/2000/svg" xml:space="preserve" width="193px" height="176px" version="1.0" style="shape-rendering:geometricPrecision; text-rendering:geometricPrecision; image-rendering:optimizeQuality; fill-rule:evenodd; clip-rule:evenodd"
viewBox="0 0 3906194 3559714"
 xmlns:xlink="http://www.w3.org/1999/xlink">
 <defs>
  <style type="text/css">
   <![CDATA[
    .fil1 {fill:#5B5B5B}
    .fil0 {fill:#F5B3C4}
    .fil2 {fill:#FEFEFE}
    .fil3 {fill:#5B5B5B;fill-rule:nonzero}
   ]]>
  </style>
 </defs>
 <g id="Слой_x0020_1">
  <metadata id="CorelCorpID_0Corel-Layer"/>
  <g id="_1035014688">
   <g>
    <g>
     <path class="fil0" d="M3893556 881740l12638 0 0 2477631 0 100172 0 100171 -464235 0 -12518 0 0 -200343 -748409 0 0 200343 -14525 0 -864157 0 0 -200343 -748409 0 0 200343 -27020 0 -524223 0 0 -12016 -2939 0 0 -1919436 -383461 0 0 0 -26232 0 0 0 -22146 0 0 0 -15839 0 0 0 0 -58412 0 -1511462 0 -25706 0 -32682 447678 0 2939 0 125113 0 72268 0 1477323 0 96158 0 0 95226 0 786514 1408162 0 0 499497 177122 0 0 -499497 34712 0zm-1824974 -786514l162263 0 0 671507 -162263 0 0 -671507z"/>
     <path class="fil1" d="M730228 797742l0 8027 -39156 0 0 -8027 39156 0zm2323157 1091903l66869 -188661 0 -18157 -8577 0 0 -270246 0 -36696 0 -81680 8577 0 0 -23532 29862 0 0 23532 15649 0 0 81680 489367 0 0 -291986 0 -106932 -495006 0 -860 77046 -9150 -908 0 18992 -21716 0 -67179 166085 -7836 -1696 66869 -164604 0 -18777 -12758 -1171 -215 -74967 0 -58364 -20354 0 0 -29863 20354 0 0 -7000 699601 0 86674 0 12638 0 0 2477631 0 100172 0 100171 -464235 0 -82445 0 -608555 0 -84452 0 -864157 0 -104568 0 -611398 0 -59463 0 -524223 0 0 -12016 -2939 0 0 -1919436 -435566 0 0 0 -26208 0 0 0 -22146 0 0 0 -15839 0 0 0 0 -58412 0 -1511462 0 -25706 0 -32682 499759 0 2939 0 125113 0 72268 0 1477323 0 96158 0 0 95226 0 786514 449352 0 0 7000 24965 0 304863 -66845 1696 7812 -306320 67180 0 21716 -25204 0 0 58364 -449352 0 -56213 0 -39945 0 0 -171198 -100816 0 -14932 0 -36193 0 -2987 0 0 -8027 2987 0 0 -41760 0 -344951 0 -151894 0 -163911 -1325382 0 0 283100 -87701 0 0 351401 -38846 0 0 323234 28071 0 49788 -313439 7883 1242 -49572 312197 2676 0 0 31822 87701 0 0 972284 1121717 0 0 2055 20904 0 0 29839 -20904 0 0 4802 -1121717 0 0 1265608 326842 0 59463 0 611398 0 104568 0 469944 0 0 -1265608 -91189 0 0 -4802 -19375 0 -284843 66868 -1672 -7812 286276 -67203 0 -21692 19614 0 0 -2055 279420 0 0 -24057 8004 0 0 24057 293061 0 0 2055 20952 0 0 21692 274283 67203 -1696 7812 -272802 -66868 -20737 0 0 4802 -435208 0 0 1265608 340125 0 84452 0 608555 0 82445 0 364923 0 0 -1265608 -641117 0 -54088 0 0 -4802 -22361 0 0 -29839 22361 0 0 -2055 0 -108844 8577 0 0 -24391 29862 0 0 24391 15649 0 0 108844 641117 0 0 -644486 -100625 0 -51125 0 -489367 0 0 270246 -15649 0 0 18372 -21716 0 -67179 190118 -7836 -1672zm-592860 -874765l8004 0 0 39156 -8004 0 0 -39156zm0 78313l8004 0 0 39156 -8004 0 0 -39156zm0 78312l8004 0 0 39156 -8004 0 0 -39156zm0 78336l8004 0 0 39156 -8004 0 0 -39156zm0 78312l8004 0 0 39156 -8004 0 0 -39156zm0 78312l8004 0 0 39156 -8004 0 0 -39156zm0 78312l8004 0 0 39156 -8004 0 0 -39156zm0 78312l8004 0 0 39156 -8004 0 0 -39156zm0 78336l8004 0 0 39156 -8004 0 0 -39156zm0 78312l8004 0 0 39156 -8004 0 0 -39156zm0 78313l8004 0 0 39156 -8004 0 0 -39156zm0 78312l8004 0 0 39180 -8004 0 0 -39180zm0 78336l8004 0 0 39156 -8004 0 0 -39156zm-477207 -1156956l0 8027 -39156 0 0 -8027 39156 0zm-78312 0l0 8027 -39156 0 0 -8027 39156 0zm-78312 0l0 8027 -39156 0 0 -8027 39156 0zm-78336 0l0 8027 -39156 0 0 -8027 39156 0zm-78312 0l0 8027 -39156 0 0 -8027 39156 0zm-78312 0l0 8027 -39156 0 0 -8027 39156 0zm-78313 0l0 8027 -39156 0 0 -8027 39156 0zm-78312 0l0 8027 -39180 0 0 -8027 39180 0zm-78336 0l0 8027 -39156 0 0 -8027 39156 0zm-78312 0l0 8027 -39156 0 0 -8027 39156 0zm-78312 0l0 8027 -39156 0 0 -8027 39156 0zm-78312 0l0 8027 -39156 0 0 -8027 39156 0zm-78336 0l0 8027 -39156 0 0 -8027 39156 0zm-78312 0l0 8027 -39156 0 0 -8027 39156 0zm-78312 0l0 8027 -39156 0 0 -8027 39156 0zm-78313 0l0 8027 -39180 0 0 -8027 39180 0zm2986708 286157l-76903 59941 -12112 155453 0 -215394 89015 0zm-87080 291986l17129 -226264 81561 -64933 0 291197 -98690 0zm-1533011 -964854l-76975 60012 -21620 219790 0 -279802 98595 0zm-97043 344951l27020 -279157 72244 -57528 0 336685 -99264 0zm-1552 -496845l100816 0 0 -163911 -100816 0 0 163911zm-1516241 119189l-60586 0 0 -319938 -435566 0 0 1511462 435566 0 0 -485067 60586 0 0 -31822 0 -323234 0 -351401zm-522360 -319938l0 1511462 -22146 0 0 -1511462 22146 0zm2712974 3308891l0 80318 608555 0 0 -80318 -608555 0zm0 104400l0 80128 608555 0 0 -80128 -608555 0zm-1664575 -104400l0 80318 611398 0 0 -80318 -611398 0zm0 104400l0 80128 611398 0 0 -80128 -611398 0z"/>
    </g>
    <g>
     <polygon class="fil2" points="762886,2815773 1403956,2815773 1403956,3296564 762886,3296564 "/>
     <path class="fil3" d="M997894 2815773l9795 0 396267 0 0 153829 0 19279 0 134574 0 19256 0 153853 -396267 0 -19590 0 -225260 0 0 -480791 9818 0 215442 0 9795 0zm-9795 461511l0 -134573 0 -19256 0 -134574 0 -19279 0 -134574 -205647 0 0 442256 205647 0zm396244 -134573l-376654 0 0 134573 376654 0 0 -134573zm0 -153830l-376654 0 0 134574 376654 0 0 -134574zm0 -153853l-376654 0 0 134574 376654 0 0 -134574z"/>
     <path class="fil3" d="M835752 3008854l-27809 0c-2102,0 -3822,-645 -5136,-1983 -1195,-1386 -1816,-3034 -1816,-4922 0,-1672 621,-3225 1840,-4682 1218,-1481 2938,-2222 5112,-2222l27785 0c10870,0 19518,3512 25992,10583 5829,6642 8720,14597 8720,23891 0,5614 -1075,10774 -3297,15481 -2198,4682 -5590,8887 -10153,12685 3822,3034 7024,6976 9604,11850 2580,4826 3846,10034 3846,15600l0 13880c0,9461 -3416,17631 -10201,24464 -6809,6832 -15003,10249 -24511,10249l-27785 0c-2102,0 -3822,-597 -5136,-1864 -1195,-1529 -1816,-3201 -1816,-5040 0,-1601 598,-3106 1744,-4635 1171,-1529 2915,-2270 5232,-2270l27832 0c5758,0 10655,-2030 14717,-6116 4085,-4061 6116,-8982 6116,-14764l0 -13904c0,-5686 -1983,-10607 -6021,-14692 -3989,-4110 -8959,-6164 -14859,-6164l-13905 0c-2126,0 -3846,-597 -5184,-1864 -1170,-1528 -1792,-3201 -1792,-5040 0,-1601 574,-3106 1768,-4635 1147,-1529 2867,-2270 5208,-2270l13905 0c6163,0 11252,-2221 15194,-6665 3392,-3966 5088,-8839 5088,-14597 0,-5638 -1624,-10320 -4873,-14000 -3679,-4228 -8840,-6354 -15409,-6354zm76830 41616l34928 0c1935,0 3560,717 4897,2127 1386,1385 2079,3010 2079,4778 0,1648 -573,3225 -1768,4682 -1147,1481 -2915,2222 -5208,2222l-34928 0 0 55640 48808 0c1935,0 3560,717 4945,2126 1338,1386 2031,3011 2031,4779 0,1648 -573,3225 -1744,4682 -1170,1481 -2891,2222 -5208,2222l-55712 0c-4635,0 -6928,-2198 -6928,-6570l0 -125400c0,-4634 2293,-6928 6928,-6928l55712 0c1911,0 3560,717 4921,2126 1338,1386 2031,3010 2031,4778 0,1649 -573,3226 -1768,4683 -1146,1481 -2867,2222 -5208,2222l-48808 0 0 41831z"/>
     <path class="fil3" d="M1092882 2867734l-17894 0c-1362,0 -2461,-406 -3321,-1266 -740,-884 -1146,-1959 -1146,-3177 0,-1052 406,-2055 1170,-2987 789,-979 1912,-1457 3297,-1457l17870 0c6976,0 12542,2270 16699,6809 3751,4276 5615,9389 5615,15385 0,3607 -693,6904 -2127,9938 -1409,3010 -3583,5710 -6522,8147 2461,1959 4516,4491 6164,7621 1672,3106 2485,6474 2485,10034l0 8911c0,6116 -2198,11348 -6570,15743 -4372,4396 -9628,6594 -15744,6594l-17870 0c-1362,0 -2461,-382 -3321,-1194 -740,-980 -1146,-2079 -1146,-3249 0,-1028 382,-2007 1123,-2987 764,-979 1863,-1457 3368,-1457l17894 0c3679,0 6832,-1290 9460,-3918 2628,-2628 3942,-5781 3942,-9508l0 -8935c0,-3655 -1290,-6809 -3870,-9437 -2580,-2628 -5781,-3966 -9556,-3966l-8959 0c-1362,0 -2484,-382 -3321,-1194 -764,-980 -1146,-2079 -1146,-3249 0,-1028 358,-2007 1122,-2987 741,-979 1840,-1457 3345,-1457l8959 0c3942,0 7215,-1433 9771,-4276 2174,-2556 3249,-5686 3249,-9389 0,-3631 -1027,-6618 -3129,-9007 -2366,-2723 -5686,-4085 -9891,-4085zm49381 -119l0 4491c0,1410 -406,2556 -1266,3416 -789,717 -1864,1099 -3178,1099 -1170,0 -2197,-382 -3105,-1123 -884,-764 -1314,-1863 -1314,-3368l0 -8935c0,-2986 1481,-4468 4467,-4468l35740 0c3010,0 4515,1219 4515,3680l-263 1911 -22289 80414c-143,884 -645,1649 -1481,2318 -860,645 -1768,979 -2748,979 -1314,0 -2389,-358 -3249,-1099 -836,-764 -1266,-1815 -1266,-3177 0,-645 48,-1075 191,-1338l20713 -74800 -25467 0zm53610 75971c0,-1219 430,-2270 1290,-3130 884,-860 1911,-1314 3129,-1314 980,0 1959,454 2963,1314 979,860 1481,1911 1481,3130 0,1075 -430,2078 -1290,3010 -884,955 -1935,1433 -3154,1433 -1242,0 -2341,-430 -3225,-1338 -812,-931 -1194,-1959 -1194,-3105zm62401 -40208l119 -2054 0 -2437 0 -22337c0,-2533 -836,-4635 -2532,-6355 -1696,-1720 -3822,-2580 -6426,-2580l-8959 0c-2533,0 -4659,836 -6403,2532 -860,884 -1505,1840 -1935,2915 -430,1099 -645,2245 -645,3488l0 17893c0,2485 860,4635 2580,6379 884,765 1864,1410 2891,1935 1290,406 2461,621 3512,621l17798 0zm-1672 8887l-16126 0c-4802,0 -8983,-1720 -12519,-5160 -3559,-3440 -5327,-7692 -5327,-12686l0 -17846c0,-4921 1720,-9149 5208,-12614 3512,-3488 7716,-5232 12638,-5232l8935 0c4969,0 9197,1744 12661,5232 3465,3488 5209,7693 5209,12638l0 22266c0,8577 -1625,16604 -4850,24105 -2341,5567 -5614,10512 -9867,14788 -4228,4301 -9174,7597 -14812,9891l-1935 382c-1003,0 -1983,-478 -2914,-1433 -908,-956 -1362,-2055 -1362,-3225 0,-741 191,-1434 597,-2103 358,-693 1075,-1290 2150,-1792 2270,-907 4348,-1982 6307,-3273 1959,-1266 3823,-2842 5614,-4706 3297,-3416 5973,-7454 8027,-12088l1219 -3393 1147 -3751zm69879 -19136l-28860 46013 27689 0c1242,0 2269,478 3153,1386 860,884 1314,1935 1314,3058 0,1027 -382,2006 -1122,2986 -765,979 -1864,1457 -3345,1457l-35716 0c-3225,0 -4826,-1194 -4826,-3560 0,-955 359,-2054 1075,-3344l32969 -52583c1123,-2341 1672,-4563 1672,-6713 0,-3822 -1481,-7143 -4467,-9962 -1410,-1314 -3058,-2341 -4922,-3106 -1863,-764 -3894,-1146 -6044,-1146 -2270,0 -4444,573 -6498,1768 -2102,1337 -3823,3034 -5184,5088 -335,574 -932,1099 -1720,1625l-1983 430c-1123,0 -2198,-406 -3154,-1243 -955,-836 -1433,-1839 -1433,-3081 0,-598 263,-1458 764,-2557 2031,-3177 4802,-5781 8314,-7812 1696,-979 3416,-1744 5136,-2269 1744,-550 3441,-837 5113,-837 6976,0 12877,2294 17703,6929 4825,4610 7238,10105 7238,16508 0,3655 -955,7310 -2866,10965z"/>
     <path class="fil3" d="M1088510 3021826l0 26877 13426 0c6068,0 11348,2174 15744,6545 4420,4348 6618,9604 6618,15768l0 8911c0,6092 -2198,11324 -6570,15720 -4372,4396 -9652,6593 -15768,6593l-17870 0c-1338,0 -2460,-406 -3296,-1266 -765,-884 -1147,-1959 -1147,-3177 0,-1051 382,-2055 1170,-3010 813,-956 1888,-1434 3297,-1434l17894 0c3655,0 6809,-1266 9437,-3822 2628,-2556 3965,-5734 3965,-9604l0 -8935c0,-3703 -1290,-6856 -3870,-9460 -2580,-2628 -5757,-3942 -9532,-3942l-17894 0c-2986,0 -4467,-1482 -4467,-4468l0 -35716c0,-2986 1481,-4467 4443,-4467l35740 0c1219,0 2294,454 3154,1362 860,907 1314,1935 1314,3081 0,1028 -383,2007 -1123,2987 -765,979 -1864,1457 -3345,1457l-31320 0zm94988 25515l-28860 46012 27689 0c1242,0 2270,478 3153,1386 860,884 1314,1935 1314,3058 0,1027 -382,2007 -1122,2986 -765,980 -1864,1457 -3345,1457l-35716 0c-3225,0 -4826,-1194 -4826,-3559 0,-956 359,-2055 1075,-3345l32969 -52582c1123,-2341 1672,-4563 1672,-6713 0,-3823 -1481,-7143 -4467,-9963 -1410,-1313 -3058,-2341 -4922,-3105 -1863,-765 -3894,-1147 -6044,-1147 -2270,0 -4444,573 -6498,1768 -2102,1338 -3823,3034 -5184,5088 -335,574 -932,1099 -1720,1625l-1983 430c-1123,0 -2198,-406 -3154,-1242 -955,-836 -1433,-1840 -1433,-3082 0,-597 263,-1457 764,-2556 2031,-3178 4802,-5782 8314,-7812 1696,-980 3416,-1744 5136,-2270 1744,-549 3441,-836 5113,-836 6976,0 12877,2293 17703,6928 4825,4611 7238,10106 7238,16508 0,3655 -955,7311 -2866,10966zm21095 50456c0,-1219 430,-2270 1290,-3130 884,-860 1911,-1314 3129,-1314 980,0 1959,454 2963,1314 979,860 1481,1911 1481,3130 0,1075 -430,2078 -1290,3010 -884,956 -1935,1433 -3154,1433 -1242,0 -2341,-430 -3225,-1337 -812,-932 -1194,-1959 -1194,-3106zm53514 -24c0,1410 -406,2532 -1266,3369 -813,740 -1864,1098 -3178,1098 -1170,0 -2222,-358 -3106,-1098 -884,-741 -1337,-1888 -1337,-3369l0 -69592 -10249 10249c-884,884 -1912,1338 -3058,1338 -1075,0 -2103,-454 -3106,-1338 -956,-956 -1433,-2007 -1433,-3202 0,-1027 477,-2054 1361,-3081l17799 -17894c597,-621 1218,-1099 1839,-1457 645,-359 1338,-550 2102,-550 741,0 1577,454 2533,1338 716,932 1099,2198 1099,3775l0 80414zm59247 -50432l-28859 46012 27689 0c1242,0 2269,478 3153,1386 860,884 1314,1935 1314,3058 0,1027 -382,2007 -1123,2986 -764,980 -1863,1457 -3344,1457l-35716 0c-3225,0 -4826,-1194 -4826,-3559 0,-956 358,-2055 1075,-3345l32969 -52582c1123,-2341 1672,-4563 1672,-6713 0,-3823 -1481,-7143 -4467,-9963 -1410,-1313 -3058,-2341 -4922,-3105 -1863,-765 -3894,-1147 -6044,-1147 -2270,0 -4444,573 -6498,1768 -2103,1338 -3823,3034 -5184,5088 -335,574 -932,1099 -1720,1625l-1983 430c-1123,0 -2198,-406 -3154,-1242 -955,-836 -1433,-1840 -1433,-3082 0,-597 262,-1457 764,-2556 2031,-3178 4802,-5782 8314,-7812 1696,-980 3416,-1744 5136,-2270 1744,-549 3441,-836 5113,-836 6976,0 12877,2293 17703,6928 4825,4611 7238,10106 7238,16508 0,3655 -955,7311 -2867,10966z"/>
     <path class="fil3" d="M1072981 3173099l0 26876 13427 0c6068,0 11348,2174 15743,6546 4420,4348 6618,9604 6618,15768l0 8911c0,6092 -2198,11324 -6570,15720 -4372,4395 -9652,6593 -15767,6593l-17870 0c-1338,0 -2461,-406 -3297,-1266 -765,-884 -1147,-1959 -1147,-3177 0,-1051 382,-2055 1171,-3010 812,-956 1887,-1434 3297,-1434l17893 0c3656,0 6809,-1266 9437,-3822 2628,-2557 3966,-5734 3966,-9604l0 -8935c0,-3703 -1290,-6857 -3870,-9461 -2581,-2628 -5758,-3941 -9533,-3941l-17893 0c-2987,0 -4468,-1482 -4468,-4468l0 -35716c0,-2986 1481,-4467 4444,-4467l35739 0c1219,0 2294,454 3154,1361 860,908 1314,1936 1314,3082 0,1028 -382,2007 -1123,2987 -764,979 -1863,1457 -3345,1457l-31320 0zm75565 119l-17894 0c-1361,0 -2460,-406 -3320,-1266 -741,-884 -1147,-1959 -1147,-3177 0,-1051 406,-2055 1171,-2987 788,-979 1911,-1457 3296,-1457l17870 0c6976,0 12543,2270 16700,6809 3750,4276 5614,9389 5614,15385 0,3608 -693,6904 -2126,9939 -1410,3010 -3584,5709 -6523,8146 2461,1959 4516,4491 6164,7621 1672,3106 2485,6474 2485,10034l0 8911c0,6116 -2198,11348 -6570,15744 -4372,4395 -9628,6593 -15744,6593l-17870 0c-1361,0 -2460,-382 -3320,-1194 -741,-980 -1147,-2079 -1147,-3249 0,-1028 382,-2007 1123,-2987 764,-979 1863,-1457 3368,-1457l17894 0c3679,0 6833,-1290 9461,-3918 2628,-2628 3941,-5781 3941,-9508l0 -8935c0,-3655 -1290,-6809 -3870,-9437 -2580,-2628 -5781,-3965 -9556,-3965l-8959 0c-1361,0 -2484,-383 -3320,-1195 -765,-979 -1147,-2078 -1147,-3249 0,-1027 358,-2007 1123,-2986 740,-980 1839,-1458 3344,-1458l8959 0c3942,0 7215,-1433 9771,-4276 2174,-2556 3249,-5686 3249,-9389 0,-3631 -1027,-6617 -3129,-9006 -2365,-2724 -5686,-4086 -9891,-4086zm40518 75852c0,-1219 430,-2270 1290,-3130 884,-860 1911,-1314 3130,-1314 979,0 1959,454 2962,1314 980,860 1481,1911 1481,3130 0,1075 -430,2078 -1290,3010 -884,956 -1935,1433 -3153,1433 -1243,0 -2342,-430 -3226,-1338 -812,-931 -1194,-1959 -1194,-3105zm66964 -22194l8911 0c1243,0 2294,454 3154,1385 884,884 1314,1935 1314,3058 0,1028 -359,2007 -1099,2987 -741,979 -1887,1457 -3369,1457l-8911 0 0 13307c0,1385 -406,2532 -1266,3344 -812,741 -1863,1099 -3177,1099 -1171,0 -2222,-358 -3106,-1099 -908,-740 -1338,-1863 -1338,-3344l0 -13307 -26829 0c-3081,0 -4658,-1195 -4658,-3608l143 -1098 263 -1028 17846 -62544c239,-908 741,-1720 1529,-2437l836 -454c502,-263 1051,-382 1720,-382 1290,0 2389,430 3225,1290 956,788 1434,1839 1434,3129l-215 1314 -16246 56931 20952 0 0 -13427c0,-1170 430,-2269 1338,-3296 884,-765 1935,-1171 3106,-1171 1123,0 2174,382 3058,1123 931,764 1385,1863 1385,3344l0 13427zm75828 7000c0,5303 -1911,9914 -5710,13808 -3798,3894 -8457,5829 -13952,5829l-5351 0c-5304,0 -9915,-1887 -13809,-5686 -3894,-3774 -5829,-8433 -5829,-13951l0 -50027c0,-5208 1911,-9795 5734,-13736 3822,-3942 8457,-5901 13904,-5901l5351 0c5304,0 9938,1887 13833,5709 3894,3799 5829,8458 5829,13928l0 50027zm-8887 23l0 -50073c0,-2939 -1052,-5471 -3106,-7574 -2079,-2126 -4611,-3153 -7645,-3153l-5399 0c-2939,0 -5447,1027 -7573,3129 -2103,2079 -3178,4611 -3178,7598l0 50073c0,2939 1051,5471 3130,7574 2102,2126 4635,3153 7621,3153l5399 0c2891,0 5423,-1003 7549,-3058 2127,-2054 3202,-4587 3202,-7669z"/>
    </g>
    <path class="fil3" d="M1059842 634524l32586 -32299c765,-693 1648,-1052 2652,-1052 955,0 1839,383 2676,1171 836,788 1266,1720 1266,2795 0,669 -406,1529 -1171,2604l-23030 22959 23747 41999 549 2054c0,1004 -430,1840 -1266,2580 -788,765 -1720,1171 -2843,1171 -1242,0 -2317,-669 -3249,-2031l-22696 -40326 -9221 9054 0 29433c0,1218 -359,2198 -1099,2938 -693,622 -1625,932 -2748,932 -1027,0 -1935,-310 -2699,-956 -765,-668 -1147,-1624 -1147,-2914l0 -69712c0,-979 382,-1863 1195,-2628 764,-764 1672,-1123 2651,-1123 980,0 1888,287 2700,884 765,645 1147,1625 1147,2867l0 29600zm92813 12996l-23221 0c-4181,0 -7812,-1505 -10870,-4491 -3058,-3010 -4587,-6665 -4587,-10965l0 -27044c0,-1027 382,-1959 1147,-2867 764,-645 1672,-980 2699,-980 980,0 1888,311 2652,956 789,645 1195,1625 1195,2891l0 27091c0,2174 716,4014 2198,5519 788,669 1624,1218 2508,1648 1099,359 2102,550 3034,550l23245 0 0 -34808c0,-1027 359,-1959 1147,-2867 764,-645 1672,-980 2676,-980 979,0 1887,311 2675,956 789,645 1171,1625 1171,2891l0 58005c0,4253 -1505,7884 -4515,10918 -3010,3034 -6642,4563 -10918,4563l-19327 0c-1171,0 -2126,-358 -2867,-1099 -669,-764 -1003,-1696 -1003,-2747 0,-932 334,-1792 1027,-2604 693,-813 1624,-1243 2843,-1243l19351 0c2126,0 3966,-716 5471,-2174 1505,-1433 2269,-3296 2269,-5590l0 -15529zm50218 -14692l19924 -30006c334,-502 788,-956 1386,-1314l812 -335 932 0c1003,0 1935,359 2819,1147 812,812 1218,1720 1218,2771 0,645 -239,1362 -669,2151l-21716 32586 21716 32610 502 1147 167 1051c0,1003 -406,1887 -1194,2676 -789,788 -1744,1194 -2891,1194 -1219,0 -2246,-573 -3082,-1768l-19924 -29886 -19901 29886c-287,478 -788,932 -1505,1362l-1696 406c-813,0 -1697,-406 -2700,-1171 -860,-740 -1266,-1672 -1266,-2747 0,-669 215,-1386 645,-2150l21740 -32610 -21836 -32586 -549 -1147 0 -1075c0,-980 382,-1888 1194,-2676 789,-788 1744,-1171 2891,-1171 1219,0 2246,574 3082,1768l19901 29887zm81178 -693l0 -27115c0,-1027 359,-1935 1147,-2700 765,-788 1673,-1147 2676,-1147 979,0 1887,311 2676,956 788,645 1170,1625 1170,2891l0 69520c0,1099 -382,2079 -1194,2915 -932,693 -1816,1051 -2700,1051 -932,0 -1839,-310 -2699,-932 -717,-621 -1076,-1600 -1076,-2890l0 -34856 -30985 0 0 34808c0,1218 -358,2198 -1099,2938 -693,622 -1625,932 -2747,932 -1028,0 -1936,-310 -2700,-956 -765,-645 -1147,-1624 -1147,-2914l0 -69568c0,-1028 382,-1983 1147,-2867 764,-669 1672,-1004 2700,-1004 979,0 1887,335 2651,980 789,645 1195,1601 1195,2914l0 27044 30985 0zm61828 7693l0 -30986 -23245 0c-2174,0 -4013,741 -5542,2222 -741,741 -1290,1577 -1649,2508 -358,956 -549,1959 -549,3035l0 15480c0,2174 716,4014 2198,5543 788,669 1624,1218 2508,1648 1099,359 2102,550 3034,550l23245 0zm-13306 7692l-18253 29147c-764,1242 -1815,1839 -3081,1839 -1004,0 -1912,-406 -2724,-1218 -884,-789 -1314,-1673 -1314,-2700 0,-764 215,-1481 597,-2102l15625 -24966 -765 0c-4181,0 -7836,-1505 -10870,-4491 -3058,-3010 -4587,-6665 -4587,-10965l0 -15457c0,-4277 1505,-7932 4491,-10942 3011,-2986 6666,-4492 10966,-4492l27044 0c2580,0 3846,1267 3846,3847l0 69616c0,1218 -358,2198 -1075,2938 -717,622 -1624,932 -2771,932 -1004,0 -1911,-310 -2676,-956 -788,-668 -1147,-1624 -1147,-2914l0 -27116 -13306 0zm129246 -15385l0 -27115c0,-1027 358,-1935 1146,-2700 765,-788 1673,-1147 2676,-1147 980,0 1887,311 2676,956 788,645 1170,1625 1170,2891l0 69520c0,1099 -382,2079 -1194,2915 -932,693 -1816,1051 -2700,1051 -931,0 -1839,-310 -2699,-932 -717,-621 -1075,-1600 -1075,-2890l0 -34856 -30986 0 0 34808c0,1218 -358,2198 -1099,2938 -693,622 -1624,932 -2747,932 -1028,0 -1935,-310 -2700,-956 -764,-645 -1147,-1624 -1147,-2914l0 -69568c0,-1028 383,-1983 1147,-2867 765,-669 1672,-1004 2700,-1004 979,0 1887,335 2651,980 789,645 1195,1601 1195,2914l0 27044 30986 0zm69496 42501c0,1218 -358,2198 -1075,2938 -717,622 -1624,932 -2771,932 -1003,0 -1911,-310 -2676,-956 -788,-645 -1147,-1624 -1147,-2914l0 -54637 -31391 56524c-454,789 -1004,1410 -1720,1864l-813 477c-262,120 -669,215 -1218,311 -741,-24 -1577,-406 -2532,-1171 -669,-788 -1004,-1887 -1004,-3320l0 -69593c0,-1051 382,-2006 1147,-2890 764,-669 1672,-1004 2700,-1004 979,0 1887,335 2651,980 789,645 1195,1601 1195,2914l0 54637 31368 -56500c382,-621 931,-1242 1672,-1863 693,-550 1386,-813 2078,-813 861,0 1649,454 2366,1290 788,765 1170,1840 1170,3202l0 69592zm50194 -3823l19327 0 0 -65793c0,-1004 382,-1959 1147,-2867 788,-645 1696,-980 2699,-980 956,0 1840,311 2700,932 764,669 1146,1649 1146,2915l0 69616c0,2580 -1290,3870 -3870,3870l-53992 0c-2604,0 -3870,-1290 -3870,-3870l0 -69616c0,-1027 382,-1959 1147,-2867 764,-645 1672,-980 2699,-980 980,0 1888,311 2652,956 789,645 1195,1625 1195,2891l0 65793 19327 0 0 -65793c0,-1004 382,-1959 1147,-2867 764,-645 1672,-980 2699,-980 980,0 1888,311 2652,956 788,645 1195,1625 1195,2891l0 65793zm56166 -11634l-5591 16675c-286,813 -764,1458 -1433,1983 -502,335 -1219,550 -2079,669 -1051,0 -1935,-382 -2723,-1123 -836,-645 -1266,-1529 -1266,-2628l262 -1385 23270 -69569c764,-2198 1982,-3320 3631,-3320 1648,0 2867,1122 3631,3320l23150 69569 286 1385c0,1004 -430,1888 -1290,2700 -812,693 -1720,1051 -2699,1051 -526,0 -1075,-143 -1744,-406 -645,-239 -1242,-980 -1792,-2246l-5566 -16675 -28047 0zm25466 -7932l-11395 -34019 -11420 34019 22815 0zm-259280 3966l-30938 0c-1171,0 -2126,-358 -2867,-1099 -645,-764 -1003,-1696 -1003,-2747 0,-932 358,-1792 1027,-2604 669,-812 1649,-1243 2843,-1243l30938 0c1075,0 1959,407 2723,1195 765,764 1123,1672 1123,2652 0,884 -310,1744 -955,2580 -669,860 -1625,1266 -2891,1266zm-116011 45487l0 23293 11611 0c5256,0 9819,1887 13641,5662 3822,3775 5734,8338 5734,13665l0 7717c0,5280 -1912,9819 -5710,13617 -3775,3799 -8338,5710 -13641,5710l-15457 0c-1171,0 -2151,-358 -2867,-1099 -669,-764 -1004,-1696 -1004,-2747 0,-932 335,-1792 1004,-2604 716,-813 1648,-1243 2867,-1243l15504 0c3154,0 5901,-1099 8171,-3320 2293,-2222 3440,-4970 3440,-8314l0 -7741c0,-3201 -1123,-5924 -3369,-8194 -2221,-2270 -4969,-3416 -8242,-3416l-15504 0c-2581,0 -3871,-1266 -3871,-3847l0 -30961c0,-2580 1267,-3847 3871,-3847l30937 0c1052,0 1983,383 2724,1171 764,788 1147,1696 1147,2676 0,884 -335,1720 -980,2580 -645,836 -1624,1242 -2891,1242l-27115 0zm46419 65818c0,-1051 382,-1959 1123,-2724 764,-740 1672,-1123 2723,-1123 836,0 1696,383 2556,1123 860,765 1290,1673 1290,2724 0,931 -382,1791 -1146,2604 -741,836 -1649,1242 -2700,1242 -1099,0 -2031,-382 -2819,-1147 -693,-812 -1027,-1720 -1027,-2699zm54039 -34832l120 -1768 0 -2102 0 -19352c0,-2197 -741,-4013 -2198,-5518 -1457,-1481 -3321,-2246 -5566,-2246l-7765 0c-2198,0 -4037,741 -5542,2222 -741,741 -1314,1577 -1673,2508 -358,956 -549,1959 -549,3034l0 15481c0,2174 717,4014 2222,5543 764,669 1624,1218 2508,1648 1099,359 2126,550 3034,550l15409 0zm-1433 7692l-13976 0c-4157,0 -7764,-1481 -10846,-4467 -3058,-2962 -4611,-6642 -4611,-10990l0 -15457c0,-4252 1505,-7907 4515,-10917 3035,-3011 6666,-4516 10942,-4516l7741 0c4324,0 7979,1505 10965,4516 2987,3034 4516,6665 4516,10941l0 19280c0,7453 -1410,14406 -4205,20880 -2031,4826 -4874,9102 -8553,12829 -3655,3703 -7931,6570 -12829,8553l-1648 334c-884,0 -1744,-406 -2533,-1242 -788,-836 -1194,-1768 -1194,-2795 0,-645 167,-1243 525,-1816 311,-597 932,-1123 1864,-1553 1959,-788 3751,-1720 5447,-2819 1696,-1123 3321,-2485 4873,-4109 2867,-2939 5185,-6427 6952,-10440l1052 -2939 1003 -3273zm43695 -38558l-15505 0c-1170,0 -2126,-359 -2866,-1099 -645,-765 -980,-1697 -980,-2748 0,-908 335,-1792 1004,-2604 692,-812 1648,-1242 2842,-1242l15481 0c6045,0 10870,1959 14478,5901 3225,3703 4849,8122 4849,13307 0,3129 -597,5996 -1839,8624 -1218,2604 -3106,4945 -5662,7048 2150,1696 3918,3894 5351,6617 1434,2676 2150,5591 2150,8672l0 7741c0,5280 -1887,9819 -5685,13617 -3775,3799 -8338,5710 -13642,5710l-15481 0c-1170,0 -2126,-334 -2866,-1027 -645,-860 -980,-1792 -980,-2819 0,-884 311,-1720 956,-2580 645,-837 1624,-1267 2914,-1267l15505 0c3201,0 5925,-1122 8194,-3416 2270,-2246 3393,-4993 3393,-8218l0 -7741c0,-3153 -1099,-5901 -3345,-8170 -2222,-2294 -4993,-3440 -8266,-3440l-7740 0c-1195,0 -2150,-335 -2891,-1028 -669,-860 -1003,-1791 -1003,-2819 0,-884 310,-1720 979,-2580 645,-836 1601,-1266 2915,-1266l7740 0c3416,0 6259,-1242 8457,-3703 1888,-2198 2819,-4921 2819,-8123 0,-3153 -907,-5757 -2699,-7788 -2055,-2365 -4922,-3559 -8577,-3559z"/>
    <path class="fil3" d="M123106 758729l0 30986 23222 0c2150,0 3965,-717 5494,-2174 1505,-1433 2270,-3297 2270,-5566l0 -15481c0,-2198 -741,-4014 -2198,-5519 -1457,-1481 -3321,-2246 -5566,-2246l-23222 0zm0 -7692l23198 0c4204,0 7812,1529 10894,4515 3034,2986 4563,6642 4563,10942l0 15457c0,4252 -1505,7860 -4516,10894 -3010,3034 -6665,4563 -10917,4563l-27044 0c-2604,0 -3870,-1290 -3870,-3870l0 -69617c0,-2580 1266,-3846 3870,-3846l30914 0c1051,0 1983,382 2723,1171 765,788 1147,1696 1147,2675 0,884 -334,1721 -979,2581 -646,836 -1601,1242 -2915,1242l-27068 0 0 23293zm63787 27044l-5590 16675c-287,812 -765,1457 -1434,1983 -501,334 -1218,549 -2078,669 -1051,0 -1935,-383 -2723,-1123 -837,-645 -1267,-1529 -1267,-2628l263 -1386 23269 -69568c765,-2198 1983,-3321 3632,-3321 1648,0 2866,1123 3631,3321l23149 69568 287 1386c0,1003 -430,1887 -1290,2700 -812,692 -1720,1051 -2700,1051 -525,0 -1075,-144 -1744,-406 -645,-239 -1242,-980 -1791,-2246l-5567 -16675 -28047 0zm25467 -7932l-11395 -34020 -11420 34020 22815 0zm76998 23389c0,1218 -358,2197 -1099,2938 -692,621 -1600,932 -2747,932 -1003,0 -1911,-311 -2700,-956 -764,-669 -1146,-1624 -1146,-2914l0 -65794 -12567 0 -18586 66773c-96,788 -550,1457 -1266,2055 -741,549 -1529,836 -2389,836 -1147,0 -2079,-311 -2819,-956 -741,-645 -1123,-1577 -1123,-2747 0,-550 71,-932 191,-1171l19351 -69592c549,-1911 1768,-2867 3679,-2867l19351 0c2580,0 3870,1266 3870,3846l0 69617zm23054 -40112l32587 -32300c764,-693 1648,-1051 2651,-1051 956,0 1840,382 2676,1171 836,788 1266,1720 1266,2795 0,669 -406,1529 -1170,2604l-23030 22958 23746 41999 550 2055c0,1003 -430,1840 -1266,2580 -789,765 -1720,1171 -2843,1171 -1242,0 -2318,-669 -3249,-2031l-22696 -40327 -9222 9055 0 29433c0,1218 -358,2197 -1099,2938 -692,621 -1624,932 -2747,932 -1027,0 -1935,-311 -2700,-956 -764,-669 -1146,-1624 -1146,-2914l0 -69712c0,-980 382,-1864 1194,-2628 765,-765 1673,-1123 2652,-1123 980,0 1887,287 2700,884 764,645 1146,1625 1146,2867l0 29600zm96565 28501c0,4252 -1505,7884 -4516,10918 -3010,3034 -6665,4563 -10917,4563l-15457 0c-4205,0 -7836,-1505 -10870,-4516 -3058,-2986 -4587,-6641 -4587,-10965l0 -46395c0,-4300 1505,-7955 4491,-10966 3010,-2986 6665,-4491 10966,-4491l15457 0c4276,0 7931,1505 10941,4515 2987,3034 4492,6666 4492,10942l0 46395zm-7669 48l0 -46467c0,-2198 -741,-4013 -2198,-5518 -1457,-1482 -3321,-2246 -5566,-2246l-15481 0c-2174,0 -4014,740 -5543,2222 -740,740 -1290,1576 -1648,2508 -359,956 -550,1959 -550,3034l0 46467c0,2174 717,4013 2198,5542 789,645 1625,1195 2509,1649 1099,358 2102,549 3034,549l15481 0c2150,0 3965,-717 5494,-2174 1505,-1433 2270,-3297 2270,-5566zm68015 -30938l0 -27116c0,-1027 359,-1935 1147,-2699 765,-789 1672,-1147 2676,-1147 979,0 1887,311 2675,956 789,645 1171,1624 1171,2890l0 69521c0,1099 -382,2078 -1194,2915 -932,692 -1816,1051 -2700,1051 -932,0 -1840,-311 -2700,-932 -716,-621 -1075,-1601 -1075,-2891l0 -34856 -30985 0 0 34809c0,1218 -359,2197 -1099,2938 -693,621 -1625,932 -2748,932 -1027,0 -1935,-311 -2699,-956 -765,-645 -1147,-1624 -1147,-2914l0 -69569c0,-1027 382,-1983 1147,-2867 764,-669 1672,-1003 2699,-1003 980,0 1888,334 2652,979 789,646 1195,1601 1195,2915l0 27044 30985 0zm-227148 115151l7717 0c1075,0 1983,406 2723,1194 765,789 1147,1672 1147,2652 0,884 -335,1744 -956,2580 -645,860 -1624,1266 -2914,1266l-7717 0 0 11539c0,1219 -358,2198 -1099,2915 -693,621 -1624,932 -2747,932 -1027,0 -1935,-311 -2700,-956 -764,-645 -1147,-1601 -1147,-2891l0 -11539 -23245 0c-2675,0 -4037,-1027 -4037,-3129l119 -932 239 -884 15433 -54183c239,-764 669,-1481 1338,-2102l717 -383c430,-238 932,-334 1505,-334 1123,0 2055,358 2795,1099 812,693 1219,1601 1219,2723l-168 1147 -14071 49286 18156 0 0 -11611c0,-1027 383,-1983 1147,-2867 765,-669 1673,-1003 2700,-1003 979,0 1887,310 2652,955 788,669 1194,1625 1194,2915l0 11611zm26996 19231c0,-1051 382,-1959 1123,-2723 764,-741 1672,-1123 2723,-1123 837,0 1697,382 2557,1123 860,764 1290,1672 1290,2723 0,932 -382,1792 -1147,2604 -741,836 -1648,1243 -2700,1243 -1099,0 -2030,-383 -2819,-1147 -692,-812 -1027,-1720 -1027,-2700zm59009 -43695l-24989 39849 23986 0c1075,0 1959,406 2723,1194 765,765 1123,1673 1123,2652 0,884 -311,1744 -956,2580 -669,860 -1624,1267 -2890,1267l-30938 0c-2795,0 -4181,-1028 -4181,-3082 0,-812 310,-1792 932,-2891l28572 -45559c956,-2006 1410,-3941 1410,-5805 0,-3297 -1266,-6164 -3846,-8624 -1219,-1123 -2652,-2031 -4277,-2700 -1600,-645 -3368,-1003 -5232,-1003 -1959,0 -3846,525 -5638,1553 -1792,1146 -3297,2628 -4467,4419 -287,478 -813,932 -1505,1386l-1721 382c-979,0 -1887,-358 -2723,-1075 -836,-717 -1242,-1601 -1242,-2676 0,-501 239,-1266 669,-2197 1768,-2772 4157,-5017 7191,-6785 1481,-836 2962,-1505 4467,-1959 1505,-478 2986,-717 4420,-717 6044,0 11156,1983 15337,5973 4181,4013 6260,8767 6260,14310 0,3177 -813,6331 -2485,9508zm26136 8863l-167 3871 0 19375c0,2174 716,4013 2221,5542 765,645 1601,1195 2485,1648 1099,359 2126,550 3058,550l7764 0c2150,0 3966,-717 5471,-2174 1529,-1433 2294,-3297 2294,-5566l0 -15481c0,-2198 -741,-4014 -2198,-5519 -1458,-1481 -3321,-2246 -5567,-2246l-15361 0zm1362 -7692l13975 0c4205,0 7812,1529 10894,4515 3058,2986 4587,6641 4587,10942l0 15457c0,4252 -1529,7860 -4539,10894 -3034,3034 -6665,4563 -10942,4563l-7740 0c-4157,0 -7764,-1482 -10846,-4468 -3058,-2986 -4611,-6641 -4611,-10989l0 -19304c0,-7334 1386,-14286 4205,-20880 1887,-4563 4730,-8744 8433,-12494 3727,-3751 8027,-6690 12924,-8816l1649 -382c1003,0 1911,382 2723,1194 645,861 980,1792 980,2820 0,740 -167,1361 -502,1887 -310,525 -932,1051 -1863,1601 -1028,406 -1959,812 -2795,1242 -837,430 -1720,979 -2676,1624 -1577,1075 -3201,2389 -4850,3990 -3034,3010 -5351,6474 -6952,10368l-1170 3106 -884 3130zm-101964 134382c0,-1051 382,-1959 1123,-2723 764,-741 1672,-1123 2723,-1123 837,0 1697,382 2557,1123 860,764 1290,1672 1290,2723 0,932 -382,1792 -1147,2604 -741,836 -1648,1243 -2700,1243 -1099,0 -2030,-383 -2819,-1147 -692,-812 -1027,-1720 -1027,-2700zm100506 -42524c3512,0 6427,-1219 8720,-3656 1911,-2245 2891,-4897 2891,-7979 0,-3153 -980,-5805 -2891,-7979 -2102,-2437 -5017,-3679 -8720,-3679 -3392,0 -6283,1242 -8696,3679 -1911,2245 -2890,4897 -2890,7979 0,3154 979,5805 2890,7979 2103,2437 5017,3656 8696,3656zm0 7692c-4873,0 -8767,1601 -11658,4802 -2580,2939 -3870,6498 -3870,10703 0,4157 1290,7693 3870,10631 2914,3225 6832,4850 11658,4850 4898,0 8792,-1601 11683,-4802 2580,-2915 3870,-6474 3870,-10679 0,-4085 -1266,-7645 -3823,-10631 -2914,-3249 -6832,-4874 -11730,-4874zm12782 -4276c3416,1983 6020,4754 7788,8314 1792,3535 2675,7382 2675,11467 0,6068 -1935,11348 -5805,15887 -4276,4850 -10082,7287 -17440,7287 -7286,0 -13068,-2390 -17416,-7191 -3870,-4277 -5805,-9628 -5805,-15983 0,-4085 860,-7908 2580,-11420 1720,-3511 4348,-6330 7884,-8457 -2055,-1744 -3655,-3942 -4802,-6617 -1147,-2676 -1720,-5447 -1720,-8314 0,-5160 1624,-9628 4826,-13331 3559,-4013 8385,-6020 14453,-6020 5949,0 10751,2007 14430,6020 3249,3679 4850,8123 4850,13331 0,2867 -526,5638 -1601,8314 -1099,2675 -2723,4921 -4897,6713zm-167805 49477c382,740 549,1385 549,2006 0,980 -430,1840 -1242,2580 -812,717 -1792,1099 -2843,1099 -1171,0 -2246,-645 -3249,-1982 -3464,-6427 -6307,-13666 -8529,-21788 -860,-3297 -1577,-7024 -2150,-11157 -597,-4109 -884,-8027 -884,-11754 0,-15648 3846,-30556 11563,-44699 334,-621 812,-1123 1433,-1481 550,-263 1195,-454 1888,-573 1122,0 2078,382 2866,1123 765,645 1147,1552 1147,2699 0,550 -167,1195 -549,1935 -860,1505 -1625,3010 -2365,4492 -717,1505 -1386,3058 -2031,4682 -645,1625 -1266,3297 -1816,5041 -573,1720 -1147,3560 -1696,5519 -1840,7167 -2771,14262 -2771,21262 0,14477 3559,28143 10679,40996zm39036 -10393c0,1219 -358,2198 -1099,2939 -693,621 -1600,932 -2747,932 -1003,0 -1911,-311 -2700,-956 -764,-645 -1146,-1625 -1146,-2915l0 -60275 -8864 8864c-788,788 -1672,1170 -2675,1170 -908,0 -1816,-382 -2676,-1170 -812,-813 -1242,-1721 -1242,-2772 0,-884 406,-1768 1170,-2652l15433 -15504c502,-526 1052,-932 1601,-1266 549,-311 1147,-478 1792,-478 645,0 1385,406 2222,1170 621,813 931,1912 931,3273l0 69640zm74490 -43671l-24989 39849 23986 0c1075,0 1959,406 2723,1194 765,765 1123,1673 1123,2652 0,884 -311,1744 -956,2580 -669,860 -1624,1267 -2890,1267l-30938 0c-2795,0 -4181,-1028 -4181,-3082 0,-813 311,-1792 932,-2891l28572 -45559c956,-2006 1410,-3942 1410,-5805 0,-3297 -1266,-6164 -3846,-8624 -1219,-1123 -2652,-2031 -4277,-2700 -1600,-645 -3368,-1003 -5232,-1003 -1959,0 -3846,525 -5638,1552 -1792,1147 -3297,2628 -4467,4420 -287,478 -813,932 -1505,1386l-1720 382c-980,0 -1888,-358 -2724,-1075 -836,-717 -1242,-1601 -1242,-2676 0,-501 239,-1266 669,-2198 1768,-2771 4157,-5017 7191,-6784 1481,-837 2962,-1506 4467,-1959 1505,-478 2986,-717 4420,-717 6044,0 11157,1983 15337,5972 4181,4014 6260,8768 6260,14311 0,3177 -813,6331 -2485,9508zm86936 57767c-215,477 -668,955 -1385,1433l-932 382 -1003 167c-1028,0 -1959,-358 -2772,-1075 -836,-716 -1242,-1624 -1242,-2675 0,-550 167,-1195 526,-1935 3225,-5925 5877,-12591 7955,-19997 1840,-7143 2748,-14143 2748,-20999 0,-4014 -168,-7621 -574,-10870 -382,-3249 -1051,-6642 -2007,-10153l-1505 -5089 -788 -2437 -1003 -2604c-1171,-3010 -2772,-6283 -4826,-9819l-526 -2054c0,-884 406,-1697 1242,-2509 861,-788 1792,-1170 2843,-1170 1267,0 2366,668 3249,2030 1864,3464 3465,6881 4779,10225 1290,3345 2556,7215 3774,11539 860,3249 1577,6928 2150,11109 598,4157 884,8099 884,11802 0,4324 -215,8314 -693,11969 -454,3655 -1194,7358 -2221,11085 -1768,7502 -4659,14716 -8673,21645z"/>
    <path class="fil3" d="M1299198 1312481l32586 -32300c765,-693 1649,-1051 2652,-1051 956,0 1840,382 2676,1171 836,788 1266,1720 1266,2795 0,669 -406,1529 -1171,2604l-23030 22958 23747 41999 549 2055c0,1003 -430,1840 -1266,2580 -788,765 -1720,1171 -2843,1171 -1242,0 -2317,-669 -3249,-2031l-22695 -40327 -9222 9055 0 29433c0,1218 -358,2197 -1099,2938 -693,621 -1625,932 -2747,932 -1028,0 -1936,-311 -2700,-956 -765,-669 -1147,-1624 -1147,-2914l0 -69712c0,-980 382,-1864 1195,-2628 764,-765 1672,-1123 2652,-1123 979,0 1887,287 2699,884 765,645 1147,1625 1147,2867l0 29600zm96564 28501c0,4252 -1505,7884 -4515,10918 -3010,3034 -6665,4563 -10918,4563l-15457 0c-4205,0 -7836,-1505 -10870,-4516 -3058,-2986 -4587,-6641 -4587,-10965l0 -46395c0,-4300 1505,-7955 4491,-10966 3011,-2986 6666,-4491 10966,-4491l15457 0c4276,0 7932,1505 10942,4515 2986,3034 4491,6666 4491,10942l0 46395zm-7669 48l0 -46467c0,-2198 -740,-4013 -2198,-5518 -1457,-1482 -3320,-2246 -5566,-2246l-15481 0c-2174,0 -4013,740 -5542,2222 -741,740 -1290,1576 -1649,2508 -358,956 -549,1959 -549,3034l0 46467c0,2174 716,4013 2198,5542 788,645 1624,1195 2508,1649 1099,358 2102,549 3034,549l15481 0c2150,0 3966,-717 5495,-2174 1505,-1433 2269,-3297 2269,-5566zm83497 11563c0,1218 -335,2197 -1028,2938 -740,621 -1696,932 -2819,932 -884,0 -1744,-311 -2580,-956 -860,-669 -1266,-1624 -1266,-2914l0 -55187 -15983 26709c-955,1673 -2078,2485 -3368,2485 -1123,0 -2222,-812 -3345,-2485l-16078 -26709 0 55187c0,1218 -358,2197 -1099,2938 -693,621 -1624,932 -2747,932 -1027,0 -1935,-311 -2700,-956 -764,-645 -1146,-1624 -1146,-2914l0 -69234c0,-1458 382,-2557 1099,-3297 668,-765 1481,-1171 2436,-1171 693,0 1314,191 1864,550 549,382 1146,1027 1768,1935l19948 33136 19853 -33136c884,-1649 2126,-2485 3703,-2485 884,0 1720,406 2484,1219 669,836 1004,1935 1004,3249l0 69234zm54087 -42501l0 -27116c0,-1027 359,-1935 1147,-2699 764,-789 1672,-1147 2676,-1147 979,0 1887,311 2675,956 789,645 1171,1624 1171,2890l0 69521c0,1099 -382,2078 -1195,2915 -931,692 -1815,1051 -2699,1051 -932,0 -1840,-311 -2700,-932 -716,-621 -1075,-1601 -1075,-2891l0 -34856 -30985 0 0 34809c0,1218 -359,2197 -1099,2938 -693,621 -1625,932 -2748,932 -1027,0 -1935,-311 -2699,-956 -765,-645 -1147,-1624 -1147,-2914l0 -69569c0,-1027 382,-1983 1147,-2867 764,-669 1672,-1003 2699,-1003 980,0 1888,334 2652,979 788,646 1195,1601 1195,2915l0 27044 30985 0zm36719 27044l-5590 16675c-287,812 -764,1457 -1433,1983 -502,334 -1219,549 -2079,669 -1051,0 -1935,-383 -2723,-1123 -836,-645 -1266,-1529 -1266,-2628l262 -1386 23269 -69568c765,-2198 1983,-3321 3632,-3321 1648,0 2867,1123 3631,3321l23150 69568 286 1386c0,1003 -430,1887 -1290,2700 -812,692 -1720,1051 -2699,1051 -526,0 -1075,-144 -1744,-406 -645,-239 -1243,-980 -1792,-2246l-5566 -16675 -28048 0zm25467 -7932l-11395 -34020 -11420 34020 22815 0zm34402 -42405l-15457 0c-1170,0 -2150,-335 -2866,-1027 -669,-837 -1004,-1792 -1004,-2796 0,-907 311,-1744 956,-2604 645,-836 1624,-1242 2914,-1242l38631 0c1075,0 1959,382 2723,1171 765,788 1123,1696 1123,2675 0,884 -310,1721 -955,2581 -645,836 -1625,1242 -2891,1242l-15481 0 0 65794c0,1218 -358,2197 -1099,2938 -693,621 -1625,932 -2747,932 -1004,0 -1912,-311 -2700,-956 -764,-669 -1147,-1624 -1147,-2914l0 -65794zm40614 50337l-5591 16675c-286,812 -764,1457 -1433,1983 -502,334 -1218,549 -2078,669 -1052,0 -1936,-383 -2724,-1123 -836,-645 -1266,-1529 -1266,-2628l263 -1386 23269 -69568c764,-2198 1983,-3321 3631,-3321 1648,0 2867,1123 3631,3321l23150 69568 287 1386c0,1003 -430,1887 -1290,2700 -813,692 -1721,1051 -2700,1051 -526,0 -1075,-144 -1744,-406 -645,-239 -1242,-980 -1792,-2246l-5566 -16675 -28047 0zm25467 -7932l-11396 -34020 -11420 34020 22816 0zm-272062 115246c0,1219 -359,2198 -1099,2939 -693,621 -1601,932 -2747,932 -1004,0 -1912,-311 -2700,-956 -765,-645 -1147,-1625 -1147,-2915l0 -60275 -8863 8864c-788,788 -1672,1170 -2676,1170 -908,0 -1815,-382 -2675,-1170 -813,-813 -1243,-1720 -1243,-2772 0,-884 406,-1767 1171,-2651l15433 -15505c502,-526 1051,-932 1601,-1266 549,-311 1146,-478 1791,-478 645,0 1386,406 2222,1170 621,813 932,1912 932,3273l0 69640zm34497 -65674l-15504 0c-1171,0 -2127,-358 -2867,-1099 -645,-764 -980,-1696 -980,-2747 0,-908 335,-1792 1004,-2604 692,-812 1648,-1242 2843,-1242l15480 0c6045,0 10870,1959 14478,5900 3225,3703 4850,8123 4850,13307 0,3130 -598,5997 -1840,8625 -1218,2604 -3106,4945 -5662,7047 2150,1696 3918,3894 5351,6618 1434,2676 2151,5590 2151,8672l0 7740c0,5280 -1888,9819 -5686,13618 -3775,3798 -8338,5710 -13642,5710l-15480 0c-1171,0 -2127,-335 -2867,-1028 -645,-860 -980,-1791 -980,-2819 0,-884 311,-1720 956,-2580 645,-836 1624,-1266 2914,-1266l15505 0c3202,0 5925,-1123 8195,-3416 2269,-2246 3392,-4993 3392,-8219l0 -7740c0,-3153 -1099,-5901 -3345,-8170 -2221,-2294 -4993,-3441 -8266,-3441l-7740 0c-1195,0 -2150,-334 -2891,-1027 -669,-860 -1003,-1792 -1003,-2819 0,-884 310,-1720 979,-2580 645,-836 1601,-1266 2915,-1266l7740 0c3417,0 6260,-1243 8457,-3703 1888,-2198 2820,-4922 2820,-8123 0,-3153 -908,-5757 -2700,-7788 -2055,-2365 -4921,-3560 -8577,-3560zm35095 65698c0,-1051 382,-1959 1123,-2723 764,-741 1672,-1123 2723,-1123 837,0 1697,382 2557,1123 860,764 1290,1672 1290,2723 0,932 -383,1792 -1147,2604 -741,836 -1648,1243 -2700,1243 -1099,0 -2030,-383 -2819,-1147 -692,-812 -1027,-1720 -1027,-2700zm30866 -65817l0 23293 11611 0c5256,0 9819,1887 13641,5662 3823,3774 5734,8337 5734,13665l0 7716c0,5280 -1911,9819 -5710,13618 -3775,3798 -8338,5710 -13641,5710l-15457 0c-1171,0 -2150,-359 -2867,-1099 -669,-765 -1003,-1697 -1003,-2748 0,-931 334,-1791 1003,-2604 717,-812 1648,-1242 2867,-1242l15505 0c3153,0 5900,-1099 8170,-3321 2293,-2222 3440,-4969 3440,-8314l0 -7740c0,-3201 -1123,-5925 -3368,-8194 -2222,-2270 -4970,-3417 -8242,-3417l-15505 0c-2580,0 -3870,-1266 -3870,-3846l0 -30962c0,-2580 1266,-3846 3870,-3846l30938 0c1051,0 1983,382 2723,1171 765,788 1147,1696 1147,2675 0,884 -335,1720 -980,2580 -645,837 -1624,1243 -2890,1243l-27116 0zm54112 0l0 23293 11610 0c5256,0 9819,1887 13642,5662 3822,3774 5733,8337 5733,13665l0 7716c0,5280 -1911,9819 -5710,13618 -3774,3798 -8337,5710 -13641,5710l-15457 0c-1170,0 -2150,-359 -2867,-1099 -669,-765 -1003,-1697 -1003,-2748 0,-931 334,-1791 1003,-2604 717,-812 1649,-1242 2867,-1242l15505 0c3153,0 5901,-1099 8170,-3321 2294,-2222 3441,-4969 3441,-8314l0 -7740c0,-3201 -1123,-5925 -3369,-8194 -2222,-2270 -4969,-3417 -8242,-3417l-15505 0c-2580,0 -3870,-1266 -3870,-3846l0 -30962c0,-2580 1266,-3846 3870,-3846l30938 0c1051,0 1983,382 2723,1171 765,788 1147,1696 1147,2675 0,884 -334,1720 -979,2580 -645,837 -1625,1243 -2891,1243l-27115 0z"/>
    <path class="fil3" d="M1322276 2352422l32586 -32300c765,-692 1649,-1051 2652,-1051 956,0 1839,383 2676,1171 836,788 1266,1720 1266,2795 0,669 -406,1529 -1171,2604l-23030 22959 23747 41999 549 2054c0,1004 -430,1840 -1266,2580 -788,765 -1720,1171 -2843,1171 -1242,0 -2317,-669 -3249,-2031l-22696 -40326 -9221 9054 0 29433c0,1218 -359,2198 -1099,2938 -693,621 -1625,932 -2747,932 -1028,0 -1936,-311 -2700,-956 -765,-669 -1147,-1624 -1147,-2914l0 -69712c0,-979 382,-1863 1195,-2628 764,-764 1672,-1123 2652,-1123 979,0 1887,287 2699,884 765,645 1147,1625 1147,2867l0 29600zm96564 28501c0,4253 -1505,7884 -4515,10918 -3010,3034 -6666,4563 -10918,4563l-15457 0c-4205,0 -7836,-1505 -10870,-4515 -3058,-2987 -4587,-6642 -4587,-10966l0 -46395c0,-4300 1505,-7955 4491,-10965 3011,-2987 6666,-4492 10966,-4492l15457 0c4276,0 7932,1505 10942,4516 2986,3034 4491,6665 4491,10941l0 46395zm-7669 48l0 -46467c0,-2197 -740,-4013 -2198,-5518 -1457,-1481 -3320,-2246 -5566,-2246l-15481 0c-2174,0 -4013,741 -5542,2222 -741,740 -1290,1577 -1649,2508 -358,956 -549,1959 -549,3034l0 46467c0,2174 716,4013 2198,5542 788,645 1624,1195 2508,1649 1099,358 2102,549 3034,549l15481 0c2150,0 3966,-716 5495,-2174 1505,-1433 2269,-3297 2269,-5566zm83497 11563c0,1218 -335,2198 -1028,2938 -740,621 -1696,932 -2819,932 -884,0 -1744,-311 -2580,-956 -860,-669 -1266,-1624 -1266,-2914l0 -55187 -15983 26710c-955,1672 -2078,2484 -3368,2484 -1123,0 -2222,-812 -3345,-2484l-16078 -26710 0 55187c0,1218 -358,2198 -1099,2938 -693,621 -1624,932 -2747,932 -1027,0 -1935,-311 -2700,-956 -764,-645 -1146,-1624 -1146,-2914l0 -69234c0,-1457 382,-2556 1098,-3297 669,-764 1482,-1171 2437,-1171 693,0 1314,192 1864,550 549,382 1146,1027 1768,1935l19948 33136 19853 -33136c884,-1648 2126,-2485 3703,-2485 884,0 1720,407 2484,1219 669,836 1004,1935 1004,3249l0 69234zm54087 -42501l0 -27115c0,-1028 358,-1935 1147,-2700 764,-788 1672,-1147 2676,-1147 979,0 1887,311 2675,956 789,645 1171,1624 1171,2891l0 69520c0,1099 -382,2079 -1195,2915 -931,693 -1815,1051 -2699,1051 -932,0 -1840,-311 -2700,-932 -717,-621 -1075,-1600 -1075,-2890l0 -34856 -30986 0 0 34808c0,1218 -358,2198 -1098,2938 -693,621 -1625,932 -2748,932 -1027,0 -1935,-311 -2699,-956 -765,-645 -1147,-1624 -1147,-2914l0 -69569c0,-1027 382,-1982 1147,-2866 764,-669 1672,-1004 2699,-1004 980,0 1887,335 2652,980 788,645 1194,1600 1194,2914l0 27044 30986 0zm36719 27044l-5590 16675c-287,812 -764,1457 -1433,1983 -502,335 -1219,550 -2079,669 -1051,0 -1935,-382 -2723,-1123 -836,-645 -1266,-1529 -1266,-2628l262 -1385 23269 -69569c765,-2198 1983,-3320 3632,-3320 1648,0 2867,1122 3631,3320l23150 69569 286 1385c0,1004 -430,1888 -1290,2700 -812,693 -1720,1051 -2699,1051 -526,0 -1075,-143 -1744,-406 -645,-239 -1243,-980 -1792,-2246l-5567 -16675 -28047 0zm25467 -7932l-11395 -34019 -11420 34019 22815 0zm34402 -42405l-15457 0c-1170,0 -2150,-334 -2867,-1027 -668,-836 -1003,-1792 -1003,-2795 0,-908 311,-1744 956,-2604 645,-837 1624,-1243 2914,-1243l38631 0c1075,0 1959,383 2723,1171 765,788 1123,1696 1123,2676 0,884 -310,1720 -956,2580 -645,836 -1624,1242 -2890,1242l-15481 0 0 65794c0,1218 -358,2198 -1099,2938 -693,621 -1625,932 -2747,932 -1004,0 -1912,-311 -2700,-956 -764,-669 -1147,-1624 -1147,-2914l0 -65794zm40614 50337l-5591 16675c-286,812 -764,1457 -1433,1983 -502,335 -1218,550 -2079,669 -1051,0 -1935,-382 -2723,-1123 -836,-645 -1266,-1529 -1266,-2628l263 -1385 23269 -69569c764,-2198 1983,-3320 3631,-3320 1648,0 2867,1122 3631,3320l23150 69569 287 1385c0,1004 -430,1888 -1290,2700 -813,693 -1721,1051 -2700,1051 -526,0 -1075,-143 -1744,-406 -645,-239 -1242,-980 -1792,-2246l-5566 -16675 -28047 0zm25467 -7932l-11396 -34019 -11420 34019 22816 0zm-272062 115247c0,1218 -359,2198 -1099,2938 -693,621 -1601,932 -2748,932 -1003,0 -1911,-311 -2699,-956 -765,-645 -1147,-1624 -1147,-2914l0 -60275 -8863 8863c-789,788 -1672,1171 -2676,1171 -908,0 -1815,-383 -2676,-1171 -812,-812 -1242,-1720 -1242,-2771 0,-884 406,-1768 1171,-2652l15433 -15505c502,-526 1051,-932 1601,-1266 549,-311 1146,-478 1791,-478 645,0 1386,406 2222,1171 621,812 932,1911 932,3273l0 69640zm51316 -43672l-24989 39849 23986 0c1075,0 1959,406 2723,1195 765,764 1123,1672 1123,2652 0,883 -311,1744 -956,2580 -669,860 -1624,1266 -2890,1266l-30938 0c-2795,0 -4181,-1027 -4181,-3082 0,-812 311,-1792 932,-2891l28572 -45558c956,-2007 1410,-3942 1410,-5806 0,-3297 -1266,-6163 -3846,-8624 -1219,-1123 -2652,-2031 -4277,-2700 -1600,-645 -3368,-1003 -5232,-1003 -1959,0 -3846,526 -5638,1553 -1792,1147 -3297,2628 -4467,4420 -287,477 -813,931 -1505,1385l-1720 382c-980,0 -1888,-358 -2724,-1075 -836,-716 -1242,-1600 -1242,-2675 0,-502 239,-1267 669,-2198 1768,-2772 4157,-5017 7191,-6785 1481,-836 2962,-1505 4467,-1959 1505,-478 2986,-717 4420,-717 6044,0 11157,1983 15337,5973 4181,4013 6260,8767 6260,14310 0,3177 -813,6331 -2485,9508zm18276 43696c0,-1052 382,-1959 1123,-2724 764,-741 1672,-1123 2723,-1123 836,0 1697,382 2557,1123 860,765 1290,1672 1290,2724 0,931 -383,1791 -1147,2604 -741,836 -1649,1242 -2700,1242 -1099,0 -2030,-382 -2819,-1147 -693,-812 -1027,-1720 -1027,-2699zm30866 -65818l0 23293 11611 0c5256,0 9819,1887 13641,5662 3823,3775 5734,8338 5734,13665l0 7717c0,5279 -1911,9819 -5710,13617 -3775,3799 -8338,5710 -13641,5710l-15457 0c-1171,0 -2150,-358 -2867,-1099 -669,-765 -1003,-1696 -1003,-2747 0,-932 334,-1792 1003,-2605 717,-812 1648,-1242 2867,-1242l15504 0c3154,0 5901,-1099 8171,-3321 2293,-2221 3440,-4969 3440,-8313l0 -7741c0,-3201 -1123,-5925 -3368,-8194 -2222,-2270 -4970,-3416 -8243,-3416l-15504 0c-2580,0 -3870,-1267 -3870,-3847l0 -30961c0,-2581 1266,-3847 3870,-3847l30938 0c1051,0 1982,382 2723,1171 765,788 1147,1696 1147,2676 0,883 -335,1720 -980,2580 -645,836 -1624,1242 -2890,1242l-27116 0zm54112 0l0 23293 11610 0c5256,0 9819,1887 13641,5662 3823,3775 5734,8338 5734,13665l0 7717c0,5279 -1911,9819 -5710,13617 -3774,3799 -8337,5710 -13641,5710l-15457 0c-1171,0 -2150,-358 -2867,-1099 -669,-765 -1003,-1696 -1003,-2747 0,-932 334,-1792 1003,-2605 717,-812 1649,-1242 2867,-1242l15505 0c3153,0 5901,-1099 8170,-3321 2294,-2221 3440,-4969 3440,-8313l0 -7741c0,-3201 -1122,-5925 -3368,-8194 -2222,-2270 -4969,-3416 -8242,-3416l-15505 0c-2580,0 -3870,-1267 -3870,-3847l0 -30961c0,-2581 1266,-3847 3870,-3847l30938 0c1051,0 1983,382 2723,1171 765,788 1147,1696 1147,2676 0,883 -334,1720 -979,2580 -645,836 -1625,1242 -2891,1242l-27115 0z"/>
    <path class="fil3" d="M2875594 2352422l32586 -32300c765,-692 1649,-1051 2652,-1051 956,0 1840,383 2676,1171 836,788 1266,1720 1266,2795 0,669 -406,1529 -1171,2604l-23030 22959 23747 41999 549 2054c0,1004 -430,1840 -1266,2580 -788,765 -1720,1171 -2843,1171 -1242,0 -2317,-669 -3249,-2031l-22695 -40326 -9222 9054 0 29433c0,1218 -358,2198 -1099,2938 -693,621 -1625,932 -2747,932 -1028,0 -1935,-311 -2700,-956 -764,-669 -1147,-1624 -1147,-2914l0 -69712c0,-979 383,-1863 1195,-2628 764,-764 1672,-1123 2652,-1123 979,0 1887,287 2699,884 765,645 1147,1625 1147,2867l0 29600zm96564 28501c0,4253 -1505,7884 -4515,10918 -3010,3034 -6665,4563 -10918,4563l-15457 0c-4204,0 -7836,-1505 -10870,-4515 -3058,-2987 -4587,-6642 -4587,-10966l0 -46395c0,-4300 1505,-7955 4492,-10965 3010,-2987 6665,-4492 10965,-4492l15457 0c4277,0 7932,1505 10942,4516 2986,3034 4491,6665 4491,10941l0 46395zm-7669 48l0 -46467c0,-2197 -740,-4013 -2197,-5518 -1458,-1481 -3321,-2246 -5567,-2246l-15481 0c-2174,0 -4013,741 -5542,2222 -741,740 -1290,1577 -1649,2508 -358,956 -549,1959 -549,3034l0 46467c0,2174 717,4013 2198,5542 788,645 1624,1195 2508,1649 1099,358 2103,549 3034,549l15481 0c2150,0 3966,-716 5495,-2174 1505,-1433 2269,-3297 2269,-5566zm83497 11563c0,1218 -335,2198 -1027,2938 -741,621 -1697,932 -2820,932 -883,0 -1744,-311 -2580,-956 -860,-669 -1266,-1624 -1266,-2914l0 -55187 -15982 26710c-956,1672 -2079,2484 -3369,2484 -1123,0 -2222,-812 -3345,-2484l-16078 -26710 0 55187c0,1218 -358,2198 -1099,2938 -692,621 -1624,932 -2747,932 -1027,0 -1935,-311 -2700,-956 -764,-645 -1146,-1624 -1146,-2914l0 -69234c0,-1457 382,-2556 1099,-3297 669,-764 1481,-1171 2436,-1171 693,0 1314,192 1864,550 549,382 1147,1027 1768,1935l19948 33136 19853 -33136c884,-1648 2126,-2485 3703,-2485 884,0 1720,407 2484,1219 669,836 1004,1935 1004,3249l0 69234zm54087 -42501l0 -27115c0,-1028 359,-1935 1147,-2700 764,-788 1672,-1147 2676,-1147 979,0 1887,311 2675,956 789,645 1171,1624 1171,2891l0 69520c0,1099 -382,2079 -1195,2915 -931,693 -1815,1051 -2699,1051 -932,0 -1840,-311 -2700,-932 -716,-621 -1075,-1600 -1075,-2890l0 -34856 -30985 0 0 34808c0,1218 -359,2198 -1099,2938 -693,621 -1625,932 -2748,932 -1027,0 -1935,-311 -2699,-956 -765,-645 -1147,-1624 -1147,-2914l0 -69569c0,-1027 382,-1982 1147,-2866 764,-669 1672,-1004 2699,-1004 980,0 1888,335 2652,980 789,645 1195,1600 1195,2914l0 27044 30985 0zm36720 27044l-5591 16675c-286,812 -764,1457 -1433,1983 -502,335 -1219,550 -2079,669 -1051,0 -1935,-382 -2723,-1123 -836,-645 -1266,-1529 -1266,-2628l262 -1385 23270 -69569c764,-2198 1982,-3320 3631,-3320 1648,0 2867,1122 3631,3320l23150 69569 286 1385c0,1004 -430,1888 -1290,2700 -812,693 -1720,1051 -2699,1051 -526,0 -1075,-143 -1744,-406 -645,-239 -1242,-980 -1792,-2246l-5566 -16675 -28047 0zm25466 -7932l-11395 -34019 -11420 34019 22815 0zm34402 -42405l-15457 0c-1170,0 -2150,-334 -2866,-1027 -669,-836 -1004,-1792 -1004,-2795 0,-908 311,-1744 956,-2604 645,-837 1624,-1243 2914,-1243l38631 0c1075,0 1959,383 2723,1171 765,788 1123,1696 1123,2676 0,884 -310,1720 -955,2580 -645,836 -1625,1242 -2891,1242l-15481 0 0 65794c0,1218 -358,2198 -1099,2938 -693,621 -1624,932 -2747,932 -1004,0 -1911,-311 -2700,-956 -764,-669 -1147,-1624 -1147,-2914l0 -65794zm40614 50337l-5591 16675c-286,812 -764,1457 -1433,1983 -502,335 -1218,550 -2078,669 -1052,0 -1936,-382 -2724,-1123 -836,-645 -1266,-1529 -1266,-2628l263 -1385 23269 -69569c764,-2198 1983,-3320 3631,-3320 1649,0 2867,1122 3631,3320l23150 69569 287 1385c0,1004 -430,1888 -1290,2700 -813,693 -1720,1051 -2700,1051 -526,0 -1075,-143 -1744,-406 -645,-239 -1242,-980 -1792,-2246l-5566 -16675 -28047 0zm25467 -7932l-11396 -34019 -11419 34019 22815 0zm-268192 115247c0,1218 -358,2198 -1099,2938 -693,621 -1600,932 -2747,932 -1004,0 -1911,-311 -2700,-956 -764,-645 -1146,-1624 -1146,-2914l0 -60275 -8864 8863c-788,788 -1672,1171 -2675,1171 -908,0 -1816,-383 -2676,-1171 -812,-812 -1242,-1720 -1242,-2771 0,-884 406,-1768 1170,-2652l15433 -15505c502,-526 1051,-932 1601,-1266 549,-311 1147,-478 1792,-478 645,0 1385,406 2221,1171 622,812 932,1911 932,3273l0 69640zm38655 0c0,1218 -359,2198 -1099,2938 -693,621 -1601,932 -2748,932 -1003,0 -1911,-311 -2699,-956 -765,-645 -1147,-1624 -1147,-2914l0 -60275 -8863 8863c-789,788 -1673,1171 -2676,1171 -908,0 -1816,-383 -2676,-1171 -812,-812 -1242,-1720 -1242,-2771 0,-884 406,-1768 1171,-2652l15433 -15505c501,-526 1051,-932 1600,-1266 550,-311 1147,-478 1792,-478 645,0 1386,406 2222,1171 621,812 932,1911 932,3273l0 69640zm15480 24c0,-1052 383,-1959 1123,-2724 765,-741 1673,-1123 2724,-1123 836,0 1696,382 2556,1123 860,765 1290,1672 1290,2724 0,931 -382,1791 -1147,2604 -740,836 -1648,1242 -2699,1242 -1099,0 -2031,-382 -2819,-1147 -693,-812 -1028,-1720 -1028,-2699zm46395 -42525c3512,0 6427,-1218 8720,-3655 1911,-2246 2891,-4898 2891,-7980 0,-3153 -980,-5805 -2891,-7979 -2102,-2437 -5017,-3679 -8720,-3679 -3392,0 -6283,1242 -8696,3679 -1911,2246 -2891,4898 -2891,7979 0,3154 980,5806 2891,7980 2102,2437 5017,3655 8696,3655zm0 7693c-4873,0 -8768,1600 -11658,4802 -2580,2938 -3870,6498 -3870,10702 0,4157 1290,7693 3870,10631 2914,3226 6832,4850 11658,4850 4898,0 8792,-1600 11683,-4802 2580,-2914 3870,-6474 3870,-10679 0,-4085 -1266,-7645 -3823,-10631 -2914,-3249 -6832,-4873 -11730,-4873zm12781 -4277c3417,1983 6021,4754 7789,8314 1791,3536 2675,7382 2675,11467 0,6068 -1935,11348 -5805,15887 -4276,4850 -10082,7287 -17440,7287 -7286,0 -13068,-2389 -17416,-7191 -3870,-4276 -5805,-9628 -5805,-15983 0,-4085 860,-7907 2580,-11419 1720,-3512 4348,-6331 7884,-8457 -2055,-1744 -3655,-3942 -4802,-6618 -1147,-2676 -1720,-5447 -1720,-8314 0,-5160 1624,-9627 4826,-13330 3559,-4014 8385,-6021 14453,-6021 5949,0 10751,2007 14430,6021 3249,3679 4850,8122 4850,13330 0,2867 -526,5638 -1601,8314 -1099,2676 -2724,4921 -4898,6713zm61661 -4587l-24989 39849 23986 0c1075,0 1959,406 2723,1195 765,764 1123,1672 1123,2652 0,883 -311,1744 -956,2580 -668,860 -1624,1266 -2890,1266l-30938 0c-2795,0 -4181,-1027 -4181,-3082 0,-812 311,-1792 932,-2891l28573 -45558c955,-2007 1409,-3942 1409,-5806 0,-3297 -1266,-6163 -3846,-8624 -1219,-1123 -2652,-2031 -4277,-2700 -1600,-645 -3368,-1003 -5232,-1003 -1959,0 -3846,526 -5638,1553 -1791,1147 -3297,2628 -4467,4420 -287,477 -812,931 -1505,1385l-1720 382c-980,0 -1888,-358 -2724,-1075 -836,-716 -1242,-1600 -1242,-2675 0,-502 239,-1267 669,-2198 1768,-2772 4157,-5017 7191,-6785 1481,-836 2962,-1505 4467,-1959 1505,-478 2987,-717 4420,-717 6044,0 11157,1983 15337,5973 4181,4013 6260,8767 6260,14310 0,3177 -813,6331 -2485,9508z"/>
    <path class="fil3" d="M2809848 1570495c1218,0 2198,359 2939,1075 621,717 931,1625 931,2772 0,1003 -310,1911 -955,2675 -669,789 -1625,1147 -2915,1147l-65794 0 0 30986 65794 0c1218,0 2198,358 2939,1099 621,692 931,1624 931,2747 0,1027 -310,1935 -955,2700 -645,764 -1625,1146 -2915,1146l-69616 0c-2580,0 -3846,-1266 -3846,-3870l0 -38630c0,-2581 1266,-3847 3846,-3847l69616 0zm-34808 -23173l0 -23222c0,-2150 -717,-3965 -2150,-5494 -1433,-1505 -3297,-2270 -5590,-2270l-15481 0c-2198,0 -4014,741 -5519,2198 -1481,1457 -2246,3321 -2246,5566l0 23222 30986 0zm7693 0l27115 0c1218,0 2198,358 2939,1099 621,692 931,1624 931,2747 0,1027 -310,1935 -955,2700 -645,764 -1625,1146 -2915,1146l-69616 0c-2580,0 -3846,-1266 -3846,-3870l0 -27044c0,-4276 1505,-7931 4515,-10941 3010,-2987 6665,-4492 10918,-4492l15457 0c4252,0 7860,1505 10894,4516 3034,3034 4563,6665 4563,10941l0 23198zm27115 -100483c1218,0 2198,359 2939,1075 621,717 931,1625 931,2772 0,1003 -310,1911 -955,2675 -645,789 -1625,1147 -2915,1147l-54637 0 56524 31392c789,454 1410,1003 1864,1720l478 812c119,263 215,669 310,1219 -24,740 -406,1576 -1170,2532 -789,669 -1888,1003 -3321,1003l-69592 0c-1052,0 -2007,-382 -2891,-1146 -669,-765 -1003,-1673 -1003,-2700 0,-979 334,-1887 979,-2652 645,-788 1601,-1194 2915,-1194l54637 0 -56501 -31368c-621,-382 -1242,-932 -1863,-1672 -550,-693 -812,-1386 -812,-2079 0,-860 453,-1648 1290,-2365 764,-788 1839,-1171 3201,-1171l69592 0zm-41808 -42548l-30006 -19924c-502,-335 -956,-789 -1314,-1386l-334 -812 0 -932c0,-1003 358,-1935 1146,-2819 813,-812 1720,-1219 2772,-1219 645,0 1361,239 2150,669l32586 21717 32610 -21717 1147 -501 1051 -168c1003,0 1887,407 2676,1195 788,788 1194,1744 1194,2891 0,1218 -573,2245 -1768,3082l-29886 19924 29886 19901c478,286 932,788 1362,1505l406 1696c0,812 -406,1696 -1170,2699 -741,860 -1673,1267 -2748,1267 -669,0 -1385,-215 -2150,-645l-32610 -21741 -32586 21836 -1147 550 -1075 0c-980,0 -1887,-383 -2676,-1195 -788,-788 -1170,-1744 -1170,-2891 0,-1218 573,-2245 1768,-3081l29886 -19901zm30197 -84930c4253,0 7884,1505 10918,4515 3034,3011 4563,6666 4563,10918l0 15457c0,4205 -1505,7836 -4515,10870 -2986,3058 -6641,4587 -10966,4587l-46394 0c-4301,0 -7956,-1505 -10966,-4491 -2986,-3010 -4491,-6665 -4491,-10966l0 -15457c0,-4276 1505,-7931 4515,-10941 3034,-2987 6665,-4492 10942,-4492l46394 0zm48 7669l-46466 0c-2198,0 -4014,741 -5519,2198 -1481,1457 -2246,3321 -2246,5566l0 15481c0,2174 741,4014 2222,5543 741,740 1577,1290 2509,1648 955,358 1959,550 3034,550l46466 0c2174,0 4014,-717 5543,-2198 645,-789 1194,-1625 1648,-2509 359,-1099 550,-2102 550,-3034l0 -15481c0,-2150 -717,-3965 -2174,-5494 -1434,-1506 -3297,-2270 -5567,-2270zm-31726 -60251l-28477 -19996c-454,-287 -836,-741 -1171,-1338 -358,-573 -525,-1171 -525,-1768 0,-1003 358,-1935 1146,-2819 813,-812 1720,-1218 2748,-1218 764,0 1529,286 2269,788l28812 20259 36600 -20498c740,-358 1433,-549 2054,-549 884,0 1720,406 2509,1194 788,788 1194,1768 1194,2915 0,1170 -669,2245 -2006,3249l-35430 19781 33566 0c1218,0 2198,358 2939,1099 621,693 931,1624 931,2747 0,1027 -310,1935 -955,2700 -645,764 -1625,1147 -2915,1147l-33446 0 35333 19804c430,335 908,789 1434,1410l382 956 167 1003c0,1075 -358,1983 -1075,2771 -716,813 -1648,1195 -2723,1195 -430,0 -1075,-167 -1959,-478l-36528 -20546 -28884 20259c-358,287 -1122,550 -2317,765 -980,0 -1887,-382 -2676,-1195 -788,-788 -1170,-1696 -1170,-2771 0,-1075 549,-2126 1696,-3106l28549 -20067 -26399 0c-1003,0 -1959,-383 -2867,-1147 -645,-765 -979,-1673 -979,-2700 0,-979 310,-1887 955,-2652 645,-788 1625,-1194 2891,-1194l26327 0zm27832 -56047l16675 5591c813,286 1458,764 1983,1433 335,502 550,1219 669,2079 0,1051 -382,1935 -1123,2723 -645,836 -1529,1266 -2627,1266l-1386 -263 -69568 -23269c-2198,-764 -3321,-1983 -3321,-3631 0,-1648 1123,-2867 3321,-3631l69568 -23150 1386 -287c1003,0 1887,430 2699,1291 693,812 1051,1720 1051,2699 0,526 -143,1075 -406,1744 -239,645 -979,1242 -2246,1792l-16675 5566 0 28047zm-7931 -25467l-34020 11396 34020 11420 0 -22816zm-11420 -69210l-30986 0 0 23246c0,2174 741,4013 2222,5542 741,741 1577,1290 2509,1649 955,358 1959,549 3034,549l15481 0c2174,0 4013,-717 5542,-2198 669,-788 1219,-1624 1649,-2508 358,-1099 549,-2103 549,-3034l0 -23246zm7693 13307l29146 18252c1242,765 1839,1816 1839,3082 0,1004 -406,1911 -1218,2724 -788,884 -1672,1314 -2700,1314 -764,0 -1481,-215 -2102,-598l-24965 -15624 0 765c0,4181 -1505,7836 -4492,10870 -3010,3058 -6665,4587 -10965,4587l-15457 0c-4277,0 -7932,-1505 -10942,-4492 -2986,-3010 -4491,-6665 -4491,-10965l0 -27044c0,-2580 1266,-3846 3846,-3846l69616 0c1218,0 2198,358 2939,1075 621,716 931,1624 931,2771 0,1003 -310,1911 -955,2676 -669,788 -1625,1146 -2915,1146l-27115 0 0 13307zm99765 291150l0 -7716c0,-1075 406,-1983 1195,-2724 788,-764 1672,-1146 2652,-1146 884,0 1744,334 2580,955 860,645 1266,1625 1266,2915l0 7716 11539 0c1218,0 2198,359 2914,1099 622,693 932,1625 932,2748 0,1027 -310,1935 -955,2699 -645,765 -1601,1147 -2891,1147l-11539 0 0 23245c0,2676 -1027,4038 -3130,4038l-931 -120 -884 -239 -54183 -15433c-765,-239 -1482,-669 -2103,-1338l-382 -716c-239,-430 -334,-932 -334,-1505 0,-1123 358,-2055 1099,-2796 692,-812 1600,-1218 2723,-1218l1147 167 49285 14072 0 -18157 -11610 0c-1028,0 -1983,-382 -2867,-1147 -669,-764 -1004,-1672 -1004,-2699 0,-980 311,-1888 956,-2652 669,-788 1625,-1195 2915,-1195l11610 0zm19232 -26996c-1051,0 -1959,-382 -2724,-1122 -740,-765 -1122,-1673 -1122,-2724 0,-836 382,-1696 1122,-2556 765,-860 1673,-1290 2724,-1290 932,0 1792,382 2604,1147 836,740 1242,1648 1242,2699 0,1099 -382,2031 -1147,2819 -812,693 -1720,1027 -2699,1027zm-19232 -58005l0 -7717c0,-1075 406,-1982 1195,-2723 788,-764 1672,-1147 2652,-1147 884,0 1744,335 2580,956 860,645 1266,1624 1266,2914l0 7717 11539 0c1218,0 2198,358 2914,1099 622,693 932,1625 932,2747 0,1028 -310,1935 -955,2700 -645,764 -1601,1147 -2891,1147l-11539 0 0 23245c0,2676 -1027,4037 -3130,4037l-931 -119 -884 -239 -54183 -15433c-765,-239 -1482,-669 -2103,-1338l-382 -717c-239,-430 -334,-931 -334,-1505 0,-1123 358,-2054 1099,-2795 692,-812 1600,-1218 2723,-1218l1147 167 49285 14071 0 -18156 -11610 0c-1028,0 -1983,-383 -2867,-1147 -669,-765 -1004,-1672 -1004,-2700 0,-979 311,-1887 956,-2651 669,-789 1625,-1195 2915,-1195l11610 0zm-46466 -46013l0 15505c0,1171 -359,2126 -1099,2867 -765,645 -1696,980 -2748,980 -907,0 -1791,-335 -2604,-1004 -812,-693 -1242,-1648 -1242,-2843l0 -15481c0,-6044 1959,-10870 5901,-14477 3703,-3225 8123,-4850 13307,-4850 3129,0 5996,597 8624,1840 2604,1218 4946,3105 7048,5662 1696,-2150 3894,-3918 6617,-5352 2676,-1433 5591,-2150 8673,-2150l7740 0c5280,0 9819,1887 13617,5686 3799,3775 5710,8338 5710,13641l0 15481c0,1171 -334,2126 -1027,2867 -860,645 -1792,980 -2819,980 -884,0 -1720,-311 -2580,-956 -836,-645 -1266,-1625 -1266,-2915l0 -15504c0,-3202 -1123,-5925 -3417,-8195 -2245,-2269 -4993,-3392 -8218,-3392l-7740 0c-3154,0 -5901,1099 -8171,3344 -2293,2222 -3440,4993 -3440,8266l0 7741c0,1194 -335,2150 -1027,2891 -860,669 -1792,1003 -2819,1003 -884,0 -1720,-311 -2581,-980 -836,-645 -1266,-1600 -1266,-2914l0 -7741c0,-3416 -1242,-6259 -3703,-8457 -2198,-1887 -4921,-2819 -8122,-2819 -3154,0 -5758,908 -7789,2700 -2365,2054 -3559,4921 -3559,8576z"/>
    <path class="fil3" d="M3216937 1108721l-19375 0c-4180,0 -7812,-1505 -10870,-4515 -3058,-2986 -4587,-6642 -4587,-10966l0 -46394c0,-4301 1506,-7956 4492,-10966 3010,-2986 6665,-4491 10965,-4491l19375 0c1052,0 1959,382 2724,1170 764,789 1123,1696 1123,2676 0,884 -311,1720 -956,2580 -669,836 -1624,1242 -2914,1242l-19375 0c-2174,0 -4014,741 -5543,2222 -741,741 -1290,1577 -1648,2509 -359,955 -550,1959 -550,3034l0 46466c0,2174 717,4014 2198,5543 788,645 1625,1194 2509,1648 1098,358 2102,550 3034,550l19375 0c1075,0 1982,406 2747,1194 764,765 1123,1672 1123,2652 0,884 -311,1744 -956,2580 -669,860 -1624,1266 -2891,1266zm69354 -95298l-42525 108294c-263,598 -717,1195 -1385,1768l-1052 502 -1051 215c-1099,0 -2054,-358 -2867,-1051 -812,-693 -1218,-1625 -1218,-2748 0,-597 95,-1075 287,-1457l42500 -108294c191,-550 645,-1123 1338,-1744l717 -406c454,-215 908,-335 1433,-335 1099,0 2055,359 2867,1051 812,693 1219,1625 1219,2772 0,573 -96,1051 -263,1433zm58172 64313l-23221 0c-4181,0 -7812,-1506 -10870,-4492 -3058,-3010 -4587,-6665 -4587,-10965l0 -27044c0,-1027 382,-1959 1147,-2867 764,-645 1672,-979 2699,-979 980,0 1888,310 2652,955 789,645 1195,1625 1195,2891l0 27091c0,2174 717,4014 2198,5519 788,669 1624,1218 2508,1648 1099,359 2103,550 3034,550l23245 0 0 -34808c0,-1027 359,-1959 1147,-2867 765,-645 1672,-979 2676,-979 979,0 1887,310 2676,955 788,645 1170,1625 1170,2891l0 58005c0,4253 -1505,7884 -4515,10918 -3010,3034 -6642,4563 -10918,4563l-19327 0c-1171,0 -2126,-358 -2867,-1099 -669,-764 -1003,-1696 -1003,-2747 0,-932 334,-1792 1027,-2604 693,-812 1625,-1242 2843,-1242l19351 0c2126,0 3966,-717 5471,-2174 1505,-1434 2269,-3297 2269,-5591l0 -15528zm-131444 118973c0,1218 -358,2198 -1099,2938 -692,621 -1600,932 -2747,932 -1003,0 -1911,-311 -2699,-956 -765,-645 -1147,-1624 -1147,-2914l0 -60275 -8863 8863c-789,788 -1673,1171 -2676,1171 -908,0 -1816,-383 -2676,-1171 -812,-812 -1242,-1720 -1242,-2771 0,-884 406,-1768 1170,-2652l15434 -15505c501,-525 1051,-931 1600,-1266 550,-310 1147,-478 1792,-478 645,0 1386,406 2222,1171 621,812 931,1911 931,3273l0 69640zm15481 24c0,-1051 383,-1959 1123,-2724 765,-740 1672,-1123 2724,-1123 836,0 1696,383 2556,1123 860,765 1290,1673 1290,2724 0,931 -382,1792 -1147,2604 -740,836 -1648,1242 -2699,1242 -1099,0 -2031,-382 -2819,-1147 -693,-812 -1028,-1720 -1028,-2699zm59009 -43695l-24989 39848 23986 0c1075,0 1959,407 2723,1195 765,764 1123,1672 1123,2652 0,884 -311,1744 -956,2580 -668,860 -1624,1266 -2890,1266l-30938 0c-2795,0 -4181,-1027 -4181,-3082 0,-812 311,-1792 932,-2890l28573 -45559c955,-2007 1409,-3942 1409,-5805 0,-3297 -1266,-6164 -3846,-8625 -1219,-1123 -2652,-2031 -4277,-2699 -1600,-645 -3368,-1004 -5232,-1004 -1959,0 -3846,526 -5638,1553 -1791,1147 -3297,2628 -4467,4420 -287,478 -812,931 -1505,1385l-1720 383c-980,0 -1888,-359 -2724,-1075 -836,-717 -1242,-1601 -1242,-2676 0,-502 239,-1266 669,-2198 1768,-2771 4157,-5017 7191,-6785 1481,-836 2962,-1505 4467,-1959 1505,-478 2987,-717 4420,-717 6044,0 11157,1983 15337,5973 4181,4014 6260,8768 6260,14310 0,3178 -813,6331 -2485,9509zm25969 -22123l0 23293 11610 0c5256,0 9819,1887 13642,5662 3822,3775 5733,8338 5733,13665l0 7717c0,5280 -1911,9819 -5709,13617 -3775,3799 -8338,5710 -13642,5710l-15457 0c-1170,0 -2150,-358 -2866,-1099 -669,-764 -1004,-1696 -1004,-2747 0,-932 335,-1792 1004,-2604 716,-813 1648,-1243 2866,-1243l15505 0c3154,0 5901,-1099 8171,-3320 2293,-2222 3440,-4969 3440,-8314l0 -7741c0,-3201 -1123,-5924 -3369,-8194 -2222,-2269 -4969,-3416 -8242,-3416l-15505 0c-2580,0 -3870,-1266 -3870,-3847l0 -30961c0,-2580 1266,-3847 3870,-3847l30938 0c1051,0 1983,383 2724,1171 764,788 1146,1696 1146,2676 0,884 -334,1720 -979,2580 -645,836 -1625,1242 -2891,1242l-27115 0z"/>
    <path class="fil3" d="M3174747 1751368c2198,1338 3966,3177 5328,5566 1362,2389 2030,4946 2030,7645l0 15433c0,4253 -1505,7884 -4515,10918 -3010,3034 -6665,4563 -10918,4563l-27043 0c-2604,0 -3871,-1290 -3871,-3870l0 -69616c0,-2580 1267,-3846 3871,-3846l23197 0c4276,0 7932,1505 10942,4515 2986,3034 4491,6665 4491,10942l0 7740c0,1768 -263,3488 -812,5136 -550,1649 -1457,3273 -2700,4874zm-31296 5447l0 30986 23221 0c2151,0 3966,-717 5495,-2174 1505,-1434 2270,-3297 2270,-5567l0 -15481c0,-2198 -741,-4013 -2198,-5518 -1457,-1481 -3321,-2246 -5567,-2246l-23221 0zm19375 -7693c2150,0 3966,-716 5495,-2174 1505,-1433 2269,-3296 2269,-5590l0 -7764c0,-2174 -740,-4014 -2198,-5519 -1457,-1481 -3320,-2246 -5566,-2246l-19375 0 0 23293 19375 0zm44412 27044l-5590 16675c-287,813 -765,1458 -1434,1983 -501,335 -1218,550 -2078,669 -1051,0 -1935,-382 -2724,-1123 -836,-645 -1266,-1529 -1266,-2627l263 -1386 23269 -69568c765,-2198 1983,-3321 3631,-3321 1649,0 2867,1123 3632,3321l23149 69568 287 1386c0,1003 -430,1887 -1290,2699 -812,693 -1720,1051 -2700,1051 -525,0 -1075,-143 -1744,-406 -645,-239 -1242,-979 -1791,-2246l-5567 -16675 -28047 0zm25467 -7931l-11396 -34020 -11419 34020 22815 0zm69210 -19113l0 -27115c0,-1027 358,-1935 1147,-2700 764,-788 1672,-1146 2675,-1146 980,0 1888,310 2676,955 788,645 1171,1625 1171,2891l0 69521c0,1098 -383,2078 -1195,2914 -932,693 -1815,1051 -2699,1051 -932,0 -1840,-310 -2700,-931 -717,-622 -1075,-1601 -1075,-2891l0 -34856 -30986 0 0 34808c0,1218 -358,2198 -1099,2939 -692,621 -1624,931 -2747,931 -1027,0 -1935,-310 -2700,-955 -764,-645 -1146,-1625 -1146,-2915l0 -69568c0,-1028 382,-1983 1146,-2867 765,-669 1673,-1003 2700,-1003 979,0 1887,334 2652,979 788,645 1194,1601 1194,2915l0 27043 30986 0zm61828 0l0 -27115c0,-1027 358,-1935 1147,-2700 764,-788 1672,-1146 2675,-1146 980,0 1888,310 2676,955 788,645 1171,1625 1171,2891l0 69521c0,1098 -383,2078 -1195,2914 -932,693 -1816,1051 -2700,1051 -931,0 -1839,-310 -2699,-931 -717,-622 -1075,-1601 -1075,-2891l0 -34856 -30986 0 0 34808c0,1218 -358,2198 -1099,2939 -693,621 -1624,931 -2747,931 -1027,0 -1935,-310 -2700,-955 -764,-645 -1146,-1625 -1146,-2915l0 -69568c0,-1028 382,-1983 1146,-2867 765,-669 1673,-1003 2700,-1003 979,0 1887,334 2652,979 788,645 1194,1601 1194,2915l0 27043 30986 0zm36719 27044l-5590 16675c-287,813 -765,1458 -1434,1983 -501,335 -1218,550 -2078,669 -1051,0 -1935,-382 -2724,-1123 -836,-645 -1266,-1529 -1266,-2627l263 -1386 23269 -69568c765,-2198 1983,-3321 3631,-3321 1649,0 2867,1123 3632,3321l23149 69568 287 1386c0,1003 -430,1887 -1290,2699 -812,693 -1720,1051 -2700,1051 -525,0 -1075,-143 -1744,-406 -645,-239 -1242,-979 -1791,-2246l-5567 -16675 -28047 0zm25467 -7931l-11396 -34020 -11419 34020 22815 0zm69210 -11420l0 -30986 -23245 0c-2174,0 -4014,741 -5543,2222 -740,741 -1290,1577 -1648,2509 -358,955 -550,1959 -550,3034l0 15481c0,2174 717,4013 2198,5542 789,669 1625,1219 2509,1649 1099,358 2102,549 3034,549l23245 0zm-13307 7693l-18252 29146c-764,1242 -1816,1839 -3082,1839 -1003,0 -1911,-406 -2723,-1218 -884,-788 -1314,-1672 -1314,-2700 0,-764 215,-1481 597,-2102l15624 -24965 -764 0c-4181,0 -7836,-1505 -10870,-4492 -3058,-3010 -4587,-6665 -4587,-10965l0 -15457c0,-4277 1505,-7932 4491,-10942 3010,-2986 6665,-4491 10966,-4491l27043 0c2581,0 3847,1266 3847,3846l0 69616c0,1218 -359,2198 -1075,2939 -717,621 -1625,931 -2772,931 -1003,0 -1911,-310 -2675,-955 -789,-669 -1147,-1625 -1147,-2915l0 -27115 -13307 0zm-211739 75302l-24989 39849 23986 0c1075,0 1959,406 2723,1194 765,765 1123,1672 1123,2652 0,884 -310,1744 -956,2580 -668,860 -1624,1266 -2890,1266l-30938 0c-2795,0 -4181,-1027 -4181,-3082 0,-812 311,-1791 932,-2890l28573 -45559c955,-2007 1409,-3942 1409,-5805 0,-3297 -1266,-6164 -3846,-8625 -1219,-1123 -2652,-2030 -4277,-2699 -1600,-645 -3368,-1004 -5232,-1004 -1959,0 -3846,526 -5638,1553 -1791,1147 -3296,2628 -4467,4420 -287,478 -812,932 -1505,1385l-1720 383c-980,0 -1888,-359 -2724,-1075 -836,-717 -1242,-1601 -1242,-2676 0,-502 239,-1266 669,-2198 1768,-2771 4157,-5017 7191,-6785 1481,-836 2962,-1505 4467,-1959 1505,-478 2987,-716 4420,-716 6044,0 11157,1982 15338,5972 4180,4014 6259,8768 6259,14310 0,3178 -813,6331 -2485,9509zm18276 43695c0,-1051 382,-1959 1123,-2724 765,-740 1672,-1122 2724,-1122 836,0 1696,382 2556,1122 860,765 1290,1673 1290,2724 0,932 -382,1792 -1147,2604 -740,836 -1648,1242 -2699,1242 -1099,0 -2031,-382 -2820,-1147 -692,-812 -1027,-1720 -1027,-2699zm30866 -65818l0 23293 11611 0c5256,0 9819,1888 13641,5662 3823,3775 5734,8338 5734,13665l0 7717c0,5280 -1911,9819 -5710,13617 -3774,3799 -8337,5710 -13641,5710l-15457 0c-1171,0 -2150,-358 -2867,-1099 -669,-764 -1003,-1696 -1003,-2747 0,-932 334,-1792 1003,-2604 717,-812 1649,-1242 2867,-1242l15505 0c3153,0 5901,-1099 8170,-3321 2294,-2222 3440,-4969 3440,-8314l0 -7740c0,-3202 -1123,-5925 -3368,-8195 -2222,-2269 -4969,-3416 -8242,-3416l-15505 0c-2580,0 -3870,-1266 -3870,-3846l0 -30962c0,-2580 1266,-3846 3870,-3846l30938 0c1051,0 1983,382 2723,1170 765,789 1147,1696 1147,2676 0,884 -335,1720 -980,2580 -645,836 -1624,1242 -2890,1242l-27116 0zm77285 30986l120 -1768 0 -2102 0 -19351c0,-2198 -741,-4014 -2198,-5519 -1458,-1481 -3321,-2246 -5567,-2246l-7764 0c-2198,0 -4037,741 -5543,2222 -740,741 -1313,1577 -1672,2509 -358,955 -549,1959 -549,3034l0 15480c0,2174 716,4014 2221,5543 765,669 1625,1218 2509,1648 1099,359 2126,550 3034,550l15409 0zm-1433 7693l-13976 0c-4157,0 -7764,-1482 -10846,-4468 -3058,-2962 -4611,-6641 -4611,-10989l0 -15457c0,-4253 1505,-7908 4515,-10918 3034,-3010 6666,-4515 10942,-4515l7740 0c4325,0 7980,1505 10966,4515 2986,3034 4515,6665 4515,10942l0 19279c0,7454 -1409,14406 -4204,20880 -2031,4826 -4874,9102 -8553,12829 -3655,3703 -7932,6570 -12829,8553l-1649 334c-883,0 -1744,-406 -2532,-1242 -788,-836 -1194,-1768 -1194,-2795 0,-645 167,-1243 525,-1816 311,-597 932,-1123 1864,-1553 1959,-788 3750,-1720 5447,-2819 1696,-1123 3320,-2484 4873,-4109 2867,-2938 5184,-6426 6952,-10440l1051 -2938 1004 -3273z"/>
   </g>
   <g>
    <path class="fil3" d="M3523425 1448440l284485 0 0 609010 -288499 0 0 -609010 4014 0zm276458 8003l-272444 0 0 592979 272444 0 0 -592979z"/>
    <path class="fil3" d="M3663661 1468580c34139,0 65148,13975 87629,36456 22481,22481 36456,53514 36456,87629l0 395646c0,13474 -5518,25706 -14381,34593 -8888,8864 -21119,14382 -34594,14382l-150221 0c-13474,0 -25706,-5518 -34593,-14382 -8864,-8887 -14382,-21119 -14382,-34593l0 -395646c0,-34115 13976,-65148 36456,-87629 22481,-22481 53514,-36456 87630,-36456zm81967 42118c-21023,-21023 -50050,-34091 -81967,-34091 -31918,0 -60944,13068 -81968,34091 -21047,21023 -34091,50050 -34091,81967l0 395646c0,11253 4611,21501 12017,28931 7430,7406 17678,12017 28931,12017l150221 0c11253,0 21502,-4611 28932,-12017 7405,-7430 12016,-17678 12016,-28931l0 -395646c0,-31917 -13068,-60944 -34091,-81967z"/>
    <path class="fil1" d="M3663661 1946814c9006,0 16293,7310 16293,16317 0,9007 -7287,16293 -16293,16293 -9007,0 -16294,-7286 -16294,-16293 0,-9007 7287,-16317 16294,-16317zm0 6355c5494,0 9938,4467 9938,9962 0,5495 -4444,9938 -9938,9938 -5495,0 -9939,-4443 -9939,-9938 0,-5495 4444,-9962 9939,-9962z"/>
   </g>
   <g>
    <path class="fil3" d="M3383428 1889955l40088 0c23126,0 44149,9485 59415,24727 15242,15242 24703,36265 24703,59415l0 61875c0,6116 -2509,11683 -6546,15720 -4014,4037 -9580,6546 -15696,6546l-163839 0c-6116,0 -11683,-2509 -15696,-6546 -4062,-4014 -6546,-9604 -6546,-15720l0 -61875c0,-23126 9460,-44173 24702,-59415 15242,-15266 36266,-24727 59415,-24727zm40088 8027l-40088 0c-20927,0 -39968,8553 -53753,22362 -13808,13784 -22361,32825 -22361,53753l0 61875c0,3918 1601,7478 4181,10058 2580,2580 6140,4205 10058,4205l163839 0c3894,0 7477,-1625 10058,-4205 2580,-2556 4180,-6140 4180,-10058l0 -61875c0,-20928 -8576,-39969 -22361,-53753 -13785,-13809 -32825,-22362 -53753,-22362z"/>
    <path class="fil3" d="M3383428 1913941c-16508,0 -31559,6761 -42453,17679 -10917,10918 -17702,25968 -17702,42477l0 24105 160399 0 0 -24105c0,-16509 -6785,-31559 -17703,-42477 -10894,-10894 -25945,-17679 -42453,-17679l-40088 0zm-48138 12017c12375,-12351 29408,-20044 48138,-20044l40088 0c18706,0 35764,7693 48139,20044 12351,12351 20044,29409 20044,48139l0 25825c0,1720 -741,3297 -1864,4443 -1146,1123 -2723,1864 -4443,1864l-163839 0c-1697,0 -3273,-741 -4420,-1864 -1147,-1170 -1863,-2771 -1863,-4443l0 -25825c0,-18730 7668,-35788 20020,-48139z"/>
    <path class="fil1" d="M3410281 2012894c4587,2437 7717,7287 7717,12853 0,8027 -6499,14525 -14526,14525 -8027,0 -14525,-6498 -14525,-14525 0,-5566 3130,-10416 7717,-12853l0 -34234 13617 0 0 34234z"/>
    <path class="fil1" d="M3403472 1929541c9007,0 16293,7287 16293,16293 0,9007 -7286,16317 -16293,16317 -9006,0 -16293,-7310 -16293,-16317 0,-9006 7287,-16293 16293,-16293zm0 6355c5495,0 9939,4444 9939,9938 0,5495 -4444,9963 -9939,9963 -5494,0 -9938,-4468 -9938,-9963 0,-5494 4444,-9938 9938,-9938z"/>
   </g>
   <g>
    <path class="fil3" d="M3654893 1107981l0 140594 -55449 0c-2963,0 -5662,-1219 -7597,-3154 -1959,-1959 -3178,-4635 -3178,-7597l0 -121506c0,-3297 1362,-6307 3536,-8481 2150,-2150 5160,-3512 8457,-3512l54231 0 0 3656zm-7334 133259l0 -129580 -46897 0c-1266,0 -2437,525 -3297,1361 -836,837 -1361,2007 -1361,3297l0 121506c0,932 382,1792 1003,2413 621,621 1481,1003 2437,1003l48115 0z"/>
    <path class="fil3" d="M3596004 1116318l0 126905 -144297 0c-17942,0 -34259,-7334 -46085,-19184 -11849,-11849 -19207,-28166 -19207,-46108 0,-17941 7358,-34258 19183,-46084 11850,-11850 28167,-19184 46109,-19184l144297 0 0 3655zm-7335 119571l0 -115916 -136962 0c-15959,0 -30437,6522 -40924,17010 -10512,10512 -17034,25013 -17034,40948 0,15959 6522,30436 17010,40948 10511,10512 24989,17010 40948,17010l136962 0z"/>
    <path class="fil3" d="M3578181 1128622l0 99646c-26135,3774 -103516,14955 -126474,14955 -17966,0 -34283,-7358 -46109,-19184 -11825,-11825 -19183,-28142 -19183,-46108 0,-17941 7358,-34282 19183,-46108 11850,-11826 28167,-19160 46109,-19160 25825,0 98212,9269 126474,12710l0 3249zm-7310 93315l0 -90090 -119356 -11874c-15863,48 -30292,6570 -40756,17034 -10488,10512 -17010,24989 -17010,40924 0,15935 6522,30436 17034,40924 10464,10464 24869,16986 40709,17034l119379 -13952z"/>
    <path class="fil3" d="M3633511 1177382c0,3392 -1385,6498 -3631,8720 -2222,2221 -5304,3607 -8720,3607 -3416,0 -6498,-1386 -8720,-3607 -2222,-2222 -3607,-5328 -3607,-8720 0,-3417 1385,-6498 3607,-8720 2222,-2246 5328,-3632 8720,-3632 3416,0 6498,1386 8720,3632 2246,2245 3631,5327 3631,8720z"/>
   </g>
   <g>
    <path class="fil3" d="M3409803 1412844l-244421 0 0 176286 248411 0 0 -176286 -3990 0zm-236394 8003l232381 0 0 160279 -232381 0 0 -160279z"/>
    <path class="fil3" d="M3409803 1550571l-244421 0 0 38559 248411 0 0 -38559 -3990 0zm-236394 8003l232381 0 0 22552 -232381 0 0 -22552z"/>
    <path class="fil3" d="M3289588 1425482c-16867,0 -32181,6856 -43266,17917 -11085,11109 -17941,26399 -17941,43289 0,16867 6856,32180 17941,43266 11085,11085 26399,17941 43266,17941 16890,0 32180,-6856 43265,-17941 11109,-11086 17941,-26399 17941,-43266 0,-16890 -6832,-32180 -17917,-43265 -11109,-11085 -26399,-17941 -43289,-17941zm-37604 23579c9604,-9628 22911,-15576 37604,-15576 14716,0 27999,5948 37627,15576 9627,9628 15576,22935 15576,37627 0,14693 -5949,28000 -15576,37604 -9628,9651 -22911,15600 -37627,15600 -14693,0 -28000,-5949 -37604,-15577 -9627,-9627 -15576,-22934 -15576,-37627 0,-14692 5949,-27999 15576,-37627z"/>
    <path class="fil3" d="M3289588 1447461c-10823,0 -20642,4395 -27737,11491 -7095,7095 -11491,16890 -11491,27736 0,10823 4396,20641 11491,27737 7095,7095 16914,11491 27737,11491 10846,0 20641,-4396 27736,-11491 7119,-7096 11491,-16914 11491,-27737 0,-10846 -4372,-20641 -11491,-27736 -7095,-7096 -16890,-11491 -27736,-11491zm-22075 17153c5662,-5638 13474,-9150 22075,-9150 8624,0 16436,3512 22074,9150 5662,5638 9150,13450 9150,22074 0,8625 -3488,16413 -9150,22075 -5638,5638 -13450,9150 -22074,9150 -8601,0 -16413,-3512 -22075,-9150 -5638,-5662 -9126,-13450 -9126,-22075 0,-8624 3488,-16436 9126,-22074z"/>
    <path class="fil1" d="M3389114 1560605c-4563,0 -8242,3703 -8242,8242 0,4563 3679,8266 8242,8266 4563,0 8266,-3703 8266,-8266 0,-4539 -3703,-8242 -8266,-8242z"/>
    <path class="fil1" d="M3186501 1560605c-4539,0 -8242,3703 -8242,8242 0,4563 3703,8266 8242,8266 4563,0 8266,-3703 8266,-8266 0,-4539 -3703,-8242 -8266,-8242z"/>
    <path class="fil1" d="M3213282 1560605c-4563,0 -8242,3703 -8242,8242 0,4563 3679,8266 8242,8266 4563,0 8266,-3703 8266,-8266 0,-4539 -3703,-8242 -8266,-8242z"/>
   </g>
   <g>
    <path class="fil3" d="M1181969 344378l152491 0c8218,0 15696,-3345 21095,-8768 5399,-5399 8768,-12877 8768,-21095l0 -218548 -208347 0 0 222418c0,7143 2939,13665 7645,18372 4706,4706 11204,7621 18348,7621zm152491 -8004l-152491 0c-4946,0 -9437,-2030 -12686,-5279 -3273,-3273 -5304,-7765 -5304,-12710l0 -214391 192340 0 0 210521c0,6020 -2484,11467 -6426,15433 -3966,3966 -9437,6426 -15433,6426z"/>
    <polygon class="fil3" points="1159990,315446 1360309,315446 1360309,307443 1159990,307443 "/>
    <path class="fil1" d="M1212381 289096c17655,0 31965,-14311 31965,-31966 0,-17654 -14310,-31965 -31965,-31965 -17655,0 -31965,14311 -31965,31965 0,17655 14310,31966 31965,31966z"/>
    <path class="fil1" d="M1301754 279181c12160,0 22027,-9867 22027,-22051 0,-12160 -9867,-22026 -22027,-22026 -12184,0 -22051,9866 -22051,22026 0,12184 9867,22051 22051,22051z"/>
    <path class="fil1" d="M1301754 190118c-17655,0 -31989,-14310 -31989,-31965 0,-17655 14334,-31989 31989,-31989 17655,0 31965,14334 31965,31989 0,17655 -14310,31965 -31965,31965z"/>
    <path class="fil1" d="M1212381 180180c-12160,0 -22027,-9867 -22027,-22027 0,-12184 9867,-22050 22027,-22050 12184,0 22050,9866 22050,22050 0,12160 -9866,22027 -22050,22027z"/>
   </g>
   <g>
    <path class="fil3" d="M1805217 324166l161975 0c6379,0 12160,-2604 16365,-6808 4205,-4205 6833,-10010 6833,-16389l0 -161976c0,-6378 -2628,-12184 -6809,-16365 -4205,-4204 -10010,-6808 -16389,-6808l-161975 0c-6379,0 -12184,2604 -16389,6808 -4181,4181 -6785,9987 -6785,16365l0 161976c0,6379 2604,12184 6785,16389 4228,4204 10010,6808 16389,6808zm161975 -8027l-161975 0c-4181,0 -7980,-1696 -10727,-4443 -2724,-2748 -4444,-6546 -4444,-10727l0 -161976c0,-4157 1720,-7955 4468,-10703 2747,-2747 6522,-4467 10703,-4467l161975 0c4181,0 7980,1720 10727,4467 2747,2748 4444,6546 4444,10703l0 161976c0,4181 -1697,7979 -4444,10727 -2747,2747 -6546,4443 -10727,4443z"/>
    <path class="fil3" d="M1822441 308423l127526 0c6785,0 12973,-2772 17440,-7239 4468,-4467 7239,-10655 7239,-17440l0 -87438c0,-6785 -2771,-12972 -7239,-17440 -4467,-4467 -10655,-7263 -17440,-7263l-127526 0c-6784,0 -12948,2796 -17439,7263 -4468,4468 -7239,10631 -7239,17440l0 87438c0,6809 2771,12973 7239,17440 4491,4467 10679,7239 17439,7239zm127526 -8003l-127526 0c-4586,0 -8743,-1864 -11754,-4874 -3034,-3034 -4921,-7215 -4921,-11802l0 -87438c0,-4587 1887,-8768 4921,-11778 3011,-3034 7191,-4897 11754,-4897l127526 0c4587,0 8744,1863 11778,4897 3010,3034 4898,7191 4898,11778l0 87438c0,4587 -1888,8744 -4898,11778 -3034,3010 -7191,4898 -11778,4898z"/>
    <path class="fil1" d="M1893013 162430c4587,-2437 7717,-7263 7717,-12829 0,-8028 -6498,-14526 -14526,-14526 -8027,0 -14525,6498 -14525,14526 0,5566 3130,10392 7717,12829l0 34234 13617 0 0 -34234z"/>
    <path class="fil1" d="M1886204 263366c9007,0 16294,-7311 16294,-16317 0,-9007 -7287,-16293 -16294,-16293 -9006,0 -16293,7286 -16293,16293 0,9006 7287,16317 16293,16317zm0 -6379c5495,0 9939,-4443 9939,-9938 0,-5495 -4444,-9939 -9939,-9939 -5494,0 -9938,4444 -9938,9939 0,5495 4444,9938 9938,9938z"/>
   </g>
  </g>
 </g>
</svg>
