<?xml version="1.0" encoding="UTF-8"?>
<!DOCTYPE svg PUBLIC "-//W3C//DTD SVG 1.0//EN" "http://www.w3.org/TR/2001/REC-SVG-20010904/DTD/svg10.dtd">
<!-- Creator: CorelDRAW X7 -->
<svg xmlns="http://www.w3.org/2000/svg" xml:space="preserve" width="193px" height="176px" version="1.0" style="shape-rendering:geometricPrecision; text-rendering:geometricPrecision; image-rendering:optimizeQuality; fill-rule:evenodd; clip-rule:evenodd"
viewBox="0 0 39044639 35581614"
 xmlns:xlink="http://www.w3.org/1999/xlink">
 <defs>
  <style type="text/css">
   <![CDATA[
    .fil1 {fill:#5B5B5B}
    .fil0 {fill:#F5B3C4}
    .fil2 {fill:#FEFEFE}
    .fil3 {fill:#5B5B5B;fill-rule:nonzero}
    .fil4 {fill:#FEFEFE;fill-rule:nonzero}
   ]]>
  </style>
 </defs>
 <g id="Слой_x0020_1">
  <metadata id="CorelCorpID_0Corel-Layer"/>
  <g id="_1037359824">
   <g>
    <path class="fil0" d="M38918316 8813496l126323 0 0 24765572 0 1001273 0 1001273 -4640291 0 -125129 0 0 -2002546 -7480774 0 0 2002546 -145188 0 -8637743 0 0 -2002546 -7480773 0 0 2002546 -270079 0 -5239909 0 0 -120353 -29372 0 0 -19185856 -3832920 0 0 0 -262199 0 0 0 -221364 0 0 0 -158322 0 0 0 0 -583618 0 -15107930 0 -256945 0 -326912 4474805 0 29372 0 1250577 0 722359 0 14766690 0 961155 0 0 952081 0 7861415 14075374 0 0 4992755 1770436 0 0 -4992755 346972 0zm-18241655 -7861415l1621905 0 0 6712088 -1621905 0 0 -6712088z"/>
    <path class="fil1" d="M7299050 7974127l0 79997 -391387 0 0 -79997 391387 0zm23221275 10913949l668391 -1885775 0 -181246 -85728 0 0 -2701503 0 -366792 0 -816444 85728 0 0 -234976 298495 0 0 234976 156412 0 0 816444 4891505 0 0 -2918569 0 -1068614 -4947861 0 -8597 769880 -91459 -9074 0 190082 -217065 0 -671496 1660112 -78325 -16955 668391 -1645545 0 -187694 -127517 -11701 -2149 -749105 0 -583379 -203455 0 0 -298496 203455 0 0 -70206 6992912 0 866354 0 126323 0 0 24765572 0 1001273 0 1001273 -4640291 0 -824086 0 -6082860 0 -844145 0 -8637743 0 -1045211 0 -6111277 0 -594364 0 -5239909 0 0 -120353 -29372 0 0 -19185856 -4353735 0 0 0 -261960 0 0 0 -221364 0 0 0 -158322 0 0 0 0 -583618 0 -15107930 0 -256945 0 -326912 4995381 0 29372 0 1250577 0 722359 0 14766690 0 961155 0 0 952081 0 7861415 4491521 0 0 70206 249542 0 3047280 -668391 16955 78326 -3061847 671495 0 217066 -251930 0 0 583379 -4491521 0 -561888 0 -399267 0 0 -1711453 -1007721 0 -149248 0 -361776 0 -29850 0 0 -79997 29850 0 0 -417416 0 -3448220 0 -1518028 0 -1638382 -13247945 0 0 2829498 -876622 0 0 3512456 -388283 0 0 3230915 280586 0 497652 -3133008 78803 12656 -495503 3120352 26745 0 0 318077 876622 0 0 9718534 11212206 0 0 20537 208946 0 0 298495 -208946 0 0 47998 -11212206 0 0 12650477 3266973 0 594364 0 6111277 0 1045211 0 4697364 0 0 -12650477 -911486 0 0 -47998 -193664 0 -2847169 668391 -16716 -78325 2861497 -671495 0 -217066 196052 0 0 -20537 2792962 0 0 -240468 79997 0 0 240468 2929315 0 0 20537 209424 0 0 217066 2741622 671495 -16955 78325 -2726816 -668391 -207275 0 0 47998 -4350153 0 0 12650477 3399744 0 844145 0 6082860 0 824086 0 3647614 0 0 -12650477 -6408339 0 -540635 0 0 -47998 -223513 0 0 -298495 223513 0 0 -20537 0 -1087956 85728 0 0 -243811 298495 0 0 243811 156412 0 0 1087956 6408339 0 0 -6442009 -1005810 0 -511024 0 -4891505 0 0 2701503 -156412 0 0 183396 -217065 0 -671496 1900580 -78325 -16955zm-5925971 -8743768l79997 0 0 391388 -79997 0 0 -391388zm0 782775l79997 0 0 391626 -79997 0 0 -391626zm0 783013l79997 0 0 391388 -79997 0 0 -391388zm0 782775l79997 0 0 391387 -79997 0 0 -391387zm0 782774l79997 0 0 391387 -79997 0 0 -391387zm0 783014l79997 0 0 391387 -79997 0 0 -391387zm0 782774l79997 0 0 391387 -79997 0 0 -391387zm0 782775l79997 0 0 391387 -79997 0 0 -391387zm0 782774l79997 0 0 391387 -79997 0 0 -391387zm0 782775l79997 0 0 391626 -79997 0 0 -391626zm0 783013l79997 0 0 391387 -79997 0 0 -391387zm0 782774l79997 0 0 391388 -79997 0 0 -391388zm0 782775l79997 0 0 391387 -79997 0 0 -391387zm-4769957 -11564192l0 79997 -391387 0 0 -79997 391387 0zm-782775 0l0 79997 -391387 0 0 -79997 391387 0zm-782774 0l0 79997 -391387 0 0 -79997 391387 0zm-783013 0l0 79997 -391388 0 0 -79997 391388 0zm-782775 0l0 79997 -391387 0 0 -79997 391387 0zm-782774 0l0 79997 -391388 0 0 -79997 391388 0zm-782775 0l0 79997 -391387 0 0 -79997 391387 0zm-782774 0l0 79997 -391626 0 0 -79997 391626 0zm-783014 0l0 79997 -391387 0 0 -79997 391387 0zm-782774 0l0 79997 -391387 0 0 -79997 391387 0zm-782775 0l0 79997 -391387 0 0 -79997 391387 0zm-782774 0l0 79997 -391387 0 0 -79997 391387 0zm-783013 0l0 79997 -391388 0 0 -79997 391388 0zm-782775 0l0 79997 -391387 0 0 -79997 391387 0zm-782774 0l0 79997 -391388 0 0 -79997 391388 0zm-782775 0l0 79997 -391626 0 0 -79997 391626 0zm29853844 2860064l-768685 599379 -121070 1553848 0 -2153227 889755 0zm-870412 2918569l171217 -2261640 815250 -648810 0 2910450 -986467 0zm-15323325 -9644269l-769401 600096 -216111 2196688 0 -2796784 985512 0zm-969990 3448220l270078 -2790574 722121 -574783 0 3365357 -992199 0zm-15522 -4966248l1007721 0 0 -1638382 -1007721 0 0 1638382zm-15155689 1191116l-605588 0 0 -3197722 -4353735 0 0 15107930 4353735 0 0 -4848760 605588 0 0 -318077 0 -3230915 0 -3512456zm-5221283 -3197722l0 15107930 -221364 0 0 -15107930 221364 0zm27117716 33074013l0 803073 6082860 0 0 -803073 -6082860 0zm0 1043779l0 800923 6082860 0 0 -800923 -6082860 0zm-16638376 -1043779l0 803073 6111277 0 0 -803073 -6111277 0zm0 1043779l0 800923 6111277 0 0 -800923 -6111277 0z"/>
   </g>
   <g>
    <polygon class="fil2" points="37620457,24413585 37620457,30821447 29610750,30821447 29610750,24413585 "/>
    <path class="fil3" d="M37660575 24413585l0 6447980 -8089943 0 0 -6487859 8089943 0 0 39879zm-79997 6367744l0 -6327626 -7929711 0 0 6327626 7929711 0z"/>
    <polygon class="fil2" points="37620457,22133080 37620457,33101952 37936385,33101952 37936385,22133080 "/>
    <path class="fil3" d="M37660575 22173198l0 10888875 235692 0 0 -10888875 -235692 0zm-79997 10928993l0 -11009229 395925 0 0 11049108 -395925 0 0 -39879z"/>
    <polygon class="fil2" points="37449718,22199465 37449718,24202012 35847872,24202012 35847872,22199465 "/>
    <path class="fil3" d="M37489836 22199465l0 2042426 -1682082 0 0 -2082305 1682082 0 0 39879zm-79997 1962429l0 -1922311 -1521849 0 0 1922311 1521849 0z"/>
    <polygon class="fil2" points="37449718,30961859 37449718,32964167 35847872,32964167 35847872,30961859 "/>
    <path class="fil3" d="M37489836 30961859l0 2042426 -1682082 0 0 -2082543 1682082 0 0 40117zm-79997 1962429l0 -1922311 -1521849 0 0 1922311 1521849 0z"/>
    <polygon class="fil2" points="37620457,24658590 37620457,30576442 29963452,30576442 29963452,24658590 "/>
    <path class="fil3" d="M37660575 24658590l0 5957970 -7737241 0 0 -5997849 7737241 0 0 39879zm-79997 5877734l0 -5837616 -7577008 0 0 5837616 7577008 0z"/>
    <path class="fil3" d="M34521836 30633276l-4611397 0 0 -6014565 5831168 0 68774 4900102 -32715 6925c-203932,43461 -269124,133726 -364881,266019 -86683,120115 -197007,272706 -442012,455146 -187694,139696 -280347,144472 -332644,147099 -30327,1671 -31759,1671 -77370,207991l-6925 31283 -31998 0zm-4531161 -79997l4499162 0c52296,-234259 59699,-234737 144233,-239035 43461,-2150 120831,-6209 289182,-131577 235215,-175038 341240,-321898 424819,-437475 101489,-140412 171933,-238080 380403,-290138l-63998 -4756346 -5673801 0 0 5854571z"/>
    <path class="fil3" d="M35776711 29525977c-109847,20536 -191038,-14089 -291332,-56595 -172650,-73549 -407148,-173127 -966648,-11223 -166202,47998 -294674,43699 -381119,40595 -51580,-1672 -83101,-2866 -84534,239 -11939,25790 37253,133965 163815,410730l46804 102921c77370,169784 76415,312823 75698,418610 -477,65669 -716,114622 17671,135397l-59460 53491c-39163,-43461 -38685,-105787 -37969,-189366 478,-98384 1433,-231155 -68534,-384939l-46804 -102922c-137308,-300644 -191038,-418132 -163815,-477115 23641,-51341 75221,-49669 159755,-46804 81430,2866 202261,6925 356284,-37491 586962,-170023 836504,-63997 1020377,14328 87638,37252 159277,67579 245244,51580l14567 78564z"/>
    <polygon class="fil3" points="35620060,25914659 35139841,25448529 35195480,25391218 35675700,25857348 "/>
    <path class="fil3" d="M33602947 26203603c42506,48237 87638,94325 135398,138741 82146,75937 172650,146621 271272,211812 -164530,-135159 -298734,-251214 -406670,-350553zm81191 197246c-184828,-171217 -330733,-368941 -440818,-590782l-478 -1194c-9552,-18388 -3343,-41312 14567,-52297 18865,-11462 43461,-5492 55162,13373 49192,80713 149248,193902 321659,353896 174321,161904 421714,370373 764387,639735 13850,10985 19342,30566 11940,47521 -8836,20059 -32477,29372 -52536,20536 -265302,-115338 -488816,-259810 -673883,-430788z"/>
    <polygon class="fil3" points="29992346,27509103 30634470,28076960 30581696,28136660 29939333,27569041 "/>
    <path class="fil2" d="M37622606 25165316c181008,1336305 131100,1948340 0,2304385 -410490,-107697 -830533,-159754 -1285679,0 153307,-566663 -173605,-1246039 -142084,-1619039 23641,-278675 79519,-488816 142084,-685346 350792,-44177 941335,185068 1285679,0z"/>
    <path class="fil3" d="M37662247 25160063c90742,670062 123457,1159117 117249,1525670 -6209,369895 -52297,616094 -119160,797819l-12656 33909 -34864 -9075c-202977,-53251 -407864,-92653 -617289,-99100 -208708,-6448 -422908,20059 -645466,98145l-71639 25074 19820 -73072c90981,-336225 6925,-719016 -65669,-1049271 -47759,-216588 -90504,-411446 -77609,-562843 11701,-140651 32238,-264825 57311,-378731 25074,-112951 54923,-215872 86683,-315450l7642 -24357 25312 -3105c141368,-17671 315450,6448 497652,31760 277720,38685 574544,79997 774178,-27461l50863 -27223 7642 57311zm37491 1524476c5970,-352702 -24835,-821460 -109369,-1460001 -217544,89071 -503144,49431 -771790,11940 -165725,-22925 -325002,-45133 -451564,-34387 -27939,89549 -54445,182440 -76892,283690 -24119,109846 -43700,230200 -55401,367985 -11940,139457 29850,328823 76176,539680 69490,316405 149487,680092 81430,1016079 207991,-64237 409058,-85967 605348,-79997 204410,6209 403327,42506 599379,92414 57789,-171217 96952,-401178 102683,-737403z"/>
    <polygon class="fil3" points="37562191,26706747 37194683,26606452 37215697,26529560 37583205,26629616 "/>
    <polygon class="fil3" points="37509417,27056584 36925082,26856233 36951111,26780535 37535446,26981124 "/>
    <path class="fil2" d="M37622606 27842462c181008,1336305 131100,1948340 0,2304385 -410490,-107697 -830533,-159754 -1285679,0 153307,-566663 -173605,-1246039 -142084,-1619039 23641,-278675 79519,-488816 142084,-685346 350792,-44177 941335,185068 1285679,0z"/>
    <path class="fil3" d="M37662247 27837209c90742,670063 123457,1159117 117249,1525670 -6209,369895 -52297,616095 -119160,797819l-12656 33909 -34864 -9075c-202977,-53251 -407864,-92653 -617289,-99100 -208708,-6448 -422908,20059 -645466,98145l-71639 25074 19820 -73072c90981,-336225 6925,-719016 -65669,-1049032 -47759,-216827 -90504,-411685 -77609,-563082 11701,-140651 32238,-264587 57311,-378731 25074,-112951 54923,-215872 86683,-315450l7642 -24119 25312 -3343c141368,-17671 315450,6448 497652,31760 277720,38685 574544,79997 774178,-27223l50863 -27461 7642 57311zm37491 1524476c5970,-352702 -24835,-821460 -109369,-1460001 -217544,89071 -503144,49431 -771790,11940 -165725,-22925 -325002,-45133 -451564,-34148 -27939,89310 -54445,182202 -76892,283451 -24119,109847 -43700,230200 -55401,368224 -11940,139218 29850,328584 76176,539441 69490,316405 149487,680092 81430,1016079 207991,-64237 409058,-85967 605348,-79997 204410,6209 403327,42506 599379,92414 57789,-171217 96952,-401178 102683,-737403z"/>
    <polygon class="fil3" points="37562191,29383893 37194683,29283599 37215697,29206706 37583205,29306762 "/>
    <polygon class="fil3" points="37509417,29733968 36925082,29533380 36951111,29457681 37535446,29658270 "/>
   </g>
   <g>
    <polygon class="fil2" points="9548273,3398072 20201934,3398072 20201934,995064 9548273,995064 "/>
    <path class="fil3" d="M9547079 3438190l10699987 0 0 -2483005 -10745120 0 0 2483005 45133 0zm10609722 -80235l-10564590 0 0 -2322773 10564590 0 0 2322773z"/>
   </g>
   <g>
    <polygon class="fil4" points="6990525,3438190 9433412,3438190 9433412,955185 6950407,955185 6950407,3438190 "/>
    <path class="fil3" d="M8232982 2660908l0 -86683 79997 68534 51819 -60654 -131816 -113189 0 -177665 115817 115816 32237 188888 78803 -13611 -13373 -77609 43939 43939 56595 -56595 -54685 -54684 106265 9551 7402 -79280 -201783 -18387 -116771 -116772 163814 0 156412 110802 46326 -65192 -64475 -45610 62087 0 0 -79758 -77370 0 82146 -68534 -51102 -61371 -155695 129905 -155218 0 113190 -113189 188887 -32238 -13611 -78803 -77609 13373 43939 -43938 -56595 -56595 -54684 54684 9551 -106264 -79280 -7164 -18387 201544 -116772 116533 0 -163815 110802 -156172 -65192 -46088 -45610 64236 0 -62087 -79996 0 0 77370 -68296 -81907 -61371 50863 129667 155696 0 159277 -125846 -125846 -9074 -171456 -79758 4060 4298 82862 -49192 -49192 -56595 56595 61371 61371 -104832 8119 5970 79758 173366 -13373 121786 121786 -177903 0 -127756 -115100 -53490 59461 61848 55639 -69729 0 0 79758 86922 0 -68773 79997 60893 51819 112951 -131816 181963 0 -128950 128711 -171217 9075 4059 79758 82862 -4299 -49192 49192 56595 56595 61371 -61370 8119 104831 79758 -5970 -13373 -173366 121548 -121547 0 177903 -114623 127517 59222 53491 55401 -61371 0 69251 79996 0zm-1242457 777282l2442887 0 0 -2483005 -2483005 0 0 2483005 40118 0zm2362651 -80235l-2322772 0 0 -2322773 2322772 0 0 2322773z"/>
   </g>
   <g>
    <g>
     <polygon class="fil2" points="25763740,21199625 25763740,33428148 23438341,33428148 23438341,21199625 "/>
     <path class="fil3" d="M25802425 21160701l0 12306132 -2402769 0 0 -12344817 2402769 0 0 38685zm-77370 12228523l0 -12189599 -2248029 0 0 12189599 2248029 0z"/>
    </g>
    <path class="fil3" d="M24253353 30658827c-10507,-15044 -17671,-31521 -21253,-48237 -3821,-17432 -4298,-35342 -1194,-52535 3105,-17194 9552,-33909 19104,-49192 9074,-14328 21492,-27462 36536,-37969 15044,-10268 31521,-17432 48237,-21014 17671,-4060 35580,-4298 52535,-1194 17193,2866 34148,9552 49192,19104 14328,9313 27461,21491 37968,36536 38447,54923 72833,109846 102683,164530 30088,54923 55878,109608 77370,164292 20775,53013 37730,106503 50864,160471 11223,47282 19581,94564 24596,141607l123219 0 0 7163 10507 5015c8357,4537 16238,10507 22685,17194 8597,9074 15522,19581 20059,31282 4298,11223 6686,23641 6448,36536l955 8596c716,3105 1910,6209 3582,9313 1671,3344 4059,6926 6686,10269l8597 8835 9313 6686 8835 4299 8836 2865 6925 717 5253 -478 5970 -2149 6448 -4298 6925 -6925 6686 -8597 5015 -8119 3582 -7403c7402,-23163 -1194,-30088 -20537,-43938l-12178 -6687 -14567 -5970 -16954 -5253c-12179,-3105 -23641,-8597 -33432,-16000 -10268,-7402 -18626,-16954 -25074,-27700 -6208,-10507 -10507,-22447 -12417,-34864 -1672,-11940 -1194,-24596 1910,-37014 3344,-12417 8836,-23879 16000,-33670 7641,-10029 17193,-18626 27700,-24835 10746,-6447 22686,-10746 35103,-12417 11940,-1911 24596,-1194 37014,1910 12417,3105 24596,6687 35819,10985 11701,4059 23163,9074 33670,14328 10746,5253 21253,11223 31044,17671 10029,6686 19581,13611 28417,21014 8119,6686 15760,14089 22685,21491 7164,7642 13851,15761 19343,23641 5970,8119 11223,16716 15999,25790 4776,9313 8836,18387 12179,27223 3343,9791 6209,20059 8119,30566 1910,10029 3343,20298 3821,31043 238,10507 0,21014 -1194,31283 -956,10507 -2866,21253 -5493,31521 -2388,9313 -5492,18626 -9074,27700 -3343,9075 -7641,18149 -12656,27462 -4776,8596 -10030,17432 -15999,26029 -5732,8357 -12179,16954 -19343,25312 -11701,13850 -23880,25790 -36536,35581 -13372,10507 -27461,19103 -41789,25790 -15283,7164 -30805,12417 -46565,15521 -16239,3582 -32954,5015 -49193,4538l-20775 -1194 -21014 -3582 -20298 -5015 -20058 -7164 -18149 -8119 -17671 -9791 -17432 -11462 -15761 -12179c-8835,-7641 -17432,-15760 -25312,-24357 -7880,-8835 -15044,-18148 -21731,-27700 -5492,-8119 -10507,-16477 -14805,-24596l-6209 -12895 -10507 0c-3820,48476 -10984,97190 -21969,145666 -11940,54684 -28655,108891 -49670,162859 -21969,56833 -49192,113428 -81190,169784 -31760,55878 -68774,111757 -110563,167157 -11223,14567 -24596,26507 -39401,35104 -15522,9074 -32477,15044 -49909,17432 -17432,2388 -35342,1432 -52774,-3105 -16716,-4298 -32954,-11940 -47520,-22924 -14328,-10985 -26268,-24596 -35103,-39402 -8836,-15283 -14806,-32476 -17194,-49908 -2388,-17432 -1433,-35342 3105,-52535 4298,-16716 11939,-32954 22924,-47521 36297,-48237 68057,-96712 95041,-144949 27223,-48237 49431,-96235 67102,-144233 17193,-47043 30088,-94325 38446,-141129 8358,-47520 12179,-94802 11701,-141367 -239,-46565 -5254,-93847 -14328,-141129 -9313,-47759 -22924,-95996 -40595,-144233 -17910,-48476 -40118,-97190 -66147,-145666 -26506,-48953 -56833,-98145 -91220,-147098zm47043 -88594c-1433,8358 -1433,16955 478,25313 1671,7880 5014,15760 10029,22924 36297,52058 68535,103877 96235,155218 27700,51580 50864,102682 69728,153546 19104,51819 33671,103638 43700,155456 9791,51103 15044,102444 15522,153546 478,51342 -3821,102922 -12895,154024 -9074,51103 -22925,102444 -41551,153546 -18865,51341 -42744,102683 -71400,154024 -28655,50863 -62087,101966 -100772,153307 -5253,6925 -8835,14567 -10984,22686 -2150,8119 -2627,16954 -1433,25312 1194,8358 4059,16477 8358,23880 4059,7164 9790,13611 16715,18865 7164,5253 14806,8835 22686,10984 8358,2149 16955,2627 25551,1433 8119,-1194 16477,-4059 23641,-8358 7164,-4059 13612,-9790 18865,-16716 40118,-53251 75460,-106503 105548,-159515 30566,-53491 56356,-106981 77131,-160472 20537,-53012 36536,-106025 47998,-159277 11463,-53490 18388,-107219 20776,-160710l1432 -33909 127040 0 7880 24596c2388,7880 5493,15283 9075,22447 3582,7164 7880,14567 12417,21492 4537,6686 10029,13372 15761,19820 5731,6447 12178,12417 18626,17910l11701 9313 12178 8119 13134 7164 12656 5731 14328 5014 14089 3582 14567 2388 14327 955c11224,239 22447,-955 33432,-3104 10507,-2149 21014,-5731 31043,-10507 9791,-4537 19582,-10507 28656,-17671 9313,-7403 18149,-15760 26029,-25312l15044 -19582c4537,-6686 8597,-13133 11940,-19820 3343,-5970 6447,-12656 9074,-19581 2627,-6447 4776,-13134 6448,-19342 1671,-7164 3104,-14567 3820,-21492 717,-7403 956,-14328 717,-21253 -239,-6686 -1194,-13611 -2388,-20298 -1433,-6925 -3343,-13850 -5731,-20536 -2150,-6209 -5015,-12418 -7881,-18149 -3104,-5970 -6686,-11701 -10984,-17432 -4060,-5970 -8836,-11701 -13850,-16954 -5015,-5493 -10508,-10746 -16239,-15522 -6447,-5492 -13611,-10746 -21014,-15522 -7641,-5015 -15760,-9552 -24118,-13611 -8597,-4299 -17671,-8119 -26745,-11463 -9313,-3343 -18865,-6447 -28656,-8835 -3343,-955 -6686,-955 -10029,-478 -3105,239 -6448,1433 -9075,3105 -2865,1671 -5253,3820 -7163,6447 -1911,2388 -3344,5493 -4060,8597 -955,3343 -1194,6925 -716,10029 477,3105 1671,6209 3343,9075 1671,2626 3820,5253 6447,7164 2627,1910 5493,3343 8597,4059l23402 7164c7164,2388 14328,5492 21014,8597 6925,3343 13373,6925 19581,10745 5970,3582 11940,8120 17194,12418l10984 10268 9313 11224 7881 12656 5970 13372 3581 13134 1672 13850 -716 13851 -2388 13372 -5015 15522 -7164 15044 -8835 14328 -10985 14089c-5254,6209 -10985,11701 -16477,16477 -6209,4776 -12656,9074 -19342,12178 -7164,3582 -14567,6209 -21492,7881 -7880,1671 -15522,2388 -22925,2388l-10029 -717 -10268 -1671 -9552 -2627 -10030 -3343 -9551 -4537c-8836,-4776 -19582,-10746 -26984,-17671 -6926,-5731 -13612,-12418 -19104,-19343 -5492,-6925 -10507,-14566 -14567,-22447 -4059,-8119 -7164,-16477 -9313,-25073 -1671,-8358 -2865,-17194 -2627,-25790 0,-3343 -716,-6687 -1910,-9552 -1194,-3105 -2865,-5970 -5015,-8119 -2149,-2388 -5014,-4299 -7880,-5493 -2865,-1432 -6209,-2149 -9313,-2149 -30805,-955 -61848,-716 -92653,-477l-60893 238 -2388 -32715c-4060,-52296 -12179,-104592 -24357,-156650 -12179,-52535 -28656,-105070 -49431,-157367 -20537,-52535 -45133,-104831 -73549,-156650 -29133,-53013 -61849,-105548 -98384,-157845 -5254,-7164 -11463,-12895 -18149,-17193 -7403,-4537 -15283,-7880 -23402,-9074 -8597,-1672 -17193,-1433 -25551,477 -8119,1672 -16000,5015 -22925,10030 -7164,5015 -13133,11223 -17432,17910 -4537,7402 -7641,15521 -9074,23640z"/>
   </g>
   <g>
    <polygon class="fil2" points="11190953,32733967 7306214,32733967 7306214,24724259 11190953,24724259 "/>
    <path class="fil3" d="M11190953 32773846l-3924857 0 0 -8089704 3964736 0 0 8089704 -39879 0zm-3844860 -79997l3804742 0 0 -7929711 -3804742 0 0 7929711z"/>
    <polygon class="fil2" points="10838967,32733967 7685422,32733967 7685422,25076007 10838967,25076007 "/>
    <path class="fil3" d="M10838967 32773846l-3193663 0 0 -7737957 3233781 0 0 7737957 -40118 0zm-3113427 -79997l3073309 0 0 -7577725 -3073309 0 0 7577725z"/>
    <path class="fil2" d="M7685422 29647285l0 -4571278 3153545 0 0 5752604 -2046962 66385c-85967,-403804 -336703,-297301 -728090,-822653 -296347,-397835 48236,-330733 -378493,-425058z"/>
    <path class="fil3" d="M7645304 29647285l0 -4611396 3233781 0 0 5831168 -2119079 68774 -7164 -32716c-43461,-203932 -133487,-269123 -265780,-364880 -120115,-86683 -272706,-197007 -455146,-442012 -139696,-187694 -144472,-280347 -147338,-332644 -1432,-30327 -1671,-31760 -207752,-77370l-31522 -6925 0 -31999zm80236 -4531161l0 4499163c234021,52296 234498,59699 238796,144233 2388,43461 6448,120831 131577,289182 175277,235215 322137,341240 437714,424819 140173,101488 237841,171933 290138,380402l1975084 -63997 0 -5673802 -3073309 0z"/>
    <path class="fil3" d="M8752842 30902399c-20536,-109846 14089,-191276 56595,-291570 73549,-172650 173127,-407148 11223,-966648 -48237,-166202 -43700,-294675 -40595,-381119 1671,-51580 2865,-83101 -239,-84534 -26029,-11940 -133965,37252 -410969,163814l-102921 46805c-169784,77370 -312584,76414 -418371,75698 -65669,-478 -114861,-716 -135398,17671l-53490 -59222c43461,-39401 105787,-38923 189127,-38207 98384,716 231393,1433 385178,-68535l102922 -46804c300644,-137308 417893,-191037 477115,-163814 51341,23641 49669,75221 46804,159755 -2866,81429 -7164,202260 37491,356284 169784,586961 63758,836504 -14328,1020377 -37252,87638 -67818,159277 -51580,245244l-78564 14805z"/>
    <path class="fil2" d="M10433968 28470258c-436758,216350 -777043,573111 -1004377,1095598 539919,-686779 837220,-993154 1004377,-1095598z"/>
    <path class="fil3" d="M10021090 28794782c-47999,42506 -94325,87639 -138502,135398 -76176,82146 -146860,172650 -211813,271273 135159,-164531 250975,-298735 350315,-406671zm-197007 81430c171217,-185067 368940,-330972 590782,-441057l955 -478c18626,-9551 41551,-3343 52296,14806 11463,18626 5493,43461 -13133,54923 -80714,49431 -194142,149248 -354135,321659 -161666,174321 -370374,421714 -639736,764387 -10985,13850 -30327,19342 -47282,11940 -20297,-8836 -29610,-32477 -20775,-52536 115339,-265302 259811,-488816 431028,-673644z"/>
    <polygon class="fil3" points="9916974,30829566 10383105,30349347 10440416,30405225 9974285,30885206 "/>
    <polygon class="fil3" points="10257976,25102513 9690118,25744636 9630419,25691862 10198276,25049500 "/>
    <polygon class="fil2" points="11190953,32733967 7268245,32733967 7268245,33424805 11190953,33424805 "/>
    <path class="fil3" d="M11150835 32773846l-3842711 0 0 610841 3842711 0 0 -610841zm-3882590 -79997l3962587 0 0 770835 -4002705 0 0 -770835 40118 0z"/>
    <path class="fil2" d="M10403880 32915452c-1336304,181008 -1948339,131100 -2304385,0 107697,-410490 159755,-830533 0,-1285679 566664,153307 1246040,-173844 1619040,-142084 278675,23402 488816,79519 685345,142084 44177,350792 -185067,941335 0,1285679z"/>
    <path class="fil3" d="M10409134 32955093c-670063,90742 -1159357,123457 -1525670,117249 -369896,-6209 -616334,-52297 -797819,-119160l-34148 -12656 9313 -35103c53013,-202738 92653,-407625 99101,-617050 6208,-208708 -20059,-422908 -98146,-645466l-25073 -71639 73071 19820c336226,90981 719016,6925 1049033,-65669 216827,-47759 411685,-90504 563082,-77609 140651,11701 264586,31999 378731,57311 112950,25074 215872,54923 315211,86683l24357 7642 3343 25312c17671,141368 -6447,315450 -31760,497652 -38685,277720 -79996,574544 27223,774178l27462 50863 -57311 7642zm-1524476 37491c352702,5970 821459,-24835 1459762,-109369 -88832,-217544 -49192,-503144 -11940,-771790 23163,-165725 45133,-325002 34387,-451564 -89310,-27939 -182202,-54445 -283452,-76892 -109846,-24119 -230199,-43700 -368224,-55401 -139457,-11940 -328822,29850 -539441,76176 -316405,69490 -680092,149487 -1016078,81191 64236,208230 85967,409297 79997,605587 -6209,204410 -42745,403327 -92415,599379 170979,57789 400940,96952 737404,102683z"/>
    <polygon class="fil3" points="8862450,32855037 8962744,32487529 9039636,32508543 8939342,32875812 "/>
    <polygon class="fil3" points="8512374,32802263 8712724,32217928 8788423,32243957 8588073,32828292 "/>
   </g>
   <g>
    <polygon class="fil2" points="22417725,32648239 18532986,32648239 18532986,24638293 22417725,24638293 "/>
    <path class="fil3" d="M22417725 32688118l-3924618 0 0 -8089704 3964736 0 0 8089704 -40118 0zm-3844621 -79996l3804504 0 0 -7929711 -3804504 0 0 7929711z"/>
    <polygon class="fil2" points="22065978,32648239 18912195,32648239 18912195,24990279 22065978,24990279 "/>
    <path class="fil3" d="M22065978 32688118l-3193662 0 0 -7737957 3233541 0 0 7737957 -39879 0zm-3113666 -79996l3073549 0 0 -7577726 -3073549 0 0 7577726z"/>
    <path class="fil2" d="M18912195 29561557l0 -4571278 3153783 0 0 5752604 -2046962 66386c-85967,-403805 -336942,-297302 -728329,-822654 -296346,-397835 48476,-330733 -378492,-425058z"/>
    <path class="fil3" d="M18872316 29561557l0 -4611396 3233541 0 0 5831168 -2119079 68774 -6925 -32715c-43461,-203933 -133726,-269124 -266019,-364881 -120114,-86683 -272467,-197007 -455146,-442012 -139696,-187694 -144472,-280347 -147098,-332644 -1672,-30327 -1672,-31760 -207992,-77370l-31282 -6925 0 -31999zm79996 -4531161l0 4499163c234260,52296 234737,59699 239036,144233 2149,43461 6208,120831 131576,289182 175277,235215 321898,341240 437475,424819 140413,101488 238080,171933 290138,380403l1975324 -63998 0 -5673802 -3073549 0z"/>
    <path class="fil3" d="M19979614 30816432c-20536,-109846 14089,-191275 56595,-291331 73549,-172650 173128,-407148 11462,-966648 -48236,-166202 -43938,-294675 -40834,-381119 1672,-51580 2866,-83101 -239,-84534 -25790,-11940 -133964,37252 -410729,163815l-102922 46804c-169784,77370 -312823,76414 -418610,75698 -65669,-478 -114622,-955 -135397,17671l-53490 -59460c43460,-39163 105786,-38685 189365,-37969 98384,478 231155,1433 384940,-68534l102921 -46805c300883,-137307 418132,-191037 477115,-163814 51341,23641 49670,75221 46804,159755 -2865,81429 -6925,202260 37730,356284 169784,586962 63759,836504 -14567,1020377 -37252,87638 -67579,159277 -51580,245244l-78564 14566z"/>
    <path class="fil2" d="M21660980 28384530c-436759,216350 -777282,573111 -1004378,1095598 539919,-686778 837220,-993154 1004378,-1095598z"/>
    <path class="fil3" d="M21247862 28709054c-47998,42506 -94086,87639 -138502,135398 -75937,82146 -146621,172650 -211812,271273 135158,-164531 251213,-298735 350314,-406671zm-197007 81430c171217,-185067 368940,-330972 590782,-441057l1194 -477c18387,-9552 41312,-3344 52297,14805 11462,18626 5492,43461 -13373,54923 -80713,49192 -193903,149248 -353896,321659 -161904,174321 -370373,421714 -639736,764387 -10984,13850 -30566,19342 -47520,11940 -20059,-8836 -29372,-32477 -20537,-52535 115100,-265303 259811,-488817 430789,-673645z"/>
    <polygon class="fil3" points="21143986,30743838 21609877,30263619 21667188,30319497 21201297,30799478 "/>
    <polygon class="fil3" points="21484748,25016785 20917129,25658908 20857191,25606134 21425049,24963772 "/>
    <polygon class="fil2" points="22417725,32648239 18495017,32648239 18495017,33339077 22417725,33339077 "/>
    <path class="fil3" d="M22377608 32688118l-3842473 0 0 610841 3842473 0 0 -610841zm-3882591 -79996l3962826 0 0 770834 -4002943 0 0 -770834 40117 0z"/>
    <path class="fil2" d="M21630653 32829725c-1336305,181007 -1948101,131099 -2304385,0 107697,-410491 159993,-830534 0,-1285680 566663,153307 1246278,-173844 1619039,-142084 278675,23402 488816,79519 685346,142084 44416,350792 -185068,941335 0,1285680z"/>
    <path class="fil3" d="M21636145 32869365c-670302,90742 -1159357,123457 -1525909,117249 -369895,-6209 -616095,-52297 -797819,-119160l-33909 -12656 9075 -35103c53251,-202738 92653,-407625 99100,-617288 6448,-208470 -19820,-422670 -98145,-645228l-25074 -71639 73072 19820c336225,90981 719016,6925 1049271,-65669 216588,-47759 411446,-90504 562843,-77609 140651,11701 264825,31999 378731,57311 112951,25074 215872,54923 315450,86683l24357 7642 3105 25312c17909,141129 -6448,315450 -31760,497652 -38685,277720 -79997,574544 27461,774178l27223 50624 -57072 7881zm-1524476 37491c352463,5970 821221,-24835 1459762,-109369 -89071,-217543 -49431,-503144 -11940,-771790 22925,-165724 45133,-325002 34387,-451564 -89549,-27939 -182441,-54445 -283690,-76892 -109847,-24119 -230200,-43700 -367985,-55401 -139457,-11940 -328823,29850 -539680,76176 -316405,69490 -680092,149487 -1016079,81191 64237,208230 85967,409297 79997,605349 -6209,204648 -42506,403566 -92414,599617 171217,57789 401178,96952 737642,102683z"/>
    <polygon class="fil3" points="20089222,32769309 20189516,32401801 20266409,32422816 20166353,32790084 "/>
    <polygon class="fil3" points="19739385,32716535 19939735,32132200 20015434,32157990 19815084,32742564 "/>
   </g>
   <g>
    <polygon class="fil2" points="12614896,30941323 17020211,30941323 17020211,33344092 12614896,33344092 "/>
    <path class="fil3" d="M12655013 30901205l4405316 0 0 2483005 -4445433 0 0 -2483005 40117 0zm4325080 79997l-4285201 0 0 2322772 4285201 0 0 -2322772z"/>
    <path class="fil2" d="M15761515 30941323c-17432,-506487 -433415,-911486 -943962,-911486 -510546,0 -926530,404999 -943962,911486l1887924 0z"/>
    <path class="fil3" d="M15719248 30901205c-18148,-226140 -119398,-429117 -273421,-577648 -162621,-157128 -384224,-253841 -628274,-253841 -244049,0 -465653,96713 -628273,253841 -154024,148531 -255273,351508 -273422,577648l1803390 0zm-218021 -635198c177665,171456 291093,409536 300167,673883l1433 41312 -1970547 0 1432 -41312c9075,-264347 122503,-502427 300167,-673883 177187,-170978 418133,-276288 683674,-276288 265542,0 506487,105310 683674,276288z"/>
    <path class="fil2" d="M16123531 30325228c-262915,-447504 -749343,-747910 -1305978,-747910 -556634,0 -1043062,300406 -1306216,747910l319271 0c216827,-312345 577887,-516755 986945,-516755 409059,0 770119,204410 986946,516755l319032 0z"/>
    <path class="fil3" d="M16051892 30285110c-127517,-194857 -300167,-357716 -503144,-474010 -215394,-123219 -464937,-193903 -731195,-193903 -266258,0 -516039,70684 -731433,193903 -202738,116294 -375388,279153 -502905,474010l226857 0c112473,-156411 260765,-285600 432937,-375626 171934,-90026 367269,-141129 574544,-141129 207037,0 402611,51103 574544,141129 172173,90026 320226,219215 432938,375626l226857 0zm-463265 -543261c235214,134681 431982,329300 569290,563082l35342 60415 -409774 0 -11940 -17193c-106742,-154024 -249781,-280825 -416461,-367985 -160471,-84057 -343389,-131577 -537531,-131577 -194380,0 -377059,47520 -537530,131577 -166680,87160 -309719,213961 -416461,367985l-11940 17193 -410013 0 35342 -60415c137546,-233782 334314,-428401 569529,-563082 227334,-130144 490488,-204649 771073,-204649 280586,0 543740,74505 771074,204649z"/>
    <path class="fil2" d="M14937429 29814443l0 222797c-39401,-4776 -79280,-7403 -119876,-7403 -40595,0 -80474,2627 -119875,7403l0 -222797c39401,-3821 79519,-5970 119875,-5970 40357,0 80475,2149 119876,5970z"/>
    <path class="fil3" d="M14977308 29814443l0 268168 -44894 -5492c-19581,-2627 -38685,-4537 -57549,-5492 -17910,-1194 -37253,-1911 -57312,-1911 -20059,0 -39401,717 -57311,1911 -18865,955 -37968,2865 -57550,5492l-44893 5492 0 -304226 36058 -3821c20536,-1911 41312,-3582 62087,-4537 21730,-955 42506,-1672 61609,-1672 19104,0 39879,717 61610,1672 20775,955 41550,2626 62087,4537l36058 3821 0 36058zm-79997 178620l0 -141846 -21969 -1432c-17432,-717 -36775,-1194 -57789,-1194 -21014,0 -40356,477 -58027,1194l-21731 1432 0 141846 17194 -1433c21491,-1194 42505,-1911 62564,-1911 20059,0 41073,717 62565,1911l17193 1433z"/>
   </g>
   <g>
    <g>
     <polygon class="fil2" points="7135474,21135628 15948015,21135628 15948015,23461027 7135474,23461027 "/>
     <path class="fil3" d="M7174159 21096943l8773856 0 0 2403008 -8812541 0 0 -2403008 38685 0zm8696248 77608l-8657324 0 0 2247791 8657324 0 0 -2247791z"/>
    </g>
    <path class="fil3" d="M10822251 22646253c-15044,10269 -31521,17433 -48236,21015 -17433,4059 -35342,4298 -52536,1194 -17193,-2866 -34148,-9314 -49192,-19104 -14328,-9074 -27461,-21492 -37968,-36536 -10507,-14805 -17433,-31282 -21253,-48237 -3821,-17432 -4060,-35581 -955,-52535 2865,-17193 9551,-33909 19103,-48953 9313,-14567 21492,-27462 36536,-37969 54923,-38685 109846,-73072 164531,-102921 54923,-30089 109607,-55879 164292,-77370 53013,-20775 106503,-37730 160471,-50625 47282,-11462 94563,-19820 141606,-24835l0 -123219 7164 0 4776 -10507c4776,-8358 10746,-15999 17432,-22685 8836,-8597 19581,-15522 31282,-19821 11224,-4537 23641,-6925 36536,-6686l8597 -955c2865,-716 6209,-1910 9313,-3582 3343,-1672 6925,-4060 10029,-6686l9075 -8597 6686 -9313 4298 -8597 2866 -8835 716 -7164 -477 -5254 -2150 -5731 -4298 -6686 -6925 -6925 -8597 -6448 -8119 -5253 -7402 -3343c-23164,-7642 -30089,955 -43939,20297l-6686 12179 -6209 14805 -5015 16716c-3104,12418 -8596,23641 -15999,33432 -7403,10268 -16955,18865 -27700,25073 -10507,6209 -22447,10746 -34865,12418 -11939,1671 -24596,1194 -37013,-1911 -12417,-3104 -23880,-8835 -33670,-15999 -10269,-7642 -18626,-17193 -25074,-27700 -6209,-10746 -10507,-22686 -12417,-35103 -1672,-11940 -1194,-24596 1910,-37014 3343,-12417 6925,-24357 11223,-35819 4060,-11701 9075,-22925 14328,-33671 5254,-10745 11224,-21253 17671,-31043 6448,-10030 13612,-19581 20775,-28178 6926,-8119 14328,-15761 21731,-22925 7641,-7163 15760,-13611 23641,-19342 8119,-5731 16715,-11224 25790,-15999 9313,-4776 18387,-8836 27223,-11940 9790,-3582 20058,-6209 30565,-8358 10030,-1911 20298,-3105 31044,-3582 10268,-478 20775,-239 31282,955 10507,1194 21014,3104 31521,5731 9313,2149 18627,5254 27701,8836 9074,3582 18148,7880 27461,12656 8597,4776 17433,10268 26029,15999 8358,5731 16955,12179 25313,19343 13850,11701 25790,24118 35580,36536 10269,13372 19104,27461 25790,42028 7164,15044 12179,30804 15522,46326 3343,16238 4776,32954 4537,49192l-1433 21014 -3343 20776 -5014 20536 -7164 20059 -8119 17910 -9791 17909 -11462 17194 -12418 15760c-7402,8836 -15522,17433 -24357,25313 -8597,7880 -17910,15283 -27462,21730 -8357,5493 -16477,10507 -24596,14806l-12895 6447 0 10507c48476,3582 97191,10985 145666,21731 54685,12178 108891,28655 162859,49669 56834,21970 113429,49192 169785,81191 55878,31999 111756,68773 167157,110802 14567,10984 26506,24596 35103,39401 9074,15283 15044,32476 17432,49908 2388,17194 1433,35103 -3104,52536 -4298,16715 -11940,32954 -22925,47520 -10984,14567 -24596,26268 -39401,35103 -15283,9074 -32476,15044 -49908,17432 -17433,2388 -35342,1194 -52774,-3104 -16477,-4298 -32954,-12179 -47282,-22925 -48476,-36535 -96713,-68295 -144950,-95279 -48236,-26984 -96473,-49431 -144233,-66863 -47281,-17432 -94324,-30089 -141128,-38446 -47521,-8597 -94802,-12418 -141368,-11940 -46804,477 -93847,5253 -141128,14566 -47760,9075 -95996,22686 -144233,40596 -48715,17909 -97190,39879 -145666,66146 -48953,26268 -98145,56834 -147099,91220zm-88832 -47042c8358,1432 17193,1194 25551,-717 7881,-1671 15761,-5015 22925,-10029 52057,-36297 103876,-68535 155217,-95996 51580,-27701 102683,-51103 153546,-69729 51819,-19104 103638,-33909 155457,-43700 51102,-9790 102444,-15044 153546,-15760 51341,-478 102921,3821 154024,12895 51102,9074 102443,22924 153546,41789 51102,18626 102682,42506 154023,71400 50864,28417 101966,61849 153069,100534 7164,5253 14805,9074 22924,10984 8119,2149 16955,2627 25313,1433 8119,-955 16477,-3821 23879,-8119 6925,-4298 13612,-10030 18865,-16955 5254,-6925 8836,-14805 10985,-22685 2149,-8358 2627,-16955 1433,-25313 -1194,-8358 -4060,-16477 -8358,-23879 -4060,-7164 -9791,-13612 -16716,-18865 -53252,-40118 -106503,-75221 -159516,-105548 -53490,-30566 -107220,-56117 -160471,-76893 -53013,-20536 -106264,-36774 -159277,-47998 -53729,-11701 -107220,-18626 -160710,-21014l-33909 -1433 0 -126800 24596 -8120c7880,-2388 15283,-5492 22447,-8835 7163,-3582 14327,-7880 21491,-12656 6687,-4537 13373,-9791 19820,-15761 6448,-5731 12418,-12178 17910,-18626l9313 -11701 8119 -12179 7164 -13133 5731 -12657 5015 -14327 3582 -14089 2149 -14328 1194 -14328c0,-11223 -955,-22686 -3104,-33670 -2149,-10507 -5731,-21014 -10507,-31044 -4537,-9790 -10507,-19342 -17671,-28655 -7403,-9313 -15761,-17910 -25313,-26029l-19581 -14805c-6686,-4538 -13134,-8836 -19820,-12179 -5970,-3343 -12656,-6448 -19581,-9074 -6448,-2627 -13134,-4776 -19343,-6209 -7403,-1910 -14566,-3343 -21492,-4060 -7402,-716 -14566,-955 -21252,-716 -6687,239 -13612,1194 -20537,2627 -6686,1194 -13611,3104 -20298,5492 -6208,2149 -12417,5015 -18387,8119 -5731,2866 -11462,6686 -17193,10746 -5970,4298 -11701,8835 -16955,13850 -5492,5015 -10746,10507 -15522,16238 -5492,6448 -10745,13612 -15521,21014 -5015,7881 -9552,16000 -13851,24358 -4059,8596 -8119,17432 -11223,26506 -3343,9313 -6447,18865 -8835,28894 -956,3344 -956,6687 -717,9791 478,3343 1672,6448 3343,9074 1672,2866 3821,5254 6448,7164 2388,1911 5492,3343 8596,4299 3344,716 6687,955 9791,477 3343,-477 6448,-1671 9313,-3104 2627,-1672 5015,-4060 7164,-6686 1910,-2388 3343,-5493 4060,-8597l7164 -23163c2387,-7403 5253,-14328 8596,-21253 3105,-6687 6925,-13373 10746,-19343 3582,-6208 8119,-11940 12417,-17432l10269 -10985 11223 -9313 12656 -7880 13134 -5970 13373 -3582 13850 -1433 13850 478 13373 2388 15521 5254 15045 7163 14327 8836 14089 10746c6209,5492 11701,10984 16239,16715 5014,5970 9313,12657 12417,19104 3582,7164 6209,14567 7880,21731 1672,7641 2388,15283 2388,22685l-716 10030 -1672 10268 -2627 9791 -3581 9790 -4299 9791c-4776,8597 -10984,19581 -17671,26984 -5731,6925 -12417,13373 -19342,18865 -6925,5731 -14567,10746 -22447,14566 -8119,4060 -16477,7403 -25074,9314 -8358,1910 -17193,2865 -25790,2865 -3343,0 -6686,478 -9552,1672 -3104,1194 -5970,3104 -8119,5253 -2388,2149 -4298,4776 -5731,7880 -1194,2866 -1910,5970 -1910,9075 -955,30804 -717,61848 -478,92653l239 61132 -32715 2388c-52296,3820 -104593,11939 -156650,24118 -52536,12179 -105071,28894 -157606,49431 -52296,20536 -104593,45132 -156412,73549 -53012,29133 -105786,62087 -157844,98623 -7164,5015 -12895,11223 -17432,18149 -4299,7163 -7642,15282 -9074,23402 -1433,8357 -1194,16954 477,25551 1910,7880 5254,15760 10268,22924 5015,7164 10985,12895 17910,17432 7403,4537 15283,7642 23402,9075z"/>
   </g>
   <g>
    <g>
     <path class="fil2" d="M14628904 19938303l-1901058 0c-177903,0 -323330,-145427 -323330,-323569l0 -1565311c0,-178142 145427,-323569 323330,-323569l1901058 0c178381,0 323808,145427 323808,323569l0 1565311c0,178142 -145427,323569 -323808,323569z"/>
     <path class="fil3" d="M14579712 19975316l-1802435 0c-114383,0 -218260,-40595 -293481,-106025 -75220,-65192 -121786,-155457 -121786,-254557l0 -1565072c0,-98861 46566,-189127 121786,-254557 75221,-65430 179098,-106025 293481,-106025l1802435 0c114145,0 218021,40595 293242,106025 75221,65430 122025,155696 122025,254557l0 1565072c0,99100 -46804,189365 -121786,254557 -75221,65430 -179097,106025 -293481,106025zm-1802435 -73788l1802435 0c90743,0 173366,-32237 233304,-84295 59938,-52058 97190,-123697 97190,-202499l0 -1565072c0,-78803 -37252,-150441 -97190,-202499 -59938,-52058 -142561,-84295 -233304,-84295l-1802435 0c-90742,0 -173366,32237 -233304,84295 -59938,52058 -97190,123696 -97190,202499l0 1565072c0,78802 37252,150441 97190,202499 59938,52058 142562,84295 233304,84295z"/>
     <path class="fil2" d="M10179889 19938303l1901058 0c178142,0 323330,-145427 323330,-323569l0 -1565311c0,-178142 -145188,-323569 -323330,-323569l-1901058 0c-178381,0 -323569,145427 -323569,323569l0 1565311c0,178142 145188,323569 323569,323569z"/>
     <path class="fil3" d="M10229081 19901528l1802435 0c90743,0 173605,-32237 233304,-84295 59938,-52058 97190,-123697 97190,-202499l0 -1565072c0,-78803 -37252,-150441 -97190,-202499 -59699,-52058 -142561,-84295 -233304,-84295l-1802435 0c-90742,0 -173366,32237 -233304,84295 -59938,52058 -97190,123696 -97190,202499l0 1565072c0,78802 37252,150441 97190,202499 59938,52058 142562,84295 233304,84295zm1802435 73788l-1802435 0c-114144,0 -218021,-40595 -293242,-106025 -75221,-65192 -122025,-155457 -122025,-254557l0 -1565072c0,-98861 46804,-189127 122025,-254557 75221,-65430 179098,-106025 293242,-106025l1802435 0c114145,0 218021,40595 293242,106025 75460,65430 122025,155696 122025,254557l0 1565072c0,99100 -46565,189365 -121786,254557 -75221,65430 -179097,106025 -293481,106025z"/>
     <path class="fil2" d="M9532751 19938303l-1901058 0c-178142,0 -323569,-145427 -323569,-323569l0 -1565311c0,-178142 145427,-323569 323569,-323569l1901058 0c178142,0 323569,145427 323569,323569l0 1565311c0,178142 -145427,323569 -323569,323569z"/>
     <path class="fil3" d="M9483320 19975316l-1802435 0c-114145,0 -218021,-40595 -293242,-106025 -75221,-65192 -122025,-155457 -122025,-254557l0 -1565072c0,-98861 46804,-189127 122025,-254557 75221,-65430 179097,-106025 293242,-106025l1802435 0c114145,0 218021,40595 293242,106025 75460,65430 122025,155696 122025,254557l0 1565072c0,99100 -46565,189365 -121786,254557 -75221,65430 -179097,106025 -293481,106025zm-1802435 -73788l1802435 0c90743,0 173605,-32237 233304,-84295 59938,-52058 97190,-123697 97190,-202499l0 -1565072c0,-78803 -37252,-150441 -96951,-202499 -59938,-52058 -142561,-84295 -233543,-84295l-1802435 0c-90742,0 -173366,32237 -233304,84295 -59938,52058 -96951,123696 -96951,202499l0 1565072c0,78802 37252,150441 96951,202499 59938,52058 142562,84295 233304,84295z"/>
     <path class="fil2" d="M14952473 19938303l-2460796 0c-47998,0 -87161,34148 -87161,75698l0 366075c0,41551 39163,75460 87161,75460l2925733 0c47998,0 87161,-33909 87161,-75460l0 -366075c0,-27939 -17910,-52535 -44178,-65669l0 -2157764c0,-35580 -33431,-64475 -74265,-64475l-359150 0c-41073,0 -74505,28895 -74505,64475l0 2147735z"/>
     <path class="fil3" d="M14952473 19975316l-2460796 0c-12418,0 -23641,4298 -31521,11462 -8358,6925 -13373,16477 -13373,27223l0 366075c0,10507 5015,20298 13134,27223 8119,7164 19342,11462 31760,11462l2925733 0c12417,0 23402,-4298 31521,-11223 8119,-7164 13134,-16955 13134,-27462l0 -366075c0,-6925 -2149,-13611 -5970,-19342 -4060,-5970 -9791,-10985 -16716,-14328l-21492 -10746 0 -2179017c0,-7641 -3581,-14566 -9313,-19581 -5731,-5015 -13850,-8119 -22446,-8119l-359150 0c-8836,0 -16716,3104 -22447,8119 -5731,5015 -9552,11940 -9552,19581l0 2184748 -42506 0zm-2460796 -73788l2418529 0 0 -2110960c0,-27939 13134,-53251 34148,-71639 21253,-18387 50386,-29849 82624,-29849l359150 0c32237,0 61370,11462 82384,29849 21253,18388 34387,43700 34387,71639l0 2139138c10507,7880 19342,17432 26506,27939 11224,16477 17671,36058 17671,56356l0 366075c0,30805 -14566,58983 -37968,79280 -23641,20537 -56117,33193 -91698,33193l-2925733 0c-35820,0 -68296,-12656 -91698,-32954 -23402,-20536 -37969,-48714 -37969,-79519l0 -366075c0,-30805 14567,-58983 37969,-79280 23402,-20537 55878,-33193 91698,-33193z"/>
     <path class="fil2" d="M9931780 19938303l2397276 0c41551,0 75221,33909 75221,75459l0 366314c0,41551 -33670,75460 -75221,75460l-2397276 0c-41551,0 -75460,-33909 -75460,-75460l0 -366314c0,-41550 33909,-75459 75460,-75459z"/>
     <path class="fil3" d="M9943481 19901528l2373874 0c35581,0 68057,12656 91459,32954 23402,20536 37969,48714 37969,79519l0 366075c0,30805 -14567,58983 -37969,79280 -23402,20537 -55878,33193 -91459,33193l-2373874 0c-35581,0 -68057,-12656 -91459,-32954 -23641,-20536 -38208,-48714 -38208,-79519l0 -366075c0,-30805 14567,-58983 37969,-79280 23641,-20537 56117,-33193 91698,-33193zm2373874 73788l-2373874 0c-12418,0 -23641,4298 -31760,11224 -8119,7163 -13134,16715 -13134,27461l0 366075c0,10507 5015,20298 13134,27223 8119,7164 19342,11462 31760,11462l2373874 0c12179,0 23402,-4298 31522,-11462 8119,-6925 13133,-16716 13133,-27223l0 -366075c0,-10507 -5253,-20298 -13133,-27223 -8120,-7164 -19343,-11462 -31522,-11462z"/>
     <path class="fil2" d="M15205359 19835859c-286556,248109 -629468,355807 -1000557,393536 -21253,-371089 -330255,-413117 -330972,-634243 351747,-33909 691077,-132532 1000557,-393536 294436,138979 375388,362015 330972,634243z"/>
     <path class="fil3" d="M15235208 19861888c-147337,127756 -309241,219215 -481652,283451 -171933,64236 -354613,101489 -543978,120592l-44655 4537 -2388 -39401c-11223,-194141 -107458,-293719 -190560,-379686 -74743,-77370 -139934,-144950 -140412,-256229l0 -32954 37730 -3582c172172,-16715 341001,-48953 504338,-108891 162620,-59699 320703,-147337 471384,-274377l22208 -18865 27462 12895c156411,73788 256228,170501 311390,285123 54446,113667 64475,244050 41312,386373l-2149 12178 -10030 8836zm-515322 215872c159277,-59461 309002,-143278 445355,-259333 18626,-124891 9313,-238080 -37491,-335509 -44655,-92892 -124174,-172650 -246916,-235931 -151635,123697 -310674,210380 -474488,270556 -158800,58267 -321659,91698 -487145,109847 12418,67818 62088,119159 117727,176709 85967,88832 184590,190798 206798,383985 165724,-19582 325479,-54207 476160,-110324z"/>
    </g>
    <g>
     <path class="fil2" d="M7630977 17188324l0 -1806017c0,-178142 145427,-323569 323569,-323569l1565310 0c178142,0 323569,145427 323569,323569l0 1806017c0,178142 -145427,323569 -323569,323569l-1565310 0c-178142,0 -323569,-145427 -323569,-323569z"/>
     <path class="fil3" d="M7594202 17152743l0 -1735094c0,-110085 40595,-210141 105787,-282496 65430,-72356 155456,-117488 254796,-117488l1564832 0c99101,0 189366,45132 254557,117488 65430,72355 106026,172411 106026,282496l0 1735094c0,109846 -40596,209902 -105787,282257 -65430,72594 -155695,117727 -254796,117727l-1564832 0c-99340,0 -189366,-45133 -254796,-117488 -65192,-72355 -105787,-172411 -105787,-282496zm73788 -1735094l0 1735094c0,87400 32238,167158 84295,224707 51819,57550 123697,93370 202500,93370l1564832 0c78803,0 150681,-35581 202738,-93370 51819,-57549 84295,-137307 84295,-224707l0 -1735094c0,-87639 -32476,-167158 -84295,-224708 -52057,-57788 -123935,-93608 -202738,-93608l-1564832 0c-78803,0 -150681,36058 -202500,93608 -52057,57550 -84295,137069 -84295,224708z"/>
     <path class="fil2" d="M7630977 17427836l0 -2369337 2149883 0c34387,0 62565,-31282 62565,-69251l0 -335748c0,-38207 -28178,-69489 -62565,-69489l-2163972 0c-13850,-21015 -36297,-35104 -61610,-35104l-365836 0c-41550,0 -75698,37969 -75698,84057l0 2794872c0,46327 34148,84057 75698,84057l365836 0c41790,0 75699,-37730 75699,-84057z"/>
     <path class="fil3" d="M7594202 17427836l0 -2410171 2186658 0c6926,0 13373,-3343 18149,-8358 4537,-5254 7641,-12418 7641,-20059l0 -335748c0,-7641 -3104,-15044 -7641,-20059 -4776,-5253 -11223,-8357 -18149,-8357l-2182837 0 -10985 -17194c-3582,-5492 -8596,-10268 -14089,-13372 -5015,-2866 -11223,-4538 -17671,-4538l-365836 0c-10746,0 -20536,4776 -27461,12418 -6925,7880 -11463,18626 -11463,30566l0 2794872c0,11940 4538,22686 11463,30328 6925,7880 16715,12656 27461,12656l365836 0c10746,0 20537,-4776 27462,-12418 7164,-7880 11462,-18626 11462,-30566zm73788 -2328503l0 2328503c0,34387 -12895,65431 -33193,88116 -20297,22686 -48475,36775 -79519,36775l-365836 0c-31043,0 -58982,-14089 -79519,-36536 -20298,-22924 -32954,-53968 -32954,-88355l0 -2794872c0,-34148 12656,-65430 32954,-88116 20537,-22686 48714,-36775 79519,-36775l365836 0c18388,0 35820,5015 51103,13850 10029,5732 19103,12895 26984,21253l2147495 0c27223,0 52297,12418 70207,32477 17909,19820 29133,47520 29133,77847l0 335748c0,30327 -11224,57789 -29133,77848 -17910,19820 -42984,32237 -70207,32237l-2112870 0z"/>
     <path class="fil2" d="M7704765 14761197c-248110,276049 -355807,606066 -393537,963305 371090,20536 412879,317838 634244,318554 33909,-338613 132532,-665286 393536,-963304 -138980,-283451 -362015,-361299 -634243,-318555z"/>
     <path class="fil3" d="M7722197 14799644c-116055,131576 -199873,275571 -259333,428878 -56117,144949 -90743,298734 -110324,458489 193186,21492 295152,116294 383985,198917 57550,53730 108891,101489 176709,113429 18149,-159278 51580,-316167 109846,-468996 60177,-157845 146860,-310675 270318,-456818 -63042,-118204 -142800,-194619 -235692,-237602 -97429,-45133 -210619,-54207 -335509,-36297zm-326912 396640c64236,-165963 155695,-321897 283451,-463742l8835 -9791 12179 -1910c142323,-22447 272706,-12895 386134,39640 114861,53013 211573,149248 285361,299689l12895 26507 -18864 21492c-127040,145188 -214678,297062 -274377,453713 -59938,157128 -92415,319748 -108892,485473l-3582 36536 -32953 -239c-111280,-239 -179098,-63043 -256229,-135159 -85967,-79997 -185545,-172650 -379686,-183396l-39402 -2149 4538 -43222c19103,-182440 56355,-357956 120592,-523442z"/>
     <path class="fil2" d="M7630977 17835223l0 1806017c0,178142 145427,323569 323569,323569l1565310 0c178142,0 323569,-145427 323569,-323569l0 -1806017c0,-178142 -145427,-323569 -323569,-323569l-1565310 0c-178142,0 -323569,145427 -323569,323569z"/>
     <path class="fil3" d="M7667990 17870804l0 1735333c0,87399 32238,166919 84295,224469 51819,57549 123697,93608 202500,93608l1564832 0c78803,0 150681,-35820 202738,-93370 51819,-57788 84295,-137308 84295,-224707l0 -1735333c0,-87400 -32476,-167158 -84295,-224708 -52057,-57550 -123935,-93369 -202738,-93369l-1564832 0c-78803,0 -150681,35819 -202500,93369 -52057,57550 -84295,137308 -84295,224708zm-73788 1735333l0 -1735333c0,-110085 40595,-210141 105787,-282496 65430,-72356 155456,-117488 254796,-117488l1564832 0c99101,0 189366,45132 254557,117488 65430,72355 106026,172411 106026,282496l0 1735333c0,109607 -40596,209663 -105787,282257 -65430,72594 -155695,117488 -254796,117488l-1564832 0c-99340,0 -189366,-44894 -254796,-117488 -65192,-72355 -105787,-172411 -105787,-282257z"/>
     <path class="fil2" d="M7630977 17595710l0 2369338 2149883 0c34387,0 62565,31282 62565,69490l0 335509c0,38207 -28178,69489 -62565,69489l-2163972 0c-13850,21253 -36297,35103 -61610,35103l-365836 0c-41550,0 -75698,-37729 -75698,-84056l0 -2794873c0,-46326 34148,-83817 75698,-83817l365836 0c41790,0 75699,37491 75699,83817z"/>
     <path class="fil3" d="M7667990 17595710l0 2328504 2112870 0c27223,0 52297,12417 70207,32237 17909,20059 29133,47521 29133,78087l0 335509c0,30327 -11224,58027 -29133,77847 -17910,20059 -42984,32476 -70207,32476l-2147495 0c-7881,8358 -16955,15761 -26746,21253 -15521,8836 -32953,13851 -51341,13851l-365836 0c-31043,0 -58982,-14089 -79519,-36775 -20298,-22447 -32954,-53729 -32954,-88116l0 -2794873c0,-34386 12656,-65430 32954,-88116 20537,-22685 48476,-36774 79519,-36774l365836 0c31044,0 59222,14089 79519,36774 20298,22686 33193,53730 33193,88116zm-73788 2369338l0 -2369338c0,-11939 -4298,-22685 -11223,-30327 -7164,-7880 -16955,-12656 -27701,-12656l-365836 0c-10746,0 -20536,4776 -27461,12417 -6925,7881 -11463,18627 -11463,30566l0 2794873c0,11940 4538,22686 11463,30327 6925,7880 16715,12656 27461,12656l365836 0c6448,0 12656,-1671 17671,-4537 5493,-3104 10507,-7880 14089,-13372l10985 -17194 2182837 0c6926,0 13373,-3104 18149,-8358 4537,-5014 7641,-12417 7641,-20058l0 -335509c0,-7881 -3104,-15045 -7641,-20298 -4776,-5015 -11223,-8358 -18149,-8358l-2186658 0 0 -40834z"/>
     <path class="fil2" d="M7704765 20262349c-248110,-276048 -355807,-606065 -393537,-963304 371090,-20537 412879,-317838 634244,-318555 33909,338614 132532,665287 393536,963305 -138980,283451 -362015,361299 -634243,318554z"/>
     <path class="fil3" d="M7678736 20291005c-127756,-141845 -219215,-297540 -283451,-463743 -64237,-165486 -101489,-341240 -120592,-523441l-4538 -43222 39402 -2150c194141,-10745 293719,-103398 379686,-183634 77370,-71639 144949,-134681 256229,-134920l32953 -239 3582 36536c16477,165486 48954,328345 108892,485473 59699,156651 147337,308525 274377,453713l18864 21492 -12895 26506c-73788,150442 -170500,246677 -285361,299690 -113428,52535 -243811,62087 -386134,39640l-12179 -1910 -8835 -9791zm-215872 -495980c59460,153546 143278,297540 259333,428878 124890,17910 238080,8836 335509,-36297 92892,-42983 172650,-119398 235692,-237602 -123458,-145905 -210141,-298973 -270318,-456818 -58266,-152829 -91697,-309719 -109846,-468996 -67818,11940 -119159,59699 -176709,113190 -88833,82862 -190799,177903 -383985,199156 19581,159755 54207,313539 110324,458489z"/>
    </g>
   </g>
   <g>
    <polygon class="fil2" points="11481807,14033346 14685738,14033346 14685738,16236004 11481807,16236004 "/>
    <path class="fil3" d="M11481807 13993228l3244049 0 0 2282894 -3283928 0 0 -2282894 39879 0zm3164052 80236l-3123934 0 0 2122422 3123934 0 0 -2122422z"/>
   </g>
   <g>
    <g>
     <polygon class="fil2" points="22056426,9882110 26642033,9882110 26642033,12207509 22056426,12207509 "/>
     <path class="fil3" d="M22095111 9843425l4585607 0 0 2402769 -4624292 0 0 -2402769 38685 0zm4508237 77370l-4469313 0 0 2248029 4469313 0 0 -2248029z"/>
    </g>
    <path class="fil3" d="M23872950 11392497c-15044,10507 -31521,17671 -48236,21253 -17433,3821 -35581,4298 -52536,1194 -17432,-3104 -34148,-9552 -49192,-19104 -14327,-9074 -27461,-21491 -37968,-36536 -10507,-15044 -17432,-31521 -21253,-48236 -3821,-17671 -4060,-35581 -1194,-52536 3104,-17193 9552,-34148 19342,-49192 9075,-14328 21492,-27461 36536,-37968 54923,-38447 109847,-72833 164531,-102922 54684,-29849 109607,-55639 164292,-77131 52774,-20775 106503,-37968 160471,-50863 47282,-11463 94563,-19582 141606,-24596l0 -123219 6925 0 5015 -10746c4776,-8358 10746,-16000 17432,-22447 8836,-8597 19581,-15522 31282,-20059 11224,-4298 23641,-6686 36298,-6447l8835 -956c2866,-716 6209,-2149 9313,-3582 3343,-1671 6925,-4059 10029,-6686l8836 -8597 6686 -9313 4537 -8835 2627 -8836 955 -7163 -716 -5254 -1910 -5731 -4299 -6448 -6925 -6925 -8597 -6686 -8357 -5015 -7164 -3582c-23164,-7641 -30089,1194 -44178,20298l-6686 12417 -5970 14567 -5015 16955c-3104,12178 -8596,23640 -15999,33431 -7641,10268 -16954,18626 -27700,25074 -10507,6208 -22447,10507 -34865,12178 -12178,1911 -24596,1194 -37013,-1910 -12417,-3104 -23880,-8597 -33670,-15999 -10269,-7403 -18626,-16955 -25074,-27701 -6209,-10507 -10507,-22447 -12417,-34864 -1672,-11940 -1194,-24596 1910,-37014 3104,-12417 6925,-24596 10985,-35819 4298,-11701 9313,-23163 14566,-33670 5254,-10746 11224,-21253 17671,-31044 6448,-10268 13612,-19581 20775,-28417 6926,-8119 14328,-15760 21731,-22685 7641,-7164 15761,-13850 23641,-19582 8119,-5731 16716,-10984 25790,-15760 9074,-4776 18148,-8836 27223,-12179 9790,-3343 20058,-6208 30327,-8358 10029,-1910 20536,-3104 31282,-3582 10268,-477 20775,0 31282,1194 10507,956 21014,2866 31283,5493 9313,2388 18865,5492 27939,9074 9074,3343 18148,7642 27223,12656 8835,4776 17671,10030 26267,16000 8358,5731 16955,12178 25313,19103 13850,11940 25551,24119 35580,36775 10269,13373 18865,27223 25790,41789 7164,15283 12179,30805 15522,46566 3343,16238 4776,32715 4537,49192l-1433 20775 -3343 21014 -5014 20298 -7164 20059 -8119 18148 -9791 17671 -11462 17193 -12418 16000c-7402,8835 -15521,17432 -24357,25312 -8597,7642 -17910,15044 -27700,21731 -8119,5492 -16238,10507 -24596,14805l-12657 6209 0 10507c48476,3821 96952,10984 145666,21969 54685,11940 108891,28656 162859,49670 56595,21969 113429,49192 169546,81190 56117,31760 111995,68774 167396,110563 14567,10985 26506,24596 35103,39402 9074,15521 15044,32476 17432,49908 2388,17432 1433,35342 -3104,52774 -4298,16716 -11940,32715 -22925,47282 -10984,14566 -24596,26506 -39401,35103 -15522,9074 -32476,15044 -49908,17432 -17433,2388 -35342,1433 -52774,-3104 -16716,-4299 -32954,-11940 -47282,-22925 -48476,-36297 -96713,-68296 -144949,-95280 -48237,-26984 -96474,-49192 -144233,-66863 -47282,-17193 -94325,-30088 -141129,-38446 -47521,-8358 -94802,-12178 -141606,-11701 -46566,239 -93609,5254 -141129,14328 -47520,9313 -95757,22924 -143994,40595 -48715,17910 -97190,40118 -145666,66147 -49192,26506 -98145,56833 -147099,91220zm-88832 -47043c8358,1433 17194,1433 25551,-477 7881,-1672 15761,-5015 22925,-10030 52057,-36297 103876,-68534 155217,-96235 51342,-27700 102683,-50863 153547,-69728 51818,-19104 103637,-33671 155456,-43700 51102,-9791 102444,-15044 153546,-15522 51341,-477 102921,3821 154024,12895 51102,9074 102205,22925 153546,41551 51102,18865 102682,42744 154023,71400 50864,28417 101966,62087 153069,100772 6925,5253 14805,8835 22686,10985 8357,2149 17193,2626 25551,1432 8119,-1194 16477,-4059 23879,-8358 6925,-4059 13612,-9790 18627,-16715 5253,-7164 9074,-14806 11223,-22686 2149,-8358 2388,-17193 1194,-25551 -955,-8119 -3821,-16477 -8119,-23880 -4060,-6925 -9791,-13372 -16955,-18626 -53012,-40118 -106264,-75460 -159277,-105787 -53729,-30327 -107219,-56117 -160710,-76892 -52774,-20537 -106025,-36536 -159038,-47998 -53729,-11462 -107220,-18387 -160710,-20775l-33909 -1433 0 -127040 24596 -7880c7641,-2627 15283,-5731 22208,-9074 7403,-3582 14566,-7881 21492,-12657 6686,-4298 13611,-9790 20058,-15521 6448,-5970 12418,-12179 17910,-18627l9074 -11701 8119 -12178 7403 -13134 5492 -12656 5254 -14567 3582 -13850 2149 -14567 955 -14327c239,-11224 -716,-22447 -2865,-33432 -2149,-10507 -5731,-21014 -10507,-31043 -4537,-9791 -10507,-19582 -17671,-28895 -7403,-9074 -15761,-17909 -25313,-25790l-19581 -15044c-6686,-4537 -13373,-8597 -19820,-12178 -6209,-3105 -12656,-6209 -19581,-8836 -6448,-2627 -13134,-4776 -19343,-6447 -7403,-1672 -14566,-3105 -21492,-3821 -7402,-717 -14566,-955 -21252,-717 -6687,239 -13612,956 -20537,2388 -6686,1433 -13611,3344 -20298,5732 -6208,2149 -12417,4775 -18387,7880 -5731,3104 -11701,6686 -17432,10746 -5731,4298 -11462,9074 -16955,14089 -5253,4776 -10507,10507 -15283,16238 -5492,6447 -10745,13372 -15760,21014 -4776,7641 -9552,15760 -13611,24118 -4299,8597 -8120,17671 -11463,26745 -3343,9075 -6208,18865 -8835,28656 -717,3343 -955,6686 -478,9791 478,3343 1672,6447 3105,9074 1671,2865 4059,5492 6686,7403 2388,1910 5253,3343 8597,4059 3343,955 6686,955 9790,717 3343,-478 6448,-1672 9313,-3344 2627,-1671 5015,-3820 7164,-6447 1672,-2627 3343,-5492 4060,-8836l6925 -23163c2627,-7164 5492,-14328 8835,-21014 3105,-6925 6687,-13611 10507,-19581 3821,-5970 8119,-11940 12656,-17194l10269 -10984 11223 -9313 12418 -8119 13372 -5731 13373 -3821 13850 -1433 13850 716 13373 2388 15522 5015 15044 7164 14089 8836 14089 10745c6447,5493 11939,11224 16477,16716 5014,6209 9313,12656 12417,19343 3582,7163 6209,14327 7880,21491 1672,7881 2388,15522 2388,22925l-716 10029 -1672 10268 -2626 9552 -3582 10030 -4299 9552c-4776,8835 -10984,19581 -17671,26984 -5970,6925 -12417,13611 -19342,19103 -6925,5493 -14567,10507 -22447,14567 -8119,4059 -16477,7164 -25074,9074 -8596,1910 -17193,3104 -25790,2866 -3343,0 -6686,716 -9790,1910 -3105,1194 -5731,2866 -8119,5015 -2150,2149 -4060,5014 -5493,7880 -1194,2866 -1910,6209 -1910,9313 -955,30805 -716,61848 -478,92653l239 60893 -32715 2388c-52296,3821 -104593,12179 -156650,24357 -52536,12179 -105071,28656 -157606,49192 -52296,20776 -104593,45372 -156412,73788 -53012,28895 -105786,61849 -157844,98385 -7164,5253 -12895,11223 -17432,18148 -4537,7164 -7642,15283 -9074,23402 -1433,8358 -1194,17193 477,25551 1672,8119 5254,15761 10030,22925 5014,7164 11223,13134 18148,17432 7164,4537 15283,7641 23402,9074z"/>
   </g>
   <g>
    <path class="fil2" d="M15691309 17884893c0,-155457 293242,-155457 293242,0l2122422 0c27940,-197724 310674,-170501 296108,57311l0 1671813c0,470668 -404044,855608 -897874,855608l-996737 0c-449653,0 -817877,-350553 -817877,-779193l716 -1805539z"/>
    <path class="fil3" d="M15646177 17884893c0,-77609 51341,-126801 117249,-148054 23879,-7642 49431,-11462 74504,-11462 25074,0 50625,3820 74266,11462 52774,16955 96474,51819 111757,105070l2046723 0c19820,-63281 63759,-103637 115339,-121786 26745,-9313 55878,-12656 84295,-9552 28178,2866 56117,12179 81191,27462 58983,35819 102443,104832 96951,204171l0 1671813c0,246916 -106264,471623 -277004,634721 -170978,162859 -406909,264109 -666241,264109l-996737 0c-237363,0 -453235,-92653 -609647,-241662 -156172,-149009 -253363,-354852 -253363,-580753l717 -1805539zm146143 -66624c-31282,10029 -55639,32237 -55639,66624l-956 1805539c239,202499 86922,386611 226857,519860 140412,133487 333360,216349 545888,216349l996737 0c234498,0 447743,-91459 602244,-238796 154501,-147099 250497,-350314 250497,-573828l239 -1674201c4060,-65430 -20775,-108652 -54923,-129428 -13134,-7880 -27939,-12895 -42745,-14328 -14805,-1671 -29610,0 -43461,4776 -31759,11224 -58505,40835 -65430,89549l-5253 37730 -2206956 0 0 -43222c0,-34148 -24596,-56595 -55879,-66624 -14089,-4538 -29610,-6687 -45610,-6687 -15760,0 -31521,2149 -45610,6687z"/>
    <path class="fil2" d="M15986939 17884893l2120034 0 0 1180848c0,367985 -315688,669107 -701822,669107l-779193 0c-351508,0 -639019,-274138 -639019,-609169l0 -1240786z"/>
    <path class="fil3" d="M15986939 17841909l2165406 0 0 1223832c0,196052 -84295,373955 -219454,502905 -135398,128950 -322137,209186 -527740,209186l-779193 0c-188171,0 -359388,-73311 -483324,-191515 -123935,-118204 -201066,-281302 -201066,-460638l0 -1283770 45371 0zm2074902 86206l-2029769 0 0 1197564c0,155456 66863,297062 174560,399745 107458,102443 255990,166202 419326,166202l779193 0c180530,0 344822,-70445 463742,-183873 118921,-113428 192948,-269840 192948,-442012l0 -1137626z"/>
    <path class="fil2" d="M15937031 19528289c305182,289899 670062,415745 1065032,459683 22685,-433654 351508,-482607 352224,-740985 -374194,-39640 -735493,-154740 -1065032,-459922 -313300,162382 -399506,422909 -352224,741224z"/>
    <path class="fil3" d="M15979537 19507992c145427,135397 304704,233304 474249,302793 160232,65669 330255,106026 506965,128712 23641,-225663 128472,-344822 219931,-448460 59461,-67102 112235,-127278 125368,-206320 -175993,-21492 -349598,-60415 -518665,-128472 -174322,-70445 -343628,-171456 -505055,-315928 -130621,73788 -215155,166919 -262676,275332 -49908,113906 -59938,246438 -40117,392343zm438430 381835c-183396,-75221 -355807,-181963 -512696,-331211l-10746 -10268 -2149 -14328c-24835,-166441 -14089,-318554 43938,-451325 58505,-133964 165009,-246915 331450,-333121l29133 -15283 23880 22208c160232,148532 328345,250737 501711,320465 173605,69968 353418,107936 536814,127279l40118 4059 0 38685c-478,129905 -69968,208947 -149487,299212 -88354,100533 -191037,216827 -202738,443684l-2388 46087 -47759 -5253c-201783,-22447 -396163,-65908 -579081,-140890z"/>
   </g>
   <g>
    <g>
     <polygon class="fil2" points="10627155,8789378 10627155,7340123 9671492,7500355 9671492,8629146 "/>
     <path class="fil3" d="M10667273 8789378l0 -1496298 -1035660 173605 0 1196131 1035660 173605 0 -47043zm-79997 -1401974l0 1354692 -875667 -146860 0 -1060972 875667 -146860z"/>
     <polygon class="fil2" points="9497648,8789378 9497648,7340123 9671492,7500355 9671492,8629146 "/>
     <path class="fil3" d="M9537527 8698158l0 -1266815 94086 86444 0 1093926 -94086 86445zm-79997 -1358035l0 1540236 254079 -233781 0 -1163655 -254079 -233782 0 90982z"/>
    </g>
    <g>
     <polygon class="fil2" points="15438663,8889672 15141600,7471461 16109681,7432298 16341313,8536970 "/>
     <path class="fil3" d="M15399500 8898030l-306853 -1464538 1049510 -42506 245244 1170819 -978110 382313 -9791 -46088zm-209185 -1388601l277958 1325798 826952 -323092 -217782 -1038525 -887128 35819z"/>
     <polygon class="fil2" points="16544529,8658040 16247227,7239828 16109681,7432298 16341313,8536970 "/>
     <path class="fil3" d="M16486501 8577088l-259810 -1239831 -74027 103877 224230 1070524 109607 65430zm-200111 -1345618l315927 1507522 -296585 -176709 -238796 -1138820 200828 -281064 18626 89071z"/>
    </g>
    <g>
     <polygon class="fil2" points="11351424,9365355 12690117,9919840 12176466,10741538 11133642,10309556 "/>
     <path class="fil3" d="M11366707 9328341l1382392 572634 -556873 890472 -1105149 -457773 235930 -1023481 43700 18148zm1264427 610364l-1251532 -518188 -199395 864920 980259 406193 470668 -752925z"/>
     <polygon class="fil2" points="10918964,10409134 12257895,10963619 12176466,10741538 11133642,10309556 "/>
     <path class="fil3" d="M11018542 10406984l1170341 484757 -43939 -119876 -1010347 -418610 -116055 53729zm1224070 593648l-1422987 -589349 313300 -145427 1074823 445355 118920 324286 -84056 -34865z"/>
    </g>
    <path class="fil2" d="M10735329 9557825l4386690 0c225424,0 409774,-184351 409774,-409775l0 -2184032c0,-225423 -184350,-409774 -409774,-409774l-4386690 0c-225423,0 -409774,184351 -409774,409774l0 2184032c0,225424 184351,409775 409774,409775z"/>
    <path class="fil3" d="M10735329 9597942l4386690 0c123696,0 236169,-50624 317599,-132054 81668,-81668 132293,-194141 132293,-317838l0 -2184032c0,-123696 -50625,-236169 -132293,-317599 -81430,-81668 -193903,-132293 -317599,-132293l-4386690 0c-123696,0 -236408,50625 -317837,132293 -81430,81430 -132055,193903 -132055,317599l0 2184032c0,123697 50625,236170 132055,317838 81429,81430 194141,132054 317837,132054zm4386690 -79996l-4386690 0c-101727,0 -194141,-41790 -261243,-108653 -66863,-67102 -108652,-159516 -108652,-261243l0 -2184032c0,-101488 41789,-194141 108652,-261004 67102,-67102 159516,-108652 261243,-108652l4386690 0c101488,0 194141,41550 261004,108652 67102,66863 108653,159516 108653,261004l0 2184032c0,101727 -41551,194141 -108653,261243 -66863,66863 -159516,108653 -261004,108653z"/>
    <g>
     <polygon class="fil2" points="13360418,9559496 14809434,9559496 14649202,10515159 13520650,10515159 "/>
     <path class="fil3" d="M13360418 9519378l1496298 0 -173844 1035899 -1196131 0 -173605 -1035899 47282 0zm1401735 80236l-1354692 0 146860 875666 1060972 0 146860 -875666z"/>
     <polygon class="fil2" points="13360418,10689242 14809434,10689242 14649202,10515159 13520650,10515159 "/>
     <path class="fil3" d="M13451638 10649124l1266576 0 -86444 -93847 -1093688 0 -86444 93847zm1357796 80236l-1540236 0 233781 -254080 1163655 0 234021 254080 -91221 0z"/>
    </g>
   </g>
   <g>
    <path class="fil4" d="M11814450 3456100l1524237 0c82146,0 156890,-33670 210858,-87877 53968,-53968 87638,-128473 87638,-210619l0 -2184748 -2082543 0 0 2223195c0,71638 29372,136591 76415,183634 47043,47043 111995,76415 183395,76415z"/>
    <g>
     <path class="fil3" d="M11814450 3456100l1524237 0c82146,0 156890,-33670 210858,-87877 53968,-53968 87638,-128473 87638,-210619l0 -2184748 -2082543 0 0 2223195c0,71638 29372,136591 76415,183634 47043,47043 111995,76415 183395,76415zm1524237 -80236l-1524237 0c-49431,0 -94324,-20297 -126801,-52774 -32715,-32476 -53012,-77609 -53012,-127039l0 -2142959 1922549 0 0 2104512c0,59938 -24835,114623 -64236,154024 -39640,39640 -94325,64236 -154263,64236z"/>
     <polygon class="fil3" points="11594758,3166679 13597065,3166679 13597065,3086682 11594758,3086682 "/>
     <path class="fil1" d="M12118438 2903525c176471,0 319510,-143039 319510,-319748 0,-176471 -143039,-319510 -319510,-319510 -176470,0 -319509,143039 -319509,319510 0,176709 143039,319748 319509,319748z"/>
     <path class="fil1" d="M13011775 2804186c121548,0 220171,-98623 220171,-220409 0,-121548 -98623,-220171 -220171,-220171 -121786,0 -220409,98623 -220409,220171 0,121786 98623,220409 220409,220409z"/>
     <path class="fil1" d="M13011775 1913953c-176470,0 -319748,-143039 -319748,-319510 0,-176470 143278,-319509 319748,-319509 176471,0 319510,143039 319510,319509 0,176471 -143039,319510 -319510,319510z"/>
     <path class="fil1" d="M12118438 1814614c-121547,0 -220170,-98623 -220170,-220171 0,-121786 98623,-220409 220170,-220409 121786,0 220409,98623 220409,220409 0,121548 -98623,220171 -220409,220171z"/>
    </g>
   </g>
   <g>
    <path class="fil3" d="M18044170 3253839l1619039 0c63759,0 121548,-26029 163576,-68057 42028,-41789 68296,-99817 68296,-163575l0 -1619278c0,-63520 -26268,-121548 -68057,-163576 -42029,-42028 -100056,-68057 -163815,-68057l-1619039 0c-63759,0 -121786,26029 -163814,68057 -41790,42028 -67819,100056 -67819,163576l0 1619278c0,63758 26029,121786 67819,163575 42267,42028 100055,68057 163814,68057zm1619039 -79996l-1619039 0c-41789,0 -79758,-17194 -107220,-44655 -27222,-27462 -44416,-65431 -44416,-106981l0 -1619278c0,-41551 17194,-79520 44655,-106981 27462,-27462 65192,-44655 106981,-44655l1619039 0c41790,0 79758,17193 107220,44655 27461,27461 44416,65430 44416,106981l0 1619278c0,41550 -16955,79519 -44416,106981 -27462,27461 -65430,44655 -107220,44655z"/>
    <path class="fil3" d="M18216342 3096711l1274695 0c67818,0 129667,-27939 174321,-72594 44655,-44655 72356,-106503 72356,-174321l0 -873995c0,-67818 -27701,-129666 -72356,-174321 -44654,-44655 -106503,-72356 -174321,-72356l-1274695 0c-67818,0 -129428,27701 -174321,72356 -44655,44655 -72356,106503 -72356,174321l0 873995c0,68057 27701,129666 72356,174321 44893,44655 106742,72594 174321,72594zm1274695 -80235l-1274695 0c-45849,0 -87399,-18626 -117488,-48715 -30327,-30327 -49192,-72116 -49192,-117965l0 -873995c0,-45849 18865,-87399 49192,-117726 30089,-30089 71878,-48954 117488,-48954l1274695 0c45849,0 87400,18865 117727,48954 30088,30327 48953,71877 48953,117726l0 873995c0,45849 -18865,87638 -48953,117726 -30327,30089 -71878,48954 -117727,48954z"/>
    <path class="fil1" d="M18921747 1637427c45848,-24358 77131,-72833 77131,-128473 0,-80235 -64953,-145188 -145188,-145188 -80236,0 -145189,64953 -145189,145188 0,55640 31283,104115 77132,128473l0 341956 136114 0 0 -341956z"/>
    <path class="fil1" d="M18853690 2646103c90026,0 162859,-73072 162859,-163098 0,-90027 -72833,-162859 -162859,-162859 -90027,0 -162860,72832 -162860,162859 0,90026 72833,163098 162860,163098zm0 -63520c54923,0 99339,-44655 99339,-99578 0,-54924 -44416,-99340 -99339,-99340 -54924,0 -99340,44416 -99340,99340 0,54923 44416,99578 99340,99578z"/>
   </g>
   <g>
    <polygon class="fil4" points="35218643,14477985 38062231,14477985 38062231,20565382 35178526,20565382 35178526,14477985 "/>
    <g>
     <path class="fil3" d="M35218643 14477985l2843588 0 0 6087397 -2883705 0 0 -6087397 40117 0zm2763352 80236l-2723234 0 0 5927164 2723234 0 0 -5927164z"/>
     <path class="fil3" d="M36620378 14679529c341240,0 651198,139457 875905,364403 224708,224708 364403,534665 364403,875905l0 3954468c0,134681 -55162,257184 -143755,345777 -88832,88833 -211096,143756 -345777,143756l-1501552 0c-134681,0 -256945,-54923 -345777,-143756 -88593,-88593 -143755,-211096 -143755,-345777l0 -3954468c0,-341240 139696,-651197 364403,-875905 224707,-224946 534904,-364403 875905,-364403zm819310 420998c-210140,-210380 -500278,-341001 -819310,-341001 -319032,0 -609169,130621 -819310,341001 -210380,210141 -340763,500278 -340763,819310l0 3954468c0,112712 46088,215156 120115,289183 74266,74265 176709,120353 289182,120353l1501552 0c112473,0 214917,-46088 289182,-120353 74027,-74027 120115,-176471 120115,-289183l0 -3954468c0,-319032 -130622,-609169 -340763,-819310z"/>
     <path class="fil1" d="M36620378 19459755c90026,0 162859,72833 162859,162859 0,90026 -72833,163098 -162859,163098 -90026,0 -162859,-73072 -162859,-163098 0,-90026 72833,-162859 162859,-162859zm0 63520c54923,0 99339,44416 99339,99339 0,54923 -44416,99578 -99339,99578 -54923,0 -99339,-44655 -99339,-99578 0,-54923 44416,-99339 99339,-99339z"/>
    </g>
   </g>
   <g>
    <path class="fil4" d="M33819297 18891419l400700 0c231155,0 441296,94564 593887,246916 152352,152352 246915,362732 246915,594125l0 618483c0,60893 -25074,116771 -65430,156889 -40118,40595 -95758,65669 -156889,65669l-1637666 0c-61132,0 -116771,-25312 -156889,-65430 -40595,-40357 -65430,-95996 -65430,-157128l0 -618483c0,-231393 94563,-441534 246915,-593886 152352,-152591 362493,-247155 593887,-247155z"/>
    <g>
     <path class="fil3" d="M33819297 18891419l400700 0c231155,0 441296,94564 593887,246916 152352,152352 246915,362732 246915,594125l0 618483c0,60893 -25074,116771 -65430,156889 -40118,40595 -95758,65669 -156889,65669l-1637666 0c-61132,0 -116771,-25312 -156889,-65430 -40595,-40357 -65430,-95996 -65430,-157128l0 -618483c0,-231393 94563,-441534 246915,-593886 152352,-152591 362493,-247155 593887,-247155zm400700 79997l-400700 0c-209186,0 -399507,85728 -537292,223514 -138024,138024 -223514,328106 -223514,537530l0 618483c0,38924 16000,74743 41790,100533 25790,25790 61371,41789 100533,41789l1637666 0c38923,0 74743,-15999 100533,-41789 25790,-25790 41789,-61371 41789,-100533l0 -618483c0,-209424 -85728,-399506 -223513,-537530 -137786,-138025 -328106,-223514 -537292,-223514z"/>
     <path class="fil3" d="M33819297 19130932c-165009,0 -315450,67818 -424341,176948 -109130,108891 -176949,259333 -176949,424580l0 240946 1603279 0 0 -240946c0,-165247 -67818,-315450 -176948,-424580 -108891,-109130 -259333,-176948 -424341,-176948l-400700 0zm-481175 120354c123697,-123697 293958,-200351 481175,-200351l400700 0c186978,0 357478,76654 481175,200351 123457,123457 200350,293719 200350,481174l0 257900c0,17194 -7403,33193 -18626,44416 -11462,11463 -27223,18627 -44416,18627l-1637666 0c-16954,0 -32715,-7403 -44177,-18627 -11462,-11701 -18626,-27461 -18626,-44416l0 -257900c0,-187216 76653,-357717 200111,-481174z"/>
     <path class="fil1" d="M34087704 20120266c45849,24357 77131,72594 77131,128233 0,80236 -64953,145188 -145188,145188 -80236,0 -145188,-64952 -145188,-145188 0,-55639 31282,-103876 77131,-128233l0 -342196 136114 0 0 342196z"/>
     <path class="fil1" d="M34019647 19286866c90026,0 162859,73072 162859,163098 0,90026 -72833,162859 -162859,162859 -90026,0 -162859,-72833 -162859,-162859 0,-90026 72833,-163098 162859,-163098zm0 63759c54923,0 99339,44416 99339,99339 0,54923 -44416,99339 -99339,99339 -54923,0 -99339,-44416 -99339,-99339 0,-54923 44416,-99339 99339,-99339z"/>
    </g>
   </g>
   <g>
    <path class="fil4" d="M36532740 11075137l0 1405078 -554247 0c-29849,0 -56594,-11940 -75937,-31522 -6686,-6447 -12417,-13850 -16954,-21969l-1383825 0 -8358 0 -8597 0 -8119 -477 -8358 -239 -8358 -478 -8357 -716 0 0 -8120 -717 0 0 -8119 -716 -238 0 -8120 -955 0 0 -8119 -955 0 0 -8119 -956 0 0 -8119 -1194 0 0 -7880 -1432 -239 0 -7880 -1433 0 0 -7880 -1433 -239 0 -7880 -1433 0 -238 -7881 -1433 0 -239 -7880 -1672 0 0 -7880 -1910 0 0 -7881 -1910 0 0 -7641 -2149 -239 0 -15283 -4299 0 0 -7641 -2388 -239 0 -7403 -2388 0 0 -7641 -2627 0 0 -15044 -5253 0 0 -7403 -2866 -239 0 -7164 -2865 -239 0 -7164 -2866 -238 -239 -7164 -2865 0 0 -7164 -3104 -239 -239c-7164,-3105 -14328,-6448 -21492,-9791l0 0 -6925 -3582 -238 0c-14089,-6925 -27940,-14566 -41312,-22685l-239 0c-47520,-28178 -90981,-61849 -129905,-100773 -57311,-57311 -104115,-125129 -137069,-200350l0 0c-6209,-14566 -12179,-29372 -17432,-44416l-2627 -7402 0 -239 -2627 -7403 0 0 -2388 -7641 0 0 -2388 -7642 0 0 -2149 -7641 0 -239 -2149 -7642 0 0 -2149 -7641 0 -239 -1911 -7641 0 0 -1910 -7881 0 0 -1911 -7880 0 0 -1671 -7880 0 -239 -1433 -7642 0 -238 -1671 -7881 0 0 -1433 -8119 0 0 -1194 -7880 0 -239 -1194 -7880 0 -239 -955 -7880 -239 -239 -955 -8119 0 0 -717 -8119 0 0 -955 -8119 0 0 -716 -8358 0 0 -478 -8119 -478 -8358 -477 -8358 -239 -8358 0 -8358 -239 -8358 239 -8357 0 -8358 239 -8358 477 -8358 478 -8358 478 -8119 0 -239 716 -8119 0 0 955 -8119 0 -239 717 -8119 0 0 955 -8119 239 0 955 -8119 0 0 1194 -8119 0 0 1194 -7880 0 -239 1433 -7880 0 0 1671 -8119 0 0 1433 -7881 0 0 1671 -7880 0 0 1911 -7880 0 0 1910 -7881 0 0 1911 -7880 0 0 2149 -7641 0 -239 2149 -7642 0 0 2149 -7641 0 -239 2388 -7403 0 -238 2388 -7403 0 -239 2388 -7403 239 0 2627 -7402 2626 -7642 0 0 2866 -7402 0 -239 2865 -7164 0 -239c4776,-12178 10030,-24357 15761,-36297l0 -239 3343 -6925 0 0c32238,-66624 75221,-127039 127040,-178620 24118,-24118 49908,-46326 77370,-66385l0 0c12656,-9074 25790,-18148 39162,-26267l0 0 6687 -4299 0 0 13611 -7880 6686 -4060 239 0 6686 -3820 239 0 6925 -3582 0 0 6925 -3821 0 0 6926 -3582 238 0 6925 -3343 0 0 7164 -3582 0 0 7164 -3104 0 0 7164 -3344 239 0 7164 -3104 0 0 7402 -3104 0 0 7403 -2866 0 0 7403 -3104 0 0 7403 -2627 0 0 7402 -2866 239 0 7403 -2626 0 0 7641 -2388 0 0 7642 -2388 0 0 7641 -2388 0 0 7642 -2388 0 0 7641 -2149 239 0 7641 -1911 0 0 7881 -2149 0 0 7880 -1910 0 0 7880 -1672 0 0 7881 -1671 0 0 7880 -1672 239 0 7880 -1433 0 0 7880 -1433 239 0 7880 -1194 0 0 8119 -1193 0 0 8119 -1194 0 0 8119 -956 8358 -955 0 0 8119 -716 8120 -717 8357 -477 8358 -478 8358 -477 8119 -239 8597 -239 8358 0 1374750 0c5970,-18387 16239,-34625 29611,-47998 21492,-21731 51580,-35103 84534,-35103l542068 0 0 36536z"/>
    <g>
     <path class="fil3" d="M36532740 11075137l0 1405078 -554247 0c-29610,0 -56594,-11940 -75937,-31522 -19581,-19342 -31760,-46326 -31760,-75937l0 -1214518c0,-32954 13612,-62804 35342,-84534 21492,-21731 51580,-35103 84534,-35103l542068 0 0 36536zm-73311 1332006l0 -1295470 -468757 0c-12656,0 -24357,5253 -32954,13850 -8358,8358 -13611,20059 -13611,32715l0 1214518c0,9552 3821,18149 10029,24119 6209,6208 14806,10268 24357,10268l480936 0z"/>
     <path class="fil3" d="M35944107 11158238l0 1268486 -1442330 0c-179336,0 -342434,-73310 -460638,-191515 -118443,-118443 -191993,-281540 -191993,-460877 0,-179336 73550,-342434 191754,-460877 118443,-118443 281541,-191753 460877,-191753l1442330 0 0 36536zm-73311 1195414l0 -1158640 -1369019 0c-159516,0 -304227,64953 -409058,170024 -105071,105070 -170262,249781 -170262,409296 0,159278 65191,304227 170023,409059 105070,105070 249781,170261 409297,170261l1369019 0z"/>
     <path class="fil3" d="M35765965 11281218l0 996258c-261244,37730 -1034705,149248 -1264188,149248 -179575,0 -342673,-73310 -460877,-191515 -118204,-118204 -191754,-281540 -191754,-460877 0,-179574 73550,-342672 191754,-460877 118443,-118204 281541,-191753 460877,-191753 258139,0 981692,92892 1264188,127278l0 32238zm-73072 932977l0 -900501 -1193027 -118682c-158560,478 -302793,65669 -407386,170024 -104832,105070 -170023,250019 -170023,409296 0,159278 65191,303988 170262,409059 104592,104592 248587,169784 406909,170261l1193265 -139457z"/>
     <path class="fil3" d="M36319017 11768601c0,34148 -13850,64953 -36297,87400 -22208,22208 -53013,36058 -87161,36058 -34148,0 -64952,-13850 -87160,-36058 -22208,-22447 -36059,-53252 -36059,-87400 0,-33909 13851,-64713 36059,-87160 22208,-22208 53251,-36059 87160,-36059 34148,0 64953,13851 87161,36059 22447,22447 36297,53251 36297,87160z"/>
    </g>
   </g>
   <g>
    <polygon class="fil4" points="34082928,14122178 31639802,14122178 31639802,15499078 31639802,15884496 34122807,15884496 34122807,15499078 34122807,14122178 "/>
    <g>
     <path class="fil3" d="M34082928 14122178l-2443126 0 0 1762318 2483005 0 0 -1762318 -39879 0zm-2362890 80236l2322772 0 0 1601846 -2322772 0 0 -1601846z"/>
     <path class="fil3" d="M34082928 15499078l-2443126 0 0 385418 2483005 0 0 -385418 -39879 0zm-2362890 79997l2322772 0 0 225185 -2322772 0 0 -225185z"/>
     <path class="fil3" d="M32881305 14248502c-168591,0 -321659,68534 -432461,179336 -110801,110801 -179336,263870 -179336,432460 0,168829 68535,321659 179336,432460 110802,111040 263870,179575 432461,179575 168829,0 321658,-68535 432460,-179336 111040,-111040 179336,-263870 179336,-432699 0,-168590 -68296,-321659 -179097,-432221 -111041,-111041 -263870,-179575 -432699,-179575zm-375866 235930c95996,-96234 229006,-155695 375866,-155695 147098,0 279869,59461 376104,155457 96235,96235 155695,229244 155695,376104 0,147099 -59460,280108 -155695,376104 -96235,96235 -229006,155695 -376104,155695 -146860,0 -279870,-59460 -375866,-155456 -96235,-96235 -155695,-229244 -155695,-376343 0,-146860 59460,-279869 155695,-375866z"/>
     <path class="fil3" d="M32881305 14468194c-108175,0 -206320,43939 -277243,114861 -70923,71162 -114861,169068 -114861,277243 0,108413 43938,206320 114861,277243 70923,71161 169068,114861 277243,114861 108413,0 206320,-43700 277242,-114861 71161,-70923 114861,-168830 114861,-277243 0,-108175 -43700,-206081 -114861,-277243 -70922,-70922 -168829,-114861 -277242,-114861zm-220648 171695c56594,-56595 134681,-91459 220648,-91459 86205,0 164291,34864 220647,91459 56595,56356 91459,134442 91459,220409 0,86205 -34864,164292 -91459,220648 -56356,56595 -134442,91459 -220647,91459 -85967,0 -164054,-34864 -220648,-91459 -56356,-56356 -91220,-134443 -91220,-220648 0,-85967 34864,-164053 91220,-220409z"/>
     <path class="fil1" d="M33876130 15599373c-45610,0 -82384,36774 -82384,82384 0,45611 36774,82385 82384,82385 45610,0 82624,-36774 82624,-82385 0,-45610 -37014,-82384 -82624,-82384z"/>
     <path class="fil1" d="M31850898 15599373c-45371,0 -82384,36774 -82384,82384 0,45611 37013,82385 82384,82385 45610,0 82624,-36774 82624,-82385 0,-45610 -37014,-82384 -82624,-82384z"/>
     <path class="fil1" d="M32118589 15599373c-45610,0 -82385,36774 -82385,82384 0,45611 36775,82385 82385,82385 45610,0 82624,-36774 82624,-82385 0,-45610 -37014,-82384 -82624,-82384z"/>
    </g>
   </g>
  </g>
 </g>
</svg>
