<?xml version="1.0" encoding="utf-8"?>
<!-- Generator: Adobe Illustrator 21.1.0, SVG Export Plug-In . SVG Version: 6.00 Build 0)  -->
<svg version="1.1" id="Слой_1" xmlns="http://www.w3.org/2000/svg" xmlns:xlink="http://www.w3.org/1999/xlink" x="0px" y="0px"
	 viewBox="0 0 39 40" style="enable-background:new 0 0 39 40;" xml:space="preserve">
<style type="text/css">
	.st0{fill:#A8E1FF;}
	.st1{fill:#59A369;}
	.st2{fill:#4AC966;}
</style>
<g id="Слой_x0020_1">
	<path d="M4.379,12.076h8.939c1.959,0,3.55-1.469,3.674-3.428c0.121-1.959-1.103-3.672-3.062-4.04
		c-0.366-2.572-2.571-4.531-5.142-4.531c-2.572,0-4.775,1.959-5.143,4.531c-1.837,0.367-3.184,2.081-3.061,4.04
		C0.952,10.607,2.544,12.076,4.379,12.076z"/>
	<path class="st0" d="M2.058,8.465c0.243,1.097,1.135,2.13,2.321,2.13h8.939c1.176,0,2.122-0.86,2.195-2.04
		c0.076-1.209-0.644-2.265-1.857-2.493l-1.043-0.195l-0.149-1.052c-0.259-1.82-1.82-3.259-3.676-3.259
		c-1.857,0-3.417,1.439-3.677,3.261L4.963,5.854L3.936,6.059C2.81,6.285,2.031,7.335,2.058,8.465z"/>
	<path d="M30.845,13.118h5.775c1.266,0,2.294-0.95,2.374-2.215c0.079-1.266-0.712-2.374-1.978-2.611
		c-0.237-1.662-1.662-2.928-3.322-2.928c-1.662,0-3.085,1.266-3.323,2.928c-1.187,0.237-2.056,1.344-1.978,2.611
		C28.631,12.168,29.659,13.118,30.845,13.118z"/>
	<path class="st0" d="M29.87,10.722c0.118,0.448,0.481,0.915,0.976,0.915h5.775c0.483,0,0.865-0.341,0.895-0.826
		c0.033-0.517-0.249-0.965-0.771-1.063L35.7,9.553l-0.149-1.051c-0.131-0.917-0.919-1.656-1.857-1.656
		c-0.94,0-1.726,0.739-1.858,1.657L31.688,9.54L30.66,9.745C30.199,9.837,29.88,10.264,29.87,10.722z"/>
	<path d="M26.531,29.721c-0.388-1.306,0.096-2.546,1.258-3.394c-0.188-3.978,6.452-3.978,6.264,0
		c1.162,0.847,1.647,2.088,1.258,3.394c2.441,2.435-0.331,7.636-4.39,5.707C26.863,37.358,24.09,32.156,26.531,29.721z"/>
	<path class="st1" d="M30.921,33.717c-3.304,2.313-5.331-2.507-2.444-3.472c-1.041-1.289-0.707-2.475,0.966-3.145
		c-1.064-3.115,4.019-3.115,2.954,0c1.675,0.67,2.008,1.855,0.967,3.145C36.252,31.21,34.225,36.03,30.921,33.717z"/>
	<rect y="38.444" width="38.977" height="1.48"/>
	<path d="M7.459,30.887c-5.682,3.028-9.503-4.458-5.732-7.516c-0.809-1.96-0.074-3.797,1.809-4.976
		c-0.648-5.515,8.493-5.515,7.847,0c1.882,1.177,2.616,3.015,1.809,4.975C16.962,26.428,13.141,33.915,7.459,30.887z"/>
	<path class="st1" d="M7.459,29.151c-4.973,3.481-8.024-3.772-3.677-5.226c-1.567-1.939-1.065-3.724,1.454-4.733
		c-1.602-4.689,6.048-4.689,4.446,0c2.519,1.009,3.021,2.794,1.454,4.733C15.483,25.379,12.43,32.632,7.459,29.151z"/>
	<path d="M11.606,17.909c-1.596-3.063-0.44-5.878,2.682-7.586c-1.472-8.099,11.871-8.099,10.401,0
		c3.122,1.708,4.277,4.524,2.68,7.586c6.044,4.007,0.54,15.392-7.881,10.477C11.067,33.301,5.564,21.917,11.606,17.909z"/>
	<path class="st2" d="M19.488,26.626c-7.732,5.415-12.479-5.865-5.719-8.125c-2.437-3.018-1.656-5.793,2.263-7.363
		c-2.493-7.291,9.407-7.291,6.914,0c3.919,1.571,4.699,4.346,2.262,7.363C31.968,20.761,27.221,32.041,19.488,26.626z"/>
	<path d="M7.532,24.595L7.532,24.595c0.416,0,0.755,0.342,0.755,0.755v13.571c0,0.413-0.34,0.755-0.755,0.755l0,0
		c-0.415,0-0.755-0.34-0.755-0.755V25.35C6.778,24.934,7.117,24.595,7.532,24.595z"/>
	<path d="M19.19,14.921L19.19,14.921c0.416,0,0.755,0.342,0.755,0.755v23.245c0,0.413-0.34,0.755-0.755,0.755l0,0
		c-0.415,0-0.755-0.34-0.755-0.755V15.676C18.435,15.26,18.775,14.921,19.19,14.921z"/>
	<path d="M22.495,21.004L22.495,21.004c0.361,0.208,0.482,0.674,0.277,1.03l-2.826,4.895c-0.206,0.356-0.671,0.483-1.032,0.275l0,0
		c-0.36-0.208-0.483-0.671-0.274-1.03l2.826-4.895C21.672,20.921,22.137,20.796,22.495,21.004z"/>
	<path d="M16.09,18.055L16.09,18.055c-0.361,0.208-0.482,0.674-0.277,1.03l2.826,4.895c0.206,0.356,0.671,0.483,1.032,0.275l0,0
		c0.36-0.208,0.483-0.671,0.274-1.03l-2.826-4.895C16.912,17.972,16.448,17.848,16.09,18.055z"/>
	<path d="M30.848,30.903L30.848,30.903c0.415,0,0.755,0.344,0.755,0.755v6.894c0,0.411-0.34,0.755-0.755,0.755l0,0
		c-0.415,0-0.755-0.34-0.755-0.755v-6.894C30.093,31.243,30.433,30.903,30.848,30.903z"/>
</g>
</svg>
