<?xml version="1.0" encoding="UTF-8"?>
<!DOCTYPE svg PUBLIC "-//W3C//DTD SVG 1.0//EN" "http://www.w3.org/TR/2001/REC-SVG-20010904/DTD/svg10.dtd">
<!-- Creator: CorelDRAW X7 -->
<svg xmlns="http://www.w3.org/2000/svg" xml:space="preserve" width="84px" height="172px" version="1.0" style="shape-rendering:geometricPrecision; text-rendering:geometricPrecision; image-rendering:optimizeQuality; fill-rule:evenodd; clip-rule:evenodd"
viewBox="0 0 836735 1705760"
 xmlns:xlink="http://www.w3.org/1999/xlink">
 <defs>
  <style type="text/css">
   <![CDATA[
    .fil1 {fill:#5B5B5B}
    .fil2 {fill:#FEFEFE}
    .fil0 {fill:#FFF7B2}
    .fil3 {fill:#5B5B5B;fill-rule:nonzero}
   ]]>
  </style>
 </defs>
 <g id="Слой_x0020_1">
  <metadata id="CorelCorpID_0Corel-Layer"/>
  <g id="_995885248">
   <g>
    <polygon class="fil0" points="0,1675828 0,340910 0,256598 0,242489 76999,242489 76999,23663 93068,23663 105686,23663 799092,23663 827779,23663 827790,23663 827790,31445 827779,31445 827779,42326 827790,42326 827790,55202 827779,55202 827779,242489 836735,242489 836735,256598 836735,340910 836735,1252332 721822,1252332 721822,1676227 "/>
    <path class="fil1" d="M349361 1470935l32854 -92693 0 -9167 -5646 0 0 -137096 -155243 0 0 -681 -9085 0 0 -14672 9085 0 0 -834 157145 0 332412 0 26668 0 50378 0 0 -209964 -17724 0 0 -3932 17724 0 0 -661021 -232547 0 0 -40718 -171465 0 0 -19086 -158811 0 0 13792 153999 24450 -622 3873 -153377 -24356 0 1327 -15095 0 0 40718 -161206 0 0 875751 10647 0 135993 -32854 833 3850 -136721 33006 0 10670 -10752 0 0 398284 137590 -106 199 28758 11104 0 0 14672 -11104 0 0 3321 -137789 -434 -48805 0 0 -1334918 0 -84312 0 -14121 63219 0 0 -242442 16069 0 12618 0 707186 0 28687 0 11 0 0 7782 -11 0 0 10881 11 0 0 12876 -11 0 0 210903 8956 0 0 14121 0 84312 0 1335352 -10752 0 -38054 0 -413343 0 0 -3321 -10306 0 -149773 32854 -834 -3850 150501 -33007 0 -10669 10412 0 0 -28793 1983 0 0 -135594 5646 0 0 -6115 14672 0 0 6115 6350 0 0 135594 307646 0 0 -94583 0 -73337 0 -172392 0 -49533 -307646 0 0 129479 -6350 0 0 9273 -10669 0 -33007 93420 -3850 -833zm397451 63923l31257 14450 9860 53171 0 -67621 -41117 0zm41117 89055l-13275 -71765 -37103 -17231 0 94524 50378 0 0 -5528zm-50378 -333891l40518 29661 9860 106003 0 -136557 -50378 0 0 893zm49815 171499l-12712 -138998 -37103 -27654 0 166652 49815 0zm-738197 -459625l0 3932 21210 0 0 -3932 -21210 0zm42420 0l0 3932 21199 0 0 -3932 -21199 0zm42409 0l0 3932 21210 0 0 -3932 -21210 0zm42420 0l0 3932 21198 0 0 -3932 -21198 0zm42408 0l0 3932 21210 0 0 -3932 -21210 0zm42420 0l0 3932 21199 0 0 -3932 -21199 0zm42409 0l0 3932 21210 0 0 -3932 -21210 0zm42408 0l0 3932 21210 0 0 -3932 -21210 0zm42420 0l0 3932 21210 0 0 -3932 -21210 0zm42408 0l0 3932 21210 0 0 -3932 -21210 0zm42421 0l0 3932 21210 0 0 -3932 -21210 0zm42408 0l0 3932 21210 0 0 -3932 -21210 0zm42420 0l0 3932 21210 0 0 -3932 -21210 0zm42408 0l0 3932 21210 0 0 -3932 -21210 0zm42420 0l0 3932 21210 0 0 -3932 -21210 0zm42409 0l0 3932 21210 0 0 -3932 -21210 0zm42420 0l0 3932 21198 0 0 -3932 -21198 0zm-172415 -727304l-171465 0 -158811 0 -15095 0 0 -32150 -118105 0 0 -210903 707186 0 0 210903 -243710 0 0 32150zm-463476 -255929l707186 0 0 -10881 -707186 0 0 10881z"/>
   </g>
   <g>
    <polygon class="fil2" points="452266,371182 757388,371182 757388,607403 452266,607403 "/>
    <path class="fil3" d="M557893 371182l4813 0 194682 0 0 75579 0 9472 0 66119 0 9460 0 75591 -194682 0 -9625 0 -100815 0 0 -236221 4824 0 95991 0 4812 0zm-4812 226749l0 -66119 0 -9460 0 -66119 0 -9472 0 -66119 -91179 0 0 217289 91179 0zm194682 -66119l-185057 0 0 66119 185057 0 0 -66119zm0 -75579l-185057 0 0 66119 185057 0 0 -66119zm0 -75591l-185057 0 0 66119 185057 0 0 -66119z"/>
    <path class="fil3" d="M489099 524324c0,1056 -305,1925 -963,2570 -610,552 -1432,834 -2429,834 -893,0 -1691,-282 -2371,-846 -681,-563 -1022,-1432 -1022,-2558l0 -53196 -7829 7829c-680,681 -1455,1033 -2347,1033 -810,0 -1608,-352 -2371,-1033 -716,-716 -1080,-1526 -1080,-2441 0,-787 352,-1561 1033,-2348l13592 -13686c458,-469 939,-833 1420,-1115 482,-270 1010,-411 1597,-411 563,0 1209,341 1948,1033 540,704 822,1679 822,2876l0 61459zm27771 3404l-9519 0c-2054,0 -3838,-740 -5341,-2219 -1502,-1467 -2253,-3263 -2253,-5387l0 -22795c0,-2113 739,-3909 2206,-5388 1479,-1467 3275,-2206 5388,-2206l9519 0c517,0 963,187 1338,575 376,387 552,833 552,1314 0,435 -153,845 -470,1268 -328,411 -798,610 -1432,610l-9519 0c-1068,0 -1972,364 -2723,1092 -364,364 -634,775 -810,1232 -176,470 -270,963 -270,1491l0 22830c0,1068 352,1972 1080,2723 387,317 798,587 1232,810 540,176 1033,270 1491,270l9519 0c529,0 975,200 1350,587 376,375 552,822 552,1303 0,434 -153,857 -470,1267 -328,423 -798,623 -1420,623zm18968 -34228l-7594 0c-575,0 -1056,-164 -1409,-504 -328,-411 -492,-881 -492,-1374 0,-446 152,-857 469,-1279 317,-411 798,-610 1432,-610l18980 0c528,0 962,187 1338,575 376,387 552,833 552,1314 0,435 -153,845 -470,1268 -317,411 -798,610 -1420,610l-7606 0 0 32326c0,599 -176,1080 -540,1444 -340,305 -798,458 -1350,458 -493,0 -939,-153 -1326,-470 -376,-329 -564,-798 -564,-1432l0 -32326z"/>
    <path class="fil3" d="M609117 433967c0,692 -200,1244 -622,1655 -399,364 -916,540 -1561,540 -576,0 -1092,-176 -1526,-540 -435,-364 -658,-928 -658,-1655l0 -34192 -5035 5035c-434,435 -939,658 -1502,658 -529,0 -1033,-223 -1526,-658 -470,-469 -705,-986 -705,-1573 0,-504 235,-1009 669,-1514l8745 -8791c293,-306 599,-540 904,-716 317,-176 657,-270 1033,-270 364,0 774,223 1244,657 352,458 540,1080 540,1855l0 39509zm29109 -24779l-14179 22607 13604 0c611,0 1115,235 1550,681 422,434 645,951 645,1502 0,505 -188,986 -551,1468 -376,481 -916,716 -1644,716l-17548 0c-1584,0 -2371,-587 -2371,-1749 0,-470 176,-1010 529,-1644l16198 -25834c551,-1151 821,-2242 821,-3299 0,-1878 -728,-3509 -2195,-4894 -692,-646 -1502,-1150 -2418,-1526 -915,-376 -1913,-563 -2969,-563 -1115,0 -2184,281 -3193,868 -1033,657 -1878,1491 -2547,2500 -164,282 -458,540 -845,798l-974 212c-552,0 -1080,-200 -1550,-611 -469,-410 -704,-903 -704,-1514 0,-293 129,-716 376,-1256 997,-1561 2359,-2840 4084,-3838 834,-481 1679,-857 2524,-1115 857,-270 1690,-411 2512,-411 3427,0 6326,1127 8697,3404 2371,2265 3557,4965 3557,8111 0,1796 -470,3592 -1409,5387zm10365 24790c0,-598 211,-1115 634,-1537 434,-423 939,-646 1537,-646 481,0 963,223 1456,646 481,422 727,939 727,1537 0,529 -211,1022 -633,1479 -435,470 -951,705 -1550,705 -610,0 -1150,-212 -1584,-658 -399,-457 -587,-962 -587,-1526zm17501 -37325l0 2206c0,693 -200,1256 -622,1679 -388,352 -916,540 -1562,540 -575,0 -1079,-188 -1525,-552 -435,-376 -646,-916 -646,-1655l0 -4390c0,-1467 728,-2195 2195,-2195l17560 0c1479,0 2218,599 2218,1808l-129 939 -10951 39509c-71,434 -317,810 -728,1138 -423,317 -869,482 -1350,482 -646,0 -1174,-176 -1596,-540 -411,-376 -622,-892 -622,-1561 0,-317 23,-529 94,-658l10176 -36750 -12512 0zm46094 26421l4378 0c610,0 1127,223 1549,681 435,434 646,951 646,1502 0,505 -176,986 -540,1468 -364,481 -927,716 -1655,716l-4378 0 0 6537c0,681 -200,1245 -622,1644 -399,364 -916,540 -1562,540 -575,0 -1091,-176 -1525,-540 -446,-364 -658,-916 -658,-1644l0 -6537 -13181 0c-1514,0 -2289,-587 -2289,-1773l70 -540 130 -505 8768 -30729c117,-446 363,-845 751,-1197l411 -223c246,-129 516,-188 845,-188 634,0 1174,211 1584,634 470,387 705,904 705,1538l-106 645 -7982 27971 10294 0 0 -6596c0,-576 212,-1116 658,-1620 434,-376 950,-575 1525,-575 552,0 1069,187 1503,551 458,376 681,916 681,1644l0 6596z"/>
    <path class="fil3" d="M611817 484955l-14180 22607 13604 0c611,0 1115,235 1550,681 422,434 645,951 645,1502 0,505 -187,986 -551,1468 -376,481 -916,716 -1644,716l-17548 0c-1584,0 -2371,-587 -2371,-1749 0,-470 177,-1010 529,-1644l16198 -25834c551,-1151 821,-2242 821,-3299 0,-1878 -727,-3509 -2195,-4894 -692,-646 -1502,-1151 -2418,-1526 -915,-376 -1913,-564 -2969,-564 -1115,0 -2183,282 -3193,869 -1033,657 -1878,1491 -2547,2500 -164,282 -458,540 -845,798l-974 212c-552,0 -1080,-200 -1550,-611 -469,-411 -704,-904 -704,-1514 0,-293 129,-716 376,-1256 997,-1561 2359,-2840 4084,-3838 834,-481 1679,-857 2524,-1115 857,-270 1690,-411 2512,-411 3427,0 6327,1127 8698,3404 2371,2265 3556,4965 3556,8111 0,1796 -469,3591 -1408,5387zm21151 -12477l-8792 0c-669,0 -1209,-199 -1631,-622 -364,-434 -564,-962 -564,-1561 0,-517 200,-1010 576,-1467 387,-482 939,-716 1619,-716l8780 0c3428,0 6162,1115 8205,3345 1843,2101 2758,4613 2758,7559 0,1772 -340,3392 -1044,4883 -693,1479 -1761,2805 -3205,4002 1209,963 2219,2207 3028,3745 822,1526 1221,3181 1221,4930l0 4378c0,3005 -1080,5575 -3228,7735 -2148,2160 -4730,3240 -7735,3240l-8780 0c-669,0 -1209,-188 -1631,-587 -364,-482 -564,-1021 -564,-1597 0,-504 188,-986 552,-1467 376,-481 916,-716 1655,-716l8792 0c1807,0 3357,-634 4648,-1925 1291,-1291 1936,-2840 1936,-4671l0 -4390c0,-1796 -633,-3346 -1901,-4637 -1268,-1291 -2841,-1948 -4695,-1948l-4402 0c-669,0 -1220,-188 -1631,-587 -376,-481 -564,-1021 -564,-1596 0,-505 176,-986 552,-1468 364,-481 904,-716 1643,-716l4402 0c1937,0 3545,-704 4801,-2101 1068,-1256 1596,-2793 1596,-4613 0,-1784 -505,-3251 -1538,-4425 -1162,-1338 -2793,-2007 -4859,-2007zm19907 37267c0,-598 211,-1115 634,-1537 434,-423 939,-646 1538,-646 481,0 962,223 1455,646 481,422 728,939 728,1537 0,529 -212,1022 -634,1479 -434,470 -951,705 -1549,705 -611,0 -1151,-212 -1585,-658 -399,-457 -587,-962 -587,-1526zm32901 -10904l4378 0c610,0 1127,223 1549,681 435,434 646,951 646,1502 0,505 -176,986 -540,1467 -364,482 -927,716 -1655,716l-4378 0 0 6538c0,681 -200,1245 -622,1644 -399,364 -916,540 -1561,540 -576,0 -1092,-176 -1526,-540 -446,-364 -658,-916 -658,-1644l0 -6538 -13181 0c-1514,0 -2289,-586 -2289,-1772l71 -540 129 -505 8768 -30729c117,-446 364,-845 751,-1197l411 -223c246,-129 516,-188 845,-188 634,0 1174,211 1584,634 470,387 705,904 705,1537l-106 646 -7982 27971 10294 0 0 -6597c0,-575 212,-1115 658,-1619 434,-376 950,-576 1526,-576 551,0 1068,188 1502,552 458,376 681,916 681,1643l0 6597zm35647 -13886l-14179 22607 13604 0c610,0 1115,235 1550,681 422,434 645,951 645,1502 0,505 -188,986 -552,1468 -375,481 -915,716 -1643,716l-17548 0c-1584,0 -2371,-587 -2371,-1749 0,-470 176,-1010 528,-1644l16198 -25834c552,-1151 822,-2242 822,-3299 0,-1878 -728,-3509 -2195,-4894 -692,-646 -1502,-1151 -2418,-1526 -915,-376 -1913,-564 -2969,-564 -1116,0 -2184,282 -3193,869 -1033,657 -1878,1491 -2547,2500 -165,282 -458,540 -845,798l-975 212c-551,0 -1079,-200 -1549,-611 -469,-411 -704,-904 -704,-1514 0,-293 129,-716 375,-1256 998,-1561 2360,-2840 4085,-3838 834,-481 1679,-857 2524,-1115 857,-270 1690,-411 2512,-411 3427,0 6326,1127 8697,3404 2371,2265 3557,4965 3557,8111 0,1796 -470,3591 -1409,5387z"/>
    <path class="fil3" d="M609633 560488l-14179 22606 13604 0c611,0 1115,235 1550,681 422,434 645,951 645,1503 0,504 -188,986 -552,1467 -375,481 -915,716 -1643,716l-17548 0c-1584,0 -2371,-587 -2371,-1749 0,-470 176,-1010 528,-1643l16199 -25835c551,-1150 821,-2242 821,-3298 0,-1878 -728,-3510 -2195,-4895 -692,-646 -1502,-1150 -2418,-1526 -915,-376 -1913,-563 -2969,-563 -1116,0 -2184,281 -3193,868 -1033,658 -1878,1491 -2547,2500 -164,282 -458,540 -845,799l-975 211c-551,0 -1079,-200 -1549,-611 -469,-410 -704,-903 -704,-1514 0,-293 129,-716 375,-1256 998,-1561 2360,-2840 4085,-3838 834,-481 1679,-857 2524,-1115 857,-270 1690,-411 2512,-411 3427,0 6326,1127 8697,3404 2371,2266 3557,4965 3557,8111 0,1796 -470,3592 -1409,5388zm30119 13885l4378 0c611,0 1127,223 1550,681 434,434 645,951 645,1502 0,505 -176,986 -540,1468 -363,481 -927,716 -1655,716l-4378 0 0 6538c0,680 -199,1244 -622,1643 -399,364 -915,540 -1561,540 -575,0 -1092,-176 -1526,-540 -446,-364 -657,-916 -657,-1643l0 -6538 -13182 0c-1514,0 -2288,-587 -2288,-1773l70 -540 129 -504 8768 -30730c118,-446 364,-845 751,-1197l411 -223c247,-129 517,-188 845,-188 634,0 1174,211 1585,634 469,387 704,904 704,1538l-105 645 -7982 27971 10294 0 0 -6596c0,-576 211,-1115 657,-1620 434,-376 951,-575 1526,-575 552,0 1068,187 1502,551 458,376 681,916 681,1644l0 6596zm15318 10905c0,-599 211,-1116 634,-1538 434,-423 939,-646 1537,-646 482,0 963,223 1456,646 481,422 728,939 728,1538 0,528 -212,1021 -634,1479 -434,469 -951,704 -1550,704 -610,0 -1150,-212 -1584,-658 -399,-457 -587,-962 -587,-1525zm17595 -19755l-94 2195 0 10986c0,1233 422,2278 1268,3146 434,376 903,681 1408,939 634,200 1209,305 1737,305l4402 0c1221,0 2254,-399 3110,-1220 869,-822 1292,-1878 1292,-3170l0 -8791c0,-1233 -411,-2277 -1245,-3122 -833,-845 -1878,-1268 -3157,-1268l-8721 0zm775 -4366l7934 0c2383,0 4437,856 6174,2558 1737,1702 2606,3780 2606,6210l0 8768c0,2406 -857,4460 -2571,6185 -1725,1714 -3779,2583 -6209,2583l-4390 0c-2359,0 -4413,-845 -6150,-2536 -1749,-1690 -2618,-3767 -2618,-6232l0 -10952c0,-4166 787,-8110 2383,-11855 1080,-2582 2676,-4941 4789,-7078 2101,-2124 4554,-3791 7324,-5000l939 -223c564,0 1080,223 1538,681 376,481 563,1021 563,1608 0,411 -94,763 -281,1068 -188,294 -540,587 -1057,904 -598,223 -1115,469 -1584,704 -470,247 -986,552 -1526,928 -892,610 -1808,1349 -2759,2253 -1702,1714 -3016,3674 -3943,5893l-658 1748 -504 1785zm45225 13216l4378 0c610,0 1127,223 1549,681 435,434 646,951 646,1502 0,505 -176,986 -540,1468 -364,481 -927,716 -1655,716l-4378 0 0 6538c0,680 -200,1244 -622,1643 -399,364 -916,540 -1561,540 -575,0 -1092,-176 -1526,-540 -446,-364 -658,-916 -658,-1643l0 -6538 -13181 0c-1514,0 -2289,-587 -2289,-1773l71 -540 129 -504 8768 -30730c117,-446 364,-845 751,-1197l411 -223c246,-129 516,-188 845,-188 634,0 1174,211 1585,634 469,387 704,904 704,1538l-106 645 -7981 27971 10293 0 0 -6596c0,-576 212,-1115 658,-1620 434,-376 951,-575 1526,-575 551,0 1068,187 1502,551 458,376 681,916 681,1644l0 6596z"/>
   </g>
   <path class="fil3" d="M317928 768867l16010 -15869c376,-341 810,-517 1303,-517 469,0 904,188 1314,575 411,388 623,846 623,1374 0,328 -200,751 -576,1279l-11315 11280 11668 20635 269 1009c0,493 -211,904 -622,1268 -387,376 -845,575 -1396,575 -611,0 -1139,-328 -1597,-997l-11151 -19814 -4530 4449 0 14461c0,598 -176,1080 -540,1443 -341,306 -798,458 -1350,458 -505,0 -951,-152 -1326,-469 -376,-329 -564,-798 -564,-1432l0 -34251c0,-481 188,-915 587,-1291 376,-376 822,-552 1303,-552 481,0 927,141 1326,435 376,316 564,798 564,1408l0 14543zm47444 14003c0,2090 -740,3874 -2219,5364 -1479,1491 -3275,2242 -5364,2242l-7594 0c-2066,0 -3850,-739 -5341,-2218 -1502,-1467 -2254,-3263 -2254,-5388l0 -22794c0,-2113 740,-3909 2207,-5388 1479,-1467 3275,-2207 5388,-2207l7594 0c2101,0 3897,740 5376,2219 1467,1490 2207,3275 2207,5376l0 22794zm-3768 24l0 -22830c0,-1080 -364,-1972 -1080,-2712 -716,-727 -1632,-1103 -2735,-1103l-7606 0c-1068,0 -1972,364 -2723,1092 -364,364 -634,774 -810,1232 -176,470 -270,963 -270,1491l0 22830c0,1068 352,1972 1080,2723 387,317 798,587 1232,810 540,176 1033,270 1491,270l7606 0c1056,0 1948,-352 2700,-1068 739,-705 1115,-1620 1115,-2735zm41023 5681c0,598 -164,1080 -505,1443 -364,306 -833,458 -1385,458 -434,0 -857,-152 -1267,-469 -423,-329 -623,-798 -623,-1432l0 -27114 -7852 13122c-470,822 -1021,1221 -1655,1221 -552,0 -1092,-399 -1643,-1221l-7900 -13122 0 27114c0,598 -176,1080 -540,1443 -340,306 -798,458 -1350,458 -504,0 -950,-152 -1326,-469 -376,-317 -563,-798 -563,-1432l0 -34016c0,-716 187,-1256 540,-1620 328,-376 727,-575 1197,-575 340,0 645,94 915,270 270,188 564,505 869,951l9801 16280 9754 -16280c434,-810 1045,-1221 1819,-1221 435,0 845,199 1221,599 329,410 493,950 493,1596l0 34016zm26574 -20882l0 -13322c0,-505 176,-951 564,-1326 375,-388 821,-564 1314,-564 481,0 928,153 1315,470 387,317 575,798 575,1420l0 34157c0,540 -188,1021 -587,1432 -458,340 -892,516 -1326,516 -458,0 -904,-152 -1327,-458 -352,-305 -528,-786 -528,-1420l0 -17125 -15224 0 0 17102c0,598 -176,1080 -540,1443 -340,306 -798,458 -1349,458 -505,0 -951,-152 -1327,-469 -375,-317 -563,-798 -563,-1432l0 -34180c0,-505 188,-975 563,-1409 376,-329 822,-493 1327,-493 481,0 927,164 1302,481 388,317 587,787 587,1432l0 13287 15224 0zm18041 13287l-2747 8193c-140,399 -375,716 -704,975 -246,164 -598,270 -1021,328 -516,0 -951,-188 -1338,-551 -411,-317 -622,-752 -622,-1292l129 -680 11432 -34181c376,-1079 975,-1631 1785,-1631 809,0 1408,552 1784,1631l11374 34181 140 680c0,493 -211,928 -633,1327 -400,340 -846,516 -1327,516 -258,0 -528,-70 -857,-199 -317,-118 -610,-482 -880,-1104l-2735 -8193 -13780 0zm12512 -3896l-5598 -16715 -5611 16715 11209 0zm16903 -20835l-7595 0c-575,0 -1056,-164 -1408,-505 -329,-410 -493,-880 -493,-1373 0,-446 153,-857 469,-1279 317,-411 799,-611 1432,-611l18980 0c529,0 963,188 1338,575 376,388 552,834 552,1315 0,434 -152,845 -469,1268 -317,411 -799,610 -1421,610l-7606 0 0 32326c0,598 -176,1080 -540,1443 -340,306 -798,458 -1349,458 -493,0 -939,-152 -1327,-469 -375,-329 -563,-798 -563,-1432l0 -32326zm19954 24731l-2747 8193c-141,399 -375,716 -704,975 -247,164 -599,270 -1021,328 -517,0 -951,-188 -1338,-551 -411,-317 -622,-752 -622,-1292l129 -680 11432 -34181c376,-1079 974,-1631 1784,-1631 810,0 1409,552 1785,1631l11373 34181 141 680c0,493 -211,928 -634,1327 -399,340 -845,516 -1326,516 -258,0 -528,-70 -857,-199 -317,-118 -610,-482 -880,-1104l-2735 -8193 -13780 0zm12512 -3896l-5599 -16715 -5610 16715 11209 0zm-135559 56622c0,599 -176,1080 -539,1444 -341,305 -787,458 -1350,458 -493,0 -939,-153 -1327,-470 -375,-317 -563,-798 -563,-1432l0 -29614 -4355 4355c-387,387 -821,575 -1314,575 -446,0 -892,-188 -1315,-575 -399,-399 -610,-845 -610,-1362 0,-434 199,-868 575,-1303l7582 -7618c247,-258 517,-457 787,-622 270,-152 563,-234 880,-234 317,0 681,199 1092,575 305,399 457,939 457,1608l0 34215zm25213 -21456l-12278 19578 11785 0c528,0 963,200 1338,587 376,376 552,822 552,1303 0,434 -153,857 -470,1268 -328,422 -798,622 -1420,622l-15200 0c-1374,0 -2054,-505 -2054,-1514 0,-399 152,-881 457,-1421l14039 -22383c469,-986 692,-1937 692,-2853 0,-1620 -622,-3028 -1890,-4237 -598,-552 -1302,-998 -2101,-1326 -786,-317 -1655,-493 -2570,-493 -963,0 -1890,258 -2770,763 -881,563 -1620,1291 -2195,2171 -141,235 -399,458 -740,681l-845 188c-481,0 -927,-176 -1338,-529 -411,-352 -610,-786 -610,-1314 0,-247 117,-622 328,-1080 869,-1362 2043,-2465 3533,-3334 728,-410 1456,-739 2195,-962 740,-235 1468,-352 2172,-352 2970,0 5481,974 7535,2934 2055,1972 3076,4308 3076,7031 0,1561 -399,3111 -1221,4672zm8979 21468c0,-516 188,-963 552,-1338 376,-364 822,-552 1338,-552 411,0 834,188 1256,552 423,375 634,822 634,1338 0,458 -188,880 -563,1279 -364,411 -810,611 -1327,611 -540,0 -998,-188 -1385,-564 -340,-399 -505,-845 -505,-1326zm15166 -32337l0 1925c0,598 -177,1079 -540,1455 -341,305 -799,458 -1350,458 -505,0 -951,-153 -1327,-470 -375,-328 -563,-798 -563,-1432l0 -3814c0,-1268 634,-1890 1901,-1890l15213 0c1279,0 1925,516 1925,1561l-118 810 -9484 34215c-59,376 -270,704 -634,998 -364,270 -751,411 -1162,411 -563,0 -1021,-153 -1385,-470 -364,-328 -540,-774 -540,-1350 0,-270 24,-457 82,-575l8815 -31832 -10833 0zm39919 22888l3792 0c528,0 974,200 1338,587 375,387 563,822 563,1303 0,434 -164,857 -469,1268 -317,422 -798,622 -1432,622l-3792 0 0 5669c0,599 -176,1080 -539,1432 -341,305 -799,458 -1350,458 -505,0 -951,-153 -1327,-470 -375,-317 -563,-786 -563,-1420l0 -5669 -11421 0c-1314,0 -1984,-505 -1984,-1538l59 -458 118 -434 7582 -26621c117,-376 329,-728 657,-1033l353 -188c211,-117 457,-164 739,-164 552,0 1009,176 1373,540 399,340 599,786 599,1338l-82 563 -6914 24215 8921 0 0 -5704c0,-505 188,-975 563,-1409 376,-329 822,-493 1327,-493 481,0 927,153 1303,470 387,328 586,798 586,1432l0 5704z"/>
   <path class="fil3" d="M164328 1059563l16010 -15869c376,-340 810,-517 1303,-517 470,0 904,188 1315,576 411,387 622,845 622,1373 0,329 -200,751 -575,1279l-11315 11280 11667 20635 270 1010c0,493 -212,903 -622,1267 -388,376 -845,575 -1397,575 -610,0 -1139,-328 -1596,-997l-11151 -19814 -4531 4449 0 14461c0,599 -176,1080 -540,1444 -340,305 -798,457 -1350,457 -505,0 -951,-152 -1326,-469 -376,-329 -564,-798 -564,-1432l0 -34251c0,-481 188,-915 587,-1291 376,-375 822,-552 1303,-552 481,0 927,141 1327,435 375,317 563,798 563,1408l0 14543zm45601 6386l-11409 0c-2054,0 -3838,-740 -5341,-2207 -1502,-1479 -2253,-3275 -2253,-5388l0 -13287c0,-504 187,-962 563,-1408 376,-317 822,-482 1326,-482 482,0 928,153 1303,470 388,317 587,798 587,1420l0 13311c0,1068 352,1972 1080,2711 387,329 798,599 1233,810 539,176 1032,270 1490,270l11421 0 0 -17102c0,-504 176,-962 563,-1408 376,-317 822,-482 1315,-482 481,0 927,153 1315,470 387,317 575,798 575,1420l0 28499c0,2090 -740,3874 -2219,5365 -1479,1490 -3263,2241 -5364,2241l-9496 0c-575,0 -1044,-176 -1408,-540 -329,-375 -493,-833 -493,-1349 0,-458 164,-881 505,-1280 340,-399 798,-610 1396,-610l9508 0c1045,0 1948,-352 2688,-1068 739,-705 1115,-1620 1115,-2747l0 -7629zm24673 -7219l9789 -14743c164,-246 387,-469 681,-645l399 -165 458 0c493,0 950,177 1385,564 399,399 598,845 598,1361 0,317 -117,669 -328,1057l-10670 16010 10670 16022 246 563 82 517c0,493 -199,927 -587,1315 -387,387 -857,586 -1420,586 -599,0 -1103,-281 -1514,-868l-9789 -14684 -9778 14684c-141,235 -387,458 -739,669l-834 199c-399,0 -833,-199 -1326,-575 -423,-364 -622,-821 -622,-1350 0,-328 105,-680 317,-1056l10681 -16022 -10728 -16010 -270 -564 0 -528c0,-481 188,-927 587,-1314 387,-388 857,-576 1420,-576 599,0 1103,282 1514,869l9778 14684zm39884 -340l0 -13323c0,-504 176,-951 564,-1326 375,-387 821,-564 1314,-564 482,0 928,153 1315,470 387,317 575,798 575,1420l0 34157c0,540 -188,1021 -587,1432 -457,340 -892,516 -1326,516 -458,0 -904,-152 -1326,-457 -353,-306 -529,-787 -529,-1421l0 -17125 -15223 0 0 17102c0,599 -176,1080 -540,1444 -341,305 -799,457 -1350,457 -505,0 -951,-152 -1327,-469 -375,-317 -563,-798 -563,-1432l0 -34180c0,-505 188,-975 563,-1409 376,-328 822,-493 1327,-493 481,0 927,165 1303,481 387,317 587,787 587,1432l0 13288 15223 0zm30378 3779l0 -15224 -11421 0c-1068,0 -1972,364 -2723,1092 -364,364 -634,775 -810,1232 -176,470 -270,963 -270,1491l0 7606c0,1068 352,1972 1080,2723 387,329 798,599 1232,810 540,176 1033,270 1491,270l11421 0zm-6538 3780l-8968 14320c-376,610 -892,903 -1514,903 -493,0 -939,-199 -1338,-598 -434,-388 -646,-822 -646,-1327 0,-375 106,-727 294,-1032l7676 -12266 -375 0c-2055,0 -3850,-740 -5341,-2207 -1503,-1479 -2254,-3275 -2254,-5388l0 -7594c0,-2101 740,-3897 2207,-5376 1479,-1467 3275,-2207 5388,-2207l13287 0c1267,0 1889,623 1889,1890l0 34204c0,599 -176,1080 -528,1444 -352,305 -798,457 -1361,457 -493,0 -939,-152 -1315,-469 -387,-329 -563,-798 -563,-1432l0 -13322 -6538 0zm35025 3779l-15200 0c-575,0 -1045,-176 -1409,-540 -317,-375 -493,-833 -493,-1350 0,-457 176,-880 505,-1279 329,-399 810,-610 1397,-610l15200 0c528,0 963,199 1338,587 376,375 552,821 552,1302 0,435 -153,857 -470,1268 -328,423 -798,622 -1420,622zm28476 -11338l0 -13323c0,-504 176,-951 563,-1326 376,-387 822,-564 1315,-564 481,0 927,153 1314,470 388,317 576,798 576,1420l0 34157c0,540 -188,1021 -587,1432 -458,340 -892,516 -1327,516 -457,0 -904,-152 -1326,-457 -352,-306 -528,-787 -528,-1421l0 -17125 -15224 0 0 17102c0,599 -176,1080 -540,1444 -340,305 -798,457 -1350,457 -505,0 -951,-152 -1326,-469 -376,-317 -564,-798 -564,-1432l0 -34180c0,-505 188,-975 564,-1409 375,-328 821,-493 1326,-493 481,0 927,165 1303,481 387,317 587,787 587,1432l0 13288 15224 0zm34145 20881c0,599 -176,1080 -528,1444 -353,305 -799,457 -1362,457 -493,0 -939,-152 -1315,-469 -387,-317 -563,-798 -563,-1432l0 -26844 -15423 27771c-223,388 -493,693 -846,916l-399 234c-129,59 -328,106 -598,153 -364,-12 -775,-199 -1244,-575 -329,-387 -493,-927 -493,-1632l0 -34192c0,-516 187,-986 563,-1420 376,-328 822,-493 1326,-493 482,0 928,165 1303,481 388,317 587,787 587,1432l0 26845 15412 -27760c188,-305 457,-610 821,-916 341,-270 681,-399 1022,-399 422,0 809,223 1162,634 387,376 575,904 575,1573l0 34192zm24661 -1878l9495 0 0 -32326c0,-493 188,-962 564,-1408 387,-317 833,-482 1326,-482 470,0 904,153 1327,458 375,329 563,810 563,1432l0 34204c0,1268 -634,1901 -1901,1901l-26528 0c-1279,0 -1901,-633 -1901,-1901l0 -34204c0,-504 188,-962 563,-1408 376,-317 822,-482 1327,-482 481,0 927,153 1302,470 388,317 587,798 587,1420l0 32326 9496 0 0 -32326c0,-493 188,-962 564,-1408 375,-317 821,-482 1326,-482 481,0 927,153 1303,470 387,317 587,798 587,1420l0 32326zm27595 -5716l-2747 8193c-140,399 -375,716 -704,974 -246,164 -598,270 -1021,328 -517,0 -951,-187 -1338,-551 -411,-317 -622,-751 -622,-1291l129 -681 11432 -34180c376,-1080 975,-1632 1785,-1632 809,0 1408,552 1784,1632l11374 34180 140 681c0,493 -211,927 -633,1326 -400,340 -846,516 -1327,516 -258,0 -528,-70 -857,-199 -317,-117 -610,-481 -880,-1103l-2735 -8193 -13780 0zm12512 -3897l-5598 -16715 -5611 16715 11209 0zm-172943 47185l3791 0c528,0 974,200 1338,587 376,388 564,822 564,1303 0,434 -165,857 -470,1268 -317,422 -798,622 -1432,622l-3791 0 0 5669c0,599 -176,1080 -540,1432 -340,305 -798,458 -1350,458 -505,0 -951,-153 -1326,-470 -376,-316 -564,-786 -564,-1420l0 -5669 -11420 0c-1315,0 -1984,-505 -1984,-1538l59 -458 117 -434 7583 -26621c117,-376 328,-728 657,-1033l352 -188c211,-117 458,-164 740,-164 551,0 1009,176 1373,540 399,340 598,786 598,1338l-82 563 -6913 24215 8920 0 0 -5704c0,-505 188,-974 564,-1409 375,-328 821,-493 1326,-493 481,0 927,153 1303,470 387,328 587,798 587,1432l0 5704zm13264 9449c0,-516 187,-962 551,-1338 376,-364 822,-552 1338,-552 411,0 834,188 1256,552 423,376 634,822 634,1338 0,458 -188,880 -563,1280 -364,410 -810,610 -1327,610 -540,0 -997,-188 -1385,-563 -340,-400 -504,-846 -504,-1327zm30389 -6467c0,2253 -810,4214 -2430,5880 -1620,1655 -3604,2477 -5939,2477l-2278 0c-2253,0 -4225,-810 -5880,-2418 -1655,-1608 -2477,-3592 -2477,-5939l0 -21281c0,-2218 810,-4178 2442,-5857 1631,-1667 3603,-2500 5915,-2500l2278 0c2265,0 4225,798 5880,2418 1655,1620 2489,3603 2489,5939l0 21281zm-3780 11l0 -21315c0,-1244 -446,-2324 -1326,-3216 -881,-904 -1961,-1350 -3252,-1350l-2300 0c-1245,0 -2324,446 -3216,1338 -904,892 -1350,1960 -1350,3228l0 21315c0,1256 446,2324 1326,3228 892,892 1972,1338 3240,1338l2300 0c1233,0 2301,-434 3216,-1302 904,-869 1362,-1961 1362,-3264zm15142 -25881l0 1925c0,598 -176,1080 -540,1455 -341,305 -798,458 -1350,458 -505,0 -951,-153 -1327,-470 -375,-328 -563,-798 -563,-1432l0 -3814c0,-1268 634,-1890 1902,-1890l15212 0c1279,0 1925,516 1925,1561l-118 810 -9484 34215c-58,376 -270,705 -634,998 -363,270 -751,411 -1162,411 -563,0 -1021,-153 -1385,-470 -364,-328 -540,-774 -540,-1349 0,-270 24,-458 83,-576l8815 -31832 -10834 0z"/>
   <path class="fil3" d="M432100 1429947l-9519 0c-2054,0 -3838,-740 -5341,-2219 -1502,-1467 -2253,-3263 -2253,-5387l0 -22795c0,-2113 739,-3909 2207,-5387 1478,-1468 3274,-2207 5387,-2207l9519 0c517,0 963,188 1339,575 375,387 551,833 551,1315 0,434 -152,845 -469,1267 -329,411 -798,611 -1432,611l-9520 0c-1068,0 -1972,364 -2723,1091 -364,364 -634,775 -810,1233 -176,469 -270,962 -270,1490l0 22830c0,1068 352,1972 1080,2723 388,317 798,587 1233,810 540,176 1033,270 1490,270l9520 0c528,0 974,200 1350,587 375,376 551,822 551,1303 0,434 -152,857 -469,1268 -329,422 -798,622 -1421,622zm34075 -46822l-20893 53207c-129,294 -352,587 -681,869l-516 246 -517 106c-540,0 -1009,-176 -1408,-517 -399,-340 -599,-798 -599,-1349 0,-294 47,-529 141,-716l20881 -53207c94,-270 317,-552 658,-857l352 -200c223,-106 446,-164 704,-164 540,0 1009,176 1408,516 400,341 599,798 599,1362 0,282 -47,516 -129,704zm28581 31598l-11409 0c-2054,0 -3838,-739 -5340,-2207 -1503,-1479 -2254,-3275 -2254,-5387l0 -13287c0,-505 188,-963 563,-1409 376,-317 822,-481 1327,-481 481,0 927,152 1303,469 387,317 587,799 587,1421l0 13310c0,1068 352,1972 1079,2712 388,328 799,598 1233,809 540,177 1033,270 1491,270l11420 0 0 -17101c0,-505 176,-963 564,-1409 375,-317 821,-481 1314,-481 482,0 928,152 1315,469 387,317 575,799 575,1421l0 28499c0,2089 -739,3873 -2218,5364 -1479,1491 -3263,2242 -5364,2242l-9496 0c-575,0 -1045,-176 -1409,-540 -328,-376 -493,-833 -493,-1350 0,-458 165,-880 505,-1279 340,-399 798,-611 1397,-611l9507 0c1045,0 1949,-352 2688,-1068 740,-704 1115,-1620 1115,-2746l0 -7630zm-70426 26187l-7618 0c-575,0 -1044,-176 -1408,-540 -317,-376 -482,-833 -482,-1350 0,-446 165,-880 493,-1279 341,-399 810,-611 1397,-611l7606 0c2970,0 5341,963 7113,2900 1585,1819 2383,3990 2383,6537 0,1538 -293,2947 -904,4238 -598,1279 -1526,2429 -2782,3462 1057,834 1925,1914 2630,3252 704,1314 1056,2746 1056,4260l0 3804c0,2594 -927,4824 -2793,6690 -1855,1866 -4097,2805 -6703,2805l-7606 0c-575,0 -1044,-164 -1408,-504 -317,-423 -482,-881 -482,-1385 0,-435 153,-846 470,-1268 317,-411 798,-622 1432,-622l7618 0c1573,0 2911,-552 4026,-1679 1115,-1103 1667,-2453 1667,-4037l0 -3804c0,-1549 -540,-2899 -1644,-4014 -1091,-1127 -2453,-1690 -4061,-1690l-3803 0c-587,0 -1056,-164 -1420,-505 -329,-422 -493,-880 -493,-1385 0,-434 152,-845 481,-1267 317,-411 786,-623 1432,-623l3803 0c1679,0 3075,-610 4155,-1819 927,-1080 1385,-2418 1385,-3991 0,-1549 -446,-2829 -1326,-3826 -1010,-1162 -2418,-1749 -4214,-1749zm17243 32279c0,-517 188,-963 551,-1339 376,-363 822,-551 1339,-551 410,0 833,188 1255,551 423,376 634,822 634,1339 0,457 -188,880 -563,1279 -364,411 -810,610 -1326,610 -540,0 -998,-187 -1386,-563 -340,-399 -504,-845 -504,-1326zm28992 -21469l-12278 19579 11785 0c528,0 962,199 1338,587 376,375 552,821 552,1303 0,434 -153,856 -470,1267 -328,423 -798,622 -1420,622l-15200 0c-1374,0 -2055,-504 -2055,-1514 0,-399 153,-880 458,-1420l14039 -22384c469,-986 692,-1937 692,-2852 0,-1620 -622,-3029 -1890,-4238 -598,-551 -1303,-997 -2101,-1326 -786,-317 -1655,-493 -2570,-493 -963,0 -1890,258 -2770,763 -881,564 -1620,1291 -2195,2172 -141,234 -399,457 -740,680l-845 188c-481,0 -927,-176 -1338,-528 -411,-352 -610,-786 -610,-1315 0,-246 117,-622 328,-1080 869,-1361 2043,-2464 3533,-3333 728,-411 1456,-740 2195,-963 740,-234 1467,-352 2172,-352 2969,0 5481,975 7535,2935 2054,1972 3076,4308 3076,7031 0,1561 -399,3110 -1221,4671zm26586 0l-12278 19579 11785 0c528,0 962,199 1338,587 376,375 552,821 552,1303 0,434 -153,856 -470,1267 -329,423 -798,622 -1420,622l-15201 0c-1373,0 -2054,-504 -2054,-1514 0,-399 153,-880 458,-1420l14038 -22384c470,-986 693,-1937 693,-2852 0,-1620 -622,-3029 -1890,-4238 -598,-551 -1303,-997 -2101,-1326 -786,-317 -1655,-493 -2570,-493 -963,0 -1890,258 -2770,763 -881,564 -1620,1291 -2195,2172 -141,234 -400,457 -740,680l-845 188c-481,0 -927,-176 -1338,-528 -411,-352 -610,-786 -610,-1315 0,-246 117,-622 328,-1080 869,-1361 2043,-2464 3533,-3333 728,-411 1456,-740 2195,-963 740,-234 1467,-352 2172,-352 2969,0 5481,975 7535,2935 2054,1972 3076,4308 3076,7031 0,1561 -400,3110 -1221,4671z"/>
   <path class="fil3" d="M200914 1561574c599,0 1080,176 1444,528 305,352 458,798 458,1361 0,493 -153,939 -470,1315 -328,387 -798,563 -1432,563l-32325 0 0 15224 32325 0c599,0 1080,176 1444,540 305,340 458,798 458,1350 0,505 -153,951 -470,1326 -316,376 -798,564 -1432,564l-34203 0c-1268,0 -1890,-622 -1890,-1902l0 -18980c0,-1267 622,-1889 1890,-1889l34203 0zm-17101 -11386l0 -11409c0,-1057 -353,-1949 -1057,-2700 -704,-739 -1620,-1115 -2746,-1115l-7606 0c-1080,0 -1972,364 -2712,1080 -728,716 -1103,1632 -1103,2735l0 11409 15224 0zm3779 0l13322 0c599,0 1080,176 1444,540 305,340 458,798 458,1350 0,504 -153,950 -470,1326 -316,376 -798,563 -1432,563l-34203 0c-1268,0 -1890,-622 -1890,-1901l0 -13287c0,-2101 739,-3897 2218,-5376 1479,-1467 3275,-2207 5365,-2207l7594 0c2089,0 3862,740 5352,2219 1491,1490 2242,3275 2242,5376l0 11397zm13322 -49369c599,0 1080,176 1444,528 305,352 458,798 458,1362 0,493 -153,939 -470,1315 -316,387 -798,563 -1432,563l-26844 0 27772 15423c387,223 692,493 915,845l235 399c59,130 106,329 153,599 -12,364 -200,775 -576,1244 -387,329 -927,493 -1631,493l-34192 0c-517,0 -986,-188 -1420,-563 -329,-376 -493,-822 -493,-1326 0,-482 164,-928 481,-1303 317,-388 786,-587 1432,-587l26844 0 -27760 -15412c-305,-188 -610,-458 -915,-822 -270,-340 -399,-680 -399,-1021 0,-422 223,-810 634,-1162 375,-387 903,-575 1572,-575l34192 0zm-20541 -20905l-14742 -9789c-247,-164 -470,-387 -646,-681l-164 -399 0 -458c0,-493 176,-950 563,-1385 399,-399 845,-598 1362,-598 317,0 669,117 1056,328l16011 10670 16022 -10670 563 -246 516 -82c493,0 928,199 1315,587 387,387 587,856 587,1420 0,598 -282,1103 -869,1514l-14684 9789 14684 9778c235,141 458,387 669,739l200 834c0,399 -200,833 -575,1326 -364,423 -822,622 -1350,622 -329,0 -681,-106 -1056,-317l-16022 -10681 -16011 10728 -563 270 -528 0c-482,0 -928,-188 -1315,-587 -387,-387 -575,-857 -575,-1420 0,-599 282,-1103 869,-1514l14683 -9778zm14837 -41727c2089,0 3873,739 5364,2218 1491,1479 2242,3275 2242,5364l0 7595c0,2065 -740,3850 -2218,5340 -1468,1503 -3264,2254 -5388,2254l-22795 0c-2113,0 -3908,-740 -5387,-2207 -1468,-1479 -2207,-3275 -2207,-5387l0 -7595c0,-2101 739,-3897 2218,-5376 1491,-1467 3275,-2206 5376,-2206l22795 0zm23 3767l-22829 0c-1080,0 -1972,364 -2712,1080 -728,716 -1103,1632 -1103,2735l0 7606c0,1068 364,1972 1091,2723 364,364 775,634 1233,810 469,176 962,270 1491,270l22829 0c1069,0 1972,-352 2724,-1080 316,-387 586,-798 809,-1232 176,-540 270,-1033 270,-1491l0 -7606c0,-1056 -352,-1948 -1068,-2699 -704,-740 -1620,-1116 -2735,-1116zm-15587 -29602l-13992 -9824c-223,-141 -410,-364 -575,-658 -176,-281 -258,-575 -258,-868 0,-493 176,-951 563,-1385 399,-400 845,-599 1350,-599 376,0 751,141 1115,387l14156 9954 17982 -10071c364,-176 704,-270 1010,-270 434,0 845,199 1232,587 387,387 587,868 587,1432 0,575 -329,1103 -986,1596l-17407 9719 16491 0c599,0 1080,176 1444,540 305,340 458,798 458,1350 0,504 -153,951 -470,1326 -316,376 -798,564 -1432,564l-16432 0 17360 9730c211,164 446,387 704,693l188 469 82 493c0,528 -176,974 -528,1362 -352,399 -810,587 -1338,587 -212,0 -529,-83 -963,-235l-17947 -10095 -14191 9954c-176,141 -551,270 -1138,376 -482,0 -928,-188 -1315,-587 -387,-388 -575,-834 -575,-1362 0,-528 270,-1045 833,-1526l14027 -9859 -12970 0c-493,0 -963,-188 -1409,-564 -317,-375 -481,-822 -481,-1326 0,-481 153,-928 469,-1303 317,-387 799,-587 1421,-587l12935 0zm13674 -27537l8193 2747c399,141 716,376 974,704 165,247 270,599 329,1021 0,517 -188,951 -552,1338 -317,411 -751,623 -1291,623l-681 -130 -34180 -11432c-1080,-376 -1631,-974 -1631,-1784 0,-810 551,-1409 1631,-1784l34180 -11374 681 -141c493,0 927,211 1326,634 341,399 517,845 517,1326 0,258 -70,528 -200,857 -117,317 -481,610 -1103,880l-8193 2735 0 13780zm-3897 -12512l-16714 5599 16714 5610 0 -11209zm-5610 -34004l-15224 0 0 11421c0,1068 364,1971 1091,2723 364,364 775,634 1233,810 469,176 962,270 1491,270l7606 0c1068,0 1971,-353 2723,-1080 328,-388 598,-798 810,-1233 176,-540 270,-1033 270,-1490l0 -11421zm3779 6538l14320 8967c610,376 904,892 904,1514 0,493 -200,939 -599,1339 -387,434 -821,645 -1326,645 -376,0 -728,-106 -1033,-293l-12266 -7677 0 376c0,2054 -739,3850 -2207,5340 -1479,1503 -3274,2254 -5387,2254l-7594 0c-2102,0 -3897,-739 -5376,-2207 -1468,-1479 -2207,-3274 -2207,-5387l0 -13287c0,-1268 622,-1890 1890,-1890l34203 0c599,0 1080,176 1444,528 305,352 458,798 458,1362 0,493 -153,939 -470,1314 -328,388 -798,564 -1432,564l-13322 0 0 6538zm26187 147026l0 7618c0,575 -176,1045 -540,1409 -376,316 -833,481 -1350,481 -446,0 -880,-165 -1279,-493 -399,-341 -611,-810 -611,-1397l0 -7606c0,-2970 963,-5341 2900,-7113 1819,-1585 3990,-2383 6538,-2383 1537,0 2946,294 4237,904 1279,599 2430,1526 3462,2782 834,-1057 1914,-1925 3252,-2629 1314,-705 2746,-1057 4261,-1057l3803 0c2594,0 4824,927 6690,2794 1866,1854 2805,4096 2805,6702l0 7606c0,575 -164,1045 -504,1409 -423,316 -881,481 -1385,481 -435,0 -845,-153 -1268,-470 -411,-317 -622,-798 -622,-1432l0 -7617c0,-1573 -552,-2911 -1679,-4027 -1103,-1115 -2453,-1666 -4037,-1666l-3803 0c-1550,0 -2900,540 -4015,1643 -1127,1092 -1690,2453 -1690,4061l0 3803c0,587 -164,1057 -505,1421 -422,328 -880,493 -1385,493 -434,0 -845,-153 -1267,-482 -411,-317 -622,-786 -622,-1432l0 -3803c0,-1678 -611,-3075 -1820,-4155 -1080,-927 -2418,-1385 -3991,-1385 -1549,0 -2828,446 -3826,1326 -1162,1010 -1749,2418 -1749,4214zm32279 -17242c-517,0 -963,-188 -1338,-552 -364,-376 -552,-822 -552,-1338 0,-411 188,-834 552,-1256 375,-423 821,-634 1338,-634 457,0 880,188 1279,563 411,364 610,810 610,1327 0,540 -187,997 -563,1385 -399,340 -845,505 -1326,505zm-32279 -20729l0 7618c0,575 -176,1044 -540,1408 -376,317 -833,481 -1350,481 -446,0 -880,-164 -1279,-493 -399,-340 -611,-810 -611,-1396l0 -7607c0,-2969 963,-5340 2900,-7113 1819,-1584 3990,-2382 6538,-2382 1537,0 2946,293 4237,903 1279,599 2430,1526 3462,2782 834,-1056 1914,-1925 3252,-2629 1314,-704 2746,-1056 4261,-1056l3803 0c2594,0 4824,927 6690,2793 1866,1855 2805,4097 2805,6702l0 7607c0,575 -164,1044 -504,1408 -423,317 -881,481 -1385,481 -435,0 -845,-152 -1268,-469 -411,-317 -622,-798 -622,-1432l0 -7618c0,-1573 -552,-2911 -1679,-4026 -1103,-1115 -2453,-1667 -4037,-1667l-3803 0c-1550,0 -2900,540 -4015,1644 -1127,1091 -1690,2453 -1690,4061l0 3803c0,587 -164,1056 -505,1420 -422,329 -880,493 -1385,493 -434,0 -845,-153 -1267,-481 -411,-317 -622,-787 -622,-1432l0 -3803c0,-1679 -611,-3076 -1820,-4155 -1080,-928 -2418,-1385 -3991,-1385 -1549,0 -2828,446 -3826,1326 -1162,1009 -1749,2418 -1749,4214zm15165 -32408l-869 -59 -1032 0 -9508 0c-1080,0 -1972,364 -2711,1080 -728,716 -1104,1632 -1104,2735l0 3815c0,1080 364,1983 1092,2723 364,364 775,645 1232,822 470,176 963,270 1491,270l7606 0c1068,0 1972,-353 2723,-1092 329,-376 599,-798 810,-1233 176,-539 270,-1044 270,-1490l0 -7571zm3780 704l0 6867c0,2042 -728,3815 -2195,5329 -1456,1502 -3263,2265 -5400,2265l-7594 0c-2089,0 -3885,-739 -5364,-2218 -1479,-1491 -2219,-3275 -2219,-5376l0 -3803c0,-2125 740,-3921 2219,-5388 1491,-1467 3275,-2218 5376,-2218l9472 0c3662,0 7078,692 10259,2066 2371,997 4472,2394 6303,4202 1819,1796 3228,3897 4202,6303l164 810c0,434 -199,857 -610,1244 -411,387 -869,587 -1373,587 -317,0 -611,-82 -892,-258 -294,-153 -552,-458 -763,-916 -388,-962 -845,-1843 -1385,-2676 -552,-834 -1221,-1632 -2019,-2395 -1444,-1408 -3158,-2547 -5130,-3415l-1443 -517 -1608 -493z"/>
   <g>
    <path class="fil3" d="M626383 1548615c0,-2394 974,-4566 2547,-6127 1561,-1573 3733,-2535 6115,-2535 2383,0 4555,962 6116,2535 1573,1561 2547,3733 2547,6127 0,2371 -974,4543 -2535,6104 -1573,1584 -3745,2547 -6128,2547 -2382,0 -4554,-974 -6115,-2536 -1573,-1561 -2547,-3732 -2547,-6115zm5681 -2981c-751,751 -1232,1807 -1232,2981 0,1150 481,2207 1232,2970 763,763 1819,1232 2981,1232 1174,0 2231,-469 2982,-1221 763,-762 1232,-1819 1232,-2981 0,-1174 -469,-2230 -1232,-2981 -751,-763 -1808,-1233 -2982,-1233 -1162,0 -2218,470 -2981,1233z"/>
    <path class="fil3" d="M710812 1474761l0 155572 -157484 0 0 -47620c0,-2523 1009,-7265 2699,-11338 1315,-3181 3087,-6069 5212,-7501l81823 -83455c2266,-2277 5423,-3991 8628,-5200 4284,-1608 8744,-2371 11244,-2371l47878 0 0 1913zm-3838 151722l0 -149797 -44040 0c-2159,0 -6068,681 -9895,2125 -2758,1045 -5434,2465 -7254,4296l-82140 83772 -164 106c-1468,927 -2829,3239 -3909,5857 -1514,3650 -2418,7758 -2406,9859l11 43782 149797 0z"/>
    <path class="fil3" d="M699145 1484515l-36211 0c-1631,0 -4214,576 -6632,1444 -2077,740 -3979,1679 -4918,2629l-82786 84430 -516 305c-517,599 -1150,2078 -1726,3733 -786,2230 -1361,4624 -1361,5645l0 35953 134150 0 0 -134139zm-36211 -3838l40049 0 0 141815 -141815 0 0 -39791c0,-1408 669,-4319 1573,-6913 787,-2265 1819,-4425 2817,-5376l153 -141 516 -293 82422 -84078c1374,-1385 3803,-2629 6362,-3544 2817,-1021 5904,-1679 7923,-1679z"/>
   </g>
   <g>
    <path class="fil3" d="M591193 1239890l69065 0 0 27243c0,1455 -587,2782 -1549,3733 -951,962 -2277,1549 -3733,1549l-59698 0c-1608,0 -3087,-657 -4155,-1725 -1068,-1069 -1726,-2536 -1726,-4156l0 -26644 1796 0zm65473 3603l-63677 0 0 23041c0,622 258,1198 681,1608 411,423 986,681 1608,681l59698 0c470,0 892,-188 1186,-493 305,-305 504,-727 504,-1197l0 -23640z"/>
    <path class="fil3" d="M595278 1268823l62351 0 0 70896c0,8815 -3604,16832 -9414,22642 -5822,5822 -13839,9425 -22654,9425 -8815,0 -16831,-3603 -22653,-9413 -5822,-5822 -9426,-13839 -9426,-22654l0 -70896 1796 0zm58759 3592l-56951 0 0 67304c0,7829 3192,14954 8357,20107 5165,5164 12278,8369 20118,8369 7829,0 14954,-3205 20107,-8358 5165,-5164 8369,-12289 8369,-20118l0 -67304z"/>
    <path class="fil3" d="M601323 1277568l48970 0c1854,12853 7336,50871 7336,62151 0,8827 -3604,16844 -9414,22654 -5810,5810 -13839,9413 -22654,9413 -8826,0 -16843,-3603 -22653,-9413 -5811,-5822 -9426,-13839 -9426,-22654 0,-12688 4566,-48254 6256,-62151l1585 0zm45859 3603l-44263 0 -5833 58642c23,7794 3228,14883 8357,20024 5165,5153 12289,8358 20118,8358 7829,0 14954,-3205 20107,-8369 5141,-5141 8346,-12219 8369,-20001l-6855 -58654z"/>
    <path class="fil3" d="M625280 1250395c1678,0 3192,681 4296,1784 1091,1092 1772,2606 1772,4284 0,1667 -681,3193 -1772,4285 -1104,1091 -2618,1772 -4296,1772 -1667,0 -3181,-681 -4285,-1772 -1091,-1092 -1772,-2618 -1772,-4285 0,-1678 681,-3192 1772,-4284 1104,-1103 2618,-1784 4285,-1784z"/>
   </g>
   <g>
    <path class="fil3" d="M496376 1322699l-19696 0c-11362,0 -21703,-4648 -29191,-12148 -7501,-7477 -12149,-17818 -12149,-29192l0 -30401c0,-2993 1232,-5739 3216,-7723 1984,-1984 4719,-3216 7724,-3216l80485 0c3005,0 5740,1244 7723,3216 1984,1984 3217,4719 3217,7723l0 30401c0,11362 -4649,21703 -12137,29192 -7489,7500 -17830,12148 -29192,12148zm-19696 -3932l19696 0c10271,0 19626,-4214 26410,-10986 6773,-6785 10986,-16128 10986,-26422l0 -30401c0,-1925 -798,-3673 -2065,-4941 -1256,-1268 -3017,-2054 -4942,-2054l-80485 0c-1925,0 -3674,786 -4942,2054 -1268,1268 -2054,3016 -2054,4941l0 30401c0,10282 4202,19637 10986,26422 6773,6772 16116,10986 26410,10986z"/>
    <path class="fil3" d="M496376 1310926c8111,0 15494,-3333 20858,-8697 5364,-5353 8698,-12759 8698,-20870l0 -11843 -78807 0 0 11843c0,8123 3333,15506 8686,20870 5364,5364 12758,8697 20869,8697l19696 0zm23640 -5915c-6069,6080 -14438,9848 -23640,9848l-19696 0c-9202,0 -17583,-3768 -23651,-9848 -6069,-6069 -9848,-14450 -9848,-23652l0 -12677c0,-845 352,-1631 915,-2183 552,-563 1338,-915 2184,-915l80485 0c845,0 1620,363 2172,915 575,575 927,1350 927,2183l0 12677c0,9202 -3768,17583 -9848,23652z"/>
    <path class="fil1" d="M483183 1262297c-2265,-1197 -3803,-3568 -3803,-6303 0,-3944 3204,-7137 7148,-7137 3944,0 7137,3193 7137,7137 0,2735 -1538,5106 -3803,6303l0 16820 -6679 0 0 -16820z"/>
    <path class="fil1" d="M486528 1303250c-4425,0 -8017,-3580 -8017,-8005 0,-4425 3592,-8005 8017,-8005 4425,0 8005,3580 8005,8005 0,4425 -3580,8005 -8005,8005zm0 -3122c-2699,0 -4894,-2183 -4894,-4883 0,-2700 2195,-4883 4894,-4883 2700,0 4883,2183 4883,4883 0,2700 -2183,4883 -4883,4883z"/>
   </g>
   <g>
    <path class="fil3" d="M522774 1629652l-120077 0 0 -86612 122049 0 0 86612 -1972 0zm-116144 -3932l114172 0 0 -78748 -114172 0 0 78748z"/>
    <path class="fil3" d="M522774 1561984l-120077 0 0 -18944 122049 0 0 18944 -1972 0zm-116144 -3944l114172 0 0 -11068 -114172 0 0 11068z"/>
    <path class="fil3" d="M463722 1623443c-8299,0 -15811,-3369 -21257,-8815 -5458,-5446 -8815,-12958 -8815,-21257 0,-8299 3357,-15811 8803,-21257 5458,-5446 12970,-8815 21269,-8815 8287,0 15811,3369 21257,8803 5446,5458 8815,12970 8815,21269 0,8299 -3369,15811 -8815,21257 -5446,5446 -12970,8815 -21257,8815zm-18487 -11585c4730,4730 11256,7653 18487,7653 7218,0 13756,-2923 18475,-7653 4730,-4730 7653,-11268 7653,-18487 0,-7219 -2923,-13757 -7641,-18487 -4731,-4730 -11269,-7653 -18487,-7653 -7231,0 -13757,2923 -18487,7653 -4730,4730 -7653,11268 -7653,18487 0,7219 2923,13757 7653,18487z"/>
    <path class="fil3" d="M463722 1612644c-5329,0 -10142,-2159 -13628,-5646 -3498,-3486 -5646,-8310 -5646,-13627 0,-5317 2148,-10141 5646,-13627 3486,-3487 8299,-5646 13628,-5646 5317,0 10141,2159 13627,5646 3486,3486 5646,8310 5646,13627 0,5317 -2160,10141 -5646,13627 -3486,3487 -8310,5646 -13627,5646zm-10846 -8427c2770,2770 6608,4495 10846,4495 4225,0 8064,-1725 10845,-4495 2771,-2770 4484,-6609 4484,-10846 0,-4237 -1713,-8076 -4484,-10846 -2781,-2770 -6620,-4495 -10845,-4495 -4238,0 -8076,1725 -10846,4495 -2782,2770 -4495,6609 -4495,10846 0,4237 1713,8076 4495,10846z"/>
    <path class="fil1" d="M512609 1557055c-2230,0 -4049,-1820 -4049,-4062 0,-2242 1819,-4049 4049,-4049 2242,0 4062,1807 4062,4049 0,2242 -1820,4062 -4062,4062z"/>
    <path class="fil1" d="M413074 1557055c-2242,0 -4062,-1820 -4062,-4062 0,-2242 1820,-4049 4062,-4049 2241,0 4049,1807 4049,4049 0,2242 -1808,4062 -4049,4062z"/>
    <path class="fil1" d="M426232 1557055c-2242,0 -4062,-1820 -4062,-4062 0,-2242 1820,-4049 4062,-4049 2230,0 4049,1807 4049,4049 0,2242 -1819,4062 -4049,4062z"/>
   </g>
   <g>
    <path class="fil3" d="M683229 1103157l79593 0c3122,0 5975,1280 8041,3345 2065,2055 3345,4907 3345,8041l0 79593c0,3122 -1280,5975 -3345,8041 -2055,2065 -4907,3345 -8041,3345l-79593 0c-3134,0 -5975,-1280 -8041,-3345 -2065,-2066 -3345,-4919 -3345,-8041l0 -79593c0,-3134 1280,-5986 3345,-8041 2066,-2065 4919,-3345 8041,-3345zm79593 3932l-79593 0c-2043,0 -3909,845 -5259,2195 -1350,1350 -2183,3216 -2183,5259l0 79593c0,2043 833,3909 2183,5259 1350,1350 3216,2183 5259,2183l79593 0c2043,0 3909,-833 5259,-2183 1350,-1350 2195,-3216 2195,-5259l0 -79593c0,-2043 -845,-3909 -2195,-5259 -1338,-1350 -3205,-2195 -5259,-2195z"/>
    <path class="fil3" d="M691703 1110881l62656 0c3334,0 6362,1373 8557,3568 2207,2195 3568,5235 3568,8557l0 42971c0,3334 -1361,6374 -3568,8569 -2195,2195 -5223,3556 -8557,3556l-62656 0c-3333,0 -6373,-1361 -8568,-3556 -2195,-2195 -3557,-5235 -3557,-8569l0 -42971c0,-3334 1362,-6362 3557,-8557 2207,-2207 5235,-3568 8568,-3568zm62656 3943l-62656 0c-2253,0 -4307,916 -5786,2395 -1479,1491 -2407,3545 -2407,5787l0 42971c0,2254 928,4296 2407,5787 1490,1479 3533,2406 5786,2406l62656 0c2242,0 4296,-927 5775,-2406 1491,-1491 2418,-3533 2418,-5787l0 -42971c0,-2242 -927,-4296 -2418,-5775 -1479,-1491 -3533,-2407 -5775,-2407z"/>
    <path class="fil1" d="M726365 1182610c2265,1197 3803,3580 3803,6315 0,3944 -3193,7136 -7137,7136 -3944,0 -7136,-3192 -7136,-7136 0,-2735 1537,-5118 3791,-6315l0 -16809 6679 0 0 16809z"/>
    <path class="fil1" d="M723031 1133030c4425,0 8005,3591 8005,8017 0,4413 -3580,8005 -8005,8005 -4425,0 -8017,-3592 -8017,-8005 0,-4426 3592,-8017 8017,-8017zm0 3122c2700,0 4883,2195 4883,4895 0,2687 -2183,4882 -4883,4882 -2699,0 -4894,-2195 -4894,-4882 0,-2700 2195,-4895 4894,-4895z"/>
   </g>
   <g>
    <path class="fil3" d="M552271 1093121l-74922 0c-4037,0 -7700,1644 -10364,4308 -2653,2653 -4308,6327 -4308,10365l0 107376 102365 0 0 -109278c0,-3510 -1432,-6714 -3745,-9026 -2312,-2313 -5516,-3745 -9026,-3745zm-74922 3933l74922 0c2430,0 4637,997 6233,2594 1608,1608 2606,3814 2606,6244l0 105334 -94489 0 0 -103432c0,-2958 1209,-5646 3146,-7583 1948,-1948 4636,-3157 7582,-3157z"/>
    <polygon class="fil3" points="563082,1107336 464649,1107336 464649,1111268 563082,1111268 "/>
    <path class="fil1" d="M537329 1120282c-8674,0 -15705,7031 -15705,15706 0,8674 7031,15705 15705,15705 8674,0 15705,-7031 15705,-15705 0,-8675 -7031,-15706 -15705,-15706z"/>
    <path class="fil1" d="M493430 1125154c-5986,0 -10834,4847 -10834,10834 0,5974 4848,10822 10834,10822 5974,0 10822,-4848 10822,-10822 0,-5987 -4848,-10834 -10822,-10834z"/>
    <path class="fil1" d="M493430 1168912c8674,0 15705,7031 15705,15705 0,8674 -7031,15705 -15705,15705 -8674,0 -15717,-7031 -15717,-15705 0,-8674 7043,-15705 15717,-15705z"/>
    <path class="fil1" d="M537329 1173795c5986,0 10822,4847 10822,10822 0,5986 -4836,10834 -10822,10834 -5974,0 -10822,-4848 -10822,-10834 0,-5975 4848,-10822 10822,-10822z"/>
   </g>
   <polygon class="fil0" points="91906,31539 799092,31539 799092,242442 555382,242442 555382,274592 210011,274592 210011,242442 91906,242442 "/>
   <path class="fil3" d="M355946 93632l0 15224 11409 0c1057,0 1949,-353 2700,-1069 739,-704 1115,-1619 1115,-2734l0 -7607c0,-1079 -364,-1971 -1080,-2711 -716,-728 -1631,-1103 -2735,-1103l-11409 0zm0 -3780l11397 0c2066,0 3839,751 5353,2219 1491,1467 2242,3263 2242,5375l0 7595c0,2089 -740,3861 -2219,5352 -1479,1491 -3275,2242 -5364,2242l-13287 0c-1279,0 -1901,-634 -1901,-1901l0 -34204c0,-1268 622,-1890 1901,-1890l15189 0c516,0 974,188 1338,575 375,388 563,834 563,1315 0,434 -164,845 -481,1268 -317,410 -786,610 -1432,610l-13299 0 0 11444zm31340 13287l-2747 8193c-141,399 -375,716 -704,974 -247,165 -599,270 -1021,329 -517,0 -951,-188 -1338,-552 -411,-317 -622,-751 -622,-1291l129 -681 11432 -34180c376,-1080 974,-1631 1784,-1631 810,0 1409,551 1784,1631l11374 34180 141 681c0,493 -211,928 -634,1327 -399,340 -845,516 -1326,516 -258,0 -528,-70 -857,-199 -317,-118 -610,-482 -880,-1104l-2735 -8193 -13780 0zm12512 -3897l-5599 -16714 -5610 16714 11209 0zm37831 11492c0,598 -176,1079 -540,1443 -340,305 -786,458 -1350,458 -493,0 -939,-153 -1326,-469 -376,-329 -564,-799 -564,-1432l0 -32326 -6174 0 -9132 32807c-47,387 -270,716 -622,1009 -364,270 -751,411 -1174,411 -563,0 -1021,-153 -1385,-469 -363,-317 -551,-775 -551,-1350 0,-270 35,-458 94,-575l9507 -34192c270,-939 869,-1409 1808,-1409l9507 0c1268,0 1902,622 1902,1890l0 34204zm11327 -19708l16010 -15869c376,-341 810,-517 1303,-517 469,0 904,188 1315,575 410,388 622,845 622,1374 0,328 -200,751 -576,1279l-11315 11280 11668 20635 270 1009c0,493 -212,904 -623,1268 -387,376 -845,575 -1396,575 -611,0 -1139,-329 -1597,-998l-11150 -19813 -4531 4449 0 14461c0,598 -176,1079 -540,1443 -341,305 -798,458 -1350,458 -505,0 -951,-153 -1326,-469 -376,-329 -564,-799 -564,-1432l0 -34251c0,-481 188,-916 587,-1291 376,-376 822,-552 1303,-552 481,0 927,141 1326,434 376,317 564,799 564,1409l0 14543zm47444 14003c0,2089 -740,3873 -2219,5364 -1479,1491 -3275,2242 -5364,2242l-7594 0c-2066,0 -3850,-739 -5341,-2218 -1502,-1468 -2254,-3263 -2254,-5388l0 -22795c0,-2112 740,-3908 2207,-5387 1479,-1467 3275,-2207 5388,-2207l7594 0c2101,0 3897,740 5376,2219 1467,1490 2207,3274 2207,5375l0 22795zm-3768 24l0 -22830c0,-1080 -364,-1972 -1080,-2712 -716,-727 -1632,-1103 -2735,-1103l-7606 0c-1068,0 -1972,364 -2723,1092 -364,363 -634,774 -810,1232 -176,469 -270,962 -270,1491l0 22830c0,1068 352,1971 1080,2723 387,317 798,587 1232,810 540,176 1033,270 1491,270l7606 0c1056,0 1948,-353 2700,-1069 739,-704 1115,-1619 1115,-2734zm33417 -15201l0 -13322c0,-505 176,-951 563,-1326 376,-388 822,-564 1315,-564 481,0 927,153 1315,470 387,317 575,798 575,1420l0 34157c0,540 -188,1021 -587,1432 -458,340 -892,516 -1326,516 -458,0 -904,-153 -1327,-458 -352,-305 -528,-786 -528,-1420l0 -17125 -15224 0 0 17102c0,598 -176,1079 -540,1443 -340,305 -798,458 -1350,458 -504,0 -950,-153 -1326,-469 -375,-317 -563,-799 -563,-1432l0 -34181c0,-504 188,-974 563,-1408 376,-329 822,-493 1326,-493 482,0 928,164 1303,481 388,317 587,787 587,1432l0 13287 15224 0zm-111602 56576l3791 0c528,0 974,200 1338,587 376,387 564,821 564,1303 0,434 -165,857 -470,1267 -317,423 -798,623 -1432,623l-3791 0 0 5669c0,598 -176,1080 -540,1432 -340,305 -798,458 -1350,458 -505,0 -951,-153 -1326,-470 -376,-317 -564,-786 -564,-1420l0 -5669 -11420 0c-1315,0 -1984,-505 -1984,-1538l59 -458 117 -434 7583 -26621c117,-376 328,-728 657,-1033l352 -188c211,-117 458,-164 739,-164 552,0 1010,176 1374,540 399,340 598,786 598,1338l-82 563 -6913 24215 8920 0 0 -5705c0,-504 188,-974 564,-1408 375,-329 821,-493 1326,-493 481,0 927,153 1303,469 387,329 587,799 587,1432l0 5705zm13264 9449c0,-517 187,-963 551,-1338 376,-364 822,-552 1338,-552 411,0 834,188 1256,552 423,375 634,821 634,1338 0,458 -188,880 -563,1279 -364,411 -810,611 -1327,611 -540,0 -997,-188 -1385,-564 -340,-399 -504,-845 -504,-1326zm30388 -6468c0,2254 -809,4214 -2429,5881 -1620,1655 -3604,2477 -5940,2477l-2277 0c-2253,0 -4225,-810 -5880,-2418 -1655,-1608 -2477,-3592 -2477,-5940l0 -21280c0,-2219 810,-4179 2442,-5857 1631,-1667 3603,-2500 5915,-2500l2277 0c2266,0 4226,798 5881,2418 1655,1619 2488,3603 2488,5939l0 21280zm-3779 12l0 -21316c0,-1244 -446,-2324 -1326,-3216 -881,-904 -1961,-1350 -3252,-1350l-2300 0c-1245,0 -2324,446 -3217,1339 -903,892 -1349,1960 -1349,3227l0 21316c0,1256 446,2324 1326,3228 892,892 1972,1338 3240,1338l2300 0c1233,0 2301,-434 3216,-1303 904,-868 1362,-1960 1362,-3263zm15224 -10658l-82 1902 0 9519c0,1068 352,1972 1091,2723 376,317 787,587 1221,810 540,176 1045,270 1502,270l3815 0c1056,0 1949,-352 2688,-1068 751,-704 1127,-1620 1127,-2735l0 -7606c0,-1080 -364,-1972 -1080,-2711 -716,-728 -1632,-1104 -2735,-1104l-7547 0zm669 -3779l6866 0c2066,0 3839,751 5353,2218 1502,1467 2253,3263 2253,5376l0 7594c0,2090 -751,3862 -2230,5353 -1490,1490 -3275,2242 -5376,2242l-3803 0c-2042,0 -3814,-728 -5329,-2195 -1502,-1468 -2265,-3263 -2265,-5400l0 -9484c0,-3603 681,-7019 2066,-10259 927,-2241 2324,-4296 4143,-6138 1831,-1843 3944,-3287 6350,-4332l810 -187c493,0 939,187 1338,587 317,422 482,880 482,1385 0,363 -83,669 -247,927 -152,258 -458,516 -915,786 -505,200 -963,399 -1374,611 -411,211 -845,481 -1314,798 -775,528 -1573,1174 -2383,1960 -1491,1479 -2629,3181 -3416,5094l-575 1526 -434 1538zm-55801 66013c0,598 -176,1079 -540,1443 -341,306 -787,458 -1350,458 -493,0 -939,-152 -1326,-469 -376,-317 -564,-799 -564,-1432l0 -29615 -4355 4355c-387,387 -821,575 -1314,575 -446,0 -892,-188 -1315,-575 -399,-399 -610,-845 -610,-1362 0,-434 199,-868 575,-1302l7583 -7618c246,-258 516,-458 786,-622 270,-153 563,-235 880,-235 317,0 681,199 1092,575 305,399 458,939 458,1608l0 34216zm7606 11c0,-516 188,-962 551,-1338 376,-364 822,-551 1338,-551 411,0 834,187 1256,551 423,376 634,822 634,1338 0,458 -188,881 -563,1280 -364,411 -810,610 -1327,610 -539,0 -997,-188 -1385,-563 -340,-399 -504,-845 -504,-1327zm28992 -21468l-12278 19579 11785 0c528,0 962,199 1338,586 376,376 552,822 552,1303 0,435 -153,857 -470,1268 -329,423 -798,622 -1420,622l-15200 0c-1374,0 -2055,-505 -2055,-1514 0,-399 153,-880 458,-1420l14039 -22384c469,-986 692,-1937 692,-2852 0,-1620 -622,-3029 -1890,-4238 -598,-551 -1303,-997 -2101,-1326 -786,-317 -1655,-493 -2570,-493 -963,0 -1890,258 -2770,763 -881,563 -1620,1291 -2195,2171 -141,235 -399,458 -740,681l-845 188c-481,0 -927,-176 -1338,-528 -411,-352 -610,-787 -610,-1315 0,-246 117,-622 328,-1080 869,-1361 2043,-2465 3533,-3333 728,-411 1456,-740 2195,-963 740,-235 1467,-352 2172,-352 2969,0 5481,974 7535,2935 2054,1971 3076,4307 3076,7030 0,1562 -399,3111 -1221,4672zm26586 0l-12278 19579 11785 0c528,0 962,199 1338,586 376,376 552,822 552,1303 0,435 -153,857 -470,1268 -329,423 -798,622 -1420,622l-15201 0c-1373,0 -2054,-505 -2054,-1514 0,-399 153,-880 458,-1420l14038 -22384c470,-986 693,-1937 693,-2852 0,-1620 -622,-3029 -1890,-4238 -598,-551 -1303,-997 -2101,-1326 -786,-317 -1655,-493 -2570,-493 -963,0 -1890,258 -2771,763 -880,563 -1619,1291 -2194,2171 -141,235 -400,458 -740,681l-845 188c-481,0 -927,-176 -1338,-528 -411,-352 -611,-787 -611,-1315 0,-246 118,-622 329,-1080 869,-1361 2042,-2465 3533,-3333 728,-411 1456,-740 2195,-963 740,-235 1467,-352 2172,-352 2969,0 5481,974 7535,2935 2054,1971 3076,4307 3076,7030 0,1562 -400,3111 -1221,4672zm-82364 26562c188,364 270,681 270,986 0,482 -211,904 -610,1268 -399,352 -880,540 -1397,540 -575,0 -1103,-317 -1596,-974 -1702,-3158 -3099,-6714 -4191,-10705 -422,-1620 -774,-3451 -1056,-5481 -293,-2019 -434,-3944 -434,-5775 0,-7689 1889,-15013 5681,-21962 164,-305 399,-551 704,-727 270,-130 587,-223 927,-282 552,0 1021,188 1409,552 375,316 563,762 563,1326 0,270 -82,587 -270,951 -422,739 -798,1479 -1162,2206 -352,740 -681,1503 -997,2301 -317,798 -623,1620 -893,2477 -281,845 -563,1749 -833,2711 -904,3521 -1362,7007 -1362,10447 0,7113 1749,13827 5247,20141zm94700 1820c-106,235 -329,469 -681,704l-457 188 -493 82c-505,0 -963,-176 -1362,-528 -411,-352 -610,-798 -610,-1315 0,-270 82,-587 258,-951 1584,-2910 2887,-6185 3909,-9824 903,-3510 1349,-6949 1349,-10317 0,-1972 -82,-3745 -281,-5341 -188,-1596 -517,-3263 -986,-4989l-740 -2500 -387 -1197 -493 -1279c-575,-1479 -1362,-3087 -2371,-4825l-258 -1009c0,-434 199,-833 610,-1233 423,-387 880,-575 1397,-575 622,0 1162,329 1596,998 916,1702 1702,3381 2348,5024 633,1643 1256,3545 1854,5669 423,1596 775,3404 1057,5458 293,2043 434,3979 434,5799 0,2124 -106,4084 -340,5880 -224,1796 -587,3615 -1092,5446 -869,3686 -2289,7231 -4261,10635z"/>
  </g>
 </g>
</svg>
