<?xml version="1.0" encoding="utf-8"?>
<!-- Generator: Adobe Illustrator 21.1.0, SVG Export Plug-In . SVG Version: 6.00 Build 0)  -->
<svg version="1.1" id="Слой_1" xmlns="http://www.w3.org/2000/svg" xmlns:xlink="http://www.w3.org/1999/xlink" x="0px" y="0px"
	 viewBox="0 0 73 73" style="enable-background:new 0 0 73 73;" xml:space="preserve">
<style type="text/css">
	.st0{fill:#FFCB7C;}
	.st1{fill:#FEFEFE;}
	.st2{fill:#D3D7DF;}
</style>
<g id="Слой_x0020_1">
	<g id="_789977808">
		<circle class="st0" cx="36.5" cy="36.5" r="36.5"/>
		<circle class="st1" cx="36.5" cy="36.5" r="31.202"/>
		<path class="st2" d="M50.574,45.331H22.426c-0.762,0-1.38-0.618-1.38-1.38V22.84h30.907v21.111
			C51.954,44.713,51.336,45.331,50.574,45.331z"/>
		<g>
			<path class="st0" d="M35.12,45.331h2.76v8.141h-2.76V45.331z"/>
			<path class="st0" d="M47.528,53.471h-3.324l-3.75-8.141h3.324L47.528,53.471z"/>
			<path class="st0" d="M25.472,53.471h3.324l3.75-8.141h-3.324L25.472,53.471z"/>
			<path class="st0" d="M19.529,19.529h33.943v3.311H19.529V19.529z"/>
		</g>
		<path d="M53.471,18.839h-8.034H39.26h-0.018h-5.485H33.74h-3.801H19.529c-0.381,0-0.69,0.309-0.69,0.69v3.311
			c0,0.382,0.309,0.69,0.69,0.69h0.828v20.421c0,1.141,0.929,2.07,2.07,2.07h5.719l-3.299,7.162
			c-0.099,0.213-0.081,0.463,0.045,0.66c0.127,0.198,0.346,0.318,0.582,0.318h3.324c0.27,0,0.513-0.157,0.626-0.402l3.565-7.739
			h1.442v7.451c0,0.381,0.308,0.69,0.69,0.69h2.76c0.382,0,0.69-0.309,0.69-0.69v-7.451h1.443l3.565,7.739
			c0.113,0.245,0.357,0.402,0.626,0.402h3.324c0.235,0,0.454-0.12,0.582-0.318c0.126-0.198,0.143-0.447,0.045-0.66l-3.299-7.162
			h5.719c1.141,0,2.07-0.929,2.07-2.07V23.53h0.828c0.381,0,0.69-0.308,0.69-0.69v-3.311C54.161,19.147,53.853,18.839,53.471,18.839
			z M39.242,20.219h0.018h6.178h7.344v1.932H20.219v-1.932h9.721h3.801h0.018H39.242z M28.355,52.781H26.55l3.114-6.761h1.805
			L28.355,52.781z M37.19,52.781h-1.38v-6.761h1.38V52.781z M46.45,52.781h-1.805l-3.114-6.761h1.805L46.45,52.781z M51.264,43.951
			c0,0.38-0.31,0.69-0.69,0.69H22.426c-0.38,0-0.69-0.31-0.69-0.69V23.53h29.527V43.951z"/>
		<path d="M36.5,20.219c0.181,0,0.359-0.074,0.487-0.203c0.128-0.128,0.203-0.306,0.203-0.487c0-0.181-0.074-0.359-0.203-0.487
			c-0.129-0.128-0.306-0.203-0.487-0.203c-0.181,0-0.359,0.074-0.487,0.203c-0.128,0.128-0.203,0.306-0.203,0.487
			c0,0.181,0.074,0.359,0.203,0.487C36.141,20.144,36.319,20.219,36.5,20.219z"/>
		<path d="M26.126,33.33l0.122-0.124v2.612h-0.464c-0.38,0-0.69,0.31-0.69,0.69c0,0.381,0.31,0.69,0.69,0.69h2.308
			c0.38,0,0.69-0.309,0.69-0.69c0-0.38-0.31-0.69-0.69-0.69h-0.464v-4.276c0-0.279-0.168-0.531-0.426-0.638
			c-0.258-0.106-0.555-0.047-0.751,0.149l-1.301,1.301c-0.27,0.27-0.27,0.706,0,0.976C25.419,33.599,25.856,33.599,26.126,33.33z"/>
		<path d="M35.688,33.33l0.122-0.124v2.612h-0.464c-0.38,0-0.69,0.31-0.69,0.69c0,0.381,0.31,0.69,0.69,0.69h2.308
			c0.38,0,0.69-0.309,0.69-0.69c0-0.38-0.31-0.69-0.69-0.69H37.19v-4.276c0-0.279-0.169-0.531-0.426-0.638
			c-0.258-0.106-0.554-0.047-0.751,0.149l-1.301,1.301c-0.27,0.27-0.27,0.706,0,0.976C34.981,33.599,35.418,33.599,35.688,33.33z"/>
		<path d="M30.429,34.775h0.299v0.299c0,0.381,0.309,0.69,0.69,0.69c0.381,0,0.689-0.309,0.689-0.69v-0.299h0.3
			c0.381,0,0.689-0.308,0.689-0.69c0-0.38-0.308-0.69-0.689-0.69h-0.3v-0.299c0-0.38-0.308-0.69-0.689-0.69
			c-0.381,0-0.69,0.31-0.69,0.69v0.299h-0.299c-0.381,0-0.69,0.309-0.69,0.69C29.739,34.467,30.048,34.775,30.429,34.775z"/>
		<path d="M40.789,34.43h1.977c0.381,0,0.69-0.309,0.69-0.69c0-0.38-0.309-0.69-0.69-0.69h-1.977c-0.382,0-0.69,0.31-0.69,0.69
			C40.099,34.122,40.408,34.43,40.789,34.43z"/>
		<path d="M40.789,37.19h1.977c0.381,0,0.69-0.309,0.69-0.69c0-0.382-0.309-0.69-0.69-0.69h-1.977c-0.382,0-0.69,0.308-0.69,0.69
			C40.099,36.882,40.408,37.19,40.789,37.19z"/>
		<path d="M45.551,33.159c0.381,0,0.689-0.309,0.689-0.69c0-0.16,0.067-0.307,0.186-0.414c0.119-0.107,0.274-0.157,0.437-0.138
			c0.251,0.027,0.459,0.237,0.487,0.486c0.03,0.274-0.126,0.465-0.283,0.552c-0.592,0.332-0.961,0.947-0.961,1.606v0.053
			c0,0.382,0.308,0.69,0.69,0.69c0.381,0,0.69-0.308,0.69-0.69v-0.053c0-0.162,0.095-0.312,0.254-0.402
			c0.682-0.38,1.067-1.13,0.981-1.908c-0.099-0.89-0.817-1.609-1.707-1.706c-0.55-0.061-1.1,0.114-1.509,0.482
			c-0.41,0.367-0.644,0.892-0.644,1.442C44.861,32.85,45.169,33.159,45.551,33.159z"/>
		<path d="M46.797,35.81c-0.181,0-0.359,0.073-0.487,0.201c-0.128,0.129-0.203,0.307-0.203,0.489c0,0.181,0.074,0.359,0.203,0.487
			c0.128,0.128,0.306,0.203,0.487,0.203c0.181,0,0.359-0.074,0.487-0.203c0.128-0.129,0.203-0.306,0.203-0.487
			c0-0.181-0.074-0.359-0.203-0.489C47.156,35.883,46.978,35.81,46.797,35.81z"/>
	</g>
</g>
</svg>
