<?xml version="1.0" encoding="utf-8"?>
<!-- Generator: Adobe Illustrator 21.1.0, SVG Export Plug-In . SVG Version: 6.00 Build 0)  -->
<svg version="1.1" id="Слой_1" xmlns="http://www.w3.org/2000/svg" xmlns:xlink="http://www.w3.org/1999/xlink" x="0px" y="0px"
	 viewBox="0 0 73 73" style="enable-background:new 0 0 73 73;" xml:space="preserve">
<style type="text/css">
	.st0{fill:#5ECB66;}
	.st1{fill:#FEFEFE;}
	.st2{fill:#FFFFFF;}
</style>
<g id="Слой_x0020_1">
	<g id="_789972976">
		<circle class="st0" cx="36.5" cy="36.5" r="36.5"/>
		<circle class="st1" cx="36.5" cy="36.5" r="31.202"/>
		<path d="M51.811,53.721V19.278c0-2.113-1.715-3.831-3.824-3.831H25.012c-2.108,0-3.824,1.718-3.824,3.831v34.443
			c0,2.112,1.717,3.832,3.824,3.832h22.975C50.096,57.554,51.811,55.833,51.811,53.721z"/>
		<path class="st0" d="M25.012,56.022c-1.263,0-2.292-1.033-2.292-2.301V19.278c0-1.269,1.028-2.301,2.292-2.301h22.975
			c1.265,0,2.294,1.031,2.294,2.301v34.443c0,1.268-1.029,2.301-2.294,2.301H25.012z"/>
		<path class="st2" d="M47.601,53.724v-34.45c0-0.424-0.343-0.766-0.765-0.766h-6.889h-6.89h-6.892
			c-0.423,0-0.765,0.343-0.765,0.766v34.45c0,0.424,0.343,0.766,0.765,0.766h6.889h6.893h6.889
			C47.258,54.491,47.601,54.148,47.601,53.724z M32.29,20.039v3.064c0,0.424,0.343,0.765,0.764,0.765h6.893
			c0.422,0,0.764-0.341,0.764-0.765v-3.064h5.36v16.079h-5.428c-0.366-2.169-2.252-3.828-4.525-3.828
			c-2.271,0-4.157,1.659-4.524,3.828H26.93V20.039H32.29z M33.82,20.039v2.298h5.36v-2.298H33.82z M33.163,36.117
			c0.342-1.319,1.532-2.297,2.954-2.297c1.422,0,2.612,0.978,2.954,2.297H33.163z M39.072,37.648
			c-0.343,1.316-1.532,2.296-2.954,2.296c-1.422,0-2.612-0.979-2.954-2.296H39.072z M33.82,50.663v2.296h5.36v-2.296H33.82z
			 M26.93,37.648h4.664c0.366,2.169,2.252,3.828,4.524,3.828c2.272,0,4.159-1.659,4.525-3.828h5.428v15.311h-5.36v-3.062
			c0-0.423-0.342-0.764-0.764-0.764h-6.89c-0.424,0-0.766,0.341-0.766,0.764v3.062h-5.36V37.648L26.93,37.648z"/>
	</g>
</g>
</svg>
